<svg width="67" height="25" fill="#fff" xmlns="http://www.w3.org/2000/svg"><path d="M10.288 18H.421V.867h9.867v2.977H4.054v3.761h5.8v2.977h-5.8V15h6.234v3zm6.758 0L12.054 4.898h3.738l2.531 7.465c.282.946.457 1.84.528 2.684h.07c.039-.75.215-1.645.527-2.684l2.52-7.465h3.738L20.714 18h-3.668zM33.355 7.195c-.758 0-1.352.242-1.782.727-.43.476-.675 1.156-.738 2.039h5.016c-.016-.883-.246-1.563-.692-2.04-.445-.484-1.047-.726-1.804-.726zm.504 11.04c-2.11 0-3.758-.583-4.946-1.747-1.187-1.164-1.781-2.812-1.781-4.945 0-2.195.547-3.89 1.64-5.086 1.102-1.203 2.622-1.805 4.56-1.805 1.85 0 3.292.528 4.323 1.582 1.032 1.055 1.547 2.512 1.547 4.371v1.735h-8.449c.04 1.015.34 1.808.902 2.379.563.57 1.352.855 2.368.855.789 0 1.535-.082 2.238-.246a11.2 11.2 0 002.203-.785v2.766A8.212 8.212 0 0136.46 18c-.71.156-1.578.234-2.602.234zM54.538 18h-3.574v-7.652c0-.946-.168-1.653-.504-2.121-.336-.477-.87-.715-1.605-.715-1 0-1.723.336-2.168 1.008-.446.664-.668 1.77-.668 3.316V18h-3.575V4.898h2.731l.48 1.676h.2a3.746 3.746 0 011.64-1.43c.703-.328 1.5-.492 2.39-.492 1.524 0 2.68.414 3.47 1.243.789.82 1.183 2.007 1.183 3.562V18zm9.535-2.613c.626 0 1.376-.137 2.25-.41v2.66c-.89.398-1.984.597-3.28.597-1.43 0-2.473-.359-3.13-1.078-.648-.726-.972-1.812-.972-3.258V7.582H57.23V6.07l1.969-1.195 1.03-2.766h2.286V4.9h3.668v2.683h-3.668v6.316c0 .508.14.883.422 1.125.289.243.668.364 1.136.364z"/></svg>