<svg width="105" height="25" fill="#fff" xmlns="http://www.w3.org/2000/svg"><path d="M7.292 9.379h6.797v8.883c-1.102.36-2.14.61-3.117.75a19.62 19.62 0 01-2.977.222c-2.586 0-4.562-.757-5.93-2.273C.706 15.438.026 13.254.026 10.41c0-2.766.79-4.923 2.368-6.47 1.585-1.546 3.78-2.32 6.585-2.32 1.758 0 3.454.352 5.086 1.055l-1.207 2.906a8.62 8.62 0 00-3.902-.937c-1.57 0-2.828.527-3.773 1.582-.946 1.054-1.418 2.472-1.418 4.253 0 1.86.379 3.282 1.136 4.266.766.977 1.875 1.465 3.328 1.465.758 0 1.528-.078 2.31-.234v-3.575H7.291V9.38zm18.254-3.727c.484 0 .887.035 1.207.106l-.27 3.351a4.095 4.095 0 00-1.054-.117c-1.14 0-2.031.293-2.672.88-.633.585-.95 1.405-.95 2.46V19h-3.573V5.898h2.706l.528 2.204h.176a4.895 4.895 0 011.64-1.77 4.063 4.063 0 012.262-.68zm9.348 2.543c-.758 0-1.352.242-1.782.727-.43.476-.675 1.156-.738 2.039h5.016c-.016-.883-.246-1.563-.692-2.04-.445-.483-1.047-.726-1.804-.726zm.504 11.04c-2.11 0-3.758-.583-4.946-1.747-1.187-1.164-1.781-2.812-1.781-4.945 0-2.195.547-3.89 1.64-5.086 1.102-1.203 2.622-1.805 4.56-1.805 1.85 0 3.292.528 4.323 1.582 1.032 1.055 1.547 2.512 1.547 4.371v1.735h-8.449c.04 1.015.34 1.808.902 2.379.563.57 1.352.855 2.368.855.789 0 1.535-.082 2.238-.246a11.2 11.2 0 002.203-.785v2.766A8.212 8.212 0 0138 19c-.71.156-1.578.234-2.601.234zM49.41 8.195c-.758 0-1.352.242-1.782.727-.43.476-.676 1.156-.738 2.039h5.016c-.016-.883-.247-1.563-.692-2.04-.445-.483-1.047-.726-1.805-.726zm.503 11.04c-2.11 0-3.757-.583-4.945-1.747-1.188-1.164-1.781-2.812-1.781-4.945 0-2.195.547-3.89 1.64-5.086 1.102-1.203 2.621-1.805 4.559-1.805 1.851 0 3.293.528 4.324 1.582 1.031 1.055 1.547 2.512 1.547 4.371v1.735h-8.45c.04 1.015.34 1.808.903 2.379.563.57 1.352.855 2.367.855.79 0 1.535-.082 2.239-.246a11.2 11.2 0 002.203-.785v2.766a8.21 8.21 0 01-2.004.691c-.711.156-1.578.234-2.602.234zm14.106-2.848c.625 0 1.375-.137 2.25-.41v2.66c-.89.398-1.985.597-3.281.597-1.43 0-2.473-.359-3.13-1.078-.648-.726-.972-1.812-.972-3.258V8.582h-1.71V7.07l1.968-1.195 1.031-2.766h2.285V5.9h3.668v2.683H62.46v6.316c0 .508.14.883.422 1.125.29.243.668.364 1.137.364zm5.094-13.875c0-1.164.648-1.746 1.945-1.746 1.297 0 1.945.582 1.945 1.746 0 .554-.164.988-.492 1.3-.32.305-.805.458-1.453.458-1.297 0-1.945-.586-1.945-1.758zM72.839 19h-3.574V5.898h3.574V19zm16.191 0h-3.574v-7.652c0-.946-.168-1.653-.504-2.121-.335-.477-.87-.715-1.605-.715-1 0-1.723.336-2.168 1.008-.445.664-.668 1.77-.668 3.316V19h-3.574V5.898h2.73l.48 1.676h.2a3.746 3.746 0 011.64-1.43c.704-.328 1.5-.492 2.391-.492 1.524 0 2.68.414 3.47 1.243.788.82 1.183 2.007 1.183 3.562V19zm15.419-13.102v1.817l-2.051.527c.375.586.562 1.242.562 1.969 0 1.406-.492 2.504-1.476 3.293-.977.781-2.336 1.172-4.078 1.172l-.645-.035-.527-.059c-.367.281-.55.594-.55.938 0 .515.655.773 1.968.773h2.226c1.438 0 2.532.309 3.282.926.757.617 1.136 1.523 1.136 2.718 0 1.532-.64 2.72-1.922 3.563-1.273.844-3.105 1.266-5.496 1.266-1.828 0-3.226-.32-4.195-.961-.96-.633-1.441-1.524-1.441-2.672 0-.79.246-1.45.738-1.98.492-.532 1.215-.91 2.168-1.137a2.408 2.408 0 01-.961-.762c-.273-.36-.41-.738-.41-1.137 0-.5.144-.914.433-1.242.29-.336.707-.664 1.254-.984a3.548 3.548 0 01-1.64-1.43c-.399-.656-.598-1.43-.598-2.32 0-1.43.465-2.536 1.395-3.317.93-.781 2.257-1.172 3.984-1.172.367 0 .8.035 1.3.106.508.062.833.11.973.14h4.571zM94.335 20.852c0 .492.235.878.704 1.16.476.281 1.14.422 1.992.422 1.281 0 2.285-.176 3.011-.528.727-.351 1.09-.832 1.09-1.441 0-.492-.215-.832-.644-1.02-.43-.187-1.094-.28-1.992-.28h-1.852c-.656 0-1.207.151-1.652.456-.438.313-.657.723-.657 1.23zm1.301-10.665c0 .711.16 1.274.48 1.688.329.414.825.621 1.489.621.672 0 1.164-.207 1.477-.621.312-.414.468-.977.468-1.688 0-1.578-.648-2.367-1.945-2.367-1.313 0-1.969.79-1.969 2.367z"/></svg>