<svg width="90" height="25" fill="#fff" xmlns="http://www.w3.org/2000/svg"><path d="M16.42 10.41c0 2.836-.702 5.016-2.109 6.54-1.406 1.523-3.421 2.284-6.046 2.284-2.625 0-4.641-.761-6.047-2.285-1.406-1.523-2.11-3.71-2.11-6.562 0-2.852.704-5.028 2.11-6.528 1.414-1.507 3.437-2.261 6.07-2.261 2.633 0 4.645.757 6.035 2.273 1.399 1.516 2.098 3.695 2.098 6.54zm-12.503 0c0 1.914.363 3.356 1.09 4.324.726.97 1.812 1.454 3.258 1.454 2.898 0 4.347-1.926 4.347-5.778 0-3.86-1.441-5.789-4.324-5.789-1.445 0-2.535.488-3.27 1.465-.734.969-1.101 2.41-1.101 4.324zM29.308 19l-.48-1.676h-.188c-.383.61-.926 1.082-1.63 1.418-.702.328-1.503.492-2.402.492-1.539 0-2.699-.41-3.48-1.23-.781-.828-1.172-2.016-1.172-3.563V5.898h3.574v7.653c0 .945.168 1.656.504 2.133.336.468.871.703 1.606.703 1 0 1.722-.332 2.168-.996.445-.672.668-1.782.668-3.329V5.899h3.574V19h-2.742zm12.347-2.613c.625 0 1.375-.137 2.25-.41v2.66c-.89.398-1.984.597-3.28.597-1.43 0-2.474-.359-3.13-1.078-.648-.726-.972-1.812-.972-3.258V8.582h-1.711V7.07l1.968-1.195 1.032-2.766h2.285V5.9h3.668v2.683h-3.668v6.316c0 .508.14.883.422 1.125.289.243.668.364 1.136.364zM50.476 19h-3.574V.766h3.574V19zm3.945-16.488c0-1.164.649-1.746 1.946-1.746 1.296 0 1.945.582 1.945 1.746 0 .554-.164.988-.492 1.3-.32.305-.805.458-1.453.458-1.297 0-1.946-.586-1.946-1.758zM58.148 19h-3.575V5.898h3.575V19zm16.192 0h-3.575v-7.652c0-.946-.168-1.653-.504-2.121-.336-.477-.871-.715-1.605-.715-1 0-1.723.336-2.168 1.008-.446.664-.668 1.77-.668 3.316V19h-3.575V5.898h2.73l.481 1.676h.2a3.746 3.746 0 011.64-1.43c.703-.328 1.5-.492 2.39-.492 1.524 0 2.68.414 3.47 1.243.789.82 1.183 2.007 1.183 3.562V19zm9.44-10.805c-.757 0-1.35.242-1.78.727-.43.476-.676 1.156-.739 2.039h5.016c-.016-.883-.246-1.563-.692-2.04-.445-.483-1.046-.726-1.804-.726zm.505 11.04c-2.11 0-3.758-.583-4.946-1.747-1.187-1.164-1.781-2.812-1.781-4.945 0-2.195.547-3.89 1.64-5.086 1.102-1.203 2.622-1.805 4.56-1.805 1.85 0 3.292.528 4.323 1.582 1.032 1.055 1.547 2.512 1.547 4.371v1.735H81.18c.04 1.015.34 1.808.902 2.379.563.57 1.352.855 2.368.855.789 0 1.535-.082 2.238-.246a11.2 11.2 0 002.203-.785v2.766a8.21 8.21 0 01-2.004.691c-.71.156-1.578.234-2.601.234z"/></svg>