<svg width="81" height="25" viewBox="0 0 81 25" fill="#fff" xmlns="http://www.w3.org/2000/svg">
<path d="M12.835 18L11.5928 13.9219H5.34668L4.10449 18H0.19043L6.2373 0.796875H10.6787L16.749 18H12.835ZM10.7256 10.875C9.57715 7.17969 8.92871 5.08984 8.78027 4.60547C8.63965 4.12109 8.53809 3.73828 8.47559 3.45703C8.21777 4.45703 7.47949 6.92969 6.26074 10.875H10.7256Z" />
<path d="M24.2921 18.2344C20.2139 18.2344 18.1749 15.9961 18.1749 11.5195C18.1749 9.29297 18.7296 7.59375 19.8389 6.42188C20.9483 5.24219 22.5381 4.65234 24.6085 4.65234C26.1241 4.65234 27.4835 4.94922 28.6866 5.54297L27.6319 8.30859C27.0694 8.08203 26.546 7.89844 26.0616 7.75781C25.5772 7.60938 25.0928 7.53516 24.6085 7.53516C22.7491 7.53516 21.8194 8.85547 21.8194 11.4961C21.8194 14.0586 22.7491 15.3398 24.6085 15.3398C25.296 15.3398 25.9327 15.25 26.5186 15.0703C27.1046 14.8828 27.6905 14.5938 28.2764 14.2031V17.2617C27.6983 17.6289 27.1124 17.8828 26.5186 18.0234C25.9327 18.1641 25.1905 18.2344 24.2921 18.2344Z" />
<path d="M36.9796 18.2344C32.9015 18.2344 30.8624 15.9961 30.8624 11.5195C30.8624 9.29297 31.4171 7.59375 32.5265 6.42188C33.6359 5.24219 35.2257 4.65234 37.296 4.65234C38.8116 4.65234 40.171 4.94922 41.3741 5.54297L40.3195 8.30859C39.757 8.08203 39.2335 7.89844 38.7491 7.75781C38.2648 7.60938 37.7804 7.53516 37.296 7.53516C35.4366 7.53516 34.507 8.85547 34.507 11.4961C34.507 14.0586 35.4366 15.3398 37.296 15.3398C37.9835 15.3398 38.6202 15.25 39.2062 15.0703C39.7921 14.8828 40.3781 14.5938 40.964 14.2031V17.2617C40.3859 17.6289 39.7999 17.8828 39.2062 18.0234C38.6202 18.1641 37.8781 18.2344 36.9796 18.2344Z" />
<path d="M49.7727 7.19531C49.0148 7.19531 48.4211 7.4375 47.9914 7.92188C47.5617 8.39844 47.3156 9.07812 47.2531 9.96094H52.2687C52.2531 9.07812 52.0227 8.39844 51.5773 7.92188C51.132 7.4375 50.5305 7.19531 49.7727 7.19531ZM50.2766 18.2344C48.1672 18.2344 46.5187 17.6523 45.3312 16.4883C44.1437 15.3242 43.55 13.6758 43.55 11.543C43.55 9.34766 44.0969 7.65234 45.1906 6.45703C46.2922 5.25391 47.8117 4.65234 49.7492 4.65234C51.6008 4.65234 53.0422 5.17969 54.0734 6.23438C55.1047 7.28906 55.6203 8.74609 55.6203 10.6055V12.3398H47.1711C47.2102 13.3555 47.5109 14.1484 48.0734 14.7188C48.6359 15.2891 49.425 15.5742 50.4406 15.5742C51.2297 15.5742 51.9758 15.4922 52.6789 15.3281C53.382 15.1641 54.1164 14.9023 54.882 14.543V17.3086C54.257 17.6211 53.5891 17.8516 52.8781 18C52.1672 18.1562 51.3 18.2344 50.2766 18.2344Z" />
<path d="M68.0032 14.1094C68.0032 15.4531 67.5344 16.4766 66.5969 17.1797C65.6672 17.8828 64.2727 18.2344 62.4133 18.2344C61.4602 18.2344 60.6477 18.168 59.9758 18.0352C59.304 17.9102 58.6751 17.7227 58.0891 17.4727V14.5195C58.7532 14.832 59.4993 15.0938 60.3274 15.3047C61.1633 15.5156 61.8977 15.6211 62.5305 15.6211C63.8274 15.6211 64.4758 15.2461 64.4758 14.4961C64.4758 14.2148 64.3899 13.9883 64.218 13.8164C64.0462 13.6367 63.7493 13.4375 63.3274 13.2188C62.9055 12.9922 62.343 12.7305 61.6399 12.4336C60.6321 12.0117 59.8899 11.6211 59.4133 11.2617C58.9446 10.9023 58.6008 10.4922 58.3821 10.0312C58.1712 9.5625 58.0657 8.98828 58.0657 8.30859C58.0657 7.14453 58.5149 6.24609 59.4133 5.61328C60.3196 4.97266 61.6008 4.65234 63.2571 4.65234C64.8352 4.65234 66.3704 4.99609 67.8626 5.68359L66.7844 8.26172C66.1282 7.98047 65.5149 7.75 64.9446 7.57031C64.3743 7.39062 63.7922 7.30078 63.1985 7.30078C62.1438 7.30078 61.6165 7.58594 61.6165 8.15625C61.6165 8.47656 61.7844 8.75391 62.1204 8.98828C62.4641 9.22266 63.2102 9.57031 64.3587 10.0312C65.3821 10.4453 66.1321 10.832 66.6087 11.1914C67.0852 11.5508 67.4368 11.9648 67.6633 12.4336C67.8899 12.9023 68.0032 13.4609 68.0032 14.1094Z" />
<path d="M80.2689 14.1094C80.2689 15.4531 79.8001 16.4766 78.8626 17.1797C77.9329 17.8828 76.5384 18.2344 74.679 18.2344C73.7259 18.2344 72.9134 18.168 72.2415 18.0352C71.5696 17.9102 70.9407 17.7227 70.3548 17.4727V14.5195C71.0189 14.832 71.765 15.0938 72.5931 15.3047C73.429 15.5156 74.1634 15.6211 74.7962 15.6211C76.0931 15.6211 76.7415 15.2461 76.7415 14.4961C76.7415 14.2148 76.6556 13.9883 76.4837 13.8164C76.3118 13.6367 76.015 13.4375 75.5931 13.2188C75.1712 12.9922 74.6087 12.7305 73.9056 12.4336C72.8978 12.0117 72.1556 11.6211 71.679 11.2617C71.2103 10.9023 70.8665 10.4922 70.6478 10.0312C70.4368 9.5625 70.3314 8.98828 70.3314 8.30859C70.3314 7.14453 70.7806 6.24609 71.679 5.61328C72.5853 4.97266 73.8665 4.65234 75.5228 4.65234C77.1009 4.65234 78.6361 4.99609 80.1282 5.68359L79.0501 8.26172C78.3939 7.98047 77.7806 7.75 77.2103 7.57031C76.64 7.39062 76.0579 7.30078 75.4642 7.30078C74.4095 7.30078 73.8821 7.58594 73.8821 8.15625C73.8821 8.47656 74.0501 8.75391 74.3861 8.98828C74.7298 9.22266 75.4759 9.57031 76.6243 10.0312C77.6478 10.4453 78.3978 10.832 78.8743 11.1914C79.3509 11.5508 79.7025 11.9648 79.929 12.4336C80.1556 12.9023 80.2689 13.4609 80.2689 14.1094Z" />
</svg>
