<svg width="110" height="25" viewBox="0 0 110 25" fill="#fff" xmlns="http://www.w3.org/2000/svg">
<path d="M8.8584 3.64453C7.49121 3.64453 6.43262 4.16016 5.68262 5.19141C4.93262 6.21484 4.55762 7.64453 4.55762 9.48047C4.55762 13.3008 5.99121 15.2109 8.8584 15.2109C10.0615 15.2109 11.5186 14.9102 13.2295 14.3086V17.3555C11.8232 17.9414 10.2529 18.2344 8.51855 18.2344C6.02637 18.2344 4.12012 17.4805 2.7998 15.9727C1.47949 14.457 0.819336 12.2852 0.819336 9.45703C0.819336 7.67578 1.14355 6.11719 1.79199 4.78125C2.44043 3.4375 3.37012 2.41016 4.58105 1.69922C5.7998 0.980469 7.22559 0.621094 8.8584 0.621094C10.5225 0.621094 12.1943 1.02344 13.874 1.82812L12.7021 4.78125C12.0615 4.47656 11.417 4.21094 10.7686 3.98438C10.1201 3.75781 9.4834 3.64453 8.8584 3.64453Z" />
<path d="M19.7881 11.4258C19.7881 12.7227 19.9991 13.7031 20.421 14.3672C20.8506 15.0312 21.546 15.3633 22.5069 15.3633C23.46 15.3633 24.1436 15.0352 24.5577 14.3789C24.9796 13.7148 25.1905 12.7305 25.1905 11.4258C25.1905 10.1289 24.9796 9.15625 24.5577 8.50781C24.1358 7.85938 23.4444 7.53516 22.4835 7.53516C21.5303 7.53516 20.8428 7.85938 20.421 8.50781C19.9991 9.14844 19.7881 10.1211 19.7881 11.4258ZM28.8467 11.4258C28.8467 13.5586 28.2842 15.2266 27.1592 16.4297C26.0342 17.6328 24.4678 18.2344 22.46 18.2344C21.2022 18.2344 20.0928 17.9609 19.1319 17.4141C18.171 16.8594 17.4327 16.0664 16.9171 15.0352C16.4014 14.0039 16.1436 12.8008 16.1436 11.4258C16.1436 9.28516 16.7022 7.62109 17.8194 6.43359C18.9366 5.24609 20.5069 4.65234 22.5303 4.65234C23.7881 4.65234 24.8975 4.92578 25.8585 5.47266C26.8194 6.01953 27.5577 6.80469 28.0733 7.82812C28.5889 8.85156 28.8467 10.0508 28.8467 11.4258Z" />
<path d="M44.2296 18H40.6554V10.3477C40.6554 9.40234 40.4874 8.69531 40.1515 8.22656C39.8156 7.75 39.2804 7.51172 38.546 7.51172C37.546 7.51172 36.8234 7.84766 36.3781 8.51953C35.9327 9.18359 35.7101 10.2891 35.7101 11.8359V18H32.1359V4.89844H34.8663L35.3468 6.57422H35.546C35.9445 5.94141 36.4913 5.46484 37.1866 5.14453C37.8898 4.81641 38.6866 4.65234 39.5773 4.65234C41.1007 4.65234 42.257 5.06641 43.046 5.89453C43.8351 6.71484 44.2296 7.90234 44.2296 9.45703V18Z" />
<path d="M53.7648 15.3867C54.3898 15.3867 55.1398 15.25 56.0148 14.9766V17.6367C55.1242 18.0352 54.0305 18.2344 52.7336 18.2344C51.3039 18.2344 50.2609 17.875 49.6047 17.1562C48.9562 16.4297 48.632 15.3438 48.632 13.8984V7.58203H46.9211V6.07031L48.8898 4.875L49.9211 2.10938H52.2062V4.89844H55.8742V7.58203H52.2062V13.8984C52.2062 14.4062 52.3469 14.7812 52.6281 15.0234C52.9172 15.2656 53.2961 15.3867 53.7648 15.3867Z" />
<path d="M64.4368 7.19531C63.679 7.19531 63.0852 7.4375 62.6555 7.92188C62.2258 8.39844 61.9797 9.07812 61.9172 9.96094H66.9329C66.9173 9.07812 66.6868 8.39844 66.2415 7.92188C65.7962 7.4375 65.1946 7.19531 64.4368 7.19531ZM64.9407 18.2344C62.8313 18.2344 61.1829 17.6523 59.9954 16.4883C58.8079 15.3242 58.2141 13.6758 58.2141 11.543C58.2141 9.34766 58.761 7.65234 59.8547 6.45703C60.9563 5.25391 62.4758 4.65234 64.4133 4.65234C66.2649 4.65234 67.7063 5.17969 68.7376 6.23438C69.7688 7.28906 70.2844 8.74609 70.2844 10.6055V12.3398H61.8352C61.8743 13.3555 62.1751 14.1484 62.7376 14.7188C63.3001 15.2891 64.0891 15.5742 65.1048 15.5742C65.8938 15.5742 66.6399 15.4922 67.343 15.3281C68.0462 15.1641 68.7805 14.9023 69.5462 14.543V17.3086C68.9212 17.6211 68.2532 17.8516 67.5423 18C66.8313 18.1562 65.9641 18.2344 64.9407 18.2344Z" />
<path d="M85.6204 18H82.0462V10.3477C82.0462 9.40234 81.8783 8.69531 81.5423 8.22656C81.2064 7.75 80.6712 7.51172 79.9368 7.51172C78.9368 7.51172 78.2142 7.84766 77.7689 8.51953C77.3236 9.18359 77.1009 10.2891 77.1009 11.8359V18H73.5267V4.89844H76.2572L76.7376 6.57422H76.9368C77.3353 5.94141 77.8822 5.46484 78.5775 5.14453C79.2806 4.81641 80.0775 4.65234 80.9681 4.65234C82.4915 4.65234 83.6478 5.06641 84.4368 5.89453C85.2259 6.71484 85.6204 7.90234 85.6204 9.45703V18Z" />
<path d="M95.1557 15.3867C95.7807 15.3867 96.5307 15.25 97.4057 14.9766V17.6367C96.515 18.0352 95.4213 18.2344 94.1244 18.2344C92.6947 18.2344 91.6517 17.875 90.9955 17.1562C90.3471 16.4297 90.0228 15.3438 90.0228 13.8984V7.58203H88.3119V6.07031L90.2807 4.875L91.3119 2.10938H93.5971V4.89844H97.265V7.58203H93.5971V13.8984C93.5971 14.4062 93.7377 14.7812 94.0189 15.0234C94.308 15.2656 94.6869 15.3867 95.1557 15.3867Z" />
<path d="M109.542 14.1094C109.542 15.4531 109.074 16.4766 108.136 17.1797C107.206 17.8828 105.812 18.2344 103.953 18.2344C102.999 18.2344 102.187 18.168 101.515 18.0352C100.843 17.9102 100.214 17.7227 99.6284 17.4727V14.5195C100.292 14.832 101.039 15.0938 101.867 15.3047C102.703 15.5156 103.437 15.6211 104.07 15.6211C105.367 15.6211 106.015 15.2461 106.015 14.4961C106.015 14.2148 105.929 13.9883 105.757 13.8164C105.585 13.6367 105.289 13.4375 104.867 13.2188C104.445 12.9922 103.882 12.7305 103.179 12.4336C102.171 12.0117 101.429 11.6211 100.953 11.2617C100.484 10.9023 100.14 10.4922 99.9213 10.0312C99.7104 9.5625 99.6049 8.98828 99.6049 8.30859C99.6049 7.14453 100.054 6.24609 100.953 5.61328C101.859 4.97266 103.14 4.65234 104.796 4.65234C106.374 4.65234 107.91 4.99609 109.402 5.68359L108.324 8.26172C107.667 7.98047 107.054 7.75 106.484 7.57031C105.914 7.39062 105.331 7.30078 104.738 7.30078C103.683 7.30078 103.156 7.58594 103.156 8.15625C103.156 8.47656 103.324 8.75391 103.66 8.98828C104.003 9.22266 104.749 9.57031 105.898 10.0312C106.921 10.4453 107.671 10.832 108.148 11.1914C108.624 11.5508 108.976 11.9648 109.203 12.4336C109.429 12.9023 109.542 13.4609 109.542 14.1094Z" />
</svg>
