<svg width="67" height="25" viewBox="0 0 67 25" fill="#fff" xmlns="http://www.w3.org/2000/svg">
<path d="M10.2881 18H0.420898V0.867188H10.2881V3.84375H4.05371V7.60547H9.85449V10.582H4.05371V15H10.2881V18Z" />
<path d="M17.046 18L12.0538 4.89844H15.7921L18.3233 12.3633C18.6046 13.3086 18.7803 14.2031 18.8506 15.0469H18.921C18.96 14.2969 19.1358 13.4023 19.4483 12.3633L21.9678 4.89844H25.7061L20.7139 18H17.046Z" />
<path d="M33.3546 7.19531C32.5968 7.19531 32.0031 7.4375 31.5734 7.92188C31.1437 8.39844 30.8976 9.07812 30.8351 9.96094H35.8507C35.8351 9.07812 35.6046 8.39844 35.1593 7.92188C34.714 7.4375 34.1124 7.19531 33.3546 7.19531ZM33.8585 18.2344C31.7491 18.2344 30.1007 17.6523 28.9132 16.4883C27.7257 15.3242 27.132 13.6758 27.132 11.543C27.132 9.34766 27.6788 7.65234 28.7726 6.45703C29.8741 5.25391 31.3937 4.65234 33.3312 4.65234C35.1827 4.65234 36.6242 5.17969 37.6554 6.23438C38.6867 7.28906 39.2023 8.74609 39.2023 10.6055V12.3398H30.7531C30.7921 13.3555 31.0929 14.1484 31.6554 14.7188C32.2179 15.2891 33.007 15.5742 34.0226 15.5742C34.8117 15.5742 35.5577 15.4922 36.2609 15.3281C36.964 15.1641 37.6984 14.9023 38.464 14.543V17.3086C37.839 17.6211 37.171 17.8516 36.4601 18C35.7492 18.1562 34.882 18.2344 33.8585 18.2344Z" />
<path d="M54.5383 18H50.9641V10.3477C50.9641 9.40234 50.7961 8.69531 50.4602 8.22656C50.1242 7.75 49.5891 7.51172 48.8547 7.51172C47.8547 7.51172 47.132 7.84766 46.6867 8.51953C46.2414 9.18359 46.0187 10.2891 46.0187 11.8359V18H42.4445V4.89844H45.175L45.6555 6.57422H45.8547C46.2531 5.94141 46.8 5.46484 47.4953 5.14453C48.1984 4.81641 48.9953 4.65234 49.8859 4.65234C51.4094 4.65234 52.5656 5.06641 53.3547 5.89453C54.1437 6.71484 54.5383 7.90234 54.5383 9.45703V18Z" />
<path d="M64.0735 15.3867C64.6985 15.3867 65.4485 15.25 66.3235 14.9766V17.6367C65.4329 18.0352 64.3391 18.2344 63.0422 18.2344C61.6126 18.2344 60.5696 17.875 59.9133 17.1562C59.2649 16.4297 58.9407 15.3438 58.9407 13.8984V7.58203H57.2297V6.07031L59.1985 4.875L60.2297 2.10938H62.5149V4.89844H66.1829V7.58203H62.5149V13.8984C62.5149 14.4062 62.6555 14.7812 62.9368 15.0234C63.2258 15.2656 63.6047 15.3867 64.0735 15.3867Z" />
</svg>
