<svg width="105" height="25" viewBox="0 0 105 25" fill="#fff" xmlns="http://www.w3.org/2000/svg">
<path d="M7.29199 9.37891H14.0889V18.2617C12.9873 18.6211 11.9482 18.8711 10.9717 19.0117C10.0029 19.1602 9.01074 19.2344 7.99512 19.2344C5.40918 19.2344 3.43262 18.4766 2.06543 16.9609C0.706055 15.4375 0.0263672 13.2539 0.0263672 10.4102C0.0263672 7.64453 0.81543 5.48828 2.39355 3.94141C3.97949 2.39453 6.1748 1.62109 8.97949 1.62109C10.7373 1.62109 12.4326 1.97266 14.0654 2.67578L12.8584 5.58203C11.6084 4.95703 10.3076 4.64453 8.95605 4.64453C7.38574 4.64453 6.12793 5.17188 5.18262 6.22656C4.2373 7.28125 3.76465 8.69922 3.76465 10.4805C3.76465 12.3398 4.14355 13.7617 4.90137 14.7461C5.66699 15.7227 6.77637 16.2109 8.22949 16.2109C8.9873 16.2109 9.75684 16.1328 10.5381 15.9766V12.4023H7.29199V9.37891Z"/>
<path d="M25.546 5.65234C26.0303 5.65234 26.4327 5.6875 26.753 5.75781L26.4835 9.10938C26.1944 9.03125 25.8428 8.99219 25.4288 8.99219C24.2881 8.99219 23.3975 9.28516 22.7569 9.87109C22.1241 10.457 21.8077 11.2773 21.8077 12.332V19H18.2335V5.89844H20.9405L21.4678 8.10156H21.6436C22.0499 7.36719 22.5967 6.77734 23.2842 6.33203C23.9796 5.87891 24.7335 5.65234 25.546 5.65234Z"/>
<path d="M34.8937 8.19531C34.1359 8.19531 33.5421 8.4375 33.1124 8.92188C32.6827 9.39844 32.4366 10.0781 32.3741 10.9609H37.3898C37.3741 10.0781 37.1437 9.39844 36.6984 8.92188C36.2531 8.4375 35.6515 8.19531 34.8937 8.19531ZM35.3976 19.2344C33.2882 19.2344 31.6398 18.6523 30.4523 17.4883C29.2648 16.3242 28.671 14.6758 28.671 12.543C28.671 10.3477 29.2179 8.65234 30.3116 7.45703C31.4132 6.25391 32.9327 5.65234 34.8702 5.65234C36.7218 5.65234 38.1632 6.17969 39.1945 7.23438C40.2257 8.28906 40.7413 9.74609 40.7413 11.6055V13.3398H32.2921C32.3312 14.3555 32.632 15.1484 33.1945 15.7188C33.757 16.2891 34.546 16.5742 35.5616 16.5742C36.3507 16.5742 37.0968 16.4922 37.7999 16.3281C38.5031 16.1641 39.2374 15.9023 40.0031 15.543V18.3086C39.3781 18.6211 38.7101 18.8516 37.9991 19C37.2882 19.1562 36.421 19.2344 35.3976 19.2344Z"/>
<path d="M49.4094 8.19531C48.6516 8.19531 48.0578 8.4375 47.6281 8.92188C47.1984 9.39844 46.9523 10.0781 46.8898 10.9609H51.9055C51.8898 10.0781 51.6594 9.39844 51.2141 8.92188C50.7687 8.4375 50.1672 8.19531 49.4094 8.19531ZM49.9133 19.2344C47.8039 19.2344 46.1555 18.6523 44.968 17.4883C43.7805 16.3242 43.1867 14.6758 43.1867 12.543C43.1867 10.3477 43.7336 8.65234 44.8273 7.45703C45.9289 6.25391 47.4484 5.65234 49.3859 5.65234C51.2375 5.65234 52.6789 6.17969 53.7102 7.23438C54.7414 8.28906 55.257 9.74609 55.257 11.6055V13.3398H46.8078C46.8469 14.3555 47.1476 15.1484 47.7101 15.7188C48.2726 16.2891 49.0617 16.5742 50.0773 16.5742C50.8664 16.5742 51.6125 16.4922 52.3156 16.3281C53.0187 16.1641 53.7531 15.9023 54.5187 15.543V18.3086C53.8937 18.6211 53.2258 18.8516 52.5148 19C51.8039 19.1562 50.9367 19.2344 49.9133 19.2344Z"/>
<path d="M64.0188 16.3867C64.6438 16.3867 65.3938 16.25 66.2688 15.9766V18.6367C65.3782 19.0352 64.2844 19.2344 62.9876 19.2344C61.5579 19.2344 60.5149 18.875 59.8587 18.1562C59.2102 17.4297 58.886 16.3438 58.886 14.8984V8.58203H57.1751V7.07031L59.1438 5.875L60.1751 3.10938H62.4602V5.89844H66.1282V8.58203H62.4602V14.8984C62.4602 15.4062 62.6008 15.7812 62.8821 16.0234C63.1712 16.2656 63.5501 16.3867 64.0188 16.3867Z"/>
<path d="M69.1126 2.51172C69.1126 1.34766 69.7611 0.765625 71.0579 0.765625C72.3548 0.765625 73.0032 1.34766 73.0032 2.51172C73.0032 3.06641 72.8392 3.5 72.5111 3.8125C72.1907 4.11719 71.7064 4.26953 71.0579 4.26953C69.7611 4.26953 69.1126 3.68359 69.1126 2.51172ZM72.8392 19H69.265V5.89844H72.8392V19Z"/>
<path d="M89.0306 19H85.4564V11.3477C85.4564 10.4023 85.2885 9.69531 84.9525 9.22656C84.6166 8.75 84.0814 8.51172 83.3471 8.51172C82.3471 8.51172 81.6244 8.84766 81.1791 9.51953C80.7338 10.1836 80.5111 11.2891 80.5111 12.8359V19H76.9369V5.89844H79.6674L80.1478 7.57422H80.3471C80.7455 6.94141 81.2924 6.46484 81.9877 6.14453C82.6908 5.81641 83.4877 5.65234 84.3783 5.65234C85.9017 5.65234 87.058 6.06641 87.8471 6.89453C88.6361 7.71484 89.0306 8.90234 89.0306 10.457V19Z"/>
<path d="M104.449 5.89844V7.71484L102.398 8.24219C102.773 8.82812 102.96 9.48438 102.96 10.2109C102.96 11.6172 102.468 12.7148 101.484 13.5039C100.507 14.2852 99.1479 14.6758 97.4057 14.6758L96.7612 14.6406L96.2338 14.582C95.8666 14.8633 95.6831 15.1758 95.6831 15.5195C95.6831 16.0352 96.3393 16.293 97.6518 16.293H99.8784C101.316 16.293 102.41 16.6016 103.16 17.2188C103.917 17.8359 104.296 18.7422 104.296 19.9375C104.296 21.4688 103.656 22.6562 102.374 23.5C101.101 24.3438 99.269 24.7656 96.8784 24.7656C95.0502 24.7656 93.6518 24.4453 92.6831 23.8047C91.7221 23.1719 91.2416 22.2812 91.2416 21.1328C91.2416 20.3438 91.4877 19.6836 91.9799 19.1523C92.4721 18.6211 93.1948 18.2422 94.1479 18.0156C93.7807 17.8594 93.4604 17.6055 93.187 17.2539C92.9135 16.8945 92.7768 16.5156 92.7768 16.1172C92.7768 15.6172 92.9213 15.2031 93.2104 14.875C93.4995 14.5391 93.9174 14.2109 94.4643 13.8906C93.7768 13.5938 93.2299 13.1172 92.8237 12.4609C92.4252 11.8047 92.226 11.0312 92.226 10.1406C92.226 8.71094 92.6909 7.60547 93.6206 6.82422C94.5502 6.04297 95.8784 5.65234 97.6049 5.65234C97.9721 5.65234 98.4057 5.6875 98.9057 5.75781C99.4135 5.82031 99.7377 5.86719 99.8784 5.89844H104.449ZM94.3354 20.8516C94.3354 21.3438 94.5698 21.7305 95.0385 22.0117C95.5151 22.293 96.1791 22.4336 97.0307 22.4336C98.312 22.4336 99.3159 22.2578 100.042 21.9062C100.769 21.5547 101.132 21.0742 101.132 20.4648C101.132 19.9727 100.917 19.6328 100.488 19.4453C100.058 19.2578 99.394 19.1641 98.4956 19.1641H96.644C95.9877 19.1641 95.437 19.3164 94.9916 19.6211C94.5541 19.9336 94.3354 20.3438 94.3354 20.8516ZM95.6362 10.1875C95.6362 10.8984 95.7963 11.4609 96.1166 11.875C96.4448 12.2891 96.9409 12.4961 97.6049 12.4961C98.2768 12.4961 98.769 12.2891 99.0815 11.875C99.394 11.4609 99.5502 10.8984 99.5502 10.1875C99.5502 8.60938 98.9018 7.82031 97.6049 7.82031C96.2924 7.82031 95.6362 8.60938 95.6362 10.1875Z"/>
</svg>
