<svg width="90" height="25" viewBox="0 0 90 25" fill="#fff" xmlns="http://www.w3.org/2000/svg">
<path d="M16.4209 10.4102C16.4209 13.2461 15.7178 15.4258 14.3115 16.9492C12.9053 18.4727 10.8896 19.2344 8.26465 19.2344C5.63965 19.2344 3.62402 18.4727 2.21777 16.9492C0.811523 15.4258 0.108398 13.2383 0.108398 10.3867C0.108398 7.53516 0.811523 5.35938 2.21777 3.85938C3.63184 2.35156 5.65527 1.59766 8.28809 1.59766C10.9209 1.59766 12.9326 2.35547 14.3232 3.87109C15.7217 5.38672 16.4209 7.56641 16.4209 10.4102ZM3.91699 10.4102C3.91699 12.3242 4.28027 13.7656 5.00684 14.7344C5.7334 15.7031 6.81934 16.1875 8.26465 16.1875C11.1631 16.1875 12.6123 14.2617 12.6123 10.4102C12.6123 6.55078 11.1709 4.62109 8.28809 4.62109C6.84277 4.62109 5.75293 5.10938 5.01855 6.08594C4.28418 7.05469 3.91699 8.49609 3.91699 10.4102Z" />
<path d="M29.3077 19L28.8272 17.3242H28.6397C28.2569 17.9336 27.7139 18.4062 27.0108 18.7422C26.3077 19.0703 25.5069 19.2344 24.6085 19.2344C23.0694 19.2344 21.9092 18.8242 21.128 18.0039C20.3467 17.1758 19.9561 15.9883 19.9561 14.4414V5.89844H23.5303V13.5508C23.5303 14.4961 23.6983 15.207 24.0342 15.6836C24.3702 16.1523 24.9053 16.3867 25.6397 16.3867C26.6397 16.3867 27.3624 16.0547 27.8077 15.3906C28.253 14.7188 28.4756 13.6094 28.4756 12.0625V5.89844H32.0499V19H29.3077Z" />
<path d="M41.6554 16.3867C42.2804 16.3867 43.0304 16.25 43.9054 15.9766V18.6367C43.0148 19.0352 41.921 19.2344 40.6241 19.2344C39.1945 19.2344 38.1515 18.875 37.4952 18.1562C36.8468 17.4297 36.5226 16.3438 36.5226 14.8984V8.58203H34.8116V7.07031L36.7804 5.875L37.8116 3.10938H40.0968V5.89844H43.7648V8.58203H40.0968V14.8984C40.0968 15.4062 40.2374 15.7812 40.5187 16.0234C40.8077 16.2656 41.1866 16.3867 41.6554 16.3867Z" />
<path d="M50.4758 19H46.9016V0.765625H50.4758V19Z" />
<path d="M54.4212 2.51172C54.4212 1.34766 55.0696 0.765625 56.3665 0.765625C57.6633 0.765625 58.3118 1.34766 58.3118 2.51172C58.3118 3.06641 58.1477 3.5 57.8196 3.8125C57.4993 4.11719 57.0149 4.26953 56.3665 4.26953C55.0696 4.26953 54.4212 3.68359 54.4212 2.51172ZM58.1477 19H54.5735V5.89844H58.1477V19Z" />
<path d="M74.3392 19H70.765V11.3477C70.765 10.4023 70.597 9.69531 70.2611 9.22656C69.9251 8.75 69.39 8.51172 68.6556 8.51172C67.6556 8.51172 66.9329 8.84766 66.4876 9.51953C66.0423 10.1836 65.8196 11.2891 65.8196 12.8359V19H62.2454V5.89844H64.9759L65.4564 7.57422H65.6556C66.054 6.94141 66.6009 6.46484 67.2962 6.14453C67.9993 5.81641 68.7962 5.65234 69.6868 5.65234C71.2103 5.65234 72.3665 6.06641 73.1556 6.89453C73.9446 7.71484 74.3392 8.90234 74.3392 10.457V19Z" />
<path d="M83.7806 8.19531C83.0228 8.19531 82.4291 8.4375 81.9994 8.92188C81.5697 9.39844 81.3236 10.0781 81.2611 10.9609H86.2767C86.2611 10.0781 86.0306 9.39844 85.5853 8.92188C85.14 8.4375 84.5385 8.19531 83.7806 8.19531ZM84.2846 19.2344C82.1752 19.2344 80.5267 18.6523 79.3392 17.4883C78.1517 16.3242 77.558 14.6758 77.558 12.543C77.558 10.3477 78.1049 8.65234 79.1986 7.45703C80.3002 6.25391 81.8197 5.65234 83.7572 5.65234C85.6088 5.65234 87.0502 6.17969 88.0814 7.23438C89.1127 8.28906 89.6283 9.74609 89.6283 11.6055V13.3398H81.1791C81.2181 14.3555 81.5189 15.1484 82.0814 15.7188C82.6439 16.2891 83.433 16.5742 84.4486 16.5742C85.2377 16.5742 85.9838 16.4922 86.6869 16.3281C87.39 16.1641 88.1244 15.9023 88.89 15.543V18.3086C88.265 18.6211 87.5971 18.8516 86.8861 19C86.1752 19.1562 85.308 19.2344 84.2846 19.2344Z" />
</svg>
