<svg width="692" height="122" viewBox="0 0 692 122" fill="none" xmlns="http://www.w3.org/2000/svg">
<path d="M6.98006 81.302C7.07284 81.1353 7.18301 80.9875 7.31348 80.8947C7.40626 80.8208 7.4425 80.7468 7.4425 80.6729C7.4425 80.5627 7.40626 80.5062 7.2207 80.4134C6.92497 80.2844 6.49878 80.1351 6.09143 80.0249C6.03489 80.4134 5.96241 80.6917 5.77685 81.0803C4.74035 83.3953 2.72244 85.9134 0 87.5428C0.240642 87.6718 0.462438 87.8951 0.647993 88.1719C0.777012 88.3386 0.814703 88.4126 0.907481 88.4126C0.964017 88.4126 1.0365 88.3575 1.18581 88.2459C3.77634 86.3758 5.47967 84.3202 6.98006 81.302Z" fill="white"/>
<path d="M10.8509 80.1174C10.777 79.9695 10.7407 79.9695 10.5175 80.0811L9.9985 80.3029C9.79555 80.3957 9.75786 80.4131 9.81294 80.5624C11.1278 83.469 13.3124 86.1726 16.1639 88.1542C16.2929 88.247 16.3683 88.3021 16.4233 88.3021C16.4973 88.3021 16.5524 88.2282 16.664 88.0426C16.8307 87.7643 17.0525 87.4685 17.2743 87.3018C14.4417 85.6347 12.1469 83.0428 10.8509 80.1174Z" fill="white"/>
<path d="M11.1466 89.1163C11.035 89.0047 11.0176 89.0047 10.832 89.1352L10.3508 89.4309C10.129 89.5788 10.0739 89.6165 10.1652 89.7266C11.0538 90.8008 11.8135 91.8185 12.4977 92.8927C10.4058 93.171 7.86896 93.4479 5.59156 93.6335C6.59182 91.43 7.49785 89.0598 8.16469 87.2086C8.3314 86.7273 8.46041 86.5055 8.60973 86.3011C8.70251 86.1895 8.73875 86.1533 8.73875 86.0416C8.73875 85.9489 8.64597 85.8561 8.49811 85.801C8.14584 85.672 7.75733 85.5604 7.31229 85.4487C7.23836 86.0416 7.0905 86.5592 6.81216 87.4116C6.33088 88.9293 5.40455 91.3561 4.31297 93.7436C4.12741 93.7436 3.94186 93.7625 3.75775 93.7625C2.94305 93.8176 2.29506 93.8364 1.70215 93.7987C1.79493 94.2626 1.90655 94.6873 2.01672 95.0208C2.05296 95.1686 2.12835 95.2426 2.20228 95.2426C2.29506 95.2426 2.35014 95.2063 2.44292 95.1498C2.59078 95.057 2.77634 94.9831 3.18369 94.9468C6.4425 94.6511 10.1087 94.28 13.0717 93.8176C13.4052 94.3728 13.7197 94.9468 14.0532 95.5774C14.1271 95.7253 14.1648 95.7064 14.4243 95.5774L14.9983 95.244C15.239 95.115 15.2578 95.0773 15.1839 94.9671C13.8314 92.6332 12.8137 91.098 11.1466 89.1163Z" fill="white"/>
<path d="M34.0872 84.0981C34.2162 84.0981 34.2351 84.0792 34.2351 83.9314V83.0427C34.2351 82.9137 34.2162 82.8948 34.0872 82.8948C33.9944 82.8948 33.3841 82.9325 31.5315 82.9325H27.384V81.3959C27.384 80.6001 27.4203 80.284 27.4956 80.1173C27.5507 79.9883 27.5884 79.9144 27.5884 79.7839C27.5884 79.71 27.4956 79.636 27.3478 79.6172C26.9404 79.5621 26.6621 79.5433 26.0706 79.5244C26.1634 79.968 26.1997 80.4681 26.1997 81.3945V82.9311H22.4219C20.5895 82.9311 19.9778 82.8934 19.8676 82.8934C19.7386 82.8934 19.7197 82.9122 19.7197 83.0413V83.9299C19.7197 84.0778 19.7386 84.0966 19.8676 84.0966C19.9778 84.0966 20.5895 84.0604 22.4219 84.0604H31.5315C33.3827 84.0618 33.9944 84.0981 34.0872 84.0981Z" fill="white"/>
<path d="M22.9955 85.4683L22.3851 85.6713C22.1257 85.764 22.1068 85.7829 22.1634 85.9119C22.9592 87.9675 23.5159 89.855 23.9406 92.3368C23.9769 92.5035 24.0146 92.5223 24.2929 92.4484L24.9409 92.2628C25.1627 92.2077 25.1627 92.1526 25.1438 92.0222C24.6814 89.5041 24.0334 87.4674 23.2549 85.5234C23.2172 85.4132 23.1796 85.4132 22.9955 85.4683Z" fill="white"/>
<path d="M35.0119 93.6892C34.9003 93.6892 34.3451 93.7269 32.6041 93.7269H28.9756C29.9382 91.4857 30.6601 89.3562 31.3269 87.0614C31.4386 86.6729 31.5313 86.4134 31.6792 86.2467C31.7531 86.1539 31.8459 86.0437 31.8459 85.9321C31.8459 85.8393 31.8082 85.7842 31.6603 85.7291C31.2341 85.5624 30.8456 85.4508 30.3644 85.3218C30.3093 85.9321 30.2165 86.4134 29.9947 87.2469C29.4757 89.1547 28.7726 91.3755 27.7724 93.7283H21.3099C19.5877 93.7283 19.0136 93.6906 18.9223 93.6906C18.7933 93.6906 18.7744 93.7094 18.7744 93.8385V94.7633C18.7744 94.8924 18.7933 94.9112 18.9223 94.9112C19.0151 94.9112 19.5891 94.8735 21.3099 94.8735H32.6041C34.3451 94.8735 34.9003 94.9112 35.0119 94.9112C35.141 94.9112 35.1598 94.8924 35.1598 94.7633V93.8385C35.1598 93.708 35.1424 93.6892 35.0119 93.6892Z" fill="white"/>
<path d="M45.9262 85.7466H50.5549C52.3322 85.7466 52.9251 85.7828 53.0179 85.7828C53.1469 85.7828 53.1657 85.764 53.1657 85.6161V84.7637C53.1657 84.6347 53.1469 84.6159 53.0179 84.6159C52.9251 84.6159 52.3322 84.6535 50.5549 84.6535H45.5739C45.6841 83.6895 45.7406 82.6907 45.7595 81.6528C45.7783 80.8004 45.8146 80.4496 45.9073 80.264C45.9624 80.135 46.0175 80.0611 46.0175 79.9117C46.0175 79.819 45.9436 79.745 45.758 79.7088C45.3869 79.6537 44.8694 79.616 44.4432 79.5972C44.536 80.1524 44.5548 80.6525 44.536 81.689C44.5171 82.7444 44.4809 83.7258 44.3881 84.6521H40.0189C38.2416 84.6521 37.6487 84.6144 37.5559 84.6144C37.4269 84.6144 37.408 84.6332 37.408 84.7623V85.6147C37.408 85.7625 37.4269 85.7814 37.5559 85.7814C37.6487 85.7814 38.2401 85.7451 40.0189 85.7451H44.2591C44.0561 87.0788 43.7227 88.2632 43.1849 89.3751C42.1107 91.5974 40.1479 93.5587 37.0195 94.8562C37.2602 95.0229 37.5008 95.2258 37.7038 95.4853C37.8328 95.6709 37.8893 95.7448 37.9821 95.7448C38.056 95.7448 38.13 95.7086 38.2793 95.652C41.1307 94.2256 42.9819 92.4672 44.2591 89.8389C44.7041 88.9126 45.0375 87.8573 45.2767 86.7091C46.4799 90.6899 49.1661 93.9125 52.3684 95.5969C52.4974 95.6709 52.5902 95.7086 52.6468 95.7086C52.7395 95.7086 52.7946 95.6346 52.9062 95.4302C53.0918 95.1345 53.3324 94.8562 53.5731 94.6532C49.8141 93.1717 47.1105 89.6157 45.9262 85.7466Z" fill="white"/>
<path d="M71.5969 89.7086C71.5042 89.7086 70.9301 89.7448 69.1891 89.7448H64.2632V89.523C64.2632 89.2259 64.2632 89.0229 64.282 88.8939C65.449 88.2271 66.3927 87.6168 67.1335 87.0238C67.5597 86.6716 67.7264 86.5976 67.9105 86.5426C68.0221 86.5063 68.096 86.4309 68.096 86.3019C68.096 86.1729 67.9844 85.9873 67.7249 85.7279C67.4292 85.4321 67.3176 85.3394 67.206 85.3394C67.132 85.3394 67.0769 85.3582 67.0204 85.3756C66.9653 85.3944 66.8348 85.4118 66.5391 85.4118H61.3537C59.6127 85.4118 59.0386 85.3756 58.9473 85.3756C58.8183 85.3756 58.7994 85.3944 58.7994 85.5235V86.2831C58.7994 86.4121 58.8183 86.4309 58.9473 86.4309C59.0401 86.4309 59.6141 86.3947 61.3537 86.3947H66.3347C65.5751 87.0427 64.8169 87.5791 63.9268 88.098C63.6485 88.0241 63.3339 87.969 62.9831 87.9125C63.0759 88.3764 63.1121 88.9301 63.1121 89.7463H58.0572C56.3162 89.7463 55.7421 89.71 55.6508 89.71C55.5218 89.71 55.5029 89.7289 55.5029 89.8579V90.6726C55.5029 90.8016 55.5218 90.8205 55.6508 90.8205C55.7436 90.8205 56.3176 90.7842 58.0572 90.7842H63.1121V93.988C63.1121 94.5809 62.8338 94.7099 62.2974 94.7099C61.5378 94.7099 61.0203 94.6736 60.3709 94.5983C60.5376 94.8201 60.668 95.1723 60.7594 95.4507C60.8521 95.8203 60.8521 95.8015 61.2044 95.8015C62.9266 95.8392 63.389 95.7464 63.7775 95.5057C64.1486 95.2463 64.2777 94.9505 64.2777 94.3025C64.2777 93.8589 64.2588 93.0993 64.2588 92.7108V90.7842H69.1847C70.9257 90.7842 71.4998 90.8205 71.5926 90.8205C71.7216 90.8205 71.7405 90.8016 71.7405 90.6726V89.8579C71.7448 89.7274 71.7274 89.7086 71.5969 89.7086Z" fill="white"/>
<path d="M58.8213 82.6923C57.0252 82.6923 56.3772 82.6546 56.2655 82.6546C56.1365 82.6546 56.1177 82.6735 56.1177 82.7836C56.1177 82.8952 56.1539 83.1721 56.1539 83.8013V84.4493C56.1539 86.0787 56.1177 86.3193 56.1177 86.4309C56.1177 86.56 56.1365 86.5788 56.2655 86.5788H57.1179C57.247 86.5788 57.2658 86.56 57.2658 86.4309V83.6723H70.0227V86.4309C70.0227 86.56 70.0416 86.5788 70.1706 86.5788H71.0041C71.152 86.5788 71.1708 86.56 71.1708 86.4309C71.1708 86.3382 71.1346 86.0975 71.1346 84.4493V83.6897C71.1346 83.1721 71.1708 82.875 71.1708 82.7822C71.1708 82.672 71.152 82.6532 71.0041 82.6532C70.9113 82.6532 70.2634 82.6908 68.4484 82.6908H67.6714C68.1338 82.0052 68.4484 81.4499 68.7818 80.8208C68.8746 80.6541 69.0225 80.4685 69.1341 80.3946C69.2269 80.3395 69.2631 80.2656 69.2631 80.1917C69.2631 80.0989 69.208 80.0249 69.0587 79.951C68.763 79.8031 68.3745 79.6553 67.9671 79.5625C67.912 79.9148 67.8192 80.2105 67.7265 80.4134C67.393 81.2093 67.0422 81.9138 66.5233 82.6908H58.8213V82.6923Z" fill="white"/>
<path d="M59.4879 82.3953C59.543 82.3953 59.5996 82.3591 59.7286 82.3025L60.2287 82.0619C60.4505 81.9502 60.4694 81.9503 60.3954 81.8212C59.9881 81.0993 59.543 80.4136 59.0067 79.7482C58.9139 79.6381 58.8588 79.6381 58.6544 79.7294L58.192 79.9323C57.9702 80.0251 57.9513 80.0802 58.0253 80.173C58.5065 80.7659 59.0429 81.5617 59.3763 82.2648C59.414 82.3591 59.4329 82.3953 59.4879 82.3953Z" fill="white"/>
<path d="M63.7837 82.0806L64.2839 81.895C64.5245 81.7834 64.5434 81.7834 64.4868 81.6544C64.1911 80.9136 63.8011 80.154 63.3387 79.4698C63.2648 79.3581 63.2097 79.3581 63.0241 79.4335L62.524 79.6002C62.321 79.6742 62.2645 79.7119 62.3573 79.8409C62.7835 80.5077 63.1343 81.1195 63.4315 82.0255C63.488 82.1922 63.5243 82.1922 63.7837 82.0806Z" fill="white"/>
<path d="M78.0844 81.8586C77.3625 81.099 76.4927 80.4147 75.6214 79.8595C75.5098 79.7856 75.4547 79.8044 75.3257 79.9523L74.9183 80.3785C74.7516 80.5452 74.7516 80.5829 74.8618 80.6568C75.6214 81.1381 76.584 81.9716 77.3248 82.7864C77.4364 82.898 77.4726 82.8791 77.6219 82.7124L78.0293 82.2123C78.1757 82.0441 78.1757 81.9688 78.0844 81.8586Z" fill="white"/>
<path d="M90.064 87.6166C89.9524 87.6166 89.3044 87.6528 87.4343 87.6528H84.2495V84.2838H86.5834C88.3984 84.2838 89.0087 84.3201 89.1014 84.3201C89.2305 84.3201 89.2493 84.3012 89.2493 84.1722V83.3952C89.2493 83.2662 89.2305 83.2473 89.1014 83.2473C89.0087 83.2473 88.3984 83.2836 86.5834 83.2836H84.2495V81.9136C84.2495 80.8032 84.3045 80.3031 84.3611 80.1364C84.4162 79.9885 84.4539 79.9146 84.4539 79.8029C84.4539 79.729 84.3611 79.6551 84.2321 79.6362C83.8247 79.5797 83.5101 79.5623 83.0289 79.5435C83.1216 80.1915 83.1405 80.7104 83.1405 81.9499V83.2836H81.5488C79.7338 83.2836 79.1409 83.2473 79.0496 83.2473C78.9205 83.2473 78.9017 83.2662 78.9017 83.3952V84.1722C78.9017 84.3012 78.9205 84.3201 79.0496 84.3201C79.1423 84.3201 79.7353 84.2838 81.5488 84.2838H83.1405V87.6528H80.6775C78.8075 87.6528 78.1595 87.6166 78.0479 87.6166C77.9188 87.6166 77.9 87.6354 77.9 87.7644V88.5414C77.9 88.6893 77.9188 88.7081 78.0479 88.7081C78.1595 88.7081 78.8075 88.6719 80.6775 88.6719H82.2881C81.7691 90.6159 81.1211 92.283 80.418 93.8747L79.7512 93.9298C79.2148 93.966 78.6219 93.9863 77.8623 93.9863C77.9362 94.3748 78.0479 94.7822 78.158 95.1518C78.1943 95.2808 78.2871 95.3925 78.3987 95.3925C78.5103 95.3925 78.5842 95.3185 78.6944 95.2635C78.7872 95.2084 78.9351 95.1518 79.454 95.0968C82.565 94.7445 85.0642 94.4299 87.9896 93.9486C88.3418 94.485 88.6752 95.0605 88.9898 95.652C89.0449 95.781 89.0826 95.781 89.3232 95.6157L89.8422 95.2823C90.0278 95.1533 90.0278 95.1156 89.9712 95.0054C88.9159 93.2282 87.8605 91.7466 86.5457 90.3202C86.4718 90.2462 86.4167 90.2462 86.2862 90.339L85.8238 90.6173C85.6194 90.7463 85.602 90.8029 85.7122 90.9131C86.3051 91.5987 86.8791 92.3018 87.3967 93.0426C85.4904 93.3398 83.6928 93.579 81.6386 93.7645C82.2866 92.3207 82.9346 90.6173 83.5275 88.6719H87.4343C89.3044 88.6719 89.9524 88.7081 90.064 88.7081C90.1756 88.7081 90.193 88.6893 90.193 88.5414V87.7644C90.193 87.6354 90.1742 87.6166 90.064 87.6166Z" fill="white"/>
<path d="M76.6581 87.1542L77.1031 86.6353C77.2147 86.5062 77.2147 86.4685 77.122 86.3758C76.3073 85.5988 75.3998 84.9682 74.5111 84.4318C74.3995 84.3767 74.3256 84.3767 74.2154 84.5246L73.8269 84.987C73.6979 85.1349 73.6791 85.1726 73.8081 85.2465C74.6416 85.7655 75.5853 86.4874 76.345 87.2833C76.4551 87.3949 76.4725 87.376 76.6581 87.1542Z" fill="white"/>
<path d="M77.177 89.9869C76.9175 89.8013 76.7319 89.6723 76.5478 89.4316C76.0289 91.2654 75.4374 92.7455 74.8633 93.8763C74.585 94.4315 74.382 94.8026 74.0298 95.2462C74.3632 95.5057 74.6038 95.6724 74.9184 95.8565C75.0474 95.9304 75.1228 95.9493 75.1968 95.9493C75.2707 95.9493 75.3258 95.8565 75.3446 95.7275C75.3635 95.5608 75.4925 95.2824 75.6592 94.8939C76.2159 93.5979 76.845 92.0613 77.3437 90.5435C77.4539 90.1724 77.4539 90.1536 77.177 89.9869Z" fill="white"/>
<path d="M100.786 82.6168C100.804 82.3022 100.804 81.9876 100.804 81.6542C100.804 81.1903 100.878 80.8207 100.971 80.6163C101.028 80.4872 101.083 80.3945 101.083 80.2451C101.083 80.1335 100.971 80.061 100.823 80.0233C100.416 79.9494 99.8796 79.8943 99.4346 79.8755C99.5273 80.5235 99.5462 81.0598 99.5636 82.0789C99.6375 87.3934 97.0818 92.2439 92.1196 94.6329C92.3603 94.7996 92.6009 95.0214 92.8053 95.2998C92.9343 95.4853 92.9909 95.5781 93.0648 95.5781C93.1387 95.5781 93.2127 95.5216 93.3431 95.4491C97.1021 93.3195 99.6201 89.9129 100.397 85.2653C101.083 88.988 103.082 92.7832 107.284 95.4679C107.413 95.5607 107.489 95.5969 107.563 95.5969C107.637 95.5969 107.692 95.523 107.803 95.3374C107.97 95.0417 108.192 94.7822 108.451 94.5778C103.599 91.838 101.526 87.5978 100.786 82.6168Z" fill="white"/>
<path d="M134.036 90.5235C134.036 90.3756 134.017 90.3568 133.888 90.3568C133.776 90.3568 133.128 90.393 131.258 90.393H127.352C127.63 89.7827 127.871 89.1333 128.111 88.3562H129.852C131.593 88.3562 132.204 88.3925 132.296 88.3925C132.425 88.3925 132.444 88.3736 132.444 88.2446C132.444 88.1518 132.407 87.8373 132.407 86.8747V85.5048C132.407 84.5596 132.444 84.245 132.444 84.1523C132.444 84.0232 132.425 84.0044 132.296 84.0044C132.204 84.0044 131.593 84.0406 129.852 84.0406H125.724C123.983 84.0406 123.39 84.0044 123.28 84.0044C123.15 84.0044 123.132 84.0232 123.132 84.1523C123.132 84.245 123.168 84.5596 123.168 85.5048V86.8747C123.168 87.8373 123.132 88.1518 123.132 88.2446C123.132 88.3736 123.15 88.3925 123.28 88.3925C123.39 88.3925 123.983 88.3562 125.724 88.3562H126.946C126.76 88.9854 126.483 89.7073 126.169 90.393H124.373C122.484 90.393 121.817 90.3568 121.724 90.3568C121.595 90.3568 121.576 90.3756 121.576 90.5235C121.576 90.6162 121.612 91.0048 121.612 92.1152V93.2082C121.612 95.4668 121.576 95.819 121.576 95.9292C121.576 96.0408 121.595 96.0582 121.724 96.0582H122.595C122.707 96.0582 122.724 96.0394 122.724 95.9292V95.1522H132.889V95.8553C132.889 95.9669 132.908 95.9843 133.037 95.9843H133.889C134.019 95.9843 134.037 95.9654 134.037 95.8553C134.037 95.7437 134 95.3928 134 93.1517V91.9108C133.998 91.0047 134.036 90.6162 134.036 90.5235ZM124.241 84.951H131.332V87.4691H124.241V84.951ZM132.888 94.1896H122.723V91.3382H132.888V94.1896Z" fill="white"/>
<path d="M135.276 81.5439C135.276 81.4149 135.257 81.396 135.128 81.396C135.016 81.396 134.387 81.4323 132.573 81.4323H128.203V81.1728C128.203 80.3392 128.222 80.0623 128.295 79.8768C128.332 79.7478 128.388 79.6738 128.388 79.5434C128.388 79.4694 128.314 79.3955 128.166 79.3767C127.814 79.339 127.407 79.3201 126.963 79.3027C127.075 79.7478 127.092 80.2291 127.092 81.1916V81.4323H123.038C121.223 81.4323 120.593 81.396 120.483 81.396C120.354 81.396 120.335 81.4149 120.335 81.5439C120.335 81.6367 120.372 81.915 120.372 82.5441V83.1733C120.372 84.8216 120.335 85.0433 120.335 85.1361C120.335 85.2651 120.354 85.284 120.483 85.284H121.334C121.463 85.284 121.482 85.2651 121.482 85.1361V82.4137H134.129V85.1361C134.129 85.2651 134.148 85.284 134.277 85.284H135.128C135.257 85.284 135.276 85.2651 135.276 85.1361C135.276 85.0433 135.239 84.8027 135.239 83.1733V82.4325C135.239 81.9135 135.276 81.6367 135.276 81.5439Z" fill="white"/>
<path d="M153.202 82.116C153.257 82.116 153.312 82.0798 153.424 82.0058L153.776 81.7652C153.998 81.6173 154.017 81.5796 153.943 81.468C153.517 80.8577 153.073 80.3199 152.554 79.8574C152.443 79.7458 152.443 79.7284 152.24 79.8574L151.869 80.0792C151.647 80.2083 151.628 80.246 151.74 80.3387C152.221 80.8012 152.685 81.3752 153.073 81.987C153.127 82.0609 153.146 82.116 153.202 82.116Z" fill="white"/>
<path d="M143.165 90.6154C143.165 90.3559 143.184 90.1153 143.239 89.9123C142.683 90.2269 142.109 90.5052 141.535 90.7459V85.3764H141.664C142.831 85.3764 143.163 85.4126 143.275 85.4126C143.404 85.4126 143.423 85.3938 143.423 85.2647V84.4877C143.423 84.3587 143.404 84.3399 143.275 84.3399C143.163 84.3399 142.83 84.3776 141.664 84.3776H141.535V82.1552C141.535 80.9143 141.59 80.4519 141.647 80.2287C141.702 80.0996 141.74 80.0069 141.74 79.9141C141.74 79.8213 141.647 79.7662 141.518 79.7474C141.166 79.6923 140.796 79.6546 140.315 79.6372C140.444 80.3591 140.463 80.8781 140.463 82.1915V84.3761H140.167C138.981 84.3761 138.649 84.3384 138.556 84.3384C138.427 84.3384 138.408 84.3573 138.408 84.4863V85.2633C138.408 85.3923 138.427 85.4112 138.556 85.4112C138.649 85.4112 138.982 85.3749 140.167 85.3749H140.463V91.1706L139.722 91.4113C139.148 91.5954 138.759 91.6707 138.24 91.7447C138.333 92.1143 138.443 92.4666 138.555 92.7623C138.611 92.8913 138.684 92.9667 138.759 92.9667C138.852 92.9667 138.926 92.8928 139 92.8377C139.074 92.7812 139.24 92.6898 139.629 92.542C140.722 92.1535 141.87 91.6707 142.833 91.1532C143.165 90.9677 143.165 91.0054 143.165 90.6154Z" fill="white"/>
<path d="M154.923 92.1899C154.701 92.0783 154.442 91.9305 154.275 91.7261C154.163 93.3178 154.015 94.3006 153.665 94.3006C153.22 94.3006 152.369 93.3743 151.702 91.2636C152.35 90.1706 152.905 88.8934 153.386 87.3017C153.572 86.6726 153.646 86.4305 153.775 86.2652C153.868 86.1362 153.923 86.0608 153.923 85.9695C153.923 85.8579 153.849 85.7651 153.701 85.71C153.405 85.581 153.108 85.4882 152.701 85.3766C152.644 85.9883 152.534 86.5609 152.367 87.1727C152.072 88.2092 151.738 89.1355 151.312 89.9502C150.831 88.099 150.571 86.0623 150.461 83.637H151.998C153.813 83.637 154.423 83.6732 154.534 83.6732C154.663 83.6732 154.682 83.6544 154.682 83.5254V82.7484C154.682 82.6193 154.663 82.6194 154.534 82.6194C154.423 82.6194 153.813 82.6382 151.998 82.6382H150.423V81.3785C150.423 80.4898 150.48 80.1752 150.535 80.0448C150.591 79.9158 150.628 79.8041 150.628 79.6925C150.628 79.6186 150.573 79.5446 150.387 79.507C149.999 79.433 149.646 79.3953 149.239 79.3779C149.332 80.0622 149.351 80.9146 149.351 81.6553C149.351 81.9888 149.351 82.3222 149.369 82.6367H146.74C144.925 82.6367 144.277 82.6179 144.184 82.6179C144.055 82.6179 144.036 82.6179 144.036 82.7469C144.036 82.8585 144.072 83.4138 144.072 84.8388C144.072 86.7827 144.053 88.4861 143.794 90.1343C143.461 92.1899 142.515 93.931 141.331 95.1704C141.572 95.2632 141.831 95.4111 142.053 95.5966C142.182 95.7082 142.239 95.7822 142.312 95.7822C142.368 95.7822 142.424 95.7082 142.515 95.5604C143.552 94.2267 144.497 92.3755 144.812 90.5243C144.997 89.395 145.09 88.3208 145.126 87.1727H147.441C147.441 88.747 147.275 90.3025 147.146 90.8389C146.998 91.3201 146.812 91.4492 146.424 91.4492C146.053 91.4492 145.683 91.3941 145.128 91.3013C145.239 91.5608 145.294 91.8014 145.332 92.0783C145.368 92.4306 145.387 92.4306 145.628 92.4668C145.961 92.5031 146.295 92.5031 146.702 92.5031C147.295 92.5031 147.869 92.1885 148.017 91.5767C148.257 90.7809 148.424 89.4298 148.481 87.4481C148.5 87.1147 148.5 86.7624 148.536 86.3189C148.536 86.1898 148.5 86.1521 148.369 86.1521C148.257 86.1521 148.036 86.1884 147.147 86.1884H145.147V83.6327H149.406C149.535 86.3363 149.887 88.9645 150.591 91.1694C149.424 92.8727 147.833 94.0571 145.795 95.0023C146.016 95.1139 146.24 95.298 146.406 95.5024C146.535 95.6503 146.592 95.7242 146.685 95.7242C146.74 95.7242 146.832 95.6676 146.98 95.5952C148.647 94.7065 149.943 93.6874 150.98 92.3175C151.85 94.6137 152.888 95.5952 153.684 95.5952C154.498 95.5952 154.961 94.966 155.184 92.7075C155.22 92.3566 155.22 92.3378 154.923 92.1899Z" fill="white"/>
<path d="M166.265 85.7466H170.894C172.671 85.7466 173.264 85.7828 173.357 85.7828C173.486 85.7828 173.505 85.764 173.505 85.6161V84.7637C173.505 84.6347 173.486 84.6159 173.357 84.6159C173.264 84.6159 172.671 84.6535 170.894 84.6535H165.913C166.024 83.6895 166.079 82.6907 166.098 81.6528C166.117 80.8004 166.153 80.4496 166.246 80.264C166.301 80.135 166.358 80.0611 166.358 79.9117C166.358 79.819 166.284 79.745 166.098 79.7088C165.727 79.6537 165.21 79.616 164.783 79.5972C164.876 80.1524 164.895 80.6525 164.876 81.689C164.857 82.7444 164.821 83.7258 164.728 84.6521H160.359C158.582 84.6521 157.989 84.6144 157.896 84.6144C157.767 84.6144 157.748 84.6332 157.748 84.7623V85.6147C157.748 85.7625 157.767 85.7814 157.896 85.7814C157.989 85.7814 158.582 85.7451 160.359 85.7451H164.599C164.396 87.0788 164.063 88.2632 163.525 89.3751C162.451 91.5974 160.488 93.5587 157.358 94.8562C157.599 95.0229 157.84 95.2258 158.044 95.4853C158.173 95.6709 158.23 95.7448 158.322 95.7448C158.396 95.7448 158.47 95.7086 158.618 95.652C161.47 94.2256 163.321 92.4672 164.598 89.8389C165.043 88.9126 165.376 87.8573 165.616 86.7091C166.819 90.6899 169.505 93.9125 172.707 95.5969C172.836 95.6709 172.929 95.7086 172.986 95.7086C173.078 95.7086 173.133 95.6346 173.245 95.4302C173.431 95.1345 173.671 94.8562 173.912 94.6532C170.153 93.1717 167.449 89.6157 166.265 85.7466Z" fill="white"/>
<path d="M180.41 82.3953C180.465 82.3953 180.522 82.3591 180.651 82.3025L181.151 82.0619C181.373 81.9502 181.392 81.9503 181.318 81.8212C180.91 81.0993 180.465 80.4136 179.929 79.7482C179.836 79.6381 179.781 79.6381 179.577 79.7294L179.114 79.9323C178.893 80.0251 178.874 80.0802 178.948 80.173C179.429 80.7659 179.965 81.5617 180.299 82.2648C180.336 82.3591 180.355 82.3953 180.41 82.3953Z" fill="white"/>
<path d="M177.042 86.4324C177.042 86.5614 177.06 86.5803 177.189 86.5803H178.042C178.171 86.5803 178.19 86.5614 178.19 86.4324V83.6737H190.948V86.4324C190.948 86.5614 190.967 86.5803 191.096 86.5803H191.929C192.077 86.5803 192.096 86.5614 192.096 86.4324C192.096 86.3396 192.058 86.099 192.058 84.4507V83.6911C192.058 83.1721 192.096 82.8764 192.096 82.7836C192.096 82.6735 192.077 82.6546 191.929 82.6546C191.837 82.6546 191.189 82.6923 189.375 82.6923H188.597C189.061 82.0081 189.375 81.4514 189.707 80.8223C189.8 80.6555 189.948 80.47 190.059 80.3961C190.152 80.341 190.188 80.267 190.188 80.1931C190.188 80.1003 190.133 80.0264 189.985 79.9525C189.688 79.8046 189.3 79.6567 188.892 79.564C188.837 79.9162 188.745 80.212 188.652 80.4164C188.318 81.2122 187.966 81.9167 187.449 82.6938H179.745C177.949 82.6938 177.301 82.6561 177.189 82.6561C177.06 82.6561 177.042 82.6749 177.042 82.7851C177.042 82.8967 177.079 83.1736 177.079 83.8042V84.4522C177.078 86.0801 177.042 86.3208 177.042 86.4324Z" fill="white"/>
<path d="M184.707 82.0806L185.207 81.895C185.448 81.7834 185.467 81.7834 185.411 81.6544C185.116 80.9136 184.726 80.154 184.263 79.4698C184.189 79.3581 184.134 79.3581 183.949 79.4335L183.449 79.6002C183.244 79.6742 183.189 79.7119 183.282 79.8409C183.708 80.5077 184.059 81.1195 184.356 82.0255C184.41 82.1922 184.447 82.1922 184.707 82.0806Z" fill="white"/>
<path d="M192.521 89.7086C192.428 89.7086 191.854 89.7448 190.113 89.7448H185.187V89.523C185.187 89.2259 185.187 89.0229 185.206 88.8939C186.373 88.2271 187.317 87.6168 188.057 87.0238C188.482 86.6716 188.65 86.5976 188.834 86.5426C188.946 86.5063 189.02 86.4309 189.02 86.3019C189.02 86.1729 188.908 85.9873 188.65 85.7279C188.354 85.4321 188.243 85.3394 188.133 85.3394C188.059 85.3394 188.004 85.3582 187.947 85.3756C187.892 85.3944 187.762 85.4118 187.466 85.4118H182.28C180.539 85.4118 179.967 85.3756 179.874 85.3756C179.745 85.3756 179.726 85.3944 179.726 85.5235V86.2831C179.726 86.4121 179.745 86.4309 179.874 86.4309C179.967 86.4309 180.541 86.3947 182.28 86.3947H187.261C186.502 87.0427 185.744 87.5791 184.855 88.098C184.577 88.0241 184.262 87.969 183.91 87.9125C184.003 88.3764 184.039 88.9301 184.039 89.7463H178.984C177.243 89.7463 176.669 89.71 176.578 89.71C176.449 89.71 176.43 89.7289 176.43 89.8579V90.6726C176.43 90.8016 176.449 90.8205 176.578 90.8205C176.67 90.8205 177.244 90.7842 178.984 90.7842H184.039V93.988C184.039 94.5809 183.761 94.7099 183.224 94.7099C182.465 94.7099 181.947 94.6736 181.299 94.5983C181.466 94.8201 181.595 95.1723 181.688 95.4507C181.78 95.8203 181.78 95.8015 182.133 95.8015C183.855 95.8392 184.317 95.7464 184.707 95.5057C185.077 95.2463 185.206 94.9505 185.206 94.3025C185.206 93.8589 185.187 93.0993 185.187 92.7108V90.7842H190.113C191.854 90.7842 192.428 90.8205 192.521 90.8205C192.65 90.8205 192.669 90.8016 192.669 90.6726V89.8579C192.669 89.7274 192.65 89.7086 192.521 89.7086Z" fill="white"/>
<path d="M22.5452 61.3635C14.9809 61.3635 13.4312 58.6295 13.4312 50.7913V5.58829H13.6124L32.2955 64.4629H35.4847L54.8984 5.22298H55.0811V55.349C55.0811 59.724 53.5314 61.3635 46.879 61.3635V64.4614H73.309V61.3635C65.9274 61.3635 64.3777 59.724 64.3777 55.349V10.8737C64.3777 6.49867 65.9274 4.85912 72.4885 4.85912V1.75977H52.347L37.1272 48.4211H36.9445L22.09 1.75977H0.672852V4.85912C8.05446 4.85912 9.60414 6.49867 9.60414 10.8737V50.7913C9.60414 58.6295 8.05446 61.3635 0.672852 61.3635V64.4614H22.5466V61.3635H22.5452Z" fill="white"/>
<path d="M118.967 13.5164C122.338 7.13652 123.523 4.85912 130.085 4.85912V1.75977H109.215V4.85912C114.955 4.85912 116.962 5.95215 116.962 7.86569C116.962 12.5133 106.115 29.4655 104.385 33.2925C102.835 29.1915 92.1727 11.0549 92.1727 7.95702C92.1727 5.7695 94.3603 4.85912 99.8269 4.85912V1.75977H73.9463V4.85912C78.6852 4.85912 80.4161 5.58829 82.8776 10.4185L96.8218 37.8517V55.3489C96.8218 59.724 95.2721 61.3635 87.3425 61.3635V64.4614H115.96V61.3635C107.667 61.3635 106.117 59.724 106.117 55.3489V37.8502L118.967 13.5164Z" fill="white"/>
<path d="M173.351 1.75977V4.85912C182.19 4.85912 183.102 8.68619 183.102 13.6077V44.4113C183.102 54.6183 178.089 62.4566 164.785 62.4566C154.759 62.4566 149.929 57.1712 149.929 47.4194V10.8737C149.929 6.50012 151.478 4.85912 158.677 4.85912V1.75977H131.883V4.85912C139.084 4.85912 140.633 6.50012 140.633 10.8737V47.1468C140.633 59.9052 149.656 65.5574 163.69 65.5574C176.814 65.5574 186.383 58.2656 186.383 45.142V13.6077C186.383 8.68619 187.295 4.85912 195.314 4.85912V1.75977H173.351Z" fill="white"/>
<path d="M214.285 51.305H209.054V49.1667H214.285V43.6001H216.553V49.1667H221.785V51.305H216.553V56.8716H214.285V51.305Z" fill="white"/>
<path d="M250.311 47.8014C252.063 53.1622 255.311 57.5169 260.18 59.5522C259.587 60.0683 258.788 61.0729 258.401 61.7948C253.583 59.5522 250.464 55.3787 248.454 49.915C247.139 54.5799 244.357 59.0376 238.506 61.7948C238.119 61.1512 237.346 60.3002 236.677 59.7842C242.81 57.1038 245.309 52.4649 246.34 47.8014H237.191V45.3268H246.778C247.087 42.7493 247.062 40.2762 247.087 38.2148H249.689C249.663 40.3023 249.637 42.7754 249.328 45.3268H259.713V47.8014H250.311V47.8014Z" fill="white"/>
<path d="M288.784 54.8364H278.631V59.1404C278.631 60.4552 278.296 61.125 277.239 61.4859C276.182 61.8208 274.662 61.8469 272.42 61.8469C272.241 61.1771 271.777 60.1972 271.416 59.5274C273.219 59.6043 275.024 59.6043 275.539 59.5796C276.055 59.5535 276.182 59.4506 276.182 59.0635V54.8378H266.132V52.6213H276.182V50.8411H277.393C278.397 50.3004 279.428 49.6046 280.305 48.9088H270.513V46.8213H282.598L283.114 46.6922L284.661 47.852C283.114 49.5017 280.847 51.1499 278.631 52.285V52.6199H288.784V54.8364ZM268.812 48.2651H266.57V42.3636H270.281C269.817 41.4358 269.018 40.2761 268.27 39.4005L270.331 38.4727C271.259 39.5034 272.29 40.9473 272.728 41.9258L271.8 42.3636H276.568C276.207 41.3329 275.46 39.9151 274.765 38.8337L276.852 38.061C277.728 39.2208 278.605 40.8444 278.939 41.8751L277.677 42.365H282.032C282.933 41.1792 283.938 39.5556 284.531 38.3452L287.056 39.1439C286.308 40.2515 285.459 41.3865 284.66 42.365H288.397V48.2666H286.027V44.4772H268.812V48.2651V48.2651Z" fill="white"/>
<path d="M301.669 40.096C300.947 42.2604 300.045 44.9408 299.22 46.9514C300.973 48.9867 301.359 50.7655 301.359 52.3122C301.359 53.7807 301.05 54.8636 300.302 55.3782C299.915 55.6363 299.426 55.816 298.91 55.8943C298.42 55.9465 297.803 55.9465 297.21 55.9204C297.184 55.3275 297.004 54.4258 296.643 53.859C297.184 53.9112 297.623 53.9112 297.958 53.8851C298.266 53.8851 298.525 53.8083 298.756 53.6532C299.117 53.3951 299.22 52.7776 299.22 52.0296C299.22 50.7408 298.809 49.0665 297.133 47.2109C297.777 45.4844 298.448 43.191 298.936 41.4384H296.179V61.848H294.065V39.2712H299.735L300.096 39.1944L301.669 40.096ZM314.039 59.3967C314.503 59.3967 314.606 58.985 314.658 56.3046C315.122 56.6916 316.075 57.0511 316.693 57.2063C316.487 60.6332 315.894 61.5349 314.297 61.5349H312.286C310.328 61.5349 309.864 60.8391 309.864 58.6487V52.3615H307.389C307.028 57.1294 305.971 60.1693 301.127 61.8451C300.921 61.2783 300.302 60.3766 299.812 59.9896C303.961 58.6501 304.836 56.2524 305.094 52.3615H301.95V50.1711H316.329V52.3615H312.128V58.624C312.128 59.3198 312.205 59.3967 312.669 59.3967H314.039ZM307.596 41.0746V38.2651H309.916V41.0746H316.332V45.8932H314.297V47.7227H303.629V45.8932H301.67V41.0746H307.596ZM314.116 43.136H303.807V45.6352H314.116V43.136Z" fill="white"/>
<path d="M343.983 54.6304H341.302V59.1403H338.88V58.0327H333.391V59.3722C333.391 60.687 333.057 61.2278 332.181 61.5626C331.305 61.8714 329.965 61.8975 327.8 61.8975C327.671 61.3568 327.31 60.4797 326.975 59.9651C328.393 60.0173 329.938 60.0173 330.352 59.9912C330.815 59.9651 330.971 59.8361 330.971 59.3983V58.0327H322.931V56.2294H330.971V54.6319H320.662V52.7502H330.971V51.2817H323.163V49.5813H330.971V48.0606H323.833V43.3173H330.971V42.0025H321.204V40.0701H330.971V38.1885H333.393V40.0701H343.443V42.0025H333.393V43.3173H340.892V48.0591H333.393V49.5798H341.304V52.7502H343.984V54.6304H343.983ZM330.969 46.4602V44.9134H326.124V46.4602H330.969ZM333.391 44.9149V46.4616H338.468V44.9149H333.391ZM333.391 52.7488H338.88V51.2803H333.391V52.7488ZM338.88 54.6304H333.391V56.2279H338.88V54.6304Z" fill="white"/>
<path d="M362.949 55.8672C365.216 57.4647 368.541 58.7795 371.684 59.3724C371.143 59.8885 370.448 60.867 370.087 61.5106C366.737 60.609 363.283 58.8824 360.861 56.6659V61.8455H358.516V56.8457C356.067 58.9071 352.588 60.5829 349.367 61.4846C349.006 60.8656 348.336 59.9639 347.795 59.4492C350.861 58.8056 354.212 57.4647 356.48 55.8672H348.517V53.8565H358.516V52.2851H350.914V50.4817H358.516V48.9349H349.651V47.0287H354.933C354.702 46.3067 354.264 45.379 353.851 44.6831L354.47 44.5802H348.62V42.5695H352.434C352.047 41.5649 351.275 40.1472 350.553 39.0904L352.64 38.3945C353.439 39.5021 354.341 41.0749 354.702 42.0795L353.387 42.5695H356.221V38.1626H358.463V42.5695H361.015V38.1626H363.282V42.5695H366.065L365.085 42.2608C365.704 41.2301 366.503 39.6064 366.889 38.4467L369.363 39.0657C368.667 40.3284 367.895 41.6171 367.225 42.571H370.936V44.5816H365.964C365.474 45.4572 364.959 46.3082 364.521 47.0301H369.985V48.9364H360.863V50.4832H368.773V52.2865H360.863V53.8579H371.016V55.8686H362.949V55.8672ZM356.327 44.5802C356.79 45.3282 357.254 46.2545 357.434 46.8735L356.686 47.0287H362.124C362.511 46.3328 362.923 45.405 363.257 44.5802H356.327Z" fill="white"/>
<path d="M382.997 53.6765C382.662 52.8517 381.914 51.4339 381.244 50.2235V61.8192H379.028V50.9193C378.255 53.3678 377.301 55.635 376.27 57.1035C376.038 56.4599 375.472 55.5567 375.137 55.0421C376.657 52.9285 378.126 49.1145 378.822 45.8426H375.677V43.6261H379.028V38.1885H381.244V43.6261H384.001V45.8426H381.244V47.3633C381.966 48.3172 383.872 51.2281 384.285 51.9239L382.997 53.6765ZM399.231 57.7225H397.711V59.4229C397.711 60.5058 397.479 61.0465 396.731 61.4075C395.984 61.6916 394.824 61.7163 393.175 61.7163C393.072 61.1495 392.788 60.3246 392.531 59.7839C393.614 59.8361 394.721 59.8361 395.056 59.81C395.365 59.81 395.468 59.7071 395.468 59.3983V57.724H387.402V61.7177H385.212V57.724H383.562V55.9206H385.212V49.4783H390.262V48.2157H384V46.437H387.376V44.9931H385.109V43.3173H387.376V41.8996H384.567V40.173H387.376V38.1885H389.619V40.173H393.149V38.1885H395.391V40.173H398.457V41.8996H395.391V43.3173H398.072V44.9917H395.391V46.4355H398.973V48.2143H392.428V49.4769H397.711V55.9191H399.231V57.7225V57.7225ZM387.404 51.202V52.6705H390.264V51.202H387.404ZM387.404 55.9177H390.264V54.3202H387.404V55.9177ZM389.62 43.3173H393.15V41.8996H389.62V43.3173ZM389.62 46.4355H393.15V44.9917H389.62V46.4355ZM392.428 51.202V52.6705H395.47V51.202H392.428ZM395.47 55.9177V54.3202H392.428V55.9177H395.47Z" fill="white"/>
<path d="M408.2 53.3159V47.2854C407.195 49.1409 405.957 50.8153 404.694 51.8981C404.333 51.3574 403.612 50.6094 403.123 50.1977C404.926 48.909 406.731 46.4359 407.813 43.9874H403.741V41.9521H408.198V38.2671H410.468V41.9521H414.333V43.9874H410.468V45.224C411.447 45.8169 413.998 47.6724 414.669 48.1624L413.381 50.1209C412.762 49.4772 411.525 48.3422 410.468 47.4405V53.2898L408.2 53.3159ZM403.407 59.3972C404.412 58.0316 405.263 55.8919 405.753 54.1147L407.866 54.9656C407.35 56.7443 406.527 59.0377 405.573 60.4801L403.407 59.3972ZM418.096 59.1652C419.307 59.1652 419.488 58.8043 419.643 56.2268C420.159 56.6139 421.138 56.9487 421.808 57.1024C421.473 60.5047 420.803 61.3035 418.278 61.3035H413.253C410.161 61.3035 409.362 60.6598 409.362 58.3911V54.5524H411.732V58.3665C411.732 59.0623 411.991 59.1652 413.459 59.1652H418.096V59.1652ZM414.514 52.594C415.674 53.6769 417.246 55.1961 418.044 56.1239L416.292 57.5924C415.57 56.6385 414.024 55.041 412.865 53.8813L414.514 52.594ZM425.569 53.0071H415.39V39.5297H425.569V53.0071ZM423.276 41.4621H417.58V43.4206H423.276V41.4621ZM423.276 45.2501H417.58V47.2607H423.276V45.2501ZM423.276 49.0641H417.58V51.0994H423.276V49.0641ZM423.766 53.7276C424.823 55.3251 426.241 57.5155 426.91 58.8304L424.694 59.964C424.075 58.6245 422.709 56.3558 421.679 54.7076L423.766 53.7276Z" fill="white"/>
<path d="M453.452 54.8364H443.298V59.1404C443.298 60.4552 442.963 61.125 441.907 61.4859C440.85 61.8208 439.329 61.8469 437.088 61.8469C436.908 61.1771 436.444 60.1972 436.083 59.5274C437.887 59.6043 439.691 59.6043 440.206 59.5796C440.722 59.5535 440.85 59.4506 440.85 59.0635V54.8378H430.799V52.6213H440.85V50.8411H442.06C443.065 50.3004 444.096 49.6046 444.973 48.9088H435.18V46.8213H447.266L447.782 46.6922L449.329 47.852C447.782 49.5017 445.515 51.1499 443.298 52.285V52.6199H453.452V54.8364V54.8364ZM433.48 48.2651H431.237V42.3636H434.948C434.484 41.4358 433.686 40.2761 432.938 39.4005L434.999 38.4727C435.927 39.5034 436.957 40.9473 437.395 41.9258L436.467 42.3636H441.235C440.874 41.3329 440.128 39.9151 439.432 38.8337L441.519 38.061C442.395 39.2208 443.272 40.8444 443.607 41.8751L442.344 42.365H446.699C447.601 41.1792 448.605 39.5556 449.198 38.3452L451.724 39.1439C450.976 40.2515 450.126 41.3865 449.327 42.365H453.064V48.2666H450.694V44.4772H433.48V48.2651Z" fill="white"/>
<path d="M457.961 39.5029H467.084V41.6673H463.219C462.832 43.6257 462.343 45.532 461.724 47.3368H466.698V58.676H461.648V60.6606H459.637V51.9511C459.25 52.5947 458.864 53.1876 458.427 53.7298C458.324 53.1108 457.834 51.6684 457.473 51.0233C459.173 48.7299 460.282 45.3276 460.952 41.6687H457.963V39.5029H457.961ZM464.635 49.4751H461.646V56.5624H464.635V49.4751ZM481.334 50.945H478.551V61.8449H476.257V50.945H472.598C472.469 54.8112 471.8 59.0877 469.016 61.9739C468.604 61.5869 467.727 60.8911 467.187 60.5823C469.635 58.0309 470.228 54.243 470.356 50.945H467.701V48.6778H470.382V41.7716H468.397V39.529H480.818V41.7716H478.551V48.6778H481.334V50.945ZM476.257 48.6763V41.7702H472.624V48.6763H476.257Z" fill="white"/>
<path d="M506.305 59.3203C506.948 59.3203 507.053 58.8825 507.155 55.5831C507.672 56.0209 508.753 56.434 509.423 56.6138C509.191 60.6336 508.547 61.6643 506.589 61.6643H504.089C501.873 61.6643 501.229 60.9685 501.229 58.4954V53.8565H496.901C496.36 56.8718 494.272 60.0407 487.366 61.9224C487.005 61.3556 486.309 60.48 485.743 59.9639C491.695 58.3925 493.732 56.047 494.375 53.8565H487.572V51.6139H494.659V48.6508H497.056V51.6139H503.73V58.4693C503.73 59.2173 503.859 59.3203 504.478 59.3203H506.305ZM495.637 42.6218C495.096 46.7185 493.549 49.1162 487.442 50.3788C487.236 49.812 486.669 48.8842 486.179 48.4464C491.488 47.5187 492.698 45.7399 493.137 42.6232H489.039V45.3297H486.643V40.485H496.28V38.1655H498.729V40.485H508.547V45.0978H506.022V42.6218H501.486V46.6677C501.486 47.3375 501.615 47.4157 502.464 47.4157H505.171C505.841 47.4157 505.97 47.1838 506.046 45.5602C506.536 45.9212 507.515 46.2821 508.16 46.385C507.902 48.8842 507.258 49.5293 505.454 49.5293H502.156C499.681 49.5293 499.114 48.8857 499.114 46.6953V42.6218H495.637Z" fill="white"/>
<path d="M522.642 53.9592C522.281 53.1865 521.405 51.7427 520.631 50.5583V61.8192H518.312V51.3832C517.358 53.7287 516.198 55.9191 515.014 57.3876C514.782 56.744 514.215 55.764 513.854 55.1711C515.375 53.4185 517.024 50.3525 517.977 47.6199H514.189V45.3773H518.312V41.9257C517.204 42.1315 516.095 42.2866 515.064 42.4417C514.988 41.9257 514.653 41.0762 514.395 40.5862C517.281 40.1223 520.579 39.3757 522.59 38.4987L523.955 40.4572C522.977 40.8442 521.842 41.153 520.631 41.4357V45.3787H524.239V47.6213H520.631V47.9823C521.404 48.7811 523.594 51.4093 524.084 52.079L522.642 53.9592ZM534.729 55.2219V61.8192H532.359V55.635L524.241 57.0006L523.88 54.7072L532.357 53.2895V38.1885H534.728V52.9024L537.537 52.4385L537.898 54.6811L534.729 55.2219ZM529.11 51.7441C528.259 50.6366 526.379 48.9869 524.806 47.904L526.327 46.5124C527.874 47.5431 529.832 49.0898 530.734 50.1713L529.11 51.7441ZM529.755 44.9656C528.983 43.8827 527.23 42.3113 525.761 41.2284L527.333 39.8628C528.801 40.8674 530.58 42.362 531.43 43.4449L529.755 44.9656Z" fill="white"/>
<path d="M567.094 38.9367C566.527 40.6111 565.857 42.3129 565.109 43.9612V61.8194H562.842V48.1608C562.172 49.2176 561.503 50.1715 560.781 51.021C560.575 50.4281 559.93 49.0886 559.57 48.4957C561.709 45.9965 563.693 42.1825 564.879 38.3163L567.094 38.9367ZM581.474 42.8276C580.65 44.4251 579.568 45.7907 578.279 46.9504C579.954 47.8521 581.964 48.5479 584.31 48.961C583.898 49.451 583.279 50.3266 582.995 50.9195C580.47 50.3527 578.33 49.3988 576.553 48.2652C574.75 49.5018 572.636 50.4295 570.343 51.1254C570.111 50.6876 569.518 49.9149 569.08 49.4249V57.5937H566.993V41.3069H569.08V44.7339C570.936 43.0842 572.559 40.6879 573.487 38.1626L575.677 38.7033C575.393 39.4513 575.058 40.1718 574.673 40.8937H583.487V42.8261H581.474V42.8276ZM569.079 49.2191C571.192 48.703 573.125 47.9564 574.774 46.9518C573.82 46.1531 573.048 45.3021 572.404 44.4265C571.785 45.1992 571.141 45.8689 570.498 46.4618C570.189 46.1777 569.57 45.6892 569.08 45.3282V49.2191H569.079ZM583.587 55.944C581.009 58.9854 576.32 60.7626 570.985 61.7165C570.727 61.1497 570.212 60.3248 569.748 59.8349C574.722 59.1129 579.283 57.6183 581.525 55.0931L583.587 55.944ZM578.716 50.5846C577.118 52.1822 574.541 53.4709 572.145 54.2436C571.836 53.8319 571.294 53.2129 570.83 52.8519C573.046 52.2329 575.572 51.1254 576.911 49.8366L578.716 50.5846ZM581.138 52.9548C579.154 55.1452 575.753 56.692 572.3 57.6198C572.016 57.1559 571.527 56.4862 571.114 56.073C574.309 55.3511 577.659 54.0116 579.359 52.2329L581.138 52.9548ZM573.562 42.8276L573.536 42.8537C574.232 43.8844 575.186 44.889 576.422 45.7921C577.453 44.9412 578.304 43.9626 578.974 42.829H573.562V42.8276Z" fill="white"/>
<path d="M600.62 48.4709V58.1604H609.562V60.5566H589.332V58.1604H598.067V48.4709H587.914V46.1007H598.067V38.2407H600.619V46.1007H610.927V48.4709H600.62V48.4709Z" fill="white"/>
<path d="M624.508 46.2801H630.436V48.4705H624.508V50.7639H629.662V57.541C629.662 58.5209 629.507 59.1385 628.837 59.4994C628.167 59.8604 627.187 59.8865 625.848 59.8604C625.796 59.2675 625.513 58.3919 625.204 57.8251C626.132 57.8512 626.905 57.8512 627.163 57.8251C627.421 57.8251 627.498 57.7483 627.498 57.4902V52.9035H624.508V61.845H622.241V52.9035H619.432V59.7836H617.294V50.7639H622.241V48.4705H616.185V46.2801H617.963C617.473 45.996 616.519 45.6611 615.953 45.4552C617.086 43.7548 617.937 41.2034 618.427 38.755L620.67 39.2189C620.464 40.0698 620.232 40.9454 620 41.7702H622.243V38.3433H624.51V41.7702H629.431V43.9346H624.51V46.2801H624.508ZM622.241 46.2801V43.9346H619.226C618.891 44.8101 618.504 45.635 618.092 46.2801H622.241ZM634.224 54.7069H632.008V40.4569H634.224V54.7069ZM638.863 38.5491V58.779C638.863 60.2214 638.554 60.8926 637.703 61.3043C636.878 61.716 635.436 61.7681 633.502 61.7681C633.399 61.1245 633.064 60.0155 632.729 59.3197C634.172 59.3719 635.564 59.3719 636.003 59.3458C636.414 59.3458 636.543 59.2168 636.543 58.8051V38.5491H638.863Z" fill="white"/>
<path d="M651.257 39.0134C650.562 40.8168 649.686 42.6723 648.706 44.3989V61.7932H646.284V48.1883C645.614 49.116 644.892 49.967 644.17 50.7135C643.938 50.1206 643.242 48.7812 642.831 48.239C645.279 45.8166 647.572 42.0548 648.964 38.2915L651.257 39.0134ZM659.039 44.7091V47.9824H666.048V50.1728H659.039V53.5998H666.409V55.8424H659.039V61.8208H656.591V44.7091H655.147C654.064 46.7198 652.88 48.5231 651.642 49.8887C651.254 49.477 650.327 48.6261 649.786 48.2651C652.053 45.8949 654.115 42.1838 655.353 38.4727L657.646 39.0917C657.234 40.1992 656.795 41.3343 656.307 42.4158H666.666V44.7091H659.039Z" fill="white"/>
<path d="M690.556 55.4537C689.422 56.3293 688.005 57.1542 686.768 57.8239C688.21 58.7778 689.963 59.4982 692 59.9114C691.484 60.3492 690.892 61.277 690.582 61.8699C686.022 60.7362 682.98 58.1588 681.201 54.2679H678.47V58.5966C680.068 58.3646 681.768 58.0805 683.47 57.8239L683.547 59.9114C680.12 60.4782 676.486 61.0711 673.805 61.4828L673.444 59.2924C674.269 59.1895 675.223 59.0604 676.254 58.9053V54.2665H673.265V52.2558H677.593V50.0132H674.011V47.9779H677.593V45.9165H673.289V46.8703C673.289 51.2773 672.928 57.6934 670.248 61.8684C669.784 61.4814 668.727 60.8638 668.134 60.6319C670.686 56.6627 670.892 50.9685 670.892 46.8703V39.3452H690.27V45.9165H686.612V47.9779H690.657V50.0132H686.612V52.2558H691.714V54.2665H688.828L690.556 55.4537ZM673.291 43.858H687.877V41.4095H673.291V43.858ZM679.784 47.9808H684.37V45.9194H679.784V47.9808ZM679.784 52.2587H684.37V50.0161H679.784V52.2587ZM683.469 54.2694C683.959 55.1449 684.552 55.9191 685.272 56.6149C686.458 55.9191 687.797 55.0174 688.699 54.2694H683.469Z" fill="white"/>
<path d="M529.29 17.8608H518.957V23.7884H516.483V17.8608H506.406V15.5675H516.483V13.867H518.132C517.669 13.4031 516.973 12.8363 516.535 12.5522C519.189 11.0837 521.2 8.68599 522.128 5.7229L524.55 6.18679C524.241 7.14066 523.854 8.04234 523.39 8.86719C525.246 10.1037 527.513 11.7534 528.673 12.861L526.997 14.6397C525.966 13.609 523.956 12.0376 522.152 10.7488C521.225 11.9854 520.117 13.0161 518.931 13.867H518.957V15.5675H529.29V17.8608ZM515.555 12.8088C514.911 12.1651 513.752 11.2113 512.669 10.4125C511.509 12.1912 510.091 13.7105 508.546 14.8195C508.159 14.4078 507.154 13.5829 506.614 13.2219C509.242 11.5983 511.252 8.86719 512.231 5.67217L514.653 6.21288C514.369 7.03774 514.06 7.83649 513.673 8.60916C514.859 9.40791 516.251 10.4125 516.997 11.1084L515.555 12.8088ZM528.544 5.59388H507.077V3.30054H516.483V0.15625H518.957V3.30054H528.544V5.59388V5.59388Z" fill="white"/>
<path d="M546.427 17.8349C548.694 19.4325 552.019 20.7473 555.162 21.3402C554.621 21.8563 553.926 22.8348 553.565 23.4784C550.215 22.5767 546.761 20.8502 544.339 18.6337V23.8133H541.994V18.8135C539.545 20.8749 536.066 22.5506 532.845 23.4523C532.484 22.8333 531.814 21.9316 531.273 21.417C534.339 20.7734 537.69 19.4325 539.958 17.8349H531.995V15.8243H541.994V14.2529H534.392V12.4495H541.994V10.9027H533.129V8.99643H538.412C538.18 8.2745 537.742 7.34673 537.329 6.65089L537.948 6.54797H532.098V4.53731H535.912C535.525 3.5327 534.753 2.11494 534.031 1.05815L536.118 0.362315C536.917 1.46985 537.819 3.04272 538.18 4.04732L536.865 4.53731H539.699V0.130371H541.94V4.53731H544.491V0.130371H546.759V4.53731H549.542L548.562 4.22853C549.181 3.19783 549.98 1.57422 550.365 0.414503L552.84 1.0335C552.144 2.29615 551.371 3.58489 550.702 4.53875H554.413V6.54942H549.439C548.949 7.42501 548.434 8.27595 547.997 8.99788H553.46V10.9027H544.338V12.4495H552.248V14.2529H544.338V15.8243H554.491V17.8349H546.427ZM539.805 6.54797C540.268 7.29599 540.732 8.22231 540.912 8.84131L540.164 8.99643H545.602C545.989 8.3006 546.401 7.37282 546.735 6.54797H539.805Z" fill="white"/>
<path d="M556.53 1.47119H565.652V3.63552H561.786C561.399 5.59399 560.91 7.50028 560.291 9.3051H565.265V20.6443H560.215V22.6288H558.204V13.9179C557.817 14.5615 557.431 15.1544 556.992 15.6966C556.889 15.0776 556.399 13.6352 556.038 12.9901C557.739 10.6968 558.848 7.29443 559.517 3.63552H556.528V1.47119H556.53ZM563.204 11.4433H560.215V18.5307H563.204V11.4433ZM579.902 12.9133H577.119V23.8132H574.826V12.9133H571.167C571.038 16.778 570.368 21.056 567.585 23.9422C567.173 23.5551 566.296 22.8593 565.755 22.5505C568.204 19.9992 568.796 16.2112 568.925 12.9133H566.271V10.6446H568.952V3.73844H566.967V1.49728H579.388V3.73989H577.12V10.646H579.904V12.9133H579.902ZM574.826 10.6446V3.73844H571.193V10.6446H574.826V10.6446Z" fill="white"/>
<path d="M602.296 21.288C602.94 21.288 603.044 20.8502 603.147 17.5508C603.662 17.9886 604.745 18.4018 605.414 18.5815C605.182 22.6014 604.539 23.6321 602.58 23.6321H600.081C597.865 23.6321 597.221 22.9363 597.221 20.4617V15.8228H592.891C592.35 18.8381 590.263 22.007 583.357 23.8887C582.996 23.3219 582.3 22.4463 581.733 21.9302C587.685 20.3588 589.722 18.0132 590.366 15.8228H583.562V13.5802H590.65V10.6186H593.046V13.5817H599.72V20.4371C599.72 21.1851 599.849 21.288 600.468 21.288H602.296ZM591.627 4.58949C591.086 8.6862 589.539 11.0839 583.432 12.3466C583.226 11.7798 582.659 10.852 582.169 10.4142C587.478 9.48641 588.688 7.70769 589.128 4.59094H585.031V7.29744H582.635V2.44981H592.272V0.130371H594.719V2.44981H604.537V7.06259H602.012V4.58949H597.476V8.63546C597.476 9.3052 597.605 9.38348 598.455 9.38348H601.161C601.831 9.38348 601.96 9.15154 602.037 7.52793C602.527 7.88889 603.505 8.24986 604.15 8.35278C603.892 10.852 603.249 11.4971 601.444 11.4971H598.146C595.671 11.4971 595.105 10.8534 595.105 8.66301V4.58949H591.627Z" fill="white"/>
<path d="M613.141 11.9855C613.141 13.1076 612.23 14.0179 611.109 14.0179C609.988 14.0179 609.077 13.1061 609.077 11.9855C609.077 10.865 609.988 9.95312 611.109 9.95312C612.23 9.95312 613.141 10.8635 613.141 11.9855Z" fill="white"/>
<path d="M626.69 8.24835H632.617V10.4388H626.69V12.7321H631.843V19.5092C631.843 20.4877 631.688 21.1067 631.018 21.4677C630.349 21.8287 629.369 21.8548 628.029 21.8287C627.977 21.2358 627.694 20.3602 627.385 19.7934C628.313 19.8195 629.086 19.8195 629.344 19.7934C629.602 19.7934 629.679 19.7165 629.679 19.4585V14.8718H626.69V23.8132H624.422V14.8718H621.613V21.7518H619.475V12.7321H624.422V10.4388H618.366V8.24835H620.144C619.654 7.96422 618.701 7.62935 618.134 7.4235C619.267 5.72307 620.118 3.17168 620.608 0.723224L622.851 1.18711C622.645 2.03806 622.413 2.91364 622.181 3.73849H624.424V0.311523H626.691V3.73849H631.613V5.90282H626.691V8.24835H626.69ZM624.421 8.24835V5.90282H621.406C621.071 6.77841 620.684 7.60326 620.272 8.24835H624.421V8.24835ZM636.404 16.6752H634.187V2.42511H636.404V16.6752ZM641.043 0.517374V20.7472C641.043 22.1911 640.734 22.8608 639.883 23.2725C639.058 23.6842 637.616 23.7364 635.682 23.7364C635.579 23.0928 635.244 21.9838 634.909 21.2879C636.352 21.3401 637.743 21.3401 638.182 21.314C638.594 21.314 638.723 21.185 638.723 20.7733V0.517374H641.043Z" fill="white"/>
<path d="M651.376 0.981187C650.68 2.78455 649.805 4.6401 648.825 6.36663V23.761H646.402V10.1546C645.733 11.0823 645.011 11.9333 644.289 12.6799C644.057 12.0869 643.361 10.7475 642.949 10.2053C645.398 7.78294 647.691 4.0211 649.083 0.257812L651.376 0.981187ZM659.159 6.67686V9.95017H666.168V12.1406H659.159V15.5676H666.529V17.8102H659.159V23.7885H656.711V6.67686H655.267C654.184 8.68752 653 10.4909 651.762 11.8565C651.375 11.4448 650.447 10.5938 649.906 10.2328C652.173 7.86267 654.235 4.15157 655.473 0.440468L657.766 1.05947C657.354 2.167 656.915 3.30208 656.427 4.38351H666.786V6.67686H659.159Z" fill="white"/>
<path d="M690.16 17.4215C689.026 18.2971 687.608 19.122 686.372 19.7917C687.814 20.7456 689.567 21.466 691.603 21.8792C691.087 22.317 690.496 23.2448 690.186 23.8377C685.625 22.704 682.584 20.1266 680.805 16.2357H678.074V20.5644C679.671 20.3324 681.372 20.0483 683.074 19.7917L683.15 21.8792C679.724 22.446 676.089 23.0389 673.409 23.4506L673.048 21.2602C673.873 21.1573 674.827 21.0283 675.857 20.8731V16.2343H672.868V14.2236H677.198V11.981H673.616V9.94858H677.198V7.88718H672.894V8.84105C672.894 13.248 672.533 19.6641 669.853 23.8391C669.389 23.4521 668.332 22.8345 667.739 22.6026C670.291 18.6334 670.496 12.9392 670.496 8.84105V1.31592H689.875V7.88718H686.216V9.94858H690.262V11.9839H686.216V14.2265H691.319V16.2372H688.433L690.16 17.4215ZM672.894 5.82578H687.481V3.37732H672.894V5.82578ZM679.387 9.94858H683.974V7.88718H679.387V9.94858ZM679.387 14.2265H683.974V11.9839H679.387V14.2265ZM683.072 16.2372C683.562 17.1127 684.155 17.8869 684.876 18.5827C686.061 17.8869 687.401 16.9852 688.303 16.2372H683.072Z" fill="white"/>
<path d="M219.761 10.553V11.7142H208.303V10.553H213.413V7.58556H209.735V6.43744H213.413V3.85706H210.548C210.148 4.63117 209.722 5.31541 209.271 5.85758C209.026 5.65173 208.497 5.30236 208.175 5.13565C209.22 4.03827 210.034 2.27115 210.511 0.464882L211.749 0.749014C211.556 1.40715 211.322 2.0653 211.077 2.6843H213.413V0.282227H214.651V2.68285H219.14V3.85706H214.651V6.43744H218.664V7.58556H214.651V10.553H219.761Z" fill="white"/>
<path d="M224.561 6.20432C224.031 5.84335 222.96 5.22435 222.186 4.82425L222.844 3.93417C223.579 4.29513 224.677 4.86339 225.219 5.21131L224.561 6.20432ZM222.444 11.1462C223.128 10.1778 224.121 8.52666 224.869 7.06831L225.733 7.86852C225.075 9.19784 224.211 10.7461 223.45 11.9464L222.444 11.1462ZM225.167 2.72081C224.637 2.3468 223.566 1.7278 222.805 1.3016L223.476 0.45066C224.224 0.811622 225.322 1.39293 225.877 1.75389L225.167 2.72081ZM230.533 5.15912V7.06831H233.19V12.0363H232.055V11.5593H227.785V12.1015H226.689V7.06976H229.398V5.15912H225.812V4.011H229.398V2.17864C228.495 2.32071 227.566 2.42363 226.715 2.48887C226.663 2.20473 226.509 1.75389 226.367 1.48281C228.573 1.25087 231.077 0.837716 232.496 0.308594L233.438 1.23782C232.612 1.54804 231.606 1.79303 230.535 1.98584V4.011H233.954V5.15912H230.533ZM232.057 8.15265H227.786V10.475H232.057V8.15265Z" fill="white"/>
<path d="M240.572 9.06884C239.127 9.49503 237.578 9.94588 236.378 10.2691L236.12 9.13407C236.597 9.0181 237.178 8.87603 237.797 8.72092V5.9202H236.404V4.86196H237.797V2.23084H236.275V1.1726H240.327V2.23084H238.882V4.86341H240.133V5.92165H238.882V8.42374C239.398 8.28168 239.927 8.13961 240.443 7.99755L240.572 9.06884ZM247.797 9.12103C247.281 9.50808 246.636 9.89514 246.12 10.1532C246.688 10.6055 247.346 10.9664 248.068 11.1723C247.797 11.3912 247.475 11.8304 247.294 12.1146C245.836 11.5463 244.674 10.4112 243.94 9.00505L243.837 9.09493V12.1146H242.715V9.97197C241.851 10.5649 240.882 11.0679 240.005 11.4042C239.85 11.1592 239.528 10.7591 239.295 10.5649C240.637 10.1387 242.146 9.32688 243.205 8.44839H240.985V5.59838H247.243V8.44984H244.689C244.895 8.84994 245.166 9.22395 245.489 9.57187C245.979 9.27469 246.598 8.8108 246.961 8.50058L247.797 9.12103ZM240.183 4.01101H248.054V4.99097H240.183V4.01101ZM247.5 3.43115H240.778V0.682617H247.5V3.43115ZM242.765 1.52051H241.759V2.57876H242.765V1.52051ZM242.042 7.55975H246.131V6.47542H242.042V7.55975ZM244.609 1.52051H243.564V2.57876H244.609V1.52051ZM246.481 1.52051H245.423V2.57876H246.481V1.52051Z" fill="white"/>
<path d="M254.583 8.24384C253.227 8.90198 251.744 9.58621 250.609 10.1153L250.183 8.92807C250.647 8.75991 251.228 8.51492 251.847 8.25688V4.4762H250.441V3.35417H251.847V0.425879H252.956V3.35417H254.22V4.4762H252.956V7.7669L254.312 7.174L254.583 8.24384ZM260.918 11.004C261.163 11.004 261.215 10.8619 261.253 9.80366C261.472 9.98487 261.95 10.1516 262.246 10.2299C262.143 11.6752 261.846 12.0361 261.032 12.0361H259.884C258.839 12.0361 258.607 11.7128 258.607 10.6807V8.92662H257.446C257.136 10.5009 256.348 11.5331 253.975 12.126C253.859 11.8419 253.536 11.3388 253.317 11.1199C255.355 10.7198 256.001 10.011 256.272 8.92662H255.058V4.99227H261.419V8.92807H259.742V10.6705C259.742 10.9677 259.781 11.0054 260.065 11.0054H260.918V11.004ZM262.092 4.38487H254.235V3.40491H256.196C256.119 3.05699 255.951 2.6047 255.77 2.26983L256.338 2.14081H254.609V1.19854H257.526V0.29541H258.7V1.19854H261.822V2.14081H260.119L260.674 2.25679C260.442 2.66994 260.248 3.08309 260.068 3.40491H262.093V4.38487H262.092ZM256.195 6.57819H260.26V5.76494H256.195V6.57819ZM256.195 8.15251H260.26V7.32621H256.195V8.15251ZM256.866 2.14081C257.072 2.51482 257.253 2.98016 257.318 3.30198L256.918 3.40491H259.227L258.943 3.34112C259.112 3.00625 259.33 2.51482 259.459 2.14081H256.866Z" fill="white"/>
<path d="M266 4.86357H274.452C274.723 4.86357 275.2 4.85053 275.536 4.79979V6.12912C275.226 6.11607 274.788 6.10302 274.452 6.10302H271.123C271.071 7.47004 270.813 8.60657 270.323 9.53579C269.859 10.4128 268.878 11.3681 267.756 11.948L266.569 11.071C267.524 10.6839 268.452 9.9359 268.956 9.14874C269.511 8.28475 269.678 7.26419 269.73 6.10302H266.002C265.615 6.10302 265.189 6.11607 264.828 6.14216V4.79979C265.189 4.83748 265.6 4.86357 266 4.86357ZM267.601 1.61201H271.961C272.361 1.61201 272.851 1.58592 273.252 1.53518V2.86451C272.838 2.83841 272.375 2.81232 271.961 2.81232H267.614C267.175 2.81232 266.698 2.83841 266.35 2.86451V1.53518C266.737 1.58592 267.175 1.61201 267.601 1.61201ZM275.007 2.32089L274.156 2.68185C273.898 2.16578 273.485 1.39166 273.137 0.901682L273.963 0.553766C274.284 1.01765 274.749 1.81786 275.007 2.32089ZM276.49 1.75408L275.651 2.12809C275.38 1.57287 274.953 0.837897 274.592 0.347916L275.419 0C275.768 0.488532 276.258 1.28874 276.49 1.75408Z" fill="white"/>
<path d="M282.025 11.9984L280.928 10.9793C283.34 10.0892 284.477 8.9788 284.477 5.56053V5.04446H281.083V6.97974C281.083 7.49581 281.122 8.05103 281.135 8.23079H279.703C279.729 8.04958 279.767 7.50886 279.767 6.97974V5.04301H278.503C277.897 5.04301 277.367 5.0691 277.16 5.08215V3.68903C277.328 3.71513 277.908 3.79196 278.503 3.79196H279.767V2.29447C279.767 1.98425 279.741 1.59719 279.703 1.26232H281.148C281.122 1.44353 281.083 1.83058 281.083 2.30752V3.79196H284.477V2.29447C284.477 1.7784 284.437 1.3522 284.413 1.17244H285.871C285.858 1.35365 285.806 1.7784 285.806 2.29447V3.79051H287.006C287.638 3.79051 288.051 3.75137 288.296 3.71368V5.0807C288.104 5.0546 287.638 5.04156 287.019 5.04156H285.806V5.4808C285.806 8.81065 285.045 10.656 282.025 11.9984ZM287.702 2.93956L286.954 3.1976C286.761 2.64239 286.502 1.90741 286.244 1.40439L286.979 1.17244C287.212 1.64938 287.535 2.43654 287.702 2.93956ZM289.018 2.54091L288.27 2.7859C288.077 2.21764 287.806 1.49571 287.548 0.992686L288.283 0.760742C288.528 1.24927 288.852 2.02484 289.018 2.54091Z" fill="white"/>
<path d="M295.959 3.90825C297.301 3.08195 298.668 1.88309 299.546 0.837891L300.63 1.87004C299.65 2.86305 298.437 3.85751 297.159 4.69541V10.0504C297.159 10.5795 297.185 11.2884 297.249 11.5725H295.649C295.688 11.2884 295.726 10.5795 295.726 10.0504V5.5594C294.37 6.29437 292.668 7.04384 290.965 7.55991L290.333 6.28277C292.592 5.67537 294.527 4.79833 295.959 3.90825Z" fill="white"/>
<path d="M308.358 8.30786C310.435 7.03072 312.048 5.09544 312.834 3.44429L313.621 4.85045C312.692 6.52769 311.105 8.28321 309.092 9.52121C307.789 10.3214 306.151 11.0825 304.151 11.4434L303.287 10.1141C305.442 9.7923 307.12 9.06892 308.358 8.30786ZM307.92 4.17926L306.901 5.22445C306.229 4.54022 304.63 3.13406 303.675 2.48897L304.617 1.48291C305.519 2.08886 307.196 3.43124 307.92 4.17926Z" fill="white"/>
<path d="M317.491 2.19158H323.905C324.253 2.19158 324.705 2.17853 324.937 2.16548C324.924 2.44961 324.911 2.9135 324.911 3.24982V9.92111C324.911 10.3734 324.937 11.0054 324.963 11.2881H323.492C323.492 11.1069 323.505 10.8619 323.505 10.5908H317.389C316.859 10.5908 316.214 10.6169 315.84 10.643V9.18469C316.214 9.21078 316.783 9.24992 317.336 9.24992H323.516V3.49481H317.491C316.988 3.49481 316.33 3.52091 315.995 3.547V2.11475C316.446 2.15389 317.067 2.19158 317.491 2.19158Z" fill="white"/>
<path d="M328.663 5.41716H334.278C334.773 5.41716 335.175 5.36498 335.433 5.34033V6.94075C335.205 6.9277 334.731 6.87696 334.278 6.87696H328.663C328.095 6.87696 327.476 6.90305 327.125 6.94075V5.34033C327.466 5.36643 328.105 5.41716 328.663 5.41716Z" fill="white"/>
<path d="M346.07 3.08218C345.618 4.14042 344.857 5.59877 343.954 6.75994C345.283 7.89502 346.844 9.55921 347.645 10.5406L346.51 11.5467C345.659 10.3855 344.368 8.96631 343.09 7.77904C341.71 9.25044 339.967 10.6305 338.122 11.4945L337.077 10.3971C339.167 9.5969 341.102 8.04868 342.379 6.61643C343.257 5.63646 344.122 4.21726 344.431 3.20975H339.696C339.193 3.20975 338.496 3.27498 338.29 3.28658V1.83113C338.548 1.87027 339.296 1.92101 339.696 1.92101H344.483C344.96 1.92101 345.386 1.86882 345.605 1.79199L346.444 2.41099C346.354 2.54146 346.16 2.86328 346.07 3.08218Z" fill="white"/>
<path d="M356.134 6.19135C356.134 7.01765 355.462 7.68739 354.638 7.68739C353.813 7.68739 353.142 7.0162 353.142 6.19135C353.142 5.3665 353.813 4.69531 354.638 4.69531C355.462 4.69531 356.134 5.3665 356.134 6.19135Z" fill="white"/>
<path d="M367.771 7.52056H364.21V4.79812H367.771V7.21034C368.301 6.86242 368.791 6.43622 369.23 5.94624C368.753 4.99092 368.39 3.80511 368.158 2.48883H363.682V3.45719C363.682 4.97932 363.45 7.13495 362.263 8.5788C362.082 8.35991 361.618 7.97285 361.386 7.84383C362.457 6.5406 362.586 4.74738 362.586 3.44415V1.52046H368.018C367.966 1.10731 367.928 0.694161 367.915 0.269414H369.05C369.063 0.695611 369.089 1.10876 369.14 1.52046H371.088C370.675 1.27547 370.146 1.01743 369.695 0.849274L370.288 0.165039C370.92 0.357842 371.694 0.720255 372.12 1.04208L371.72 1.51901H373.024V2.48738H369.295C369.463 3.40356 369.708 4.22986 370.005 4.92569C370.379 4.33278 370.69 3.67464 370.922 2.97736L372.057 3.2354C371.683 4.28059 371.18 5.23591 370.572 6.06076C371.023 6.77109 371.514 7.18279 371.965 7.18279C372.262 7.18279 372.391 6.74355 372.455 5.60847C372.7 5.81432 373.087 6.03467 373.384 6.13759C373.203 7.82789 372.803 8.26713 371.9 8.26713C371.139 8.26713 370.429 7.77715 369.836 6.95085C369.397 7.40314 368.933 7.81484 368.43 8.15116C368.314 7.983 368.016 7.68727 367.771 7.47997V7.52056V7.52056ZM361.474 11.1853C362.3 10.604 362.841 9.65009 363.138 8.69478L364.197 9.06879C363.873 10.1009 363.37 11.1853 362.48 11.8565L361.474 11.1853ZM367.927 4.03705H364.069V3.23685H367.927V4.03705ZM368.817 10.875C369.346 10.875 369.436 10.7199 369.488 9.61095C369.733 9.79216 370.249 9.97192 370.559 10.0502C370.417 11.5723 370.069 11.9463 368.934 11.9463H366.625C365.153 11.9463 364.792 11.6231 364.792 10.501V8.65564H365.98V10.488C365.98 10.8229 366.083 10.875 366.741 10.875H368.817ZM366.777 5.61137H365.19V6.70876H366.777V5.61137ZM366.635 7.59884C367.396 7.9859 368.312 8.6049 368.738 9.09488L367.899 9.82985C367.499 9.33987 366.609 8.68173 365.848 8.26858L366.635 7.59884ZM371.165 8.53966C372.055 9.27464 372.971 10.3329 373.358 11.1461L372.261 11.7144C371.938 10.9272 371.048 9.8313 370.184 9.05719L371.165 8.53966Z" fill="white"/>
<path d="M375.382 6.03769C375.705 5.1737 375.937 3.75449 376.027 2.70929L376.904 2.83831C376.84 3.89655 376.607 5.39259 376.298 6.34791L375.382 6.03769ZM387.279 10.5403V11.6754H379.37V10.5403H382.956V7.612H380.337V6.48998H382.956V4.06326H381.279C381.034 4.78519 380.75 5.44333 380.453 5.97245C380.208 5.80429 379.679 5.53321 379.381 5.41724C379.55 5.1592 379.716 4.86202 379.858 4.52715L379.136 4.87507C379.02 4.35899 378.684 3.53269 378.362 2.84991V12.1016H377.162V0.269531H378.362V2.6571L379.123 2.34688C379.447 2.95283 379.808 3.73999 379.963 4.28216C380.363 3.2761 380.647 2.06275 380.814 0.85084L381.988 1.04364C381.898 1.68874 381.756 2.32078 381.601 2.92674H382.956V0.321718H384.157V2.92819H386.944V4.06326H384.157V6.48853H386.66V7.61055H384.157V10.5388H387.279V10.5403Z" fill="white"/>
<path d="M389.458 6.08841C389.73 5.21137 389.935 3.77912 390.014 2.77306L390.878 2.87599C390.839 3.89509 390.633 5.40417 390.362 6.37254L389.458 6.08841ZM392.813 4.29519C392.684 3.8429 392.413 3.08184 392.155 2.48893V12.1016H391.057V0.282563H392.155V2.386L392.903 2.08883C393.161 2.66869 393.496 3.4312 393.625 3.90814L392.813 4.29519ZM401.42 4.37202V5.26211H393.059V4.37202H396.595V3.624H393.757V2.78466H396.595V2.11347H393.446V1.22339H396.595V0.268066H397.782V1.22339H401.046V2.11347H397.781V2.78466H400.709V3.624H397.781V4.37202H401.42ZM400.477 10.8752C400.477 11.4173 400.361 11.7261 399.974 11.8943C399.574 12.0624 398.968 12.0755 398.078 12.0755C398.026 11.7783 397.872 11.3274 397.73 11.0433C398.323 11.0824 398.944 11.0694 399.11 11.0694C399.291 11.0564 399.342 11.0056 399.342 10.8505V10.1532H395.072V12.1016H393.963V5.89561H400.479V10.8752H400.477ZM395.072 6.79874V7.59894H399.342V6.79874H395.072ZM399.342 9.28778V8.48758H395.072V9.28778H399.342Z" fill="white"/>
<path d="M407.173 3.63685H409.432V4.65596H408.231L408.786 4.79802C408.568 5.34019 408.334 5.907 408.128 6.32015H409.276V7.3523H407.173V8.56566H409.108V9.58476H407.173V12.0753H406.051V9.58476H404.026V8.56566H406.051V7.3523H403.91V6.32015H405.032C404.968 5.88091 404.774 5.27496 404.542 4.79802L405.071 4.65596H403.691V3.63685H406.052V2.51482H404.156V1.50877H406.052V0.29541H407.174V1.50877H408.955V2.51482H407.174V3.63685H407.173ZM407.199 6.20418C407.38 5.76494 407.612 5.11984 407.741 4.65596H405.509C405.741 5.15898 405.961 5.79103 406.012 6.20418L405.586 6.32015H407.637L407.199 6.20418ZM415.211 5.41702C414.953 6.9522 414.463 8.3975 413.753 9.6239C414.308 10.269 414.953 10.7981 415.675 11.1591C415.417 11.378 415.056 11.8172 414.875 12.1144C414.217 11.7273 413.624 11.2113 413.095 10.5923C412.643 11.1852 412.115 11.7013 411.52 12.1274C411.365 11.9086 411.107 11.6244 410.862 11.4302V12.1144H409.778V0.837579H414.913V3.27589C414.913 3.8311 414.797 4.13988 414.344 4.30804C413.918 4.4762 413.26 4.4762 412.293 4.4762C412.241 4.16597 412.087 3.72818 411.932 3.44405C412.667 3.47014 413.351 3.47014 413.546 3.4571C413.738 3.44405 413.791 3.40491 413.791 3.26429V1.89727H410.862V5.20102H414.282L414.475 5.14884L415.211 5.41702ZM410.864 11.2113C411.457 10.7981 411.961 10.269 412.399 9.66304C411.741 8.64394 411.238 7.45668 410.864 6.17954V11.2113ZM411.87 6.17809C412.154 7.05513 412.541 7.89447 413.018 8.65554C413.431 7.88143 413.728 7.04208 413.934 6.17809H411.87Z" fill="white"/>
<path d="M419.404 4.86357H427.856C428.127 4.86357 428.604 4.85053 428.94 4.79979V6.12912C428.63 6.11607 428.192 6.10302 427.856 6.10302H424.527C424.475 7.47004 424.217 8.60657 423.727 9.53579C423.263 10.4128 422.282 11.3681 421.16 11.948L419.972 11.071C420.928 10.6839 421.856 9.9359 422.36 9.14874C422.915 8.28475 423.082 7.26419 423.134 6.10302H419.406C419.019 6.10302 418.592 6.11607 418.231 6.14216V4.79979C418.592 4.83748 419.004 4.86357 419.404 4.86357ZM421.005 1.61201H425.365C425.765 1.61201 426.255 1.58592 426.655 1.53518V2.86451C426.242 2.83841 425.778 2.81232 425.365 2.81232H421.018C420.578 2.81232 420.101 2.83841 419.754 2.86451V1.53518C420.141 1.58592 420.578 1.61201 421.005 1.61201ZM428.411 2.32089L427.56 2.68185C427.302 2.16578 426.889 1.39166 426.541 0.901682L427.367 0.553766C427.688 1.01765 428.153 1.81786 428.411 2.32089ZM429.894 1.75408L429.055 2.12809C428.783 1.57287 428.357 0.837897 427.996 0.347916L428.823 0C429.172 0.488532 429.662 1.28874 429.894 1.75408Z" fill="white"/>
<path d="M434.912 11.9984L433.815 10.9793C436.227 10.0892 437.363 8.9788 437.363 5.56053V5.04446H433.97V6.97974C433.97 7.49581 434.009 8.05103 434.022 8.23079H432.59C432.616 8.04958 432.653 7.50886 432.653 6.97974V5.04301H431.389C430.783 5.04301 430.254 5.0691 430.047 5.08215V3.68903C430.215 3.71513 430.795 3.79196 431.389 3.79196H432.653V2.29447C432.653 1.98425 432.627 1.59719 432.59 1.26232H434.035C434.009 1.44353 433.97 1.83058 433.97 2.30752V3.79196H437.363V2.29447C437.363 1.7784 437.324 1.3522 437.299 1.17244H438.758C438.745 1.35365 438.693 1.7784 438.693 2.29447V3.79051H439.893C440.525 3.79051 440.938 3.75137 441.183 3.71368V5.0807C440.99 5.0546 440.525 5.04156 439.906 5.04156H438.693V5.4808C438.693 8.81065 437.932 10.656 434.912 11.9984ZM440.589 2.93956L439.841 3.1976C439.648 2.64239 439.388 1.90741 439.13 1.40439L439.865 1.17244C440.099 1.64938 440.422 2.43654 440.589 2.93956ZM441.905 2.54091L441.157 2.7859C440.964 2.21764 440.693 1.49571 440.435 0.992686L441.17 0.760742C441.415 1.24927 441.738 2.02484 441.905 2.54091Z" fill="white"/>
<path d="M448.33 3.90825C449.673 3.08195 451.04 1.88309 451.917 0.837891L453.001 1.87004C452.021 2.86305 450.808 3.85751 449.53 4.69541V10.0504C449.53 10.5795 449.557 11.2884 449.62 11.5725H448.02C448.059 11.2884 448.097 10.5795 448.097 10.0504V5.5594C446.741 6.29437 445.039 7.04384 443.336 7.55991L442.704 6.28277C444.963 5.67537 446.898 4.79833 448.33 3.90825Z" fill="white"/>
<path d="M460.729 8.30786C462.806 7.03072 464.42 5.09544 465.206 3.44429L465.993 4.85045C465.064 6.52769 463.476 8.28321 461.464 9.52121C460.161 10.3214 458.523 11.0825 456.522 11.4434L455.658 10.1141C457.814 9.7923 459.491 9.06892 460.729 8.30786ZM460.291 4.17926L459.272 5.22445C458.601 4.54022 457.002 3.13406 456.047 2.48897L456.989 1.48291C457.891 2.08886 459.568 3.43124 460.291 4.17926Z" fill="white"/>
<path d="M469.863 2.19158H476.276C476.624 2.19158 477.077 2.17853 477.308 2.16548C477.295 2.44961 477.282 2.9135 477.282 3.24982V9.92111C477.282 10.3734 477.308 11.0054 477.335 11.2881H475.863C475.863 11.1069 475.876 10.8619 475.876 10.5908H469.76C469.231 10.5908 468.586 10.6169 468.212 10.643V9.18469C468.586 9.21078 469.154 9.24992 469.708 9.24992H475.888V3.49481H469.863C469.36 3.49481 468.702 3.52091 468.367 3.547V2.11475C468.818 2.15389 469.438 2.19158 469.863 2.19158Z" fill="white"/>
<path d="M481.034 5.41716H486.648C487.144 5.41716 487.546 5.36498 487.804 5.34033V6.94075C487.576 6.9277 487.102 6.87696 486.648 6.87696H481.034C480.465 6.87696 479.846 6.90305 479.496 6.94075V5.34033C479.836 5.36643 480.476 5.41716 481.034 5.41716Z" fill="white"/>
<path d="M498.441 3.08218C497.989 4.14042 497.228 5.59877 496.325 6.75994C497.654 7.89502 499.215 9.55921 500.016 10.5406L498.881 11.5467C498.03 10.3855 496.739 8.96631 495.461 7.77904C494.081 9.25044 492.338 10.6305 490.493 11.4945L489.448 10.3971C491.538 9.5969 493.473 8.04868 494.751 6.61643C495.628 5.63646 496.493 4.21726 496.802 3.20975H492.067C491.564 3.20975 490.867 3.27498 490.661 3.28658V1.83113C490.919 1.87027 491.667 1.92101 492.067 1.92101H496.854C497.331 1.92101 497.757 1.86882 497.976 1.79199L498.815 2.41099C498.725 2.54146 498.531 2.86328 498.441 3.08218Z" fill="white"/>
<path d="M219.619 25.8428V26.9271H208.394V25.8428H213.362V23.5335H209.736V22.4622H218.523V23.5335H214.587V25.8428H219.619ZM213.194 17.7914C212.936 20.0109 212.214 21.3532 209.078 22.0491C208.975 21.7388 208.665 21.2749 208.433 21.03C211.208 20.5139 211.749 19.5209 211.943 17.7914H209.776V19.4165H208.601V16.7071H213.362V15.4561H214.588V16.7071H219.452V19.1454H218.226V17.79H215.98V20.1254C215.98 20.4486 216.057 20.4994 216.483 20.4994H217.915C218.263 20.4994 218.342 20.3573 218.379 19.5194C218.624 19.6745 219.101 19.8543 219.411 19.9326C219.295 21.1967 218.972 21.5199 218.044 21.5199H216.328C215.077 21.5199 214.793 21.2097 214.793 20.1399V17.7914H213.194V17.7914Z" fill="white"/>
<path d="M224.224 20.4617V27.2997H223.037V15.9707H227.798V20.4603H224.224V20.4617ZM224.224 16.8753V17.7654H226.663V16.8753H224.224ZM226.663 19.5716V18.6163H224.224V19.5716H226.663ZM233.695 25.8037C233.695 26.4879 233.553 26.875 233.089 27.0808C232.638 27.2751 231.928 27.2867 230.843 27.2867C230.791 26.9634 230.625 26.4473 230.469 26.1124H226.986V26.7575H225.889V21.3518H230.727V26.0748C231.36 26.1009 231.979 26.0878 232.186 26.0878C232.418 26.0748 232.483 26.011 232.483 25.7906V20.4878H228.818V15.9722H233.695V25.8037V25.8037ZM226.986 22.2549V23.261H229.605V22.2549H226.986ZM229.605 25.2108V24.1395H226.986V25.2108H229.605ZM229.966 16.8753V17.7654H232.483V16.8753H229.966ZM232.482 19.5977V18.6178H229.965V19.5977H232.482Z" fill="white"/>
<path d="M238.391 20.0486H246.842C247.113 20.0486 247.59 20.0356 247.926 19.9848V21.3142C247.616 21.3011 247.178 21.2881 246.842 21.2881H243.514C243.461 22.6551 243.203 23.7916 242.713 24.7209C242.25 25.5979 241.268 26.5532 240.146 27.1331L238.959 26.256C239.914 25.869 240.842 25.121 241.346 24.3338C241.902 23.4698 242.068 22.4493 242.12 21.2881H238.392C238.005 21.2881 237.579 21.3011 237.218 21.3272V19.9848C237.579 20.024 237.99 20.0486 238.391 20.0486ZM239.991 16.7971H244.351C244.752 16.7971 245.242 16.771 245.642 16.7202V18.0496C245.229 18.0235 244.765 17.9974 244.351 17.9974H240.004C239.565 17.9974 239.088 18.0235 238.74 18.0496V16.7202C239.127 16.7724 239.565 16.7971 239.991 16.7971ZM247.397 17.5074L246.546 17.8684C246.288 17.3523 245.875 16.5782 245.527 16.0882L246.353 15.7403C246.674 16.2042 247.139 17.0044 247.397 17.5074ZM248.88 16.9391L248.041 17.3131C247.77 16.7579 247.344 16.023 246.983 15.533L247.809 15.1851C248.158 15.675 248.648 16.4752 248.88 16.9391Z" fill="white"/>
<path d="M254.673 27.184L253.576 26.1649C255.988 25.2748 257.124 24.1644 257.124 20.7461V20.23H253.731V22.1653C253.731 22.6814 253.77 23.2366 253.783 23.4163H252.351C252.377 23.2351 252.415 22.6944 252.415 22.1653V20.23H251.15C250.545 20.23 250.015 20.2561 249.808 20.2691V18.876C249.976 18.9021 250.556 18.979 251.15 18.979H252.415V17.4829C252.415 17.1727 252.388 16.7856 252.351 16.4508H253.796C253.77 16.632 253.731 17.019 253.731 17.496V18.9804H257.124V17.4844C257.124 16.9683 257.085 16.5421 257.061 16.3623H258.519C258.506 16.5435 258.454 16.9683 258.454 17.4844V18.9804H259.654C260.286 18.9804 260.699 18.9413 260.944 18.9036V20.2706C260.752 20.2445 260.286 20.2315 259.667 20.2315H258.454V20.6707C258.454 23.9976 257.693 25.843 254.673 27.184ZM260.35 18.1266L259.602 18.3846C259.409 17.8294 259.15 17.0944 258.892 16.5914L259.627 16.3594C259.86 16.8364 260.183 17.6235 260.35 18.1266ZM261.666 17.7265L260.918 17.9714C260.725 17.4032 260.454 16.6813 260.196 16.1782L260.931 15.9463C261.176 16.4363 261.5 17.2104 261.666 17.7265Z" fill="white"/>
<path d="M268.864 19.0948C270.207 18.2685 271.574 17.0696 272.451 16.0244L273.535 17.0566C272.555 18.0496 271.342 19.044 270.065 19.8819V25.2369C270.065 25.7661 270.091 26.4749 270.155 26.7591H268.554C268.593 26.4749 268.631 25.7661 268.631 25.2369V20.7459C267.276 21.4809 265.574 22.2304 263.87 22.7464L263.238 21.4693C265.497 20.8619 267.432 19.9849 268.864 19.0948Z" fill="white"/>
<path d="M282.038 23.4944C284.115 22.2172 285.728 20.282 286.514 18.6308L287.301 20.037C286.372 21.7142 284.785 23.4697 282.773 24.7077C281.469 25.5079 279.831 26.269 277.831 26.63L276.967 25.3006C279.122 24.9774 280.8 24.2554 282.038 23.4944ZM281.6 19.3658L280.581 20.411C279.91 19.7267 278.311 18.3206 277.355 17.6755L278.298 16.6694C279.199 17.2754 280.877 18.6163 281.6 19.3658Z" fill="white"/>
<path d="M291.946 17.3781H298.359C298.707 17.3781 299.16 17.3651 299.391 17.352C299.378 17.6361 299.365 18.1 299.365 18.4363V25.1076C299.365 25.5599 299.391 26.192 299.418 26.4747H297.946C297.946 26.2934 297.959 26.0485 297.959 25.7774H291.843C291.314 25.7774 290.669 25.8035 290.295 25.8296V24.3712C290.669 24.3973 291.237 24.4364 291.791 24.4364H297.971V18.6813H291.946C291.443 18.6813 290.785 18.7074 290.45 18.7335V17.3013C290.901 17.339 291.521 17.3781 291.946 17.3781Z" fill="white"/>
<path d="M303.892 20.6042H309.506C310.002 20.6042 310.403 20.552 310.661 20.5273V22.1278C310.434 22.1147 309.96 22.064 309.506 22.064H303.892C303.323 22.064 302.704 22.0901 302.354 22.1278V20.5273C302.694 20.552 303.333 20.6042 303.892 20.6042Z" fill="white"/>
<path d="M321.918 18.2682C321.466 19.3264 320.705 20.7848 319.801 21.9459C321.131 23.081 322.692 24.7452 323.492 25.7266L322.357 26.7327C321.506 25.5715 320.216 24.1523 318.937 22.965C317.557 24.4364 315.815 25.8165 313.97 26.6805L312.924 25.5831C315.015 24.7829 316.95 23.2347 318.227 21.8024C319.104 20.8225 319.97 19.4033 320.278 18.3958H315.544C315.041 18.3958 314.344 18.461 314.138 18.4726V17.0142C314.396 17.0534 315.144 17.1041 315.544 17.1041H320.331C320.807 17.1041 321.234 17.0519 321.453 16.9751L322.292 17.5941C322.202 17.726 322.008 18.0493 321.918 18.2682Z" fill="white"/>
<path d="M332.755 21.3779C332.755 22.2042 332.084 22.8739 331.259 22.8739C330.434 22.8739 329.763 22.2027 329.763 21.3779C329.763 20.553 330.434 19.8818 331.259 19.8818C332.084 19.8818 332.755 20.5516 332.755 21.3779Z" fill="white"/>
<path d="M347.748 17.8942C347.335 18.9655 346.716 20.3455 345.889 21.5589C347.037 22.5011 348.148 23.5072 349.038 24.4756L348.006 25.6106C347.077 24.5394 346.11 23.6232 345.038 22.6954C343.864 24.1277 342.316 25.599 340.097 26.7849L338.961 25.7658C341.155 24.7206 342.716 23.3782 343.98 21.8169C343.038 21.0558 341.697 20.0628 340.42 19.2757L341.271 18.2435C342.355 18.9278 343.787 19.9208 344.819 20.7079C345.581 19.5859 346.057 18.4378 346.433 17.3795C346.536 17.0954 346.652 16.6315 346.717 16.3213L348.213 16.8504C348.07 17.107 347.851 17.61 347.748 17.8942Z" fill="white"/>
<path d="M352.546 20.0486H360.997C361.268 20.0486 361.745 20.0356 362.082 19.9848V21.3142C361.771 21.3011 361.334 21.2881 360.997 21.2881H357.669C357.617 22.6551 357.359 23.7916 356.869 24.7209C356.405 25.5979 355.423 26.5532 354.301 27.1331L353.114 26.256C354.069 25.869 354.997 25.121 355.502 24.3338C356.057 23.4698 356.224 22.4493 356.276 21.2881H352.547C352.16 21.2881 351.734 21.3011 351.373 21.3272V19.9848C351.734 20.024 352.147 20.0486 352.546 20.0486ZM354.146 16.7971H358.507C358.907 16.7971 359.397 16.771 359.797 16.7202V18.0496C359.384 18.0235 358.92 17.9974 358.507 17.9974H354.159C353.72 17.9974 353.243 18.0235 352.895 18.0496V16.7202C353.282 16.7724 353.72 16.7971 354.146 16.7971ZM361.552 17.5074L360.702 17.8684C360.443 17.3523 360.03 16.5782 359.682 16.0882L360.509 15.7403C360.831 16.2042 361.294 17.0044 361.552 17.5074ZM363.037 16.9391L362.198 17.3131C361.926 16.7579 361.5 16.023 361.139 15.533L361.966 15.1851C362.314 15.675 362.804 16.4752 363.037 16.9391Z" fill="white"/>
<path d="M369.255 20.9011C370.481 20.14 371.719 19.0426 372.391 18.2178L373.397 19.1977C372.752 19.882 371.643 20.8112 370.493 21.5723V26.101C370.493 26.5141 370.506 27.1201 370.557 27.339H369.061C369.087 27.1201 369.113 26.5127 369.113 26.101V22.3841C368.004 22.9654 366.52 23.5974 365.229 24.0091L364.61 22.7958C366.301 22.4102 368.21 21.5331 369.255 20.9011Z" fill="white"/>
<path d="M387.627 18.1003C387.072 19.0426 385.847 20.6807 384.465 21.6607L383.394 20.7967C384.529 20.1385 385.653 18.8614 386.027 18.1264H378.957C378.441 18.1264 377.988 18.1656 377.435 18.2033V16.771C377.912 16.8348 378.441 16.887 378.957 16.887H386.169C386.453 16.887 387.033 16.8478 387.24 16.7971L388.053 17.5582C387.937 17.7002 387.73 17.9467 387.627 18.1003ZM379.254 26.862L378.067 25.8936C378.441 25.7646 378.893 25.5588 379.305 25.2616C381.15 24.0743 381.446 22.4493 381.446 20.3067C381.446 19.9588 381.433 19.6486 381.369 19.2745H382.84C382.84 22.6421 382.646 25.1195 379.254 26.862Z" fill="white"/>
<path d="M390.865 20.0486H399.316C399.587 20.0486 400.064 20.0356 400.4 19.9848V21.3142C400.09 21.3011 399.652 21.2881 399.316 21.2881H395.988C395.936 22.6551 395.678 23.7916 395.188 24.7209C394.724 25.5979 393.742 26.5532 392.62 27.1331L391.433 26.256C392.388 25.869 393.316 25.121 393.82 24.3338C394.376 23.4698 394.542 22.4493 394.595 21.2881H390.866C390.479 21.2881 390.053 21.3011 389.692 21.3272V19.9848C390.053 20.024 390.466 20.0486 390.865 20.0486ZM392.465 16.7971H396.826C397.226 16.7971 397.716 16.771 398.116 16.7202V18.0496C397.703 18.0235 397.239 17.9974 396.826 17.9974H392.478C392.039 17.9974 391.562 18.0235 391.214 18.0496V16.7202C391.601 16.7724 392.039 16.7971 392.465 16.7971ZM399.871 17.5074L399.02 17.8684C398.762 17.3523 398.349 16.5782 398.001 16.0882L398.828 15.7403C399.149 16.2042 399.613 17.0044 399.871 17.5074ZM401.356 16.9391L400.516 17.3131C400.245 16.7579 399.819 16.023 399.458 15.533L400.284 15.1851C400.632 15.675 401.122 16.4752 401.356 16.9391Z" fill="white"/>
<path d="M406.889 27.184L405.792 26.1649C408.204 25.2748 409.34 24.1644 409.34 20.7461V20.23H405.947V22.1653C405.947 22.6814 405.986 23.2366 405.999 23.4163H404.567C404.593 23.2351 404.63 22.6944 404.63 22.1653V20.23H403.366C402.76 20.23 402.231 20.2561 402.024 20.2691V18.876C402.192 18.9021 402.772 18.979 403.366 18.979H404.63V17.4829C404.63 17.1727 404.604 16.7856 404.567 16.4508H406.012C405.986 16.632 405.947 17.019 405.947 17.496V18.9804H409.34V17.4844C409.34 16.9683 409.301 16.5421 409.277 16.3623H410.735C410.722 16.5435 410.67 16.9683 410.67 17.4844V18.9804H411.87C412.502 18.9804 412.915 18.9413 413.16 18.9036V20.2706C412.967 20.2445 412.502 20.2315 411.883 20.2315H410.67V20.6707C410.67 23.9976 409.909 25.843 406.889 27.184ZM412.567 18.1266L411.819 18.3846C411.626 17.8294 411.367 17.0944 411.109 16.5914L411.844 16.3594C412.076 16.8364 412.399 17.6235 412.567 18.1266ZM413.882 17.7265L413.134 17.9714C412.941 17.4032 412.67 16.6813 412.412 16.1782L413.147 15.9463C413.392 16.4363 413.715 17.2104 413.882 17.7265Z" fill="white"/>
<path d="M420.823 19.0948C422.166 18.2685 423.533 17.0696 424.41 16.0244L425.494 17.0566C424.514 18.0496 423.301 19.044 422.024 19.8819V25.2369C422.024 25.7661 422.05 26.4749 422.114 26.7591H420.513C420.552 26.4749 420.59 25.7661 420.59 25.2369V20.7459C419.235 21.4809 417.533 22.2304 415.829 22.7464L415.197 21.4693C417.456 20.8619 419.393 19.9849 420.823 19.0948Z" fill="white"/>
<path d="M433.738 23.4944C435.815 22.2172 437.429 20.282 438.214 18.6308L439.002 20.037C438.072 21.7142 436.485 23.4697 434.473 24.7077C433.17 25.5079 431.531 26.269 429.531 26.63L428.667 25.3006C430.823 24.9774 432.5 24.2554 433.738 23.4944ZM433.3 19.3658L432.281 20.411C431.61 19.7267 430.011 18.3206 429.055 17.6755L429.998 16.6694C430.899 17.2754 432.577 18.6163 433.3 19.3658Z" fill="white"/>
<path d="M443.388 17.3781H449.801C450.149 17.3781 450.601 17.3651 450.833 17.352C450.82 17.6361 450.807 18.1 450.807 18.4363V25.1076C450.807 25.5599 450.833 26.192 450.859 26.4747H449.388C449.388 26.2934 449.401 26.0485 449.401 25.7774H443.285C442.756 25.7774 442.111 25.8035 441.737 25.8296V24.3712C442.111 24.3973 442.679 24.4364 443.233 24.4364H449.413V18.6813H443.388C442.885 18.6813 442.227 18.7074 441.892 18.7335V17.3013C442.343 17.339 442.963 17.3781 443.388 17.3781Z" fill="white"/>
<path d="M455.075 20.6042H460.69C461.185 20.6042 461.587 20.552 461.845 20.5273V22.1278C461.617 22.1147 461.143 22.064 460.69 22.064H455.075C454.507 22.064 453.888 22.0901 453.537 22.1278V20.5273C453.878 20.552 454.517 20.6042 455.075 20.6042Z" fill="white"/>
<path d="M472.896 18.2682C472.444 19.3264 471.683 20.7848 470.779 21.9459C472.109 23.081 473.67 24.7452 474.47 25.7266L473.335 26.7327C472.484 25.5715 471.194 24.1523 469.915 22.965C468.535 24.4364 466.793 25.8165 464.948 26.6805L463.902 25.5831C465.993 24.7829 467.928 23.2347 469.205 21.8024C470.082 20.8225 470.948 19.4033 471.256 18.3958H466.522C466.019 18.3958 465.322 18.461 465.116 18.4726V17.0142C465.374 17.0534 466.122 17.1041 466.522 17.1041H471.309C471.786 17.1041 472.212 17.0519 472.431 16.9751L473.27 17.5941C473.18 17.726 472.986 18.0493 472.896 18.2682Z" fill="white"/>
<path d="M226.683 119.46H205.003C204.854 113.734 207.93 109.678 216.264 104.619C221.175 101.516 222.466 99.9422 222.466 96.9356C222.466 93.5956 219.985 91.2573 216.463 91.2573C213.734 91.2573 211.651 92.5939 210.808 94.8365C210.51 95.7425 210.41 96.6022 210.41 98.9405H205.995V97.7474C205.995 94.5016 206.689 92.3069 208.326 90.5412C210.21 88.3943 213.088 87.2969 216.611 87.2969C222.861 87.2969 227.078 91.1616 227.078 96.8892C227.078 99.6566 226.087 101.995 224.152 103.952C222.812 105.288 222.167 105.765 217.305 108.772C213.882 110.967 211.103 113.688 210.509 115.501H226.681V119.46H226.683Z" fill="white"/>
<path d="M254.414 92.5461C256.051 95.457 256.745 98.8448 256.745 103.904C256.745 108.485 256.002 112.016 254.414 114.833C252.53 118.125 249.156 120.082 245.337 120.082C241.566 120.082 238.193 118.125 236.308 114.833C234.721 111.922 233.977 108.534 233.977 103.666C233.977 98.8463 234.721 95.3149 236.308 92.5475C238.243 89.2554 241.566 87.2983 245.337 87.2983C249.206 87.2969 252.528 89.2046 254.414 92.5461ZM239.979 94.9322C239.036 97.0791 238.59 99.7523 238.59 103.665C238.59 107.577 239.036 110.298 239.979 112.445C241.021 114.688 243.055 116.12 245.386 116.12C247.668 116.12 249.751 114.688 250.744 112.445C251.686 110.298 252.132 107.625 252.132 103.856C252.132 99.7523 251.735 97.0327 250.744 94.9322C249.701 92.6418 247.618 91.2573 245.337 91.2573C243.055 91.2573 241.019 92.6418 239.979 94.9322Z" fill="white"/>
<path d="M285.072 119.46H263.392C263.243 113.734 266.319 109.678 274.653 104.619C279.565 101.516 280.855 99.9422 280.855 96.9356C280.855 93.5956 278.374 91.2573 274.852 91.2573C272.124 91.2573 270.04 92.5939 269.197 94.8365C268.9 95.7425 268.8 96.6022 268.8 98.9405H264.384V97.7474C264.384 94.5016 265.078 92.3069 266.715 90.5412C268.6 88.3943 271.477 87.2969 275 87.2969C281.251 87.2969 285.468 91.1616 285.468 96.8892C285.468 99.6566 284.476 101.995 282.541 103.952C281.201 105.288 280.556 105.765 275.694 108.772C272.271 110.967 269.493 113.688 268.898 115.501H285.07V119.46H285.072Z" fill="white"/>
<path d="M314.489 119.46H292.809C292.66 113.734 295.736 109.678 304.07 104.619C308.982 101.516 310.272 99.9422 310.272 96.9356C310.272 93.5956 307.791 91.2573 304.269 91.2573C301.541 91.2573 299.457 92.5939 298.614 94.8365C298.317 95.7425 298.217 96.6022 298.217 98.9405H293.801V97.7474C293.801 94.5016 294.495 92.3069 296.132 90.5412C298.017 88.3943 300.894 87.2969 304.417 87.2969C310.668 87.2969 314.885 91.1616 314.885 96.8892C314.885 99.6566 313.893 101.995 311.958 103.952C310.618 105.288 309.973 105.765 305.111 108.772C301.688 110.967 298.909 113.688 298.315 115.501H314.487V119.46H314.489Z" fill="white"/>
<path d="M328.479 118.824H323.88V114.528H328.479V118.824Z" fill="white"/>
<path d="M371.202 119.305H340.635C340.425 111.23 344.762 105.512 356.513 98.3793C363.438 94.0057 365.256 91.7848 365.256 87.546C365.256 82.8361 361.758 79.5396 356.793 79.5396C352.946 79.5396 350.009 81.4242 348.818 84.5858C348.398 85.8644 348.259 87.0749 348.259 90.3728H342.034V88.6913C342.034 84.1162 343.014 81.0212 345.322 78.5307C347.981 75.5023 352.037 73.9556 357.003 73.9556C365.817 73.9556 371.762 79.4062 371.762 87.4808C371.762 91.3832 370.363 94.6812 367.635 97.4399C365.746 99.3244 364.837 99.9971 357.982 104.236C353.156 107.331 349.239 111.167 348.4 113.724H371.202V119.305V119.305Z" fill="white"/>
<path d="M384.807 118.824H380.209V114.528H384.807V118.824Z" fill="white"/>
<path d="M408.504 119.305H402.348V87.4113H391.788V83.0377C397.802 83.2392 402.628 79.9427 403.747 74.8965H408.504V119.305Z" fill="white"/>
<path d="M452.496 106.52C452.496 114.394 445.711 120.179 436.619 120.179C427.457 120.179 420.673 114.325 420.673 106.52C420.673 101.474 423.26 97.6385 428.576 94.8131C424.729 92.6604 422.772 89.4306 422.772 85.46C422.772 78.7988 428.576 73.9541 436.62 73.9541C444.594 73.9541 450.399 78.7988 450.399 85.46C450.399 89.4306 448.441 92.6604 444.595 94.8131C449.908 97.6385 452.496 101.474 452.496 106.52ZM427.176 106.184C427.176 111.164 431.023 114.595 436.618 114.595C442.073 114.595 445.99 111.164 445.99 106.319C445.99 101.273 442.213 97.8414 436.548 97.8414C431.023 97.84 427.176 101.271 427.176 106.184ZM429.065 85.9297C429.065 89.6973 432.142 92.3226 436.619 92.3226C440.955 92.3226 444.102 89.6987 444.102 85.9978C444.102 82.162 441.094 79.5382 436.548 79.5382C432.142 79.5382 429.065 82.162 429.065 85.9297Z" fill="white"/>
<path d="M476.947 102.455H465.936V108.658H475.179V111.14H465.936V120.57H462.989V99.8809H476.947V102.455Z" fill="white"/>
<path d="M483.523 105.59V107.947C484.113 107.079 484.361 106.737 484.764 106.366C485.447 105.652 486.533 105.187 487.431 105.187C487.989 105.187 488.517 105.312 489.013 105.56V108.134C488.423 108.009 488.113 107.979 487.71 107.979C485.415 107.979 483.646 110.026 483.646 112.693V120.572H480.792V105.59H483.523Z" fill="white"/>
<path d="M497.078 103.201H494.224V99.8809H497.078V103.201ZM497.078 120.57H494.224V105.59H497.078V120.57Z" fill="white"/>
<path d="M535.651 101.437H516.031V97.3066H535.651V101.437Z" fill="white"/>
<path d="M588.684 119.399H557.99C557.78 111.291 562.133 105.548 573.933 98.385C580.886 93.9926 582.712 91.763 582.712 87.5068C582.712 82.7766 579.201 79.4656 574.215 79.4656C570.351 79.4656 567.401 81.3574 566.208 84.5336C565.786 85.818 565.646 87.0343 565.646 90.3453H559.395V88.6564C559.395 84.061 560.378 80.953 562.696 78.4538C565.365 75.4124 569.438 73.8584 574.425 73.8584C583.275 73.8584 589.245 79.3308 589.245 87.4402C589.245 91.3586 587.84 94.6696 585.1 97.4398C583.204 99.3316 582.291 100.007 575.408 104.265C570.562 107.373 566.629 111.225 565.785 113.792H588.682V119.399H588.684Z" fill="white"/>
<path d="M626.609 81.2893C628.927 85.4106 629.91 90.209 629.91 97.3702C629.91 103.857 628.856 108.857 626.609 112.844C623.941 117.506 619.164 120.276 613.757 120.276C608.419 120.276 603.643 117.506 600.974 112.844C598.727 108.722 597.673 103.924 597.673 97.0325C597.673 90.2075 598.727 85.2077 600.974 81.2893C603.714 76.6272 608.419 73.8569 613.757 73.8569C619.235 73.8569 623.941 76.5591 626.609 81.2893ZM606.171 84.6684C604.836 87.7098 604.204 91.4934 604.204 97.0339C604.204 102.574 604.836 106.426 606.171 109.466C607.645 112.642 610.525 114.669 613.826 114.669C617.058 114.669 620.008 112.642 621.412 109.466C622.747 106.425 623.379 102.641 623.379 97.3036C623.379 91.4919 622.817 87.6417 621.412 84.6684C619.938 81.4256 616.988 79.4656 613.757 79.4656C610.525 79.4656 607.646 81.4241 606.171 84.6684Z" fill="white"/>
<path d="M652.994 106.271C652.684 103.417 650.978 102.022 647.845 102.022C645.085 102.022 643.316 103.201 643.316 105C643.316 106.519 644.402 107.419 647.039 108.009L650.389 108.754C652.839 109.312 654.08 109.84 655.073 110.739C656.159 111.7 656.747 113.096 656.747 114.709C656.747 118.618 653.583 121.037 648.558 121.037C643.192 121.037 639.966 118.307 639.531 113.344H642.602C642.912 116.632 645.083 118.462 648.65 118.462C651.627 118.462 653.736 117.004 653.736 114.927C653.736 113.376 652.62 112.352 650.449 111.825L645.795 110.708C642.01 109.808 640.305 108.134 640.305 105.342C640.305 101.712 643.315 99.417 648.06 99.417C652.804 99.417 655.348 101.619 656.001 106.272H652.994V106.271Z" fill="white"/>
<path d="M670.984 120.57V118.864C669.495 120.445 668.285 120.973 666.238 120.973C664.469 120.973 663.013 120.383 662.175 119.329C661.461 118.398 661.182 117.345 661.182 115.606V105.588H664.036V115.39C664.036 117.437 664.967 118.43 666.921 118.43C669.371 118.43 670.86 117.004 670.86 114.677V105.589H673.714V120.571H670.984V120.57Z" fill="white"/>
<path d="M680.259 105.59V107.296C681.748 105.715 682.958 105.187 685.005 105.187C686.774 105.187 688.231 105.777 689.069 106.831C689.782 107.762 690.062 108.815 690.062 110.554V120.572H687.207V110.77C687.207 108.723 686.276 107.73 684.322 107.73C681.872 107.73 680.384 109.156 680.384 111.483V120.571H677.529V105.59H680.259Z" fill="white"/>
</svg>
