<svg width="678" height="83" viewBox="0 0 678 83" fill="none" xmlns="http://www.w3.org/2000/svg">
<path d="M14.531 23.274H21.023V30.422C19.5033 30.7306 17.9567 30.8877 16.406 30.891C15.1435 30.9671 13.881 30.741 12.7234 30.2315C11.5658 29.7219 10.5465 28.9435 9.75 27.961C8.234 25.993 7.476 23.1493 7.476 19.43C7.31481 16.3379 8.32777 13.299 10.312 10.922C11.2609 9.8733 12.4288 9.04622 13.7331 8.49942C15.0374 7.95262 16.446 7.69949 17.859 7.75799C20.5719 7.76028 23.2461 8.40269 25.664 9.63299L28.078 3.82099C24.8684 2.4261 21.4056 1.70814 17.906 1.71199C12.2967 1.71199 7.906 3.25866 4.734 6.35199C1.578 9.44599 0 13.7583 0 19.289C0 24.977 1.35933 29.3437 4.078 32.389C6.81133 35.4203 10.7643 36.936 15.937 36.936C17.9297 36.9386 19.9198 36.7898 21.89 36.491C24.0075 36.1709 26.0936 35.6691 28.125 34.991V17.227H14.531V23.274Z" fill="#FF5C52"/>
<path d="M46.5161 11.133C45.1441 12.0202 44.0161 13.2369 43.2351 14.672H42.8831L41.8291 10.266H36.4141V36.466H43.5631V23.133C43.5103 22.2245 43.6525 21.3153 43.9803 20.4663C44.308 19.6174 44.8136 18.8484 45.4631 18.211C46.9553 16.9654 48.8668 16.3365 50.8071 16.453C51.5173 16.4391 52.2263 16.5181 52.9161 16.688L53.4551 9.98802C52.66 9.83374 51.8509 9.76335 51.0411 9.77802C49.4321 9.77331 47.858 10.2463 46.5181 11.137" fill="#FF5C52"/>
<path d="M77.7004 12.023C75.8257 10.4897 73.1304 9.72301 69.6144 9.72301C66.1274 9.67896 62.6829 10.4918 59.5834 12.09L61.9504 16.918C64.2537 15.7815 66.7676 15.1346 69.3334 15.018C72.0527 15.018 73.4121 16.3463 73.4114 19.003V20.151L68.8644 20.292C64.9424 20.432 62.0051 21.1653 60.0524 22.492C59.0788 23.1772 58.2993 24.1029 57.7898 25.179C57.2804 26.255 57.0584 27.4447 57.1454 28.632C57.0731 29.7481 57.2268 30.8673 57.5975 31.9225C57.9681 32.9778 58.548 33.9473 59.3024 34.773C60.0991 35.5137 61.0367 36.0863 62.0595 36.4568C63.0823 36.8272 64.1692 36.9878 65.2554 36.929C66.954 36.9934 68.647 36.6979 70.2234 36.062C71.6943 35.3107 72.9702 34.2274 73.9504 32.898H74.1384L75.5204 36.46H80.5134V19.008C80.5134 15.8833 79.5757 13.555 77.7004 12.023V12.023ZM73.4144 26.484C73.446 27.1873 73.3287 27.8894 73.0702 28.5442C72.8117 29.199 72.4179 29.7919 71.9144 30.284C71.3819 30.773 70.7575 31.1513 70.0775 31.3968C69.3975 31.6423 68.6755 31.7501 67.9534 31.714C65.6414 31.714 64.4851 30.706 64.4844 28.69C64.4447 28.0795 64.5643 27.4691 64.8314 26.9186C65.0986 26.3682 65.5042 25.8966 66.0084 25.55C67.4227 24.7568 69.0278 24.3673 70.6484 24.424L73.4144 24.331V26.484Z" fill="#FF5C52"/>
<path d="M104.3 8.39C104.322 10.145 104.503 11.8944 104.839 13.617H104.6C103.784 12.3759 102.659 11.3686 101.336 10.6946C100.012 10.0205 98.5361 9.7029 97.0526 9.773C95.6164 9.71903 94.1891 10.0203 92.8973 10.65C91.6054 11.2797 90.4888 12.2184 89.6466 13.383C87.8646 15.773 86.9739 19.1167 86.9746 23.414C86.9746 27.648 87.8496 30.9603 89.5996 33.351C90.4189 34.5036 91.5117 35.4346 92.7797 36.0605C94.0478 36.6864 95.4514 36.9876 96.8646 36.937C98.3366 37.0219 99.8042 36.7074 101.112 36.0266C102.42 35.3459 103.52 34.3244 104.295 33.07H104.6L105.983 36.47H111.467V0H104.3V8.39ZM104.792 24.234C104.714 26.7813 104.245 28.586 103.386 29.648C102.888 30.2074 102.266 30.6428 101.57 30.9196C100.875 31.1963 100.124 31.3067 99.3776 31.242C98.6296 31.2754 97.8856 31.1162 97.2167 30.7796C96.5479 30.4431 95.9766 29.9405 95.5576 29.32C94.5493 27.5566 94.0845 25.5347 94.2216 23.508C94.0933 21.4623 94.5483 19.4223 95.5336 17.625C95.9189 16.9858 96.4669 16.4602 97.1217 16.102C97.7764 15.7438 98.5145 15.5657 99.2606 15.586C100.061 15.5133 100.866 15.6426 101.603 15.962C102.34 16.2813 102.986 16.7806 103.48 17.414C104.355 18.6327 104.792 20.6483 104.792 23.461V24.234Z" fill="#FF5C52"/>
<path d="M136.516 22.594C136.516 25.688 136.07 27.9066 135.18 29.25C134.691 29.9286 134.034 30.4689 133.274 30.818C132.514 31.1671 131.677 31.3132 130.844 31.242C130.234 31.2933 129.62 31.1916 129.06 30.9461C128.499 30.7006 128.009 30.319 127.633 29.836C126.874 28.5485 126.523 27.0618 126.625 25.571V10.271H119.477V27.352C119.477 30.446 120.258 32.821 121.821 34.477C123.383 36.117 125.703 36.9373 128.782 36.938C130.434 36.9671 132.073 36.6311 133.582 35.954C134.919 35.3428 136.05 34.3575 136.84 33.117H137.215L138.176 36.469H143.66V10.269H136.512L136.516 22.594Z" fill="#FF5C52"/>
<path d="M170.657 12.023C168.783 10.4897 166.087 9.72301 162.571 9.72301C159.084 9.67896 155.64 10.4918 152.54 12.09L154.907 16.918C157.211 15.7815 159.725 15.1346 162.29 15.018C165.008 15.018 166.368 16.3463 166.368 19.003V20.151L161.821 20.292C157.899 20.432 154.962 21.1653 153.008 22.492C152.035 23.1775 151.256 24.1033 150.747 25.1792C150.237 26.2552 150.015 27.4448 150.102 28.632C150.03 29.748 150.184 30.8671 150.554 31.9223C150.925 32.9775 151.504 33.9471 152.258 34.773C153.055 35.5137 153.993 36.0863 155.016 36.4568C156.038 36.8272 157.125 36.9878 158.211 36.929C159.91 36.9933 161.604 36.6979 163.18 36.062C164.651 35.3104 165.927 34.2272 166.907 32.898H167.094L168.477 36.46H173.469V19.008C173.469 15.8833 172.532 13.555 170.657 12.023ZM166.368 26.484C166.4 27.1873 166.283 27.8894 166.024 28.5442C165.766 29.199 165.372 29.7919 164.868 30.284C164.336 30.773 163.711 31.1512 163.031 31.3967C162.351 31.6422 161.629 31.7501 160.907 31.714C158.594 31.714 157.438 30.706 157.438 28.69C157.399 28.0796 157.518 27.4693 157.785 26.9188C158.052 26.3684 158.457 25.8968 158.961 25.55C160.376 24.7569 161.981 24.3674 163.602 24.424L166.368 24.331V26.484Z" fill="#FF5C52"/>
<path d="M190.29 30.516C189.992 30.2266 189.761 29.8748 189.615 29.4857C189.469 29.0967 189.412 28.6801 189.446 28.266V15.633H196.782V10.266H189.446V4.68799H184.876L182.813 10.219L178.876 12.61V15.633H182.3V28.266C182.3 31.156 182.948 33.3277 184.245 34.781C185.557 36.219 187.643 36.938 190.503 36.938C192.75 37.0022 194.986 36.5934 197.065 35.738V30.418C195.614 30.9125 194.097 31.1889 192.565 31.238C191.745 31.2765 190.938 31.0188 190.292 30.512" fill="#FF5C52"/>
<path d="M206.641 0C204.048 0 202.751 1.164 202.751 3.492C202.751 5.836 204.048 7.008 206.641 7.008C207.692 7.09001 208.733 6.76249 209.548 6.094C209.885 5.75359 210.146 5.34629 210.316 4.89842C210.485 4.45056 210.559 3.9721 210.532 3.494C210.532 1.16467 209.235 0 206.641 0Z" fill="#FF5C52"/>
<path d="M210.204 10.266H203.055V36.469H210.204V10.266Z" fill="#FF5C52"/>
<path d="M236.235 11.415C234.199 10.2922 231.903 9.72611 229.579 9.77398C225.532 9.77398 222.391 10.9616 220.157 13.337C217.922 15.7123 216.805 19.0403 216.806 23.321C216.75 25.8148 217.279 28.287 218.352 30.539C219.319 32.5327 220.862 34.1902 222.782 35.297C224.818 36.4197 227.113 36.9858 229.438 36.938C233.454 36.938 236.587 35.735 238.838 33.329C241.088 30.923 242.213 27.587 242.213 23.321C242.271 20.8327 241.741 18.3657 240.666 16.121C239.697 14.1407 238.153 12.4991 236.236 11.411L236.235 11.415ZM233.636 29.223C233.191 29.8874 232.575 30.4205 231.854 30.7668C231.133 31.113 230.333 31.2599 229.536 31.192C228.726 31.2584 227.913 31.1091 227.179 30.7592C226.446 30.4093 225.818 29.8713 225.36 29.2C224.404 27.393 223.966 25.3571 224.095 23.317C223.957 21.2913 224.396 19.268 225.36 17.481C225.864 16.8721 226.496 16.382 227.211 16.0456C227.926 15.7092 228.707 15.5347 229.497 15.5347C230.287 15.5347 231.068 15.7092 231.783 16.0456C232.498 16.382 233.13 16.8721 233.634 17.481C234.594 19.2693 235.032 21.2915 234.899 23.317C235.029 25.3646 234.591 27.4083 233.634 29.223" fill="#FF5C52"/>
<path d="M263.673 9.77397C262.026 9.74582 260.394 10.0818 258.892 10.758C257.539 11.3655 256.397 12.3609 255.61 13.618H255.21L254.249 10.266H248.79V36.466H255.939V24.141C255.939 21.047 256.384 18.836 257.274 17.508C257.759 16.8237 258.414 16.2779 259.174 15.9245C259.935 15.5711 260.774 15.4224 261.61 15.493C262.222 15.4421 262.837 15.5464 263.399 15.7962C263.96 16.0459 264.449 16.4331 264.821 16.922C265.582 18.2001 265.933 19.6803 265.829 21.164V36.469H272.978V19.383C272.978 16.2743 272.189 13.8993 270.61 12.258C269.032 10.602 266.72 9.77397 263.673 9.77397Z" fill="#FF5C52"/>
<path d="M325.3 20.906C325.019 22.0313 324.707 23.508 324.363 25.336C324.019 27.148 323.769 28.6637 323.613 29.883C323.441 28.6163 323.191 27.1007 322.863 25.336C322.535 23.5713 322.261 22.2593 322.04 21.4L317.048 2.20001H310.181L305.189 21.4C304.893 22.4313 304.572 23.8847 304.228 25.76C303.9 27.6193 303.689 28.9943 303.595 29.885C303.251 27.3517 302.697 24.3593 301.931 20.908L297.548 2.20001H290.4L299.142 36.466H307.392L312.009 18.513C312.209 17.713 312.498 16.3847 312.876 14.528C313.252 12.6533 313.485 11.294 313.576 10.45C313.639 11.138 313.872 12.4897 314.276 14.505C314.698 16.505 314.994 17.825 315.166 18.465L319.807 36.465H328.08L336.806 2.20001H329.658L325.3 20.906Z" fill="#FF5C52"/>
<path d="M359.064 11.415C357.028 10.2922 354.732 9.7262 352.408 9.77397C348.361 9.77397 345.221 10.9616 342.986 13.337C340.751 15.7123 339.634 19.0403 339.634 23.321C339.578 25.8148 340.108 28.2871 341.181 30.539C342.148 32.5329 343.691 34.1905 345.611 35.297C347.647 36.4198 349.943 36.9858 352.267 36.938C356.283 36.938 359.416 35.735 361.667 33.329C363.918 30.923 365.043 27.587 365.042 23.321C365.101 20.8327 364.571 18.3658 363.496 16.121C362.527 14.1409 360.983 12.4994 359.066 11.411L359.064 11.415ZM356.466 29.223C356.021 29.8876 355.406 30.4208 354.685 30.7671C353.964 31.1133 353.163 31.2601 352.366 31.192C351.557 31.2577 350.744 31.108 350.011 30.7582C349.279 30.4083 348.652 29.8707 348.194 29.2C347.237 27.3933 346.799 25.3572 346.928 23.317C346.79 21.2911 347.229 19.2677 348.194 17.481C348.698 16.8722 349.33 16.382 350.045 16.0456C350.76 15.7092 351.54 15.5348 352.33 15.5348C353.121 15.5348 353.901 15.7092 354.616 16.0456C355.331 16.382 355.963 16.8722 356.467 17.481C357.428 19.269 357.867 21.2914 357.733 23.317C357.863 25.3647 357.425 27.4086 356.467 29.223" fill="#FF5C52"/>
<path d="M381.72 11.133C380.348 12.0205 379.22 13.2371 378.439 14.672H378.087L377.033 10.266H371.619V36.466H378.767V23.133C378.714 22.2245 378.856 21.3152 379.184 20.4662C379.512 19.6172 380.017 18.8483 380.667 18.211C382.159 16.9652 384.07 16.3364 386.01 16.453C386.721 16.4391 387.43 16.5181 388.12 16.688L388.659 9.988C387.864 9.83381 387.055 9.76342 386.245 9.778C384.636 9.77327 383.061 10.2462 381.721 11.137" fill="#FF5C52"/>
<path d="M419.47 10.266H411.408L404.072 18.235L400.955 22.219H400.861L401.236 16.266V0H394.088V36.469H401.236V28.313L404.306 25.852L411.853 36.469H420.103L409.064 21.633L419.47 10.266Z" fill="#FF5C52"/>
<path d="M440.017 22.852C438.617 21.8976 437.106 21.1185 435.517 20.532C433.967 19.9678 432.469 19.2699 431.041 18.446C430.746 18.2762 430.499 18.0346 430.323 17.7436C430.147 17.4527 430.047 17.1219 430.033 16.782C430.033 15.6413 431.087 15.071 433.197 15.071C434.382 15.0702 435.559 15.252 436.689 15.61C437.829 15.9693 439.056 16.4303 440.369 16.993L442.525 11.837C439.642 10.4845 436.498 9.78032 433.314 9.77399C430.002 9.77399 427.439 10.4147 425.627 11.696C424.755 12.2906 424.05 13.0978 423.577 14.0412C423.105 14.9846 422.881 16.0329 422.927 17.087C422.893 18.2671 423.108 19.4411 423.56 20.532C424.04 21.5057 424.748 22.3497 425.623 22.993C427.01 23.9456 428.505 24.7323 430.076 25.337C431.482 25.9303 432.607 26.4537 433.451 26.907C434.102 27.2119 434.703 27.6149 435.232 28.102C435.406 28.2816 435.541 28.4949 435.63 28.7288C435.719 28.9626 435.759 29.2121 435.748 29.462C435.748 30.962 434.451 31.712 431.857 31.712C430.368 31.6805 428.888 31.4679 427.451 31.079C425.912 30.6983 424.413 30.1723 422.974 29.508V35.415C424.187 35.9272 425.452 36.3045 426.748 36.54C428.356 36.8286 429.989 36.9625 431.623 36.94C435.341 36.94 438.13 36.237 439.99 34.831C440.925 34.1154 441.67 33.1813 442.161 32.1107C442.651 31.04 442.871 29.8655 442.802 28.69C442.832 27.536 442.6 26.3903 442.123 25.339C441.629 24.3532 440.905 23.5009 440.013 22.854" fill="#FF5C52"/>
<path d="M462.76 36.469H482.494V30.469H470.025V21.633H481.625V15.68H470.025V8.15701H482.494V2.20001H462.76V36.469Z" fill="#FF5C52"/>
<path d="M513.143 10.266H505.033L499.9 18.61L494.814 10.266H486.704L495.142 23.086L486.26 36.469H494.369L499.901 27.492L505.408 36.469H513.541L504.612 23.086L513.143 10.266Z" fill="#FF5C52"/>
<path d="M521.784 0C519.19 0 517.893 1.164 517.893 3.492C517.893 5.836 519.19 7.008 521.784 7.008C522.834 7.08985 523.876 6.76234 524.69 6.094C525.027 5.75359 525.289 5.34629 525.458 4.89842C525.628 4.45056 525.701 3.9721 525.674 3.494C525.674 1.166 524.377 0.002 521.784 0.002" fill="#FF5C52"/>
<path d="M525.346 10.266H518.198V36.469H525.346V10.266Z" fill="#FF5C52"/>
<path d="M548.12 9.774C546.647 9.7011 545.182 10.0233 543.875 10.7073C542.569 11.3913 541.469 12.4121 540.69 13.664H540.409C540.596 11.2893 540.69 9.56267 540.69 8.484V0H533.541V36.469H539L540.2 33.586H540.692C541.593 34.6535 542.719 35.5077 543.99 36.0871C545.261 36.6665 546.645 36.9565 548.042 36.9364C549.439 36.9162 550.813 36.5863 552.067 35.9704C553.321 35.3545 554.422 34.4681 555.292 33.375C557.105 31.0003 558.011 27.649 558.011 23.321C558.011 19.117 557.136 15.812 555.386 13.406C554.577 12.2402 553.487 11.2965 552.218 10.6619C550.948 10.0272 549.539 9.72189 548.121 9.774H548.12ZM549.41 29.133C549.061 29.7508 548.553 30.2637 547.939 30.6183C547.325 30.9729 546.626 31.1562 545.917 31.149C545.152 31.2085 544.385 31.0717 543.688 30.7516C542.99 30.4316 542.386 29.9388 541.933 29.32C541.105 28.102 540.691 26.0867 540.691 23.274V22.5C540.722 20 541.144 18.211 541.957 17.133C542.419 16.5656 543.013 16.1195 543.687 15.8336C544.361 15.5476 545.095 15.4304 545.824 15.492C546.539 15.4761 547.247 15.6473 547.876 15.9886C548.504 16.3299 549.033 16.8295 549.41 17.438C550.404 19.1979 550.86 21.2106 550.722 23.227C550.848 25.2798 550.393 27.3265 549.41 29.133" fill="#FF5C52"/>
<path d="M568.174 0C565.581 0 564.284 1.164 564.284 3.492C564.284 5.836 565.581 7.008 568.174 7.008C569.225 7.09001 570.266 6.76249 571.081 6.094C571.418 5.75359 571.68 5.34629 571.849 4.89842C572.019 4.45056 572.092 3.9721 572.065 3.494C572.065 1.16467 570.768 0 568.174 0Z" fill="#FF5C52"/>
<path d="M571.737 10.266H564.588V36.469H571.737V10.266Z" fill="#FF5C52"/>
<path d="M595.425 22.852C594.025 21.898 592.514 21.1189 590.925 20.532C589.375 19.9678 587.877 19.2698 586.448 18.446C586.153 18.2762 585.906 18.0346 585.73 17.7436C585.554 17.4527 585.454 17.1219 585.44 16.782C585.44 15.6413 586.495 15.071 588.604 15.071C589.789 15.0702 590.967 15.252 592.096 15.61C593.237 15.9693 594.463 16.4303 595.776 16.993L597.932 11.837C595.049 10.4844 591.905 9.78023 588.721 9.77399C585.409 9.77399 582.847 10.4147 581.034 11.696C580.162 12.2906 579.457 13.0978 578.985 14.0412C578.512 14.9846 578.288 16.0329 578.334 17.087C578.3 18.267 578.515 19.4409 578.966 20.532C579.447 21.5057 580.154 22.3497 581.029 22.993C582.417 23.9456 583.911 24.7323 585.482 25.337C586.888 25.9303 588.013 26.4537 588.857 26.907C589.508 27.2116 590.109 27.6147 590.638 28.102C590.812 28.2816 590.948 28.4949 591.036 28.7288C591.125 28.9626 591.165 29.2121 591.154 29.462C591.154 30.962 589.857 31.712 587.263 31.712C585.774 31.6804 584.295 31.4679 582.857 31.079C581.318 30.6982 579.819 30.1721 578.38 29.508V35.415C579.593 35.9272 580.859 36.3045 582.154 36.54C583.763 36.8285 585.395 36.9624 587.029 36.94C590.748 36.94 593.537 36.237 595.396 34.831C596.331 34.1152 597.076 33.1811 597.567 32.1106C598.057 31.04 598.278 29.8655 598.209 28.69C598.239 27.5359 598.006 26.3902 597.529 25.339C597.036 24.3533 596.312 23.5009 595.42 22.854" fill="#FF5C52"/>
<path d="M608.05 0C605.456 0 604.159 1.164 604.159 3.492C604.159 5.836 605.456 7.008 608.05 7.008C609.101 7.09006 610.142 6.76253 610.956 6.094C611.293 5.75359 611.555 5.34629 611.724 4.89842C611.894 4.45056 611.967 3.9721 611.94 3.494C611.94 1.16467 610.644 0 608.05 0Z" fill="#FF5C52"/>
<path d="M611.612 10.266H604.464V36.469H611.612V10.266Z" fill="#FF5C52"/>
<path d="M637.643 11.415C635.607 10.292 633.311 9.72599 630.987 9.774C626.94 9.774 623.8 10.9617 621.565 13.337C619.33 15.7123 618.213 19.0403 618.214 23.321C618.158 25.8149 618.687 28.2873 619.761 30.539C620.727 32.534 622.27 34.1927 624.19 35.3C626.226 36.4229 628.522 36.9889 630.847 36.941C634.862 36.941 637.996 35.738 640.247 33.332C642.498 30.926 643.623 27.59 643.622 23.324C643.68 20.8357 643.15 18.3687 642.075 16.124C641.106 14.1438 639.562 12.5021 637.645 11.414L637.643 11.415ZM635.045 29.226C634.6 29.8906 633.985 30.4238 633.264 30.7701C632.543 31.1164 631.742 31.2631 630.945 31.195C630.136 31.2607 629.323 31.1111 628.591 30.7612C627.858 30.4113 627.231 29.8737 626.773 29.203C625.817 27.396 625.38 25.3601 625.508 23.32C625.371 21.2943 625.809 19.271 626.773 17.484C627.277 16.8752 627.909 16.385 628.624 16.0486C629.339 15.7122 630.12 15.5378 630.91 15.5378C631.7 15.5378 632.481 15.7122 633.196 16.0486C633.911 16.385 634.543 16.8752 635.047 17.484C636.008 19.2721 636.447 21.2944 636.313 23.32C636.443 25.3677 636.005 27.4116 635.047 29.226" fill="#FF5C52"/>
<path d="M672.019 12.258C670.44 10.602 668.128 9.77397 665.081 9.77397C663.434 9.74582 661.802 10.0818 660.3 10.758C658.948 11.3653 657.806 12.3603 657.019 13.617H656.619L655.658 10.266H650.2V36.466H657.349V24.141C657.349 21.047 657.795 18.836 658.685 17.508C659.17 16.8235 659.825 16.2774 660.585 15.9238C661.346 15.5702 662.185 15.4214 663.021 15.492C663.633 15.4413 664.249 15.5458 664.81 15.7958C665.371 16.0457 665.86 16.433 666.232 16.922C666.992 18.2004 667.343 19.6804 667.239 21.164V36.469H674.388V19.383C674.388 16.2743 673.599 13.8993 672.021 12.258" fill="#FF5C52"/>
<path d="M438.679 70.509H444.139V62.7H429.467V70.512H434.937C434.898 71.09 434.847 71.678 434.786 72.248H427.451V81.936H430.811V80.9H443.159V81.88H446.659V72.245H438.177C438.333 71.691 438.502 71.105 438.677 70.509H438.679ZM432.6 65.357H440.776V67.849H432.6V65.357ZM443.156 77.985H430.811V75.129H443.159L443.156 77.985Z" fill="white"/>
<path d="M438.455 55.7H434.9V58.024H424.82V65.08H428.1V61.08H445.516V65.08H448.96V58.021H438.46L438.455 55.7Z" fill="white"/>
<path d="M476.395 74.345C476.311 77.229 476.059 78.545 475.667 78.545C475.132 78.545 474.621 77.445 474.177 75.606C475.973 72.6252 477.271 69.3715 478.019 65.973L474.995 65.413C474.612 67.2174 474.061 68.982 473.349 70.684C473.064 68.312 472.849 65.558 472.739 62.641H478.1V59.589H476.5L477.732 58.861C476.973 57.6407 476.049 56.5304 474.988 55.561L472.7 56.9C473.501 57.7276 474.223 58.6274 474.857 59.588H472.657C472.64 58.288 472.642 56.979 472.668 55.668H469.504C469.513 56.968 469.531 58.282 469.562 59.588H461.076V68.912C461.112 70.7931 460.965 72.6732 460.637 74.526L460.208 72.44C459.49 72.702 458.767 72.964 458.052 73.222V65.469H460.236V62.389H458.052V56.089H454.944V62.389H452.48V65.469H454.944V74.321C453.858 74.694 452.86 75.021 452.032 75.269L453.068 78.601C455.262 77.728 457.878 76.681 460.379 75.623C459.976 77.2487 459.199 78.7576 458.108 80.029C459.012 80.6042 459.831 81.3014 460.544 82.101C462.278 80.0098 463.379 77.4678 463.72 74.773C464.091 75.614 464.324 76.5096 464.408 77.425C465.203 77.4671 466.001 77.4296 466.788 77.313C467.102 77.2739 467.404 77.1688 467.674 77.0048C467.944 76.8407 468.177 76.6213 468.356 76.361C468.916 75.549 469.028 73.061 469.112 66.761C469.14 66.425 469.14 65.669 469.14 65.669H464.156V62.641H469.656C469.757 66.7825 470.189 70.9093 470.947 74.982C469.561 76.9289 467.78 78.5626 465.721 79.777C466.563 80.4609 467.341 81.22 468.045 82.045C469.509 81.0523 470.835 79.8704 471.988 78.53C472.797 80.503 473.855 81.681 475.241 81.681C477.453 81.681 478.321 80.481 478.741 76.109C477.846 75.6862 477.046 75.0861 476.389 74.345H476.395ZM466.339 68.381C466.281 72.514 466.185 74.044 465.945 74.429C465.868 74.5412 465.763 74.6312 465.64 74.6901C465.517 74.7491 465.381 74.7749 465.245 74.765C464.739 74.7689 464.233 74.7425 463.73 74.686C464.028 72.7858 464.17 70.8643 464.153 68.941V68.381H466.339Z" fill="white"/>
<path d="M496.2 66.7H506.128V63.229H495.066C495.335 60.598 495.366 58.024 495.407 55.697H491.707C491.682 58.005 491.707 60.597 491.438 63.229H481.211V66.7H490.884C490.336 69.4455 489.114 72.0117 487.328 74.1673C485.542 76.3229 483.247 78.0002 480.651 79.048C481.667 79.836 482.53 80.8024 483.2 81.9C485.697 80.7639 487.924 79.1117 489.736 77.0523C491.548 74.993 492.904 72.5731 493.713 69.952C495.903 75.393 499.15 79.527 504.228 81.9C504.923 80.7296 505.771 79.6563 506.748 78.708C501.466 76.615 498.072 72.168 496.204 66.696" fill="white"/>
<path d="M513.047 63.117H530.967V67.009H534.3V60.149H530.559C531.342 59.166 532.164 58.049 532.928 56.957L529.288 55.893C528.614 57.384 527.802 58.8088 526.864 60.149H522.545L523.996 59.589C523.444 58.1425 522.7 56.7769 521.784 55.529L518.816 56.649C519.53 57.7493 520.126 58.9226 520.592 60.149H516.154L517.192 59.673C516.528 58.3151 515.659 57.0672 514.616 55.973L511.76 57.261C512.49 58.1642 513.14 59.1292 513.704 60.145H509.884V67.005H513.048L513.047 63.117Z" fill="white"/>
<path d="M530.043 66.729L527.915 65.105L527.215 65.273H514.559V68.157H524.087C523.382 68.7372 522.64 69.2717 521.867 69.757H520.327V71.549H509.547V74.657H520.327V78.297C520.327 78.689 520.159 78.829 519.599 78.829C519.039 78.829 516.939 78.829 515.147 78.773C515.748 79.7892 516.209 80.8816 516.519 82.021C518.363 82.1311 520.213 81.9625 522.007 81.521C523.351 81.021 523.771 80.149 523.771 78.413V74.653H534.607V71.545H524C526.23 70.2319 528.263 68.6106 530.04 66.729" fill="white"/>
<path d="M552.051 70.978C553.21 70.1473 554.25 69.1629 555.144 68.052C556.869 69.2205 558.503 70.5189 560.031 71.936L562.411 69.389C560.669 67.9338 558.821 66.6114 556.881 65.433C557.345 64.5652 557.734 63.6592 558.043 62.725L555.197 62.136H562.271V58.944H552.051V55.725H548.523V58.944H538.555V62.136H543.816C542.834 65.3261 540.741 68.0583 537.916 69.836C538.899 70.5169 539.826 71.275 540.688 72.103C542.335 70.8636 543.756 69.349 544.888 67.626C545.837 68.2953 546.728 69.044 547.551 69.864L549.539 67.483C548.524 66.6197 547.449 65.8288 546.323 65.116C546.697 64.3491 547.023 63.5595 547.299 62.752L544.615 62.135H554.622C554.134 63.6595 553.349 65.0726 552.313 66.2934C551.278 67.5141 550.011 68.5185 548.587 69.249C549.291 69.7315 549.96 70.2642 550.587 70.843H548.531V72.607H537.771V75.827H548.523V81.96H552.051V75.828H563.083V72.608H552.051V70.978Z" fill="white"/>
<path d="M591.363 75.577V72.833H580.443V71.573H588.871V69.137H580.443V67.9H590.187V65.273H584.665C585.073 64.609 585.518 63.847 585.98 63.033H591.251V60.261H587.627C588.292 59.274 589.073 58.022 589.827 56.733L586.299 55.893C585.834 57.3054 585.243 58.6735 584.535 59.981L585.435 60.261H583.046V55.669H579.854V60.261H577.81V55.669H574.674V60.261H572.14L573.47 59.785C572.903 58.3883 572.19 57.0555 571.342 55.809L568.458 56.789C569.126 57.9014 569.71 59.062 570.206 60.261H566.442V63.033H572.2L572.019 63.061C572.382 63.7736 572.689 64.5131 572.938 65.273H567.595V67.9H577.115V69.132H568.995V71.568H577.115V72.828H566.387V75.572H574.436C571.668 77.1557 568.654 78.2631 565.519 78.848C566.35 79.6893 567.074 80.6297 567.675 81.648C571.093 80.7626 574.3 79.2068 577.111 77.071V81.984H580.443V76.943C583.183 79.2098 586.399 80.8294 589.851 81.681C590.469 80.5767 591.232 79.5597 592.119 78.657C588.998 78.1737 585.99 77.1303 583.24 75.577H591.363ZM575.534 63.033H582.234C581.955 63.7954 581.637 64.5431 581.282 65.273H576.009L576.497 65.189C576.248 64.4408 575.926 63.7187 575.536 63.033" fill="white"/>
<path d="M603.795 62.473H608.863V59.421H603.795V55.865H600.6V59.421H598.8C599.046 58.573 599.268 57.705 599.448 56.845L596.368 56.229C595.935 58.7948 595.064 61.2669 593.792 63.537C594.453 63.773 595.587 64.208 596.331 64.573H594.212V67.6H600.6V69.616H595.308V79.749H598.308V72.609H600.608V81.961H603.8V72.609H606.264V76.725C606.264 77.005 606.18 77.061 605.928 77.061C605.676 77.061 604.948 77.061 604.192 77.033C604.593 77.9427 604.865 78.904 605 79.889C606.117 80.0194 607.249 79.8467 608.276 79.389C609.116 78.889 609.284 78.101 609.284 76.789V69.613H603.796V67.6H609.956V64.573H603.796L603.795 62.473ZM596.812 64.573C597.169 63.8907 597.488 63.1897 597.769 62.473H600.6V64.573H596.812Z" fill="white"/>
<path d="M616.227 78.013C616.227 78.461 616.087 78.601 615.639 78.601C615.139 78.601 613.679 78.601 612.223 78.545C612.692 79.6425 613.039 80.788 613.259 81.961C614.892 82.0924 616.534 81.8728 618.075 81.317C619.111 80.729 619.475 79.833 619.475 78.017V56.173H616.227V78.013Z" fill="white"/>
<path d="M614.323 58.021H611.187V73.841H614.323V58.021Z" fill="white"/>
<path d="M631.879 56.845L628.631 55.809C627.251 59.7335 625.056 63.3214 622.191 66.337C622.916 67.4721 623.535 68.6719 624.039 69.921C624.663 69.2615 625.252 68.5692 625.803 67.847V81.961H629.191V62.623C630.215 60.7591 631.113 58.8288 631.879 56.845" fill="white"/>
<path d="M639.271 56.817L636.023 55.949C634.837 59.8805 632.801 63.5033 630.059 66.561C630.973 67.272 631.825 68.0588 632.607 68.913C634.041 67.233 635.289 65.4023 636.328 63.453H637.367V81.989H640.811V75.745H648.455V72.609H640.811V69.473H648.091V66.421H640.811V63.453H648.819V60.261H637.907C638.413 59.126 638.873 57.968 639.271 56.817" fill="white"/>
<path d="M672.153 77.478C673.413 76.8267 674.626 76.0886 675.783 75.269L673.8 73.925H676.79V71.1H671.5V69.2H675.532V66.4H671.5V64.545H675.28V56.9H653.607V65.216C653.607 69.696 653.383 76.024 650.583 80.336C651.651 80.803 652.665 81.3851 653.607 82.072C656.547 77.452 656.995 70.144 656.995 65.216V64.544H661.111V66.392H657.555V69.192H661.111V71.092H656.8V73.92H659.712V78.208C658.655 78.339 657.672 78.454 656.828 78.54L657.304 81.62C660.216 81.172 664.136 80.612 667.777 79.996L667.665 77.696C669.637 79.8757 672.24 81.3847 675.112 82.012C675.649 81.0039 676.317 80.0717 677.1 79.24C675.361 78.9435 673.687 78.3455 672.154 77.473L672.153 77.478ZM656.995 59.729H671.895V61.717H656.995V59.729ZM664.195 64.545H668.367V66.393H664.195V64.545ZM664.195 69.193H668.367V71.093H664.195V69.193ZM662.795 77.81V73.925H665.278C665.794 75.0853 666.451 76.1776 667.234 77.177C665.741 77.398 664.234 77.613 662.795 77.81V77.81ZM668.454 73.925H672.8C671.887 74.6092 670.938 75.2434 669.956 75.825C669.38 75.253 668.874 74.6153 668.447 73.925" fill="white"/>
</svg>
