<svg width="297" height="105" viewBox="0 0 297 105" fill="none" xmlns="http://www.w3.org/2000/svg">
<g clip-path="url(#clip0_98_649)">
<path d="M9.68004 15.5101H14.01V20.2801L12.67 20.5C12.0924 20.5659 11.5113 20.5959 10.93 20.59C9.71166 20.6372 8.51103 20.2861 7.50999 19.59C6.61323 18.9034 5.94416 17.9625 5.59001 16.8901C5.15925 15.6015 4.95293 14.2485 4.98002 12.8901C4.94535 11.4806 5.2326 10.0817 5.81999 8.79997C6.34931 7.68322 7.18514 6.73994 8.23003 6.08C9.3331 5.40382 10.6064 5.05687 11.9 5.08C12.8484 5.07575 13.7933 5.19678 14.71 5.43998C15.538 5.65481 16.3422 5.95301 17.11 6.33L18.71 2.44999C17.6774 2.01616 16.6059 1.68133 15.51 1.44999C14.3344 1.19032 13.134 1.05953 11.93 1.05998C9.67401 0.990697 7.43636 1.48572 5.42003 2.50004C3.69056 3.41274 2.27847 4.82827 1.37004 6.55998C0.411749 8.49014 -0.0587076 10.6259 -1.65445e-05 12.7801C-0.0664698 14.9941 0.353432 17.1958 1.23002 19.23C1.97799 20.9129 3.24239 22.3139 4.84001 23.23C6.61842 24.1689 8.60992 24.6306 10.62 24.57C12.0905 24.5851 13.5594 24.4713 15.01 24.23C16.2771 23.9785 17.5264 23.6445 18.75 23.23V11.48H9.68004V15.5101Z" fill="white"/>
<path d="M34.02 6.51006C33.2781 6.50197 32.5437 6.65907 31.8701 6.97002C31.2145 7.25479 30.615 7.65446 30.1 8.15008C29.5986 8.63032 29.1677 9.1791 28.82 9.78008H28.58L27.88 6.84002H24.27V24.31H29.09V15.42C29.0701 14.7068 29.2031 13.9976 29.48 13.34C29.7233 12.7995 30.098 12.3285 30.57 11.97C31.0309 11.6137 31.5577 11.352 32.1201 11.2C32.7069 11.0424 33.3124 10.9651 33.92 10.97C34.1632 10.9572 34.4069 10.9572 34.65 10.97C34.8769 10.9802 35.1018 11.0171 35.32 11.08L35.6801 6.61004C35.4223 6.56304 35.1617 6.53301 34.9 6.52007C34.54 6.53007 34.26 6.51006 34.02 6.51006Z" fill="white"/>
<path d="M51.7999 7.97995C50.2334 6.86364 48.3292 6.32309 46.4099 6.44992C45.2041 6.44724 44.0023 6.58828 42.8299 6.86996C41.7507 7.1313 40.7066 7.52076 39.7199 8.03L41.2999 11.25C42.0903 10.8883 42.9057 10.5842 43.7399 10.3399C44.5448 10.1009 45.3802 9.97964 46.2199 9.97995C46.9419 9.94537 47.6521 10.1727 48.2199 10.62C48.4751 10.8831 48.6713 11.1975 48.7954 11.5423C48.9196 11.8872 48.9688 12.2546 48.9398 12.62V13.39L45.9398 13.4799C43.8889 13.4312 41.8643 13.9503 40.0899 14.9799C39.4288 15.4281 38.8965 16.0414 38.5457 16.7589C38.1948 17.4763 38.0377 18.273 38.0899 19.0699C38.0483 20.1562 38.2896 21.2348 38.7899 22.1999C39.2332 22.9827 39.9023 23.6136 40.7099 24.01C41.5807 24.4122 42.5307 24.6138 43.4899 24.5999C44.322 24.6178 45.1528 24.5236 45.9599 24.3199C46.6089 24.1449 47.2195 23.8498 47.7598 23.4499C48.3282 23.0018 48.8418 22.4882 49.2899 21.9199H49.4099L50.3399 24.29H53.6599V12.65C53.7297 11.781 53.5982 10.9074 53.2757 10.0975C52.9531 9.28756 52.4481 8.56297 51.7999 7.97995V7.97995ZM48.9398 17.62C48.9679 18.102 48.8872 18.5841 48.7037 19.0307C48.5202 19.4773 48.2386 19.8769 47.8798 20.1999C47.1631 20.8139 46.2432 21.1384 45.2999 21.11C44.7098 21.1386 44.1256 20.9812 43.6298 20.66C43.4038 20.4699 43.2274 20.2276 43.1159 19.9541C43.0044 19.6805 42.9611 19.3839 42.9899 19.0899C42.9768 18.7109 43.0501 18.3339 43.2043 17.9874C43.3585 17.6409 43.5895 17.334 43.8798 17.0899C44.8361 16.4743 45.9652 16.1833 47.0999 16.26L48.9398 16.1999V17.62Z" fill="white"/>
<path d="M69.53 5.58997C69.53 6.25843 69.57 6.9263 69.65 7.58997C69.75 8.22997 69.82 8.71994 69.89 9.05994H69.73C69.4014 8.5689 69.0001 8.13065 68.54 7.76001C68.0535 7.3566 67.4978 7.04483 66.9 6.83997C66.1926 6.59619 65.4481 6.47777 64.7 6.48999C63.7641 6.46489 62.8357 6.66201 61.9909 7.06531C61.1461 7.4686 60.4089 8.06651 59.84 8.80994C58.6 10.3433 57.98 12.6033 57.98 15.59C57.98 18.5766 58.5899 20.8199 59.8099 22.3199C60.3692 23.0464 61.0914 23.6313 61.9182 24.0273C62.745 24.4234 63.6534 24.6195 64.5699 24.6C65.3208 24.6168 66.0689 24.5017 66.78 24.26C67.3658 24.0488 67.9106 23.7375 68.39 23.34C68.8335 22.9591 69.2177 22.5142 69.53 22.02H69.73L70.65 24.29H74.3099V-0.0200195H69.53V5.58997ZM69.86 16.15C69.9122 17.3811 69.614 18.6016 68.9999 19.6699C68.6756 20.0784 68.2537 20.3987 67.7732 20.6014C67.2926 20.8041 66.7688 20.8827 66.2499 20.83C65.7494 20.8485 65.2524 20.7387 64.8061 20.5112C64.3598 20.2837 63.979 19.946 63.7 19.53C63.0313 18.3584 62.7218 17.016 62.8099 15.6699C62.7268 14.3051 63.0356 12.9451 63.7 11.75C63.9538 11.3244 64.3164 10.974 64.7505 10.735C65.1846 10.496 65.6746 10.3769 66.17 10.39C66.7325 10.3195 67.3034 10.4098 67.8167 10.6505C68.3299 10.8912 68.7644 11.2725 69.0699 11.75C69.6678 12.9556 69.9402 14.2967 69.86 15.64V16.15Z" fill="white"/>
<path d="M91.0098 15.0599C91.0284 16.1239 90.9108 17.1859 90.6598 18.22C90.5077 18.9953 90.1033 19.6985 89.5098 20.22C88.8463 20.6914 88.0426 20.9241 87.2299 20.88C86.8161 20.9089 86.4019 20.8323 86.0258 20.6573C85.6498 20.4824 85.3243 20.215 85.0798 19.88C84.581 19.0239 84.3478 18.0388 84.4098 17.0499V6.84998H79.6498V18.24C79.5966 19.5041 79.8578 20.7616 80.4098 21.9C80.8969 22.804 81.6561 23.5317 82.5798 23.98C83.6095 24.4322 84.7255 24.6541 85.8499 24.63C86.5612 24.6304 87.2699 24.5431 87.9598 24.37C88.621 24.1967 89.2493 23.9164 89.8198 23.54C90.3837 23.1578 90.8635 22.6643 91.2299 22.09H91.4799L92.1199 24.3199H95.7698V6.84998H91.0098V15.0599Z" fill="white"/>
<path d="M113.77 7.97995C112.203 6.86364 110.299 6.32309 108.38 6.44992C107.174 6.44724 105.972 6.58828 104.8 6.86996C103.721 7.1313 102.677 7.52076 101.69 8.03L103.27 11.25C104.06 10.8883 104.876 10.5842 105.71 10.3399C106.515 10.1009 107.35 9.97964 108.19 9.97995C108.912 9.94537 109.622 10.1727 110.19 10.62C110.445 10.8831 110.641 11.1975 110.765 11.5423C110.89 11.8872 110.939 12.2546 110.91 12.62V13.39L107.91 13.4799C105.858 13.4203 103.83 13.929 102.05 14.9499C101.39 15.3988 100.858 16.0122 100.507 16.7295C100.156 17.4467 99.9988 18.2432 100.05 19.04C100.011 20.1273 100.256 21.2058 100.76 22.1699C101.203 22.9527 101.872 23.5836 102.68 23.9799C103.551 24.3821 104.501 24.5837 105.46 24.5699C106.292 24.5878 107.123 24.4937 107.93 24.29C108.579 24.115 109.19 23.8198 109.73 23.4199C110.298 22.9718 110.812 22.4583 111.26 21.89H111.38L112.3 24.26H115.63V12.62C115.695 11.7558 115.561 10.8883 115.239 10.084C114.916 9.2796 114.414 8.5598 113.77 7.97995ZM110.91 17.62C110.938 18.102 110.857 18.5841 110.674 19.0307C110.49 19.4773 110.209 19.8769 109.85 20.1999C109.133 20.8139 108.213 21.1384 107.27 21.11C106.68 21.1386 106.096 20.9812 105.6 20.66C105.374 20.4699 105.197 20.2276 105.086 19.9541C104.974 19.6805 104.931 19.3839 104.96 19.0899C104.947 18.7109 105.02 18.3339 105.174 17.9874C105.329 17.6409 105.56 17.334 105.85 17.0899C106.803 16.4758 107.929 16.1848 109.06 16.26L110.91 16.1999V17.62Z" fill="white"/>
<path d="M128.37 20.83C127.824 20.8528 127.288 20.6789 126.86 20.34C126.66 20.1475 126.505 19.9131 126.407 19.6538C126.308 19.3945 126.268 19.1166 126.29 18.84V10.4199H131.18V6.83997H126.29V3.12H123.29L121.91 6.80994L119.29 8.40002V10.4H121.57V18.8199C121.508 20.0332 121.748 21.2429 122.27 22.34C122.716 23.1379 123.422 23.7591 124.27 24.1C125.169 24.4472 126.127 24.617 127.09 24.6C127.919 24.6044 128.746 24.5274 129.56 24.37C130.211 24.2504 130.848 24.0626 131.46 23.8099V20.26C130.975 20.4192 130.481 20.5494 129.98 20.65C129.451 20.7671 128.912 20.8274 128.37 20.83Z" fill="white"/>
<path d="M135.91 4.16989C136.465 4.51369 137.108 4.68751 137.76 4.66989C138.406 4.68594 139.042 4.51208 139.59 4.16989C139.863 3.95302 140.075 3.6703 140.208 3.34836C140.341 3.02643 140.39 2.67593 140.35 2.32993C140.393 1.98516 140.346 1.63507 140.213 1.31418C140.079 0.993289 139.865 0.712705 139.59 0.499972C139.044 0.153318 138.406 -0.0209118 137.76 -2.77447e-05C137.107 -0.022471 136.463 0.151724 135.91 0.499972C135.637 0.713827 135.424 0.994945 135.293 1.31577C135.161 1.63659 135.116 1.98605 135.16 2.32993C135.121 2.67492 135.169 3.02426 135.3 3.3458C135.431 3.66734 135.641 3.95071 135.91 4.16989Z" fill="white"/>
<path d="M140.14 6.83997H135.37V24.31H140.14V6.83997Z" fill="white"/>
<path d="M146.89 22.28C147.646 23.0458 148.556 23.6423 149.56 24.03C150.648 24.4304 151.8 24.6303 152.96 24.62C154.162 24.6361 155.358 24.4363 156.49 24.03C157.503 23.6548 158.419 23.0567 159.17 22.28C159.941 21.4621 160.524 20.4861 160.88 19.4199C161.291 18.1683 161.49 16.8571 161.47 15.54C161.523 13.8347 161.148 12.1433 160.38 10.62C159.703 9.32675 158.659 8.26216 157.38 7.55989C156.043 6.85993 154.548 6.51557 153.04 6.55989C151.463 6.50181 149.897 6.84594 148.49 7.55989C147.222 8.25786 146.197 9.3252 145.55 10.62C144.836 12.1591 144.494 13.8443 144.55 15.54C144.531 16.8586 144.737 18.1708 145.16 19.4199C145.535 20.4813 146.124 21.4547 146.89 22.28V22.28ZM150.24 11.65C150.546 11.2142 150.961 10.8659 151.444 10.6396C151.926 10.4134 152.459 10.317 152.99 10.3599C153.724 10.325 154.45 10.5284 155.06 10.9399C155.63 11.37 156.038 11.9793 156.22 12.6699C156.495 13.6009 156.623 14.5694 156.6 15.54C156.621 16.5203 156.493 17.4981 156.22 18.4399C156.036 19.1376 155.629 19.7558 155.06 20.1999C154.476 20.6109 153.773 20.8183 153.06 20.79C152.32 20.8286 151.589 20.6211 150.98 20.1999C150.414 19.751 150.005 19.1351 149.81 18.4399C149.537 17.4981 149.409 16.5203 149.43 15.54C149.328 14.1929 149.609 12.8444 150.24 11.65V11.65Z" fill="white"/>
<path d="M174.4 10.33C174.811 10.3017 175.222 10.3787 175.595 10.5537C175.967 10.7287 176.289 10.9959 176.53 11.33C177.047 12.1791 177.289 13.168 177.22 14.1601V24.36H181.98V12.97C181.98 10.73 181.413 9.10332 180.28 8.08998C179.027 7.02931 177.419 6.48258 175.78 6.55996C175.061 6.55847 174.345 6.64923 173.65 6.82998C172.989 7.00273 172.36 7.28322 171.79 7.66005C171.227 8.04527 170.753 8.54646 170.4 9.13002H170.14L169.5 6.89003H165.86V24.36H170.62V16.14C170.543 14.6701 170.817 13.2028 171.42 11.86C171.715 11.3438 172.154 10.9243 172.683 10.6527C173.212 10.3811 173.808 10.269 174.4 10.33Z" fill="white"/>
<path d="M208 12.34C208.07 12.09 208.15 11.73 208.25 11.25C208.35 10.77 208.46 10.25 208.57 9.69995C208.68 9.14995 208.78 8.63001 208.86 8.14001C208.94 7.65001 209.02 7.25997 209.05 6.96997C209.05 7.25997 209.14 7.65002 209.22 8.15002C209.3 8.65002 209.42 9.14998 209.53 9.72998L209.86 11.26C209.97 11.73 210.05 12.08 210.11 12.26L213.21 24.26H218.72L224.53 1.41992H219.77L216.86 13.89C216.75 14.39 216.61 15 216.46 15.74C216.31 16.48 216.17 17.23 216.03 17.98C215.89 18.73 215.81 19.35 215.74 19.87C215.74 19.48 215.63 19.03 215.53 18.51C215.43 17.99 215.36 17.44 215.25 16.89C215.14 16.34 215.04 15.82 214.94 15.35C214.84 14.88 214.76 14.49 214.69 14.21L211.36 1.41992H206.78L203.46 14.21C203.37 14.5 203.28 14.89 203.17 15.35C203.06 15.81 202.97 16.35 202.86 16.89C202.75 17.43 202.68 17.96 202.6 18.49C202.52 19.02 202.45 19.49 202.39 19.87C202.39 19.48 202.28 19.03 202.19 18.51C202.1 17.99 202.01 17.43 201.89 16.87C201.77 16.31 201.68 15.75 201.57 15.23C201.46 14.71 201.37 14.23 201.28 13.89L198.36 1.41992H193.6L199.42 24.26H204.92L208 12.34Z" fill="white"/>
<path d="M238.37 24.03C239.386 23.6549 240.305 23.0569 241.06 22.28C241.831 21.4641 242.412 20.4872 242.76 19.4199C243.179 18.1701 243.382 16.8581 243.36 15.54C243.41 13.8339 243.032 12.1424 242.26 10.62C241.584 9.32605 240.54 8.26121 239.26 7.5599C237.92 6.8587 236.422 6.51431 234.91 6.5599C233.336 6.50176 231.773 6.84594 230.37 7.5599C229.102 8.25788 228.077 9.32521 227.43 10.62C226.711 12.1576 226.369 13.8439 226.43 15.54C226.406 16.859 226.612 18.1719 227.04 19.4199C227.421 20.483 228.017 21.4565 228.79 22.28C229.546 23.0458 230.456 23.6423 231.46 24.03C232.544 24.4314 233.693 24.6313 234.85 24.62C236.049 24.636 237.241 24.4362 238.37 24.03ZM231.65 18.4399C231.381 17.4975 231.256 16.5198 231.28 15.54C231.193 14.1904 231.483 12.8433 232.12 11.65C232.427 11.2149 232.842 10.8671 233.324 10.641C233.806 10.4148 234.339 10.318 234.87 10.36C235.608 10.3236 236.337 10.527 236.95 10.9399C237.517 11.3727 237.925 11.9809 238.11 12.6699C238.381 13.6016 238.506 14.5699 238.48 15.54C238.504 16.5198 238.379 17.4975 238.11 18.4399C237.922 19.1358 237.515 19.7529 236.95 20.1999C236.352 20.6209 235.63 20.8288 234.9 20.79C234.164 20.8272 233.436 20.6196 232.83 20.1999C232.258 19.7549 231.844 19.1379 231.65 18.4399V18.4399Z" fill="white"/>
<path d="M258.09 10.98C258.317 10.9902 258.542 11.0272 258.76 11.09L259.12 6.62005C258.862 6.57305 258.601 6.54302 258.34 6.53008C258.03 6.53008 257.75 6.53008 257.51 6.53008C256.768 6.52199 256.033 6.67909 255.36 6.99004C254.704 7.27481 254.105 7.67436 253.59 8.16997C253.088 8.65022 252.657 9.19899 252.31 9.79998H252.09L251.39 6.86004H247.78V24.33H252.55V15.44C252.53 14.7268 252.663 14.0176 252.94 13.36C253.183 12.8195 253.558 12.3486 254.03 11.99C254.491 11.6337 255.017 11.372 255.58 11.22C256.167 11.0624 256.772 10.9851 257.38 10.99C257.616 10.9746 257.853 10.9712 258.09 10.98V10.98Z" fill="white"/>
<path d="M272.71 14.4199L279.64 6.83997H274.27L269.38 12.15C268.99 12.57 268.63 13 268.28 13.45C267.93 13.9 267.62 14.3499 267.28 14.8099H267.22C267.28 14.1499 267.34 13.4999 267.39 12.8099C267.44 12.1199 267.47 11.4999 267.47 10.8099V-0.0200195H262.7V24.29H267.47V18.85L269.47 17.21L274.47 24.29H279.97L272.71 14.4199Z" fill="white"/>
<path d="M284.01 15.5C284.868 16.0461 285.776 16.5114 286.72 16.89C287.573 17.2371 288.407 17.6276 289.22 18.0599C289.607 18.2515 289.948 18.5244 290.22 18.86C290.383 19.0875 290.47 19.3603 290.47 19.64C290.47 19.8587 290.414 20.0736 290.307 20.2644C290.2 20.4552 290.046 20.6155 289.86 20.73C289.245 21.0531 288.552 21.1953 287.86 21.14C286.89 21.1179 285.927 20.9802 284.99 20.73C283.945 20.4644 282.924 20.1097 281.94 19.6699V23.61C282.788 23.9585 283.669 24.2199 284.57 24.39C285.608 24.5545 286.659 24.6314 287.71 24.62C289.109 24.6568 290.504 24.4469 291.83 24C292.83 23.6489 293.699 22.9998 294.32 22.14C294.898 21.2483 295.191 20.202 295.16 19.14C295.197 18.2651 294.993 17.3968 294.57 16.63C294.153 15.9501 293.572 15.3861 292.88 14.99C292.057 14.492 291.194 14.0638 290.3 13.71C289.3 13.29 288.5 12.95 287.97 12.71C287.579 12.5268 287.221 12.2802 286.91 11.98C286.736 11.7692 286.644 11.5031 286.65 11.23C286.641 11.0498 286.686 10.8711 286.781 10.7175C286.876 10.5639 287.015 10.4427 287.18 10.37C287.673 10.1501 288.211 10.0506 288.75 10.08C289.541 10.079 290.327 10.2004 291.08 10.4399C291.916 10.7049 292.738 11.0154 293.54 11.37L294.97 7.92993C294.01 7.47509 293.004 7.1232 291.97 6.88C290.952 6.65575 289.912 6.545 288.87 6.54992C287.118 6.46725 285.38 6.89835 283.87 7.79003C283.258 8.17093 282.76 8.7103 282.429 9.35107C282.098 9.99184 281.946 10.7101 281.99 11.4299C281.96 12.2747 282.132 13.1144 282.49 13.88C282.861 14.5332 283.382 15.0886 284.01 15.5V15.5Z" fill="white"/>
<path d="M133.9 68.31H147.06V64.31H138.75V58.42H146.48V54.45H138.75V49.44H147.06V45.47H133.9V68.31Z" fill="white"/>
<path d="M167.49 50.84H162.08L158.66 56.41L155.27 50.84H149.87L155.49 59.39L149.57 68.31H154.97L158.66 62.33L162.33 68.31H167.76L161.8 59.39L167.49 50.84Z" fill="white"/>
<path d="M184.01 51.1899C182.979 50.7171 181.854 50.4846 180.72 50.51C180.044 50.5071 179.371 50.598 178.72 50.78C178.102 50.9539 177.52 51.2348 177 51.61C176.465 52.0089 176.013 52.5081 175.67 53.08H175.42C175.42 52.75 175.5 52.1999 175.55 51.4199C175.6 50.6399 175.64 49.82 175.64 48.95V43.95H170.88V68.26H175.64V60.04C175.62 58.9826 175.738 57.9271 175.99 56.9C176.148 56.1224 176.56 55.419 177.16 54.9C177.812 54.4206 178.612 54.1836 179.42 54.23C179.83 54.2036 180.241 54.2815 180.613 54.4563C180.986 54.6311 181.308 54.8972 181.55 55.23C182.068 56.0791 182.309 57.0679 182.24 58.0599V68.26H187V56.87C187.052 55.6038 186.784 54.3449 186.22 53.21C185.722 52.3146 184.946 51.6056 184.01 51.1899V51.1899Z" fill="white"/>
<path d="M197.11 50.84H192.34V68.31H197.11V50.84Z" fill="white"/>
<path d="M196.55 44.5C196.007 44.1547 195.373 43.9805 194.73 44C194.077 43.9775 193.433 44.1517 192.88 44.5C192.607 44.7138 192.395 44.9949 192.263 45.3158C192.132 45.6366 192.086 45.9861 192.13 46.3299C192.091 46.6749 192.139 47.0243 192.27 47.3458C192.401 47.6673 192.611 47.9507 192.88 48.1699C193.435 48.5137 194.078 48.6875 194.73 48.6699C195.373 48.6846 196.005 48.5107 196.55 48.1699C196.824 47.9535 197.038 47.6712 197.173 47.3493C197.307 47.0275 197.358 46.6767 197.32 46.3299C197.362 45.9843 197.313 45.6337 197.178 45.3127C197.043 44.9918 196.827 44.7116 196.55 44.5V44.5Z" fill="white"/>
<path d="M212.28 50.51C211.204 50.4638 210.137 50.7314 209.21 51.28C208.453 51.7407 207.811 52.3662 207.33 53.11H207.14C207.211 52.6127 207.254 52.112 207.27 51.61C207.27 50.96 207.33 50.31 207.33 49.61V43.98H202.57V68.29H206.21L207 66.37H207.33C207.822 67.0019 208.417 67.5463 209.09 67.98C210.011 68.4721 211.047 68.707 212.09 68.66C213.334 68.6858 214.556 68.3374 215.6 67.66C216.668 66.8962 217.489 65.8357 217.96 64.61C218.569 63.0153 218.857 61.3163 218.81 59.61C218.81 56.61 218.2 54.41 216.98 52.88C216.438 52.1435 215.73 51.5451 214.913 51.1333C214.097 50.7215 213.194 50.508 212.28 50.51V50.51ZM213.14 63.4C212.912 63.8152 212.576 64.1609 212.168 64.4004C211.759 64.6399 211.293 64.7641 210.82 64.76C210.283 64.8192 209.741 64.7247 209.255 64.4874C208.77 64.2502 208.363 63.8799 208.08 63.4199C207.514 62.1975 207.256 60.8551 207.33 59.51V58.98C207.326 58.0973 207.447 57.2186 207.69 56.37C207.874 55.7505 208.252 55.2068 208.77 54.8199C209.368 54.448 210.067 54.2699 210.77 54.3099C211.246 54.2987 211.717 54.4118 212.136 54.6381C212.555 54.8643 212.908 55.1958 213.16 55.6C213.824 56.7728 214.13 58.1149 214.04 59.46C214.123 60.8324 213.811 62.2 213.14 63.4Z" fill="white"/>
<path d="M228.03 50.84H223.27V68.31H228.03V50.84Z" fill="white"/>
<path d="M227.48 44.4999C226.934 44.1533 226.296 43.9791 225.65 43.9999C225 43.9777 224.359 44.1519 223.81 44.4999C223.537 44.7138 223.324 44.9949 223.193 45.3157C223.061 45.6366 223.016 45.986 223.06 46.3299C223.021 46.6749 223.069 47.0242 223.2 47.3458C223.331 47.6673 223.541 47.9507 223.81 48.1699C224.361 48.5134 225.001 48.6873 225.65 48.6699C226.296 48.6859 226.932 48.5121 227.48 48.1699C227.754 47.9535 227.968 47.6711 228.102 47.3493C228.237 47.0275 228.288 46.6767 228.25 46.3299C228.292 45.9842 228.243 45.6337 228.108 45.3127C227.973 44.9917 227.756 44.7115 227.48 44.4999V44.4999Z" fill="white"/>
<path d="M240.85 64.83C240.304 64.8528 239.768 64.6789 239.34 64.34C239.14 64.1475 238.986 63.9131 238.887 63.6538C238.788 63.3945 238.748 63.1166 238.77 62.84V54.4199H243.66V50.84H238.77V47.12H235.77L234.39 50.8099L231.77 52.4V54.4H234.05V62.8199C233.988 64.0332 234.228 65.2429 234.75 66.34C235.196 67.1379 235.902 67.7591 236.75 68.1C237.649 68.4482 238.606 68.618 239.57 68.6C240.399 68.6044 241.226 68.5274 242.04 68.37C242.691 68.2504 243.328 68.0626 243.94 67.8099V64.26C243.455 64.4192 242.961 64.5494 242.46 64.65C241.931 64.7671 241.392 64.8274 240.85 64.83V64.83Z" fill="white"/>
<path d="M252.62 50.84H247.85V68.31H252.62V50.84Z" fill="white"/>
<path d="M252.09 44.5C251.544 44.1545 250.906 43.9803 250.26 44C249.607 43.9775 248.963 44.1517 248.41 44.5C248.137 44.7138 247.924 44.9949 247.793 45.3158C247.661 45.6366 247.616 45.9861 247.66 46.3299C247.621 46.6749 247.669 47.0243 247.8 47.3458C247.931 47.6673 248.141 47.9507 248.41 48.1699C248.965 48.5137 249.608 48.6875 250.26 48.6699C250.906 48.6848 251.542 48.511 252.09 48.1699C252.363 47.953 252.575 47.6703 252.708 47.3484C252.841 47.0264 252.89 46.6759 252.85 46.3299C252.893 45.9852 252.846 45.6351 252.713 45.3142C252.579 44.9933 252.365 44.7127 252.09 44.5V44.5Z" fill="white"/>
<path d="M269.87 51.5599C268.533 50.8599 267.039 50.5156 265.53 50.5599C263.953 50.5018 262.387 50.8459 260.98 51.5599C259.712 52.2579 258.687 53.3252 258.04 54.62C257.326 56.1591 256.984 57.8443 257.04 59.54C257.021 60.8586 257.227 62.1708 257.65 63.4199C258.032 64.4829 258.627 65.4565 259.4 66.28C260.156 67.0458 261.066 67.6423 262.07 68.03C263.159 68.4304 264.31 68.6303 265.47 68.62C266.673 68.6361 267.868 68.4363 269 68.03C270.013 67.6548 270.929 67.0567 271.68 66.28C272.451 65.4621 273.035 64.4861 273.39 63.4199C273.801 62.1683 274.001 60.8571 273.98 59.54C274.033 57.8347 273.658 56.1433 272.89 54.62C272.208 53.3239 271.157 52.259 269.87 51.5599V51.5599ZM268.7 62.4399C268.516 63.1376 268.109 63.7558 267.54 64.1999C266.956 64.6109 266.254 64.8183 265.54 64.79C264.801 64.8286 264.069 64.6211 263.46 64.1999C262.895 63.751 262.485 63.1351 262.29 62.4399C262.017 61.4981 261.889 60.5203 261.91 59.54C261.821 58.1891 262.115 56.8404 262.76 55.65C263.067 55.2142 263.481 54.8659 263.964 54.6396C264.446 54.4134 264.979 54.317 265.51 54.3599C266.245 54.325 266.971 54.5284 267.58 54.9399C268.15 55.37 268.559 55.9793 268.74 56.6699C269.016 57.6009 269.144 58.5694 269.12 59.54C269.128 60.5224 268.987 61.5002 268.7 62.4399Z" fill="white"/>
<path d="M288.26 50.51C287.541 50.5085 286.825 50.5993 286.13 50.78C285.469 50.9528 284.84 51.2331 284.27 51.6099C283.707 51.9952 283.233 52.4964 282.88 53.0799H282.62L281.98 50.8399H278.34V68.3099H283.09V60.0899C283.013 58.62 283.287 57.1527 283.89 55.8099C284.192 55.2986 284.637 54.8865 285.17 54.6237C285.702 54.3609 286.3 54.2588 286.89 54.3299C287.301 54.3016 287.712 54.3787 288.085 54.5537C288.457 54.7287 288.779 54.9958 289.02 55.3299C289.537 56.179 289.779 57.168 289.71 58.16V68.3599H294.47V56.9699C294.47 54.7299 293.903 53.1033 292.77 52.0899C291.522 51.0088 289.909 50.4439 288.26 50.51V50.51Z" fill="white"/>
<path d="M125.93 95.91H129.83V90.33H119.35V95.91H123.25C123.25 96.32 123.19 96.74 123.15 97.15H117.91V104.07H120.31V103.33H129.09V104.03H131.59V97.15H125.53C125.68 96.75 125.8 96.34 125.93 95.91ZM121.59 92.23H127.43V93.98H121.59V92.23ZM129.13 101.23H120.31V99.23H129.09L129.13 101.23Z" fill="white"/>
<path d="M125.77 85.33H123.23V86.99H116.03V92.03H118.37V89.17H130.81V92.03H133.27V86.99H125.77V85.33Z" fill="white"/>
<path d="M152.87 98.65C152.81 100.71 152.63 101.65 152.35 101.65C152.07 101.65 151.6 100.87 151.28 99.5499C152.562 97.4203 153.491 95.0968 154.03 92.6699L151.87 92.27C151.596 93.5577 151.201 94.8166 150.69 96.03C150.49 94.34 150.34 92.37 150.26 90.29H154.09V88.11H152.95L153.83 87.59C153.275 86.7148 152.602 85.9206 151.83 85.23L150.19 86.23C150.758 86.8243 151.273 87.4668 151.73 88.15H150.16C150.16 87.22 150.16 86.29 150.16 85.35H147.9C147.9 86.28 147.9 87.22 147.9 88.15H141.84V94.8099C141.864 96.1505 141.757 97.4902 141.52 98.8099L141.22 97.33L139.68 97.89V92.35H141.24V90.15H139.68V85.65H137.46V90.15H135.7V92.35H137.46V98.6699C136.68 98.9399 135.97 99.17 135.38 99.35L136.12 101.73C137.68 101.11 139.55 100.36 141.33 99.61C141.045 100.768 140.494 101.843 139.72 102.75C140.365 103.161 140.951 103.659 141.46 104.23C142.695 102.729 143.479 100.909 143.72 98.98C143.991 99.5847 144.16 100.23 144.22 100.89C144.788 100.92 145.357 100.893 145.92 100.81C146.144 100.782 146.36 100.707 146.553 100.59C146.746 100.473 146.912 100.316 147.04 100.13C147.44 99.55 147.52 97.77 147.58 93.27C147.58 93.03 147.58 92.49 147.58 92.49H144.09V90.33H148.09C148.163 93.2864 148.47 96.2324 149.01 99.14C148.023 100.534 146.751 101.703 145.28 102.57C145.881 103.058 146.437 103.601 146.94 104.19C147.99 103.481 148.938 102.634 149.76 101.67C150.34 103.08 151.09 103.93 152.08 103.93C153.66 103.93 154.28 103.07 154.58 99.9299C153.928 99.6257 153.346 99.19 152.87 98.65V98.65ZM145.69 94.39C145.69 97.34 145.58 98.39 145.41 98.71C145.355 98.7899 145.279 98.8542 145.192 98.8962C145.104 98.9383 145.007 98.9568 144.91 98.95C144.546 98.9535 144.182 98.9335 143.82 98.89C144.036 97.5342 144.139 96.1629 144.13 94.79V94.39H145.69Z" fill="white"/>
<path d="M167.02 93.1899H174.09V90.71H166.18C166.37 88.83 166.4 86.99 166.43 85.33H163.79C163.79 86.98 163.79 88.83 163.59 90.71H156.29V93.1899H163.2C162.808 95.1505 161.934 96.983 160.658 98.5225C159.382 100.062 157.744 101.26 155.89 102.01C156.612 102.562 157.229 103.239 157.71 104.01C159.497 103.196 161.09 102.013 162.385 100.537C163.68 99.0612 164.646 97.3272 165.22 95.45C166.79 99.35 169.1 102.31 172.73 104.01C173.227 103.174 173.832 102.407 174.53 101.73C170.77 100.28 168.35 97.0999 167.02 93.1899Z" fill="white"/>
<path d="M191.19 93.21L189.67 92.0499L189.17 92.1699H180.17V94.23H186.97C186.471 94.6468 185.943 95.0277 185.39 95.37H184.29V96.65H176.59V98.87H184.29V101.47C184.29 101.75 184.17 101.85 183.77 101.85C183.37 101.85 181.87 101.85 180.59 101.85C181.026 102.575 181.362 103.355 181.59 104.17C182.907 104.248 184.229 104.126 185.51 103.81C186.51 103.45 186.77 102.81 186.77 101.59V98.91H194.51V96.6899H186.93C188.506 95.7354 189.94 94.564 191.19 93.21Z" fill="white"/>
<path d="M179.09 90.63H191.89V93.41H194.27V88.51H191.59C192.15 87.81 192.74 87.02 193.29 86.23L190.69 85.47C190.205 86.5221 189.622 87.5265 188.95 88.47H185.87L186.87 88.0699C186.476 87.0368 185.945 86.0613 185.29 85.1699L183.17 85.97C183.675 86.7578 184.097 87.5956 184.43 88.47H181.27L182.01 88.13C181.535 87.1611 180.915 86.2707 180.17 85.49L178.17 86.41C178.69 87.0568 179.155 87.7458 179.56 88.47H176.83V93.37H179.09V90.63Z" fill="white"/>
<path d="M206.91 96.25C207.734 95.6519 208.477 94.9494 209.12 94.16C210.351 94.9947 211.518 95.9205 212.61 96.9299L214.31 95.11C213.048 94.0702 211.711 93.1244 210.31 92.28C210.639 91.6604 210.917 91.0148 211.14 90.35L209.14 89.9299H214.2V87.65H206.9V85.35H204.38V87.65H197.26V89.98H201.01C200.312 92.2588 198.818 94.2107 196.8 95.48C197.509 95.966 198.178 96.5077 198.8 97.1C199.977 96.2136 200.991 95.1311 201.8 93.9C202.474 94.383 203.11 94.9179 203.7 95.5L205.12 93.7999C204.397 93.1802 203.628 92.6153 202.82 92.11C203.084 91.5599 203.318 90.9956 203.52 90.4199L201.6 89.98H208.75C208.043 92.1775 206.493 94.0046 204.44 95.0599C204.94 95.4053 205.415 95.7863 205.86 96.2H204.4V97.46H196.72V99.76H204.4V104.14H206.92V99.76H214.8V97.46H206.92L206.91 96.25Z" fill="white"/>
<path d="M234.99 99.53V97.53H227.19V96.63H233.19V94.98H227.19V94.1H234.19V92.22H230.24C230.53 91.75 230.85 91.22 231.18 90.62H234.95V88.62H232.36C232.83 87.91 233.36 87.02 233.93 86.1L231.41 85.5C231.078 86.5088 230.656 87.486 230.15 88.4199L230.79 88.62H229.09V85.34H226.81V88.62H225.35V85.34H223.09V88.62H221.28L222.28 88.28C221.875 87.2824 221.366 86.3303 220.76 85.4399L218.7 86.14C219.173 86.9356 219.587 87.7644 219.94 88.62H217.26V90.62H221.37H221.24C221.502 91.1269 221.719 91.6555 221.89 92.2H218.08V94.08H224.88V94.96H219.08V96.7H224.88V97.6H217.22V99.6H222.97C220.993 100.731 218.839 101.522 216.6 101.94C217.194 102.541 217.711 103.213 218.14 103.94C220.581 103.308 222.873 102.196 224.88 100.67V104.18H227.26V100.58C229.217 102.198 231.514 103.353 233.98 103.96C234.422 103.171 234.966 102.445 235.6 101.8C233.369 101.453 231.218 100.708 229.25 99.6L234.99 99.53ZM223.68 90.53H228.46C228.265 91.0762 228.038 91.6105 227.78 92.13H224.02L224.37 92.0699C224.188 91.5493 223.957 91.0471 223.68 90.5699V90.53Z" fill="white"/>
<path d="M243.87 90.1699H247.49V87.98H243.87V85.4399H241.59V87.98H240.3C240.48 87.37 240.64 86.75 240.77 86.14L238.57 85.7C238.261 87.5327 237.638 89.2984 236.73 90.9199C237.2 91.0899 238 91.4 238.53 91.66H237.03V93.8199H241.59V95.26H237.81V102.5H239.95V97.4H241.59V104.08H243.87V97.4H245.63V100.34C245.63 100.54 245.57 100.58 245.39 100.58C245.21 100.58 244.69 100.58 244.15 100.58C244.434 101.217 244.629 101.89 244.73 102.58C245.528 102.672 246.336 102.548 247.07 102.22C247.67 101.86 247.79 101.3 247.79 100.36V95.24H243.87V93.7999H248.27V91.64H243.87V90.1699ZM238.87 91.6699C239.123 91.1824 239.35 90.6817 239.55 90.1699H241.55V91.6699H238.87Z" fill="white"/>
<path d="M252.75 101.27C252.75 101.59 252.65 101.69 252.33 101.69C252.01 101.69 250.93 101.69 249.89 101.69C250.225 102.474 250.473 103.292 250.63 104.13C251.796 104.224 252.969 104.067 254.07 103.67C254.81 103.25 255.07 102.61 255.07 101.31V85.71H252.75V101.27Z" fill="white"/>
<path d="M251.39 86.99H249.15V98.29H251.39V86.99Z" fill="white"/>
<path d="M263.93 86.15L261.61 85.41C260.624 88.2133 259.057 90.776 257.01 92.9299C257.528 93.7407 257.97 94.5977 258.33 95.49C258.75 95.05 259.17 94.49 259.59 94.01V104.09H262.01V90.28C262.739 88.9468 263.381 87.5671 263.93 86.15V86.15Z" fill="white"/>
<path d="M269.21 86.13L266.89 85.51C266.043 88.3185 264.589 90.9063 262.63 93.09C263.283 93.5979 263.891 94.1599 264.45 94.77C265.472 93.5679 266.364 92.2606 267.11 90.87H267.85V104.11H270.31V99.65H275.77V97.41H270.31V95.1699H275.51V92.98H270.31V90.86H276.03V88.58H268.23C268.59 87.78 268.92 86.98 269.21 86.13Z" fill="white"/>
<path d="M292.69 100.89C293.591 100.423 294.46 99.8946 295.29 99.3099L293.87 98.3099H296.01V96.3099H292.23V94.98H295.09V92.98H292.21V91.66H294.91V86.2H279.43V92.14C279.43 95.34 279.27 99.8599 277.27 102.94C278.033 103.274 278.757 103.689 279.43 104.18C281.53 100.88 281.85 95.6599 281.85 92.1799V91.7H284.79V92.98H282.25V94.98H284.79V96.34H281.71V98.34H283.79V101.4C283.03 101.5 282.33 101.58 281.73 101.64L282.07 103.84C284.15 103.52 286.95 103.12 289.55 102.68L289.47 101.04C290.88 102.595 292.74 103.671 294.79 104.12C295.172 103.393 295.649 102.72 296.21 102.12C294.975 101.916 293.784 101.5 292.69 100.89V100.89ZM281.87 88.21H292.51V89.63H281.87V88.21ZM287.01 91.65H290.01V92.98H287.01V91.65ZM287.01 94.97H290.01V96.33H287.01V94.97ZM286.01 101.12V98.35H287.78C288.146 99.1796 288.617 99.9592 289.18 100.67L286.01 101.12ZM290.01 98.35H293.11C292.467 98.8371 291.799 99.2911 291.11 99.71C290.719 99.2972 290.377 98.8409 290.09 98.35H290.01Z" fill="white"/>
</g>
<defs>
<clipPath id="clip0_98_649">
<rect width="296.23" height="104.19" fill="white"/>
</clipPath>
</defs>
</svg>
