<svg width="692" height="118" viewBox="0 0 692 118" fill="none" xmlns="http://www.w3.org/2000/svg">
<path d="M6.59883 75.0917C6.68783 74.9327 6.78955 74.7929 6.91034 74.7039C6.99934 74.6339 7.03112 74.564 7.03112 74.4941C7.03112 74.3924 6.99934 74.3352 6.82133 74.2525C6.54162 74.1317 6.14111 73.9919 5.75332 73.8838C5.70246 74.2525 5.63253 74.5132 5.45453 74.8819C4.47551 77.0688 2.56833 79.4464 0 80.9848C0.228861 81.1056 0.438651 81.3154 0.610297 81.5761C0.731085 81.735 0.769228 81.8049 0.85823 81.8049C0.909088 81.8049 0.979017 81.7541 1.11888 81.646C3.57278 79.885 5.18116 77.9461 6.59883 75.0917Z" fill="white"/>
<path d="M10.2544 73.9799C10.1844 73.84 10.1526 73.84 9.94286 73.9481L9.45335 74.1579C9.26263 74.2469 9.22449 74.2596 9.2817 74.4058C10.5214 77.1521 12.5875 79.7014 15.2766 81.5704C15.3974 81.6594 15.4673 81.7103 15.5245 81.7103C15.5945 81.7103 15.6453 81.6404 15.7534 81.4623C15.9123 81.2017 16.1221 80.922 16.3319 80.763C13.6428 79.1864 11.475 76.7389 10.2544 73.9799Z" fill="white"/>
<path d="M10.534 82.4725C10.4259 82.3644 10.4132 82.3644 10.2352 82.4916L9.77746 82.7713C9.56767 82.9112 9.51681 82.943 9.60582 83.051C10.445 84.0618 11.1633 85.0281 11.8054 86.0389C9.82832 86.2996 7.43799 86.5602 5.28288 86.7382C6.22376 84.6594 7.08199 82.4217 7.71135 80.6734C7.87029 80.2157 7.99107 80.0123 8.13093 79.8152C8.21993 79.7071 8.25172 79.6753 8.25172 79.5673C8.25172 79.4783 8.16272 79.3956 8.02286 79.3384C7.69228 79.2176 7.32356 79.1095 6.90398 79.0078C6.83405 79.5673 6.69419 80.0568 6.43354 80.8578C5.97582 82.2882 5.10488 84.5831 4.075 86.8336C3.90336 86.8336 3.72535 86.8527 3.55371 86.8527C2.78448 86.9035 2.17418 86.9226 1.61475 86.8845C1.70375 87.3231 1.80546 87.7236 1.91354 88.0351C1.94532 88.175 2.02161 88.2449 2.08518 88.2449C2.17418 88.2449 2.22504 88.2131 2.31404 88.1559C2.4539 88.0669 2.63191 87.997 3.01334 87.9652C6.09025 87.6855 9.5486 87.3358 12.3458 86.8972C12.6637 87.4185 12.9561 87.9652 13.274 88.5564C13.3439 88.6963 13.382 88.6772 13.6236 88.5564L14.164 88.2385C14.3928 88.1178 14.4119 88.0796 14.3356 87.9779C13.0642 85.791 12.1042 84.3415 10.534 82.4725Z" fill="white"/>
<path d="M34.1132 77.7365C34.234 77.7365 34.2531 77.7174 34.2531 77.5776V76.7384C34.2531 76.6176 34.234 76.5985 34.1132 76.5985C34.0242 76.5985 33.4521 76.6367 31.7038 76.6367H27.7878V75.1872C27.7878 74.4371 27.8196 74.1383 27.8958 73.9794C27.9467 73.8586 27.9849 73.7886 27.9849 73.6679C27.9849 73.5979 27.8959 73.528 27.756 73.5089C27.3682 73.4581 27.1076 73.439 26.5481 73.4199C26.6371 73.8395 26.6689 74.3099 26.6689 75.1872V76.6367H23.1025C21.3733 76.6367 20.7948 76.5985 20.6931 76.5985C20.5723 76.5985 20.5532 76.6176 20.5532 76.7384V77.5776C20.5532 77.7174 20.5723 77.7365 20.6931 77.7365C20.7948 77.7365 21.3733 77.7047 23.1025 77.7047H31.7038C33.4457 77.6984 34.0242 77.7365 34.1132 77.7365Z" fill="white"/>
<path d="M23.6429 79.0271L23.0644 79.2178C22.8164 79.3068 22.8037 79.3259 22.8546 79.4466C23.6047 81.3856 24.1324 83.172 24.5329 85.5115C24.5647 85.6704 24.6028 85.6831 24.8635 85.6195L25.4738 85.4415C25.6836 85.3907 25.6836 85.3398 25.6645 85.2127C25.2258 82.8351 24.6155 80.9152 23.8845 79.0779C23.8527 78.9762 23.8145 78.9762 23.6429 79.0271Z" fill="white"/>
<path d="M34.9836 86.7893C34.8755 86.7893 34.3542 86.8274 32.7141 86.8274H29.2875C30.1966 84.7105 30.8768 82.7016 31.5062 80.5337C31.6143 80.165 31.6969 79.9234 31.8368 79.7645C31.9067 79.6755 31.9957 79.5738 31.9957 79.4657C31.9957 79.3767 31.9575 79.3259 31.824 79.275C31.4235 79.1161 31.0548 79.0144 30.5971 78.8872C30.5462 79.4657 30.4572 79.9171 30.2474 80.7054C29.7579 82.5045 29.0904 84.6024 28.1496 86.8211H22.0466C20.4191 86.8211 19.8788 86.7829 19.7898 86.7829C19.669 86.7829 19.6499 86.802 19.6499 86.9228V87.7937C19.6499 87.9145 19.669 87.9336 19.7898 87.9336C19.8788 87.9336 20.4191 87.8954 22.0466 87.8954H32.7077C34.3479 87.8954 34.8755 87.9336 34.9772 87.9336C35.098 87.9336 35.1171 87.9145 35.1171 87.7937V86.9228C35.1235 86.8083 35.1044 86.7893 34.9836 86.7893Z" fill="white"/>
<path d="M47.1836 79.2876H51.551C53.2293 79.2876 53.7888 79.3194 53.8778 79.3194C53.9986 79.3194 54.0176 79.3003 54.0176 79.1604V78.3594C54.0176 78.2386 53.9986 78.2196 53.8778 78.2196C53.7888 78.2196 53.2293 78.2577 51.551 78.2577H46.8467C46.9484 77.3486 47.0056 76.4077 47.0183 75.4224C47.0374 74.6213 47.0692 74.2844 47.1582 74.1128C47.209 73.992 47.2599 73.922 47.2599 73.7822C47.2599 73.6932 47.19 73.6233 47.0183 73.5915C46.6687 73.5406 46.1792 73.5025 45.7786 73.4834C45.8676 74.0047 45.8867 74.4815 45.8676 75.4605C45.8486 76.4586 45.8168 77.3867 45.7278 78.2577H41.6019C39.9236 78.2577 39.3642 78.2196 39.2752 78.2196C39.1544 78.2196 39.1353 78.2386 39.1353 78.3594V79.1604C39.1353 79.3003 39.1544 79.3194 39.2752 79.3194C39.3642 79.3194 39.9236 79.2876 41.6019 79.2876H45.607C45.4163 80.5463 45.0984 81.6652 44.5962 82.7141C43.579 84.812 41.7291 86.662 38.7729 87.8889C39.0018 88.0479 39.2243 88.2386 39.4214 88.4802C39.5422 88.6518 39.5994 88.7281 39.682 88.7281C39.752 88.7281 39.8219 88.6963 39.9618 88.6391C42.6509 87.2914 44.3991 85.6321 45.607 83.1528C46.0266 82.2755 46.3444 81.2837 46.5669 80.1967C47.7049 83.9538 50.2351 86.9989 53.2611 88.5882C53.3819 88.6582 53.4709 88.6963 53.5218 88.6963C53.6108 88.6963 53.6616 88.6264 53.7697 88.4357C53.9414 88.1559 54.1702 87.8953 54.3991 87.7046C50.8517 86.2996 48.3025 82.943 47.1836 79.2876Z" fill="white"/>
<path d="M73.3632 83.0321C73.2742 83.0321 72.7339 83.0639 71.0937 83.0639H66.4465V82.8541C66.4465 82.5744 66.4465 82.3837 66.4656 82.2565C67.5654 81.6272 68.4554 81.0487 69.1547 80.4892C69.5553 80.1587 69.7142 80.0887 69.8858 80.0315C69.9939 79.9997 70.0638 79.9234 70.0638 79.8026C70.0638 79.6819 69.9558 79.5039 69.7142 79.2623C69.4345 78.9826 69.3264 78.8936 69.2247 78.8936C69.1547 78.8936 69.1039 78.9126 69.053 78.9253C69.0022 78.9444 68.8814 78.9571 68.6017 78.9571H63.7066C62.0664 78.9571 61.5197 78.9253 61.437 78.9253C61.3162 78.9253 61.2972 78.9444 61.2972 79.0652V79.7836C61.2972 79.9044 61.3162 79.9234 61.437 79.9234C61.526 79.9234 62.0664 79.8916 63.7066 79.8916H68.4109C67.6926 80.5019 66.9806 81.0105 66.1414 81.5C65.8808 81.4301 65.582 81.3792 65.2514 81.322C65.3404 81.7607 65.3722 82.282 65.3722 83.0512H60.5979C58.9577 83.0512 58.411 83.0194 58.3283 83.0194C58.2075 83.0194 58.1885 83.0385 58.1885 83.1593V83.9285C58.1885 84.0493 58.2075 84.0684 58.3283 84.0684C58.4173 84.0684 58.9577 84.0366 60.5979 84.0366H65.3722V87.0626C65.3722 87.6221 65.1115 87.7429 64.6029 87.7429C63.8846 87.7429 63.3951 87.7111 62.7848 87.6348C62.9437 87.8446 63.0645 88.1751 63.1535 88.4422C63.2425 88.7918 63.2425 88.7727 63.5731 88.7727C65.2005 88.8109 65.6328 88.7219 66.0015 88.493C66.3512 88.2451 66.472 87.9717 66.472 87.3551C66.472 86.9355 66.4529 86.2171 66.4529 85.8548V84.0366H71.1001C72.7402 84.0366 73.287 84.0684 73.3696 84.0684C73.4904 84.0684 73.5095 84.0493 73.5095 83.9285V83.1593C73.5031 83.0512 73.4904 83.0321 73.3632 83.0321Z" fill="white"/>
<path d="M61.3032 76.4078C59.6058 76.4078 58.9955 76.3696 58.8938 76.3696C58.773 76.3696 58.7539 76.3887 58.7539 76.4904C58.7539 76.5985 58.7857 76.8592 58.7857 77.4504V78.0607C58.7857 79.5991 58.7539 79.828 58.7539 79.9297C58.7539 80.0505 58.773 80.0696 58.8938 80.0696H59.6948C59.8156 80.0696 59.8346 80.0505 59.8346 79.9297V77.3232H71.8753V79.9297C71.8753 80.0505 71.8944 80.0696 72.0151 80.0696H72.8034C72.9433 80.0696 72.9624 80.0505 72.9624 79.9297C72.9624 79.8407 72.9306 79.6182 72.9306 78.0607V77.3423C72.9306 76.8528 72.9624 76.5731 72.9624 76.4841C72.9624 76.3824 72.9433 76.3633 72.8034 76.3633C72.7144 76.3633 72.1041 76.4014 70.394 76.4014H69.663C70.1016 75.753 70.394 75.2317 70.7119 74.6341C70.8009 74.4752 70.9408 74.3035 71.0425 74.2336C71.1315 74.1827 71.1633 74.1128 71.1633 74.0429C71.1633 73.9539 71.1124 73.884 70.9726 73.814C70.6928 73.6742 70.3241 73.5343 69.9427 73.4453C69.8918 73.7759 69.8028 74.0556 69.7138 74.2463C69.4023 74.9965 69.0654 75.664 68.5759 76.3951H61.3032V76.4078Z" fill="white"/>
<path d="M61.9321 76.128C61.983 76.128 62.0402 76.0963 62.161 76.039L62.6314 75.8102C62.8412 75.7021 62.8603 75.7021 62.7904 75.5813C62.4089 74.9011 61.9894 74.2527 61.4808 73.6233C61.3918 73.5216 61.3409 73.5216 61.1502 73.6042L60.7115 73.7949C60.5018 73.8839 60.4827 73.9348 60.5526 74.0238C61.004 74.5832 61.5126 75.3334 61.8304 76.0009C61.8622 76.0899 61.8813 76.128 61.9321 76.128Z" fill="white"/>
<path d="M65.9883 75.8295L66.4588 75.6578C66.6876 75.5498 66.7067 75.5498 66.6495 75.429C66.3698 74.7297 66.0011 74.0113 65.5688 73.3692C65.4988 73.2612 65.448 73.2612 65.27 73.3374L64.7995 73.4964C64.6088 73.5663 64.5516 73.6045 64.6406 73.7252C65.0411 74.3546 65.3717 74.9331 65.6578 75.7913C65.7086 75.9312 65.7404 75.9312 65.9883 75.8295Z" fill="white"/>
<path d="M81.3468 75.6195C80.6666 74.9011 79.8465 74.259 79.02 73.7314C78.912 73.6614 78.8611 73.6805 78.7403 73.8204L78.3525 74.2209C78.1936 74.3798 78.1936 74.4116 78.3017 74.4815C79.0201 74.9329 79.9291 75.7212 80.6284 76.4904C80.7365 76.5985 80.7683 76.5794 80.9082 76.4205L81.2959 75.95C81.4358 75.7975 81.4358 75.7212 81.3468 75.6195Z" fill="white"/>
<path d="M92.6565 81.055C92.5485 81.055 91.9382 81.0868 90.1772 81.0868H87.1702V77.9081H89.3698C91.0799 77.9081 91.6585 77.9399 91.7475 77.9399C91.8682 77.9399 91.8873 77.9208 91.8873 77.8001V77.069C91.8873 76.9482 91.8682 76.9291 91.7475 76.9291C91.6585 76.9291 91.0863 76.9609 89.3698 76.9609H87.1702V75.664C87.1702 74.6151 87.2211 74.1446 87.2783 73.9857C87.3292 73.8458 87.3673 73.7759 87.3673 73.6742C87.3673 73.6043 87.2783 73.5343 87.1575 73.5153C86.7697 73.4644 86.4773 73.4453 86.0196 73.4263C86.1086 74.0366 86.1276 74.5261 86.1276 75.6958V76.9545H84.6273C82.9172 76.9545 82.3578 76.9228 82.2688 76.9228C82.148 76.9228 82.1289 76.9418 82.1289 77.0626V77.7937C82.1289 77.9145 82.148 77.9336 82.2688 77.9336C82.3578 77.9336 82.9172 77.9018 84.6273 77.9018H86.1276V81.0804H83.8009C82.0336 81.0804 81.4233 81.0486 81.3216 81.0486C81.2008 81.0486 81.1817 81.0677 81.1817 81.1885V81.9196C81.1817 82.0594 81.2008 82.0785 81.3216 82.0785C81.4296 82.0785 82.0399 82.0467 83.8009 82.0467H85.3203C84.8308 83.884 84.2205 85.4542 83.553 86.9609L82.9236 87.0117C82.415 87.0435 81.8556 87.0626 81.1436 87.0626C81.2135 87.4313 81.3152 87.8127 81.4233 88.1624C81.4551 88.2832 81.5441 88.3912 81.6521 88.3912C81.7602 88.3912 81.8301 88.3213 81.9318 88.2705C82.0208 88.2196 82.1607 88.1624 82.6502 88.1115C85.5873 87.7809 87.9458 87.4822 90.7112 87.0244C91.0418 87.533 91.3597 88.0734 91.6585 88.6328C91.7093 88.7536 91.7475 88.7536 91.97 88.601L92.4595 88.2832C92.6311 88.1624 92.6311 88.1242 92.5803 88.0225C91.5822 86.3442 90.5841 84.9456 89.3444 83.5979C89.2745 83.5279 89.2236 83.5279 89.0965 83.6169L88.6578 83.8776C88.4671 83.9984 88.448 84.0492 88.5498 84.1573C89.1092 84.8057 89.6496 85.4669 90.1391 86.1662C88.34 86.4459 86.6426 86.6748 84.7036 86.8464C85.3139 85.486 85.9242 83.8776 86.4836 82.0404H90.1709C91.9382 82.0404 92.5485 82.0721 92.6502 82.0721C92.7519 82.0721 92.771 82.0531 92.771 81.9132V81.1821C92.7837 81.074 92.7646 81.055 92.6565 81.055Z" fill="white"/>
<path d="M80.0061 80.6165L80.4257 80.127C80.5338 80.0062 80.5338 79.9681 80.4447 79.8791C79.6755 79.148 78.8173 78.5504 77.9781 78.0418C77.8701 77.991 77.8065 77.991 77.6984 78.1308L77.3297 78.5695C77.2089 78.7093 77.1898 78.7475 77.3106 78.8174C78.0989 79.3069 78.9889 79.9871 79.7073 80.7436C79.809 80.8454 79.8281 80.8263 80.0061 80.6165Z" fill="white"/>
<path d="M80.4952 83.2933C80.2473 83.1216 80.0756 82.9945 79.904 82.772C79.4145 84.5011 78.855 85.8997 78.3147 86.9678C78.054 87.4891 77.8633 87.8387 77.5264 88.2583C77.8379 88.5062 78.0667 88.6588 78.3655 88.8368C78.4863 88.9067 78.5562 88.9258 78.6262 88.9258C78.6961 88.9258 78.747 88.8368 78.766 88.716C78.7851 88.5571 78.9059 88.2964 79.0648 87.9277C79.5925 86.7071 80.1837 85.2513 80.6541 83.8209C80.7559 83.4713 80.7559 83.4522 80.4952 83.2933Z" fill="white"/>
<path d="M104.735 76.3379C104.755 76.0391 104.755 75.7403 104.755 75.4288C104.755 74.9902 104.824 74.6405 104.913 74.4498C104.964 74.329 105.022 74.24 105.022 74.1001C105.022 73.9921 104.913 73.9285 104.774 73.8903C104.386 73.8204 103.884 73.7696 103.464 73.7505C103.553 74.3608 103.572 74.8694 103.585 75.8293C103.655 80.8452 101.245 85.4288 96.5601 87.6792C96.7889 87.8382 97.0178 88.048 97.2085 88.3086C97.3293 88.4866 97.3865 88.5692 97.4564 88.5692C97.5264 88.5692 97.5963 88.5184 97.7171 88.4485C101.264 86.4396 103.642 83.2228 104.379 78.8363C105.028 82.3519 106.916 85.931 110.883 88.4675C111.004 88.5565 111.074 88.5883 111.144 88.5883C111.214 88.5883 111.264 88.5184 111.372 88.3404C111.531 88.0607 111.741 87.8191 111.983 87.622C107.393 85.041 105.435 81.0359 104.735 76.3379Z" fill="white"/>
<path d="M136.128 83.8013C136.128 83.6614 136.109 83.6424 135.988 83.6424C135.88 83.6424 135.27 83.6742 133.509 83.6742H129.822C130.082 83.0956 130.311 82.4853 130.54 81.7543H132.18C133.82 81.7543 134.399 81.786 134.488 81.786C134.609 81.786 134.628 81.767 134.628 81.6462C134.628 81.5572 134.59 81.2584 134.59 80.3557V79.0588C134.59 78.1688 134.628 77.87 134.628 77.781C134.628 77.6602 134.609 77.6411 134.488 77.6411C134.399 77.6411 133.827 77.6729 132.18 77.6729H128.283C126.637 77.6729 126.084 77.6411 125.976 77.6411C125.855 77.6411 125.836 77.6602 125.836 77.781C125.836 77.87 125.868 78.1688 125.868 79.0588V80.3557C125.868 81.2648 125.836 81.5635 125.836 81.6462C125.836 81.767 125.855 81.786 125.976 81.786C126.077 81.786 126.637 81.7543 128.283 81.7543H129.434C129.256 82.3455 128.995 83.0321 128.703 83.6742H127.005C125.225 83.6742 124.596 83.6424 124.507 83.6424C124.386 83.6424 124.367 83.6614 124.367 83.8013C124.367 83.8903 124.399 84.2527 124.399 85.3016V86.3315C124.399 88.4612 124.367 88.7981 124.367 88.8998C124.367 89.0079 124.386 89.0206 124.507 89.0206H125.327C125.435 89.0206 125.448 89.0015 125.448 88.8998V88.1687H135.047V88.8299C135.047 88.938 135.066 88.9507 135.187 88.9507H135.988C136.109 88.9507 136.128 88.9316 136.128 88.8299C136.128 88.7218 136.09 88.3912 136.09 86.2806V85.1109C136.09 84.2527 136.128 83.8903 136.128 83.8013ZM126.878 78.5375H133.572V80.9151H126.878V78.5375ZM135.041 87.2596H125.442V84.5705H135.041V87.2596Z" fill="white"/>
<path d="M137.298 75.3206C137.298 75.1998 137.279 75.1807 137.158 75.1807C137.05 75.1807 136.458 75.2125 134.748 75.2125H130.623V74.9646C130.623 74.1763 130.642 73.9156 130.712 73.744C130.743 73.6232 130.801 73.5533 130.801 73.4325C130.801 73.3625 130.731 73.2926 130.591 73.2735C130.26 73.2354 129.872 73.2227 129.453 73.2036C129.561 73.6232 129.574 74.0809 129.574 74.9836V75.2125H125.747C124.036 75.2125 123.439 75.1807 123.337 75.1807C123.216 75.1807 123.197 75.1998 123.197 75.3206C123.197 75.4096 123.229 75.6702 123.229 76.2615V76.8527C123.229 78.4102 123.197 78.62 123.197 78.7026C123.197 78.8234 123.216 78.8425 123.337 78.8425H124.138C124.259 78.8425 124.278 78.8234 124.278 78.7026V76.1343H136.217V78.7026C136.217 78.8234 136.236 78.8425 136.357 78.8425H137.158C137.279 78.8425 137.298 78.8234 137.298 78.7026C137.298 78.6136 137.266 78.3911 137.266 76.8527V76.1534C137.26 75.6702 137.298 75.4096 137.298 75.3206Z" fill="white"/>
<path d="M155.702 75.8611C155.753 75.8611 155.804 75.8293 155.912 75.7594L156.242 75.5305C156.452 75.3906 156.471 75.3525 156.401 75.2508C156.001 74.6723 155.581 74.17 155.092 73.7314C154.984 73.6233 154.984 73.6106 154.793 73.7314L154.443 73.9412C154.233 74.062 154.214 74.1001 154.322 74.1891C154.78 74.6278 155.212 75.1681 155.581 75.7466C155.632 75.8102 155.651 75.8611 155.702 75.8611Z" fill="white"/>
<path d="M146.223 83.8901C146.223 83.6422 146.242 83.4197 146.293 83.229C145.772 83.5278 145.225 83.7884 144.685 84.0173V78.9506H144.806C145.905 78.9506 146.223 78.9823 146.325 78.9823C146.446 78.9823 146.465 78.9633 146.465 78.8425V78.1114C146.465 77.9906 146.446 77.9715 146.325 77.9715C146.217 77.9715 145.905 78.0097 144.806 78.0097H144.685V75.9118C144.685 74.7421 144.736 74.3034 144.793 74.0936C144.844 73.9728 144.882 73.8838 144.882 73.7948C144.882 73.7058 144.793 73.655 144.672 73.6359C144.342 73.585 143.992 73.5469 143.534 73.5342C143.655 74.2144 143.674 74.7039 143.674 75.9436V78.0097H143.394C142.275 78.0097 141.964 77.9715 141.875 77.9715C141.754 77.9715 141.735 77.9906 141.735 78.1114V78.8425C141.735 78.9633 141.754 78.9823 141.875 78.9823C141.964 78.9823 142.275 78.9506 143.394 78.9506H143.674V84.4242L142.975 84.653C142.434 84.8247 142.066 84.8946 141.576 84.9645C141.665 85.3142 141.767 85.6448 141.875 85.9245C141.926 86.0453 141.996 86.1152 142.066 86.1152C142.155 86.1152 142.225 86.0453 142.295 85.9944C142.364 85.9435 142.523 85.8545 142.886 85.7147C143.916 85.346 145.003 84.8946 145.912 84.4051C146.223 84.2207 146.223 84.2525 146.223 83.8901Z" fill="white"/>
<path d="M157.329 85.3718C157.12 85.2637 156.872 85.1238 156.719 84.9331C156.611 86.4334 156.478 87.3616 156.141 87.3616C155.721 87.3616 154.92 86.4843 154.291 84.4945C154.901 83.4646 155.429 82.2567 155.88 80.7564C156.052 80.1588 156.128 79.9363 156.249 79.7774C156.338 79.6566 156.389 79.5867 156.389 79.4977C156.389 79.3896 156.319 79.307 156.179 79.2498C155.899 79.129 155.619 79.04 155.238 78.9319C155.187 79.5104 155.079 80.0508 154.926 80.6293C154.647 81.6083 154.329 82.4792 153.928 83.2485C153.477 81.5002 153.229 79.5803 153.127 77.2854H154.577C156.287 77.2854 156.865 77.3171 156.973 77.3171C157.094 77.3171 157.113 77.2981 157.113 77.1773V76.4462C157.113 76.3254 157.094 76.3254 156.973 76.3254C156.865 76.3254 156.293 76.3445 154.577 76.3445H153.089V75.1557C153.089 74.3165 153.14 74.0177 153.197 73.8969C153.248 73.7761 153.286 73.6681 153.286 73.5664C153.286 73.4964 153.235 73.4265 153.057 73.3947C152.689 73.3248 152.358 73.2866 151.97 73.2739C152.059 73.9224 152.078 74.7234 152.078 75.4227C152.078 75.7342 152.078 76.052 152.097 76.3508H149.618C147.908 76.3508 147.291 76.3318 147.209 76.3318C147.088 76.3318 147.069 76.3318 147.069 76.4526C147.069 76.5606 147.101 77.0819 147.101 78.4297C147.101 80.2669 147.081 81.8753 146.84 83.4265C146.528 85.3654 145.632 87.012 144.513 88.1817C144.742 88.2707 144.984 88.4106 145.193 88.5822C145.314 88.6903 145.365 88.7538 145.441 88.7538C145.492 88.7538 145.549 88.6839 145.632 88.5441C146.611 87.2853 147.501 85.5371 147.8 83.7888C147.972 82.7208 148.061 81.71 148.099 80.6229H150.286C150.286 82.1105 150.127 83.579 150.006 84.0813C149.866 84.5326 149.688 84.6598 149.326 84.6598C148.976 84.6598 148.626 84.6089 148.105 84.5199C148.213 84.7615 148.264 84.9903 148.296 85.251C148.328 85.5816 148.347 85.5816 148.575 85.6197C148.887 85.6515 149.205 85.6515 149.586 85.6515C150.146 85.6515 150.686 85.3527 150.826 84.7742C151.055 84.024 151.214 82.7462 151.265 80.8772C151.284 80.5593 151.284 80.2288 151.315 79.8092C151.315 79.6884 151.284 79.6503 151.157 79.6503C151.048 79.6503 150.839 79.682 150.006 79.682H148.118V77.2726H152.136C152.256 79.8219 152.587 82.3076 153.254 84.3864C152.155 85.9948 150.648 87.1137 148.728 88.0037C148.938 88.1118 149.148 88.2834 149.307 88.4741C149.427 88.614 149.478 88.6839 149.567 88.6839C149.618 88.6839 149.707 88.6331 149.847 88.5631C151.417 87.724 152.644 86.764 153.623 85.4671C154.443 87.635 155.422 88.5631 156.172 88.5631C156.942 88.5631 157.38 87.9655 157.59 85.8359C157.609 85.5307 157.609 85.5116 157.329 85.3718Z" fill="white"/>
<path d="M169.262 79.2876H173.63C175.308 79.2876 175.867 79.3194 175.956 79.3194C176.077 79.3194 176.096 79.3003 176.096 79.1604V78.3594C176.096 78.2386 176.077 78.2196 175.956 78.2196C175.867 78.2196 175.308 78.2577 173.63 78.2577H168.925C169.033 77.3486 169.084 76.4077 169.103 75.4224C169.122 74.6213 169.154 74.2844 169.243 74.1128C169.294 73.992 169.351 73.922 169.351 73.7822C169.351 73.6932 169.281 73.6233 169.103 73.5915C168.754 73.5406 168.264 73.5025 167.864 73.4834C167.953 74.0047 167.972 74.4815 167.953 75.4605C167.934 76.4586 167.902 77.3867 167.813 78.2577H163.687C162.009 78.2577 161.449 78.2196 161.36 78.2196C161.239 78.2196 161.22 78.2386 161.22 78.3594V79.1604C161.22 79.3003 161.239 79.3194 161.36 79.3194C161.449 79.3194 162.009 79.2876 163.687 79.2876H167.692C167.501 80.5463 167.183 81.6652 166.681 82.7141C165.664 84.812 163.814 86.662 160.858 87.8889C161.087 88.0479 161.316 88.2386 161.506 88.4802C161.627 88.6518 161.678 88.7281 161.767 88.7281C161.837 88.7281 161.907 88.6963 162.047 88.6391C164.736 87.2914 166.484 85.6321 167.692 83.1528C168.112 82.2755 168.429 81.2837 168.652 80.1967C169.79 83.9538 172.32 86.9989 175.346 88.5882C175.467 88.6582 175.556 88.6963 175.607 88.6963C175.696 88.6963 175.747 88.6264 175.855 88.4357C176.026 88.1559 176.255 87.8953 176.484 87.7046C172.937 86.2996 170.381 82.943 169.262 79.2876Z" fill="white"/>
<path d="M184.011 76.128C184.062 76.128 184.119 76.0963 184.24 76.039L184.71 75.8102C184.92 75.7021 184.939 75.7021 184.869 75.5813C184.488 74.9011 184.068 74.2527 183.559 73.6233C183.47 73.5216 183.42 73.5216 183.229 73.6042L182.79 73.7949C182.58 73.8839 182.561 73.9348 182.631 74.0238C183.083 74.5832 183.591 75.3334 183.909 76.0009C183.941 76.0899 183.96 76.128 184.011 76.128Z" fill="white"/>
<path d="M180.832 79.9361C180.832 80.0568 180.851 80.0759 180.972 80.0759H181.773C181.894 80.0759 181.913 80.0568 181.913 79.9361V77.3296H193.96V79.9361C193.96 80.0568 193.979 80.0759 194.1 80.0759H194.888C195.028 80.0759 195.047 80.0568 195.047 79.9361C195.047 79.8471 195.009 79.6246 195.009 78.067V77.3487C195.009 76.8592 195.047 76.5794 195.047 76.4904C195.047 76.3887 195.028 76.3696 194.888 76.3696C194.799 76.3696 194.189 76.4078 192.479 76.4078H191.741C192.18 75.7593 192.479 75.2381 192.79 74.6405C192.879 74.4815 193.019 74.3099 193.121 74.24C193.21 74.1891 193.241 74.1192 193.241 74.0492C193.241 73.9602 193.191 73.8903 193.051 73.8204C192.771 73.6805 192.402 73.5407 192.021 73.4517C191.97 73.7822 191.881 74.062 191.792 74.2527C191.474 75.0028 191.144 75.6703 190.654 76.4014H183.381C181.684 76.4014 181.074 76.3633 180.972 76.3633C180.851 76.3633 180.832 76.3824 180.832 76.4841C180.832 76.5921 180.87 76.8528 180.87 77.444V78.0543C180.864 79.6055 180.832 79.8343 180.832 79.9361Z" fill="white"/>
<path d="M188.067 75.8295L188.537 75.6578C188.766 75.5498 188.785 75.5498 188.728 75.429C188.448 74.7297 188.08 74.0113 187.641 73.3692C187.571 73.2612 187.52 73.2612 187.342 73.3374L186.872 73.4964C186.681 73.5663 186.624 73.6045 186.713 73.7252C187.113 74.3546 187.444 74.9331 187.724 75.7913C187.787 75.9312 187.825 75.9312 188.067 75.8295Z" fill="white"/>
<path d="M195.448 83.0321C195.359 83.0321 194.818 83.0639 193.178 83.0639H188.531V82.8541C188.531 82.5744 188.531 82.3837 188.55 82.2565C189.65 81.6272 190.54 81.0487 191.246 80.4892C191.646 80.1587 191.805 80.0887 191.977 80.0315C192.085 79.9997 192.148 79.9234 192.148 79.8026C192.148 79.6819 192.04 79.5039 191.799 79.2623C191.519 78.9826 191.411 78.8936 191.309 78.8936C191.239 78.8936 191.188 78.9126 191.131 78.9253C191.08 78.9444 190.96 78.9571 190.68 78.9571H185.785C184.145 78.9571 183.598 78.9253 183.515 78.9253C183.394 78.9253 183.375 78.9444 183.375 79.0652V79.7836C183.375 79.9044 183.394 79.9234 183.515 79.9234C183.604 79.9234 184.145 79.8916 185.785 79.8916H190.489C189.771 80.5019 189.059 81.0105 188.22 81.5C187.959 81.4301 187.66 81.3792 187.33 81.322C187.419 81.7607 187.45 82.282 187.45 83.0512H182.676C181.036 83.0512 180.489 83.0194 180.406 83.0194C180.286 83.0194 180.267 83.0385 180.267 83.1593V83.9285C180.267 84.0493 180.286 84.0684 180.406 84.0684C180.495 84.0684 181.036 84.0366 182.676 84.0366H187.45V87.0626C187.45 87.6221 187.19 87.7429 186.681 87.7429C185.963 87.7429 185.473 87.7111 184.863 87.6348C185.022 87.8446 185.143 88.1751 185.232 88.4422C185.321 88.7918 185.321 88.7727 185.651 88.7727C187.279 88.8109 187.717 88.7219 188.08 88.493C188.429 88.2451 188.55 87.9717 188.55 87.3551C188.55 86.9355 188.531 86.2171 188.531 85.8548V84.0366H193.178C194.818 84.0366 195.365 84.0684 195.448 84.0684C195.569 84.0684 195.588 84.0493 195.588 83.9285V83.1593C195.588 83.0512 195.569 83.0321 195.448 83.0321Z" fill="white"/>
<path d="M21.1571 56.2681C14.018 56.2681 12.5558 53.687 12.5558 46.2872V3.61728H12.7274L30.3688 59.1988H33.3822L51.7101 3.27399H51.8818V50.5974C51.8818 54.7296 50.4196 56.2744 44.1386 56.2744V59.1988H69.0908V56.2744C62.1233 56.2744 60.6611 54.7232 60.6611 50.5974V8.60772C60.6611 4.47551 62.1233 2.93069 68.3216 2.93069V0.0063574H49.3071L34.9397 44.0558H34.768L20.7249 0H0.508789V2.92434C7.47634 2.92434 8.93851 4.47551 8.93851 8.60137V46.2872C8.93851 53.687 7.47634 56.2681 0.508789 56.2681V59.1924H21.1571V56.2681Z" fill="white"/>
<path d="M120.26 11.0998C123.445 5.07945 124.564 2.92434 130.756 2.92434V0H111.055V2.92434C116.477 2.92434 118.366 3.95421 118.366 5.76603C118.366 10.1525 108.124 26.1601 106.49 29.771C105.028 25.8995 94.9644 8.77937 94.9644 5.85503C94.9644 3.78892 97.0306 2.93069 102.193 2.93069V0.0063574H77.7617V2.93069C82.2372 2.93069 83.871 3.61728 86.1914 8.17543L99.3573 34.0749V50.5974C99.3573 54.7296 97.8951 56.2744 90.4063 56.2744V59.1988H117.425V56.2744C109.592 56.2744 108.13 54.7232 108.13 50.5974V34.0749L120.26 11.0998Z" fill="white"/>
<path d="M178.582 0V2.92434C186.929 2.92434 187.787 6.53526 187.787 11.1824V40.2668C187.787 49.9044 183.058 57.3043 170.496 57.3043C161.03 57.3043 156.472 52.3138 156.472 43.1085V8.60772C156.472 4.47551 157.934 2.93069 164.73 2.93069V0.0063574H139.434V2.93069C146.23 2.93069 147.692 4.48187 147.692 8.60772V42.8479C147.692 54.8949 156.211 60.2286 169.459 60.2286C181.85 60.2286 190.883 53.3437 190.883 40.9534V11.1888C190.883 6.54161 191.742 2.93069 199.313 2.93069V0.0063574H178.582V0Z" fill="white"/>
<path d="M506.89 16.828H497.132V22.4224H494.799V16.828H485.288V14.6601H494.799V13.0581H496.356C495.917 12.6195 495.263 12.0855 494.849 11.8185C497.354 10.4326 499.255 8.16939 500.126 5.3722L502.415 5.81085C502.122 6.71358 501.76 7.56545 501.321 8.34103C503.069 9.51077 505.212 11.0683 506.305 12.1109L504.722 13.7892C503.75 12.8165 501.849 11.3289 500.151 10.1147C499.274 11.2844 498.231 12.2571 497.113 13.0581H497.138V14.6665H506.896V16.828H506.89ZM493.928 12.06C493.317 11.4497 492.224 10.5534 491.2 9.79685C490.107 11.4752 488.765 12.9119 487.31 13.9545C486.947 13.5667 485.994 12.7848 485.485 12.4478C487.964 10.9157 489.865 8.33468 490.787 5.32134L493.076 5.82992C492.809 6.6055 492.516 7.36202 492.154 8.0931C493.273 8.84961 494.589 9.79684 495.294 10.4516L493.928 12.06ZM506.184 5.25141H485.917V3.08358H494.799V0.114746H497.132V3.08358H506.184V5.25141Z" fill="white"/>
<path d="M525.504 16.8026C527.646 18.3092 530.78 19.5489 533.749 20.1084C533.24 20.5979 532.579 21.5197 532.242 22.13C529.076 21.2781 525.821 19.6506 523.533 17.5591V22.4478H521.32V17.7307C519.006 19.6761 515.726 21.259 512.681 22.1109C512.338 21.526 511.708 20.6741 511.2 20.191C514.092 19.5807 517.258 18.3156 519.401 16.8089H511.88V14.9081H521.32V13.4269H514.143V11.7231H521.32V10.261H512.954V8.46186H517.945C517.729 7.78163 517.309 6.90433 516.921 6.24954L517.506 6.15418H511.982V4.25972H515.58C515.218 3.31248 514.486 1.9711 513.806 0.973015L515.777 0.318217C516.533 1.36716 517.385 2.8484 517.722 3.79564L516.483 4.25972H519.159V0.0893555H521.276V4.247H523.685V0.0893555H525.828V4.247H528.453L527.531 3.95457C528.116 2.98191 528.867 1.44981 529.235 0.35636L531.568 0.941228C530.914 2.13639 530.182 3.35063 529.547 4.247H533.05V6.14146H528.352C527.887 6.96791 527.404 7.76892 526.991 8.4555H532.147V10.2546H523.533V11.7168H531.003V13.4205H523.533V14.9018H533.12V16.8026H525.504V16.8026ZM519.248 6.14782C519.687 6.85348 520.125 7.73078 520.297 8.31564L519.591 8.46186H524.722C525.084 7.80706 525.478 6.92976 525.79 6.14782H519.248Z" fill="white"/>
<path d="M537.957 1.35449H546.571V3.39517H542.922C542.56 5.24513 542.096 7.04423 541.511 8.74798H546.203V19.4536H541.435V21.329H539.54V13.1091C539.178 13.7194 538.809 14.2788 538.396 14.7874C538.301 14.2025 537.836 12.8421 537.493 12.2318C539.102 10.0639 540.144 6.85352 540.78 3.40153H537.957V1.35449ZM544.257 10.7696H541.435V17.4574H544.257V10.7696ZM560.023 12.1555H557.398V22.4479H555.23V12.1555H551.778C551.657 15.8045 551.021 19.8414 548.396 22.5687C548.008 22.2063 547.182 21.5451 546.667 21.2527C548.981 18.8433 549.54 15.2705 549.661 12.1555H547.156V10.0131H549.686V3.49689H547.811V1.37992H559.54V3.49689H557.398V10.0194H560.023V12.1555ZM555.23 10.0194V3.49689H551.797V10.0194H555.23Z" fill="white"/>
<path d="M583.596 20.0639C584.206 20.0639 584.302 19.6506 584.397 16.5356C584.887 16.9488 585.904 17.3366 586.54 17.5082C586.323 21.3035 585.713 22.2762 583.863 22.2762H581.505C579.413 22.2762 578.803 21.6214 578.803 19.2819V14.9018H574.715C574.207 17.7498 572.236 20.7377 565.713 22.5178C565.37 21.9837 564.715 21.1573 564.181 20.6678C569.801 19.1865 571.721 16.9679 572.331 14.9018H565.91V12.7848H572.598V9.9876H574.861V12.7848H581.161V19.2565C581.161 19.9621 581.282 20.0575 581.867 20.0575H583.596V20.0639ZM573.526 4.29786C573.018 8.16307 571.556 10.4263 565.79 11.6214C565.592 11.0874 565.058 10.2101 564.594 9.79688C569.604 8.91958 570.748 7.24127 571.161 4.29786H567.296V6.85348H565.033V2.28261H574.13V0.0893555H576.444V2.27625H585.713V6.63097H583.329V4.29786H579.044V8.11857C579.044 8.75429 579.165 8.82422 579.966 8.82422H582.522C583.151 8.82422 583.278 8.60808 583.348 7.06962C583.812 7.41291 584.734 7.74985 585.344 7.84521C585.103 10.2037 584.493 10.814 582.789 10.814H579.674C577.341 10.814 576.8 10.2037 576.8 8.13764V4.2915H573.526V4.29786Z" fill="white"/>
<path d="M604.468 11.2845C604.468 12.8421 603.202 14.1072 601.645 14.1072C600.087 14.1072 598.822 12.8421 598.822 11.2845C598.822 9.72701 600.087 8.46191 601.645 8.46191C603.202 8.46191 604.468 9.72701 604.468 11.2845Z" fill="white"/>
<path d="M624.881 7.75642H630.475V9.82253H624.881V11.9904H629.744V18.3858C629.744 19.3076 629.598 19.8924 628.969 20.2357C628.333 20.579 627.411 20.5981 626.146 20.579C626.095 20.0196 625.828 19.1931 625.536 18.6591C626.413 18.6845 627.144 18.6845 627.386 18.6591C627.627 18.6591 627.703 18.5892 627.703 18.3413V14.012H624.881V22.4544H622.738V14.0056H620.087V20.5027H618.066V11.9904H622.738V9.82253H617.023V7.75642H618.702C618.237 7.48942 617.341 7.17156 616.807 6.98084C617.875 5.37245 618.683 2.96941 619.14 0.655371L621.257 1.09402C621.06 1.89503 620.844 2.72148 620.621 3.50342H622.738V0.267578H624.881V3.50342H629.528V5.5441H624.881V7.75642V7.75642ZM622.738 7.75642V5.5441H619.89C619.573 6.37054 619.21 7.15249 618.822 7.75642H622.738ZM634.054 15.7093H631.963V2.2574H634.054V15.7093ZM638.434 0.458295V19.5555C638.434 20.9159 638.142 21.5517 637.341 21.9395C636.565 22.3273 635.199 22.3781 633.374 22.3781C633.279 21.7678 632.961 20.7252 632.643 20.0641C634.003 20.1149 635.319 20.1149 635.733 20.0895C636.12 20.0895 636.241 19.9687 636.241 19.5809V0.458295H638.434Z" fill="white"/>
<path d="M651.104 0.896535C650.449 2.60028 649.623 4.34852 648.694 5.98234V22.4031H646.406V9.55512C645.77 10.4324 645.09 11.2334 644.41 11.9391C644.193 11.3796 643.532 10.1146 643.145 9.60597C645.459 7.31736 647.62 3.77001 648.936 0.216309L651.104 0.896535ZM658.453 6.26842V9.35804H665.071V11.4241H658.453V14.66H665.414V16.777H658.453V22.4222H656.145V6.26842H654.785C653.761 8.16288 652.642 9.86662 651.479 11.1571C651.117 10.7694 650.239 9.96198 649.724 9.62505C651.867 7.38729 653.812 3.88445 654.982 0.381597L657.15 0.966465C656.762 2.01541 656.349 3.08343 655.884 4.10695H665.662V6.27477H658.453V6.26842Z" fill="white"/>
<path d="M690.64 16.4146C689.572 17.241 688.23 18.0229 687.061 18.6523C688.421 19.555 690.08 20.2353 692 20.6231C691.511 21.0363 690.951 21.9136 690.665 22.473C686.361 21.405 683.488 18.9702 681.81 15.2957H679.229V19.3834C680.735 19.1673 682.344 18.8939 683.946 18.6523L684.022 20.6231C680.786 21.1571 677.353 21.7165 674.823 22.1043L674.48 20.0382C675.255 19.9428 676.158 19.8221 677.131 19.6758V15.2957H674.308V13.4012H678.396V11.2843H675.014V9.36437H678.396V7.41905H674.334V8.32178C674.334 12.4794 673.99 18.5379 671.46 22.4794C671.021 22.117 670.023 21.5322 669.464 21.3096C671.873 17.5652 672.064 12.187 672.064 8.31542V1.20801H690.36V7.41269H686.908V9.35801H690.729V11.2779H686.908V13.3949H691.727V15.2893H689L690.64 16.4146ZM674.34 5.46737H688.11V3.15333H674.34V5.46737ZM680.468 9.35801H684.798V7.41269H680.468V9.35801ZM680.468 13.4012H684.798V11.2843H680.468V13.4012ZM683.946 15.2957C684.41 16.1221 684.969 16.8532 685.649 17.508C686.768 16.8532 688.033 16.0013 688.885 15.2957H683.946Z" fill="white"/>
<path d="M231.722 44.5139H226.783V42.4923H231.722V37.2349H233.865V42.4923H238.804V44.5139H233.865V49.7714H231.722V44.5139Z" fill="white"/>
<path d="M259.166 41.2085C260.819 46.2689 263.883 50.382 268.486 52.3019C267.927 52.7914 267.17 53.7386 266.808 54.4189C262.256 52.3019 259.313 48.3604 257.418 43.2047C256.178 47.6103 253.553 51.8188 248.028 54.4189C247.666 53.8086 246.935 53.0076 246.299 52.5244C252.091 49.9942 254.449 45.6141 255.422 41.2085H246.782V38.869H255.835C256.128 36.4342 256.102 34.1011 256.128 32.1558H258.588C258.562 34.1265 258.537 36.4596 258.245 38.869H268.047V41.2021H259.166V41.2085Z" fill="white"/>
<path d="M296.185 47.8511H286.598V51.9134C286.598 53.153 286.28 53.7887 285.282 54.1257C284.284 54.4435 282.847 54.469 280.73 54.469C280.559 53.8332 280.12 52.9114 279.783 52.2821C281.487 52.352 283.19 52.352 283.674 52.3329C284.163 52.3075 284.284 52.2121 284.284 51.8434V47.8511H274.799V45.7595H284.284V44.0812H285.428C286.375 43.5726 287.348 42.9115 288.174 42.2567H278.931V40.2859H290.342L290.832 40.1651L292.294 41.2586C290.832 42.8161 288.696 44.3736 286.604 45.4417V45.7595H296.191V47.8511H296.185ZM277.329 41.6464H275.212V36.0711H278.715C278.276 35.1938 277.52 34.1003 276.82 33.2739L278.766 32.3966C279.643 33.3692 280.616 34.7297 281.029 35.6579L280.152 36.0711H284.653C284.309 35.0984 283.604 33.757 282.949 32.7399L284.92 32.0088C285.746 33.1022 286.572 34.6343 286.89 35.607L285.695 36.0711H289.808C290.66 34.9522 291.607 33.4201 292.167 32.2758L294.551 33.0323C293.845 34.0813 293.044 35.1493 292.288 36.0711H295.816V41.64H293.578V38.0609H277.329V41.6464V41.6464Z" fill="white"/>
<path d="M310.018 33.9352C309.338 35.9759 308.486 38.5061 307.704 40.4069C309.357 42.3268 309.726 44.0051 309.726 45.4673C309.726 46.8532 309.433 47.8767 308.728 48.3598C308.365 48.6014 307.901 48.7731 307.412 48.8493C306.948 48.9002 306.363 48.9002 305.803 48.8748C305.778 48.3153 305.606 47.4635 305.269 46.9295C305.778 46.9803 306.191 46.9803 306.509 46.9549C306.801 46.9549 307.043 46.885 307.265 46.7387C307.609 46.4972 307.704 45.9123 307.704 45.2066C307.704 43.9924 307.316 42.4095 305.733 40.6548C306.344 39.0274 306.973 36.8596 307.437 35.2067H304.831V54.4755H302.834V33.1533H308.187L308.531 33.0834L310.018 33.9352ZM321.696 52.1551C322.135 52.1551 322.23 51.7673 322.281 49.2371C322.72 49.5995 323.616 49.9428 324.201 50.089C324.004 53.3249 323.445 54.1767 321.938 54.1767H320.044C318.194 54.1767 317.755 53.5219 317.755 51.4495V45.5118H315.422C315.079 50.0127 314.087 52.8862 309.51 54.4628C309.313 53.9288 308.734 53.0769 308.27 52.7082C312.186 51.4431 313.012 49.1799 313.26 45.5054H310.292V43.4457H323.864V45.5118H319.897V51.424C319.897 52.0788 319.967 52.1551 320.406 52.1551H321.696ZM315.619 34.857V32.2061H317.806V34.857H323.864V39.4088H321.944V41.138H311.875V39.4088H310.025V34.857H315.619ZM321.773 36.8024H312.04V39.1609H321.773V36.8024Z" fill="white"/>
<path d="M351.639 47.6543H349.109V51.9137H346.82V50.8647H341.639V52.1298C341.639 53.3695 341.321 53.8844 340.495 54.1959C339.668 54.4884 338.403 54.5138 336.356 54.5138C336.236 54.0052 335.892 53.1788 335.581 52.6892C336.916 52.7401 338.378 52.7401 338.766 52.7147C339.204 52.6892 339.351 52.5685 339.351 52.1552V50.8647H331.76V49.161H339.351V47.6543H329.618V45.8806H339.351V44.4947H331.976V42.8864H339.351V41.4496H332.612V36.9741H339.351V35.7345H330.133V33.9099H339.351V32.1299H341.639V33.9036H351.124V35.7281H341.639V36.9678H348.721V41.4433H341.639V42.88H349.109V45.8743H351.639V47.6543ZM339.351 39.9429V38.4808H334.78V39.9429H339.351ZM341.639 38.4808V39.9429H346.433V38.4808H341.639ZM341.639 45.8806H346.82V44.4947H341.639V45.8806ZM346.82 47.6543H341.639V49.161H346.82V47.6543Z" fill="white"/>
<path d="M371.213 48.8236C373.355 50.3302 376.49 51.5699 379.458 52.1293C378.95 52.6188 378.289 53.5406 377.952 54.1509C374.792 53.2991 371.531 51.6716 369.242 49.5801V54.4688H367.03V49.7517C364.716 51.697 361.436 53.28 358.39 54.1319C358.047 53.547 357.418 52.6951 356.909 52.212C359.802 51.6017 362.968 50.3366 365.11 48.8299H357.589V46.9291H367.03V45.4479H359.853V43.7441H367.03V42.2819H358.664V40.4828H363.654C363.438 39.8026 363.019 38.9253 362.631 38.2705L363.216 38.1752H357.691V36.2807H361.289C360.927 35.3335 360.196 33.9921 359.516 32.994L361.486 32.3392C362.243 33.3881 363.095 34.8694 363.432 35.8166L362.192 36.2807H364.868V32.123H366.985V36.2807H369.395V32.123H371.537V36.2807H374.163L373.241 35.9883C373.826 35.0156 374.576 33.4835 374.945 32.3901L377.278 32.9749C376.623 34.1701 375.892 35.3843 375.256 36.2807H378.759V38.1752H374.061C373.597 39.0016 373.114 39.8026 372.701 40.4892H377.856V42.2883H369.242V43.7505H376.712V45.4542H369.242V46.9354H378.829V48.8363H371.213V48.8236ZM364.964 38.1624C365.402 38.8681 365.841 39.7454 366.013 40.3303L365.307 40.4765H370.437C370.8 39.8217 371.194 38.9444 371.505 38.1624H364.964Z" fill="white"/>
<path d="M391.811 46.7516C391.493 45.976 390.787 44.6346 390.158 43.4903V54.4375H388.066V44.1515C387.335 46.4655 386.439 48.6015 385.466 49.9874C385.25 49.3771 384.709 48.5252 384.398 48.0421C385.835 46.0459 387.221 42.4477 387.875 39.3581H384.907V37.2665H388.072V32.1299H390.164V37.2665H392.764V39.3581H390.164V40.7948C390.844 41.6976 392.643 44.4439 393.037 45.0987L391.811 46.7516ZM407.138 50.5723H405.707V52.1807C405.707 53.2042 405.491 53.7128 404.786 54.0561C404.08 54.3231 402.987 54.3485 401.429 54.3485C401.334 53.8145 401.067 53.0325 400.819 52.524C401.842 52.5748 402.885 52.5748 403.203 52.5494C403.495 52.5494 403.591 52.454 403.591 52.1616V50.5786H395.975V54.3485H393.908V50.5786H392.351V48.8749H393.908V42.791H398.676V41.5958H392.764V39.9175H395.949V38.5571H393.807V36.9741H395.949V35.6391H393.298V34.0116H395.949V32.1299H398.066V34.0053H401.397V32.1299H403.514V34.0053H406.407V35.6327H403.514V36.9678H406.044V38.5507H403.514V39.9112H406.896V41.5895H400.717V42.7846H405.707V48.8685H407.144V50.5723H407.138ZM395.975 44.4185V45.8043H398.676V44.4185H395.975ZM395.975 48.8685H398.676V47.3619H395.975V48.8685ZM398.066 36.9741H401.397V35.6391H398.066V36.9741ZM398.066 39.9175H401.397V38.5571H398.066V39.9175ZM400.717 44.4185V45.8043H403.591V44.4185H400.717ZM403.591 48.8685V47.3619H400.717V48.8685H403.591Z" fill="white"/>
<path d="M417.278 46.414V40.7243C416.331 42.4789 415.161 44.0555 413.972 45.079C413.629 44.5704 412.949 43.8648 412.491 43.4706C414.195 42.2564 415.899 39.9169 416.916 37.6092H413.07V35.6893H417.278V32.2119H419.421V35.6893H423.07V37.6092H419.421V38.779C420.342 39.3384 422.752 41.093 423.388 41.5507L422.173 43.4007C421.588 42.7904 420.419 41.7224 419.427 40.8705V46.3949L417.278 46.414ZM412.752 52.1546C413.699 50.8641 414.506 48.8488 414.964 47.1642L416.96 47.9652C416.471 49.6435 415.695 51.8113 414.793 53.1718L412.752 52.1546ZM426.617 51.9321C427.761 51.9321 427.933 51.5888 428.079 49.1604C428.569 49.5227 429.491 49.8406 430.12 49.9868C429.802 53.1972 429.173 53.9537 426.789 53.9537H422.046C419.128 53.9537 418.372 53.3434 418.372 51.2074V47.5774H420.609V51.1756C420.609 51.8304 420.851 51.9321 422.237 51.9321H426.617ZM423.241 45.7338C424.335 46.7573 425.822 48.194 426.573 49.065L424.92 50.4509C424.239 49.5481 422.777 48.0415 421.684 46.948L423.241 45.7338ZM433.674 46.1216H424.061V33.3944H433.674V46.1216ZM431.512 35.2189H426.134V37.0689H431.512V35.2189ZM431.512 38.798H426.134V40.6925H431.512V38.798ZM431.512 42.3962H426.134V44.3161H431.512V42.3962ZM431.97 46.8018C432.968 48.3085 434.303 50.3809 434.939 51.6206L432.847 52.6886C432.262 51.4235 430.972 49.2811 429.999 47.7236L431.97 46.8018Z" fill="white"/>
<path d="M461.67 47.8511H452.083V51.9134C452.083 53.153 451.765 53.7887 450.767 54.1257C449.769 54.4435 448.332 54.469 446.215 54.469C446.044 53.8332 445.605 52.9114 445.268 52.2821C446.972 52.352 448.676 52.352 449.159 52.3329C449.648 52.3075 449.769 52.2121 449.769 51.8434V47.8511H440.284V45.7595H449.769V44.0812H450.913C451.861 43.5726 452.833 42.9115 453.66 42.2567H444.416V40.2859H455.828L456.317 40.1651L457.779 41.2586C456.317 42.8161 454.181 44.3736 452.09 45.4417V45.7595H461.676V47.8511H461.67ZM442.814 41.6464H440.697V36.0711H444.2C443.762 35.1938 443.005 34.1003 442.306 33.2739L444.251 32.3966C445.128 33.3692 446.101 34.7297 446.514 35.6579L445.637 36.0711H450.138C449.795 35.0984 449.089 33.757 448.434 32.7399L450.405 32.0088C451.231 33.1022 452.058 34.6343 452.376 35.607L451.181 36.0711H455.294C456.146 34.9522 457.093 33.4201 457.652 32.2758L460.036 33.0323C459.331 34.0813 458.53 35.1493 457.773 36.0711H461.301V41.64H459.063V38.0609H442.814V41.6464V41.6464Z" fill="white"/>
<path d="M467.595 33.376H476.21V35.4167H472.56C472.198 37.2666 471.734 39.0657 471.149 40.7695H475.847V51.4751H471.079V53.3505H469.185V45.1242C468.822 45.7345 468.454 46.2939 468.04 46.8025C467.945 46.2176 467.481 44.8572 467.138 44.2469C468.746 42.0791 469.789 38.8686 470.424 35.4167H467.602V33.376H467.595ZM473.895 42.7911H471.073V49.4789H473.895V42.7911ZM489.661 44.177H487.036V54.4693H484.868V44.177H481.416C481.295 47.826 480.66 51.8629 478.034 54.5901C477.646 54.2278 476.82 53.5666 476.305 53.2742C478.619 50.8648 479.178 47.292 479.299 44.177H476.794V42.0346H479.325V35.512H477.449V33.395H489.178V35.512H487.036V42.0346H489.661V44.177ZM484.868 42.0346V35.512H481.435V42.0346H484.868Z" fill="white"/>
<path d="M514.907 52.0785C515.517 52.0785 515.612 51.6653 515.708 48.5502C516.197 48.9634 517.214 49.3512 517.85 49.5229C517.634 53.3181 517.024 54.2908 515.174 54.2908H512.815C510.724 54.2908 510.113 53.636 510.113 51.2965V46.9164H506.026C505.517 49.7644 503.546 52.7524 497.024 54.5324C496.681 53.9984 496.026 53.1719 495.492 52.6824C501.112 51.2012 503.031 48.9825 503.642 46.9164H497.221V44.7994H503.909V42.0022H506.172V44.7994H512.472V51.2711C512.472 51.9768 512.593 52.0721 513.178 52.0721H514.907V52.0785ZM504.837 36.3188C504.328 40.1841 502.866 42.4472 497.1 43.6424C496.903 43.1084 496.369 42.2311 495.905 41.8179C500.914 40.9406 502.059 39.2623 502.472 36.3188H498.607V38.8745H496.344V34.3036H505.441V32.1167H507.755V34.3036H517.024V38.6583H514.64V36.3252H510.355V40.1459C510.355 40.7816 510.476 40.8516 511.277 40.8516H513.832C514.462 40.8516 514.589 40.6354 514.659 39.097C515.123 39.4403 516.045 39.7772 516.655 39.8725C516.413 42.2311 515.803 42.8414 514.099 42.8414H510.984C508.651 42.8414 508.111 42.2311 508.111 40.165V36.3188H504.837V36.3188Z" fill="white"/>
<path d="M532.001 47.0186C531.658 46.2875 530.832 44.927 530.1 43.8082V54.4375H527.914V44.5901C527.011 46.8024 525.917 48.8749 524.799 50.2608C524.582 49.6505 524.042 48.7287 523.705 48.1692C525.142 46.5164 526.699 43.6174 527.596 41.0428H524.017V38.9258H527.907V35.6645C526.858 35.8616 525.816 36.0078 524.843 36.154C524.773 35.6645 524.455 34.8635 524.214 34.3994C526.941 33.9608 530.05 33.2551 531.95 32.4287L533.241 34.2786C532.319 34.641 531.245 34.9334 530.1 35.2004V38.9194H533.508V41.0364H530.1V41.3797C530.832 42.1362 532.898 44.6155 533.362 45.2449L532.001 47.0186ZM543.413 48.2137V54.4439H541.175V48.6079L533.514 49.8984L533.171 47.7306L541.175 46.3956V32.1299H543.413V46.0205L546.064 45.5818L546.407 47.6988L543.413 48.2137ZM538.111 44.927C537.31 43.8781 535.53 42.3269 534.048 41.3034L535.485 39.9875C536.947 40.9601 538.791 42.4223 539.643 43.4394L538.111 44.927ZM538.715 38.5316C537.983 37.5081 536.331 36.0269 534.945 35.0034L536.426 33.7128C537.812 34.6601 539.49 36.0714 540.291 37.0949L538.715 38.5316Z" fill="white"/>
<path d="M566.425 32.8351C565.891 34.418 565.256 36.0201 564.55 37.5776V54.437H562.407V41.5445C561.772 42.5426 561.142 43.439 560.462 44.2464C560.265 43.6869 559.661 42.4218 559.318 41.8624C561.339 39.5038 563.209 35.8993 564.327 32.2502L566.425 32.8351ZM579.998 36.5096C579.222 38.0162 578.199 39.3068 576.978 40.4002C578.561 41.2521 580.456 41.9069 582.674 42.2947C582.287 42.7588 581.702 43.5852 581.435 44.1446C579.051 43.6106 577.029 42.7079 575.351 41.6399C573.647 42.8096 571.651 43.6806 569.489 44.3417C569.273 43.9285 568.714 43.1974 568.294 42.7333V50.4447H566.324V35.0728H568.294V38.3087C570.049 36.7512 571.581 34.488 572.452 32.104L574.518 32.6126C574.251 33.3182 573.933 33.9985 573.571 34.6787H581.892V36.5032H579.998V36.5096ZM568.301 42.5426C570.297 42.0531 572.121 41.3474 573.679 40.4002C572.776 39.6437 572.051 38.8427 571.441 38.0162C570.856 38.7473 570.246 39.3767 569.642 39.9361C569.35 39.6691 568.765 39.2051 568.307 38.8681V42.5426H568.301ZM581.994 48.8935C579.559 51.767 575.135 53.4453 570.1 54.3417C569.858 53.8077 569.369 53.0257 568.93 52.568C573.628 51.8878 577.932 50.4765 580.049 48.0925L581.994 48.8935ZM577.398 43.8331C575.891 45.3398 573.456 46.5604 571.193 47.2851C570.901 46.8973 570.392 46.3125 569.954 45.9692C572.045 45.3843 574.429 44.3417 575.694 43.1211L577.398 43.8331ZM579.687 46.0709C577.811 48.137 574.601 49.5992 571.339 50.4765C571.072 50.0378 570.608 49.4085 570.221 49.0143C573.24 48.3341 576.4 47.069 578.008 45.3907L579.687 46.0709ZM572.535 36.5096L572.509 36.535C573.164 37.5077 574.067 38.4549 575.236 39.3068C576.209 38.5058 577.01 37.5776 577.646 36.5096H572.535Z" fill="white"/>
<path d="M599.261 41.8373V50.9854H607.703V53.2486H588.606V50.9854H596.851V41.8373H587.265V39.5996H596.851V32.1807H599.261V39.5996H608.994V41.8373H599.261Z" fill="white"/>
<path d="M622.999 39.7716H628.593V41.8377H622.999V44.0055H627.862V50.4009C627.862 51.3227 627.716 51.9076 627.087 52.2509C626.451 52.5941 625.529 52.6132 624.264 52.5941C624.213 52.0347 623.946 51.2083 623.654 50.6743C624.531 50.6997 625.262 50.6997 625.504 50.6743C625.745 50.6743 625.822 50.6043 625.822 50.3564V46.0271H622.999V54.4695H620.857V46.0207H618.206V52.5179H616.184V44.0055H620.857V41.8377H615.141V39.7716H616.82C616.356 39.5046 615.459 39.1867 614.919 38.996C615.987 37.3876 616.794 34.9845 617.252 32.6705L619.369 33.1092C619.172 33.9102 618.956 34.7366 618.733 35.5186H620.85V32.2827H622.993V35.5186H627.64V37.5592H622.993V39.7716H622.999ZM620.857 39.7716V37.5592H618.009C617.691 38.3857 617.328 39.1676 616.941 39.7716H620.857ZM632.173 47.7245H630.081V34.2725H632.173V47.7245ZM636.546 32.4734V51.5706C636.546 52.9311 636.254 53.5668 635.453 53.9546C634.677 54.3424 633.31 54.3932 631.486 54.3932C631.391 53.783 631.073 52.7404 630.755 52.0792C632.115 52.1301 633.431 52.1301 633.844 52.1046C634.232 52.1046 634.353 51.9838 634.353 51.5961V32.4734H636.546Z" fill="white"/>
<path d="M650.404 32.9117C649.749 34.6154 648.923 36.3637 647.995 37.9975V54.4183H645.706V41.5703C645.07 42.4476 644.39 43.2486 643.71 43.9542C643.494 43.3948 642.833 42.1297 642.445 41.6211C644.759 39.3325 646.92 35.7852 648.236 32.2314L650.404 32.9117ZM657.753 38.2899V41.3795H664.371V43.4456H657.753V46.6815H664.714V48.7985H657.753V54.4437H655.439V38.2899H654.079C653.055 40.1844 651.936 41.8881 650.766 43.1786C650.404 42.7908 649.527 41.9835 649.018 41.6465C651.161 39.4088 653.106 35.9059 654.276 32.4031L656.444 32.988C656.056 34.0369 655.643 35.1049 655.178 36.1284H664.956V38.2963H657.753V38.2899Z" fill="white"/>
<path d="M690.64 48.4297C689.572 49.2561 688.23 50.0381 687.061 50.6674C688.421 51.5702 690.08 52.2504 692 52.6382C691.511 53.0514 690.951 53.9287 690.665 54.4882C686.361 53.4201 683.488 50.9853 681.81 47.3108H679.229V51.3985C680.735 51.1824 682.344 50.909 683.946 50.6674L684.022 52.6382C680.786 53.1722 677.353 53.7316 674.823 54.1194L674.48 52.0533C675.255 51.958 676.158 51.8372 677.131 51.691V47.3108H674.308V45.4163H678.396V43.2994H675.014V41.3795H678.396V39.4342H674.334V40.3369C674.334 44.4945 673.99 50.553 671.46 54.4945C671.021 54.1321 670.023 53.5473 669.464 53.3248C671.873 49.5804 672.064 44.2021 672.064 40.3305V33.2295H690.36V39.4342H686.908V41.3795H690.729V43.2994H686.908V45.4163H691.727V47.3108H689L690.64 48.4297ZM674.34 37.4825H688.11V35.1685H674.34V37.4825ZM680.468 41.3795H684.798V39.4342H680.468V41.3795ZM680.468 45.4163H684.798V43.2994H680.468V45.4163ZM683.946 47.3108C684.41 48.1373 684.969 48.8683 685.649 49.5231C686.768 48.8683 688.033 48.0165 688.885 47.3108H683.946Z" fill="white"/>
<path d="M235.791 9.05321V9.96865H226.789V9.05321H230.8V6.72009H227.914V5.81736H230.8V3.7894H228.55C228.238 4.3997 227.901 4.9337 227.545 5.35964C227.355 5.19435 226.935 4.92099 226.687 4.79384C227.507 3.92926 228.149 2.54338 228.524 1.12571L229.497 1.34821C229.344 1.86315 229.16 2.38444 228.969 2.8676H230.807V0.979492H231.779V2.8676H235.307V3.7894H231.779V5.81736H234.932V6.72009H231.779V9.05321H235.791Z" fill="white"/>
<path d="M238.95 5.6398C238.537 5.35372 237.691 4.87057 237.087 4.55271L237.602 3.85341C238.181 4.13949 239.039 4.5845 239.465 4.85786L238.95 5.6398ZM237.284 9.52408C237.825 8.76121 238.6 7.46433 239.192 6.32003L239.872 6.9494C239.357 7.99199 238.677 9.21258 238.079 10.1535L237.284 9.52408ZM239.427 2.89982C239.014 2.60739 238.168 2.11788 237.571 1.7873L238.098 1.11979C238.683 1.40587 239.548 1.85723 239.986 2.14331L239.427 2.89982ZM243.642 4.81971V6.32003H245.733V10.2234H244.843V9.8483H241.487V10.2742H240.622V6.32003H242.752V4.81971H239.935V3.91698H242.752V2.48024C242.04 2.59468 241.315 2.67096 240.641 2.72182C240.603 2.49932 240.482 2.14331 240.368 1.93352C242.103 1.74916 244.068 1.42494 245.18 1.01172L245.918 1.7428C245.269 1.98438 244.481 2.18145 243.635 2.32767V3.91698H246.324V4.81971H243.642V4.81971ZM244.837 7.1719H241.48V8.99643H244.837V7.1719Z" fill="white"/>
<path d="M250.921 7.89032C249.783 8.22726 248.569 8.57691 247.628 8.8312L247.424 7.94118C247.799 7.85218 248.257 7.73775 248.74 7.61696V5.41735H247.647V4.58455H248.74V2.51844H247.545V1.68564H250.73V2.51844H249.592V4.58455H250.578V5.41735H249.592V7.38174C249.999 7.26731 250.412 7.15924 250.819 7.04481L250.921 7.89032ZM256.598 7.92847C256.191 8.23362 255.682 8.53876 255.282 8.7422C255.727 9.0982 256.242 9.37792 256.814 9.54321C256.604 9.71485 256.35 10.0581 256.204 10.2807C255.059 9.83564 254.144 8.94563 253.565 7.83947L253.483 7.9094V10.2807H252.599V8.59598C251.919 9.06006 251.162 9.46057 250.469 9.72121C250.349 9.5305 250.094 9.21263 249.91 9.06006C250.965 8.72312 252.148 8.0874 252.981 7.39446H251.239V5.1567H256.153V7.39446H254.144C254.309 7.70596 254.519 8.00475 254.773 8.27812C255.161 8.0429 255.644 7.68053 255.93 7.43896L256.598 7.92847ZM250.616 3.91704H256.801V4.68627H250.616V3.91704ZM256.363 3.45932H251.08V1.29785H256.363V3.45932ZM252.644 1.95901H251.855V2.79181H252.644V1.95901ZM252.078 6.70152H255.288V5.84965H252.078V6.70152ZM254.093 1.95901H253.273V2.79181H254.093V1.95901ZM255.562 1.95901H254.729V2.79181H255.562V1.95901Z" fill="white"/>
<path d="M261.322 7.24185C260.26 7.75679 259.09 8.29715 258.2 8.71038L257.863 7.77586C258.226 7.64236 258.683 7.45164 259.173 7.24821V4.27937H258.067V3.39571H259.173V1.09438H260.044V3.39571H261.036V4.27937H260.044V6.86677L261.105 6.40269L261.322 7.24185ZM266.299 9.40967C266.49 9.40967 266.535 9.29524 266.56 8.4688C266.732 8.60866 267.107 8.74216 267.342 8.80573C267.259 9.94368 267.03 10.2234 266.388 10.2234H265.486C264.666 10.2234 264.481 9.96911 264.481 9.16174V7.78222H263.566C263.324 9.02188 262.701 9.82925 260.838 10.2933C260.749 10.0708 260.495 9.67668 260.324 9.50503C261.926 9.19353 262.434 8.63409 262.644 7.78222H261.69V4.69259H266.687V7.78222H265.371V9.14902C265.371 9.38424 265.403 9.40967 265.625 9.40967H266.299V9.40967ZM267.221 4.20944H261.048V3.44021H262.587C262.523 3.16685 262.396 2.81084 262.25 2.55019L262.695 2.44848H261.334V1.71104H263.623V0.999023H264.545V1.71104H266.999V2.44848H265.664L266.102 2.53748C265.918 2.8617 265.765 3.18592 265.625 3.44021H267.215V4.20944H267.221ZM262.587 5.93225H265.778V5.29653H262.587V5.93225ZM262.587 7.17192H265.778V6.52348H262.587V7.17192ZM263.114 2.44848C263.28 2.74091 263.42 3.10963 263.47 3.36392L263.159 3.44657H264.971L264.748 3.39571C264.882 3.13506 265.053 2.74727 265.155 2.45484H263.114V2.44848Z" fill="white"/>
<path d="M269.682 4.58438H276.319C276.528 4.58438 276.903 4.57167 277.17 4.53352V5.57611C276.929 5.5634 276.579 5.55704 276.319 5.55704H273.706C273.668 6.63142 273.464 7.52143 273.076 8.25252C272.714 8.9391 271.938 9.68926 271.061 10.147L270.127 9.4604C270.877 9.15525 271.608 8.57038 272.002 7.94737C272.441 7.26714 272.568 6.46613 272.612 5.55704H269.682C269.376 5.55704 269.046 5.56976 268.76 5.58883V4.53352C269.046 4.56531 269.37 4.58438 269.682 4.58438ZM270.94 2.02877H274.367C274.678 2.02877 275.066 2.00969 275.378 1.96519V3.00778C275.053 2.98871 274.691 2.96964 274.367 2.96964H270.953C270.61 2.96964 270.235 2.98871 269.961 3.00778V1.96519C270.26 2.00969 270.61 2.02877 270.94 2.02877ZM276.757 2.5882L276.09 2.87428C275.886 2.46742 275.562 1.86348 275.289 1.47568L275.937 1.20232C276.191 1.56469 276.56 2.19405 276.757 2.5882ZM277.927 2.1432L277.266 2.43563C277.056 1.99698 276.719 1.42483 276.433 1.03703L277.081 0.763672C277.355 1.15146 277.743 1.77448 277.927 2.1432Z" fill="white"/>
<path d="M282.682 10.1916L281.817 9.39055C283.711 8.69125 284.608 7.82031 284.608 5.13119V4.72433H281.944V6.24371C281.944 6.65057 281.976 7.08287 281.982 7.22908H280.857C280.876 7.08922 280.908 6.66329 280.908 6.24371V4.72433H279.916C279.439 4.72433 279.026 4.7434 278.861 4.75611V3.66266C278.994 3.68174 279.446 3.74531 279.916 3.74531H280.908V2.56922C280.908 2.32764 280.889 2.02249 280.857 1.75549H281.995C281.976 1.89535 281.944 2.20049 281.944 2.57557V3.73895H284.608V2.56922C284.608 2.16235 284.576 1.83177 284.557 1.68556H285.701C285.689 1.82542 285.65 2.16235 285.65 2.56922V3.74531H286.591C287.087 3.74531 287.411 3.71352 287.602 3.68174V4.75611C287.449 4.73704 287.087 4.72433 286.598 4.72433H285.644V5.06762C285.65 7.68681 285.053 9.13626 282.682 10.1916ZM287.138 3.07144L286.553 3.27487C286.401 2.83622 286.197 2.26407 285.994 1.86356L286.572 1.6792C286.757 2.06063 287.004 2.67729 287.138 3.07144ZM288.174 2.75993L287.589 2.95065C287.437 2.50564 287.227 1.93985 287.024 1.53934L287.602 1.35498C287.786 1.74913 288.041 2.35307 288.174 2.75993Z" fill="white"/>
<path d="M294.03 3.8342C295.085 3.18576 296.159 2.24489 296.846 1.4248L297.698 2.23853C296.929 3.02048 295.975 3.80242 294.97 4.45722V8.66572C294.97 9.07894 294.99 9.63838 295.04 9.86088H293.782C293.813 9.63838 293.845 9.07894 293.845 8.66572V5.13744C292.784 5.71595 291.442 6.30082 290.107 6.70768L289.611 5.70324C291.385 5.22644 292.904 4.5335 294.03 3.8342Z" fill="white"/>
<path d="M304.583 7.29227C306.217 6.28782 307.482 4.76844 308.098 3.47156L308.715 4.57772C307.984 5.89368 306.738 7.2732 305.155 8.24586C304.131 8.87523 302.841 9.47281 301.271 9.75888L300.59 8.7163C302.294 8.45565 303.61 7.88985 304.583 7.29227ZM304.239 4.05007L303.438 4.87016C302.911 4.33615 301.652 3.22999 300.902 2.7214L301.639 1.93311C302.351 2.40354 303.674 3.45885 304.239 4.05007Z" fill="white"/>
<path d="M312.573 2.48642H317.615C317.888 2.48642 318.244 2.47371 318.428 2.46735C318.416 2.68986 318.409 3.05222 318.409 3.31922V8.5576C318.409 8.91361 318.428 9.40948 318.447 9.63198H317.29C317.29 9.49212 317.303 9.29505 317.303 9.08526H312.497C312.084 9.08526 311.575 9.10433 311.283 9.1234V7.97909C311.575 7.99816 312.02 8.02995 312.459 8.02995H317.316V3.50994H312.58C312.185 3.50994 311.664 3.52901 311.404 3.54809V2.42285C311.747 2.45464 312.236 2.48642 312.573 2.48642Z" fill="white"/>
<path d="M322.656 5.02305H328.168C328.657 5.02305 329.052 4.9849 329.306 4.95947V6.21821C329.083 6.2055 328.619 6.16735 328.168 6.16735H322.656C322.097 6.16735 321.493 6.18642 321.143 6.21821V4.95947C321.48 4.97854 322.109 5.02305 322.656 5.02305Z" fill="white"/>
<path d="M338.575 3.18562C338.219 4.01842 337.621 5.16272 336.909 6.07181C337.952 6.96183 339.179 8.27142 339.808 9.04065L338.918 9.82895C338.25 8.9135 337.233 7.80098 336.229 6.86647C335.142 8.02349 333.775 9.10422 332.325 9.78445L331.505 8.92622C333.146 8.29685 334.671 7.08262 335.669 5.95738C336.356 5.18815 337.036 4.06928 337.284 3.28098H333.565C333.171 3.28098 332.624 3.33183 332.459 3.34455V2.20024C332.662 2.23203 333.247 2.27017 333.565 2.27017H337.329C337.704 2.27017 338.041 2.23203 338.212 2.16846L338.873 2.65797C338.797 2.75968 338.645 3.01397 338.575 3.18562Z" fill="white"/>
<path d="M347.291 5.62678C347.291 6.27522 346.763 6.80287 346.115 6.80287C345.466 6.80287 344.938 6.27522 344.938 5.62678C344.938 4.97834 345.466 4.45068 346.115 4.45068C346.763 4.45068 347.291 4.97834 347.291 5.62678Z" fill="white"/>
<path d="M356.84 6.67572H354.042V4.53968H356.84V6.43414C357.253 6.16078 357.641 5.82385 357.984 5.44241C357.609 4.69225 357.323 3.75774 357.145 2.72786H353.629V3.49073C353.629 4.6859 353.445 6.37693 352.517 7.51488C352.377 7.34323 352.008 7.03808 351.83 6.93637C352.669 5.91285 352.771 4.50154 352.771 3.47802V1.96499H357.037C356.999 1.64077 356.967 1.31655 356.954 0.979618H357.844C357.857 1.31655 357.876 1.64077 357.914 1.96499H359.446C359.122 1.77427 358.709 1.57084 358.353 1.43734L358.817 0.896973C359.313 1.04955 359.923 1.33562 360.253 1.58356L359.942 1.95863H360.965V2.72151H358.035C358.168 3.43988 358.359 4.08832 358.594 4.63504C358.887 4.17096 359.135 3.64967 359.313 3.10294L360.203 3.30637C359.91 4.12646 359.516 4.87662 359.039 5.52506C359.395 6.08449 359.777 6.40871 360.133 6.40871C360.368 6.40871 360.47 6.06542 360.52 5.16905C360.711 5.33434 361.016 5.50598 361.252 5.58227C361.112 6.91094 360.794 7.25423 360.088 7.25423C359.491 7.25423 358.931 6.86644 358.467 6.218C358.124 6.574 357.755 6.89822 357.361 7.15887C357.272 7.02537 357.037 6.79651 356.846 6.63122V6.67572H356.84ZM351.894 9.5492C352.542 9.09148 352.968 8.34132 353.203 7.59116L354.036 7.8836C353.782 8.69733 353.388 9.5492 352.688 10.0705L351.894 9.5492ZM356.96 3.93574H353.928V3.30637H356.96V3.93574ZM357.66 9.30762C358.073 9.30762 358.149 9.18683 358.187 8.31589C358.378 8.45575 358.785 8.60197 359.026 8.65918C358.912 9.85435 358.639 10.1468 357.749 10.1468H355.937C354.78 10.1468 354.5 9.89249 354.5 9.00883V7.55938H355.435V8.99612C355.435 9.25676 355.517 9.30127 356.032 9.30127H357.66V9.30762ZM356.058 5.17541H354.812V6.03999H356.058V5.17541ZM355.943 6.73293C356.541 7.03808 357.259 7.52123 357.596 7.90903L356.935 8.48754C356.623 8.09974 355.924 7.58481 355.32 7.26059L355.943 6.73293ZM359.503 7.47673C360.203 8.05524 360.921 8.88804 361.226 9.52377L360.362 9.96878C360.107 9.35212 359.408 8.48754 358.728 7.87724L359.503 7.47673Z" fill="white"/>
<path d="M362.211 5.50635C362.465 4.82613 362.65 3.71361 362.72 2.89352L363.406 2.99524C363.355 3.82804 363.171 5.00413 362.929 5.75429L362.211 5.50635ZM371.556 9.04735V9.93736H365.345V9.04735H368.161V6.74602H366.102V5.86236H368.161V3.95518H366.845C366.655 4.52098 366.432 5.04228 366.197 5.4555C366.006 5.32199 365.587 5.1122 365.358 5.01685C365.491 4.81341 365.618 4.5782 365.733 4.31755L365.167 4.59091C365.078 4.18405 364.811 3.53561 364.557 3.0016V10.2679H363.616V0.973633H364.557V2.84902L365.154 2.60745C365.409 3.08424 365.688 3.70089 365.815 4.12683C366.127 3.33853 366.356 2.38494 366.483 1.43135L367.405 1.58393C367.335 2.09251 367.22 2.58837 367.1 3.06517H368.161V1.01813H369.102V3.06517H371.289V3.95518H369.102V5.86236H371.067V6.74602H369.102V9.04735H371.556Z" fill="white"/>
<path d="M372.663 5.55086C372.872 4.86427 373.038 3.73904 373.101 2.94438L373.781 3.02703C373.75 3.82804 373.591 5.01685 373.375 5.77336L372.663 5.55086ZM375.294 4.13955C375.193 3.78354 374.983 3.18596 374.78 2.72188V10.2743H373.915V0.986346H374.78V2.63923L375.364 2.40402C375.568 2.86174 375.828 3.45932 375.93 3.8344L375.294 4.13955ZM382.059 4.20312V4.90242H375.492V4.20312H378.27V3.61825H376.038V2.95074H378.27V2.42309H375.797V1.72379H378.27V0.973633H379.204V1.72379H381.766V2.42309H379.204V2.95074H381.506V3.61189H379.204V4.19676H382.059V4.20312ZM381.315 9.30799C381.315 9.73393 381.226 9.97551 380.921 10.109C380.609 10.2425 380.132 10.2489 379.433 10.2489C379.395 10.0136 379.274 9.664 379.16 9.43514C379.624 9.46693 380.113 9.45421 380.247 9.45421C380.387 9.4415 380.431 9.40335 380.431 9.28256V8.73584H377.075V10.2679H376.204V5.39192H381.321V9.30799H381.315ZM377.068 6.10394V6.73331H380.425V6.10394H377.068ZM380.425 8.06197V7.4326H377.068V8.06197H380.425Z" fill="white"/>
<path d="M385.968 3.62457H387.742V4.42558H386.801L387.239 4.54001C387.068 4.96595 386.883 5.41096 386.725 5.73518H387.627V6.54891H385.974V7.50249H387.494V8.30351H385.974V10.2615H385.091V8.30351H383.501V7.50249H385.091V6.54891H383.406V5.73518H384.29C384.239 5.39189 384.086 4.91509 383.902 4.54001L384.315 4.42558H383.228V3.62457H385.084V2.74091H383.597V1.95261H385.084V0.999023H385.968V1.95261H387.367V2.74091H385.968V3.62457V3.62457ZM385.993 5.63982C386.133 5.29653 386.318 4.78795 386.419 4.42558H384.665C384.849 4.81973 385.021 5.3156 385.059 5.63982L384.722 5.72882H386.337L385.993 5.63982ZM392.287 5.02317C392.084 6.23104 391.702 7.36264 391.143 8.32894C391.581 8.83752 392.084 9.25074 392.656 9.53682C392.452 9.70846 392.166 10.0518 392.026 10.287C391.512 9.98182 391.041 9.57496 390.628 9.09181C390.272 9.55589 389.859 9.96275 389.388 10.2997C389.267 10.128 389.064 9.90554 388.873 9.75296V10.2933H388.021V1.42496H392.058V3.33849C392.058 3.77714 391.969 4.01872 391.613 4.15222C391.276 4.28572 390.761 4.28572 389.998 4.28572C389.96 4.04415 389.84 3.70086 389.712 3.472C390.291 3.49107 390.825 3.49107 390.978 3.48471C391.13 3.472 391.168 3.44657 391.168 3.33214V2.2514H388.867V4.84516H391.556L391.709 4.80702L392.287 5.02317ZM388.867 9.57496C389.331 9.25074 389.731 8.83752 390.075 8.36072C389.56 7.55971 389.159 6.62519 388.867 5.62075V9.57496ZM389.662 5.62075C389.884 6.30733 390.189 6.96849 390.564 7.56607C390.889 6.95577 391.124 6.30097 391.283 5.62075H389.662Z" fill="white"/>
<path d="M394.97 4.58438H401.607C401.816 4.58438 402.192 4.57167 402.459 4.53352V5.57611C402.217 5.5634 401.867 5.55704 401.607 5.55704H398.994C398.956 6.63142 398.752 7.52143 398.364 8.25252C398.002 8.9391 397.227 9.68926 396.349 10.147L395.415 9.4604C396.165 9.15525 396.896 8.57038 397.29 7.94737C397.729 7.26714 397.856 6.46613 397.9 5.55704H394.97C394.665 5.55704 394.334 5.56976 394.048 5.58883V4.53352C394.334 4.56531 394.658 4.58438 394.97 4.58438ZM396.228 2.02877H399.655C399.966 2.02877 400.354 2.00969 400.666 1.96519V3.00778C400.342 2.98871 399.979 2.96964 399.655 2.96964H396.241C395.898 2.96964 395.523 2.98871 395.249 3.00778V1.96519C395.548 2.00969 395.891 2.02877 396.228 2.02877ZM402.045 2.5882L401.378 2.87428C401.174 2.46742 400.85 1.86348 400.577 1.47568L401.225 1.20232C401.48 1.56469 401.842 2.19405 402.045 2.5882ZM403.215 2.1432L402.554 2.43563C402.344 1.99698 402.007 1.42483 401.721 1.03703L402.37 0.763672C402.643 1.15146 403.031 1.77448 403.215 2.1432Z" fill="white"/>
<path d="M407.964 10.1916L407.099 9.39055C408.994 8.69125 409.89 7.82031 409.89 5.13119V4.72433H407.226V6.24371C407.226 6.65057 407.258 7.08287 407.265 7.22908H406.139C406.158 7.08922 406.19 6.66329 406.19 6.24371V4.72433H405.198C404.722 4.72433 404.308 4.7434 404.143 4.75611V3.66266C404.277 3.68174 404.728 3.74531 405.198 3.74531H406.19V2.56922C406.19 2.32764 406.171 2.02249 406.139 1.75549H407.277C407.258 1.89535 407.226 2.20049 407.226 2.57557V3.73895H409.89V2.56922C409.89 2.16235 409.858 1.83177 409.839 1.68556H410.983C410.971 1.82542 410.933 2.16235 410.933 2.56922V3.74531H411.874C412.369 3.74531 412.694 3.71352 412.884 3.68174V4.75611C412.732 4.73704 412.369 4.72433 411.88 4.72433H410.926V5.06762C410.939 7.68681 410.335 9.13626 407.964 10.1916ZM412.427 3.07144L411.842 3.27487C411.689 2.83622 411.486 2.26407 411.282 1.86356L411.861 1.6792C412.039 2.06063 412.293 2.67729 412.427 3.07144ZM413.463 2.75993L412.878 2.95065C412.725 2.50564 412.516 1.93985 412.312 1.53934L412.891 1.35498C413.075 1.74913 413.329 2.35307 413.463 2.75993Z" fill="white"/>
<path d="M419.318 3.8342C420.373 3.18576 421.448 2.24489 422.134 1.4248L422.986 2.23853C422.217 3.02048 421.264 3.80242 420.259 4.45722V8.66572C420.259 9.07894 420.278 9.63838 420.329 9.86088H419.07C419.102 9.63838 419.134 9.07894 419.134 8.66572V5.13744C418.072 5.71595 416.731 6.30082 415.396 6.70768L414.9 5.70324C416.674 5.22644 418.193 4.5335 419.318 3.8342Z" fill="white"/>
<path d="M429.871 7.29227C431.505 6.28782 432.77 4.76844 433.387 3.47156L434.003 4.57772C433.272 5.89368 432.026 7.2732 430.443 8.24586C429.42 8.87523 428.129 9.47281 426.559 9.75888L425.879 8.7163C427.583 8.45565 428.899 7.88985 429.871 7.29227ZM429.528 4.05007L428.727 4.87016C428.199 4.33615 426.941 3.22999 426.19 2.7214L426.928 1.93311C427.64 2.40354 428.962 3.45885 429.528 4.05007Z" fill="white"/>
<path d="M437.856 2.48642H442.897C443.171 2.48642 443.527 2.47371 443.711 2.46735C443.698 2.68986 443.692 3.05222 443.692 3.31922V8.5576C443.692 8.91361 443.711 9.40948 443.73 9.63198H442.573C442.573 9.49212 442.586 9.29505 442.586 9.08526H437.78C437.366 9.08526 436.858 9.10433 436.565 9.1234V7.97909C436.858 7.99816 437.303 8.02995 437.742 8.02995H442.598V3.50994H437.862C437.468 3.50994 436.947 3.52901 436.686 3.54809V2.42285C437.036 2.45464 437.525 2.48642 437.856 2.48642Z" fill="white"/>
<path d="M447.945 5.02305H453.457C453.946 5.02305 454.341 4.9849 454.595 4.95947V6.21821C454.372 6.2055 453.908 6.16735 453.457 6.16735H447.945C447.386 6.16735 446.782 6.18642 446.432 6.21821V4.95947C446.769 4.97854 447.398 5.02305 447.945 5.02305Z" fill="white"/>
<path d="M463.857 3.18562C463.501 4.01842 462.904 5.16272 462.192 6.07181C463.234 6.96183 464.461 8.27142 465.091 9.04065L464.201 9.82895C463.533 8.9135 462.516 7.80098 461.512 6.86647C460.424 8.02349 459.058 9.10422 457.608 9.78445L456.788 8.92622C458.428 8.29685 459.954 7.08262 460.952 5.95738C461.639 5.18815 462.319 4.06928 462.567 3.28098H458.848C458.454 3.28098 457.907 3.33183 457.742 3.34455V2.20024C457.945 2.23203 458.53 2.27017 458.848 2.27017H462.611C462.986 2.27017 463.323 2.23203 463.495 2.16846L464.156 2.65797C464.08 2.75968 463.927 3.01397 463.857 3.18562Z" fill="white"/>
<path d="M235.676 22.6515V23.5034H226.859V22.6515H230.762V20.8397H227.914V20.0005H234.818V20.8397H231.729V22.6515H235.676ZM230.629 16.326C230.425 18.0679 229.86 19.1232 227.393 19.6699C227.31 19.4284 227.069 19.0596 226.884 18.8689C229.065 18.4621 229.491 17.6801 229.643 16.326H227.94V17.6038H227.018V15.4741H230.756V14.4888H231.722V15.4741H235.543V17.3877H234.583V16.326H232.822V18.1633C232.822 18.4176 232.886 18.4557 233.216 18.4557H234.341C234.615 18.4557 234.678 18.3413 234.704 17.6865C234.894 17.8073 235.27 17.9471 235.517 18.0107C235.428 19.0024 235.174 19.2567 234.443 19.2567H233.095C232.11 19.2567 231.887 19.0151 231.887 18.1696V16.326H230.629V16.326Z" fill="white"/>
<path d="M238.486 18.4243V23.7962H237.551V14.896H241.289V18.4243H238.486ZM238.486 15.608V16.3073H240.399V15.608H238.486ZM240.399 17.725V16.9748H238.486V17.725H240.399ZM245.924 22.6201C245.924 23.1541 245.809 23.4592 245.447 23.6245C245.091 23.7771 244.532 23.7834 243.686 23.7834C243.648 23.5291 243.514 23.1223 243.394 22.8616H240.654V23.3702H239.789V19.1236H243.591V22.8362C244.087 22.8553 244.576 22.8489 244.735 22.8489C244.919 22.8362 244.97 22.7853 244.97 22.6137V18.4497H242.09V14.9024H245.924V22.6201V22.6201ZM240.654 19.8356V20.6239H242.713V19.8356H240.654ZM242.713 22.156V21.3168H240.654V22.156H242.713ZM242.993 15.608V16.3073H244.97V15.608H242.993ZM244.97 17.744V16.9748H242.993V17.744H244.97Z" fill="white"/>
<path d="M248.804 18.0995H255.441C255.651 18.0995 256.026 18.0868 256.293 18.0487V19.0913C256.051 19.0785 255.702 19.0722 255.441 19.0722H252.828C252.79 20.1466 252.587 21.0366 252.199 21.7677C251.837 22.4542 251.061 23.2044 250.184 23.6621L249.249 22.9755C249.999 22.6704 250.73 22.0855 251.125 21.4625C251.563 20.7823 251.69 19.9813 251.735 19.0722H248.804C248.499 19.0722 248.168 19.0849 247.882 19.104V18.0487C248.162 18.0804 248.486 18.0995 248.804 18.0995ZM250.057 15.5439H253.483C253.795 15.5439 254.182 15.5248 254.494 15.4803V16.5229C254.17 16.5038 253.807 16.4848 253.483 16.4848H250.069C249.726 16.4848 249.351 16.5038 249.077 16.5229V15.4803C249.383 15.5248 249.726 15.5439 250.057 15.5439ZM255.88 16.1033L255.212 16.3894C255.009 15.9826 254.685 15.3786 254.411 14.9908L255.06 14.7175C255.308 15.0798 255.676 15.7092 255.88 16.1033ZM257.043 15.6583L256.382 15.9508C256.172 15.5121 255.835 14.94 255.549 14.5522L256.198 14.2788C256.477 14.6666 256.859 15.2896 257.043 15.6583Z" fill="white"/>
<path d="M261.799 23.7067L260.934 22.9057C262.829 22.2064 263.725 21.3354 263.725 18.6463V18.2395H261.061V19.7588C261.061 20.1657 261.093 20.598 261.099 20.7442H259.974C259.993 20.6044 260.025 20.1784 260.025 19.7588V18.2395H259.033C258.557 18.2395 258.143 18.2585 257.978 18.2713V17.1778C258.112 17.1969 258.563 17.2604 259.033 17.2604H260.025V16.0844C260.025 15.8428 260.006 15.5376 259.974 15.2706H261.112C261.093 15.4105 261.061 15.7156 261.061 16.0907V17.2541H263.725V16.078C263.725 15.6711 263.693 15.3406 263.674 15.1943H264.818C264.806 15.3342 264.768 15.6711 264.768 16.078V17.2541H265.708C266.204 17.2541 266.529 17.2223 266.719 17.1905V18.2649C266.567 18.2458 266.204 18.2331 265.715 18.2331H264.761V18.5764C264.768 21.2019 264.17 22.6514 261.799 23.7067ZM266.262 16.5866L265.677 16.79C265.524 16.3514 265.321 15.7792 265.117 15.3787L265.696 15.1943C265.874 15.5758 266.128 16.1924 266.262 16.5866ZM267.291 16.2751L266.707 16.4658C266.554 16.0208 266.344 15.455 266.141 15.0545L266.719 14.8701C266.91 15.2643 267.158 15.8682 267.291 16.2751Z" fill="white"/>
<path d="M273.152 17.3498C274.207 16.7014 275.282 15.7605 275.968 14.9404L276.82 15.7542C276.051 16.5361 275.097 17.318 274.093 17.9728V22.1813C274.093 22.5946 274.112 23.154 274.163 23.3765H272.904C272.936 23.154 272.968 22.5946 272.968 22.1813V18.6531C271.906 19.2316 270.565 19.8164 269.23 20.2233L268.734 19.2189C270.508 18.7421 272.027 18.0491 273.152 17.3498Z" fill="white"/>
<path d="M283.705 20.8084C285.339 19.8039 286.604 18.2846 287.221 16.9877L287.837 18.0938C287.106 19.4098 285.86 20.7893 284.277 21.762C283.254 22.3913 281.963 22.9889 280.393 23.275L279.713 22.2324C281.41 21.9718 282.726 21.406 283.705 20.8084ZM283.356 17.5662L282.555 18.3863C282.027 17.8523 280.768 16.7461 280.018 16.2375L280.755 15.4492C281.474 15.9197 282.79 16.975 283.356 17.5662Z" fill="white"/>
<path d="M291.69 16.0021H296.731C297.005 16.0021 297.361 15.9893 297.545 15.983C297.532 16.2055 297.526 16.5678 297.526 16.8348V22.0732C297.526 22.4292 297.545 22.9251 297.564 23.1476H296.407C296.407 23.0077 296.42 22.8107 296.42 22.6009H291.614C291.2 22.6009 290.692 22.62 290.399 22.639V21.4947C290.692 21.5138 291.137 21.5456 291.576 21.5456H296.432V17.0256H291.696C291.302 17.0256 290.781 17.0446 290.52 17.0637V15.9385C290.87 15.9703 291.353 16.0021 291.69 16.0021Z" fill="white"/>
<path d="M301.779 18.5382H307.291C307.78 18.5382 308.175 18.5 308.429 18.4746V19.7333C308.206 19.7206 307.742 19.6825 307.291 19.6825H301.779C301.22 19.6825 300.616 19.7016 300.266 19.7333V18.4746C300.603 18.4937 301.226 18.5382 301.779 18.5382Z" fill="white"/>
<path d="M317.691 16.7012C317.335 17.534 316.737 18.6783 316.025 19.5874C317.068 20.4775 318.295 21.787 318.924 22.5563L318.034 23.3446C317.367 22.4291 316.349 21.3166 315.345 20.3821C314.258 21.5391 312.891 22.6198 311.442 23.3001L310.622 22.4418C312.262 21.8125 313.787 20.5982 314.786 19.473C315.472 18.7038 316.152 17.5849 316.4 16.7966H312.681C312.287 16.7966 311.74 16.8475 311.575 16.8602V15.7159C311.779 15.7477 312.363 15.7858 312.681 15.7858H316.445C316.82 15.7858 317.157 15.7477 317.328 15.6841L317.99 16.1736C317.913 16.2753 317.761 16.5296 317.691 16.7012Z" fill="white"/>
<path d="M326.407 19.1424C326.407 19.7908 325.879 20.3185 325.231 20.3185C324.582 20.3185 324.055 19.7908 324.055 19.1424C324.055 18.494 324.582 17.9663 325.231 17.9663C325.879 17.9663 326.407 18.494 326.407 19.1424Z" fill="white"/>
<path d="M338.593 16.4091C338.269 17.2483 337.78 18.3353 337.131 19.2889C338.034 20.0264 338.905 20.821 339.604 21.5775L338.791 22.4676C338.059 21.6284 337.303 20.9037 336.457 20.179C335.536 21.3042 334.321 22.4612 332.573 23.3894L331.683 22.5883C333.406 21.7683 334.633 20.713 335.625 19.486C334.887 18.8884 333.832 18.1065 332.827 17.4898L333.495 16.6761C334.347 17.2165 335.472 17.9921 336.279 18.6151C336.877 17.7314 337.252 16.8287 337.545 16.0022C337.627 15.7797 337.716 15.4174 337.767 15.1694L338.943 15.5827C338.848 15.7861 338.67 16.1866 338.593 16.4091Z" fill="white"/>
<path d="M342.77 18.0995H349.407C349.617 18.0995 349.992 18.0868 350.259 18.0487V19.0913C350.018 19.0785 349.668 19.0722 349.407 19.0722H346.795C346.756 20.1466 346.553 21.0366 346.165 21.7677C345.803 22.4542 345.027 23.2044 344.15 23.6621L343.215 22.9755C343.966 22.6704 344.697 22.0855 345.091 21.4625C345.53 20.7823 345.657 19.9813 345.701 19.0722H342.77C342.465 19.0722 342.135 19.0849 341.849 19.104V18.0487C342.128 18.0804 342.453 18.0995 342.77 18.0995ZM344.023 15.5439H347.449C347.761 15.5439 348.149 15.5248 348.46 15.4803V16.5229C348.136 16.5038 347.774 16.4848 347.449 16.4848H344.036C343.692 16.4848 343.317 16.5038 343.044 16.5229V15.4803C343.349 15.5248 343.692 15.5439 344.023 15.5439ZM349.846 16.1033L349.179 16.3894C348.975 15.9826 348.651 15.3786 348.378 14.9908L349.026 14.7175C349.274 15.0798 349.643 15.7092 349.846 16.1033ZM351.009 15.6583L350.348 15.9508C350.138 15.5121 349.802 14.94 349.515 14.5522L350.164 14.2788C350.444 14.6666 350.825 15.2896 351.009 15.6583Z" fill="white"/>
<path d="M356.299 18.7673C357.259 18.1698 358.238 17.3052 358.759 16.6567L359.548 17.426C359.039 17.96 358.168 18.6911 357.265 19.2886V22.8487C357.265 23.1729 357.278 23.6497 357.316 23.8214H356.14C356.159 23.6497 356.178 23.1729 356.178 22.8487V19.9307C355.307 20.3884 354.144 20.8843 353.127 21.2085L352.637 20.2549C353.979 19.9562 355.479 19.2632 356.299 18.7673Z" fill="white"/>
<path d="M371.143 16.568C370.704 17.3054 369.744 18.5959 368.657 19.3652L367.818 18.6849C368.708 18.17 369.592 17.1656 369.884 16.5871H364.328C363.921 16.5871 363.565 16.6188 363.133 16.6506V15.5254C363.508 15.5762 363.921 15.6144 364.328 15.6144H369.992C370.215 15.6144 370.673 15.5826 370.831 15.5445L371.467 16.142C371.385 16.2565 371.219 16.4472 371.143 16.568ZM364.563 23.4529L363.629 22.69C363.921 22.5883 364.277 22.4294 364.601 22.1942C366.051 21.2596 366.286 19.9818 366.286 18.3035C366.286 18.0301 366.273 17.7886 366.222 17.4898H367.379C367.379 20.1408 367.227 22.0861 364.563 23.4529Z" fill="white"/>
<path d="M374.093 18.0995H380.73C380.939 18.0995 381.315 18.0868 381.582 18.0487V19.0913C381.34 19.0785 380.99 19.0722 380.73 19.0722H378.117C378.079 20.1466 377.875 21.0366 377.487 21.7677C377.125 22.4542 376.35 23.2044 375.472 23.6621L374.538 22.9755C375.288 22.6704 376.019 22.0855 376.413 21.4625C376.852 20.7823 376.979 19.9813 377.023 19.0722H374.093C373.788 19.0722 373.457 19.0849 373.171 19.104V18.0487C373.451 18.0804 373.775 18.0995 374.093 18.0995ZM375.345 15.5439H378.772C379.083 15.5439 379.471 15.5248 379.782 15.4803V16.5229C379.458 16.5038 379.096 16.4848 378.772 16.4848H375.358C375.015 16.4848 374.639 16.5038 374.366 16.5229V15.4803C374.665 15.5248 375.014 15.5439 375.345 15.5439ZM381.168 16.1033L380.501 16.3894C380.297 15.9826 379.973 15.3786 379.7 14.9908L380.348 14.7175C380.596 15.0798 380.965 15.7092 381.168 16.1033ZM382.332 15.6583L381.671 15.9508C381.461 15.5121 381.124 14.94 380.838 14.5522L381.486 14.2788C381.766 14.6666 382.147 15.2896 382.332 15.6583Z" fill="white"/>
<path d="M387.087 23.7067L386.222 22.9057C388.117 22.2064 389.013 21.3354 389.013 18.6463V18.2395H386.349V19.7588C386.349 20.1657 386.381 20.598 386.388 20.7442H385.262C385.281 20.6044 385.313 20.1784 385.313 19.7588V18.2395H384.321C383.845 18.2395 383.431 18.2585 383.266 18.2713V17.1778C383.4 17.1969 383.851 17.2604 384.321 17.2604H385.313V16.0844C385.313 15.8428 385.294 15.5376 385.262 15.2706H386.4C386.381 15.4105 386.349 15.7156 386.349 16.0907V17.2541H389.013V16.078C389.013 15.6711 388.981 15.3406 388.962 15.1943H390.107C390.094 15.3342 390.056 15.6711 390.056 16.078V17.2541H390.997C391.492 17.2541 391.817 17.2223 392.007 17.1905V18.2649C391.855 18.2458 391.492 18.2331 391.003 18.2331H390.049V18.5764C390.056 21.2019 389.458 22.6514 387.087 23.7067ZM391.543 16.5866L390.958 16.79C390.806 16.3514 390.602 15.7792 390.399 15.3787L390.977 15.1943C391.162 15.5758 391.416 16.1924 391.543 16.5866ZM392.579 16.2751L391.995 16.4658C391.842 16.0208 391.632 15.455 391.429 15.0545L392.007 14.8701C392.192 15.2643 392.446 15.8682 392.579 16.2751Z" fill="white"/>
<path d="M398.441 17.3498C399.497 16.7014 400.571 15.7605 401.258 14.9404L402.109 15.7542C401.34 16.5361 400.387 17.318 399.382 17.9728V22.1813C399.382 22.5946 399.401 23.154 399.452 23.3765H398.193C398.225 23.154 398.257 22.5946 398.257 22.1813V18.6531C397.195 19.2316 395.854 19.8164 394.519 20.2233L394.023 19.2189C395.79 18.7421 397.316 18.0491 398.441 17.3498Z" fill="white"/>
<path d="M408.987 20.8084C410.621 19.8039 411.886 18.2846 412.503 16.9877L413.12 18.0938C412.389 19.4098 411.143 20.7893 409.56 21.762C408.536 22.3913 407.246 22.9889 405.675 23.275L404.995 22.2324C406.699 21.9718 408.015 21.406 408.987 20.8084ZM408.644 17.5662L407.843 18.3863C407.316 17.8523 406.057 16.7461 405.307 16.2375L406.044 15.4492C406.762 15.9197 408.078 16.975 408.644 17.5662Z" fill="white"/>
<path d="M416.979 16.0021H422.02C422.294 16.0021 422.65 15.9893 422.834 15.983C422.821 16.2055 422.815 16.5678 422.815 16.8348V22.0732C422.815 22.4292 422.834 22.9251 422.853 23.1476H421.696C421.696 23.0077 421.709 22.8107 421.709 22.6009H416.903C416.489 22.6009 415.981 22.62 415.688 22.639V21.4947C415.981 21.5138 416.426 21.5456 416.865 21.5456H421.722V17.0256H416.985C416.591 17.0256 416.07 17.0446 415.809 17.0637V15.9385C416.159 15.9703 416.642 16.0021 416.979 16.0021Z" fill="white"/>
<path d="M427.061 18.5382H432.573C433.063 18.5382 433.457 18.5 433.711 18.4746V19.7333C433.489 19.7206 433.024 19.6825 432.573 19.6825H427.061C426.502 19.6825 425.898 19.7016 425.548 19.7333V18.4746C425.885 18.4937 426.515 18.5382 427.061 18.5382Z" fill="white"/>
<path d="M442.979 16.7012C442.623 17.534 442.026 18.6783 441.314 19.5874C442.356 20.4775 443.583 21.787 444.213 22.5563L443.323 23.3446C442.655 22.4291 441.638 21.3166 440.634 20.3821C439.547 21.5391 438.18 22.6198 436.73 23.3001L435.91 22.4418C437.55 21.8125 439.076 20.5982 440.074 19.473C440.761 18.7038 441.441 17.5849 441.689 16.7966H437.97C437.576 16.7966 437.029 16.8475 436.864 16.8602V15.7159C437.067 15.7477 437.652 15.7858 437.97 15.7858H441.733C442.108 15.7858 442.445 15.7477 442.617 15.6841L443.278 16.1736C443.202 16.2753 443.049 16.5296 442.979 16.7012Z" fill="white"/>
<path d="M252.262 116.033H231.798C231.658 110.629 234.564 106.796 242.428 102.022C247.062 99.0911 248.283 97.6098 248.283 94.7681C248.283 91.6149 245.943 89.409 242.618 89.409C240.044 89.409 238.073 90.6677 237.278 92.791C236.998 93.6493 236.903 94.4566 236.903 96.6626H232.733V95.5374C232.733 92.4732 233.388 90.4007 234.932 88.7351C236.712 86.7071 239.427 85.6709 242.752 85.6709C248.651 85.6709 252.631 89.32 252.631 94.7236C252.631 97.3365 251.696 99.5424 249.866 101.392C248.6 102.651 247.99 103.102 243.4 105.944C240.171 108.017 237.545 110.585 236.986 112.295H252.256V116.033H252.262Z" fill="white"/>
<path d="M279.376 90.6227C280.921 93.3691 281.575 96.5668 281.575 101.341C281.575 105.664 280.876 109.002 279.376 111.659C277.596 114.768 274.411 116.611 270.806 116.611C267.246 116.611 264.061 114.761 262.281 111.659C260.781 108.913 260.082 105.715 260.082 101.119C260.082 96.5668 260.781 93.2356 262.281 90.6227C264.106 87.514 267.246 85.6704 270.806 85.6704C274.462 85.6641 277.596 87.4695 279.376 90.6227ZM265.746 92.8732C264.856 94.9012 264.436 97.425 264.436 101.119C264.436 104.812 264.856 107.38 265.746 109.408C266.731 111.525 268.651 112.879 270.851 112.879C273.006 112.879 274.97 111.532 275.911 109.408C276.801 107.38 277.221 104.857 277.221 101.303C277.221 97.4313 276.846 94.863 275.911 92.8796C274.926 90.7181 272.961 89.4085 270.806 89.4085C268.651 89.4085 266.731 90.7117 265.746 92.8732Z" fill="white"/>
<path d="M310.19 116.033H289.725C289.586 110.629 292.491 106.796 300.355 102.022C304.989 99.0911 306.21 97.6098 306.21 94.7681C306.21 91.6149 303.87 89.409 300.546 89.409C297.971 89.409 296 90.6677 295.205 92.791C294.926 93.6493 294.83 94.4566 294.83 96.6626H290.66V95.5374C290.66 92.4732 291.315 90.4007 292.86 88.7351C294.64 86.7071 297.354 85.6709 300.679 85.6709C306.579 85.6709 310.558 89.32 310.558 94.7236C310.558 97.3365 309.624 99.5424 307.793 101.392C306.528 102.651 305.917 103.102 301.327 105.944C298.098 108.017 295.472 110.585 294.913 112.295H310.183V116.033H310.19Z" fill="white"/>
<path d="M337.964 116.033H317.5C317.361 110.629 320.266 106.796 328.13 102.022C332.764 99.0911 333.985 97.6098 333.985 94.7681C333.985 91.6149 331.645 89.409 328.32 89.409C325.746 89.409 323.775 90.6677 322.98 92.791C322.701 93.6493 322.605 94.4566 322.605 96.6626H318.435V95.5374C318.435 92.4732 319.09 90.4007 320.635 88.7351C322.415 86.7071 325.129 85.6709 328.454 85.6709C334.353 85.6709 338.333 89.32 338.333 94.7236C338.333 97.3365 337.399 99.5424 335.568 101.392C334.303 102.651 333.692 103.102 329.102 105.944C325.873 108.017 323.247 110.585 322.688 112.295H337.958V116.033H337.964Z" fill="white"/>
<path d="M351.169 115.429H346.827V111.373H351.169V115.429Z" fill="white"/>
<path d="M391.505 115.881H362.649C362.452 108.258 366.546 102.861 377.64 96.1286C384.175 92.0027 385.891 89.9048 385.891 85.8998C385.891 81.456 382.592 78.341 377.9 78.341C374.27 78.341 371.492 80.121 370.373 83.1026C369.979 84.3104 369.846 85.4547 369.846 88.5634H363.972V86.9741C363.972 82.6576 364.893 79.7332 367.074 77.381C369.585 74.5203 373.412 73.0645 378.104 73.0645C386.425 73.0645 392.039 78.2075 392.039 85.8298C392.039 89.517 390.717 92.6257 388.142 95.2322C386.362 97.0122 385.504 97.648 379.032 101.647C374.474 104.571 370.78 108.188 369.986 110.604H391.511V115.881H391.505Z" fill="white"/>
<path d="M403.024 115.429H398.682V111.373H403.024V115.429Z" fill="white"/>
<path d="M429.61 115.88H423.8V85.7722H413.832V81.6464C419.509 81.8371 424.067 78.722 425.122 73.9604H429.61V115.88Z" fill="white"/>
<path d="M468.504 103.814C468.504 111.246 462.103 116.707 453.514 116.707C444.862 116.707 438.46 111.183 438.46 103.814C438.46 99.0529 440.901 95.4293 445.923 92.7656C442.293 90.7312 440.443 87.6861 440.443 83.9353C440.443 77.648 445.923 73.0771 453.52 73.0771C461.047 73.0771 466.527 77.648 466.527 83.9353C466.527 87.6861 464.677 90.7312 461.047 92.7656C466.063 95.4293 468.504 99.0529 468.504 103.814ZM444.601 103.497C444.601 108.195 448.231 111.437 453.514 111.437C458.663 111.437 462.363 108.195 462.363 103.624C462.363 98.8622 458.797 95.62 453.45 95.62C448.231 95.62 444.601 98.8622 444.601 103.497ZM446.381 84.3803C446.381 87.9404 449.286 90.4134 453.514 90.4134C457.608 90.4134 460.577 87.9341 460.577 84.4439C460.577 80.8203 457.735 78.3473 453.444 78.3473C449.286 78.341 446.381 80.8203 446.381 84.3803Z" fill="white"/>
<path d="M491.588 99.9744H481.194V105.829H489.922V108.175H481.194V117.075H478.409V97.5459H491.588V99.9744Z" fill="white"/>
<path d="M497.792 102.93V105.155C498.352 104.335 498.581 104.011 498.962 103.661C499.604 102.987 500.634 102.549 501.48 102.549C502.007 102.549 502.503 102.663 502.974 102.898V105.327C502.414 105.213 502.122 105.181 501.747 105.181C499.579 105.181 497.913 107.113 497.913 109.631V117.069H495.218V102.924H497.792V102.93Z" fill="white"/>
<path d="M509.42 100.68H506.725V97.5459H509.42V100.68ZM509.42 117.075H506.725V102.93H509.42V117.075Z" fill="white"/>
<path d="M547.004 97.0054H528.479V94.7485H547.004V97.0054Z" fill="white"/>
<path d="M595.452 115.969H566.482C566.285 108.315 570.392 102.892 581.53 96.1282C588.091 91.9833 589.82 89.879 589.82 85.8549C589.82 81.3921 586.508 78.2643 581.797 78.2643C578.148 78.2643 575.363 80.0507 574.238 83.0514C573.838 84.2656 573.711 85.4099 573.711 88.5377H567.811V86.942C567.811 82.6063 568.739 79.6693 570.926 77.3108C573.444 74.4436 577.29 72.9751 582 72.9751C590.354 72.9751 595.993 78.1435 595.993 85.7977C595.993 89.4976 594.664 92.6254 592.083 95.2382C590.29 97.0246 589.432 97.6603 582.935 101.678C578.358 104.615 574.645 108.245 573.85 110.674H595.465V115.969H595.452Z" fill="white"/>
<path d="M631.257 79.9935C633.443 83.8842 634.372 88.4169 634.372 95.1746C634.372 101.297 633.38 106.02 631.257 109.784C628.739 114.183 624.232 116.802 619.121 116.802C614.079 116.802 609.572 114.189 607.054 109.784C604.931 105.893 603.939 101.36 603.939 94.8568C603.939 88.4169 604.931 83.6934 607.054 79.9935C609.642 75.5943 614.086 72.9751 619.121 72.9751C624.295 72.9751 628.739 75.5307 631.257 79.9935ZM611.969 83.1848C610.71 86.0583 610.112 89.6247 610.112 94.8568C610.112 100.089 610.71 103.725 611.969 106.592C613.361 109.593 616.082 111.506 619.197 111.506C622.248 111.506 625.033 109.593 626.355 106.592C627.614 103.719 628.211 100.152 628.211 95.1111C628.211 89.6248 627.684 85.9884 626.355 83.1848C624.963 80.1207 622.178 78.2707 619.127 78.2707C616.075 78.2707 613.361 80.1207 611.969 83.1848Z" fill="white"/>
<path d="M656.171 103.579C655.878 100.884 654.27 99.5677 651.307 99.5677C648.701 99.5677 647.029 100.68 647.029 102.378C647.029 103.814 648.052 104.66 650.544 105.219L653.704 105.925C656.018 106.453 657.188 106.948 658.129 107.8C659.152 108.709 659.712 110.025 659.712 111.551C659.712 115.238 656.724 117.527 651.981 117.527C646.914 117.527 643.869 114.952 643.456 110.267H646.355C646.647 113.369 648.701 115.098 652.064 115.098C654.874 115.098 656.863 113.719 656.863 111.761C656.863 110.299 655.808 109.332 653.761 108.83L649.368 107.775C645.796 106.923 644.187 105.346 644.187 102.708C644.187 99.2816 647.029 97.1138 651.511 97.1138C655.993 97.1138 658.396 99.1926 659.006 103.585H656.171V103.579Z" fill="white"/>
<path d="M672.566 117.076V115.467C671.161 116.961 670.016 117.457 668.084 117.457C666.412 117.457 665.039 116.898 664.25 115.906C663.577 115.029 663.316 114.03 663.316 112.39V102.931H666.011V112.187C666.011 114.119 666.889 115.054 668.732 115.054C671.046 115.054 672.451 113.706 672.451 111.513V102.931H675.147V117.076H672.566Z" fill="white"/>
<path d="M682.496 102.93V104.539C683.901 103.045 685.045 102.549 686.977 102.549C688.643 102.549 690.023 103.108 690.811 104.1C691.485 104.977 691.745 105.975 691.745 107.616V117.075H689.05V107.819C689.05 105.886 688.173 104.952 686.329 104.952C684.015 104.952 682.61 106.3 682.61 108.493V117.075H679.915V102.93H682.496Z" fill="white"/>
</svg>
