<svg width="308" height="54" viewBox="0 0 308 54" fill="none" xmlns="http://www.w3.org/2000/svg">
<path d="M3.10673 36.1861C3.14803 36.1119 3.19706 36.0461 3.25513 36.0048C3.29643 35.9719 3.31256 35.939 3.31256 35.9061C3.31256 35.8571 3.29643 35.8319 3.21384 35.7906C3.08221 35.7332 2.89252 35.6667 2.71121 35.6177C2.68605 35.7906 2.65379 35.9145 2.5712 36.0874C2.10987 37.1178 1.21172 38.2386 0 38.9638C0.107106 39.0212 0.205825 39.1206 0.288413 39.2438C0.345838 39.318 0.362613 39.3509 0.403908 39.3509C0.429071 39.3509 0.461332 39.3264 0.52779 39.2767C1.6808 38.4444 2.43893 37.5295 3.10673 36.1861Z" fill="white"/>
<path d="M4.82959 35.6585C4.79669 35.5927 4.78056 35.5927 4.68119 35.6424L4.4502 35.7411C4.35987 35.7824 4.3431 35.7901 4.36762 35.8566C4.95283 37.1503 5.92518 38.3536 7.19432 39.2356C7.25175 39.2769 7.2853 39.3014 7.30982 39.3014C7.34272 39.3014 7.36724 39.2685 7.41692 39.1859C7.49112 39.0621 7.58984 38.9304 7.68856 38.8562C6.4278 38.1142 5.40642 36.9606 4.82959 35.6585Z" fill="white"/>
<path d="M4.96142 39.6637C4.91174 39.614 4.90399 39.614 4.82141 39.672L4.60719 39.8037C4.50847 39.8695 4.48396 39.8863 4.52461 39.9353C4.92013 40.4134 5.25822 40.8663 5.56276 41.3445C4.63171 41.4683 3.50258 41.5916 2.48894 41.6742C2.93414 40.6934 3.3374 39.6385 3.6342 38.8145C3.7084 38.6003 3.76583 38.5016 3.83228 38.4106C3.87358 38.361 3.88971 38.3448 3.88971 38.2951C3.88971 38.2539 3.84842 38.2126 3.7826 38.188C3.62581 38.1306 3.4529 38.0809 3.25481 38.0312C3.22191 38.2951 3.15609 38.5255 3.03221 38.9049C2.818 39.5804 2.4057 40.6605 1.91985 41.7232C1.83727 41.7232 1.75468 41.7316 1.67273 41.7316C1.31012 41.7561 1.02171 41.7645 0.757812 41.7477C0.799107 41.9542 0.848788 42.1432 0.897825 42.2916C0.913956 42.3574 0.947507 42.3904 0.980413 42.3904C1.02171 42.3904 1.04623 42.3742 1.08752 42.3491C1.15333 42.3078 1.23592 42.2749 1.41723 42.2587C2.86768 42.1271 4.49944 41.9619 5.81827 41.7561C5.96667 42.0032 6.10668 42.2587 6.25508 42.5394C6.28799 42.6052 6.30477 42.5968 6.42026 42.5394L6.67577 42.391C6.78287 42.3336 6.79126 42.3168 6.75836 42.2678C6.15637 41.229 5.70342 40.5457 4.96142 39.6637Z" fill="white"/>
<path d="M15.1711 37.4307C15.2286 37.4307 15.237 37.4223 15.237 37.3565V36.961C15.237 36.9035 15.2286 36.8952 15.1711 36.8952C15.1298 36.8952 14.8582 36.9119 14.0336 36.9119H12.1876V36.228C12.1876 35.8738 12.2038 35.7331 12.2373 35.6589C12.2618 35.6015 12.2786 35.5686 12.2786 35.5105C12.2786 35.4776 12.2373 35.4447 12.1715 35.4363C11.9902 35.4118 11.8663 35.4034 11.6031 35.395C11.6444 35.5925 11.6605 35.8151 11.6605 36.2274V36.9113H9.97906C9.1635 36.9113 8.89122 36.8945 8.84218 36.8945C8.78476 36.8945 8.77637 36.9029 8.77637 36.9603V37.3558C8.77637 37.4217 8.78476 37.43 8.84218 37.43C8.89122 37.43 9.1635 37.4139 9.97906 37.4139H14.0336C14.8576 37.4146 15.1298 37.4307 15.1711 37.4307Z" fill="white"/>
<path d="M10.2345 38.0405L9.96289 38.1309C9.8474 38.1721 9.83901 38.1805 9.86418 38.238C10.2184 39.1529 10.4662 39.993 10.6552 41.0976C10.6713 41.1718 10.6881 41.1802 10.812 41.1473L11.1004 41.0647C11.1991 41.0401 11.1991 41.0156 11.1907 40.9576C10.9849 39.8368 10.6965 38.9303 10.35 38.065C10.3333 38.016 10.3165 38.016 10.2345 38.0405Z" fill="white"/>
<path d="M15.5831 41.6998C15.5334 41.6998 15.2863 41.7166 14.5114 41.7166H12.8964C13.3248 40.7191 13.6461 39.7712 13.9429 38.7498C13.9926 38.5769 14.0339 38.4614 14.0997 38.3872C14.1326 38.3459 14.1739 38.2969 14.1739 38.2472C14.1739 38.2059 14.1571 38.1814 14.0913 38.1569C13.9016 38.0827 13.7287 38.033 13.5145 37.9756C13.49 38.2472 13.4487 38.4614 13.35 38.8324C13.119 39.6815 12.806 40.67 12.3608 41.7172H9.48445C8.71793 41.7172 8.46242 41.7004 8.42177 41.7004C8.36435 41.7004 8.35596 41.7088 8.35596 41.7663V42.1779C8.35596 42.2353 8.36435 42.2437 8.42177 42.2437C8.46306 42.2437 8.71857 42.2269 9.48445 42.2269H14.5114C15.2863 42.2269 15.5334 42.2437 15.5831 42.2437C15.6405 42.2437 15.6489 42.2353 15.6489 42.1779V41.7663C15.6489 41.7082 15.6411 41.6998 15.5831 41.6998Z" fill="white"/>
<path d="M20.4413 38.1648H22.5015C23.2925 38.1648 23.5564 38.1809 23.5977 38.1809C23.6551 38.1809 23.6635 38.1725 23.6635 38.1067V37.7273C23.6635 37.6699 23.6551 37.6615 23.5977 37.6615C23.5564 37.6615 23.2925 37.6783 22.5015 37.6783H20.2845C20.3335 37.2492 20.3587 36.8046 20.3671 36.3427C20.3755 35.9633 20.3916 35.8071 20.4329 35.7245C20.4574 35.6671 20.4819 35.6342 20.4819 35.5677C20.4819 35.5265 20.449 35.4935 20.3664 35.4774C20.2013 35.4529 19.9709 35.4361 19.7812 35.4277C19.8225 35.6749 19.8309 35.8975 19.8225 36.3588C19.8141 36.8285 19.798 37.2653 19.7567 37.6776H17.812C17.021 37.6776 16.7571 37.6608 16.7158 37.6608C16.6584 37.6608 16.65 37.6692 16.65 37.7267V38.106C16.65 38.1719 16.6584 38.1802 16.7158 38.1802C16.7571 38.1802 17.0203 38.1641 17.812 38.1641H19.6993C19.6089 38.7577 19.4605 39.2849 19.2212 39.7797C18.7431 40.7689 17.8694 41.6418 16.4771 42.2193C16.5842 42.2935 16.6913 42.3838 16.7816 42.4993C16.839 42.5819 16.8642 42.6148 16.9055 42.6148C16.9384 42.6148 16.9713 42.5987 17.0377 42.5735C18.3069 41.9386 19.1308 41.156 19.6993 39.9862C19.8974 39.5739 20.0458 39.1042 20.1522 38.5932C20.6878 40.365 21.8833 41.7993 23.3086 42.549C23.3661 42.5819 23.4074 42.5987 23.4325 42.5987C23.4738 42.5987 23.4983 42.5658 23.548 42.4748C23.6306 42.3432 23.7377 42.2193 23.8448 42.129C22.1718 41.4696 20.9684 39.8868 20.4413 38.1648Z" fill="white"/>
<path d="M31.8668 39.9286C31.8255 39.9286 31.57 39.9447 30.7951 39.9447H28.6027V39.846C28.6027 39.7137 28.6027 39.6234 28.6111 39.566C29.1305 39.2692 29.5505 38.9975 29.8802 38.7336C30.0699 38.5768 30.1441 38.5439 30.226 38.5194C30.2757 38.5033 30.3086 38.4697 30.3086 38.4123C30.3086 38.3549 30.259 38.2723 30.1435 38.1568C30.0118 38.0252 29.9622 37.9839 29.9125 37.9839C29.8796 37.9839 29.855 37.9923 29.8299 38C29.8054 38.0084 29.7473 38.0161 29.6157 38.0161H27.3077C26.5328 38.0161 26.2773 38 26.2367 38C26.1792 38 26.1708 38.0084 26.1708 38.0658V38.4039C26.1708 38.4613 26.1792 38.4697 26.2367 38.4697C26.2779 38.4697 26.5335 38.4536 27.3077 38.4536H29.5247C29.1866 38.742 28.8492 38.9807 28.453 39.2117C28.3291 39.1788 28.1891 39.1543 28.0329 39.1292C28.0742 39.3356 28.0904 39.5821 28.0904 39.9454H25.8405C25.0656 39.9454 24.8101 39.9292 24.7694 39.9292C24.712 39.9292 24.7036 39.9376 24.7036 39.995V40.3576C24.7036 40.4151 24.712 40.4235 24.7694 40.4235C24.8107 40.4235 25.0662 40.4073 25.8405 40.4073H28.0904V41.8333C28.0904 42.0972 27.9665 42.1546 27.7278 42.1546C27.3897 42.1546 27.1593 42.1385 26.8703 42.1049C26.9445 42.2036 27.0025 42.3604 27.0432 42.4843C27.0845 42.6488 27.0845 42.6404 27.2413 42.6404C28.0078 42.6572 28.2136 42.6159 28.3865 42.5088C28.5517 42.3933 28.6091 42.2617 28.6091 41.9733C28.6091 41.7758 28.6007 41.4377 28.6007 41.2648V40.4073H30.7932C31.5681 40.4073 31.8236 40.4235 31.8649 40.4235C31.9223 40.4235 31.9307 40.4151 31.9307 40.3576V39.995C31.9327 39.937 31.9249 39.9286 31.8668 39.9286Z" fill="white"/>
<path d="M26.1804 36.8051C25.381 36.8051 25.0925 36.7884 25.0429 36.7884C24.9854 36.7884 24.9771 36.7968 24.9771 36.8458C24.9771 36.8955 24.9932 37.0187 24.9932 37.2987V37.5871C24.9932 38.3124 24.9771 38.4195 24.9771 38.4692C24.9771 38.5266 24.9854 38.535 25.0429 38.535H25.4223C25.4797 38.535 25.4881 38.5266 25.4881 38.4692V37.2413H31.166V38.4692C31.166 38.5266 31.1744 38.535 31.2318 38.535H31.6028C31.6686 38.535 31.677 38.5266 31.677 38.4692C31.677 38.4279 31.6609 38.3208 31.6609 37.5871V37.2491C31.6609 37.0187 31.677 36.8864 31.677 36.8451C31.677 36.7961 31.6686 36.7877 31.6028 36.7877C31.5615 36.7877 31.2731 36.8045 30.4653 36.8045H30.1195C30.3253 36.4993 30.4653 36.2522 30.6137 35.9722C30.655 35.898 30.7208 35.8154 30.7705 35.7825C30.8118 35.7579 30.8279 35.725 30.8279 35.6921C30.8279 35.6508 30.8034 35.6179 30.7369 35.585C30.6053 35.5192 30.4324 35.4534 30.2511 35.4121C30.2266 35.5689 30.1853 35.7005 30.144 35.7909C29.9956 36.1451 29.8394 36.4587 29.6084 36.8045H26.1804V36.8051Z" fill="white"/>
<path d="M26.4774 36.6731C26.502 36.6731 26.5271 36.657 26.5845 36.6318L26.8071 36.5247C26.9059 36.475 26.9142 36.475 26.8813 36.4176C26.7 36.0963 26.502 35.7911 26.2632 35.4949C26.2219 35.4459 26.1974 35.4459 26.1064 35.4865L25.9006 35.5769C25.8019 35.6182 25.7935 35.6427 25.8264 35.684C26.0406 35.9479 26.2794 36.3021 26.4278 36.615C26.4445 36.657 26.4529 36.6731 26.4774 36.6731Z" fill="white"/>
<path d="M28.389 36.5332L28.6116 36.4506C28.7188 36.4009 28.7271 36.4009 28.702 36.3435C28.5703 36.0138 28.3968 35.6757 28.191 35.3711C28.1581 35.3214 28.1335 35.3214 28.0509 35.355L27.8283 35.4292C27.738 35.4621 27.7129 35.4789 27.7541 35.5363C27.9438 35.8331 28.1 36.1054 28.2323 36.5086C28.2574 36.5828 28.2735 36.5828 28.389 36.5332Z" fill="white"/>
<path d="M34.7546 36.4334C34.4333 36.0953 34.0461 35.7908 33.6583 35.5437C33.6087 35.5107 33.5841 35.5191 33.5267 35.5849L33.3454 35.7746C33.2712 35.8488 33.2712 35.8656 33.3202 35.8985C33.6583 36.1127 34.0868 36.4837 34.4165 36.8464C34.4662 36.896 34.4823 36.8876 34.5488 36.8134L34.7301 36.5908C34.7952 36.516 34.7952 36.4824 34.7546 36.4334Z" fill="white"/>
<path d="M40.0861 38.9965C40.0364 38.9965 39.748 39.0127 38.9157 39.0127H37.4981V37.5132H38.5369C39.3447 37.5132 39.6164 37.5293 39.6577 37.5293C39.7151 37.5293 39.7235 37.5209 39.7235 37.4635V37.1177C39.7235 37.0602 39.7151 37.0519 39.6577 37.0519C39.6164 37.0519 39.3447 37.068 38.5369 37.068H37.4981V36.4583C37.4981 35.964 37.5226 35.7414 37.5478 35.6672C37.5723 35.6014 37.5891 35.5685 37.5891 35.5188C37.5891 35.4859 37.5478 35.453 37.4904 35.4446C37.3091 35.4195 37.1691 35.4117 36.9548 35.4033C36.9961 35.6917 37.0045 35.9227 37.0045 36.4744V37.068H36.2961C35.4883 37.068 35.2244 37.0519 35.1837 37.0519C35.1263 37.0519 35.1179 37.0602 35.1179 37.1177V37.4635C35.1179 37.5209 35.1263 37.5293 35.1837 37.5293C35.225 37.5293 35.4889 37.5132 36.2961 37.5132H37.0045V39.0127H35.9083C35.076 39.0127 34.7875 38.9965 34.7379 38.9965C34.6804 38.9965 34.672 39.0049 34.672 39.0624V39.4082C34.672 39.474 34.6804 39.4824 34.7379 39.4824C34.7875 39.4824 35.076 39.4663 35.9083 39.4663H36.6251C36.3941 40.3315 36.1057 41.0735 35.7928 41.782L35.496 41.8065C35.2573 41.8226 34.9934 41.8316 34.6553 41.8316C34.6882 42.0046 34.7379 42.1859 34.7869 42.3504C34.803 42.4078 34.8443 42.4575 34.894 42.4575C34.9437 42.4575 34.9766 42.4246 35.0256 42.4001C35.0669 42.3756 35.1327 42.3504 35.3637 42.3259C36.7484 42.1691 37.8607 42.0291 39.1628 41.8149C39.3196 42.0536 39.468 42.3098 39.608 42.573C39.6325 42.6304 39.6493 42.6304 39.7564 42.5569L39.9874 42.4085C40.07 42.351 40.07 42.3343 40.0448 42.2852C39.5751 41.4942 39.1054 40.8348 38.5201 40.1999C38.4872 40.167 38.4627 40.167 38.4046 40.2083L38.1988 40.3322C38.1078 40.3896 38.1001 40.4147 38.1491 40.4638C38.413 40.769 38.6685 41.0819 38.8989 41.4116C38.0504 41.5439 37.2503 41.6503 36.3361 41.7329C36.6245 41.0903 36.9129 40.3322 37.1768 39.4663H38.9157C39.748 39.4663 40.0364 39.4824 40.0861 39.4824C40.1358 39.4824 40.1435 39.474 40.1435 39.4082V39.0624C40.1435 39.0049 40.1351 38.9965 40.0861 38.9965Z" fill="white"/>
<path d="M34.1196 38.7908L34.3177 38.5598C34.3674 38.5023 34.3674 38.4856 34.3261 38.4443C33.9635 38.0984 33.5596 37.8178 33.164 37.579C33.1144 37.5545 33.0815 37.5545 33.0324 37.6203L32.8595 37.8261C32.8021 37.892 32.7937 37.9087 32.8511 37.9416C33.2221 38.1726 33.6422 38.494 33.9802 38.8482C34.0293 38.8979 34.037 38.8895 34.1196 38.7908Z" fill="white"/>
<path d="M34.351 40.0513C34.2355 39.9687 34.1529 39.9113 34.0709 39.8042C33.84 40.6204 33.5767 41.2792 33.3212 41.7824C33.1973 42.0296 33.107 42.1947 32.9502 42.3922C33.0986 42.5077 33.2057 42.5819 33.3457 42.6638C33.4031 42.6967 33.4367 42.7051 33.4696 42.7051C33.5025 42.7051 33.527 42.6638 33.5354 42.6064C33.5438 42.5322 33.6012 42.4083 33.6754 42.2354C33.9232 41.6586 34.2032 40.9746 34.4252 40.2991C34.4742 40.1339 34.4742 40.1255 34.351 40.0513Z" fill="white"/>
<path d="M44.8586 36.7714C44.867 36.6314 44.867 36.4914 44.867 36.343C44.867 36.1365 44.8999 35.972 44.9412 35.881C44.9663 35.8236 44.9909 35.7823 44.9909 35.7158C44.9909 35.6661 44.9412 35.6339 44.8754 35.6171C44.6941 35.5842 44.4553 35.5597 44.2572 35.5513C44.2985 35.8397 44.3069 36.0784 44.3147 36.532C44.3476 38.8974 43.2101 41.0563 41.0015 42.1196C41.1086 42.1938 41.2157 42.2925 41.3067 42.4164C41.3641 42.499 41.3892 42.5403 41.4221 42.5403C41.4551 42.5403 41.488 42.5151 41.546 42.4829C43.2191 41.535 44.3398 40.0188 44.6857 37.9502C44.9909 39.6071 45.8806 41.2963 47.7511 42.4913C47.8085 42.5325 47.8421 42.5487 47.875 42.5487C47.9079 42.5487 47.9324 42.5158 47.9821 42.4332C48.0563 42.3016 48.155 42.1861 48.2705 42.0951C46.111 40.8756 45.1883 38.9884 44.8586 36.7714Z" fill="white"/>
<path d="M59.6575 40.2912C59.6575 40.2254 59.6491 40.217 59.5917 40.217C59.542 40.217 59.2536 40.2331 58.4212 40.2331H56.6824C56.8063 39.9615 56.9134 39.6724 57.0205 39.3266H57.7954C58.5703 39.3266 58.8419 39.3427 58.8832 39.3427C58.9406 39.3427 58.949 39.3343 58.949 39.2769C58.949 39.2356 58.9323 39.0956 58.9323 38.6672V38.0574C58.9323 37.6368 58.949 37.4968 58.949 37.4555C58.949 37.398 58.9406 37.3896 58.8832 37.3896C58.8419 37.3896 58.5703 37.4058 57.7954 37.4058H55.9578C55.1829 37.4058 54.919 37.3896 54.8699 37.3896C54.8125 37.3896 54.8041 37.398 54.8041 37.4555C54.8041 37.4968 54.8203 37.6368 54.8203 38.0574V38.6672C54.8203 39.0956 54.8041 39.2356 54.8041 39.2769C54.8041 39.3343 54.8125 39.3427 54.8699 39.3427C54.919 39.3427 55.1829 39.3266 55.9578 39.3266H56.5017C56.4191 39.6066 56.2959 39.9279 56.1559 40.2331H55.3564C54.5157 40.2331 54.2189 40.217 54.1776 40.217C54.1202 40.217 54.1118 40.2254 54.1118 40.2912C54.1118 40.3325 54.1279 40.5054 54.1279 40.9997V41.4861C54.1279 42.4914 54.1118 42.6482 54.1118 42.6972C54.1118 42.7469 54.1202 42.7546 54.1776 42.7546H54.5654C54.6151 42.7546 54.6228 42.7463 54.6228 42.6972V42.3514H59.1471V42.6643C59.1471 42.714 59.1555 42.7217 59.2129 42.7217H59.5923C59.6497 42.7217 59.6581 42.7134 59.6581 42.6643C59.6581 42.6146 59.6413 42.4585 59.6413 41.461V40.9087C59.6407 40.5054 59.6575 40.3325 59.6575 40.2912ZM55.2977 37.811H58.4541V38.9317H55.2977V37.811ZM59.1465 41.923H54.6222V40.6538H59.1465V41.923Z" fill="white"/>
<path d="M60.2092 36.2944C60.2092 36.237 60.2008 36.2286 60.1434 36.2286C60.0937 36.2286 59.8137 36.2447 59.0065 36.2447H57.0612V36.1292C57.0612 35.7582 57.0696 35.635 57.1025 35.5524C57.1186 35.495 57.1438 35.462 57.1438 35.404C57.1438 35.3711 57.1109 35.3382 57.045 35.3298C56.8883 35.313 56.707 35.3046 56.5095 35.2969C56.5592 35.495 56.5669 35.7092 56.5669 36.1376V36.2447H54.7623C53.9544 36.2447 53.6744 36.2286 53.6254 36.2286C53.568 36.2286 53.5596 36.237 53.5596 36.2944C53.5596 36.3357 53.5757 36.4596 53.5757 36.7396V37.0196C53.5757 37.7532 53.5596 37.8519 53.5596 37.8932C53.5596 37.9507 53.568 37.9591 53.6254 37.9591H54.0041C54.0616 37.9591 54.0699 37.9507 54.0699 37.8932V36.6815H59.6988V37.8932C59.6988 37.9507 59.7072 37.9591 59.7647 37.9591H60.1434C60.2008 37.9591 60.2092 37.9507 60.2092 37.8932C60.2092 37.8519 60.1931 37.7448 60.1931 37.0196V36.6899C60.1931 36.4589 60.2092 36.3357 60.2092 36.2944Z" fill="white"/>
<path d="M68.1886 36.5489C68.2131 36.5489 68.2376 36.5328 68.2873 36.4999L68.4441 36.3927C68.5428 36.3269 68.5512 36.3102 68.5183 36.2605C68.3286 35.9888 68.1311 35.7495 67.9001 35.5436C67.8505 35.494 67.8505 35.4862 67.7601 35.5436L67.595 35.6424C67.4962 35.6998 67.4879 35.7166 67.5375 35.7578C67.7517 35.9637 67.9582 36.2192 68.1311 36.4915C68.155 36.5244 68.1634 36.5489 68.1886 36.5489Z" fill="white"/>
<path d="M63.7206 40.332C63.7206 40.2166 63.729 40.1094 63.7535 40.0191C63.5064 40.1591 63.2509 40.283 62.9954 40.3901V38.0002H63.0528C63.5722 38.0002 63.72 38.0164 63.7697 38.0164C63.8271 38.0164 63.8355 38.008 63.8355 37.9505V37.6047C63.8355 37.5473 63.8271 37.5389 63.7697 37.5389C63.72 37.5389 63.5716 37.5557 63.0528 37.5557H62.9954V36.5665C62.9954 36.0142 63.0199 35.8084 63.0451 35.7091C63.0696 35.6516 63.0864 35.6103 63.0864 35.569C63.0864 35.5277 63.0451 35.5032 62.9876 35.4948C62.8309 35.4703 62.6663 35.4535 62.4521 35.4458C62.5095 35.7671 62.5179 35.9981 62.5179 36.5827V37.555H62.3863C61.8585 37.555 61.7108 37.5382 61.6695 37.5382C61.612 37.5382 61.6037 37.5466 61.6037 37.6041V37.9499C61.6037 38.0073 61.612 38.0157 61.6695 38.0157C61.7108 38.0157 61.8592 37.9996 62.3863 37.9996H62.5179V40.5792L62.1882 40.6863C61.9327 40.7682 61.7598 40.8018 61.5288 40.8347C61.5701 40.9992 61.6191 41.156 61.6688 41.2876C61.694 41.345 61.7262 41.3786 61.7598 41.3786C61.8011 41.3786 61.834 41.3457 61.8669 41.3212C61.8998 41.296 61.974 41.2554 62.1469 41.1895C62.6334 41.0166 63.1444 40.8018 63.5729 40.5714C63.7206 40.4888 63.7206 40.5056 63.7206 40.332Z" fill="white"/>
<path d="M68.9539 41.0325C68.8552 40.9828 68.7397 40.917 68.6655 40.8261C68.6158 41.5345 68.55 41.972 68.3938 41.972C68.1957 41.972 67.817 41.5597 67.5202 40.6202C67.8086 40.1337 68.0557 39.5653 68.2699 38.8569C68.3525 38.5768 68.3854 38.4691 68.4429 38.3955C68.4842 38.3381 68.5087 38.3045 68.5087 38.2639C68.5087 38.2142 68.4758 38.1729 68.41 38.1484C68.2783 38.091 68.1461 38.0497 67.9648 38C67.9396 38.2723 67.8906 38.5271 67.8164 38.7994C67.6847 39.2608 67.5363 39.6731 67.3466 40.0357C67.1324 39.2117 67.0169 38.3052 66.9679 37.2257H67.6518C68.4596 37.2257 68.7313 37.2419 68.781 37.2419C68.8384 37.2419 68.8468 37.2335 68.8468 37.1761V36.8302C68.8468 36.7728 68.8384 36.7728 68.781 36.7728C68.7313 36.7728 68.4596 36.7812 67.6518 36.7812H66.9511V36.2205C66.9511 35.825 66.9763 35.685 67.0008 35.6269C67.026 35.5695 67.0421 35.5198 67.0421 35.4701C67.0421 35.4372 67.0176 35.4043 66.935 35.3875C66.7621 35.3546 66.6053 35.3378 66.424 35.3301C66.4653 35.6346 66.4737 36.014 66.4737 36.3437C66.4737 36.4921 66.4737 36.6405 66.482 36.7805H65.3116C64.5038 36.7805 64.2154 36.7721 64.1741 36.7721C64.1167 36.7721 64.1083 36.7721 64.1083 36.8296C64.1083 36.8793 64.1244 37.1264 64.1244 37.7606C64.1244 38.6259 64.116 39.384 64.0005 40.1176C63.8521 41.0325 63.4314 41.8074 62.9043 42.3591C63.0114 42.4004 63.1269 42.4662 63.2256 42.5488C63.283 42.5985 63.3082 42.6314 63.3411 42.6314C63.3656 42.6314 63.3908 42.5985 63.4314 42.5327C63.8928 41.9391 64.3135 41.1151 64.4535 40.2912C64.5361 39.7885 64.5774 39.3104 64.5935 38.7994H65.6239C65.6239 39.5001 65.5497 40.1925 65.4923 40.4312C65.4265 40.6454 65.3439 40.7028 65.171 40.7028C65.0058 40.7028 64.8412 40.6783 64.5941 40.637C64.6438 40.7525 64.6683 40.8596 64.6851 40.9829C64.7012 41.1396 64.7096 41.1396 64.8167 41.1558C64.9651 41.1719 65.1135 41.1719 65.2948 41.1719C65.5587 41.1719 65.8142 41.0319 65.8801 40.7596C65.9872 40.4054 66.0614 39.804 66.0865 38.922C66.0949 38.7736 66.0949 38.6168 66.111 38.4194C66.111 38.362 66.0949 38.3452 66.0368 38.3452C65.9872 38.3452 65.8884 38.3613 65.4929 38.3613H64.6025V37.2238H66.4982C66.5556 38.4271 66.7124 39.5969 67.026 40.5783C66.5066 41.3364 65.7981 41.8636 64.8909 42.2843C64.9896 42.3339 65.089 42.4159 65.1632 42.5069C65.2206 42.5727 65.2458 42.6056 65.2871 42.6056C65.3116 42.6056 65.3529 42.5804 65.4187 42.5482C66.1607 42.1526 66.7375 41.699 67.1989 41.0893C67.586 42.1113 68.048 42.5482 68.4022 42.5482C68.7648 42.5482 68.9707 42.2681 69.07 41.2629C69.0861 41.1067 69.0861 41.0983 68.9539 41.0325Z" fill="white"/>
<path d="M74.0023 38.1648H76.0625C76.8535 38.1648 77.1174 38.1809 77.1587 38.1809C77.2162 38.1809 77.2245 38.1725 77.2245 38.1067V37.7273C77.2245 37.6699 77.2162 37.6615 77.1587 37.6615C77.1174 37.6615 76.8535 37.6783 76.0625 37.6783H73.8455C73.8952 37.2492 73.9197 36.8046 73.9281 36.3427C73.9365 35.9633 73.9526 35.8071 73.9939 35.7245C74.0184 35.6671 74.0436 35.6342 74.0436 35.5677C74.0436 35.5265 74.0107 35.4935 73.9281 35.4774C73.7629 35.4529 73.5326 35.4361 73.3429 35.4277C73.3842 35.6749 73.3926 35.8975 73.3842 36.3588C73.3758 36.8285 73.3597 37.2653 73.3184 37.6776H71.3737C70.5826 37.6776 70.3188 37.6608 70.2775 37.6608C70.22 37.6608 70.2117 37.6692 70.2117 37.7267V38.106C70.2117 38.1719 70.22 38.1802 70.2775 38.1802C70.3188 38.1802 70.5826 38.1641 71.3737 38.1641H73.261C73.1706 38.7577 73.0222 39.2849 72.7829 39.7797C72.3047 40.7689 71.4311 41.6418 70.0381 42.2193C70.1452 42.2935 70.2523 42.3838 70.3433 42.4993C70.4007 42.5819 70.4259 42.6148 70.4672 42.6148C70.5001 42.6148 70.533 42.5987 70.5988 42.5735C71.8679 41.9386 72.6919 41.156 73.2603 39.9862C73.4584 39.5739 73.6068 39.1042 73.7133 38.5932C74.2488 40.365 75.4444 41.7993 76.8697 42.549C76.9271 42.5819 76.9684 42.5987 76.9936 42.5987C77.0349 42.5987 77.0594 42.5658 77.109 42.4748C77.1916 42.3432 77.2987 42.2193 77.4059 42.129C75.7328 41.4696 74.5295 39.8868 74.0023 38.1648Z" fill="white"/>
<path d="M80.2987 36.6731C80.3232 36.6731 80.3484 36.657 80.4058 36.6318L80.6284 36.5247C80.7271 36.475 80.7355 36.475 80.7026 36.4176C80.5213 36.0963 80.3232 35.7911 80.0845 35.4949C80.0432 35.4459 80.0187 35.4459 79.9277 35.4865L79.7219 35.5769C79.6232 35.6182 79.6148 35.6427 79.6477 35.684C79.8619 35.9479 80.1006 36.3021 80.249 36.615C80.2658 36.657 80.2742 36.6731 80.2987 36.6731Z" fill="white"/>
<path d="M78.7988 38.4701C78.7988 38.5276 78.8072 38.536 78.8646 38.536H79.244C79.3015 38.536 79.3098 38.5276 79.3098 38.4701V37.2423H84.9884V38.4701C84.9884 38.5276 84.9968 38.536 85.0542 38.536H85.4252C85.491 38.536 85.4994 38.5276 85.4994 38.4701C85.4994 38.4288 85.4827 38.3217 85.4827 37.5881V37.25C85.4827 37.019 85.4994 36.8874 85.4994 36.8461C85.4994 36.7971 85.491 36.7887 85.4252 36.7887C85.3839 36.7887 85.0955 36.8055 84.2884 36.8055H83.9419C84.1483 36.5009 84.2884 36.2532 84.4361 35.9731C84.4774 35.8989 84.5432 35.8163 84.5929 35.7834C84.6342 35.7589 84.6503 35.726 84.6503 35.6931C84.6503 35.6518 84.6258 35.6189 84.56 35.586C84.4277 35.5202 84.2548 35.4544 84.0735 35.4131C84.049 35.5699 84.0077 35.7015 83.9664 35.7925C83.818 36.1467 83.6612 36.4603 83.4309 36.8061H80.0022C79.2027 36.8061 78.9143 36.7893 78.8646 36.7893C78.8072 36.7893 78.7988 36.7977 78.7988 36.8468C78.7988 36.8964 78.8156 37.0197 78.8156 37.3004V37.5888C78.815 38.3133 78.7988 38.4205 78.7988 38.4701Z" fill="white"/>
<path d="M82.2108 36.5332L82.4334 36.4506C82.5405 36.4009 82.5489 36.4009 82.5244 36.3435C82.3927 36.0138 82.2192 35.6757 82.0134 35.3711C81.9804 35.3214 81.9559 35.3214 81.8733 35.355L81.6507 35.4292C81.5598 35.4621 81.5352 35.4789 81.5765 35.5363C81.7662 35.8331 81.9224 36.1054 82.0547 36.5086C82.0785 36.5828 82.0953 36.5828 82.2108 36.5332Z" fill="white"/>
<path d="M85.6888 39.9286C85.6475 39.9286 85.392 39.9447 84.6171 39.9447H82.4246V39.846C82.4246 39.7137 82.4246 39.6234 82.433 39.566C82.9524 39.2692 83.3725 38.9975 83.7022 38.7336C83.8912 38.5768 83.9661 38.5439 84.048 38.5194C84.0977 38.5033 84.1306 38.4697 84.1306 38.4123C84.1306 38.3549 84.0809 38.2723 83.9661 38.1568C83.8344 38.0252 83.7847 37.9839 83.7357 37.9839C83.7028 37.9839 83.6783 37.9923 83.6531 38C83.6286 38.0084 83.5705 38.0161 83.4389 38.0161H81.131C80.3561 38.0161 80.1012 38 80.0599 38C80.0025 38 79.9941 38.0084 79.9941 38.0658V38.4039C79.9941 38.4613 80.0025 38.4697 80.0599 38.4697C80.1012 38.4697 80.3567 38.4536 81.131 38.4536H83.3479C83.0098 38.742 82.6724 38.9807 82.2769 39.2117C82.153 39.1788 82.013 39.1543 81.8562 39.1292C81.8975 39.3356 81.9136 39.5821 81.9136 39.9454H79.6637C78.8888 39.9454 78.6333 39.9292 78.5927 39.9292C78.5352 39.9292 78.5269 39.9376 78.5269 39.995V40.3576C78.5269 40.4151 78.5352 40.4235 78.5927 40.4235C78.634 40.4235 78.8895 40.4073 79.6637 40.4073H81.9136V41.8333C81.9136 42.0972 81.7897 42.1546 81.551 42.1546C81.2129 42.1546 80.9826 42.1385 80.6941 42.1049C80.7683 42.2036 80.8258 42.3604 80.8671 42.4843C80.9084 42.6488 80.9084 42.6404 81.0651 42.6404C81.8317 42.6572 82.0375 42.6159 82.2111 42.5088C82.3756 42.3933 82.433 42.2617 82.433 41.9733C82.433 41.7758 82.4246 41.4377 82.4246 41.2648V40.4073H84.6171C85.392 40.4073 85.6475 40.4235 85.6888 40.4235C85.7462 40.4235 85.7546 40.4151 85.7546 40.3576V39.995C85.7546 39.937 85.7462 39.9286 85.6888 39.9286Z" fill="white"/>
<path d="M10.0344 27.3125C6.66763 27.3125 5.97789 26.0957 5.97789 22.607V2.48772H6.05855L14.3741 28.692H15.7936L24.4344 2.32512H24.5157V24.6355C24.5157 26.5828 23.826 27.3125 20.865 27.3125V28.6914H32.6287V27.3125C29.3432 27.3125 28.6535 26.5828 28.6535 24.6355V4.84019C28.6535 2.89291 29.3432 2.16317 32.2635 2.16317V0.783691H23.2988L16.5247 21.552H16.4434L9.83179 0.783691H0.299316V2.16317C3.58477 2.16317 4.27451 2.89291 4.27451 4.84019V22.607C4.27451 26.0957 3.58477 27.3125 0.299316 27.3125V28.6914H10.035V27.3125H10.0344Z" fill="white"/>
<path d="M52.9505 6.01642C54.4513 3.17681 54.9785 2.16317 57.8994 2.16317V0.783691H48.6101V2.16317C51.1652 2.16317 52.0582 2.64967 52.0582 3.50136C52.0582 5.56993 47.2307 13.1151 46.4603 14.8185C45.7705 12.9932 41.0249 4.92084 41.0249 3.54201C41.0249 2.56837 41.9986 2.16317 44.4317 2.16317V0.783691H32.9126V2.16317C35.0218 2.16317 35.7922 2.48772 36.8878 4.63759L43.0942 16.8477V24.6355C43.0942 26.5828 42.4044 27.3125 38.8751 27.3125V28.6914H51.6124V27.3125C47.9211 27.3125 47.2313 26.5828 47.2313 24.6355V16.8471L52.9505 6.01642Z" fill="white"/>
<path d="M77.1562 0.783691V2.16317C81.0908 2.16317 81.4966 3.86655 81.4966 6.05707V19.7673C81.4966 24.3103 79.2654 27.799 73.3436 27.799C68.8813 27.799 66.7314 25.4466 66.7314 21.1062V4.84019C66.7314 2.89356 67.4211 2.16317 70.6253 2.16317V0.783691H58.6997V2.16317C61.9045 2.16317 62.5943 2.89356 62.5943 4.84019V20.9849C62.5943 26.6635 66.6101 29.1792 72.8565 29.1792C78.6976 29.1792 82.9567 25.9337 82.9567 20.0925V6.05707C82.9567 3.86655 83.3626 2.16317 86.9319 2.16317V0.783691H77.1562Z" fill="white"/>
<path d="M95.3755 22.8346H93.0469V21.8829H95.3755V19.4053H96.3846V21.8829H98.7132V22.8346H96.3846V25.3123H95.3755V22.8346Z" fill="white"/>
<path d="M111.41 21.2751C112.19 23.6612 113.635 25.5994 115.803 26.5053C115.539 26.735 115.183 27.1821 115.011 27.5034C112.866 26.5053 111.478 24.6477 110.584 22.2159C109.998 24.2922 108.76 26.2762 106.156 27.5034C105.984 27.217 105.64 26.8382 105.342 26.6085C108.072 25.4155 109.184 23.3508 109.643 21.2751H105.571V20.1737H109.838C109.975 19.0265 109.964 17.9258 109.975 17.0083H111.133C111.122 17.9374 111.11 19.0382 110.973 20.1737H115.595V21.2751H111.41V21.2751Z" fill="white"/>
<path d="M128.534 24.4064H124.015V26.3221C124.015 26.9073 123.866 27.2054 123.395 27.366C122.925 27.5151 122.248 27.5267 121.251 27.5267C121.171 27.2286 120.964 26.7924 120.803 26.4944C121.606 26.5285 122.409 26.5285 122.638 26.5176C122.868 26.506 122.925 26.4602 122.925 26.2879V24.4071H118.452V23.4205H122.925V22.6282H123.464C123.911 22.3875 124.37 22.0778 124.76 21.7681H120.402V20.839H125.781L126.01 20.7816L126.699 21.2978C126.01 22.032 125.001 22.7656 124.015 23.2708V23.4199H128.534V24.4064ZM119.645 21.4816H118.647V18.855H120.298C120.092 18.442 119.736 17.9258 119.403 17.5361L120.321 17.1232C120.734 17.5819 121.193 18.2246 121.387 18.6601L120.974 18.855H123.097C122.936 18.3962 122.604 17.7652 122.294 17.2838L123.223 16.9399C123.613 17.4561 124.003 18.1788 124.152 18.6375L123.59 18.8556H125.528C125.93 18.3278 126.377 17.6052 126.641 17.0664L127.765 17.4219C127.432 17.9149 127.054 18.4201 126.698 18.8556H128.362V21.4823H127.307V19.7957H119.645V21.4816V21.4816Z" fill="white"/>
<path d="M134.269 17.8457C133.948 18.809 133.546 20.002 133.179 20.8969C133.959 21.8028 134.131 22.5945 134.131 23.2829C134.131 23.9365 133.993 24.4185 133.661 24.6476C133.488 24.7624 133.271 24.8424 133.041 24.8773C132.823 24.9005 132.548 24.9005 132.284 24.8889C132.273 24.625 132.193 24.2237 132.032 23.9714C132.273 23.9946 132.468 23.9946 132.617 23.983C132.755 23.983 132.869 23.9488 132.973 23.8798C133.133 23.7649 133.179 23.4901 133.179 23.1571C133.179 22.5835 132.996 21.8383 132.25 21.0124C132.537 20.244 132.835 19.2232 133.053 18.4431H131.826V27.5272H130.885V17.4785H133.408L133.569 17.4443L134.269 17.8457ZM139.775 26.4361C139.981 26.4361 140.027 26.2529 140.05 25.0599C140.257 25.2321 140.681 25.3922 140.956 25.4612C140.864 26.9865 140.6 27.3878 139.889 27.3878H138.995C138.123 27.3878 137.916 27.0781 137.916 26.1032V23.3049H136.815C136.654 25.427 136.184 26.78 134.028 27.5259C133.936 27.2736 133.66 26.8723 133.442 26.7C135.289 26.1038 135.679 25.0366 135.794 23.3049H134.394V22.33H140.794V23.3049H138.924V26.0922C138.924 26.4019 138.958 26.4361 139.165 26.4361H139.775ZM136.907 18.2812V17.0308H137.94V18.2812H140.795V20.4259H139.889V21.2402H135.141V20.4259H134.27V18.2812H136.907ZM139.809 19.1987H135.221V20.3111H139.809V19.1987Z" fill="white"/>
<path d="M153.102 24.3147H151.909V26.3219H150.831V25.829H148.388V26.4252C148.388 27.0104 148.239 27.2511 147.849 27.4001C147.459 27.5375 146.863 27.5491 145.899 27.5491C145.842 27.3085 145.681 26.9181 145.532 26.6891C146.163 26.7123 146.851 26.7123 147.035 26.7007C147.241 26.6891 147.31 26.6316 147.31 26.4368V25.829H143.732V25.0263H147.31V24.3153H142.722V23.4778H147.31V22.8242H143.835V22.0674H147.31V21.3905H144.133V19.2794H147.31V18.6942H142.963V17.8341H147.31V16.9966H148.388V17.8341H152.862V18.6942H148.388V19.2794H151.726V21.3899H148.388V22.0667H151.909V23.4778H153.102V24.3147H153.102ZM147.31 20.6782V19.9898H145.153V20.6782H147.31ZM148.388 19.9904V20.6789H150.647V19.9904H148.388ZM148.388 23.4772H150.831V22.8236H148.388V23.4772ZM150.831 24.3147H148.388V25.0257H150.831V24.3147Z" fill="white"/>
<path d="M161.544 24.8654C162.553 25.5765 164.033 26.1617 165.432 26.4256C165.191 26.6553 164.882 27.0908 164.721 27.3773C163.23 26.9759 161.693 26.2075 160.615 25.2209V27.5263H159.571V25.3009C158.481 26.2184 156.932 26.9643 155.499 27.3656C155.338 27.0901 155.04 26.6888 154.799 26.4598C156.164 26.1733 157.655 25.5765 158.665 24.8654H155.121V23.9705H159.571V23.2711H156.187V22.4684H159.571V21.78H155.625V20.9315H157.976C157.873 20.6102 157.678 20.1973 157.494 19.8876L157.77 19.8417H155.166V18.9468H156.864C156.692 18.4997 156.348 17.8687 156.027 17.3983L156.956 17.0886C157.311 17.5815 157.712 18.2816 157.873 18.7287L157.288 18.9468H158.549V16.9854H159.547V18.9468H160.683V16.9854H161.692V18.9468H162.931L162.495 18.8094C162.77 18.3506 163.126 17.628 163.298 17.1118L164.399 17.3873C164.089 17.9493 163.745 18.5229 163.447 18.9475H165.099V19.8424H162.886C162.668 20.2321 162.439 20.6108 162.244 20.9322H164.676V21.7806H160.615V22.4691H164.136V23.2717H160.615V23.9711H165.134V24.8661H161.544V24.8654ZM158.596 19.8417C158.803 20.1747 159.009 20.587 159.089 20.8625L158.756 20.9315H161.177C161.349 20.6218 161.532 20.2089 161.681 19.8417H158.596Z" fill="white"/>
<path d="M170.467 23.8901C170.318 23.523 169.985 22.892 169.687 22.3532V27.5143H168.7V22.6629C168.356 23.7527 167.932 24.7618 167.473 25.4154C167.37 25.1289 167.117 24.727 166.968 24.4979C167.645 23.5572 168.299 21.8596 168.608 20.4033H167.209V19.4168H168.7V16.9966H169.687V19.4168H170.914V20.4033H169.687V21.0802C170.008 21.5047 170.856 22.8003 171.04 23.11L170.467 23.8901ZM177.692 25.6909H177.016V26.4478C177.016 26.9297 176.912 27.1704 176.579 27.3311C176.247 27.4575 175.731 27.4685 174.997 27.4685C174.951 27.2162 174.824 26.8491 174.71 26.6084C175.192 26.6316 175.685 26.6316 175.834 26.62C175.972 26.62 176.017 26.5742 176.017 26.4368V25.6916H172.427V27.4691H171.453V25.6916H170.718V24.8889H171.453V22.0216H173.7V21.4596H170.913V20.6679H172.416V20.0252H171.407V19.2794H172.416V18.6483H171.165V17.8799H172.416V16.9966H173.414V17.8799H174.985V16.9966H175.983V17.8799H177.348V18.6483H175.983V19.2794H177.176V20.0246H175.983V20.6672H177.578V21.4589H174.664V22.0209H177.016V24.8883H177.692V25.6909V25.6909ZM172.428 22.7887V23.4423H173.701V22.7887H172.428ZM172.428 24.8876H173.701V24.1766H172.428V24.8876ZM173.415 19.2794H174.986V18.6483H173.415V19.2794ZM173.415 20.6672H174.986V20.0246H173.415V20.6672ZM174.664 22.7887V23.4423H176.018V22.7887H174.664ZM176.018 24.8876V24.1766H174.664V24.8876H176.018Z" fill="white"/>
<path d="M181.684 23.7298V21.0456C181.237 21.8715 180.686 22.6168 180.124 23.0987C179.964 22.8581 179.642 22.5251 179.425 22.3419C180.227 21.7683 181.031 20.6676 181.512 19.5778H179.7V18.6719H181.684V17.0317H182.694V18.6719H184.414V19.5778H182.694V20.1281C183.13 20.392 184.265 21.2179 184.564 21.436L183.99 22.3077C183.715 22.0212 183.164 21.516 182.694 21.1147V23.7181L181.684 23.7298ZM179.551 26.4365C179.998 25.8287 180.377 24.8763 180.595 24.0853L181.536 24.464C181.306 25.2557 180.94 26.2764 180.515 26.9184L179.551 26.4365ZM186.089 26.3332C186.628 26.3332 186.709 26.1726 186.778 25.0254C187.007 25.1976 187.443 25.3467 187.741 25.4151C187.592 26.9294 187.294 27.2849 186.17 27.2849H183.934C182.557 27.2849 182.202 26.9984 182.202 25.9887V24.2801H183.257V25.9777C183.257 26.2874 183.372 26.3332 184.025 26.3332H186.089V26.3332ZM184.495 23.4084C185.011 23.8904 185.711 24.5666 186.066 24.9796L185.286 25.6332C184.965 25.2086 184.277 24.4976 183.761 23.9814L184.495 23.4084ZM189.415 23.5923H184.885V17.5937H189.415V23.5923ZM188.395 18.4538H185.86V19.3255H188.395V18.4538ZM188.395 20.1398H185.86V21.0347H188.395V20.1398ZM188.395 21.8373H185.86V22.7432H188.395V21.8373ZM188.613 23.913C189.083 24.624 189.714 25.599 190.012 26.1842L189.026 26.6887C188.75 26.0926 188.142 25.0828 187.684 24.3492L188.613 23.913Z" fill="white"/>
<path d="M201.825 24.4064H197.306V26.3221C197.306 26.9073 197.157 27.2054 196.686 27.366C196.216 27.5151 195.539 27.5267 194.542 27.5267C194.462 27.2286 194.255 26.7924 194.094 26.4944C194.897 26.5285 195.7 26.5285 195.929 26.5176C196.159 26.506 196.216 26.4602 196.216 26.2879V24.4071H191.743V23.4205H196.216V22.6282H196.755C197.202 22.3875 197.661 22.0778 198.051 21.7681H193.693V20.839H199.072L199.301 20.7816L199.99 21.2978C199.301 22.032 198.292 22.7656 197.306 23.2708V23.4199H201.825V24.4064V24.4064ZM192.936 21.4816H191.938V18.855H193.589C193.383 18.442 193.027 17.9258 192.694 17.5361L193.612 17.1232C194.025 17.5819 194.484 18.2246 194.678 18.6601L194.265 18.855H196.388C196.227 18.3962 195.895 17.7652 195.585 17.2838L196.514 16.9399C196.904 17.4561 197.294 18.1788 197.443 18.6375L196.881 18.8556H198.819C199.221 18.3278 199.668 17.6052 199.932 17.0664L201.056 17.4219C200.723 17.9149 200.345 18.4201 199.989 18.8556H201.653V21.4823H200.598V19.7957H192.936V21.4816Z" fill="white"/>
<path d="M203.833 17.5815H207.893V18.5449H206.173C206.001 19.4165 205.783 20.265 205.508 21.0683H207.721V26.1152H205.473V26.9985H204.579V23.122C204.406 23.4085 204.235 23.6724 204.04 23.9137C203.994 23.6382 203.776 22.9962 203.615 22.7091C204.372 21.6884 204.866 20.174 205.164 18.5455H203.833V17.5815H203.833ZM206.803 22.02H205.473V25.1745H206.803V22.02ZM214.236 22.6743H212.997V27.5257H211.976V22.6743H210.347C210.29 24.3951 209.992 26.2985 208.753 27.5831C208.57 27.4108 208.18 27.1011 207.939 26.9637C209.029 25.8281 209.293 24.1421 209.349 22.6743H208.168V21.6651H209.361V18.5913H208.478V17.5932H214.006V18.5913H212.997V21.6651H214.236V22.6743ZM211.976 21.6645V18.5907H210.359V21.6645H211.976Z" fill="white"/>
<path d="M225.349 26.402C225.636 26.402 225.682 26.2072 225.728 24.7386C225.958 24.9335 226.439 25.1174 226.737 25.1974C226.634 26.9866 226.347 27.4453 225.476 27.4453H224.363C223.377 27.4453 223.09 27.1356 223.09 26.0349V23.9702H221.164C220.923 25.3122 219.994 26.7227 216.92 27.5602C216.759 27.3079 216.45 26.9182 216.197 26.6885C218.847 25.9891 219.753 24.9451 220.04 23.9702H217.012V22.972H220.166V21.6532H221.233V22.972H224.203V26.0233C224.203 26.3562 224.261 26.402 224.536 26.402H225.349ZM220.601 18.9697C220.36 20.7931 219.672 21.8603 216.953 22.4223C216.862 22.17 216.61 21.7571 216.391 21.5622C218.754 21.1493 219.293 20.3576 219.489 18.9704H217.664V20.175H216.598V18.0187H220.887V16.9863H221.977V18.0187H226.347V20.0718H225.223V18.9697H223.204V20.7705C223.204 21.0686 223.262 21.1035 223.64 21.1035H224.845C225.143 21.1035 225.2 21.0002 225.234 20.2776C225.452 20.4383 225.888 20.5989 226.175 20.6447C226.06 21.7571 225.774 22.0442 224.97 22.0442H223.502C222.401 22.0442 222.149 21.7577 222.149 20.7828V18.9697H220.601Z" fill="white"/>
<path d="M232.621 24.0159C232.46 23.672 232.07 23.0294 231.726 22.5022V27.5143H230.694V22.8694C230.269 23.9133 229.753 24.8883 229.226 25.5419C229.122 25.2554 228.87 24.8192 228.709 24.5553C229.386 23.7753 230.121 22.4106 230.544 21.1944H228.859V20.1962H230.694V18.66C230.201 18.7516 229.707 18.8206 229.248 18.8897C229.214 18.66 229.065 18.2819 228.95 18.0638C230.235 17.8573 231.703 17.525 232.598 17.1347L233.205 18.0064C232.77 18.1786 232.265 18.3161 231.726 18.4419V20.1969H233.332V21.195H231.726V21.3557C232.07 21.7112 233.045 22.881 233.263 23.1791L232.621 24.0159ZM238.001 24.5779V27.5143H236.946V24.7618L233.332 25.3696L233.172 24.3489L236.945 23.7178V16.9966H238V23.5456L239.25 23.3391L239.411 24.3372L238.001 24.5779ZM235.5 23.03C235.121 22.5371 234.284 21.8028 233.584 21.3208L234.261 20.7014C234.949 21.1602 235.821 21.8486 236.222 22.33L235.5 23.03ZM235.787 20.013C235.443 19.531 234.663 18.8316 234.009 18.3496L234.709 17.7418C235.362 18.1889 236.154 18.8542 236.532 19.3361L235.787 20.013Z" fill="white"/>
<path d="M252.406 17.3299C252.154 18.0751 251.856 18.8326 251.523 19.5662V27.5147H250.514V21.4354C250.216 21.9058 249.918 22.3304 249.596 22.7085C249.505 22.4446 249.218 21.8484 249.058 21.5845C250.009 20.4721 250.893 18.7745 251.42 17.0537L252.406 17.3299ZM258.807 19.0617C258.44 19.7727 257.958 20.3805 257.385 20.8967C258.13 21.298 259.025 21.6077 260.069 21.7916C259.886 22.0097 259.61 22.3994 259.484 22.6633C258.36 22.411 257.407 21.9864 256.616 21.4819C255.814 22.0323 254.873 22.4452 253.852 22.7549C253.749 22.5601 253.485 22.2161 253.29 21.9981V25.6339H252.361V18.3848H253.29V19.9101C254.116 19.1759 254.839 18.1093 255.252 16.9854L256.227 17.226C256.1 17.559 255.951 17.8796 255.78 18.2009H259.702V19.061H258.807V19.0617ZM253.29 21.9064C254.23 21.6767 255.09 21.3445 255.825 20.8973C255.4 20.5418 255.056 20.1631 254.77 19.7733C254.494 20.1172 254.208 20.4153 253.921 20.6792C253.784 20.5528 253.508 20.3353 253.29 20.1747V21.9064H253.29ZM259.747 24.8996C258.6 26.2533 256.512 27.0443 254.138 27.4689C254.023 27.2166 253.794 26.8495 253.588 26.6314C255.801 26.3101 257.831 25.6448 258.829 24.5209L259.747 24.8996ZM257.579 22.5142C256.868 23.2253 255.721 23.7989 254.654 24.1428C254.517 23.9595 254.276 23.684 254.069 23.5234C255.056 23.2479 256.18 22.7549 256.776 22.1813L257.579 22.5142ZM258.657 23.5692C257.774 24.5441 256.26 25.2325 254.723 25.6455C254.597 25.439 254.379 25.1409 254.195 24.957C255.618 24.6357 257.109 24.0395 257.866 23.2479L258.657 23.5692ZM255.285 19.0617L255.274 19.0733C255.583 19.532 256.008 19.9792 256.558 20.3811C257.017 20.0024 257.396 19.5669 257.694 19.0623H255.285V19.0617Z" fill="white"/>
<path d="M267.328 21.5733V25.886H271.307V26.9525H262.303V25.886H266.191V21.5733H261.672V20.5184H266.191V17.02H267.327V20.5184H271.915V21.5733H267.328V21.5733Z" fill="white"/>
<path d="M277.96 20.598H280.598V21.5729H277.96V22.5937H280.254V25.6101C280.254 26.0462 280.185 26.3211 279.887 26.4818C279.588 26.6424 279.152 26.654 278.556 26.6424C278.533 26.3785 278.407 25.9888 278.27 25.7365C278.683 25.7482 279.026 25.7482 279.141 25.7365C279.256 25.7365 279.29 25.7023 279.29 25.5875V23.546H277.96V27.5257H276.951V23.546H275.7V26.6082H274.749V22.5937H276.951V21.5729H274.255V20.598H275.047C274.829 20.4715 274.404 20.3225 274.152 20.2309C274.656 19.474 275.035 18.3384 275.253 17.2487L276.251 17.4551C276.16 17.8339 276.057 18.2236 275.953 18.5907H276.951V17.0654H277.961V18.5907H280.151V19.554H277.961V20.598H277.96ZM276.951 20.598V19.554H275.609C275.46 19.9438 275.287 20.3109 275.104 20.598H276.951ZM282.284 24.3487H281.298V18.0062H282.284V24.3487ZM284.349 17.1571V26.1611C284.349 26.8031 284.211 27.1018 283.833 27.2851C283.466 27.4683 282.824 27.4915 281.963 27.4915C281.917 27.2051 281.768 26.7115 281.619 26.4018C282.261 26.425 282.88 26.425 283.076 26.4134C283.259 26.4134 283.317 26.3559 283.317 26.1727V17.1571H284.349Z" fill="white"/>
<path d="M289.866 17.3638C289.556 18.1665 289.166 18.9923 288.73 19.7608V27.5028H287.652V21.4474C287.354 21.8603 287.033 22.2391 286.711 22.5714C286.608 22.3075 286.298 21.7113 286.115 21.47C287.205 20.3918 288.226 18.7175 288.845 17.0425L289.866 17.3638ZM293.329 19.8989V21.3558H296.449V22.3307H293.329V23.856H296.61V24.8542H293.329V27.515H292.24V19.8989H291.597C291.115 20.7938 290.588 21.5964 290.037 22.2042C289.865 22.021 289.452 21.6423 289.211 21.4816C290.22 20.4267 291.138 18.7749 291.689 17.1231L292.709 17.3986C292.526 17.8916 292.331 18.3968 292.113 18.8781H296.724V19.8989H293.329Z" fill="white"/>
<path d="M307.357 24.6809C306.852 25.0706 306.221 25.4378 305.671 25.7358C306.313 26.1604 307.093 26.4811 308 26.665C307.77 26.8598 307.507 27.2728 307.369 27.5367C305.339 27.0321 303.985 25.8849 303.193 24.1531H301.978V26.0797C302.689 25.9765 303.446 25.85 304.203 25.7358L304.237 26.665C302.712 26.9172 301.095 27.1811 299.902 27.3644L299.741 26.3895C300.108 26.3436 300.533 26.2862 300.991 26.2172V24.1525H299.661V23.2576H301.587V22.2594H299.993V21.3535H301.587V20.436H299.672V20.8606C299.672 22.822 299.511 25.6778 298.318 27.536C298.112 27.3637 297.641 27.0889 297.377 26.9856C298.513 25.219 298.605 22.6846 298.605 20.8606V17.5112H307.23V20.436H305.601V21.3535H307.402V22.2594H305.601V23.2576H307.873V24.1525H306.588L307.357 24.6809ZM299.672 19.5198H306.165V18.43H299.672V19.5198ZM302.562 21.3548H304.604V20.4373H302.562V21.3548ZM302.562 23.2588H304.604V22.2607H302.562V23.2588ZM304.203 24.1538C304.421 24.5435 304.685 24.888 305.005 25.1977C305.533 24.888 306.129 24.4867 306.531 24.1538H304.203Z" fill="white"/>
<path d="M235.58 7.9494H230.981V10.5877H229.88V7.9494H225.395V6.92867H229.88V6.17182H230.614C230.408 5.96535 230.098 5.71307 229.903 5.58661C231.085 4.933 231.979 3.86581 232.392 2.54698L233.471 2.75345C233.333 3.178 233.161 3.57933 232.954 3.94646C233.78 4.49683 234.789 5.23109 235.306 5.72404L234.56 6.51573C234.101 6.05697 233.206 5.35756 232.403 4.78396C231.99 5.33433 231.498 5.79308 230.97 6.17182H230.981V6.92867H235.58V7.9494ZM229.467 5.70081C229.181 5.41434 228.664 4.98978 228.182 4.63426C227.666 5.42595 227.035 6.10214 226.347 6.59573C226.175 6.41249 225.728 6.04536 225.487 5.8847C226.657 5.16205 227.552 3.94646 227.988 2.5244L229.066 2.76506C228.939 3.13219 228.802 3.48771 228.629 3.83161C229.157 4.18713 229.777 4.63426 230.109 4.94397L229.467 5.70081ZM235.248 2.48955H225.694V1.46882H229.88V0.0693359H230.981V1.46882H235.248V2.48955V2.48955Z" fill="white"/>
<path d="M243.208 7.93817C244.217 8.64921 245.697 9.23442 247.096 9.49831C246.855 9.72801 246.546 10.1635 246.385 10.45C244.894 10.0487 243.357 9.28023 242.279 8.29369V10.5991H241.235V8.3737C240.145 9.2912 238.596 10.0371 237.163 10.4384C237.002 10.1629 236.704 9.76156 236.463 9.53251C237.828 9.24603 239.319 8.64921 240.329 7.93817H236.785V7.04325H241.235V6.34384H237.851V5.54118H241.235V4.85273H237.289V4.00427H239.64C239.537 3.68295 239.342 3.27001 239.158 2.9603L239.434 2.91449H236.831V2.01957H238.528C238.356 1.57244 238.012 0.941411 237.691 0.471046L238.62 0.161341C238.975 0.654288 239.377 1.35435 239.537 1.80149L238.952 2.01957H240.213V0.0581055H241.211V2.01957H242.346V0.0581055H243.356V2.01957H244.594L244.158 1.88214C244.434 1.42339 244.789 0.700744 244.961 0.184569L246.062 0.460077C245.753 1.02206 245.409 1.59566 245.111 2.02022H246.762V2.91514H244.549C244.331 3.30485 244.101 3.6836 243.907 4.00491H246.338V4.85273H242.278V5.54118H245.799V6.34384H242.278V7.04325H246.797V7.93817H243.208ZM240.26 2.91449C240.467 3.24743 240.673 3.65972 240.753 3.93523L240.421 4.00427H242.841C243.013 3.69456 243.196 3.28162 243.345 2.91449H240.26Z" fill="white"/>
<path d="M247.704 0.654785H251.764V1.6181H250.044C249.871 2.48979 249.654 3.33825 249.378 4.14155H251.592V9.18846H249.344V10.0718H248.449V6.19464C248.277 6.48112 248.105 6.74501 247.91 6.98632C247.864 6.71082 247.646 6.06882 247.485 5.7817C248.242 4.76096 248.736 3.24663 249.034 1.6181H247.703V0.654785H247.704ZM250.675 5.09325H249.344V8.24773H250.675V5.09325ZM258.107 5.7475H256.868V10.5989H255.847V5.7475H254.219C254.161 7.46766 253.863 9.3717 252.625 10.6563C252.441 10.4841 252.051 10.1744 251.81 10.0369C252.9 8.90134 253.164 7.21538 253.221 5.7475H252.04V4.73773H253.233V1.66391H252.35V0.666399H257.878V1.66455H256.869V4.73838H258.108V5.7475H258.107ZM255.847 4.73773V1.66391H254.23V4.73773H255.847V4.73773Z" fill="white"/>
<path d="M268.074 9.47509C268.361 9.47509 268.407 9.28023 268.453 7.81171C268.682 8.00657 269.164 8.19045 269.462 8.27046C269.359 10.0597 269.072 10.5184 268.201 10.5184H267.088C266.102 10.5184 265.815 10.2087 265.815 9.10731V7.04261H263.888C263.647 8.38467 262.718 9.79512 259.645 10.6326C259.484 10.3803 259.174 9.99062 258.922 9.76092C261.571 9.0615 262.478 8.01754 262.764 7.04261H259.736V6.04445H262.891V4.72627H263.957V6.0451H266.928V9.09634C266.928 9.42928 266.985 9.47509 267.261 9.47509H268.074ZM263.325 2.0428C263.085 3.86619 262.396 4.93339 259.678 5.49537C259.586 5.24309 259.334 4.83015 259.116 4.63529C261.479 4.22235 262.018 3.43067 262.213 2.04345H260.39V3.24807H259.323V1.09046H263.613V0.0581055H264.702V1.09046H269.072V3.14355H267.948V2.0428H265.929V3.84361C265.929 4.1417 265.986 4.17654 266.364 4.17654H267.569C267.867 4.17654 267.925 4.07331 267.959 3.35066C268.177 3.51132 268.612 3.67198 268.9 3.71779C268.785 4.83015 268.498 5.11727 267.695 5.11727H266.227C265.126 5.11727 264.873 4.8308 264.873 3.85587V2.0428H263.325Z" fill="white"/>
<path d="M272.901 5.33477C272.901 5.83417 272.496 6.23937 271.997 6.23937C271.498 6.23937 271.092 5.83353 271.092 5.33477C271.092 4.83602 271.498 4.43018 271.997 4.43018C272.496 4.43018 272.901 4.83537 272.901 5.33477Z" fill="white"/>
<path d="M278.931 3.67125H281.569V4.64618H278.931V5.66691H281.225V8.68332C281.225 9.11884 281.156 9.39435 280.858 9.55501C280.56 9.71567 280.123 9.72728 279.527 9.71567C279.504 9.45177 279.378 9.06206 279.241 8.80978C279.654 8.82139 279.998 8.82139 280.113 8.80978C280.227 8.80978 280.262 8.77558 280.262 8.66073V6.61926H278.931V10.599H277.922V6.61926H276.672V9.68147H275.72V5.66691H277.922V4.64618H275.226V3.67125H276.018C275.8 3.54479 275.375 3.39574 275.123 3.30412C275.628 2.54728 276.006 1.41169 276.224 0.321914L277.223 0.528385C277.131 0.907129 277.028 1.29684 276.924 1.66397H277.923V0.138672H278.932V1.66397H281.122V2.62728H278.932V3.67125H278.931ZM277.921 3.67125V2.62728H276.579C276.43 3.017 276.258 3.38413 276.075 3.67125H277.921V3.67125ZM283.255 7.42191H282.268V1.0794H283.255V7.42191ZM285.319 0.230293V9.23433C285.319 9.87697 285.182 10.1751 284.803 10.3583C284.436 10.5415 283.794 10.5648 282.933 10.5648C282.888 10.2783 282.739 9.78471 282.59 9.475C283.232 9.49823 283.851 9.49823 284.046 9.48661C284.23 9.48661 284.287 9.42919 284.287 9.24595V0.230293H285.319Z" fill="white"/>
<path d="M289.919 0.436711C289.609 1.23936 289.22 2.06524 288.784 2.8337V10.5757H287.705V4.51966C287.407 4.9326 287.086 5.31134 286.765 5.64363C286.661 5.37974 286.352 4.78355 286.168 4.54224C287.258 3.46408 288.279 1.78974 288.898 0.114746L289.919 0.436711ZM293.383 2.97178V4.42868H296.503V5.40361H293.383V6.92891H296.664V7.92706H293.383V10.588H292.294V2.97178H291.651C291.169 3.8667 290.642 4.66935 290.091 5.27715C289.918 5.09391 289.506 4.71516 289.265 4.5545C290.274 3.49957 291.191 1.84781 291.742 0.196044L292.763 0.471552C292.58 0.9645 292.384 1.46971 292.167 1.95104H296.778V2.97178H293.383Z" fill="white"/>
<path d="M307.181 7.75384C306.677 8.14355 306.046 8.51068 305.495 8.80877C306.137 9.23333 306.917 9.554 307.824 9.73789C307.594 9.93275 307.331 10.3457 307.193 10.6096C305.163 10.105 303.809 8.95782 303.018 7.22605H301.802V9.15268C302.513 9.04944 303.27 8.92298 304.027 8.80877L304.061 9.73789C302.536 9.99017 300.919 10.2541 299.726 10.4373L299.565 9.46238C299.932 9.41657 300.357 9.35915 300.815 9.29011V7.22541H299.485V6.33049H301.412V5.33233H299.818V4.42773H301.412V3.51023H299.497V3.93478C299.497 5.89625 299.336 8.75199 298.143 10.6102C297.936 10.438 297.466 10.1631 297.202 10.0599C298.338 8.29324 298.429 5.75882 298.429 3.93478V0.585449H307.055V3.51023H305.426V4.42773H307.227V5.33362H305.426V6.33178H307.697V7.2267H306.413L307.181 7.75384ZM299.497 2.59273H305.989V1.50295H299.497V2.59273ZM302.386 4.42773H304.428V3.51023H302.386V4.42773ZM302.386 6.33178H304.428V5.33362H302.386V6.33178ZM304.027 7.2267C304.245 7.61641 304.509 7.96096 304.829 8.27066C305.357 7.96096 305.953 7.55963 306.355 7.2267H304.027Z" fill="white"/>
<path d="M97.8133 4.69687V5.21369H92.7135V4.69687H94.9879V3.3761H93.351V2.86509H94.9879V1.7166H93.713C93.5349 2.06115 93.3452 2.36569 93.1445 2.607C93.0355 2.51538 92.8 2.35988 92.6567 2.28568C93.1219 1.79725 93.4839 1.01073 93.6962 0.206786L94.2472 0.333249C94.1614 0.626179 94.0575 0.919108 93.9485 1.19462H94.9879V0.125488H95.5389V1.19397H97.5372V1.7166H95.5389V2.86509H97.3249V3.3761H95.5389V4.69687H97.8133Z" fill="white"/>
<path d="M99.9499 2.7618C99.7144 2.60114 99.2376 2.32564 98.8931 2.14755L99.186 1.75139C99.5131 1.91205 100.002 2.16498 100.243 2.31983L99.9499 2.7618ZM99.0079 4.96136C99.3125 4.53035 99.7544 3.79545 100.087 3.14635L100.472 3.50252C100.179 4.09418 99.7944 4.78328 99.4557 5.31752L99.0079 4.96136ZM100.22 1.21134C99.9841 1.04487 99.5073 0.769365 99.1686 0.579671L99.4673 0.200927C99.8002 0.361587 100.289 0.62032 100.536 0.780979L100.22 1.21134ZM102.608 2.2966V3.14635H103.791V5.35752H103.286V5.14525H101.385V5.38656H100.897V3.147H102.103V2.2966H100.507V1.78559H102.103V0.970029C101.701 1.03326 101.287 1.07907 100.909 1.10811C100.886 0.981643 100.817 0.780979 100.754 0.660323C101.736 0.557088 102.85 0.373201 103.482 0.137695L103.901 0.551281C103.533 0.689358 103.086 0.7984 102.609 0.884215V1.78559H104.131V2.2966H102.608ZM103.286 3.62898H101.386V4.66262H103.286V3.62898Z" fill="white"/>
<path d="M107.076 4.03631C106.433 4.226 105.744 4.42666 105.21 4.57055L105.095 4.06534C105.307 4.01372 105.566 3.95049 105.841 3.88145V2.63489H105.221V2.16388H105.841V0.992805H105.164V0.521795H106.967V0.992805H106.324V2.16452H106.881V2.63553H106.324V3.74918C106.554 3.68595 106.789 3.62272 107.019 3.55949L107.076 4.03631ZM110.292 4.05953C110.062 4.23181 109.775 4.40408 109.545 4.51893C109.798 4.72024 110.091 4.8809 110.413 4.97252C110.292 5.06995 110.149 5.26545 110.068 5.39191C109.419 5.13899 108.902 4.63378 108.575 4.00792L108.529 4.04792V5.39191H108.03V4.43828C107.645 4.70217 107.214 4.92606 106.824 5.07576C106.755 4.96671 106.612 4.78863 106.508 4.70217C107.105 4.51248 107.777 4.15116 108.248 3.76015H107.26V2.49165H110.045V3.7608H108.909C109 3.93888 109.121 4.10534 109.265 4.2602C109.483 4.12793 109.758 3.92146 109.92 3.78338L110.292 4.05953ZM106.903 1.78513H110.406V2.2213H106.903V1.78513ZM110.16 1.52705H107.168V0.303711H110.16V1.52705ZM108.052 0.676648H107.605V1.14766H108.052V0.676648ZM107.73 3.36463H109.551V2.88201H107.73V3.36463ZM108.873 0.676648H108.408V1.14766H108.873V0.676648ZM109.706 0.676648H109.235V1.14766H109.706V0.676648Z" fill="white"/>
<path d="M113.312 3.66909C112.709 3.96202 112.049 4.26656 111.544 4.50207L111.354 3.97363C111.56 3.89879 111.819 3.78974 112.095 3.67489V1.99216H111.469V1.49276H112.095V0.189418H112.588V1.49276H113.151V1.99216H112.588V3.45681L113.192 3.19291L113.312 3.66909ZM116.132 4.89759C116.241 4.89759 116.264 4.83435 116.281 4.36334C116.378 4.444 116.591 4.5182 116.723 4.55304C116.677 5.19632 116.545 5.35698 116.183 5.35698H115.672C115.207 5.35698 115.103 5.2131 115.103 4.7537V3.97299H114.587C114.448 4.67369 114.098 5.13309 113.042 5.39698C112.99 5.27052 112.846 5.04663 112.749 4.9492C113.656 4.77112 113.943 4.45561 114.064 3.97299H113.524V2.22186H116.355V3.97363H115.609V4.74918C115.609 4.88145 115.626 4.89823 115.752 4.89823H116.132V4.89759ZM116.654 1.95151H113.157V1.51534H114.03C113.996 1.36049 113.921 1.15918 113.841 1.01014L114.094 0.952712H113.324V0.53332H114.622V0.131348H115.145V0.53332H116.534V0.952712H115.776L116.023 1.00433C115.92 1.18822 115.834 1.37211 115.754 1.51534H116.655V1.95151H116.654ZM114.03 2.92773H115.839V2.56576H114.03V2.92773ZM114.03 3.62844H115.839V3.26066H114.03V3.62844ZM114.328 0.952712C114.42 1.11918 114.501 1.32629 114.53 1.46953L114.352 1.51534H115.38L115.253 1.48695C115.328 1.33791 115.425 1.11918 115.483 0.952712H114.328Z" fill="white"/>
<path d="M118.394 2.16471H122.155C122.276 2.16471 122.488 2.15891 122.638 2.13632V2.72799C122.5 2.72218 122.305 2.71638 122.155 2.71638H120.674C120.651 3.32482 120.536 3.83067 120.318 4.24426C120.111 4.63461 119.674 5.05981 119.175 5.3179L118.646 4.92754C119.072 4.75527 119.485 4.42234 119.709 4.07198C119.956 3.68743 120.03 3.2332 120.054 2.71638H118.394C118.222 2.71638 118.032 2.72218 117.872 2.7338V2.13632C118.032 2.1531 118.215 2.16471 118.394 2.16471ZM119.106 0.717484H121.047C121.225 0.717484 121.443 0.70587 121.621 0.683288V1.27495C121.437 1.26334 121.231 1.25173 121.047 1.25173H119.112C118.916 1.25173 118.704 1.26334 118.549 1.27495V0.683288C118.721 0.70587 118.916 0.717484 119.106 0.717484ZM122.402 1.033L122.024 1.19366C121.909 0.963958 121.725 0.619411 121.57 0.401327L121.938 0.246474C122.08 0.452944 122.287 0.809105 122.402 1.033ZM123.062 0.780716L122.689 0.947183C122.568 0.700063 122.378 0.372937 122.218 0.154853L122.586 0C122.741 0.217439 122.959 0.5736 123.062 0.780716Z" fill="white"/>
<path d="M125.526 5.34012L125.038 4.88653C126.111 4.49037 126.617 3.99613 126.617 2.4747V2.245H125.107V3.10637C125.107 3.33607 125.124 3.58319 125.13 3.6632H124.493C124.504 3.58254 124.521 3.34188 124.521 3.10637V2.24436H123.958C123.689 2.24436 123.453 2.25597 123.361 2.26178V1.64172C123.436 1.65334 123.694 1.68753 123.958 1.68753H124.521V1.02102C124.521 0.882944 124.509 0.710671 124.493 0.561625H125.136C125.124 0.642277 125.107 0.814551 125.107 1.02683V1.68753H126.617V1.02102C126.617 0.791323 126.6 0.601629 126.589 0.521621H127.238C127.232 0.602274 127.209 0.791323 127.209 1.02102V1.68689H127.743C128.024 1.68689 128.208 1.66947 128.317 1.65269V2.26113C128.232 2.24952 128.024 2.24371 127.749 2.24371H127.209V2.43921C127.209 3.92128 126.87 4.74265 125.526 5.34012ZM128.053 1.30814L127.72 1.42299C127.634 1.17587 127.519 0.848748 127.404 0.624856L127.731 0.521621C127.835 0.733899 127.979 1.08425 128.053 1.30814ZM128.639 1.13071L128.306 1.23975C128.22 0.986825 128.099 0.665505 127.984 0.441614L128.312 0.338379C128.421 0.555818 128.565 0.90101 128.639 1.13071Z" fill="white"/>
<path d="M131.728 1.73962C132.326 1.37185 132.934 0.83825 133.324 0.373047L133.807 0.832443C133.371 1.27442 132.831 1.71704 132.262 2.08998V4.47342C132.262 4.70892 132.274 5.02443 132.302 5.1509H131.59C131.608 5.02443 131.624 4.70892 131.624 4.47342V2.47453C131.021 2.80165 130.264 3.13523 129.505 3.36493L129.224 2.79649C130.229 2.52614 131.091 2.13579 131.728 1.73962Z" fill="white"/>
<path d="M137.247 3.69736C138.171 3.12892 138.889 2.26756 139.239 1.53265L139.59 2.15851C139.176 2.90503 138.469 3.68639 137.574 4.23741C136.994 4.59357 136.265 4.93231 135.374 5.09297L134.99 4.50131C135.949 4.35807 136.696 4.0361 137.247 3.69736ZM137.052 1.85978L136.598 2.32498C136.3 2.02044 135.588 1.39457 135.163 1.10745L135.582 0.659668C135.983 0.92937 136.73 1.52684 137.052 1.85978Z" fill="white"/>
<path d="M141.312 0.975115H144.167C144.321 0.975115 144.523 0.969308 144.626 0.963501C144.62 1.08996 144.614 1.29643 144.614 1.44612V4.41543C144.614 4.61673 144.626 4.89805 144.638 5.02387H143.983C143.983 4.94322 143.988 4.83417 143.988 4.71352H141.266C141.031 4.71352 140.744 4.72513 140.577 4.73675V4.08765C140.744 4.09927 140.997 4.11669 141.243 4.11669H143.994V1.55517H141.312C141.088 1.55517 140.795 1.56678 140.646 1.5784V0.940918C140.847 0.958339 141.123 0.975115 141.312 0.975115Z" fill="white"/>
<path d="M146.284 2.41115H148.783C149.004 2.41115 149.183 2.38792 149.297 2.37695V3.08928C149.196 3.08347 148.985 3.06089 148.783 3.06089H146.284C146.031 3.06089 145.756 3.0725 145.6 3.08928V2.37695C145.751 2.38857 146.036 2.41115 146.284 2.41115Z" fill="white"/>
<path d="M154.032 1.3721C153.831 1.84311 153.492 2.4922 153.09 3.00902C153.682 3.51423 154.377 4.25494 154.733 4.69175L154.228 5.13953C153.849 4.62271 153.275 3.99104 152.706 3.46261C152.091 4.11751 151.316 4.73176 150.494 5.11631L150.029 4.62787C150.96 4.27171 151.821 3.58262 152.39 2.94514C152.78 2.50897 153.165 1.8773 153.302 1.42888H151.195C150.971 1.42888 150.661 1.45791 150.569 1.46307V0.815273C150.684 0.832693 151.017 0.855276 151.195 0.855276H153.326C153.538 0.855276 153.728 0.832048 153.825 0.797852L154.199 1.07336C154.159 1.13143 154.072 1.27467 154.032 1.3721Z" fill="white"/>
<path d="M158.511 2.75571C158.511 3.12349 158.212 3.42158 157.845 3.42158C157.478 3.42158 157.179 3.12284 157.179 2.75571C157.179 2.38858 157.478 2.08984 157.845 2.08984C158.212 2.08984 158.511 2.38858 158.511 2.75571Z" fill="white"/>
<path d="M163.691 3.34758H162.106V2.13585H163.691V3.2095C163.926 3.05465 164.144 2.86495 164.34 2.64687C164.128 2.22167 163.966 1.69388 163.863 1.10802H161.871V1.53902C161.871 2.2165 161.767 3.17595 161.239 3.81859C161.158 3.72116 160.952 3.54888 160.849 3.49146C161.325 2.91141 161.383 2.11327 161.383 1.53322V0.677011H163.801C163.777 0.493123 163.761 0.309236 163.755 0.120186H164.26C164.266 0.309881 164.277 0.493769 164.3 0.677011H165.167C164.983 0.567969 164.748 0.45312 164.547 0.378274L164.811 0.0737305C165.092 0.159545 165.437 0.32085 165.626 0.464088L165.448 0.676366H166.028V1.10737H164.369C164.444 1.51515 164.553 1.88293 164.685 2.19263C164.852 1.92874 164.99 1.63581 165.093 1.32546L165.598 1.44031C165.432 1.90551 165.208 2.33071 164.937 2.69784C165.138 3.014 165.357 3.19724 165.557 3.19724C165.69 3.19724 165.747 3.00174 165.776 2.49653C165.885 2.58815 166.057 2.68623 166.189 2.73204C166.108 3.48436 165.93 3.67986 165.528 3.67986C165.19 3.67986 164.874 3.46178 164.61 3.094C164.414 3.29531 164.208 3.47855 163.984 3.62825C163.932 3.5534 163.8 3.42178 163.691 3.32951V3.34758V3.34758ZM160.888 4.97869C161.256 4.71996 161.496 4.2954 161.629 3.8702L162.1 4.03667C161.956 4.49607 161.732 4.97869 161.336 5.27743L160.888 4.97869ZM163.76 1.79711H162.043V1.44095H163.76V1.79711ZM164.156 4.84061C164.392 4.84061 164.432 4.77158 164.455 4.27798C164.564 4.35863 164.794 4.43864 164.932 4.47348C164.868 5.15096 164.714 5.31743 164.208 5.31743H163.18C162.526 5.31743 162.365 5.17355 162.365 4.67415V3.85278H162.893V4.66834C162.893 4.81739 162.939 4.84061 163.232 4.84061H164.156ZM163.248 2.49782H162.542V2.98625H163.248V2.49782ZM163.185 3.38242C163.524 3.55469 163.931 3.8302 164.121 4.04828L163.748 4.37541C163.57 4.15733 163.173 3.8644 162.835 3.68051L163.185 3.38242ZM165.201 3.80116C165.597 4.12829 166.005 4.5993 166.178 4.96127L165.689 5.2142C165.545 4.86384 165.149 4.37606 164.764 4.03151L165.201 3.80116Z" fill="white"/>
<path d="M167.078 2.68696C167.222 2.30241 167.325 1.67074 167.365 1.20553L167.756 1.26296C167.727 1.73397 167.623 2.39984 167.486 2.82503L167.078 2.68696ZM172.373 4.69101V5.19622H168.853V4.69101H170.449V3.38767H169.283V2.88827H170.449V1.80817H169.703C169.594 2.12949 169.467 2.42242 169.335 2.65792C169.226 2.58308 168.991 2.46242 168.858 2.4108C168.933 2.29595 169.007 2.16368 169.071 2.01464L168.749 2.16949C168.698 1.93979 168.548 1.57202 168.405 1.26812V5.38591H167.87V0.119629H168.405V1.18231L168.743 1.04423C168.887 1.31393 169.048 1.66428 169.117 1.9056C169.295 1.45781 169.422 0.917766 169.496 0.378362L170.018 0.464176C169.978 0.751299 169.915 1.03261 169.846 1.30232H170.449V0.142857H170.984V1.30296H172.224V1.80817H170.984V2.88762H172.098V3.38702H170.984V4.69036H172.373V4.69101Z" fill="white"/>
<path d="M173.343 2.7097C173.464 2.31934 173.556 1.68186 173.59 1.23408L173.975 1.27989C173.958 1.73348 173.866 2.40515 173.745 2.83616L173.343 2.7097ZM174.836 1.91156C174.779 1.71025 174.658 1.37151 174.543 1.10762V5.38607H174.055V0.125593H174.543V1.06181L174.876 0.929536C174.991 1.18762 175.14 1.52701 175.198 1.73929L174.836 1.91156ZM178.667 1.94576V2.34192H174.946V1.94576H176.52V1.61282H175.256V1.23924H176.52V0.940505H175.118V0.54434H176.52V0.119141H177.048V0.54434H178.5V0.940505H177.047V1.23924H178.351V1.61282H177.047V1.94576H178.667ZM178.248 4.84021C178.248 5.08152 178.196 5.21896 178.024 5.2938C177.846 5.36865 177.576 5.37445 177.18 5.37445C177.157 5.24218 177.088 5.04152 177.025 4.91506C177.289 4.93248 177.565 4.92667 177.639 4.92667C177.72 4.92086 177.742 4.89828 177.742 4.82924V4.51889H175.842V5.38607H175.348V2.62388H178.248V4.84021H178.248ZM175.842 3.02585V3.38202H177.742V3.02585H175.842ZM177.742 4.1337V3.77754H175.842V4.1337H177.742Z" fill="white"/>
<path d="M181.228 1.61858H182.233V2.07217H181.699L181.946 2.1354C181.849 2.37671 181.745 2.62899 181.653 2.81288H182.164V3.27228H181.228V3.81233H182.089V4.26592H181.228V5.3744H180.729V4.26592H179.827V3.81233H180.729V3.27228H179.776V2.81288H180.275C180.247 2.61738 180.16 2.34768 180.057 2.1354L180.292 2.07217H179.678V1.61858H180.729V1.11918H179.885V0.671397H180.729V0.131348H181.229V0.671397H182.021V1.11918H181.229V1.61858H181.228ZM181.24 2.76126C181.32 2.56576 181.424 2.27864 181.481 2.07217H180.487C180.591 2.29606 180.689 2.57738 180.711 2.76126L180.522 2.81288H181.435L181.24 2.76126ZM184.806 2.41091C184.691 3.0942 184.473 3.73748 184.157 4.28334C184.404 4.57046 184.691 4.80596 185.012 4.96662C184.897 5.06405 184.737 5.25955 184.656 5.39182C184.363 5.21955 184.099 4.98985 183.864 4.71434C183.662 4.97824 183.428 5.20794 183.163 5.39763C183.094 5.3002 182.979 5.17374 182.87 5.08728V5.39182H182.387V0.37266H184.673V1.45792C184.673 1.70504 184.621 1.84247 184.42 1.91732C184.23 1.99216 183.937 1.99216 183.507 1.99216C183.484 1.85408 183.415 1.65923 183.346 1.53276C183.673 1.54438 183.978 1.54438 184.064 1.53857C184.15 1.53276 184.173 1.51534 184.173 1.45276V0.844315H182.87V2.31477H184.392L184.478 2.29154L184.806 2.41091ZM182.871 4.98985C183.135 4.80596 183.359 4.57046 183.554 4.30076C183.261 3.84717 183.037 3.31873 182.871 2.75029V4.98985ZM183.319 2.74965C183.445 3.14001 183.617 3.51359 183.83 3.85233C184.013 3.50778 184.146 3.1342 184.237 2.74965H183.319Z" fill="white"/>
<path d="M186.672 2.16471H190.434C190.554 2.16471 190.766 2.15891 190.916 2.13632V2.72799C190.778 2.72218 190.583 2.71638 190.434 2.71638H188.952C188.929 3.32482 188.814 3.83067 188.596 4.24426C188.389 4.63461 187.953 5.05981 187.453 5.3179L186.925 4.92754C187.35 4.75527 187.763 4.42234 187.987 4.07198C188.235 3.68743 188.309 3.2332 188.332 2.71638H186.673C186.5 2.71638 186.311 2.72218 186.15 2.7338V2.13632C186.311 2.1531 186.494 2.16471 186.672 2.16471ZM187.384 0.717484H189.325C189.503 0.717484 189.721 0.70587 189.899 0.683288V1.27495C189.715 1.26334 189.509 1.25173 189.325 1.25173H187.39C187.195 1.25173 186.982 1.26334 186.827 1.27495V0.683288C187 0.70587 187.195 0.717484 187.384 0.717484ZM190.681 1.033L190.302 1.19366C190.187 0.963958 190.003 0.619411 189.848 0.401327L190.216 0.246474C190.359 0.452944 190.566 0.809105 190.681 1.033ZM191.341 0.780716L190.967 0.947183C190.846 0.700063 190.657 0.372937 190.496 0.154853L190.864 0C191.019 0.217439 191.237 0.5736 191.341 0.780716Z" fill="white"/>
<path d="M193.575 5.34012L193.086 4.88653C194.16 4.49037 194.666 3.99613 194.666 2.4747V2.245H193.155V3.10637C193.155 3.33607 193.173 3.58319 193.178 3.6632H192.541C192.553 3.58254 192.569 3.34188 192.569 3.10637V2.24436H192.007C191.737 2.24436 191.501 2.25597 191.409 2.26178V1.64172C191.484 1.65334 191.742 1.68753 192.007 1.68753H192.569V1.02102C192.569 0.882944 192.558 0.710671 192.541 0.561625H193.184C193.173 0.642277 193.155 0.814551 193.155 1.02683V1.68753H194.666V1.02102C194.666 0.791323 194.648 0.601629 194.637 0.521621H195.286C195.28 0.602274 195.257 0.791323 195.257 1.02102V1.68689H195.792C196.073 1.68689 196.257 1.66947 196.366 1.65269V2.26113C196.28 2.24952 196.073 2.24371 195.797 2.24371H195.257V2.43921C195.257 3.92128 194.919 4.74265 193.575 5.34012ZM196.101 1.30814L195.768 1.42299C195.682 1.17587 195.567 0.848748 195.452 0.624856L195.779 0.521621C195.883 0.733899 196.027 1.08425 196.101 1.30814ZM196.687 1.13071L196.354 1.23975C196.268 0.986825 196.148 0.665505 196.033 0.441614L196.36 0.338379C196.469 0.555818 196.613 0.90101 196.687 1.13071Z" fill="white"/>
<path d="M199.546 1.73962C200.144 1.37185 200.752 0.83825 201.142 0.373047L201.625 0.832443C201.189 1.27442 200.649 1.71704 200.08 2.08998V4.47342C200.08 4.70892 200.092 5.02443 200.12 5.1509H199.408C199.425 5.02443 199.442 4.70892 199.442 4.47342V2.47453C198.839 2.80165 198.081 3.13523 197.323 3.36493L197.042 2.79649C198.047 2.52614 198.909 2.13579 199.546 1.73962Z" fill="white"/>
<path d="M205.065 3.69736C205.99 3.12892 206.708 2.26756 207.058 1.53265L207.408 2.15851C206.994 2.90503 206.288 3.68639 205.392 4.23741C204.812 4.59357 204.083 4.93231 203.193 5.09297L202.808 4.50131C203.768 4.35807 204.514 4.0361 205.065 3.69736ZM204.87 1.85978L204.417 2.32498C204.118 2.02044 203.406 1.39457 202.981 1.10745L203.4 0.659668C203.802 0.92937 204.548 1.52684 204.87 1.85978Z" fill="white"/>
<path d="M209.13 0.975115H211.985C212.14 0.975115 212.341 0.969308 212.444 0.963501C212.438 1.08996 212.433 1.29643 212.433 1.44612V4.41543C212.433 4.61673 212.444 4.89805 212.456 5.02387H211.801C211.801 4.94322 211.807 4.83417 211.807 4.71352H209.085C208.849 4.71352 208.562 4.72513 208.396 4.73675V4.08765C208.562 4.09927 208.815 4.11669 209.061 4.11669H211.812V1.55517H209.13C208.907 1.55517 208.614 1.56678 208.465 1.5784V0.940918C208.665 0.958339 208.941 0.975115 209.13 0.975115Z" fill="white"/>
<path d="M214.102 2.41115H216.601C216.822 2.41115 217 2.38792 217.115 2.37695V3.08928C217.014 3.08347 216.803 3.06089 216.601 3.06089H214.102C213.849 3.06089 213.574 3.0725 213.417 3.08928V2.37695C213.569 2.38857 213.854 2.41115 214.102 2.41115Z" fill="white"/>
<path d="M221.85 1.3721C221.649 1.84311 221.31 2.4922 220.908 3.00902C221.5 3.51423 222.195 4.25494 222.551 4.69175L222.046 5.13953C221.667 4.62271 221.093 3.99104 220.524 3.46261C219.909 4.11751 219.134 4.73176 218.312 5.11631L217.847 4.62787C218.778 4.27171 219.639 3.58262 220.207 2.94514C220.598 2.50897 220.983 1.8773 221.12 1.42888H219.013C218.789 1.42888 218.479 1.45791 218.387 1.46307V0.815273C218.502 0.832693 218.835 0.855276 219.013 0.855276H221.144C221.356 0.855276 221.546 0.832048 221.643 0.797852L222.017 1.07336C221.977 1.13143 221.89 1.27467 221.85 1.3721Z" fill="white"/>
<path d="M97.7498 11.5024V11.985H92.7539V11.5024H94.9651V10.4746H93.3514V9.99774H97.2621V10.4746H95.5103V11.5024H97.7498ZM94.8902 7.91884C94.7754 8.90667 94.4541 9.50415 93.0584 9.81385C93.0126 9.67578 92.8746 9.46931 92.7713 9.36026C94.0063 9.13057 94.2469 8.68859 94.3334 7.91884H93.3688V8.64213H92.8462V7.43622H94.9651V6.87939H95.5109V7.43622H97.6756V8.52148H97.1298V7.9182H96.1303V8.95765C96.1303 9.10153 96.1645 9.12411 96.3542 9.12411H96.9917C97.1466 9.12411 97.1814 9.06088 97.1982 8.68795C97.3072 8.75698 97.5195 8.83699 97.6576 8.87183C97.606 9.43446 97.4621 9.57835 97.0491 9.57835H96.2852C95.7284 9.57835 95.6019 9.44027 95.6019 8.9641V7.91884H94.8902V7.91884Z" fill="white"/>
<path d="M99.7999 9.10729V12.1508H99.2715V7.1084H101.39V9.10664H99.7999V9.10729ZM99.7999 7.51102V7.90718H100.885V7.51102H99.7999ZM100.885 8.71112V8.28592H99.7999V8.71112H100.885ZM104.015 11.4849C104.015 11.7895 103.952 11.9617 103.745 12.0534C103.545 12.1398 103.229 12.145 102.746 12.145C102.723 12.0011 102.649 11.7714 102.58 11.6224H101.029V11.9095H100.541V9.50345H102.694V11.6056C102.976 11.6172 103.251 11.6114 103.343 11.6114C103.447 11.6056 103.476 11.5772 103.476 11.4791V9.1189H101.845V7.10904H104.015V11.4849V11.4849ZM101.029 9.90543V10.3532H102.195V9.90543H101.029ZM102.195 11.221V10.7442H101.029V11.221H102.195ZM102.356 7.51102V7.90718H103.476V7.51102H102.356ZM103.475 8.72274V8.28657H102.355V8.72274H103.475Z" fill="white"/>
<path d="M106.105 8.92301H109.867C109.987 8.92301 110.2 8.91721 110.349 8.89462V9.48629C110.211 9.48048 110.016 9.47468 109.867 9.47468H108.385C108.362 10.0831 108.247 10.589 108.029 11.0026C107.823 11.3929 107.386 11.8181 106.886 12.0762L106.358 11.6858C106.783 11.5136 107.196 11.1806 107.421 10.8303C107.668 10.4457 107.742 9.9915 107.765 9.47468H106.106C105.933 9.47468 105.744 9.48048 105.583 9.4921V8.89462C105.744 8.91204 105.927 8.92301 106.105 8.92301ZM106.817 7.47579H108.758C108.936 7.47579 109.154 7.46417 109.332 7.44159V8.03326C109.148 8.02164 108.942 8.01003 108.758 8.01003H106.823C106.628 8.01003 106.415 8.02164 106.26 8.03326V7.44159C106.433 7.46482 106.628 7.47579 106.817 7.47579ZM110.114 7.79194L109.735 7.9526C109.62 7.7229 109.436 7.37836 109.281 7.16027L109.649 7.00542C109.792 7.21189 109.999 7.56805 110.114 7.79194ZM110.774 7.53902L110.4 7.70548C110.28 7.45836 110.09 7.13124 109.929 6.91315L110.297 6.7583C110.452 6.97639 110.671 7.33255 110.774 7.53902Z" fill="white"/>
<path d="M113.352 12.0994L112.864 11.6458C113.938 11.2496 114.443 10.7554 114.443 9.23398V9.00428H112.933V9.86565C112.933 10.0953 112.95 10.3425 112.956 10.4225H112.319C112.33 10.3418 112.347 10.1012 112.347 9.86565V9.00428H111.784C111.515 9.00428 111.279 9.01589 111.187 9.0217V8.40165C111.262 8.41326 111.52 8.44746 111.784 8.44746H112.347V7.78159C112.347 7.64351 112.336 7.47124 112.319 7.32219H112.962C112.95 7.40285 112.933 7.57512 112.933 7.7874V8.4481H114.443V7.78223C114.443 7.55254 114.426 7.36284 114.415 7.28283H115.064C115.058 7.36349 115.035 7.55254 115.035 7.78223V8.4481H115.569C115.851 8.4481 116.035 8.43068 116.144 8.4139V9.02235C116.058 9.01073 115.851 9.00493 115.575 9.00493H115.035V9.20043C115.035 10.6812 114.696 11.5026 113.352 12.0994ZM115.879 8.06807L115.546 8.18292C115.46 7.9358 115.345 7.60867 115.23 7.38478L115.557 7.28154C115.661 7.49382 115.805 7.84418 115.879 8.06807ZM116.465 7.88999L116.132 7.99903C116.046 7.7461 115.926 7.42478 115.811 7.20089L116.138 7.09766C116.247 7.31574 116.391 7.66029 116.465 7.88999Z" fill="white"/>
<path d="M119.669 8.4989C120.266 8.13112 120.875 7.59753 121.265 7.13232L121.748 7.59172C121.311 8.0337 120.771 8.47632 120.203 8.84925V11.2327C120.203 11.4682 120.215 11.7837 120.243 11.9102H119.531C119.548 11.7837 119.565 11.4682 119.565 11.2327V9.2338C118.961 9.56093 118.204 9.89451 117.446 10.1242L117.165 9.55577C118.17 9.28542 119.031 8.89506 119.669 8.4989Z" fill="white"/>
<path d="M125.532 10.4571C126.456 9.88869 127.175 9.02732 127.524 8.29242L127.875 8.91828C127.461 9.6648 126.755 10.4462 125.859 10.9972C125.279 11.3533 124.55 11.6921 123.659 11.8527L123.275 11.2611C124.234 11.1172 124.981 10.7959 125.532 10.4571ZM125.337 8.61954L124.883 9.08475C124.585 8.7802 123.873 8.15434 123.448 7.86722L123.867 7.41943C124.269 7.68914 125.015 8.28596 125.337 8.61954Z" fill="white"/>
<path d="M129.942 7.73488H132.796C132.951 7.73488 133.153 7.72907 133.256 7.72327C133.25 7.84973 133.244 8.0562 133.244 8.20589V11.1752C133.244 11.3765 133.256 11.6578 133.267 11.7836H132.613C132.613 11.703 132.618 11.5939 132.618 11.4733H129.896C129.661 11.4733 129.373 11.4849 129.207 11.4965V10.8474C129.373 10.859 129.626 10.8765 129.873 10.8765H132.623V8.31493H129.942C129.718 8.31493 129.425 8.32655 129.276 8.33816V7.70068C129.477 7.71746 129.753 7.73488 129.942 7.73488Z" fill="white"/>
<path d="M135.259 9.17092H137.758C137.978 9.17092 138.157 9.14769 138.272 9.13672V9.84904C138.171 9.84323 137.96 9.82065 137.758 9.82065H135.259C135.006 9.82065 134.73 9.83227 134.574 9.84904V9.13672C134.726 9.14769 135.01 9.17092 135.259 9.17092Z" fill="white"/>
<path d="M143.282 8.13071C143.081 8.60172 142.742 9.25081 142.34 9.76763C142.932 10.2728 143.627 11.0136 143.983 11.4504L143.478 11.8981C143.099 11.3813 142.525 10.7497 141.956 10.2212C141.341 10.8761 140.566 11.4904 139.744 11.8749L139.279 11.3865C140.21 11.0303 141.071 10.3412 141.639 9.70376C142.03 9.26759 142.415 8.63592 142.552 8.18749H140.445C140.221 8.18749 139.911 8.21653 139.819 8.22169V7.5726C139.934 7.59002 140.267 7.6126 140.445 7.6126H142.576C142.788 7.6126 142.978 7.58937 143.075 7.55518L143.449 7.83068C143.409 7.8894 143.322 8.03328 143.282 8.13071Z" fill="white"/>
<path d="M148.105 9.51499C148.105 9.88276 147.806 10.1809 147.439 10.1809C147.072 10.1809 146.773 9.88212 146.773 9.51499C146.773 9.14786 147.072 8.84912 147.439 8.84912C147.806 8.84912 148.105 9.14721 148.105 9.51499Z" fill="white"/>
<path d="M154.779 7.96471C154.595 8.44153 154.319 9.05578 153.952 9.59583C154.463 10.0152 154.957 10.463 155.353 10.894L154.894 11.3992C154.48 10.9224 154.05 10.5146 153.573 10.1017C153.05 10.7392 152.361 11.3941 151.373 11.9218L150.868 11.4683C151.844 11.0031 152.539 10.4056 153.102 9.71068C152.683 9.37194 152.086 8.92996 151.517 8.57961L151.896 8.12021C152.379 8.42475 153.016 8.86673 153.475 9.21708C153.814 8.71768 154.027 8.20667 154.194 7.73566C154.239 7.6092 154.291 7.40273 154.32 7.26465L154.986 7.50015C154.922 7.61436 154.825 7.83825 154.779 7.96471Z" fill="white"/>
<path d="M156.914 8.92301H160.676C160.796 8.92301 161.009 8.91721 161.158 8.89462V9.48629C161.02 9.48048 160.825 9.47468 160.676 9.47468H159.194C159.171 10.0831 159.056 10.589 158.838 11.0026C158.632 11.3929 158.195 11.8181 157.695 12.0762L157.167 11.6858C157.592 11.5136 158.005 11.1806 158.23 10.8303C158.477 10.4457 158.551 9.9915 158.574 9.47468H156.915C156.742 9.47468 156.553 9.48048 156.392 9.4921V8.89462C156.553 8.91204 156.737 8.92301 156.914 8.92301ZM157.626 7.47579H159.567C159.745 7.47579 159.963 7.46417 160.141 7.44159V8.03326C159.958 8.02164 159.751 8.01003 159.567 8.01003H157.632C157.437 8.01003 157.224 8.02164 157.07 8.03326V7.44159C157.242 7.46482 157.437 7.47579 157.626 7.47579ZM160.923 7.79194L160.544 7.9526C160.429 7.7229 160.245 7.37836 160.09 7.16027L160.458 7.00542C160.602 7.21189 160.808 7.56805 160.923 7.79194ZM161.584 7.53902L161.21 7.70548C161.089 7.45836 160.9 7.13124 160.739 6.91315L161.107 6.7583C161.262 6.97639 161.48 7.33255 161.584 7.53902Z" fill="white"/>
<path d="M164.351 9.30319C164.897 8.96445 165.448 8.47602 165.747 8.10889L166.194 8.54506C165.907 8.8496 165.414 9.26318 164.902 9.60193V11.6176C164.902 11.8015 164.908 12.0712 164.93 12.1686H164.265C164.276 12.0712 164.288 11.8008 164.288 11.6176V9.96325C163.794 10.222 163.133 10.5033 162.559 10.6865L162.284 10.1465C163.036 9.97486 163.886 9.5845 164.351 9.30319Z" fill="white"/>
<path d="M172.529 8.05651C172.282 8.4759 171.736 9.205 171.122 9.64117L170.645 9.25662C171.15 8.96369 171.65 8.39525 171.816 8.06812H168.67C168.44 8.06812 168.239 8.08555 167.992 8.10232V7.46484C168.204 7.49323 168.44 7.51646 168.67 7.51646H171.88C172.006 7.51646 172.264 7.49904 172.356 7.47646L172.718 7.8152C172.667 7.87843 172.575 7.98812 172.529 8.05651ZM168.802 11.9562L168.274 11.5252C168.44 11.4678 168.641 11.3762 168.825 11.2439C169.646 10.7155 169.778 9.99217 169.778 9.03853C169.778 8.88368 169.772 8.74561 169.743 8.57914H170.398C170.398 10.078 170.312 11.1807 168.802 11.9562Z" fill="white"/>
<path d="M173.97 8.92301H177.731C177.852 8.92301 178.064 8.91721 178.214 8.89462V9.48629C178.076 9.48048 177.881 9.47468 177.731 9.47468H176.25C176.227 10.0831 176.112 10.589 175.894 11.0026C175.687 11.3929 175.25 11.8181 174.751 12.0762L174.223 11.6858C174.648 11.5136 175.061 11.1806 175.285 10.8303C175.532 10.4457 175.607 9.9915 175.63 9.47468H173.97C173.798 9.47468 173.608 9.48048 173.448 9.4921V8.89462C173.608 8.91204 173.792 8.92301 173.97 8.92301ZM174.682 7.47579H176.623C176.801 7.47579 177.019 7.46417 177.197 7.44159V8.03326C177.013 8.02164 176.807 8.01003 176.623 8.01003H174.688C174.492 8.01003 174.28 8.02164 174.125 8.03326V7.44159C174.298 7.46482 174.492 7.47579 174.682 7.47579ZM177.978 7.79194L177.6 7.9526C177.485 7.7229 177.301 7.37836 177.146 7.16027L177.514 7.00542C177.657 7.21189 177.864 7.56805 177.978 7.79194ZM178.639 7.53902L178.266 7.70548C178.145 7.45836 177.955 7.13124 177.795 6.91315L178.162 6.7583C178.317 6.97639 178.535 7.33255 178.639 7.53902Z" fill="white"/>
<path d="M181.101 12.0994L180.613 11.6458C181.687 11.2496 182.192 10.7554 182.192 9.23398V9.00428H180.682V9.86565C180.682 10.0953 180.699 10.3425 180.705 10.4225H180.068C180.079 10.3418 180.096 10.1012 180.096 9.86565V9.00428H179.534C179.264 9.00428 179.028 9.01589 178.936 9.0217V8.40165C179.011 8.41326 179.269 8.44746 179.534 8.44746H180.096V7.78159C180.096 7.64351 180.085 7.47124 180.068 7.32219H180.711C180.699 7.40285 180.682 7.57512 180.682 7.7874V8.4481H182.192V7.78223C182.192 7.55254 182.175 7.36284 182.164 7.28283H182.813C182.807 7.36349 182.784 7.55254 182.784 7.78223V8.4481H183.318C183.6 8.4481 183.784 8.43068 183.893 8.4139V9.02235C183.807 9.01073 183.6 9.00493 183.324 9.00493H182.784V9.20043C182.784 10.6812 182.445 11.5026 181.101 12.0994ZM183.629 8.06807L183.296 8.18292C183.21 7.9358 183.094 7.60867 182.98 7.38478L183.307 7.28154C183.41 7.49382 183.554 7.84418 183.629 8.06807ZM184.214 7.88999L183.881 7.99903C183.795 7.7461 183.675 7.42478 183.56 7.20089L183.887 7.09766C183.996 7.31574 184.14 7.66029 184.214 7.88999Z" fill="white"/>
<path d="M187.303 8.4989C187.901 8.13112 188.509 7.59753 188.9 7.13232L189.382 7.59172C188.946 8.0337 188.406 8.47632 187.838 8.84925V11.2327C187.838 11.4682 187.849 11.7837 187.878 11.9102H187.165C187.183 11.7837 187.2 11.4682 187.2 11.2327V9.2338C186.596 9.56093 185.839 9.89451 185.081 10.1242L184.799 9.55577C185.805 9.28542 186.667 8.89506 187.303 8.4989Z" fill="white"/>
<path d="M193.051 10.4571C193.976 9.88869 194.694 9.02732 195.044 8.29242L195.394 8.91828C194.981 9.6648 194.274 10.4462 193.379 10.9972C192.798 11.3533 192.069 11.6921 191.179 11.8527L190.794 11.2611C191.754 11.1172 192.5 10.7959 193.051 10.4571ZM192.857 8.61954L192.403 9.08475C192.104 8.7802 191.393 8.15434 190.967 7.86722L191.387 7.41943C191.788 7.68914 192.535 8.28596 192.857 8.61954Z" fill="white"/>
<path d="M197.347 7.73488H200.201C200.356 7.73488 200.557 7.72907 200.661 7.72327C200.655 7.84973 200.649 8.0562 200.649 8.20589V11.1752C200.649 11.3765 200.661 11.6578 200.672 11.7836H200.017C200.017 11.703 200.023 11.5939 200.023 11.4733H197.301C197.065 11.4733 196.778 11.4849 196.612 11.4965V10.8474C196.778 10.859 197.031 10.8765 197.278 10.8765H200.028V8.31493H197.347C197.123 8.31493 196.83 8.32655 196.681 8.33816V7.70068C196.882 7.71746 197.158 7.73488 197.347 7.73488Z" fill="white"/>
<path d="M202.549 9.17092H205.048C205.268 9.17092 205.447 9.14769 205.562 9.13672V9.84904C205.461 9.84323 205.25 9.82065 205.048 9.82065H202.549C202.296 9.82065 202.02 9.83227 201.864 9.84904V9.13672C202.016 9.14769 202.3 9.17092 202.549 9.17092Z" fill="white"/>
<path d="M210.48 8.13071C210.279 8.60172 209.94 9.25081 209.538 9.76763C210.13 10.2728 210.825 11.0136 211.181 11.4504L210.676 11.8981C210.297 11.3813 209.723 10.7497 209.154 10.2212C208.54 10.8761 207.764 11.4904 206.943 11.8749L206.478 11.3865C207.408 11.0303 208.269 10.3412 208.838 9.70376C209.228 9.26759 209.613 8.63592 209.751 8.18749H207.643C207.42 8.18749 207.109 8.21653 207.018 8.22169V7.5726C207.132 7.59002 207.465 7.6126 207.643 7.6126H209.774C209.986 7.6126 210.176 7.58937 210.273 7.55518L210.647 7.83068C210.607 7.8894 210.52 8.03328 210.48 8.13071Z" fill="white"/>
<path d="M100.894 53.1705H91.2445C91.178 50.6219 92.5472 48.8165 96.2565 46.5647C98.4425 45.1839 99.0168 44.4832 99.0168 43.145C99.0168 41.6585 97.9128 40.6177 96.3449 40.6177C95.1306 40.6177 94.2035 41.2126 93.8279 42.2108C93.6957 42.614 93.6511 42.9966 93.6511 44.0374H91.6858V43.5064C91.6858 42.0617 91.9949 41.0849 92.7233 40.299C93.5621 39.3434 94.8429 38.855 96.4108 38.855C99.1929 38.855 101.07 40.5751 101.07 43.1244C101.07 44.3561 100.629 45.3969 99.7672 46.2679C99.171 46.8628 98.8839 47.0751 96.7198 48.4133C95.1965 49.3901 93.9596 50.6012 93.695 51.4084H100.893V53.1705H100.894Z" fill="white"/>
<path d="M113.237 41.1912C113.965 42.4868 114.274 43.9946 114.274 46.2465C114.274 48.2854 113.943 49.8571 113.237 51.1108C112.398 52.5761 110.897 53.4471 109.197 53.4471C107.518 53.4471 106.017 52.5761 105.178 51.1108C104.472 49.8152 104.141 48.3073 104.141 46.1406C104.141 43.9953 104.472 42.4235 105.178 41.1918C106.04 39.7265 107.518 38.8555 109.197 38.8555C110.919 38.8548 112.397 39.7039 113.237 41.1912ZM106.812 42.2532C106.392 43.2088 106.194 44.3986 106.194 46.14C106.194 47.8814 106.392 49.0925 106.812 50.0481C107.276 51.0463 108.181 51.6837 109.219 51.6837C110.234 51.6837 111.161 51.0463 111.603 50.0481C112.023 49.0925 112.221 47.9027 112.221 46.2252C112.221 44.3986 112.045 43.1881 111.603 42.2532C111.139 41.2338 110.212 40.6176 109.197 40.6176C108.181 40.6176 107.275 41.2338 106.812 42.2532Z" fill="white"/>
<path d="M126.882 53.1705H117.233C117.166 50.6219 118.535 48.8165 122.245 46.5647C124.431 45.1839 125.005 44.4832 125.005 43.145C125.005 41.6585 123.901 40.6177 122.333 40.6177C121.119 40.6177 120.192 41.2126 119.816 42.2108C119.684 42.614 119.639 42.9966 119.639 44.0374H117.674V43.5064C117.674 42.0617 117.983 41.0849 118.712 40.299C119.55 39.3434 120.831 38.855 122.399 38.855C125.181 38.855 127.058 40.5751 127.058 43.1244C127.058 44.3561 126.617 45.3969 125.755 46.2679C125.159 46.8628 124.872 47.0751 122.708 48.4133C121.185 49.3901 119.948 50.6012 119.683 51.4084H126.881V53.1705H126.882Z" fill="white"/>
<path d="M139.975 53.1705H130.326C130.26 50.6219 131.629 48.8165 135.338 46.5647C137.524 45.1839 138.098 44.4832 138.098 43.145C138.098 41.6585 136.994 40.6177 135.426 40.6177C134.212 40.6177 133.285 41.2126 132.909 42.2108C132.777 42.614 132.733 42.9966 132.733 44.0374H130.767V43.5064C130.767 42.0617 131.076 41.0849 131.805 40.299C132.644 39.3434 133.924 38.855 135.492 38.855C138.274 38.855 140.151 40.5751 140.151 43.1244C140.151 44.3561 139.71 45.3969 138.849 46.2679C138.253 46.8628 137.965 47.0751 135.801 48.4133C134.278 49.3901 133.041 50.6012 132.777 51.4084H139.975V53.1705H139.975Z" fill="white"/>
<path d="M146.202 52.8869H144.155V50.9751H146.202V52.8869Z" fill="white"/>
<path d="M165.218 53.1014H151.613C151.519 49.5075 153.45 46.9621 158.68 43.7877C161.762 41.841 162.571 40.8525 162.571 38.9659C162.571 36.8696 161.014 35.4024 158.804 35.4024C157.092 35.4024 155.785 36.2412 155.255 37.6484C155.068 38.2175 155.006 38.7562 155.006 40.2241H152.235V39.4757C152.235 37.4393 152.671 36.0618 153.699 34.9533C154.882 33.6054 156.687 32.917 158.898 32.917C162.821 32.917 165.467 35.343 165.467 38.9369C165.467 40.6738 164.844 42.1417 163.63 43.3695C162.789 44.2083 162.385 44.5077 159.333 46.3943C157.185 47.7719 155.442 49.4791 155.068 50.6173H165.218V53.1014V53.1014Z" fill="white"/>
<path d="M171.273 52.8869H169.226V50.9751H171.273V52.8869Z" fill="white"/>
<path d="M181.819 53.1011H179.08V38.9056H174.379V36.959C177.056 37.0487 179.204 35.5815 179.702 33.3354H181.819V53.1011Z" fill="white"/>
<path d="M201.4 47.4114C201.4 50.9156 198.381 53.4906 194.334 53.4906C190.256 53.4906 187.236 50.8852 187.236 47.4114C187.236 45.1654 188.388 43.4581 190.754 42.2006C189.042 41.2424 188.171 39.8049 188.171 38.0376C188.171 35.0728 190.754 32.9165 194.334 32.9165C197.883 32.9165 200.467 35.0728 200.467 38.0376C200.467 39.8049 199.596 41.2424 197.884 42.2006C200.248 43.4581 201.4 45.1654 201.4 47.4114ZM190.131 47.2617C190.131 49.478 191.843 51.0052 194.333 51.0052C196.761 51.0052 198.504 49.478 198.504 47.3217C198.504 45.0757 196.824 43.5484 194.302 43.5484C191.843 43.5478 190.131 45.075 190.131 47.2617ZM190.972 38.2467C190.972 39.9236 192.341 41.0921 194.334 41.0921C196.264 41.0921 197.664 39.9242 197.664 38.277C197.664 36.5697 196.326 35.4019 194.302 35.4019C192.341 35.4019 190.972 36.5697 190.972 38.2467Z" fill="white"/>
<path d="M212.283 45.602H207.382V48.3629H211.496V49.4675H207.382V53.6646H206.07V44.4561H212.283V45.602Z" fill="white"/>
<path d="M215.21 46.9972V48.0464C215.473 47.6599 215.583 47.5076 215.763 47.3424C216.066 47.025 216.55 46.8179 216.95 46.8179C217.198 46.8179 217.433 46.8734 217.654 46.9837V48.1296C217.391 48.0741 217.253 48.0606 217.074 48.0606C216.052 48.0606 215.265 48.9716 215.265 50.1588V53.6656H213.995V46.9972H215.21Z" fill="white"/>
<path d="M221.243 45.9336H219.973V44.4561H221.243V45.9336ZM221.243 53.6646H219.973V46.9969H221.243V53.6646Z" fill="white"/>
<path d="M238.412 45.1483H229.679V43.3101H238.412V45.1483Z" fill="white"/>
<path d="M262.016 53.1431H248.354C248.261 49.5344 250.198 46.978 255.45 43.79C258.545 41.835 259.358 40.8426 259.358 38.9483C259.358 36.8429 257.795 35.3692 255.576 35.3692C253.856 35.3692 252.543 36.2113 252.012 37.6249C251.824 38.1966 251.762 38.7379 251.762 40.2116H248.98V39.4599C248.98 37.4146 249.417 36.0312 250.449 34.9189C251.637 33.5652 253.45 32.8735 255.669 32.8735C259.608 32.8735 262.265 35.3092 262.265 38.9186C262.265 40.6626 261.64 42.1363 260.421 43.3693C259.577 44.2113 259.17 44.512 256.107 46.407C253.95 47.7904 252.199 49.5047 251.824 50.6474H262.015V53.1431H262.016Z" fill="white"/>
<path d="M278.896 36.1811C279.928 38.0154 280.365 40.1511 280.365 43.3385C280.365 46.2259 279.896 48.4512 278.896 50.2256C277.708 52.3006 275.582 53.5336 273.175 53.5336C270.8 53.5336 268.674 52.3006 267.486 50.2256C266.486 48.3912 266.017 46.2555 266.017 43.1882C266.017 40.1505 266.486 37.9251 267.486 36.1811C268.705 34.1061 270.8 32.873 273.175 32.873C275.614 32.873 277.708 34.0757 278.896 36.1811ZM269.799 37.6851C269.205 39.0388 268.923 40.7228 268.923 43.1888C268.923 45.6548 269.205 47.3692 269.799 48.7222C270.455 50.1359 271.737 51.0379 273.206 51.0379C274.644 51.0379 275.958 50.1359 276.583 48.7222C277.177 47.3686 277.458 45.6845 277.458 43.3088C277.458 40.7221 277.208 39.0084 276.583 37.6851C275.927 36.2417 274.614 35.3694 273.175 35.3694C271.737 35.3694 270.456 36.2411 269.799 37.6851Z" fill="white"/>
<path d="M290.639 47.2996C290.501 46.0292 289.742 45.4085 288.347 45.4085C287.119 45.4085 286.332 45.933 286.332 46.7338C286.332 47.41 286.815 47.8106 287.989 48.0732L289.48 48.4049C290.57 48.6533 291.122 48.8882 291.564 49.2882C292.048 49.716 292.31 50.3373 292.31 51.0554C292.31 52.795 290.901 53.8718 288.665 53.8718C286.276 53.8718 284.841 52.6569 284.647 50.4476H286.014C286.152 51.911 287.118 52.7259 288.705 52.7259C290.031 52.7259 290.969 52.0768 290.969 51.1522C290.969 50.4618 290.473 50.0063 289.506 49.7715L287.435 49.2746C285.75 48.874 284.992 48.1287 284.992 46.886C284.992 45.2704 286.331 44.249 288.443 44.249C290.555 44.249 291.687 45.2291 291.977 47.3003H290.639V47.2996Z" fill="white"/>
<path d="M298.647 53.6644V52.905C297.984 53.6089 297.445 53.8438 296.534 53.8438C295.747 53.8438 295.099 53.5812 294.726 53.1121C294.408 52.6979 294.284 52.2288 294.284 51.4552V46.9961H295.554V51.3591C295.554 52.2701 295.968 52.7121 296.838 52.7121C297.929 52.7121 298.591 52.0772 298.591 51.0416V46.9967H299.862V53.6651H298.647V53.6644Z" fill="white"/>
<path d="M302.775 46.9972V47.7567C303.437 47.0527 303.976 46.8179 304.887 46.8179C305.674 46.8179 306.323 47.0805 306.696 47.5496C307.013 47.9638 307.138 48.4329 307.138 49.2065V53.6656H305.867V49.3026C305.867 48.3916 305.453 47.9496 304.583 47.9496C303.493 47.9496 302.83 48.5845 302.83 49.6201V53.6649H301.56V46.9972H302.775Z" fill="white"/>
</svg>
