<svg width="707" height="83" viewBox="0 0 707 83" fill="none" xmlns="http://www.w3.org/2000/svg">
<g clip-path="url(#clip0_98_603)">
<path d="M14.5299 23.28H21.0199V30.42L19.0199 30.7499C18.1574 30.8558 17.2887 30.9026 16.4198 30.89C14.5978 30.9757 12.7974 30.4669 11.2899 29.44C9.94402 28.4065 8.94047 26.9918 8.4099 25.3799C7.76254 23.4472 7.45132 21.4178 7.48985 19.3799C7.43719 17.263 7.87172 15.1624 8.75987 13.2401C9.55156 11.565 10.8037 10.1498 12.3699 9.15997C14.0322 8.16461 15.9429 7.66182 17.8799 7.71002C19.3008 7.70461 20.7163 7.88608 22.0899 8.24994C23.3292 8.56827 24.5323 9.01405 25.6799 9.58002L28.0899 3.76996C26.5422 3.11078 24.9349 2.60176 23.2899 2.24994C21.5266 1.85902 19.726 1.66123 17.9198 1.65997C14.5342 1.55606 11.1762 2.29852 8.14989 3.82001C5.55924 5.19215 3.44349 7.31483 2.07988 9.90998C0.642645 12.8055 -0.0645677 16.0086 0.0198818 19.2401C-0.0843747 22.5636 0.547339 25.8691 1.86986 28.92C2.99372 31.4287 4.88907 33.5133 7.27989 34.8701C9.94642 36.2803 12.935 36.9698 15.9499 36.8701C18.1576 36.892 20.3629 36.718 22.5399 36.35C24.4374 36.0034 26.3085 35.5255 28.1399 34.92V17.16H14.5499L14.5299 23.28Z" fill="white"/>
<path d="M51.0402 9.81005C49.9235 9.79751 48.8175 10.0297 47.8001 10.4901C46.8186 10.9223 45.9214 11.5248 45.1501 12.27C44.4004 12.9869 43.7542 13.8048 43.2302 14.7001H42.8801L41.8201 10.3H36.4102V36.5H43.5601V23.16C43.5264 22.0936 43.7243 21.0326 44.1401 20.05C44.5109 19.2372 45.0779 18.5294 45.7902 17.9901C46.4758 17.4508 47.2657 17.0592 48.1101 16.8401C48.9869 16.6027 49.8918 16.485 50.8001 16.4901C51.1678 16.4919 51.5352 16.5152 51.9001 16.5601C52.2388 16.5725 52.5746 16.6262 52.9001 16.7201L53.4401 10.02C53.0544 9.94269 52.6632 9.89587 52.2701 9.88C51.8616 9.83537 51.4511 9.81206 51.0402 9.81005V9.81005Z" fill="white"/>
<path d="M77.6999 12.03C75.8199 10.49 73.1298 9.73004 69.6098 9.73004C67.8045 9.72577 66.005 9.93728 64.2498 10.36C62.6267 10.7431 61.0579 11.3276 59.5799 12.1L61.9499 16.92C63.1392 16.388 64.3617 15.9338 65.6098 15.56C66.8187 15.2092 68.0711 15.0308 69.3299 15.03C70.4198 14.9761 71.4902 15.333 72.3299 16.03C72.7148 16.4231 73.0105 16.8946 73.1969 17.4123C73.3832 17.93 73.4559 18.4817 73.4099 19.03V20.18L68.8598 20.32C64.9598 20.46 62.0299 21.1933 60.0699 22.52C59.0912 23.2016 58.3065 24.126 57.7928 25.2025C57.2792 26.2789 57.0541 27.4704 57.1399 28.66C57.0811 30.2887 57.4463 31.9049 58.1999 33.35C58.8571 34.5314 59.8629 35.4812 61.0799 36.07C62.3855 36.6758 63.8107 36.98 65.2498 36.96C66.4996 36.9845 67.7472 36.8432 68.9599 36.54C69.9315 36.278 70.8445 35.8334 71.6499 35.23C72.5065 34.559 73.2788 33.7866 73.9499 32.93H74.1399L75.5199 36.4901H80.5199V19.01C80.5099 15.88 79.5699 13.56 77.6999 12.03ZM73.4099 26.4901C73.4533 27.2117 73.3328 27.9339 73.0575 28.6024C72.7821 29.2709 72.359 29.8683 71.8199 30.35C70.7433 31.2679 69.3639 31.7527 67.9499 31.71C67.0624 31.7539 66.1838 31.5158 65.4399 31.03C65.0943 30.7516 64.8225 30.3927 64.6481 29.9847C64.4737 29.5767 64.4022 29.1321 64.4399 28.69C64.4231 28.1213 64.5349 27.5562 64.7669 27.0368C64.9989 26.5174 65.3452 26.057 65.7799 25.69C66.6799 24.92 68.2899 24.51 70.5999 24.44L73.3698 24.35L73.4099 26.4901Z" fill="white"/>
<path d="M104.29 8.39001C104.294 9.39291 104.357 10.3947 104.48 11.39C104.62 12.39 104.74 13.0901 104.83 13.5901H104.6C104.106 12.8416 103.506 12.168 102.82 11.5901C102.087 10.9904 101.254 10.5234 100.36 10.2101C99.2939 9.85296 98.1745 9.68047 97.0502 9.70007C95.6485 9.6625 94.2578 9.95627 92.991 10.5575C91.7243 11.1587 90.6174 12.0504 89.7602 13.16C87.9002 15.46 86.9702 18.8534 86.9702 23.3401C86.9702 27.8268 87.8869 31.1934 89.7202 33.4401C90.5578 34.5312 91.6407 35.4096 92.8813 36.0038C94.1218 36.598 95.485 36.8914 96.8602 36.8601C97.9856 36.8849 99.1065 36.7088 100.17 36.3401C101.052 36.0329 101.869 35.565 102.58 34.9601C103.25 34.3855 103.827 33.7109 104.29 32.9601H104.6L105.98 36.3601H111.47V-0.109985H104.29V8.39001ZM104.79 24.2401C104.871 26.0838 104.424 27.9122 103.5 29.51C102.7 30.67 101.32 31.2401 99.3702 31.2401C98.6208 31.27 97.8762 31.1073 97.2075 30.7677C96.5387 30.4281 95.9682 29.9228 95.5502 29.3C94.5467 27.543 94.0841 25.5288 94.2202 23.51C94.0942 21.4633 94.5556 19.4232 95.5502 17.63C95.9367 17.0008 96.4822 16.4847 97.1318 16.1335C97.7814 15.7824 98.5121 15.6087 99.2502 15.63C101.377 15.63 102.83 16.2967 103.61 17.63C104.497 19.4401 104.903 21.4477 104.79 23.4601V24.2401Z" fill="white"/>
<path d="M136.51 22.6001C136.54 24.192 136.369 25.7812 136 27.3301C135.756 28.4706 135.144 29.4996 134.26 30.26C133.268 30.9743 132.061 31.3273 130.84 31.26C130.228 31.3129 129.612 31.2095 129.05 30.9594C128.489 30.7092 128 30.3207 127.63 29.8301C126.876 28.5503 126.527 27.072 126.63 25.5901V10.29H119.48V27.3701C119.406 29.2669 119.801 31.1527 120.63 32.8601C121.364 34.215 122.504 35.306 123.89 35.9801C125.43 36.6704 127.103 37.0119 128.79 36.9801C129.856 36.9852 130.919 36.8507 131.95 36.5801C132.944 36.3287 133.887 35.9093 134.74 35.3401C135.59 34.7715 136.31 34.0283 136.85 33.16H137.23L138.23 36.51H143.7V10.3101H136.55L136.51 22.6001Z" fill="white"/>
<path d="M170.7 12.03C168.83 10.49 166.13 9.73006 162.62 9.73006C160.811 9.72518 159.008 9.93669 157.25 10.3601C155.63 10.7431 154.064 11.3276 152.59 12.1001L154.95 16.92C156.139 16.3881 157.362 15.9338 158.61 15.56C159.822 15.2092 161.078 15.0308 162.34 15.03C163.43 14.9762 164.5 15.333 165.34 16.03C165.721 16.4255 166.013 16.8976 166.198 17.4149C166.382 17.9321 166.455 18.4826 166.41 19.03V20.18L161.87 20.32C157.963 20.46 155.033 21.1933 153.08 22.52C152.1 23.2003 151.314 24.1245 150.8 25.2013C150.286 26.278 150.062 27.4701 150.15 28.66C150.088 30.2879 150.45 31.904 151.2 33.3501C151.864 34.5297 152.872 35.4787 154.09 36.07C155.395 36.6782 156.82 36.9825 158.26 36.96C159.506 36.9846 160.751 36.8433 161.96 36.54C162.934 36.2776 163.851 35.8331 164.66 35.2301C165.513 34.5586 166.282 33.7862 166.95 32.93H167.14L168.52 36.4901H173.52V19.01C173.47 15.88 172.53 13.56 170.7 12.03ZM166.41 26.4901C166.453 27.2118 166.333 27.9339 166.058 28.6024C165.782 29.2709 165.359 29.8684 164.82 30.3501C163.743 31.2679 162.364 31.7527 160.95 31.71C160.066 31.7539 159.19 31.5157 158.45 31.03C158.103 30.7528 157.83 30.3941 157.656 29.9858C157.481 29.5775 157.411 29.1323 157.45 28.69C157.433 28.1214 157.545 27.5563 157.777 27.0368C158.009 26.5174 158.355 26.057 158.79 25.69C159.7 24.92 161.31 24.51 163.62 24.44L166.38 24.3501L166.41 26.4901Z" fill="white"/>
<path d="M192.56 31.2401C191.742 31.2807 190.936 31.025 190.29 30.52C189.992 30.2304 189.761 29.8787 189.614 29.4899C189.467 29.101 189.408 28.6845 189.44 28.27V15.63H196.78V10.27H189.44V4.69006H184.87L182.81 10.2201L178.87 12.6101V15.6101H182.29V28.25C182.202 30.0673 182.566 31.878 183.35 33.52C184 34.7088 185.032 35.6428 186.28 36.17C187.626 36.6882 189.058 36.9428 190.5 36.92C191.742 36.9281 192.982 36.8109 194.2 36.5701C195.183 36.3987 196.143 36.1134 197.06 35.7201V30.4C196.328 30.6364 195.583 30.8334 194.83 30.9901C194.085 31.155 193.324 31.2388 192.56 31.2401V31.2401Z" fill="white"/>
<path d="M209.38 0.749945C208.561 0.235419 207.607 -0.0255036 206.64 -5.5275e-05C205.663 -0.0260908 204.7 0.234651 203.87 0.749945C203.462 1.07083 203.145 1.492 202.949 1.97223C202.752 2.45247 202.684 2.97548 202.75 3.49006C202.691 4.00854 202.763 4.5335 202.958 5.01728C203.154 5.50106 203.467 5.9282 203.87 6.25995C204.7 6.77525 205.663 7.03599 206.64 7.00995C207.607 7.0354 208.561 6.77448 209.38 6.25995C209.791 5.93387 210.112 5.5085 210.314 5.02387C210.515 4.53924 210.589 4.01143 210.53 3.49006C210.593 2.9728 210.52 2.44804 210.318 1.9676C210.117 1.48715 209.793 1.06746 209.38 0.749945V0.749945Z" fill="white"/>
<path d="M210.21 10.27H203.06V36.47H210.21V10.27Z" fill="white"/>
<path d="M236.09 11.3501C234.091 10.275 231.849 9.73415 229.58 9.78002C227.207 9.71585 224.857 10.2562 222.75 11.3501C220.847 12.3917 219.31 13.9944 218.35 15.9401C217.256 18.2427 216.725 20.772 216.8 23.3201C216.767 25.2955 217.078 27.2615 217.72 29.13C218.286 30.7265 219.178 32.1876 220.34 33.42C221.469 34.574 222.833 35.4711 224.34 36.05C225.965 36.6552 227.686 36.9569 229.42 36.9401C231.226 36.9669 233.022 36.6653 234.72 36.05C236.236 35.4883 237.603 34.5889 238.72 33.42C239.88 32.1971 240.755 30.7318 241.28 29.13C241.902 27.2573 242.203 25.293 242.17 23.3201C242.247 20.7618 241.683 18.225 240.53 15.9401C239.536 14.0047 237.991 12.4074 236.09 11.3501V11.3501ZM234.33 27.66C234.055 28.7074 233.448 29.6373 232.6 30.31C231.702 30.9346 230.623 31.2473 229.53 31.2001C228.421 31.2487 227.326 30.9364 226.41 30.31C225.56 29.6332 224.944 28.7061 224.65 27.66C224.246 26.2498 224.057 24.7867 224.09 23.3201C223.954 21.2957 224.394 19.2743 225.36 17.4901C225.811 16.8245 226.429 16.2892 227.152 15.9381C227.875 15.587 228.678 15.4326 229.48 15.4901C230.586 15.4398 231.679 15.7447 232.6 16.3601C233.448 17.0118 234.056 17.9261 234.33 18.9601C234.746 20.3577 234.938 21.8123 234.9 23.27C234.94 24.7541 234.748 26.2354 234.33 27.66V27.66Z" fill="white"/>
<path d="M263.7 9.81001C262.624 9.80757 261.553 9.93859 260.51 10.2C259.517 10.4591 258.574 10.8815 257.72 11.45C256.876 12.0248 256.166 12.7752 255.64 13.65H255.24L254.24 10.3H248.78V36.5H255.92V24.17C255.801 21.9649 256.213 19.7635 257.12 17.75C257.92 16.27 259.41 15.52 261.6 15.52C262.207 15.4713 262.817 15.577 263.373 15.827C263.929 16.077 264.413 16.4632 264.78 16.95C265.543 18.23 265.892 19.7142 265.78 21.2V36.5H272.92V19.41C272.92 16.0767 272.07 13.6401 270.37 12.1001C268.512 10.5278 266.132 9.71046 263.7 9.81001V9.81001Z" fill="white"/>
<path d="M325.29 20.91C325.117 21.6634 324.917 22.5934 324.69 23.7001C324.47 24.8101 324.26 25.92 324.05 27.05C323.84 28.18 323.72 29.05 323.61 29.88C323.54 29.31 323.44 28.63 323.3 27.88C323.16 27.13 323.04 26.2701 322.88 25.4401C322.72 24.6101 322.57 23.84 322.41 23.14C322.25 22.44 322.15 21.8501 322.04 21.4301L317.04 2.24011H310.18L305.18 21.4301C305.05 21.8701 304.91 22.43 304.75 23.14C304.59 23.85 304.44 24.6101 304.28 25.4401C304.12 26.2701 304.01 27.0601 303.89 27.8501C303.77 28.6401 303.66 29.32 303.58 29.91C303.52 29.34 303.42 28.66 303.28 27.91C303.14 27.16 303 26.2901 302.83 25.4401C302.66 24.5901 302.51 23.7701 302.34 22.9801C302.17 22.1901 302.04 21.5301 301.92 20.9801L297.53 2.28003H290.39L299.13 36.54H307.38L312 18.54C312.09 18.16 312.21 17.62 312.37 16.9C312.53 16.18 312.68 15.4001 312.84 14.5801C313 13.7601 313.16 12.9701 313.28 12.2301C313.4 11.4901 313.52 10.9101 313.57 10.4801C313.57 10.9101 313.7 11.48 313.82 12.26C313.94 13.04 314.12 13.7801 314.29 14.6201C314.46 15.4601 314.63 16.22 314.78 16.92C314.93 17.62 315.07 18.1501 315.16 18.4901L319.8 36.4901H328.07L336.79 2.2301H329.7L325.29 20.91Z" fill="white"/>
<path d="M358.92 11.3501C356.918 10.2738 354.672 9.7329 352.4 9.78004C350.03 9.71493 347.683 10.2554 345.58 11.3501C343.677 12.3917 342.14 13.9944 341.18 15.9401C340.086 18.2427 339.555 20.7721 339.63 23.3201C339.598 25.2946 339.906 27.2598 340.54 29.13C341.109 30.7271 342.005 32.1882 343.17 33.4201C344.299 34.574 345.663 35.4711 347.17 36.0501C348.794 36.6561 350.516 36.9578 352.25 36.9401C354.056 36.9669 355.852 36.6653 357.55 36.0501C359.066 35.4883 360.434 34.5889 361.55 33.4201C362.71 32.1971 363.585 30.7318 364.11 29.13C364.732 27.2573 365.033 25.2931 365 23.3201C365.077 20.7619 364.513 18.225 363.36 15.9401C362.366 14.0047 360.821 12.4074 358.92 11.3501V11.3501ZM357.16 27.66C356.88 28.7051 356.274 29.6335 355.43 30.3101C354.532 30.9347 353.453 31.2473 352.36 31.2001C351.251 31.2488 350.156 30.9365 349.24 30.3101C348.39 29.6332 347.774 28.7061 347.48 27.66C347.076 26.2498 346.887 24.7867 346.92 23.3201C346.784 21.2958 347.224 19.2743 348.19 17.4901C348.639 16.823 349.257 16.2866 349.981 15.9353C350.704 15.5841 351.508 15.4305 352.31 15.4901C353.416 15.4399 354.509 15.7447 355.43 16.3601C356.275 17.0149 356.882 17.9279 357.16 18.9601C357.572 20.3584 357.761 21.8129 357.72 23.27C357.763 24.7536 357.574 26.2348 357.16 27.66Z" fill="white"/>
<path d="M386.24 9.81004C385.127 9.79767 384.024 10.0298 383.01 10.4901C382.028 10.9208 381.13 11.5235 380.36 12.27C379.605 12.9816 378.958 13.8004 378.44 14.7001H378.08L377.08 10.3H371.66V36.5H378.81V23.16C378.779 22.0929 378.981 21.0317 379.4 20.05C379.767 19.2379 380.331 18.53 381.04 17.9901C381.727 17.4524 382.516 17.0611 383.36 16.8401C384.24 16.6027 385.148 16.485 386.06 16.4901C386.428 16.4919 386.795 16.5152 387.16 16.56C387.499 16.5723 387.835 16.6261 388.16 16.7201L388.7 10.02C388.315 9.9414 387.923 9.89456 387.53 9.87999C387.102 9.83293 386.671 9.80962 386.24 9.81004V9.81004Z" fill="white"/>
<path d="M419.47 10.27H411.4L404.07 18.27C403.491 18.8886 402.944 19.5361 402.43 20.2101C401.93 20.8801 401.43 21.5601 400.95 22.2101H400.86C400.95 21.2101 401.04 20.2101 401.12 19.2101C401.2 18.2101 401.23 17.2101 401.23 16.2101V-0.0999756H394.08V36.3701H401.23V28.2101L404.3 25.75L411.85 36.3701H420.1L409.1 21.53L419.47 10.27Z" fill="white"/>
<path d="M439.38 22.4601C438.146 21.7096 436.852 21.064 435.51 20.53C433.98 19.91 432.82 19.4 432.02 19.01C431.43 18.739 430.892 18.3667 430.43 17.91C430.165 17.5935 430.024 17.1925 430.03 16.78C430.023 16.5103 430.094 16.2444 430.237 16.0151C430.379 15.7859 430.585 15.6034 430.83 15.4901C431.573 15.1686 432.381 15.0247 433.19 15.0701C434.377 15.0702 435.558 15.2523 436.69 15.6101C437.94 16.0067 439.168 16.4673 440.37 16.9901L442.52 11.8401C441.057 11.1544 439.525 10.628 437.95 10.27C436.426 9.93557 434.87 9.77124 433.31 9.78003C430.66 9.64625 428.029 10.2892 425.74 11.63C424.83 12.2096 424.09 13.0206 423.596 13.98C423.103 14.9393 422.873 16.0127 422.93 17.0901C422.884 18.3739 423.148 19.6499 423.7 20.8101C424.264 21.817 425.068 22.6689 426.04 23.29C427.325 24.112 428.684 24.8117 430.1 25.38C431.381 25.8978 432.633 26.4853 433.85 27.14C434.448 27.4138 434.974 27.8209 435.39 28.3301C435.636 28.6705 435.769 29.0798 435.77 29.5C435.77 29.8293 435.686 30.1532 435.525 30.4404C435.363 30.7276 435.131 30.9685 434.85 31.14C433.93 31.6285 432.888 31.8403 431.85 31.75C430.391 31.7211 428.94 31.5163 427.53 31.14C425.965 30.7386 424.436 30.2068 422.96 29.55V35.4601C424.231 35.9815 425.551 36.3734 426.9 36.63C428.457 36.8809 430.033 36.9981 431.61 36.9801C433.713 37.0399 435.81 36.7214 437.8 36.04C439.302 35.5186 440.605 34.5437 441.53 33.25C442.402 31.9076 442.842 30.3301 442.79 28.7301C442.854 27.4147 442.545 26.108 441.9 24.9601C441.285 23.9271 440.418 23.0669 439.38 22.4601V22.4601Z" fill="white"/>
<path d="M462.76 36.47H482.49V30.4699H470.02V21.6299H481.63V15.68H470.02V8.15995H482.49V2.19995H462.76V36.47Z" fill="white"/>
<path d="M513.14 10.27H505.03L499.9 18.61L494.81 10.27H486.7L495.14 23.09L486.26 36.47H494.37L499.9 27.49L505.41 36.47H513.54L504.61 23.09L513.14 10.27Z" fill="white"/>
<path d="M537.93 10.8101C536.36 10.1041 534.651 9.76229 532.93 9.81006C531.917 9.8044 530.908 9.9356 529.93 10.2001C529.003 10.4606 528.129 10.8839 527.35 11.4501C526.547 12.0469 525.868 12.794 525.35 13.65H524.97C525.02 13.16 525.08 12.34 525.16 11.16C525.24 9.98003 525.3 8.76008 525.3 7.46008V0.0300293H518.15V36.5H525.3V24.17C525.266 22.5841 525.441 21.0006 525.82 19.4601C526.068 18.3161 526.686 17.286 527.58 16.53C528.56 15.8134 529.758 15.4599 530.97 15.53C531.578 15.4852 532.189 15.5924 532.746 15.842C533.302 16.0917 533.788 16.4759 534.16 16.9601C534.923 18.2401 535.272 19.7243 535.16 21.2101V36.51H542.31V19.42C542.388 17.5239 541.986 15.6388 541.14 13.9401C540.432 12.5804 539.307 11.4834 537.93 10.8101V10.8101Z" fill="white"/>
<path d="M556.7 0.750024C555.881 0.234391 554.927 -0.0266252 553.96 2.37866e-05C552.983 -0.0260117 552.02 0.23473 551.19 0.750024C550.782 1.07091 550.465 1.49207 550.268 1.97231C550.072 2.45255 550.004 2.97556 550.07 3.49014C550.011 4.00862 550.082 4.53358 550.278 5.01736C550.474 5.50114 550.787 5.92828 551.19 6.26003C552.02 6.77533 552.983 7.03607 553.96 7.01003C554.927 7.03668 555.881 6.77567 556.7 6.26003C557.111 5.93395 557.432 5.50858 557.634 5.02395C557.835 4.53932 557.909 4.01151 557.85 3.49014C557.913 2.97288 557.84 2.44812 557.638 1.96768C557.436 1.48723 557.113 1.06754 556.7 0.750024V0.750024Z" fill="white"/>
<path d="M557.57 10.27H550.42V36.47H557.57V10.27Z" fill="white"/>
<path d="M580.33 9.81006C578.716 9.73987 577.115 10.1356 575.72 10.9501C574.588 11.6431 573.627 12.5832 572.91 13.7001H572.62C572.7 13.1601 572.76 12.4101 572.81 11.4501C572.86 10.4901 572.91 9.50002 572.91 8.52002V0.0300293H565.76V36.5H571.22L572.41 33.6201H572.91C573.666 34.543 574.576 35.3279 575.6 35.9401C576.995 36.6861 578.57 37.0322 580.15 36.9401C582.02 36.9766 583.857 36.4467 585.42 35.42C587.024 34.2784 588.255 32.6887 588.96 30.8501C589.868 28.4465 590.3 25.8888 590.23 23.3201C590.23 18.8801 589.313 15.5134 587.48 13.2201C586.644 12.1252 585.56 11.2448 584.316 10.6519C583.073 10.0589 581.707 9.77036 580.33 9.81006ZM581.62 29.14C581.267 29.7519 580.757 30.2594 580.144 30.6107C579.531 30.962 578.836 31.1446 578.13 31.14C576.13 31.14 574.763 30.4733 574.03 29.14C573.182 27.3113 572.798 25.3024 572.91 23.29V22.51C572.905 21.1884 573.083 19.8727 573.44 18.6001C573.715 17.6721 574.283 16.858 575.06 16.28C575.954 15.7138 577.003 15.4411 578.06 15.5C578.78 15.4897 579.489 15.6692 580.118 16.0203C580.746 16.3713 581.271 16.8817 581.64 17.5C582.635 19.2601 583.094 21.2726 582.96 23.29C583.066 25.3172 582.602 27.3337 581.62 29.1101V29.14Z" fill="white"/>
<path d="M603.13 0.750024C602.311 0.234391 601.358 -0.0266252 600.39 2.37866e-05C599.413 -0.0260117 598.45 0.23473 597.62 0.750024C597.212 1.07091 596.895 1.49207 596.699 1.97231C596.502 2.45255 596.434 2.97556 596.5 3.49014C596.441 4.00862 596.513 4.53358 596.708 5.01736C596.904 5.50114 597.217 5.92828 597.62 6.26003C598.45 6.77533 599.413 7.03607 600.39 7.01003C601.358 7.03668 602.311 6.77567 603.13 6.26003C603.541 5.93395 603.863 5.50858 604.064 5.02395C604.265 4.53932 604.339 4.01151 604.28 3.49014C604.343 2.97288 604.27 2.44812 604.068 1.96768C603.867 1.48723 603.543 1.06754 603.13 0.750024V0.750024Z" fill="white"/>
<path d="M603.96 10.27H596.81V36.47H603.96V10.27Z" fill="white"/>
<path d="M623.19 31.2401C622.369 31.2787 621.56 31.0233 620.91 30.52C620.615 30.2283 620.387 29.8761 620.242 29.4875C620.097 29.099 620.039 28.6835 620.07 28.27V15.63H627.41V10.27H620.07V4.69006H615.5L613.44 10.2201L609.5 12.6101V15.6101H612.92V28.25C612.825 30.0678 613.189 31.8804 613.98 33.52C614.63 34.7088 615.662 35.6428 616.91 36.17C618.252 36.6872 619.682 36.9418 621.12 36.92C622.365 36.9281 623.608 36.8109 624.83 36.5701C625.813 36.3987 626.773 36.1134 627.69 35.7201V30.4C626.957 30.6352 626.213 30.8322 625.46 30.9901C624.715 31.155 623.953 31.2388 623.19 31.2401V31.2401Z" fill="white"/>
<path d="M640.01 0.749994C639.188 0.234115 638.231 -0.0268393 637.26 -6.19912e-06C636.286 -0.0282256 635.326 0.232759 634.5 0.749994C634.091 1.06976 633.771 1.49051 633.573 1.97082C633.375 2.45113 633.305 2.97464 633.37 3.49011C633.312 4.00945 633.386 4.53495 633.583 5.01879C633.78 5.50263 634.096 5.92932 634.5 6.26C635.326 6.77724 636.286 7.03822 637.26 7.01C638.231 7.03684 639.188 6.77588 640.01 6.26C640.419 5.93207 640.739 5.50646 640.94 5.02233C641.141 4.5382 641.217 4.01125 641.16 3.49011C641.223 2.97285 641.15 2.44809 640.948 1.96765C640.747 1.4872 640.423 1.06751 640.01 0.749994V0.749994Z" fill="white"/>
<path d="M640.83 10.27H633.68V36.47H640.83V10.27Z" fill="white"/>
<path d="M666.7 11.3501C664.698 10.2738 662.452 9.7329 660.18 9.78004C657.81 9.71493 655.463 10.2554 653.36 11.3501C651.457 12.3917 649.92 13.9944 648.96 15.9401C647.863 18.2414 647.331 20.7717 647.41 23.3201C647.373 25.2949 647.681 27.2609 648.32 29.13C648.889 30.7271 649.785 32.1882 650.95 33.4201C652.077 34.5762 653.442 35.4736 654.95 36.0501C656.574 36.6561 658.296 36.9578 660.03 36.9401C661.836 36.9669 663.632 36.6653 665.33 36.0501C666.846 35.4883 668.214 34.5889 669.33 33.4201C670.487 32.1965 671.358 30.7312 671.88 29.13C672.51 27.2591 672.815 25.294 672.78 23.3201C672.858 20.7606 672.291 18.2225 671.13 15.9401C670.142 14.004 668.6 12.4061 666.7 11.3501V11.3501ZM664.94 27.66C664.66 28.7051 664.054 29.6335 663.21 30.3101C662.312 30.9347 661.233 31.2473 660.14 31.2001C659.031 31.2502 657.936 30.9378 657.02 30.3101C656.17 29.6332 655.554 28.7061 655.26 27.66C654.856 26.2498 654.667 24.7867 654.7 23.3201C654.566 21.2971 655.003 19.2772 655.96 17.4901C656.412 16.8237 657.032 16.288 657.757 15.9369C658.482 15.5858 659.287 15.4318 660.09 15.4901C661.196 15.4399 662.289 15.7447 663.21 16.3601C664.055 17.0149 664.662 17.9279 664.94 18.9601C665.352 20.3584 665.541 21.8129 665.5 23.27C665.55 24.7525 665.367 26.2337 664.96 27.66H664.94Z" fill="white"/>
<path d="M701.05 12.0701C699.17 10.4813 696.758 9.6631 694.3 9.78005C693.225 9.77761 692.153 9.90863 691.11 10.1701C690.115 10.4246 689.172 10.8473 688.32 11.4201C687.475 11.9971 686.763 12.747 686.23 13.6201H685.84L684.84 10.27H679.38V36.4701H686.53V24.14C686.412 21.9349 686.823 19.7336 687.73 17.7201C688.52 16.2401 690.02 15.4901 692.2 15.4901C692.809 15.4407 693.421 15.5458 693.978 15.7958C694.536 16.0458 695.022 16.4325 695.39 16.9201C696.153 18.2001 696.502 19.6843 696.39 21.1701V36.4701H703.54V19.38C703.58 16.0334 702.75 13.5968 701.05 12.0701Z" fill="white"/>
<path d="M467.89 70.51H473.35V62.7001H458.7V70.51H464.17C464.17 71.09 464.08 71.68 464.02 72.25H456.7V81.9301H460.06V80.9301H472.4V81.9301H475.9V72.3H467.42L467.89 70.51ZM461.82 65.3601H469.99V67.8101H461.82V65.3601ZM472.37 77.9901H460.03V75.13H472.37V77.9901Z" fill="white"/>
<path d="M467.67 55.7H464.12V58.02H454.04V65.08H457.31V61.07H474.73V65.08H478.17V58.02H467.67V55.7Z" fill="white"/>
<path d="M505.61 74.3501C505.53 77.2301 505.27 78.55 504.88 78.55C504.49 78.55 503.88 77.4501 503.39 75.6101C505.19 72.629 506.487 69.3722 507.23 65.9701L504.23 65.41C503.847 67.218 503.295 68.9859 502.58 70.6901C502.3 68.3101 502.09 65.56 501.98 62.64H507.34V59.64H505.7L506.93 58.91C506.174 57.6883 505.252 56.5777 504.19 55.6101L501.89 56.9501C502.693 57.7768 503.416 58.6774 504.05 59.64H501.86C501.86 58.34 501.86 57.0301 501.86 55.7201H498.7C498.7 57.0201 498.7 58.33 498.76 59.64H490.27V68.9601C490.305 70.8428 490.161 72.7246 489.84 74.5801L489.41 72.4901L487.25 73.27V65.52H489.43V62.4401H487.25V56.14H484.14V62.4401H481.7V65.52H484.16V74.3701C483.08 74.7501 482.08 75.0701 481.25 75.3701L482.25 78.7001C484.44 77.8301 487.06 76.7801 489.56 75.7001C489.153 77.3223 488.376 78.8284 487.29 80.1001C488.194 80.6719 489.012 81.3687 489.72 82.17C491.457 80.0797 492.56 77.5365 492.9 74.8401C493.273 75.6834 493.506 76.5817 493.59 77.5C494.385 77.5399 495.183 77.4997 495.97 77.38C496.287 77.3368 496.591 77.2251 496.86 77.0524C497.13 76.8797 497.358 76.6501 497.53 76.38C498.09 75.57 498.21 73.08 498.29 66.78C498.29 66.44 498.29 65.6901 498.29 65.6901H493.29V62.6901H498.8C498.902 66.8311 499.334 70.9574 500.09 75.03C498.701 76.9775 496.919 78.6126 494.86 79.8301C495.704 80.5146 496.484 81.2744 497.19 82.1001C498.654 81.1069 499.979 79.9231 501.13 78.5801C501.94 80.5801 503 81.7301 504.38 81.7301C506.59 81.7301 507.46 80.53 507.88 76.16C507.014 75.7086 506.243 75.0941 505.61 74.3501V74.3501ZM495.61 68.3501C495.55 72.4901 495.46 74.0201 495.22 74.3501C495.142 74.4617 495.037 74.5515 494.914 74.611C494.792 74.6705 494.656 74.6977 494.52 74.6901C494.012 74.6944 493.505 74.6678 493 74.6101C493.3 72.7085 493.44 70.7851 493.42 68.8601V68.3L495.61 68.3501Z" fill="white"/>
<path d="M525.42 66.7001H535.35V63.2301H524.28C524.55 60.6001 524.58 58.0301 524.62 55.7001H520.93C520.93 58.0101 520.93 60.6001 520.66 63.2301H510.43V66.7001H520.1C519.554 69.4462 518.333 72.0131 516.547 74.1692C514.761 76.3253 512.467 78.0028 509.87 79.05C510.885 79.8393 511.746 80.8088 512.41 81.91C514.907 80.7729 517.136 79.1204 518.949 77.0608C520.762 75.0012 522.119 72.5813 522.93 69.9601C525.12 75.4001 528.36 79.53 533.44 81.91C534.137 80.7378 534.984 79.662 535.96 78.7101C530.7 76.6201 527.29 72.1701 525.42 66.7001Z" fill="white"/>
<path d="M542.26 63.1201H560.18V67.01H563.51V60.15H559.77C560.56 59.15 561.38 58.0501 562.14 56.9601L558.5 55.89C557.829 57.383 557.019 58.8094 556.08 60.15H551.76L553.21 59.5901C552.659 58.1438 551.915 56.7782 551 55.53L548 56.65C548.715 57.7507 549.312 58.9239 549.78 60.15H545.34L546.34 59.67C545.674 58.3154 544.804 57.071 543.76 55.9801L540.9 57.27C541.651 58.1687 542.32 59.1325 542.9 60.15H539.08V67.01H542.24L542.26 63.1201Z" fill="white"/>
<path d="M559.26 66.7301L557.13 65.1101L556.43 65.27H543.77V68.16H553.3C552.598 68.7414 551.856 69.2726 551.08 69.75H549.54V71.55H538.76V74.65H549.54V78.29C549.54 78.69 549.37 78.8301 548.81 78.8301C548.25 78.8301 546.15 78.83 544.36 78.77C544.96 79.7869 545.421 80.8801 545.73 82.02C547.575 82.1287 549.426 81.9568 551.22 81.51C552.57 81.01 552.99 80.14 552.99 78.41V74.65H563.82V71.55H553.22C555.449 70.2346 557.482 68.6121 559.26 66.7301V66.7301Z" fill="white"/>
<path d="M581.27 70.9801C582.43 70.1502 583.47 69.1642 584.36 68.05C586.084 69.223 587.719 70.5234 589.25 71.9401L591.63 69.39C589.886 67.9238 588.038 66.5869 586.1 65.39C586.561 64.5237 586.949 63.6207 587.26 62.6901L584.41 62.1001H591.49V58.91H581.27V55.6901H577.7V58.91H567.7V62.1001H572.96C571.974 65.2879 569.881 68.0185 567.06 69.8C568.042 70.482 568.968 71.2411 569.83 72.0701C571.475 70.827 572.895 69.3119 574.03 67.5901C574.981 68.2568 575.871 69.0064 576.69 69.8301L578.69 67.4501C577.674 66.5848 576.598 65.7928 575.47 65.0801C575.852 64.3116 576.186 63.5201 576.47 62.7101L573.78 62.1001H583.78C582.801 65.1717 580.643 67.7291 577.78 69.2101C578.486 69.6918 579.155 70.2267 579.78 70.8101H577.78V72.5701H567.03V75.8101H577.7V81.9401H581.23V75.8101H592.23V72.5901H581.23L581.27 70.9801Z" fill="white"/>
<path d="M620.58 75.5801V72.8101H609.7V71.55H618.13V69.1201H609.7V67.89H619.44V65.25H613.92C614.33 64.59 614.77 63.83 615.24 63.01H620.51V60.2401H616.88C617.55 59.2401 618.33 58.0001 619.08 56.7101L615.55 55.8701C615.086 57.2831 614.497 58.6518 613.79 59.9601L614.69 60.2401H612.3V55.65H609.11V60.2401H607.11V55.65H603.97V60.2401H601.44L602.77 59.77C602.202 58.3658 601.488 57.0251 600.64 55.77L597.75 56.77C598.42 57.8808 599.005 59.0409 599.5 60.2401H595.7V63.01H601.45H601.27C601.63 63.7232 601.938 64.4619 602.19 65.2201H596.85V67.8601H606.37V69.0901H598.25V71.52H606.37V72.8101H595.6V75.5601H603.7C600.905 77.1434 597.862 78.2422 594.7 78.8101C595.532 79.6516 596.257 80.592 596.86 81.6101C600.279 80.7271 603.487 79.1736 606.3 77.04V81.9501H609.7V76.9501C612.441 79.2173 615.657 80.8374 619.11 81.6901C619.729 80.5954 620.489 79.5867 621.37 78.6901C618.252 78.2076 615.247 77.1641 612.5 75.6101L620.58 75.5801ZM604.75 63.03H611.45C611.17 63.8 610.82 64.61 610.5 65.27H605.22L605.71 65.1901C605.458 64.4416 605.137 63.7184 604.75 63.03V63.03Z" fill="white"/>
<path d="M645.44 78.01C645.44 78.46 645.3 78.6001 644.85 78.6001C644.4 78.6001 642.85 78.6001 641.44 78.6001C641.896 79.6971 642.231 80.8404 642.44 82.01C644.074 82.1414 645.717 81.9234 647.26 81.3701C648.26 80.7801 648.66 79.8801 648.66 78.0601V56.2201H645.41L645.44 78.01Z" fill="white"/>
<path d="M633.01 62.4701H638.08V59.42H633.01V55.8701H629.82V59.42H628.02C628.27 58.57 628.49 57.7101 628.67 56.8501L625.59 56.2301C625.158 58.7975 624.285 61.2707 623.01 63.54C623.873 63.8296 624.721 64.1634 625.55 64.54H623.43V67.54H629.82V69.54H624.53V79.6801H627.53V72.54H629.83V81.89H633.02V72.54H635.48V76.66C635.48 76.94 635.4 76.9901 635.15 76.9901C634.9 76.9901 634.15 76.9901 633.41 76.9901C633.815 77.8997 634.088 78.8629 634.22 79.8501C635.338 79.9785 636.47 79.8059 637.5 79.3501C638.34 78.8401 638.5 78.0601 638.5 76.7401V69.5701H633.01V67.5701H639.17V64.5701H633.01V62.4701ZM626.01 64.5701C626.362 63.8869 626.679 63.186 626.96 62.4701H629.8V64.5701H626.01Z" fill="white"/>
<path d="M643.55 58.02H640.41V73.84H643.55V58.02Z" fill="white"/>
<path d="M661.09 56.8101L657.85 55.8101C656.466 59.733 654.272 63.3207 651.41 66.3401C652.133 67.4739 652.749 68.6723 653.25 69.92C653.878 69.263 654.469 68.572 655.02 67.8501V81.9601H658.41V62.6201C659.435 60.7469 660.331 58.8057 661.09 56.8101V56.8101Z" fill="white"/>
<path d="M668.49 56.8101L665.24 55.9401C664.044 59.8744 661.995 63.4969 659.24 66.55C660.155 67.2605 661.008 68.0466 661.79 68.9C663.226 67.2214 664.473 65.3905 665.51 63.4401H666.51V81.9801H669.96V75.7401H677.7V72.6001H670.06V69.4601H677.34V66.41H670.06V63.41H678.06V60.2201H667.15C667.63 59.1301 668.09 57.9701 668.49 56.8101Z" fill="white"/>
<path d="M701.37 77.4801C702.63 76.8292 703.843 76.0906 705 75.27L703 73.9301H706V71.1001H700.7V69.1901H704.7V66.39H700.7V64.55H704.48V56.9H682.81V65.2201C682.81 69.7001 682.59 76.0301 679.81 80.3401C680.871 80.8043 681.877 81.3845 682.81 82.0701C685.75 77.4501 686.2 70.1501 686.2 65.2201V64.55H690.32V66.39H686.76V69.1901H690.32V71.1001H686V73.9301H688.92V78.2101C687.86 78.3501 686.92 78.46 686.03 78.55L686.51 81.63C689.42 81.18 693.34 80.63 696.98 80L696.87 77.7001C698.843 79.8812 701.447 81.3916 704.32 82.02C704.86 81.0117 705.533 80.0801 706.32 79.25C704.581 78.9481 702.906 78.3494 701.37 77.4801V77.4801ZM686.21 59.7301H701.11V61.7301H686.21V59.7301ZM693.41 64.55H697.58V66.39H693.41V64.55ZM693.41 69.1901H697.58V71.1001H693.41V69.1901ZM692.01 77.8101V73.9301H694.49C695.004 75.0896 695.659 76.1812 696.44 77.1801L692.01 77.8101ZM697.67 73.9301H702.02C701.105 74.6149 700.154 75.2492 699.17 75.8301C698.609 75.2548 698.116 74.6173 697.7 73.9301H697.67Z" fill="white"/>
</g>
<defs>
<clipPath id="clip0_98_603">
<rect width="706.32" height="82.1" fill="white"/>
</clipPath>
</defs>
</svg>
