<svg width="297" height="105" viewBox="0 0 297 105" fill="none" xmlns="http://www.w3.org/2000/svg">
<path d="M9.68985 15.52H14.0198V20.26C13.0059 20.4651 11.9742 20.569 10.9399 20.5701C10.0981 20.6209 9.25626 20.4704 8.48416 20.1313C7.71206 19.7923 7.03185 19.2744 6.49979 18.6201C5.38195 16.9419 4.84776 14.9421 4.97977 12.9299C4.87181 10.8675 5.55092 8.841 6.87979 7.26001C7.50901 6.56508 8.28256 6.0161 9.14627 5.65161C10.01 5.28713 10.9429 5.11585 11.8798 5.1499C13.6871 5.15363 15.4682 5.58179 17.0797 6.3999L18.6898 2.53003C16.5505 1.59982 14.2426 1.11995 11.9098 1.12012C8.16982 1.12012 5.24313 2.1533 3.12979 4.21997C1.01646 6.28664 -0.0369087 9.16009 -0.030242 12.8401C-0.030242 16.6268 0.876517 19.5367 2.68985 21.5701C4.50318 23.6034 7.13976 24.6034 10.5998 24.5701C11.9389 24.574 13.2762 24.4736 14.5998 24.27C16.0125 24.0562 17.4043 23.7216 18.7598 23.27V11.4299H9.69986L9.68985 15.52Z" fill="#FF5C52"/>
<path d="M31.0098 7.41999C30.0942 8.01154 29.3414 8.82298 28.8198 9.7801H28.5897L27.8898 6.84015H24.2798V24.3101H29.0398V15.42C29.0038 14.8142 29.0986 14.2079 29.3177 13.6419C29.5369 13.076 29.8752 12.5636 30.3098 12.14C31.304 11.3105 32.5773 10.8921 33.8698 10.97C34.3448 10.9594 34.8192 11.0134 35.2798 11.1302L35.6398 6.65998C35.1099 6.55427 34.57 6.50743 34.0298 6.52009C32.9565 6.51616 31.9058 6.82915 31.0098 7.41999V7.41999Z" fill="#FF5C52"/>
<path d="M51.8 8.02005C50.2343 6.90223 48.3295 6.36153 46.41 6.49002C44.0852 6.45857 41.788 6.99771 39.7199 8.06009L41.3 11.2801C42.8362 10.527 44.5108 10.0981 46.2199 10.0201C48.0399 10.0201 48.94 10.9 48.94 12.67V13.44L45.94 13.5301C43.8864 13.4803 41.8578 13.9883 40.07 15C39.4222 15.4574 38.9033 16.0741 38.5634 16.7906C38.2236 17.507 38.0742 18.2991 38.13 19.0901C38.0813 19.8353 38.1838 20.5826 38.4312 21.2871C38.6787 21.9917 39.0661 22.6389 39.57 23.19C40.1043 23.6886 40.7343 24.0735 41.4219 24.3211C42.1096 24.5686 42.8405 24.6739 43.57 24.6302C44.7017 24.6689 45.8289 24.4712 46.88 24.0501C47.8577 23.5465 48.7063 22.8244 49.3599 21.94H49.4899L50.41 24.3101H53.7399V12.67C53.7984 11.7976 53.6536 10.9236 53.317 10.1167C52.9803 9.30985 52.4611 8.59219 51.8 8.02005V8.02005ZM48.94 17.6599C48.9608 18.1283 48.8825 18.5958 48.7102 19.0318C48.5378 19.4678 48.2754 19.8624 47.94 20.19C47.5891 20.5245 47.1746 20.7856 46.7211 20.9573C46.2677 21.1291 45.7845 21.2081 45.3 21.19C43.76 21.19 42.9899 20.5233 42.9899 19.19C42.9611 18.7834 43.0381 18.3764 43.2133 18.0083C43.3886 17.6403 43.6561 17.324 43.9899 17.0901C44.9305 16.5586 46.0003 16.299 47.0799 16.3401L48.92 16.2801L48.94 17.6599Z" fill="#FF5C52"/>
<path d="M69.53 5.59009C69.5444 6.7619 69.6649 7.93 69.89 9.08008H69.73C69.19 8.25653 68.4452 7.58748 67.5686 7.13867C66.692 6.68987 65.7138 6.47667 64.73 6.52002C63.7742 6.48333 62.8241 6.68313 61.9641 7.10181C61.1041 7.52048 60.3607 8.14497 59.8 8.91992C58.6407 10.9481 58.0308 13.2439 58.0308 15.5801C58.0308 17.9162 58.6407 20.2118 59.8 22.24C60.3487 23.0074 61.0786 23.6272 61.9248 24.0442C62.771 24.4612 63.7072 24.6626 64.65 24.6301C65.6394 24.6966 66.6283 24.4913 67.5095 24.0366C68.3908 23.5819 69.1309 22.895 69.65 22.05H69.85L70.78 24.3101H74.4301V0H69.65L69.53 5.59009ZM69.86 16.1599C69.932 17.4319 69.6033 18.6946 68.92 19.77C68.5874 20.1413 68.173 20.4303 67.7097 20.6143C67.2464 20.7982 66.7467 20.8721 66.25 20.8301C65.7512 20.8508 65.2555 20.744 64.8093 20.52C64.3632 20.2961 63.9815 19.9623 63.7001 19.55C63.0303 18.3716 62.7209 17.0225 62.8101 15.6699C62.7233 14.306 63.0286 12.9459 63.6901 11.75C63.9455 11.3236 64.3099 10.9729 64.7457 10.7339C65.1816 10.4949 65.6732 10.376 66.17 10.3899C66.7031 10.342 67.2396 10.4287 67.7305 10.6418C68.2214 10.855 68.651 11.188 68.98 11.6101C69.6655 12.8259 69.972 14.2189 69.86 15.6101V16.1599Z" fill="#FF5C52"/>
<path d="M91.0099 15.0601C91.1268 16.5937 90.8189 18.1299 90.1199 19.5C89.7953 19.9537 89.358 20.3149 88.8512 20.5481C88.3444 20.7813 87.7856 20.8786 87.2299 20.8301C86.823 20.865 86.4139 20.797 86.0401 20.6328C85.6662 20.4686 85.3394 20.2131 85.0899 19.8899C84.5833 19.0332 84.3497 18.0428 84.4199 17.05V6.84009H79.6499V18.26C79.5355 19.9856 80.0946 21.6883 81.2099 23.01C81.8283 23.5886 82.5599 24.0329 83.3584 24.3152C84.1569 24.5974 85.0052 24.7113 85.8499 24.6499C86.9555 24.6696 88.0518 24.4442 89.0599 23.99C89.9503 23.5823 90.7038 22.9261 91.2299 22.1001H91.4799L92.1199 24.3301H95.7799V6.86011H91.0099V15.0601Z" fill="#FF5C52"/>
<path d="M113.77 8.02011C112.204 6.9038 110.299 6.36325 108.38 6.49008C106.055 6.45862 103.758 6.99776 101.69 8.06015L103.27 11.2801C104.806 10.5271 106.481 10.0982 108.19 10.0201C110.01 10.0201 110.91 10.9 110.91 12.67V13.44L107.91 13.5301C105.856 13.4804 103.828 13.9884 102.04 15.0001C101.39 15.4553 100.869 16.0717 100.529 16.7887C100.189 17.5057 100.041 18.2988 100.1 19.0902C100.051 19.8354 100.154 20.5826 100.401 21.2872C100.649 21.9918 101.036 22.639 101.54 23.19C102.074 23.6897 102.704 24.0752 103.391 24.3228C104.079 24.5705 104.81 24.6751 105.54 24.6302C106.675 24.6697 107.806 24.4721 108.86 24.0501C109.838 23.5466 110.686 22.8245 111.34 21.94H111.47L112.39 24.3102H115.72V12.67C115.777 11.7969 115.631 10.9225 115.292 10.1156C114.954 9.30863 114.433 8.59126 113.77 8.02011ZM110.91 17.66C110.931 18.1283 110.852 18.5958 110.68 19.0318C110.508 19.4678 110.245 19.8625 109.91 20.19C109.559 20.5246 109.145 20.7856 108.691 20.9574C108.238 21.1291 107.755 21.2081 107.27 21.19C105.73 21.19 104.96 20.5234 104.96 19.19C104.933 18.7837 105.011 18.3773 105.186 18.0096C105.361 17.6419 105.627 17.3254 105.96 17.0902C106.905 16.5598 107.977 16.3003 109.06 16.3402L110.9 16.2801L110.91 17.66Z" fill="#FF5C52"/>
<path d="M126.89 20.3401C126.692 20.1467 126.539 19.9119 126.442 19.6526C126.345 19.3933 126.307 19.1159 126.33 18.8401V10.4199H131.22V6.84009H126.33V3.13013H123.28L121.91 6.81006L119.28 8.40991V10.4099H121.56V18.8301C121.441 20.3908 121.904 21.9401 122.86 23.1799C123.414 23.701 124.072 24.099 124.79 24.3472C125.509 24.5954 126.272 24.6884 127.03 24.6201C128.53 24.662 130.022 24.3895 131.41 23.8201V20.26C130.443 20.5927 129.432 20.7781 128.41 20.8101C127.863 20.8428 127.323 20.6758 126.89 20.3401V20.3401Z" fill="#FF5C52"/>
<path d="M137.76 0C136.03 0 135.17 0.780078 135.17 2.33008C135.17 3.88008 136.03 4.66992 137.76 4.66992C138.461 4.7272 139.158 4.50846 139.7 4.06006C139.926 3.83502 140.102 3.56439 140.216 3.26611C140.33 2.96783 140.379 2.64876 140.36 2.33008C140.36 0.780078 139.49 0 137.76 0Z" fill="#FF5C52"/>
<path d="M140.14 6.84003H135.37V24.31H140.14V6.84003Z" fill="#FF5C52"/>
<path d="M161.48 15.5501C161.53 13.8936 161.187 12.2488 160.48 10.75C159.822 9.42288 158.776 8.32771 157.48 7.61012C156.122 6.86197 154.59 6.48586 153.04 6.52003C151.886 6.451 150.729 6.62628 149.647 7.03468C148.565 7.44308 147.581 8.07526 146.76 8.88991C145.178 10.7347 144.378 13.1243 144.53 15.5501C144.481 17.2096 144.824 18.8575 145.53 20.3601C146.187 21.6958 147.233 22.801 148.53 23.53C149.887 24.2812 151.419 24.6608 152.97 24.6301C154.126 24.6951 155.283 24.5139 156.364 24.0984C157.445 23.6829 158.425 23.0426 159.24 22.22C160.824 20.3715 161.627 17.9798 161.48 15.5501V15.5501ZM155.76 19.49C155.461 19.9324 155.05 20.2871 154.568 20.5173C154.086 20.7476 153.552 20.8453 153.02 20.8001C152.481 20.8431 151.939 20.7426 151.451 20.509C150.963 20.2755 150.545 19.917 150.24 19.47C149.606 18.2651 149.315 16.9091 149.4 15.5501C149.308 14.2001 149.599 12.8515 150.24 11.6599C150.541 11.2178 150.955 10.8643 151.438 10.6358C151.922 10.4072 152.457 10.312 152.99 10.3601C153.525 10.3146 154.063 10.4107 154.549 10.6389C155.036 10.8671 155.453 11.2192 155.76 11.6599C156.398 12.8525 156.689 14.2003 156.6 15.5501C156.686 16.9155 156.396 18.2784 155.76 19.49V19.49Z" fill="#FF5C52"/>
<path d="M170.63 16.0901C170.507 14.5625 170.816 13.031 171.52 11.6699C171.844 11.2144 172.28 10.8512 172.787 10.6162C173.294 10.3812 173.853 10.2826 174.41 10.3301C174.818 10.2972 175.227 10.3668 175.601 10.5327C175.975 10.6986 176.301 10.9556 176.55 11.28C177.057 12.1331 177.29 13.1205 177.22 14.1101V24.31H181.99V12.9199C182.107 11.1907 181.539 9.48487 180.41 8.16991C179.794 7.5898 179.065 7.14384 178.268 6.85985C177.471 6.57585 176.624 6.46008 175.78 6.52C174.682 6.50307 173.594 6.72476 172.59 7.16991C171.693 7.58038 170.935 8.24445 170.41 9.08006H170.14L169.5 6.84007H165.89V24.31H170.66L170.63 16.0901Z" fill="#FF5C52"/>
<path d="M219.77 1.46997L216.87 13.9399C216.68 14.6899 216.47 15.6699 216.24 16.9399C216.01 18.2099 215.85 19.1599 215.74 19.9399C215.63 19.0999 215.46 18.0899 215.24 16.9399C215.02 15.7899 214.84 14.8901 214.69 14.3201L211.37 1.52002H206.79L203.46 14.3201C203.26 15.0001 203.05 15.97 202.82 17.22C202.59 18.47 202.46 19.38 202.4 19.97C202.17 18.29 201.8 16.29 201.29 13.97L198.37 1.5H193.6L199.43 24.3401H204.93L208.01 12.3401C208.14 11.8101 208.33 10.9299 208.58 9.68994C208.83 8.44994 208.99 7.52997 209.05 6.96997C209.05 7.42997 209.25 8.32992 209.52 9.66992C209.79 11.0099 210 11.8901 210.12 12.3101L213.21 24.3101H218.73L224.54 1.46997H219.77Z" fill="#FF5C52"/>
<path d="M241.11 22.26C242.697 20.4131 243.504 18.0212 243.36 15.5901C243.41 13.9336 243.067 12.2888 242.36 10.79C241.7 9.46474 240.654 8.37002 239.36 7.64991C238.002 6.90176 236.47 6.52589 234.92 6.56007C233.765 6.4904 232.609 6.66555 231.527 7.07398C230.445 7.48242 229.461 8.11478 228.64 8.92994C227.054 10.7732 226.25 13.163 226.4 15.5901C226.357 17.2492 226.699 18.8956 227.4 20.3999C228.058 21.7345 229.104 22.8395 230.4 23.5701C231.757 24.3213 233.289 24.7006 234.84 24.6699C235.996 24.7355 237.153 24.5547 238.234 24.1392C239.315 23.7237 240.295 23.0832 241.11 22.26V22.26ZM232.11 19.51C231.467 18.3082 231.172 16.9505 231.26 15.5901C231.165 14.2388 231.46 12.8886 232.11 11.7C232.445 11.2935 232.866 10.9664 233.342 10.7417C233.818 10.517 234.338 10.4004 234.865 10.4004C235.392 10.4004 235.912 10.517 236.388 10.7417C236.864 10.9664 237.285 11.2935 237.62 11.7C238.262 12.8913 238.557 14.2394 238.47 15.5901C238.554 16.9565 238.26 18.3196 237.62 19.53C237.322 19.9709 236.912 20.3245 236.432 20.5547C235.953 20.7849 235.42 20.8835 234.89 20.8401C234.35 20.8752 233.81 20.767 233.326 20.5264C232.841 20.2858 232.429 19.9213 232.13 19.47L232.11 19.51Z" fill="#FF5C52"/>
<path d="M258.75 11.1302L259.11 6.65998C258.58 6.55427 258.04 6.50743 257.5 6.52009C256.433 6.52009 255.39 6.83291 254.5 7.41999C253.584 8.01154 252.832 8.82298 252.31 9.7801H252.08L251.38 6.84015H247.77V24.3101H252.53V15.42C252.494 14.8142 252.589 14.2079 252.808 13.6419C253.027 13.076 253.365 12.5636 253.8 12.14C254.794 11.3105 256.068 10.8921 257.36 10.97C257.828 10.9612 258.296 11.0152 258.75 11.1302V11.1302Z" fill="#FF5C52"/>
<path d="M272.71 14.42L279.65 6.84H274.27L269.38 12.16L267.3 14.81H267.24L267.49 10.84V0H262.73V24.31H267.49V18.88L269.54 17.23L274.57 24.31H280.07L272.71 14.42Z" fill="#FF5C52"/>
<path d="M283.75 15.3301C284.686 15.9656 285.693 16.489 286.75 16.8899C287.69 17.2899 288.44 17.6232 289 17.8899C289.435 18.0943 289.837 18.3641 290.19 18.69C290.306 18.8084 290.396 18.9496 290.454 19.1045C290.513 19.2594 290.539 19.4247 290.53 19.5901C290.53 20.5901 289.67 21.0901 287.94 21.0901C286.947 21.0702 285.96 20.929 285 20.6699C283.968 20.4189 282.964 20.0674 282 19.6201V23.5601C282.808 23.8979 283.649 24.1493 284.51 24.3101C285.582 24.5052 286.671 24.5956 287.76 24.5801C289.723 24.7204 291.679 24.2259 293.34 23.1699C293.962 22.6927 294.458 22.0707 294.784 21.3577C295.11 20.6447 295.256 19.8627 295.21 19.0801C295.23 18.3091 295.076 17.5436 294.76 16.8401C294.433 16.1853 293.953 15.6191 293.36 15.19C292.427 14.5533 291.42 14.0327 290.36 13.6399C289.323 13.2623 288.319 12.7974 287.36 12.25C287.163 12.1375 286.998 11.9765 286.881 11.7822C286.764 11.5879 286.698 11.3667 286.69 11.1399C286.69 10.3799 287.39 10 288.8 10C289.591 9.99985 290.377 10.1214 291.13 10.3601C291.962 10.6249 292.78 10.9319 293.58 11.28L295.02 7.8401C293.099 6.93898 291.003 6.47116 288.88 6.46998C287.079 6.3581 285.288 6.80516 283.75 7.75001C283.169 8.14515 282.698 8.68243 282.383 9.3108C282.068 9.93918 281.919 10.6379 281.95 11.3401C281.931 12.1284 282.077 12.9119 282.38 13.6399C282.695 14.3051 283.164 14.885 283.75 15.3301V15.3301Z" fill="#FF5C52"/>
<path d="M153.38 68.31H166.54V64.31H158.22V58.42H165.96V54.45H158.22V49.44H166.54V45.47H153.38V68.31Z" fill="#FF5C52"/>
<path d="M186.97 50.84H181.56L178.14 56.41L174.75 50.84H169.34L174.97 59.39L169.05 68.31H174.45L178.14 62.33L181.81 68.31H187.24L181.28 59.39L186.97 50.84Z" fill="#FF5C52"/>
<path d="M192.73 44C191 44 190.14 44.7801 190.14 46.3301C190.14 47.8801 191 48.6699 192.73 48.6699C193.431 48.7251 194.127 48.5066 194.67 48.0601C194.895 47.8342 195.069 47.5631 195.181 47.2649C195.293 46.9667 195.341 46.648 195.32 46.3301C195.32 44.7801 194.46 44 192.73 44Z" fill="#FF5C52"/>
<path d="M195.11 50.84H190.34V68.31H195.11V50.84Z" fill="#FF5C52"/>
<path d="M210.29 50.52C209.301 50.4633 208.314 50.6737 207.435 51.1294C206.555 51.5851 205.814 52.2694 205.29 53.1101H205.11C205.23 51.5301 205.29 50.3799 205.29 49.6599V44H200.53V68.3101H204.17L204.97 66.3899H205.29C205.89 67.1032 206.641 67.6742 207.489 68.0615C208.337 68.4488 209.261 68.643 210.193 68.6296C211.125 68.6162 212.043 68.3957 212.879 67.9841C213.716 67.5726 214.45 66.9803 215.03 66.25C216.352 64.2757 216.988 61.9215 216.84 59.55C216.973 57.2168 216.36 54.9014 215.09 52.9399C214.555 52.1683 213.836 51.5428 212.997 51.1201C212.159 50.6975 211.228 50.4912 210.29 50.52V50.52ZM211.15 63.4199C210.917 63.8326 210.579 64.1757 210.169 64.4131C209.759 64.6505 209.293 64.7737 208.82 64.77C208.309 64.8107 207.797 64.7199 207.331 64.5063C206.865 64.2928 206.462 63.9636 206.16 63.55C205.515 62.3205 205.227 60.9347 205.33 59.55V59.03C205.249 57.7786 205.545 56.5317 206.18 55.45C206.489 55.0721 206.885 54.7754 207.335 54.5854C207.784 54.3955 208.273 54.3182 208.76 54.3601C209.237 54.3499 209.708 54.4644 210.128 54.6924C210.547 54.9204 210.899 55.2539 211.15 55.6599C211.81 56.8343 212.112 58.1761 212.02 59.52C212.097 60.8755 211.796 62.2258 211.15 63.4199V63.4199Z" fill="#FF5C52"/>
<path d="M223.66 44C221.93 44 221.06 44.7801 221.06 46.3301C221.06 47.8801 221.93 48.6699 223.66 48.6699C224.361 48.7251 225.057 48.5066 225.6 48.0601C225.823 47.833 225.996 47.5619 226.108 47.2639C226.22 46.966 226.268 46.6478 226.25 46.3301C226.25 44.7801 225.39 44 223.66 44Z" fill="#FF5C52"/>
<path d="M226.03 50.84H221.27V68.31H226.03V50.84Z" fill="#FF5C52"/>
<path d="M241.82 59.26C240.889 58.6192 239.881 58.0984 238.82 57.71C237.783 57.3314 236.779 56.8665 235.82 56.3201C235.623 56.2076 235.458 56.0466 235.34 55.8523C235.223 55.658 235.157 55.4368 235.15 55.21C235.15 54.45 235.85 54.0701 237.26 54.0701C238.05 54.0699 238.836 54.1912 239.59 54.4299C240.422 54.6947 241.239 55.002 242.04 55.3501L243.48 51.9099C241.558 51.0088 239.462 50.5412 237.34 50.5401C235.539 50.4282 233.747 50.8752 232.21 51.8201C231.628 52.2152 231.158 52.7525 230.843 53.3809C230.528 54.0093 230.379 54.7077 230.41 55.4099C230.385 56.1987 230.532 56.9834 230.84 57.71C231.161 58.357 231.63 58.9191 232.21 59.3501C233.145 59.9856 234.152 60.509 235.21 60.9099C236.15 61.3099 236.9 61.6433 237.46 61.9099C237.895 62.1143 238.296 62.3841 238.65 62.71C238.765 62.8284 238.855 62.9696 238.914 63.1245C238.972 63.2794 238.998 63.4448 238.99 63.6101C238.99 64.6101 238.13 65.1101 236.4 65.1101C235.406 65.0903 234.419 64.9491 233.46 64.69C232.428 64.4389 231.423 64.0872 230.46 63.6399V67.5801C231.267 67.9193 232.109 68.1708 232.97 68.3301C234.042 68.5252 235.13 68.6157 236.22 68.6001C238.183 68.7404 240.139 68.2459 241.8 67.19C242.422 66.7128 242.917 66.0904 243.243 65.3775C243.569 64.6645 243.716 63.8827 243.67 63.1001C243.69 62.3291 243.536 61.5636 243.22 60.8601C242.889 60.222 242.408 59.673 241.82 59.26V59.26Z" fill="#FF5C52"/>
<path d="M250.24 44C248.51 44 247.65 44.7801 247.65 46.3301C247.65 47.8801 248.51 48.6699 250.24 48.6699C250.941 48.7272 251.637 48.5085 252.18 48.0601C252.405 47.8342 252.579 47.5631 252.691 47.2649C252.803 46.9667 252.85 46.648 252.83 46.3301C252.83 44.7801 251.97 44 250.24 44Z" fill="#FF5C52"/>
<path d="M252.62 50.84H247.85V68.31H252.62V50.84Z" fill="#FF5C52"/>
<path d="M269.97 51.6101C268.612 50.862 267.08 50.4859 265.53 50.52C264.375 50.4504 263.219 50.6255 262.137 51.0339C261.054 51.4424 260.071 52.0747 259.25 52.8899C257.667 54.7347 256.867 57.1243 257.02 59.5501C256.971 61.2096 257.314 62.8575 258.02 64.3601C258.663 65.6887 259.691 66.7931 260.97 67.53C262.327 68.2812 263.859 68.6608 265.41 68.6301C266.565 68.695 267.72 68.5134 268.799 68.0979C269.878 67.6824 270.857 67.0423 271.67 66.22C273.257 64.373 274.064 61.9812 273.92 59.5501C273.97 57.8936 273.627 56.2488 272.92 54.75C272.275 53.43 271.247 52.3357 269.97 51.6101V51.6101ZM268.24 63.49C267.941 63.9324 267.529 64.2871 267.048 64.5173C266.566 64.7476 266.032 64.8453 265.5 64.8001C264.96 64.8431 264.419 64.7426 263.931 64.509C263.443 64.2755 263.025 63.917 262.72 63.47C262.085 62.2651 261.795 60.909 261.88 59.5501C261.788 58.2001 262.079 56.8515 262.72 55.6599C263.021 55.2178 263.434 54.8643 263.918 54.6358C264.401 54.4072 264.937 54.312 265.47 54.3601C266.005 54.3146 266.543 54.4107 267.029 54.6389C267.515 54.8671 267.933 55.2192 268.24 55.6599C268.878 56.8525 269.169 58.2003 269.08 59.5501C269.166 60.9155 268.875 62.2784 268.24 63.49V63.49Z" fill="#FF5C52"/>
<path d="M288.26 50.52C287.162 50.5031 286.074 50.7248 285.07 51.1699C284.173 51.5804 283.415 52.2444 282.89 53.0801H282.62L281.98 50.8401H278.34V68.31H283.11V60.0901C282.987 58.5625 283.296 57.031 284 55.6699C284.323 55.2144 284.76 54.8512 285.267 54.6162C285.774 54.3812 286.333 54.2826 286.89 54.3301C287.298 54.2972 287.707 54.3668 288.081 54.5327C288.454 54.6986 288.781 54.9556 289.03 55.28C289.536 56.1331 289.77 57.1205 289.7 58.1101V68.31H294.47V56.9199C294.586 55.1907 294.019 53.4849 292.89 52.1699C292.274 51.5898 291.545 51.1438 290.748 50.8598C289.951 50.5759 289.104 50.4601 288.26 50.52Z" fill="#FF5C52"/>
<path d="M125.89 95.9099H129.79V90.3301H119.31V95.9099H123.22C123.22 96.3299 123.15 96.7499 123.11 97.1499H117.89V104.07H120.29V103.33H129.11V104.03H131.61V97.1499H125.55C125.68 96.7599 125.81 96.3399 125.89 95.9099ZM121.55 92.23H127.39V94.01H121.55V92.23ZM129.09 101.23H120.27V99.23H129.09V101.23Z" fill="white"/>
<path d="M125.77 85.33H123.23V86.99H116.03V92.03H118.37V89.17H130.81V92.03H133.27V86.99H125.77V85.33Z" fill="white"/>
<path d="M152.89 98.6499C152.83 100.71 152.65 101.65 152.37 101.65C152.09 101.65 151.63 100.87 151.31 99.55C152.593 97.4217 153.519 95.0975 154.05 92.6699L151.89 92.27C151.616 93.5565 151.224 94.8151 150.72 96.03C150.51 94.34 150.36 92.38 150.28 90.29H154.11V88.1101H152.97L153.85 87.5901C153.295 86.7149 152.622 85.9206 151.85 85.23L150.21 86.23C150.781 86.8218 151.296 87.4643 151.75 88.1499H150.18C150.18 87.2299 150.18 86.2901 150.18 85.3501H147.92C147.92 86.2801 147.92 87.2199 147.92 88.1499H141.89V94.8101C141.911 96.1501 141.808 97.4893 141.58 98.8101L141.27 97.3201L139.73 97.8801V92.3401H141.29V90.1399H139.73V85.6399H137.51V90.1399H135.75V92.3401H137.51V98.6699C136.74 98.9299 136.02 99.1701 135.43 99.3401L136.17 101.72C137.74 101.1 139.6 100.35 141.38 99.6001C141.095 100.758 140.544 101.833 139.77 102.74C140.416 103.151 141.001 103.649 141.51 104.22C142.747 102.72 143.531 100.899 143.77 98.97C144.041 99.5747 144.21 100.22 144.27 100.88C144.838 100.91 145.408 100.883 145.97 100.8C146.194 100.772 146.41 100.697 146.603 100.58C146.796 100.463 146.962 100.306 147.09 100.12C147.49 99.5401 147.57 97.76 147.63 93.26C147.63 93.02 147.63 92.48 147.63 92.48H144.07V90.26H148C148.075 93.2201 148.386 96.1695 148.93 99.0801C147.936 100.469 146.662 101.634 145.19 102.5C145.792 102.989 146.347 103.531 146.85 104.12C147.897 103.412 148.845 102.568 149.67 101.61C150.25 103.01 151 103.86 151.99 103.86C153.57 103.86 154.19 103 154.49 99.8601C153.884 99.564 153.34 99.1529 152.89 98.6499ZM145.71 94.3899C145.71 97.3899 145.6 98.39 145.43 98.71C145.375 98.7899 145.3 98.8542 145.212 98.8962C145.124 98.9383 145.027 98.9568 144.93 98.95C144.566 98.9526 144.202 98.9358 143.84 98.8999C144.056 97.5407 144.16 96.1662 144.15 94.79V94.3899H145.71Z" fill="white"/>
<path d="M167.02 93.1899H174.11V90.71H166.2C166.4 88.83 166.42 86.9901 166.45 85.3301H163.81C163.81 86.9801 163.81 88.83 163.62 90.71H156.31V93.1899H163.22C162.833 95.1529 161.962 96.9881 160.686 98.5286C159.409 100.069 157.767 101.266 155.91 102.01C156.632 102.562 157.249 103.239 157.73 104.01C159.516 103.197 161.11 102.014 162.406 100.54C163.702 99.0666 164.671 97.3352 165.25 95.46C166.81 99.35 169.12 102.32 172.75 104.01C173.247 103.174 173.852 102.407 174.55 101.73C170.78 100.26 168.36 97.0999 167.02 93.1899Z" fill="white"/>
<path d="M179.05 90.6301H191.89V93.4099H194.27V88.51H191.59C192.16 87.81 192.74 87.02 193.29 86.23L190.69 85.47C190.207 86.5232 189.625 87.5278 188.95 88.47H185.89L186.89 88.0701C186.496 87.0369 185.965 86.0613 185.31 85.1699L183.19 85.97C183.699 86.7555 184.121 87.5937 184.45 88.47H181.29L182.03 88.1301C181.555 87.1612 180.935 86.2707 180.19 85.49L178.19 86.4099C178.71 87.0566 179.175 87.7458 179.58 88.47H176.85V93.3701H179.11L179.05 90.6301Z" fill="white"/>
<path d="M191.19 93.26L189.67 92.1001L189.17 92.22H180.17V94.26H186.98C186.475 94.6745 185.944 95.0553 185.39 95.3999H184.29V96.6799H176.59V98.8999H184.29V101.5C184.29 101.78 184.17 101.88 183.77 101.88C183.37 101.88 181.87 101.88 180.59 101.88C181.026 102.605 181.362 103.385 181.59 104.2C182.907 104.278 184.229 104.156 185.51 103.84C186.51 103.48 186.77 102.84 186.77 101.62V98.9399H194.51V96.72H186.89C188.482 95.7786 189.93 94.6134 191.19 93.26V93.26Z" fill="white"/>
<path d="M206.89 96.26C207.716 95.6646 208.459 94.9617 209.1 94.1699C210.335 94.9995 211.502 95.9257 212.59 96.9399L214.29 95.1201C213.032 94.0782 211.694 93.1353 210.29 92.3C210.627 91.6809 210.905 91.0314 211.12 90.3601L209.12 89.9399H214.12V87.6599H206.89V85.3601H204.37V87.6599H197.25V89.9399H201.01C200.304 92.2178 198.808 94.1684 196.79 95.4399C197.499 95.9259 198.167 96.4678 198.79 97.0601C199.969 96.1764 200.984 95.0935 201.79 93.8601C202.466 94.3404 203.102 94.8754 203.69 95.46L205.11 93.76C204.384 93.1434 203.615 92.5787 202.81 92.0701C203.086 91.5254 203.32 90.9604 203.51 90.3801L201.59 89.9399H208.74C208.395 91.0303 207.836 92.0412 207.096 92.9133C206.356 93.7855 205.45 94.5016 204.43 95.02C204.932 95.3676 205.409 95.7483 205.86 96.1599H204.39V97.4199H196.71V99.72H204.39V104.1H206.89V99.72H214.77V97.4199H206.89V96.26Z" fill="white"/>
<path d="M234.99 99.53V97.53H227.19V96.6301H233.19V94.8899H227.19V94.01H234.19V92.1301H230.25C230.54 91.6601 230.86 91.13 231.19 90.53H234.89V88.53H232.3C232.78 87.83 233.3 86.93 233.87 86.01L231.35 85.4099C231.018 86.4188 230.596 87.3961 230.09 88.3301L230.74 88.53H229.03V85.25H226.75V88.53H225.29V85.25H223.05V88.53H221.24L222.24 88.1899C221.835 87.1923 221.325 86.2405 220.72 85.3501L218.66 86.05C219.137 86.8434 219.551 87.6726 219.9 88.53H217.22V90.53H221.33H221.2C221.461 91.0387 221.681 91.5671 221.86 92.1101H218.04V93.99H224.84V94.8701H219.04V96.6101H224.84V97.51H217.18V99.51H222.89C220.915 100.647 218.761 101.439 216.52 101.85C217.114 102.451 217.631 103.123 218.06 103.85C220.501 103.218 222.793 102.107 224.8 100.58V104.09H227.18V100.49C229.136 102.11 231.433 103.266 233.9 103.87C234.342 103.081 234.886 102.355 235.52 101.71C233.29 101.369 231.142 100.624 229.18 99.51L234.99 99.53ZM223.68 90.53H228.47C228.271 91.0745 228.044 91.6087 227.79 92.1301H224.02L224.37 92.0701C224.192 91.5478 223.961 91.0452 223.68 90.5701V90.53Z" fill="white"/>
<path d="M252.75 101.26C252.75 101.58 252.65 101.68 252.33 101.68C252.01 101.68 250.93 101.68 249.89 101.68C250.225 102.464 250.473 103.282 250.63 104.12C251.796 104.214 252.969 104.057 254.07 103.66C254.81 103.24 255.07 102.6 255.07 101.3V85.7H252.75V101.26Z" fill="white"/>
<path d="M243.89 90.1699H247.51V87.99H243.89V85.45H241.61V87.99H240.33C240.5 87.39 240.66 86.7699 240.79 86.1499L238.59 85.71C238.281 87.5427 237.658 89.3084 236.75 90.9299C237.23 91.0999 238.02 91.4099 238.56 91.6699H237.05V93.8301H241.61V95.26H237.83V102.5H239.97V97.3999H241.61V104.08H243.89V97.3999H245.65V100.34C245.65 100.54 245.59 100.58 245.41 100.58C245.23 100.58 244.71 100.58 244.17 100.58C244.454 101.217 244.649 101.89 244.75 102.58C245.548 102.673 246.356 102.548 247.09 102.22C247.69 101.86 247.81 101.3 247.81 100.36V95.26H243.89V93.8201H248.29V91.6599H243.89V90.1699ZM238.89 91.6699C239.153 91.1856 239.383 90.6846 239.58 90.1699H241.58V91.6699H238.89Z" fill="white"/>
<path d="M251.39 86.99H249.15V98.29H251.39V86.99Z" fill="white"/>
<path d="M263.89 86.1499L261.57 85.4099C260.584 88.2131 259.017 90.776 256.97 92.9299C257.488 93.7407 257.93 94.5977 258.29 95.49C258.74 95.0231 259.161 94.5288 259.55 94.01V104.09H261.97V90.26C262.702 88.9353 263.344 87.562 263.89 86.1499V86.1499Z" fill="white"/>
<path d="M269.21 86.1301L266.89 85.51C266.043 88.3185 264.589 90.9064 262.63 93.0901C263.283 93.598 263.892 94.1599 264.45 94.77C265.476 93.5704 266.367 92.2628 267.11 90.8701H267.85V104.11H270.31V99.6499H275.77V97.4099H270.31V95.1699H275.51V92.99H270.31V90.8701H276.03V88.5901H268.24C268.6 87.7801 268.89 86.9601 269.21 86.1301Z" fill="white"/>
<path d="M292.7 100.89C293.6 100.426 294.466 99.8982 295.29 99.3101L293.87 98.3101H296.01V96.3101H292.23V94.95H295.11V92.95H292.23V91.6301H294.93V86.1699H279.45V92.1101C279.45 95.3101 279.29 99.8299 277.29 102.91C278.053 103.243 278.777 103.659 279.45 104.15C281.55 100.85 281.87 95.6299 281.87 92.1499V91.6699H284.81V92.99H282.27V94.99H284.81V96.3501H281.73V98.3501H283.81V101.42L281.75 101.65L282.09 103.85C284.17 103.53 286.97 103.13 289.57 102.69L289.49 101.05C290.901 102.604 292.76 103.681 294.81 104.13C295.192 103.403 295.669 102.73 296.23 102.13C294.99 101.927 293.795 101.507 292.7 100.89V100.89ZM281.89 88.26H292.53V89.6799H281.89V88.26ZM287.03 91.7H290.03V93.02H287.03V91.7ZM287.03 95.02H290.03V96.3801H287.03V95.02ZM286.03 101.18V98.3999H287.8C288.172 99.2295 288.642 100.012 289.2 100.73L286.03 101.18ZM290.03 98.3999H293.13C292.491 98.8926 291.823 99.3469 291.13 99.76C290.715 99.3349 290.352 98.8616 290.05 98.3501L290.03 98.3999Z" fill="white"/>
</svg>
