<svg width="308" height="53" viewBox="0 0 308 53" fill="none" xmlns="http://www.w3.org/2000/svg">
<path d="M2.93705 33.4224C2.97666 33.3516 3.02194 33.2894 3.0757 33.2498C3.11531 33.2186 3.12946 33.1875 3.12946 33.1564C3.12946 33.1111 3.11531 33.0857 3.03608 33.0489C2.91158 32.9951 2.73332 32.9329 2.56072 32.8848C2.53809 33.0489 2.50696 33.1649 2.42774 33.329C1.99199 34.3024 1.14313 35.3606 0 36.0453C0.101863 36.0991 0.195238 36.1925 0.271635 36.3085C0.325396 36.3792 0.342373 36.4104 0.381986 36.4104C0.404623 36.4104 0.435747 36.3877 0.497997 36.3396C1.59019 35.5558 2.30607 34.6928 2.93705 33.4224Z" fill="white"/>
<path d="M4.56389 32.9275C4.53276 32.8653 4.51861 32.8653 4.42524 32.9134L4.20737 33.0068C4.12248 33.0464 4.1055 33.052 4.13097 33.1171C4.68273 34.3395 5.60232 35.4741 6.79921 36.306C6.85297 36.3456 6.8841 36.3682 6.90956 36.3682C6.94069 36.3682 6.96333 36.3371 7.01143 36.2579C7.08217 36.1419 7.17554 36.0174 7.26891 35.9466C6.07202 35.2449 5.10716 34.1555 4.56389 32.9275Z" fill="white"/>
<path d="M4.68858 36.7076C4.64047 36.6595 4.63482 36.6595 4.55559 36.7161L4.35186 36.8406C4.25849 36.9029 4.23585 36.917 4.27547 36.9651C4.64896 37.415 4.9687 37.8451 5.25448 38.295C4.3745 38.411 3.3106 38.527 2.35139 38.6062C2.77016 37.681 3.15214 36.685 3.43227 35.9069C3.503 35.7031 3.55677 35.6126 3.61902 35.5249C3.65863 35.4768 3.67278 35.4626 3.67278 35.4145C3.67278 35.3749 3.63316 35.3381 3.57091 35.3127C3.42378 35.2589 3.25967 35.2108 3.07292 35.1655C3.04179 35.4145 2.97954 35.6324 2.86353 35.9889C2.65981 36.6256 2.27216 37.647 1.81378 38.6487C1.73738 38.6487 1.65815 38.6572 1.58176 38.6572C1.23938 38.6798 0.967748 38.6883 0.71875 38.6713C0.758363 38.8665 0.803636 39.0448 0.851738 39.1835C0.865885 39.2457 0.899839 39.2768 0.928134 39.2768C0.967748 39.2768 0.990384 39.2627 1.03 39.2372C1.09225 39.1976 1.17147 39.1665 1.34125 39.1523C2.71074 39.0278 4.25 38.8722 5.49499 38.677C5.63647 38.909 5.76663 39.1523 5.9081 39.4155C5.93923 39.4777 5.9562 39.4692 6.06373 39.4155L6.30424 39.274C6.4061 39.2202 6.41459 39.2033 6.38063 39.158C5.81473 38.1846 5.38747 37.5395 4.68858 36.7076Z" fill="white"/>
<path d="M15.1833 34.5995C15.2371 34.5995 15.2456 34.591 15.2456 34.5287V34.1552C15.2456 34.1015 15.2371 34.093 15.1833 34.093C15.1437 34.093 14.8891 34.11 14.1109 34.11H12.368V33.4648C12.368 33.1309 12.3821 32.998 12.4161 32.9272C12.4387 32.8735 12.4557 32.8423 12.4557 32.7886C12.4557 32.7574 12.4161 32.7263 12.3538 32.7178C12.1812 32.6952 12.0652 32.6867 11.8162 32.6782C11.8558 32.865 11.87 33.0744 11.87 33.4648V34.11H10.2826C9.51296 34.11 9.25547 34.093 9.2102 34.093C9.15644 34.093 9.14795 34.1015 9.14795 34.1552V34.5287C9.14795 34.591 9.15644 34.5995 9.2102 34.5995C9.25547 34.5995 9.51296 34.5853 10.2826 34.5853H14.1109C14.8862 34.5825 15.1437 34.5995 15.1833 34.5995Z" fill="white"/>
<path d="M10.5232 35.1736L10.2657 35.2584C10.1553 35.2981 10.1497 35.3065 10.1723 35.3603C10.5062 36.2233 10.741 37.0184 10.9193 38.0597C10.9335 38.1304 10.9504 38.1361 11.0664 38.1078L11.3381 38.0286C11.4315 38.0059 11.4315 37.9833 11.423 37.9267C11.2277 36.8684 10.9561 36.0139 10.6307 35.1962C10.6165 35.1509 10.5996 35.1509 10.5232 35.1736Z" fill="white"/>
<path d="M15.5709 38.6289C15.5228 38.6289 15.2908 38.6459 14.5608 38.6459H13.0357C13.4403 37.7037 13.743 36.8095 14.0232 35.8447C14.0713 35.6806 14.108 35.573 14.1703 35.5023C14.2014 35.4627 14.241 35.4174 14.241 35.3693C14.241 35.3297 14.2241 35.3071 14.1646 35.2844C13.9864 35.2137 13.8223 35.1684 13.6185 35.1118C13.5959 35.3693 13.5563 35.5702 13.4629 35.9211C13.245 36.7218 12.9479 37.6556 12.5292 38.6431H9.81283C9.08847 38.6431 8.84796 38.6261 8.80834 38.6261C8.75458 38.6261 8.74609 38.6346 8.74609 38.6883V39.076C8.74609 39.1297 8.75458 39.1382 8.80834 39.1382C8.84796 39.1382 9.08847 39.1213 9.81283 39.1213H14.5579C15.288 39.1213 15.5228 39.1382 15.5681 39.1382C15.6218 39.1382 15.6303 39.1297 15.6303 39.076V38.6883C15.6332 38.6374 15.6247 38.6289 15.5709 38.6289Z" fill="white"/>
<path d="M21.0008 35.2899H22.9447C23.6917 35.2899 23.9407 35.304 23.9803 35.304C24.034 35.304 24.0425 35.2956 24.0425 35.2333V34.8768C24.0425 34.823 24.034 34.8145 23.9803 34.8145C23.9407 34.8145 23.6917 34.8315 22.9447 34.8315H20.8508C20.8961 34.4269 20.9216 34.0081 20.9272 33.5695C20.9357 33.213 20.9499 33.0631 20.9895 32.9867C21.0121 32.9329 21.0347 32.9018 21.0347 32.8395C21.0347 32.7999 21.0036 32.7688 20.9272 32.7546C20.7716 32.732 20.5537 32.715 20.3755 32.7065C20.4151 32.9386 20.4236 33.1508 20.4151 33.5865C20.4066 34.0308 20.3924 34.4439 20.3528 34.8315H18.5165C17.7695 34.8315 17.5205 34.8145 17.4809 34.8145C17.4271 34.8145 17.4186 34.823 17.4186 34.8768V35.2333C17.4186 35.2956 17.4271 35.304 17.4809 35.304C17.5205 35.304 17.7695 35.2899 18.5165 35.2899H20.2991C20.2142 35.8501 20.0727 36.3481 19.8492 36.815C19.3964 37.7488 18.5731 38.5722 17.2573 39.1183C17.3592 39.189 17.4582 39.2739 17.5459 39.3814C17.5997 39.4578 17.6252 39.4917 17.6619 39.4917C17.6931 39.4917 17.7242 39.4776 17.7864 39.4521C18.9833 38.8523 19.7615 38.1138 20.2991 37.0103C20.4858 36.6198 20.6273 36.1784 20.7263 35.6945C21.2328 37.3668 22.359 38.7221 23.7058 39.4295C23.7596 39.4606 23.7992 39.4776 23.8218 39.4776C23.8614 39.4776 23.8841 39.4465 23.9322 39.3616C24.0086 39.2371 24.1104 39.1211 24.2123 39.0362C22.6334 38.4109 21.4988 36.9169 21.0008 35.2899Z" fill="white"/>
<path d="M32.6525 36.9563C32.6129 36.9563 32.3724 36.9704 31.6424 36.9704H29.574V36.8771C29.574 36.7526 29.574 36.6677 29.5825 36.6111C30.072 36.331 30.4681 36.0735 30.7794 35.8245C30.9576 35.6773 31.0284 35.6462 31.1048 35.6207C31.1529 35.6066 31.184 35.5726 31.184 35.5189C31.184 35.4651 31.1359 35.3859 31.0284 35.2784C30.9039 35.1539 30.8558 35.1143 30.8105 35.1143C30.7794 35.1143 30.7567 35.1227 30.7341 35.1284C30.7115 35.1369 30.6577 35.1426 30.5332 35.1426H28.3545C27.6244 35.1426 27.3811 35.1284 27.3443 35.1284C27.2906 35.1284 27.2821 35.1369 27.2821 35.1907V35.5104C27.2821 35.5642 27.2906 35.5726 27.3443 35.5726C27.3839 35.5726 27.6244 35.5585 28.3545 35.5585H30.4483C30.1286 35.8301 29.8117 36.0565 29.4382 36.2744C29.3222 36.2432 29.1892 36.2206 29.042 36.1951C29.0817 36.3904 29.0958 36.6224 29.0958 36.9648H26.9708C26.2408 36.9648 25.9975 36.9506 25.9607 36.9506C25.9069 36.9506 25.8984 36.9591 25.8984 37.0129V37.3552C25.8984 37.409 25.9069 37.4175 25.9607 37.4175C26.0003 37.4175 26.2408 37.4033 26.9708 37.4033H29.0958V38.7502C29.0958 38.9992 28.9798 39.053 28.7534 39.053C28.4337 39.053 28.2158 39.0388 27.9442 39.0049C28.0149 39.0982 28.0687 39.2454 28.1083 39.3642C28.1479 39.5198 28.1479 39.5113 28.295 39.5113C29.0194 39.5283 29.2118 39.4887 29.3759 39.3868C29.5316 39.2765 29.5853 39.1548 29.5853 38.8804C29.5853 38.6936 29.5768 38.3739 29.5768 38.2126V37.4033H31.6452C32.3752 37.4033 32.6186 37.4175 32.6553 37.4175C32.7091 37.4175 32.7176 37.409 32.7176 37.3552V37.0129C32.7148 36.9648 32.7091 36.9563 32.6525 36.9563Z" fill="white"/>
<path d="M27.2855 34.008C26.53 34.008 26.2584 33.991 26.2131 33.991C26.1594 33.991 26.1509 33.9995 26.1509 34.0448C26.1509 34.0929 26.165 34.2089 26.165 34.4721V34.7437C26.165 35.4284 26.1509 35.5303 26.1509 35.5756C26.1509 35.6293 26.1594 35.6378 26.2131 35.6378H26.5696C26.6234 35.6378 26.6319 35.6293 26.6319 35.5756V34.4155H31.991V35.5756C31.991 35.6293 31.9995 35.6378 32.0533 35.6378H32.4041C32.4664 35.6378 32.4749 35.6293 32.4749 35.5756C32.4749 35.536 32.4607 35.4369 32.4607 34.7437V34.424C32.4607 34.2061 32.4749 34.0816 32.4749 34.042C32.4749 33.9967 32.4664 33.9882 32.4041 33.9882C32.3645 33.9882 32.0929 34.0052 31.3317 34.0052H31.0063C31.2016 33.7166 31.3317 33.4845 31.4732 33.2186C31.5128 33.1478 31.5751 33.0714 31.6204 33.0403C31.66 33.0177 31.6741 32.9866 31.6741 32.9554C31.6741 32.9158 31.6515 32.8847 31.5892 32.8536C31.4647 32.7913 31.3006 32.7291 31.1308 32.6895C31.1082 32.8366 31.0686 32.9611 31.029 33.046C30.8903 33.3799 30.7404 33.677 30.5225 34.0024H27.2855V34.008Z" fill="white"/>
<path d="M27.5648 33.8833C27.5875 33.8833 27.6129 33.8692 27.6667 33.8437L27.8761 33.7419C27.9694 33.6938 27.9779 33.6938 27.9468 33.64C27.777 33.3372 27.5903 33.0486 27.3639 32.7685C27.3243 32.7232 27.3017 32.7232 27.2168 32.76L27.0216 32.8449C26.9282 32.8845 26.9197 32.9071 26.9508 32.9468C27.1517 33.1958 27.3781 33.5296 27.5196 33.8267C27.5337 33.8664 27.5422 33.8833 27.5648 33.8833Z" fill="white"/>
<path d="M29.3705 33.7508L29.5799 33.6744C29.6818 33.6263 29.6903 33.6263 29.6648 33.5725C29.5403 33.2613 29.3762 32.9415 29.1838 32.6558C29.1527 32.6076 29.13 32.6076 29.0508 32.6416L28.8414 32.7123C28.7565 32.7435 28.7311 32.7604 28.7707 32.8142C28.9489 33.0943 29.0961 33.3518 29.2234 33.7338C29.2461 33.796 29.2602 33.796 29.3705 33.7508Z" fill="white"/>
<path d="M36.2064 33.6572C35.9036 33.3375 35.5386 33.0517 35.1708 32.8169C35.1227 32.7858 35.1 32.7942 35.0463 32.8565L34.8737 33.0348C34.8029 33.1055 34.8029 33.1196 34.851 33.1508C35.1708 33.3517 35.5754 33.7025 35.8866 34.0449C35.9347 34.093 35.9489 34.0845 36.0111 34.0138L36.1837 33.8044C36.246 33.7365 36.246 33.7025 36.2064 33.6572Z" fill="white"/>
<path d="M41.24 36.0766C41.1919 36.0766 40.9203 36.0907 40.1365 36.0907H38.7981V34.676H39.7771C40.5383 34.676 40.7958 34.6901 40.8354 34.6901C40.8891 34.6901 40.8976 34.6816 40.8976 34.6279V34.3025C40.8976 34.2487 40.8891 34.2402 40.8354 34.2402C40.7958 34.2402 40.5411 34.2544 39.7771 34.2544H38.7981V33.6771C38.7981 33.2103 38.8207 33.0009 38.8462 32.9301C38.8689 32.8679 38.8858 32.8368 38.8858 32.7915C38.8858 32.7604 38.8462 32.7293 38.7925 32.7208C38.6199 32.6981 38.4897 32.6896 38.286 32.6812C38.3256 32.9528 38.3341 33.1707 38.3341 33.6913V34.2515H37.6663C36.9052 34.2515 36.6562 34.2374 36.6165 34.2374C36.5628 34.2374 36.5543 34.2459 36.5543 34.2996V34.625C36.5543 34.6788 36.5628 34.6873 36.6165 34.6873C36.6562 34.6873 36.9052 34.6731 37.6663 34.6731H38.3341V36.0879H37.2985C36.5119 36.0879 36.2402 36.0738 36.1949 36.0738C36.1412 36.0738 36.1327 36.0822 36.1327 36.136V36.4614C36.1327 36.5237 36.1412 36.5321 36.1949 36.5321C36.2431 36.5321 36.5147 36.518 37.2985 36.518H37.9747C37.7568 37.3357 37.4852 38.0346 37.1881 38.7052L36.908 38.7279C36.6816 38.742 36.4326 38.7505 36.1157 38.7505C36.1468 38.9146 36.1921 39.0844 36.2402 39.24C36.2544 39.2938 36.294 39.3419 36.3421 39.3419C36.3902 39.3419 36.4213 39.3107 36.4666 39.2881C36.5062 39.2655 36.5684 39.24 36.7863 39.2174C38.0936 39.0702 39.1433 38.9372 40.3742 38.7335C40.5213 38.9599 40.6628 39.2004 40.7958 39.4494C40.8184 39.5031 40.8354 39.5031 40.9344 39.4352L41.1523 39.2938C41.2287 39.24 41.2287 39.223 41.206 39.1777C40.7618 38.4307 40.3176 37.8083 39.7658 37.2084C39.7347 37.1773 39.7121 37.1773 39.6555 37.2169L39.4602 37.3329C39.3753 37.3867 39.3668 37.4093 39.4121 37.4574C39.6611 37.746 39.9016 38.0403 40.1195 38.3515C39.3187 38.476 38.5633 38.5779 37.7003 38.6543C37.9719 38.0488 38.2435 37.3329 38.4925 36.5152H40.1337C40.9203 36.5152 41.1919 36.5293 41.2372 36.5293C41.2824 36.5293 41.2909 36.5208 41.2909 36.4586V36.1332C41.2966 36.0851 41.2881 36.0766 41.24 36.0766Z" fill="white"/>
<path d="M35.6096 35.8815L35.7963 35.6636C35.8444 35.6098 35.8444 35.5929 35.8048 35.5532C35.4624 35.2278 35.0805 34.9619 34.707 34.7355C34.6589 34.7129 34.6306 34.7129 34.5825 34.7751L34.4184 34.9704C34.3646 35.0326 34.3561 35.0496 34.4099 35.0807C34.7607 35.2986 35.1569 35.6013 35.4766 35.9381C35.5219 35.9833 35.5304 35.9748 35.6096 35.8815Z" fill="white"/>
<path d="M35.8272 37.0728C35.7169 36.9964 35.6405 36.9399 35.5641 36.8408C35.3462 37.6105 35.0972 38.2329 34.8567 38.7083C34.7407 38.9403 34.6558 39.096 34.5059 39.2827C34.6445 39.3931 34.7464 39.461 34.8794 39.5402C34.9331 39.5713 34.9642 39.5798 34.9954 39.5798C35.0265 39.5798 35.0491 39.5402 35.0576 39.4864C35.0661 39.4157 35.1199 39.2997 35.1906 39.1356C35.4255 38.5923 35.6886 37.9443 35.898 37.3077C35.9433 37.1521 35.9433 37.1436 35.8272 37.0728Z" fill="white"/>
<path d="M46.6163 33.9768C46.6248 33.8438 46.6248 33.7108 46.6248 33.5722C46.6248 33.377 46.6559 33.2213 46.6955 33.1364C46.7182 33.0827 46.7436 33.0431 46.7436 32.9808C46.7436 32.9327 46.6955 32.9044 46.6333 32.8874C46.4607 32.8563 46.2372 32.8337 46.0504 32.8252C46.09 33.0968 46.0985 33.3232 46.1042 33.7505C46.1353 35.9829 45.0629 38.023 42.9775 39.0247C43.0794 39.0954 43.1813 39.1888 43.2661 39.3048C43.3199 39.384 43.3454 39.4208 43.3765 39.4208C43.4076 39.4208 43.4387 39.3982 43.4925 39.3671C45.0714 38.4729 46.1296 37.0412 46.4579 35.0888C46.7465 36.6535 47.5868 38.2466 49.3525 39.3756C49.4062 39.4152 49.4373 39.4293 49.4685 39.4293C49.4996 39.4293 49.5222 39.3982 49.5703 39.319C49.6411 39.1945 49.7344 39.0869 49.842 38.9992C47.7991 37.8504 46.9276 36.0678 46.6163 33.9768Z" fill="white"/>
<path d="M60.5886 37.2985C60.5886 37.2362 60.5801 37.2277 60.5264 37.2277C60.4783 37.2277 60.2066 37.2419 59.4229 37.2419H57.7817C57.8977 36.9844 57.9996 36.7127 58.1015 36.3873H58.8315C59.5615 36.3873 59.819 36.4015 59.8586 36.4015C59.9124 36.4015 59.9209 36.393 59.9209 36.3392C59.9209 36.2996 59.9039 36.1666 59.9039 35.7648V35.1876C59.9039 34.7915 59.9209 34.6585 59.9209 34.6189C59.9209 34.5651 59.9124 34.5566 59.8586 34.5566C59.819 34.5566 59.5643 34.5708 58.8315 34.5708H57.097C56.3641 34.5708 56.118 34.5566 56.0699 34.5566C56.0161 34.5566 56.0076 34.5651 56.0076 34.6189C56.0076 34.6585 56.0218 34.7915 56.0218 35.1876V35.7648C56.0218 36.1695 56.0076 36.3025 56.0076 36.3392C56.0076 36.393 56.0161 36.4015 56.0699 36.4015C56.1151 36.4015 56.3641 36.3873 57.097 36.3873H57.6091C57.5299 36.6505 57.4139 36.9561 57.2837 37.2419H56.5283C55.736 37.2419 55.4559 37.2277 55.4163 37.2277C55.3625 37.2277 55.354 37.2362 55.354 37.2985C55.354 37.3381 55.3682 37.4993 55.3682 37.9662V38.4246C55.3682 39.3725 55.354 39.5225 55.354 39.5677C55.354 39.6158 55.3625 39.6215 55.4163 39.6215H55.7813C55.8294 39.6215 55.835 39.613 55.835 39.5677V39.2423H60.1076V39.5366C60.1076 39.5847 60.1161 39.5904 60.1699 39.5904H60.5264C60.5801 39.5904 60.5886 39.5819 60.5886 39.5366C60.5886 39.4885 60.5717 39.3414 60.5717 38.402V37.8813C60.5717 37.4993 60.5886 37.3381 60.5886 37.2985ZM56.4717 34.9556H59.4512V36.0138H56.4717V34.9556ZM60.1048 38.8377H55.8322V37.6408H60.1048V38.8377Z" fill="white"/>
<path d="M61.1094 33.5243C61.1094 33.4705 61.1009 33.462 61.0471 33.462C60.999 33.462 60.7359 33.4762 59.9747 33.4762H58.1384V33.3658C58.1384 33.015 58.1469 32.8989 58.178 32.8225C58.1921 32.7688 58.2176 32.7377 58.2176 32.6839C58.2176 32.6528 58.1865 32.6216 58.1242 32.6132C57.9771 32.5962 57.8045 32.5905 57.6177 32.582C57.6659 32.7688 57.6715 32.9725 57.6715 33.3743V33.4762H55.9681C55.207 33.4762 54.941 33.462 54.8957 33.462C54.842 33.462 54.8335 33.4705 54.8335 33.5243C54.8335 33.5639 54.8476 33.6799 54.8476 33.943V34.2062C54.8476 34.8994 54.8335 34.9928 54.8335 35.0296C54.8335 35.0833 54.842 35.0918 54.8957 35.0918H55.2523C55.306 35.0918 55.3145 35.0833 55.3145 35.0296V33.8864H60.6284V35.0296C60.6284 35.0833 60.6369 35.0918 60.6906 35.0918H61.0471C61.1009 35.0918 61.1094 35.0833 61.1094 35.0296C61.1094 34.99 61.0952 34.8909 61.0952 34.2062V33.8949C61.0924 33.6799 61.1094 33.5639 61.1094 33.5243Z" fill="white"/>
<path d="M69.301 33.7649C69.3236 33.7649 69.3463 33.7508 69.3944 33.7197L69.5415 33.6178C69.6349 33.5555 69.6434 33.5386 69.6122 33.4933C69.434 33.2358 69.2472 33.0123 69.0294 32.817C68.9813 32.7689 68.9813 32.7633 68.8964 32.817L68.7407 32.9104C68.6474 32.9642 68.6389 32.9811 68.687 33.0208C68.8907 33.216 69.0831 33.4565 69.2472 33.714C69.2699 33.7423 69.2783 33.7649 69.301 33.7649Z" fill="white"/>
<path d="M65.0821 37.3388C65.0821 37.2284 65.0905 37.1294 65.1132 37.0445C64.8812 37.1775 64.6378 37.2935 64.3973 37.3954V35.1403H64.4511C64.9406 35.1403 65.0821 35.1544 65.1273 35.1544C65.1811 35.1544 65.1896 35.1459 65.1896 35.0921V34.7668C65.1896 34.713 65.1811 34.7045 65.1273 34.7045C65.0792 34.7045 64.9406 34.7215 64.4511 34.7215H64.3973V33.7877C64.3973 33.2671 64.4199 33.0719 64.4454 32.9785C64.468 32.9247 64.485 32.8851 64.485 32.8455C64.485 32.8059 64.4454 32.7833 64.3917 32.7748C64.2445 32.7521 64.0889 32.7352 63.8852 32.7295C63.9389 33.0323 63.9474 33.2501 63.9474 33.8019V34.7215H63.8229C63.3249 34.7215 63.1863 34.7045 63.1467 34.7045C63.0929 34.7045 63.0844 34.713 63.0844 34.7668V35.0921C63.0844 35.1459 63.0929 35.1544 63.1467 35.1544C63.1863 35.1544 63.3249 35.1403 63.8229 35.1403H63.9474V37.5765L63.6362 37.6783C63.3957 37.7547 63.2315 37.7859 63.0137 37.817C63.0533 37.9726 63.0986 38.1197 63.1467 38.2442C63.1693 38.298 63.2004 38.3291 63.2315 38.3291C63.2712 38.3291 63.3023 38.298 63.3334 38.2754C63.3645 38.2527 63.4353 38.2131 63.5966 38.1509C64.0549 37.9868 64.5388 37.7859 64.9434 37.568C65.0821 37.4859 65.0821 37.5001 65.0821 37.3388Z" fill="white"/>
<path d="M70.0251 37.9979C69.9317 37.9498 69.8214 37.8875 69.7535 37.8026C69.7054 38.4704 69.646 38.8835 69.496 38.8835C69.3093 38.8835 68.9527 38.493 68.6726 37.6074C68.9442 37.149 69.1791 36.6114 69.38 35.9436C69.4564 35.6777 69.4903 35.5786 69.5441 35.5079C69.5837 35.4541 69.6064 35.423 69.6064 35.3834C69.6064 35.3353 69.5752 35.2985 69.513 35.273C69.3885 35.2193 69.264 35.1797 69.0942 35.1316C69.0716 35.3891 69.0235 35.6296 68.9556 35.887C68.8311 36.3228 68.6896 36.7104 68.5113 37.0528C68.3104 36.2747 68.2001 35.4202 68.1548 34.3987H68.7999C69.5611 34.3987 69.8186 34.4129 69.8667 34.4129C69.9204 34.4129 69.9289 34.4044 69.9289 34.3506V34.0252C69.9289 33.9715 69.9204 33.9715 69.8667 33.9715C69.8186 33.9715 69.5639 33.9799 68.7999 33.9799H68.1378V33.4508C68.1378 33.0773 68.1605 32.9443 68.1859 32.8906C68.2086 32.8368 68.2255 32.7887 68.2255 32.7434C68.2255 32.7123 68.2029 32.6812 68.1237 32.667C67.9596 32.6359 67.8124 32.6189 67.6398 32.6133C67.6794 32.9019 67.6879 33.2584 67.6879 33.5697C67.6879 33.7083 67.6879 33.8498 67.6964 33.9828H66.5929C65.8318 33.9828 65.5573 33.9743 65.5205 33.9743C65.4668 33.9743 65.4583 33.9743 65.4583 34.028C65.4583 34.0761 65.4724 34.3082 65.4724 34.908C65.4724 35.7258 65.4639 36.4416 65.3564 37.132C65.2178 37.995 64.8188 38.7279 64.3208 39.2485C64.4227 39.2881 64.5302 39.3504 64.6236 39.4268C64.6773 39.4749 64.7 39.5032 64.7339 39.5032C64.7565 39.5032 64.782 39.4721 64.8188 39.4098C65.2545 38.8496 65.6507 38.0714 65.7837 37.2933C65.8601 36.818 65.8997 36.3681 65.9166 35.8842H66.89C66.89 36.5463 66.8193 37.1999 66.7655 37.4235C66.7033 37.6244 66.624 37.681 66.4627 37.681C66.3071 37.681 66.1515 37.6583 65.9195 37.6187C65.9676 37.7262 65.9902 37.8281 66.0044 37.9441C66.0185 38.0912 66.027 38.0912 66.1289 38.1082C66.2675 38.1224 66.409 38.1224 66.5788 38.1224C66.8278 38.1224 67.0683 37.9894 67.1305 37.7319C67.2324 37.398 67.3031 36.8293 67.3258 35.9974C67.3342 35.8559 67.3342 35.7088 67.3484 35.522C67.3484 35.4683 67.3342 35.4513 67.2777 35.4513C67.2295 35.4513 67.1362 35.4654 66.7655 35.4654H65.9251V34.3931H67.7134C67.7672 35.5277 67.9143 36.634 68.2114 37.5593C67.7219 38.2752 67.0513 38.7732 66.1968 39.1693C66.2901 39.2174 66.3835 39.2938 66.4543 39.3787C66.508 39.4409 66.5307 39.4721 66.5703 39.4721C66.5929 39.4721 66.6325 39.4494 66.6948 39.4183C67.3937 39.0448 67.9398 38.6175 68.3755 38.0403C68.7405 39.0052 69.1763 39.4183 69.5102 39.4183C69.8525 39.4183 70.0478 39.1523 70.1411 38.2044C70.1496 38.0686 70.1496 38.0601 70.0251 37.9979Z" fill="white"/>
<path d="M75.3363 35.2899H77.2802C78.0272 35.2899 78.2762 35.304 78.3158 35.304C78.3696 35.304 78.3781 35.2956 78.3781 35.2333V34.8768C78.3781 34.823 78.3696 34.8145 78.3158 34.8145C78.2762 34.8145 78.0272 34.8315 77.2802 34.8315H75.1864C75.2345 34.4269 75.2571 34.0081 75.2656 33.5695C75.2741 33.213 75.2882 33.0631 75.3279 32.9867C75.3505 32.9329 75.3759 32.9018 75.3759 32.8395C75.3759 32.7999 75.3448 32.7688 75.2656 32.7546C75.11 32.732 74.8921 32.715 74.7138 32.7065C74.7535 32.9386 74.7619 33.1508 74.7535 33.5865C74.745 34.0308 74.7308 34.4439 74.6912 34.8315H72.8548C72.1078 34.8315 71.8589 34.8145 71.8192 34.8145C71.7655 34.8145 71.757 34.823 71.757 34.8768V35.2333C71.757 35.2956 71.7655 35.304 71.8192 35.304C71.8589 35.304 72.1078 35.2899 72.8548 35.2899H74.6374C74.5526 35.8501 74.4111 36.3481 74.1876 36.815C73.7348 37.7488 72.9114 38.5722 71.5957 39.1183C71.6976 39.189 71.7994 39.2739 71.8843 39.3814C71.9381 39.4578 71.9607 39.4917 72.0003 39.4917C72.0314 39.4917 72.0626 39.4776 72.1248 39.4521C73.3217 38.8523 74.0998 38.1138 74.6374 37.0103C74.8242 36.6198 74.9657 36.1784 75.0647 35.6945C75.5712 37.3668 76.6973 38.7221 78.0442 39.4295C78.098 39.4606 78.1376 39.4776 78.1602 39.4776C78.1998 39.4776 78.2225 39.4465 78.2706 39.3616C78.347 39.2371 78.4488 39.1211 78.5507 39.0362C76.9718 38.4109 75.8343 36.9169 75.3363 35.2899Z" fill="white"/>
<path d="M81.9008 33.8833C81.9234 33.8833 81.9489 33.8692 82.0026 33.8437L82.212 33.7419C82.3054 33.6938 82.3139 33.6938 82.2827 33.64C82.113 33.3372 81.9262 33.0486 81.6999 32.7685C81.6602 32.7232 81.6376 32.7232 81.5527 32.76L81.3575 32.8449C81.2641 32.8845 81.2556 32.9071 81.2868 32.9468C81.4876 33.1958 81.714 33.5296 81.8555 33.8267C81.8696 33.8664 81.8781 33.8833 81.9008 33.8833Z" fill="white"/>
<path d="M80.4863 35.5785C80.4863 35.6323 80.4948 35.6407 80.5486 35.6407H80.9051C80.9589 35.6407 80.9674 35.6323 80.9674 35.5785V34.4184H86.3293V35.5785C86.3293 35.6323 86.3378 35.6407 86.3916 35.6407H86.7424C86.8047 35.6407 86.8132 35.6323 86.8132 35.5785C86.8132 35.5389 86.7962 35.4399 86.7962 34.7466V34.4269C86.7962 34.209 86.8132 34.0845 86.8132 34.0449C86.8132 33.9996 86.8047 33.9911 86.7424 33.9911C86.7028 33.9911 86.4312 34.0081 85.67 34.0081H85.3418C85.537 33.7195 85.67 33.4875 85.8087 33.2215C85.8483 33.1508 85.9105 33.0744 85.9558 33.0432C85.9954 33.0206 86.0096 32.9895 86.0096 32.9584C86.0096 32.9187 85.9869 32.8876 85.9247 32.8565C85.8002 32.7942 85.6361 32.732 85.4663 32.6924C85.4437 32.8395 85.4041 32.964 85.3644 33.0489C85.223 33.3828 85.0758 33.6799 84.858 34.0053H81.621C80.8655 34.0053 80.5939 33.9883 80.5486 33.9883C80.4948 33.9883 80.4863 33.9968 80.4863 34.0421C80.4863 34.0902 80.5033 34.2062 80.5033 34.4693V34.741C80.5005 35.4314 80.4863 35.5332 80.4863 35.5785Z" fill="white"/>
<path d="M83.7064 33.7508L83.9158 33.6744C84.0176 33.6263 84.0261 33.6263 84.0007 33.5725C83.8762 33.2613 83.7121 32.9415 83.5168 32.6558C83.4857 32.6076 83.4631 32.6076 83.3838 32.6416L83.1744 32.7123C83.0895 32.7435 83.0641 32.7604 83.1037 32.8142C83.282 33.0943 83.4291 33.3518 83.5536 33.7338C83.5819 33.796 83.5989 33.796 83.7064 33.7508Z" fill="white"/>
<path d="M86.9908 36.9563C86.9512 36.9563 86.7107 36.9704 85.9807 36.9704H83.9123V36.8771C83.9123 36.7526 83.9123 36.6677 83.9208 36.6111C84.4103 36.331 84.8064 36.0735 85.1205 35.8245C85.2987 35.6773 85.3695 35.6462 85.4459 35.6207C85.494 35.6066 85.5223 35.5726 85.5223 35.5189C85.5223 35.4651 85.4742 35.3859 85.3666 35.2784C85.2421 35.1539 85.194 35.1143 85.1488 35.1143C85.1176 35.1143 85.095 35.1227 85.0695 35.1284C85.0469 35.1369 84.9932 35.1426 84.8687 35.1426H82.6899C81.9599 35.1426 81.7166 35.1284 81.6798 35.1284C81.626 35.1284 81.6175 35.1369 81.6175 35.1907V35.5104C81.6175 35.5642 81.626 35.5726 81.6798 35.5726C81.7194 35.5726 81.9599 35.5585 82.6899 35.5585H84.7838C84.464 35.8301 84.1471 36.0565 83.7736 36.2744C83.6576 36.2432 83.5246 36.2206 83.3775 36.1951C83.4171 36.3904 83.4312 36.6224 83.4312 36.9648H81.3063C80.5763 36.9648 80.3329 36.9506 80.2961 36.9506C80.2424 36.9506 80.2339 36.9591 80.2339 37.0129V37.3552C80.2339 37.409 80.2424 37.4175 80.2961 37.4175C80.3358 37.4175 80.5763 37.4033 81.3063 37.4033H83.4312V38.7502C83.4312 38.9992 83.3152 39.053 83.0889 39.053C82.7691 39.053 82.5513 39.0388 82.2796 39.0049C82.3504 39.0982 82.4041 39.2454 82.4437 39.3642C82.4834 39.5198 82.4834 39.5113 82.6305 39.5113C83.3549 39.5283 83.5501 39.4887 83.7114 39.3868C83.867 39.2765 83.9208 39.1548 83.9208 38.8804C83.9208 38.6936 83.9123 38.3739 83.9123 38.2126V37.4033H85.9807C86.7107 37.4033 86.954 37.4175 86.9908 37.4175C87.0446 37.4175 87.053 37.409 87.053 37.3552V37.0129C87.053 36.9648 87.0446 36.9563 86.9908 36.9563Z" fill="white"/>
<path d="M9.41638 25.0441C6.23882 25.0441 5.58803 23.8954 5.58803 20.6018V1.61H5.66443L13.5164 26.3486H14.8576L23.0151 1.45721H23.0915V22.5202C23.0915 24.3594 22.4407 25.047 19.6451 25.047V26.3486H30.751V25.047C27.6499 25.047 26.9991 24.3566 26.9991 22.5202V3.83118C26.9991 1.99199 27.6498 1.30441 30.4086 1.30441V0.00282959H21.9455L15.5508 19.6086H15.4744L9.22397 0H0.226074V1.30158C3.32724 1.30158 3.97803 1.99199 3.97803 3.82835V20.6018C3.97803 23.8954 3.32724 25.0441 0.226074 25.0441V26.3457H9.41638V25.0441Z" fill="white"/>
<path d="M53.5262 4.94035C54.9438 2.26079 55.4418 1.30158 58.1978 1.30158V0H49.4291V1.30158C51.8427 1.30158 52.683 1.75997 52.683 2.56638C52.683 4.51875 48.1247 11.6435 47.3975 13.2507C46.7467 11.5275 42.2675 3.90758 42.2675 2.60599C42.2675 1.6864 43.1871 1.30441 45.4847 1.30441V0.00282959H34.6108V1.30441C36.6028 1.30441 37.33 1.61 38.3628 3.63877L44.2227 15.1663V22.5202C44.2227 24.3594 43.572 25.047 40.2388 25.047V26.3486H52.2643V25.047C48.7783 25.047 48.1275 24.3566 48.1275 22.5202V15.1663L53.5262 4.94035Z" fill="white"/>
<path d="M79.4843 0V1.30158C83.1995 1.30158 83.5814 2.90875 83.5814 4.97714V17.9222C83.5814 22.2118 81.4763 25.5054 75.8851 25.5054C71.672 25.5054 69.6432 23.2842 69.6432 19.187V3.83118C69.6432 1.99199 70.294 1.30441 73.3187 1.30441V0.00282959H62.0601V1.30441C65.0848 1.30441 65.7356 1.99482 65.7356 3.83118V19.071C65.7356 24.433 69.5272 26.8069 75.4239 26.8069C80.9387 26.8069 84.9594 23.7426 84.9594 18.2278V4.97997C84.9594 2.91158 85.3414 1.30441 88.7114 1.30441V0.00282959H79.4843V0Z" fill="white"/>
<path d="M225.609 7.48961H221.266V9.97959H220.228V7.48961H215.995V6.52474H220.228V5.8117H220.921C220.726 5.61646 220.434 5.37878 220.25 5.25994C221.365 4.6431 222.211 3.63579 222.599 2.3908L223.617 2.58604C223.487 2.98783 223.326 3.36699 223.131 3.71219C223.909 4.23282 224.862 4.92606 225.349 5.3901L224.644 6.13709C224.212 5.70418 223.366 5.04207 222.61 4.50163C222.22 5.02226 221.756 5.45518 221.258 5.8117H221.269V6.52757H225.612V7.48961H225.609ZM219.84 5.36746C219.568 5.09583 219.082 4.69686 218.626 4.36015C218.139 5.10715 217.542 5.74662 216.894 6.21066C216.733 6.03806 216.309 5.69003 216.082 5.54006C217.186 4.85815 218.032 3.70936 218.442 2.36816L219.461 2.59453C219.342 2.93973 219.212 3.27644 219.051 3.60184C219.549 3.93855 220.134 4.36015 220.448 4.65159L219.84 5.36746ZM225.295 2.33704H216.275V1.37217H220.228V0.0507812H221.266V1.37217H225.295V2.33704Z" fill="white"/>
<path d="M233.894 7.47838C234.847 8.14898 236.242 8.70073 237.564 8.94973C237.337 9.16761 237.043 9.57789 236.893 9.84952C235.484 9.47037 234.035 8.74601 233.017 7.81509V9.991H232.032V7.89149C231.002 8.75732 229.542 9.46188 228.187 9.84103C228.034 9.58072 227.754 9.20156 227.527 8.98652C228.815 8.71488 230.224 8.15181 231.177 7.48121H227.83V6.63518H232.032V5.9759H228.837V5.21759H232.032V4.56679H228.308V3.76604H230.529C230.433 3.46328 230.247 3.0728 230.074 2.78136L230.334 2.73892H227.875V1.89572H229.477C229.316 1.47412 228.99 0.877091 228.687 0.432855L229.565 0.141414C229.901 0.608286 230.28 1.26757 230.43 1.68917L229.879 1.89572H231.07V0.0395508H232.012V1.89006H233.085V0.0395508H234.038V1.89006H235.207L234.796 1.7599C235.057 1.32699 235.391 0.64507 235.555 0.158391L236.593 0.418707C236.302 0.950659 235.976 1.4911 235.693 1.89006H237.252V2.73326H235.161C234.955 3.1011 234.74 3.45762 234.556 3.76321H236.851V4.56397H233.017V5.21476H236.341V5.97307H233.017V6.63235H237.284V7.47838H233.894V7.47838ZM231.11 2.73609C231.305 3.05017 231.5 3.44064 231.576 3.70096L231.262 3.76604H233.546C233.707 3.4746 233.882 3.08412 234.021 2.73609H231.11Z" fill="white"/>
<path d="M239.437 0.602539H243.271V1.51082H241.647C241.486 2.33421 241.279 3.13497 241.019 3.89328H243.107V8.6582H240.985V9.49291H240.142V5.83433C239.98 6.10597 239.816 6.35497 239.632 6.58133C239.59 6.32101 239.383 5.71549 239.23 5.44386C239.946 4.47899 240.41 3.05008 240.693 1.51365H239.437V0.602539ZM242.241 4.79307H240.985V7.76973H242.241V4.79307ZM249.258 5.40991H248.09V9.99091H247.125V5.40991H245.588C245.535 7.03405 245.252 8.8308 244.083 10.0447C243.911 9.88339 243.543 9.58912 243.313 9.45896C244.343 8.38657 244.592 6.79637 244.646 5.40991H243.531V4.45635H244.657V1.55609H243.823V0.613857H249.043V1.55609H248.09V4.45918H249.258V5.40991ZM247.125 4.45918V1.55609H245.597V4.45918H247.125Z" fill="white"/>
<path d="M259.75 8.92993C260.022 8.92993 260.064 8.74601 260.107 7.35954C260.325 7.54346 260.777 7.71606 261.06 7.79246C260.964 9.48168 260.692 9.9146 259.869 9.9146H258.819C257.888 9.9146 257.617 9.62316 257.617 8.5819V6.63235H255.797C255.571 7.89998 254.694 9.22986 251.791 10.0221C251.638 9.78444 251.347 9.4166 251.109 9.19873C253.61 8.53945 254.465 7.55195 254.736 6.63235H251.879V5.69012H254.855V4.44513H255.862V5.69012H258.667V8.57058C258.667 8.88465 258.72 8.9271 258.981 8.9271H259.75V8.92993ZM255.268 1.9127C255.042 3.63305 254.391 4.64036 251.825 5.17231C251.737 4.93463 251.499 4.54416 251.293 4.36024C253.522 3.96976 254.032 3.22277 254.216 1.9127H252.495V3.05017H251.488V1.01574H255.537V0.0395508H256.567V1.01291H260.692V2.95113H259.631V1.9127H257.724V3.61324C257.724 3.8962 257.778 3.92732 258.135 3.92732H259.272C259.552 3.92732 259.609 3.83112 259.64 3.14637C259.846 3.29917 260.257 3.44913 260.528 3.49157C260.421 4.54133 260.149 4.81296 259.391 4.81296H258.004C256.966 4.81296 256.725 4.54133 256.725 3.62173V1.90987H255.268V1.9127Z" fill="white"/>
<path d="M269.04 5.02242C269.04 5.71566 268.477 6.27873 267.784 6.27873C267.09 6.27873 266.527 5.71566 266.527 5.02242C266.527 4.32919 267.09 3.76611 267.784 3.76611C268.477 3.76611 269.04 4.32919 269.04 5.02242Z" fill="white"/>
<path d="M278.126 3.45184H280.616V4.37143H278.126V5.3363H280.29V8.18281C280.29 8.59309 280.225 8.8534 279.945 9.0062C279.662 9.15899 279.252 9.16748 278.689 9.15899C278.666 8.90999 278.547 8.54215 278.417 8.30447C278.808 8.31579 279.133 8.31579 279.241 8.30447C279.348 8.30447 279.382 8.27335 279.382 8.163V6.23609H278.126V9.9937H277.172V6.23326H275.992V9.12504H275.092V5.3363H277.172V4.37143H274.628V3.45184H275.375C275.169 3.333 274.77 3.19152 274.532 3.10663C275.008 2.39076 275.367 1.3212 275.571 0.291254L276.513 0.486491C276.425 0.843011 276.329 1.21085 276.23 1.55888H277.172V0.118652H278.126V1.55888H280.194V2.46716H278.126V3.45184V3.45184ZM277.172 3.45184V2.46716H275.905C275.763 2.835 275.602 3.18303 275.429 3.45184H277.172ZM282.209 6.99157H281.278V1.00429H282.209V6.99157ZM284.158 0.203538V8.70344C284.158 9.30896 284.028 9.59191 283.672 9.76451C283.326 9.93711 282.718 9.95975 281.906 9.95975C281.864 9.68811 281.722 9.22407 281.581 8.9298C282.186 8.95244 282.772 8.95244 282.956 8.94112C283.128 8.94112 283.182 8.88736 283.182 8.71476V0.203538H284.158Z" fill="white"/>
<path d="M289.797 0.398462C289.506 1.15678 289.138 1.9349 288.725 2.66208V9.97075H287.706V4.25228C287.423 4.64275 287.12 4.99927 286.817 5.31335C286.721 5.06435 286.427 4.50128 286.254 4.27492C287.284 3.25629 288.246 1.67741 288.832 0.0957031L289.797 0.398462ZM293.068 2.78941V4.16456H296.013V5.08416H293.068V6.52439H296.166V7.46662H293.068V9.97924H292.041V2.78941H291.435C290.98 3.63261 290.482 4.39093 289.964 4.96532C289.803 4.79272 289.412 4.43337 289.183 4.2834C290.136 3.28741 291.002 1.72834 291.523 0.169271L292.488 0.429587C292.315 0.896459 292.131 1.37182 291.925 1.82737H296.277V2.79224H293.068V2.78941Z" fill="white"/>
<path d="M307.394 7.30583C306.919 7.67366 306.322 8.0217 305.801 8.30182C306.407 8.70361 307.145 9.00637 308 9.17897C307.782 9.36289 307.533 9.75337 307.406 10.0024C305.49 9.527 304.211 8.4433 303.464 6.80783H302.315V8.62722C302.986 8.53101 303.702 8.40934 304.415 8.30182L304.449 9.17897C303.009 9.41665 301.481 9.66565 300.355 9.83825L300.202 8.91866C300.547 8.87621 300.949 8.82245 301.382 8.75737V6.80783H300.125V5.96463H301.945V5.0224H300.439V4.16788H301.945V3.30205H300.137V3.70384C300.137 5.55435 299.984 8.25089 298.858 10.0052C298.662 9.84391 298.218 9.5836 297.969 9.48456C299.042 7.81797 299.127 5.42419 299.127 3.70101V0.537598H307.27V3.29922H305.733V4.16505H307.434V5.01957H305.733V5.9618H307.878V6.805H306.664L307.394 7.30583ZM300.139 2.43338H306.268V1.40343H300.139V2.43338ZM302.867 4.16505H304.794V3.29922H302.867V4.16505ZM302.867 5.96463H304.794V5.0224H302.867V5.96463ZM304.415 6.80783C304.621 7.17567 304.87 7.50106 305.173 7.79251C305.671 7.50106 306.234 7.12191 306.613 6.80783H304.415Z" fill="white"/>
<path d="M103.136 19.8121H100.938V18.9123H103.136V16.5723H104.09V18.9123H106.288V19.8121H104.09V22.1521H103.136V19.8121Z" fill="white"/>
<path d="M115.351 18.3413C116.087 20.5936 117.45 22.4243 119.499 23.2788C119.25 23.4967 118.913 23.9183 118.752 24.221C116.726 23.2788 115.416 21.5245 114.573 19.2297C114.021 21.1906 112.853 23.0637 110.394 24.221C110.232 23.9494 109.907 23.5929 109.624 23.3778C112.202 22.2517 113.251 20.3021 113.684 18.3413H109.839V17.3H113.868C113.998 16.2163 113.987 15.1778 113.998 14.312H115.093C115.082 15.1892 115.071 16.2276 114.941 17.3H119.304V18.3384H115.351V18.3413Z" fill="white"/>
<path d="M131.827 21.2978H127.56V23.1058C127.56 23.6576 127.419 23.9405 126.974 24.0905C126.53 24.232 125.891 24.2433 124.949 24.2433C124.872 23.9603 124.677 23.5501 124.527 23.2699C125.285 23.3011 126.044 23.3011 126.259 23.2926C126.476 23.2813 126.53 23.2388 126.53 23.0747V21.2978H122.309V20.3668H126.53V19.6199H127.04C127.461 19.3935 127.894 19.0992 128.262 18.8078H124.148V17.9306H129.227L129.445 17.8769L130.095 18.3635C129.445 19.0568 128.494 19.75 127.563 20.2254V20.3668H131.83V21.2978H131.827ZM123.435 18.5361H122.493V16.0546H124.052C123.856 15.6642 123.52 15.1775 123.208 14.8097L124.074 14.4192C124.465 14.8521 124.898 15.4576 125.082 15.8707L124.691 16.0546H126.694C126.542 15.6217 126.227 15.0247 125.936 14.572L126.813 14.2466C127.181 14.7333 127.549 15.4152 127.69 15.8481L127.158 16.0546H128.989C129.368 15.5567 129.79 14.8747 130.039 14.3654L131.1 14.7021C130.786 15.169 130.429 15.6444 130.093 16.0546H131.663V18.5333H130.667V16.9403H123.435V18.5361V18.5361Z" fill="white"/>
<path d="M137.984 15.1041C137.682 16.0124 137.303 17.1385 136.955 17.9846C137.69 18.8391 137.854 19.5861 137.854 20.2369C137.854 20.8537 137.724 21.3093 137.41 21.5243C137.249 21.6318 137.042 21.7082 136.824 21.7422C136.618 21.7648 136.358 21.7648 136.109 21.7535C136.097 21.5045 136.021 21.1253 135.871 20.8877C136.097 20.9103 136.281 20.9103 136.423 20.899C136.553 20.899 136.66 20.8679 136.759 20.8028C136.912 20.6953 136.955 20.4349 136.955 20.1209C136.955 19.5804 136.782 18.8759 136.077 18.0949C136.349 17.3706 136.629 16.4057 136.836 15.67H135.676V24.2463H134.787V14.7561H137.17L137.322 14.7249L137.984 15.1041ZM143.182 23.2135C143.378 23.2135 143.42 23.0409 143.443 21.9148C143.638 22.0761 144.037 22.2289 144.297 22.2939C144.209 23.7342 143.96 24.1133 143.29 24.1133H142.447C141.623 24.1133 141.428 23.8219 141.428 22.8995V20.2567H140.39C140.237 22.26 139.795 23.5389 137.758 24.2406C137.67 24.003 137.413 23.6238 137.206 23.4597C138.949 22.8966 139.317 21.8893 139.428 20.2538H138.106V19.3371H144.147V20.2567H142.382V22.8881C142.382 23.1796 142.413 23.2135 142.608 23.2135H143.182ZM140.477 15.5144V14.3345H141.451V15.5144H144.147V17.5403H143.293V18.31H138.811V17.5403H137.987V15.5144H140.477ZM143.216 16.3802H138.884V17.43H143.216V16.3802Z" fill="white"/>
<path d="M156.509 21.21H155.383V23.1058H154.364V22.6389H152.058V23.202C152.058 23.7537 151.917 23.9829 151.549 24.1216C151.181 24.2517 150.618 24.2631 149.707 24.2631C149.653 24.0367 149.5 23.6689 149.362 23.451C149.956 23.4736 150.607 23.4736 150.779 23.4623C150.974 23.451 151.04 23.3972 151.04 23.2133V22.6389H147.661V21.8806H151.04V21.21H146.708V20.4206H151.04V19.8037H147.757V19.0879H151.04V18.4484H148.04V16.4564H151.04V15.9046H146.937V15.0926H151.04V14.3003H152.058V15.0897H156.28V15.9018H152.058V16.4536H155.21V18.4456H152.058V19.085H155.383V20.4177H156.509V21.21ZM151.04 17.7778V17.127H149.005V17.7778H151.04ZM152.058 17.127V17.7778H154.192V17.127H152.058ZM152.058 20.4206H154.364V19.8037H152.058V20.4206ZM154.364 21.21H152.058V21.8806H154.364V21.21Z" fill="white"/>
<path d="M165.221 21.7305C166.175 22.4011 167.57 22.9529 168.891 23.2019C168.665 23.4198 168.371 23.83 168.221 24.1017C166.814 23.7225 165.363 22.9982 164.344 22.0672V24.2431H163.36V22.1436C162.33 23.0095 160.87 23.714 159.514 24.0932C159.361 23.8329 159.081 23.4537 158.855 23.2387C160.142 22.967 161.552 22.404 162.505 21.7334H159.158V20.8873H163.36V20.2281H160.165V19.4697H163.36V18.8189H159.636V18.0182H161.857C161.761 17.7154 161.574 17.325 161.402 17.0335L161.662 16.9911H159.203V16.1479H160.805C160.643 15.7263 160.318 15.1292 160.015 14.685L160.892 14.3936C161.229 14.8604 161.608 15.5197 161.758 15.9413L161.206 16.1479H162.398V14.2974H163.34V16.1479H164.412V14.2974H165.366V16.1479H166.534L166.124 16.0177C166.384 15.5848 166.718 14.9029 166.882 14.4162L167.921 14.6765C167.629 15.2085 167.304 15.7489 167.021 16.1479H168.58V16.9911H166.489C166.282 17.3589 166.067 17.7154 165.884 18.021H168.178V18.8218H164.344V19.4726H167.669V20.2309H164.344V20.8902H168.611V21.7362H165.221V21.7305ZM162.44 16.9854C162.635 17.2995 162.83 17.69 162.907 17.9503L162.593 18.0154H164.876C165.038 17.7239 165.213 17.3334 165.352 16.9854H162.44Z" fill="white"/>
<path d="M174.39 20.8082C174.248 20.463 173.934 19.866 173.654 19.3567V24.2291H172.723V19.6509C172.398 20.6809 171.999 21.6316 171.566 22.2484C171.469 21.9768 171.229 21.5976 171.09 21.3826C171.73 20.4941 172.347 18.8926 172.638 17.5175H171.317V16.5866H172.726V14.3003H173.657V16.5866H174.814V17.5175H173.657V18.1569C173.959 18.5587 174.76 19.7811 174.936 20.0725L174.39 20.8082ZM181.212 22.5088H180.575V23.2246C180.575 23.6802 180.479 23.9065 180.165 24.0593C179.851 24.1782 179.364 24.1895 178.671 24.1895C178.628 23.9518 178.509 23.6038 178.399 23.3774C178.855 23.4001 179.319 23.4001 179.46 23.3887C179.59 23.3887 179.633 23.3463 179.633 23.2161V22.5116H176.243V24.1895H175.323V22.5116H174.63V21.7533H175.323V19.0454H177.445V18.5135H174.814V17.7665H176.232V17.1609H175.278V16.4564H176.232V15.8622H175.052V15.1378H176.232V14.3003H177.174V15.135H178.656V14.3003H179.599V15.135H180.886V15.8594H179.599V16.4536H180.725V17.1581H179.599V17.7636H181.104V18.5106H178.354V19.0426H180.575V21.7504H181.214V22.5088H181.212ZM176.243 19.7698V20.3866H177.445V19.7698H176.243ZM176.243 21.7504H177.445V21.0798H176.243V21.7504ZM177.174 16.4564H178.656V15.8622H177.174V16.4564ZM177.174 17.7665H178.656V17.1609H177.174V17.7665ZM178.354 19.7698V20.3866H179.633V19.7698H178.354ZM179.633 21.7504V21.0798H178.354V21.7504H179.633Z" fill="white"/>
<path d="M185.725 20.6576V18.1252C185.303 18.9061 184.783 19.6078 184.254 20.0634C184.101 19.837 183.798 19.5229 183.594 19.3475C184.353 18.8071 185.111 17.7658 185.564 16.7387H183.852V15.8842H185.725V14.3364H186.678V15.8842H188.303V16.7387H186.678V17.2593C187.089 17.5083 188.161 18.2893 188.444 18.493L187.904 19.3164C187.643 19.0448 187.123 18.5694 186.681 18.1902V20.6491L185.725 20.6576ZM183.71 23.2127C184.132 22.6383 184.491 21.7413 184.695 20.9915L185.583 21.348C185.366 22.095 185.02 23.0599 184.619 23.6654L183.71 23.2127ZM189.881 23.1136C190.391 23.1136 190.467 22.9608 190.532 21.8799C190.75 22.0412 191.16 22.1827 191.441 22.2478C191.299 23.6767 191.019 24.0134 189.958 24.0134H187.847C186.548 24.0134 186.212 23.7418 186.212 22.7911V21.1754H187.208V22.7769C187.208 23.0683 187.315 23.1136 187.932 23.1136H189.881ZM188.379 20.3548C188.866 20.8104 189.528 21.4499 189.862 21.8375L189.126 22.4543C188.823 22.0525 188.172 21.3819 187.686 20.8953L188.379 20.3548ZM193.022 20.5274H188.744V14.8627H193.022V20.5274ZM192.06 15.6748H189.666V16.4982H192.06V15.6748ZM192.06 17.2678H189.666V18.111H192.06V17.2678ZM192.06 18.8693H189.666V19.7238H192.06V18.8693ZM192.264 20.8302C192.708 21.5008 193.302 22.4232 193.585 22.975L192.654 23.4503C192.394 22.8873 191.82 21.9337 191.387 21.2405L192.264 20.8302Z" fill="white"/>
<path d="M205.483 21.2978H201.216V23.1058C201.216 23.6576 201.074 23.9405 200.63 24.0905C200.186 24.232 199.547 24.2433 198.604 24.2433C198.528 23.9603 198.333 23.5501 198.183 23.2699C198.941 23.3011 199.699 23.3011 199.914 23.2926C200.132 23.2813 200.186 23.2388 200.186 23.0747V21.2978H195.964V20.3668H200.186V19.6199H200.695C201.117 19.3935 201.55 19.0992 201.918 18.8078H197.804V17.9306H202.883L203.1 17.8769L203.751 18.3635C203.1 19.0568 202.15 19.75 201.219 20.2254V20.3668H205.486V21.2978H205.483ZM197.091 18.5361H196.148V16.0546H197.707C197.512 15.6642 197.175 15.1775 196.864 14.8097L197.73 14.4192C198.12 14.8521 198.553 15.4576 198.737 15.8707L198.347 16.0546H200.35C200.197 15.6217 199.883 15.0247 199.592 14.572L200.469 14.2466C200.837 14.7333 201.205 15.4152 201.346 15.8481L200.814 16.0546H202.645C203.024 15.5567 203.446 14.8747 203.695 14.3654L204.756 14.7021C204.442 15.169 204.085 15.6444 203.748 16.0546H205.319V18.5333H204.323V16.9403H197.091V18.5361V18.5361Z" fill="white"/>
<path d="M208.12 14.855H211.954V15.7633H210.33C210.168 16.5867 209.962 17.3874 209.701 18.1457H211.792V22.9106H209.67V23.7454H208.827V20.0839C208.666 20.3556 208.502 20.6046 208.318 20.8309C208.275 20.5706 208.069 19.9651 207.916 19.6935C208.632 18.7286 209.096 17.2997 209.379 15.7633H208.123V14.855H208.12ZM210.924 19.0455H209.667V22.0222H210.924V19.0455ZM217.941 19.6623H216.772V24.2433H215.808V19.6623H214.271C214.217 21.2865 213.934 23.0832 212.766 24.2971C212.593 24.1358 212.225 23.8416 211.996 23.7114C213.026 22.639 213.275 21.0488 213.329 19.6623H212.214V18.7088H213.34V15.8057H212.506V14.8635H217.726V15.8057H216.772V18.7088H217.941V19.6623ZM215.808 18.7088V15.8057H214.28V18.7088H215.808Z" fill="white"/>
<path d="M229.178 23.1791C229.449 23.1791 229.492 22.9952 229.534 21.6088C229.752 21.7927 230.205 21.9653 230.488 22.0417C230.391 23.7309 230.12 24.1638 229.296 24.1638H228.247C227.316 24.1638 227.044 23.8724 227.044 22.8311V20.8816H225.225C224.998 22.1492 224.121 23.4791 221.218 24.2713C221.065 24.0337 220.774 23.6658 220.536 23.448C223.037 22.7887 223.892 21.8012 224.164 20.8816H221.306V19.9393H224.282V18.6943H225.29V19.9393H228.094V22.8198C228.094 23.1339 228.148 23.1763 228.408 23.1763H229.178V23.1791ZM224.696 16.1648C224.469 17.8851 223.818 18.8924 221.252 19.4244C221.164 19.1867 220.927 18.7962 220.72 18.6123C222.95 18.2218 223.459 17.4748 223.643 16.1648H221.923V17.3022H220.915V15.2678H224.964V14.2944H225.994V15.2678H230.12V17.206H229.059V16.1676H227.152V17.8681C227.152 18.1511 227.205 18.1822 227.562 18.1822H228.699C228.979 18.1822 229.036 18.086 229.067 17.4013C229.274 17.554 229.684 17.704 229.956 17.7465C229.848 18.7962 229.576 19.0678 228.818 19.0678H227.432C226.393 19.0678 226.153 18.7962 226.153 17.8766V16.1648H224.696V16.1648Z" fill="white"/>
<path d="M236.786 20.927C236.633 20.6017 236.265 19.9961 235.94 19.4981V24.2291H234.966V19.8462C234.565 20.8308 234.078 21.7533 233.58 22.3701C233.484 22.0985 233.243 21.6882 233.093 21.4392C233.733 20.7035 234.426 19.4133 234.825 18.2673H233.232V17.3251H234.964V15.8735C234.497 15.9612 234.033 16.0263 233.6 16.0914C233.569 15.8735 233.427 15.517 233.32 15.3104C234.533 15.1152 235.917 14.8011 236.763 14.4333L237.338 15.2567C236.927 15.418 236.449 15.5481 235.94 15.667V17.3222H237.456V18.2645H235.94V18.4173C236.265 18.754 237.185 19.8575 237.391 20.1376L236.786 20.927ZM241.865 21.459V24.2319H240.869V21.6344L237.459 22.2088L237.306 21.244L240.869 20.6498V14.3003H241.865V20.4828L243.045 20.2876L243.198 21.2298L241.865 21.459ZM239.505 19.9961C239.148 19.5293 238.356 18.8389 237.697 18.3833L238.336 17.7976C238.987 18.2305 239.808 18.8813 240.187 19.334L239.505 19.9961ZM239.774 17.1496C239.448 16.6941 238.713 16.0348 238.096 15.5792L238.755 15.0048C239.372 15.4264 240.119 16.0546 240.476 16.5102L239.774 17.1496Z" fill="white"/>
<path d="M252.108 14.6145C251.87 15.319 251.587 16.032 251.273 16.7253V24.2292H250.319V18.4909C250.037 18.9351 249.756 19.3341 249.454 19.6935C249.366 19.4445 249.097 18.8814 248.944 18.6324C249.844 17.5826 250.676 15.9783 251.174 14.3541L252.108 14.6145ZM258.149 16.2499C257.804 16.9205 257.348 17.4949 256.805 17.9816C257.509 18.3608 258.353 18.6522 259.34 18.8248C259.167 19.0313 258.907 19.3992 258.788 19.6482C257.727 19.4105 256.827 19.0087 256.08 18.5334C255.322 19.054 254.434 19.4416 253.472 19.7359C253.375 19.552 253.126 19.2266 252.94 19.02V22.4522H252.062V15.6105H252.94V17.0507C253.721 16.3574 254.402 15.3501 254.79 14.2891L255.71 14.5154C255.591 14.8295 255.449 15.1323 255.288 15.435H258.992V16.2471H258.149V16.2499ZM252.942 18.9351C253.831 18.7173 254.643 18.4032 255.336 17.9816C254.934 17.6449 254.612 17.2884 254.34 16.9205C254.08 17.2459 253.808 17.526 253.539 17.775C253.409 17.6562 253.149 17.4496 252.945 17.2997V18.9351H252.942ZM259.037 21.7618C257.954 23.0408 255.984 23.7878 253.743 24.1867C253.636 23.9491 253.418 23.601 253.223 23.3973C255.314 23.0945 257.229 22.4664 258.171 21.4053L259.037 21.7618ZM256.992 19.5095C256.321 20.1801 255.237 20.7234 254.23 21.046C254.1 20.8734 253.873 20.6131 253.678 20.4603C254.609 20.1999 255.67 19.7359 256.233 19.1926L256.992 19.5095ZM258.01 20.5055C257.175 21.4251 255.747 22.0759 254.295 22.4664C254.176 22.2712 253.97 21.991 253.797 21.8156C255.141 21.5128 256.547 20.9498 257.263 20.2028L258.01 20.5055ZM254.827 16.2499L254.816 16.2612C255.107 16.6942 255.509 17.1158 256.029 17.4949C256.462 17.1384 256.819 16.7253 257.102 16.2499H254.827Z" fill="white"/>
<path d="M266.723 18.6208V22.6925H270.48V23.6998H261.98V22.6925H265.65V18.6208H261.383V17.6248H265.65V14.3228H266.723V17.6248H271.055V18.6208H266.723Z" fill="white"/>
<path d="M277.288 17.7013H279.778V18.6209H277.288V19.5858H279.453V22.4323C279.453 22.8426 279.388 23.1029 279.108 23.2557C278.825 23.4085 278.414 23.417 277.851 23.4085C277.829 23.1595 277.71 22.7917 277.58 22.554C277.97 22.5653 278.296 22.5653 278.403 22.554C278.511 22.554 278.545 22.5229 278.545 22.4125V20.4856H277.288V24.2432H276.335V20.4828H275.155V23.3745H274.255V19.5858H276.335V18.6209H273.791V17.7013H274.538C274.331 17.5825 273.932 17.441 273.692 17.3561C274.167 16.6403 274.527 15.5707 274.73 14.5408L275.673 14.736C275.585 15.0925 275.489 15.4604 275.39 15.8084H276.332V14.3682H277.285V15.8084H279.354V16.7167H277.285V17.7013H277.288ZM276.335 17.7013V16.7167H275.067C274.926 17.0845 274.764 17.4325 274.592 17.7013H276.335ZM281.371 21.2411H280.44V15.2538H281.371V21.2411ZM283.318 14.453V22.9529C283.318 23.5585 283.188 23.8414 282.831 24.014C282.486 24.1866 281.878 24.2093 281.066 24.2093C281.023 23.9376 280.882 23.4736 280.74 23.1793C281.346 23.2019 281.931 23.2019 282.115 23.1906C282.288 23.1906 282.342 23.1369 282.342 22.9643V14.453H283.318Z" fill="white"/>
<path d="M289.485 14.6485C289.194 15.4068 288.826 16.1849 288.413 16.9121V24.2208H287.394V18.5023C287.111 18.8928 286.809 19.2493 286.506 19.5634C286.41 19.3144 286.115 18.7513 285.943 18.5249C286.973 17.5063 287.935 15.9274 288.521 14.3457L289.485 14.6485ZM292.756 17.0422V18.4174H295.702V19.337H292.756V20.7772H295.855V21.7195H292.756V24.2321H291.726V17.0422H291.121C290.665 17.8854 290.167 18.6438 289.647 19.2181C289.485 19.0455 289.095 18.6862 288.869 18.5362C289.822 17.5402 290.688 15.9812 291.209 14.4221L292.173 14.6824C292.001 15.1493 291.817 15.6246 291.61 16.0802H295.962V17.0451H292.756V17.0422Z" fill="white"/>
<path d="M307.394 21.555C306.919 21.9228 306.322 22.2708 305.801 22.5509C306.407 22.9527 307.145 23.2555 308 23.4281C307.782 23.612 307.533 24.0025 307.406 24.2515C305.49 23.7761 304.211 22.6924 303.464 21.057H302.315V22.8763C302.986 22.7801 303.702 22.6585 304.415 22.5509L304.449 23.4281C303.009 23.6658 301.481 23.9148 300.355 24.0874L300.202 23.1678C300.547 23.1253 300.949 23.0716 301.382 23.0065V21.057H300.125V20.2138H301.945V19.2715H300.439V18.417H301.945V17.5512H300.137V17.953C300.137 19.8035 299.984 22.5 298.858 24.2543C298.662 24.093 298.218 23.8327 297.969 23.7337C299.042 22.0671 299.127 19.6733 299.127 17.9501V14.7896H307.27V17.5512H305.733V18.417H307.434V19.2715H305.733V20.2138H307.878V21.057H306.664L307.394 21.555ZM300.139 16.6825H306.268V15.6526H300.139V16.6825ZM302.867 18.417H304.794V17.5512H302.867V18.417ZM302.867 20.2138H304.794V19.2715H302.867V20.2138ZM304.415 21.057C304.621 21.4248 304.87 21.7502 305.173 22.0416C305.671 21.7502 306.234 21.371 306.613 21.057H304.415Z" fill="white"/>
<path d="M104.947 4.02953V4.43699H100.94V4.02953H102.726V2.9911H101.441V2.58931H102.726V1.68669H101.724C101.585 1.95832 101.435 2.196 101.277 2.38558C101.192 2.31201 101.005 2.19034 100.895 2.13375C101.26 1.74894 101.546 1.1321 101.713 0.501114L102.146 0.600148C102.078 0.829339 101.996 1.06136 101.911 1.2764H102.729V0.436035H103.161V1.2764H104.732V1.68669H103.161V2.58931H104.565V2.9911H103.161V4.02953H104.947Z" fill="white"/>
<path d="M106.353 2.51009C106.17 2.38276 105.793 2.16772 105.524 2.02624L105.754 1.71499C106.011 1.84232 106.393 2.04039 106.583 2.16206L106.353 2.51009ZM105.612 4.23893C105.853 3.89939 106.198 3.32217 106.461 2.81285L106.764 3.09297C106.535 3.55702 106.232 4.10029 105.966 4.51906L105.612 4.23893ZM106.566 1.29056C106.382 1.16041 106.005 0.942533 105.739 0.795397L105.974 0.498297C106.235 0.625626 106.619 0.826523 106.815 0.953851L106.566 1.29056ZM108.442 2.14508V2.81285H109.373V4.55018H108.976V4.38324H107.482V4.57282H107.098V2.81285H108.046V2.14508H106.792V1.74329H108.046V1.10382C107.729 1.15475 107.406 1.1887 107.106 1.21134C107.089 1.1123 107.035 0.953851 106.984 0.860477C107.757 0.778421 108.631 0.634115 109.126 0.450195L109.455 0.775591C109.166 0.883113 108.815 0.970828 108.439 1.03591V1.74329H109.636V2.14508H108.442V2.14508ZM108.974 3.19201H107.48V4.00408H108.974V3.19201Z" fill="white"/>
<path d="M111.681 3.51186C111.174 3.66182 110.634 3.81744 110.215 3.93063L110.125 3.53449C110.291 3.49488 110.495 3.44395 110.71 3.39019V2.41117H110.224V2.0405H110.71V1.12091H110.178V0.750237H111.596V1.12091H111.089V2.0405H111.528V2.41117H111.089V3.28549C111.27 3.23456 111.454 3.18646 111.635 3.13553L111.681 3.51186ZM114.208 3.52883C114.026 3.66465 113.8 3.80047 113.622 3.89101C113.82 4.04947 114.049 4.17396 114.304 4.24753C114.21 4.32393 114.097 4.47673 114.032 4.57576C113.523 4.37769 113.115 3.98156 112.858 3.48922L112.821 3.52034V4.57576H112.428V3.82593C112.125 4.03249 111.788 4.21075 111.48 4.32676C111.426 4.24187 111.313 4.1004 111.231 4.03249C111.701 3.88252 112.227 3.59957 112.598 3.29115H111.822V2.29516H114.009V3.29115H113.115C113.189 3.4298 113.282 3.56279 113.395 3.68446C113.568 3.57976 113.783 3.41848 113.91 3.31096L114.208 3.52883ZM111.545 1.7434H114.298V2.08577H111.545V1.7434ZM114.103 1.53968H111.751V0.577637H114.103V1.53968ZM112.448 0.871907H112.097V1.24258H112.448V0.871907ZM112.196 2.98273H113.625V2.60358H112.196V2.98273ZM113.093 0.871907H112.728V1.24258H113.093V0.871907ZM113.746 0.871907H113.376V1.24258H113.746V0.871907Z" fill="white"/>
<path d="M116.31 3.22342C115.838 3.45261 115.317 3.69312 114.921 3.87704L114.771 3.4611C114.932 3.40168 115.136 3.31679 115.354 3.22625V1.90486H114.862V1.51156H115.354V0.487267H115.742V1.51156H116.183V1.90486H115.742V3.05648L116.214 2.84992L116.31 3.22342ZM118.526 4.18829C118.611 4.18829 118.63 4.13736 118.642 3.76952C118.718 3.83177 118.885 3.89119 118.99 3.91948C118.953 4.42597 118.851 4.55047 118.565 4.55047H118.164C117.799 4.55047 117.717 4.43729 117.717 4.07794V3.46393H117.309C117.202 4.01569 116.924 4.37504 116.095 4.58159C116.056 4.48256 115.942 4.30713 115.866 4.23073C116.579 4.09209 116.805 3.84309 116.899 3.46393H116.474V2.08878H118.698V3.46393H118.113V4.07228C118.113 4.17697 118.127 4.18829 118.226 4.18829H118.526V4.18829ZM118.936 1.87374H116.189V1.53136H116.873C116.845 1.40969 116.788 1.25124 116.723 1.13523L116.921 1.08996H116.316V0.761732H117.335V0.444824H117.745V0.761732H118.837V1.08996H118.243L118.438 1.12957C118.356 1.27388 118.288 1.41818 118.226 1.53136H118.933V1.87374H118.936ZM116.873 2.64054H118.294V2.35758H116.873V2.64054ZM116.873 3.1923H118.294V2.90368H116.873V3.1923ZM117.108 1.08996C117.182 1.22011 117.244 1.38423 117.267 1.49741L117.128 1.53419H117.934L117.835 1.51156C117.895 1.39555 117.971 1.22294 118.016 1.09279H117.108V1.08996Z" fill="white"/>
<path d="M120.031 2.04039H122.985C123.079 2.04039 123.246 2.03473 123.365 2.01775V2.4818C123.257 2.47614 123.101 2.47331 122.985 2.47331H121.822C121.805 2.9515 121.715 3.34763 121.542 3.67303C121.381 3.97862 121.036 4.3125 120.645 4.51623L120.229 4.21064C120.563 4.07482 120.889 3.8145 121.064 3.53721C121.259 3.23445 121.316 2.87793 121.336 2.47331H120.031C119.896 2.47331 119.748 2.47897 119.621 2.48746V2.01775C119.748 2.0319 119.893 2.04039 120.031 2.04039ZM120.592 0.90292H122.117C122.255 0.90292 122.428 0.894431 122.567 0.874624V1.33867C122.422 1.33018 122.261 1.32169 122.117 1.32169H120.597C120.444 1.32169 120.278 1.33018 120.156 1.33867V0.874624C120.289 0.894431 120.444 0.90292 120.592 0.90292ZM123.181 1.15192L122.884 1.27925C122.793 1.09816 122.649 0.829352 122.527 0.656751L122.816 0.535081C122.929 0.696364 123.093 0.976487 123.181 1.15192ZM123.701 0.953851L123.407 1.08401C123.314 0.888772 123.164 0.634115 123.036 0.461514L123.325 0.339844C123.447 0.512445 123.619 0.789739 123.701 0.953851Z" fill="white"/>
<path d="M125.817 4.53607L125.432 4.17955C126.276 3.8683 126.675 3.48066 126.675 2.28377V2.10268H125.489V2.77893C125.489 2.96002 125.503 3.15243 125.506 3.21751H125.005C125.014 3.15526 125.028 2.96568 125.028 2.77893V2.10268H124.586C124.374 2.10268 124.19 2.11116 124.117 2.11682V1.63015C124.176 1.63863 124.377 1.66693 124.586 1.66693H125.028V1.14347C125.028 1.03594 125.019 0.900127 125.005 0.781287H125.512C125.503 0.843537 125.489 0.979354 125.489 1.1463V1.6641H126.675V1.14347C126.675 0.962377 126.66 0.815241 126.652 0.750162H127.161C127.156 0.812412 127.139 0.962377 127.139 1.14347V1.66693H127.557C127.778 1.66693 127.922 1.65278 128.007 1.63863V2.11682C127.939 2.10834 127.778 2.10268 127.56 2.10268H127.136V2.25547C127.139 3.42124 126.873 4.06637 125.817 4.53607ZM127.801 1.367L127.54 1.45754C127.473 1.26231 127.382 1.00765 127.291 0.829389L127.549 0.747333C127.631 0.917104 127.741 1.19157 127.801 1.367ZM128.262 1.22835L128.002 1.31324C127.934 1.11517 127.84 0.863344 127.75 0.685083L128.007 0.603027C128.089 0.778458 128.203 1.04726 128.262 1.22835Z" fill="white"/>
<path d="M130.868 1.70618C131.338 1.41757 131.816 0.998798 132.122 0.633789L132.501 0.995969C132.159 1.344 131.734 1.69203 131.287 1.98347V3.85662C131.287 4.04054 131.296 4.28954 131.318 4.38857H130.758C130.772 4.28954 130.786 4.04054 130.786 3.85662V2.28623C130.314 2.54372 129.717 2.80404 129.123 2.98513L128.902 2.53806C129.691 2.32585 130.368 2.01743 130.868 1.70618Z" fill="white"/>
<path d="M135.566 3.24564C136.293 2.79858 136.856 2.12232 137.13 1.5451L137.405 2.03743C137.079 2.62315 136.525 3.23715 135.82 3.67007C135.365 3.95019 134.79 4.21617 134.091 4.3435L133.789 3.87946C134.547 3.76345 135.133 3.51162 135.566 3.24564ZM135.413 1.80258L135.056 2.16759C134.821 1.92991 134.261 1.43758 133.927 1.21121L134.255 0.860352C134.572 1.06974 135.161 1.53944 135.413 1.80258Z" fill="white"/>
<path d="M139.122 1.10691H141.366C141.487 1.10691 141.646 1.10125 141.728 1.09842C141.722 1.19745 141.719 1.35874 141.719 1.47758V3.80911C141.719 3.96756 141.728 4.18826 141.736 4.2873H141.221C141.221 4.22505 141.227 4.13733 141.227 4.04396H139.088C138.904 4.04396 138.678 4.05245 138.547 4.06093V3.55162C138.678 3.56011 138.876 3.57426 139.071 3.57426H141.233V1.56246H139.125C138.949 1.56246 138.717 1.57095 138.601 1.57944V1.07861C138.754 1.09276 138.972 1.10691 139.122 1.10691Z" fill="white"/>
<path d="M143.609 2.23581H146.063C146.281 2.23581 146.456 2.21884 146.569 2.20752V2.76777C146.47 2.76211 146.264 2.74513 146.063 2.74513H143.609C143.36 2.74513 143.092 2.75362 142.936 2.76777V2.20752C143.086 2.21601 143.366 2.23581 143.609 2.23581Z" fill="white"/>
<path d="M150.694 1.41806C150.536 1.78872 150.27 2.29804 149.953 2.70266C150.417 3.0988 150.963 3.68168 151.243 4.02405L150.847 4.37491C150.55 3.96746 150.097 3.47229 149.65 3.05635C149.166 3.57133 148.558 4.05235 147.913 4.35511L147.548 3.97312C148.278 3.693 148.957 3.15256 149.401 2.65173C149.707 2.30936 150.01 1.81136 150.12 1.4605H148.465C148.289 1.4605 148.046 1.48314 147.972 1.48879V0.97948C148.063 0.993628 148.323 1.0106 148.465 1.0106H150.14C150.307 1.0106 150.457 0.993627 150.533 0.965332L150.827 1.18321C150.793 1.22848 150.725 1.34166 150.694 1.41806Z" fill="white"/>
<path d="M154.574 2.50442C154.574 2.79303 154.339 3.02788 154.05 3.02788C153.762 3.02788 153.527 2.79303 153.527 2.50442C153.527 2.21581 153.762 1.98096 154.05 1.98096C154.339 1.98096 154.574 2.21581 154.574 2.50442Z" fill="white"/>
<path d="M158.824 2.97097H157.579V2.02024H158.824V2.86344C159.008 2.74177 159.18 2.59181 159.333 2.42204C159.166 2.08815 159.039 1.67221 158.96 1.21383H157.395V1.55337C157.395 2.08532 157.313 2.83798 156.9 3.34446C156.838 3.26807 156.673 3.13225 156.594 3.08698C156.968 2.63142 157.013 2.00327 157.013 1.54771V0.874286H158.912C158.895 0.729981 158.88 0.585675 158.875 0.43571H159.271C159.277 0.585675 159.285 0.729981 159.302 0.874286H159.984C159.84 0.789401 159.656 0.698856 159.497 0.639436L159.704 0.398926C159.925 0.466834 160.196 0.594163 160.343 0.704515L160.205 0.871457H160.66V1.211H159.356C159.415 1.53074 159.5 1.81935 159.605 2.06269C159.735 1.85613 159.845 1.62411 159.925 1.38077L160.321 1.47132C160.191 1.83633 160.015 2.17021 159.803 2.45882C159.961 2.70782 160.131 2.85213 160.29 2.85213C160.394 2.85213 160.44 2.69933 160.462 2.30037C160.547 2.37394 160.683 2.45033 160.788 2.48429C160.725 3.07566 160.584 3.22845 160.27 3.22845C160.004 3.22845 159.755 3.05585 159.548 2.76724C159.395 2.92569 159.231 3.07 159.056 3.18601C159.016 3.12659 158.912 3.02473 158.827 2.95116V2.97097H158.824ZM156.623 4.24991C156.911 4.04619 157.101 3.7123 157.205 3.37842L157.576 3.50858C157.463 3.87076 157.287 4.24991 156.976 4.48193L156.623 4.24991ZM158.878 1.75144H157.528V1.47132H158.878V1.75144ZM159.189 4.14239C159.373 4.14239 159.407 4.08863 159.424 3.70098C159.509 3.76323 159.69 3.82831 159.797 3.85378C159.746 4.38573 159.625 4.51589 159.229 4.51589H158.422C157.907 4.51589 157.783 4.40271 157.783 4.0094V3.36427H158.199V4.00374C158.199 4.11975 158.235 4.13956 158.465 4.13956H159.189V4.14239ZM158.476 2.3032H157.921V2.68801H158.476V2.3032ZM158.425 2.99643C158.691 3.13225 159.011 3.34729 159.161 3.51989L158.866 3.77738C158.728 3.60478 158.416 3.37559 158.148 3.23128L158.425 2.99643ZM160.009 3.32749C160.321 3.58497 160.64 3.95564 160.776 4.23859L160.391 4.43666C160.278 4.1622 159.967 3.77738 159.664 3.50575L160.009 3.32749Z" fill="white"/>
<path d="M161.215 2.45105C161.328 2.14829 161.41 1.65312 161.441 1.28811L161.747 1.33338C161.724 1.70405 161.642 2.22751 161.535 2.5614L161.215 2.45105ZM165.374 4.02709V4.42323H162.61V4.02709H163.863V3.0028H162.947V2.6095H163.863V1.76064H163.278C163.193 2.01247 163.094 2.24449 162.989 2.42841C162.904 2.36899 162.717 2.27562 162.615 2.23317C162.675 2.14263 162.731 2.03794 162.782 1.92192L162.531 2.04359C162.491 1.8625 162.372 1.57389 162.259 1.33621V4.57036H161.84V0.433594H162.259V1.2683L162.525 1.16078C162.638 1.373 162.763 1.64746 162.819 1.83704C162.958 1.48618 163.06 1.06175 163.116 0.637319L163.527 0.705228C163.495 0.93159 163.445 1.15229 163.391 1.36451H163.863V0.4534H164.282V1.36451H165.255V1.76064H164.282V2.6095H165.156V3.0028H164.282V4.02709H165.374Z" fill="white"/>
<path d="M165.867 2.47085C165.96 2.16526 166.034 1.66444 166.062 1.31075L166.365 1.34753C166.351 1.70405 166.28 2.23317 166.184 2.56989L165.867 2.47085ZM167.038 1.8427C166.993 1.68424 166.899 1.41827 166.809 1.21171V4.57319H166.424V0.439252H166.809V1.17493L167.069 1.07024C167.16 1.27396 167.276 1.53994 167.321 1.70688L167.038 1.8427ZM170.049 1.87099V2.18224H167.126V1.87099H168.362V1.61068H167.369V1.31358H168.362V1.07873H167.262V0.767478H168.362V0.433594H168.778V0.767478H169.919V1.07873H168.778V1.31358H169.803V1.60785H168.778V1.86816H170.049V1.87099ZM169.718 4.1431C169.718 4.33268 169.678 4.44021 169.542 4.49963C169.404 4.55905 169.191 4.56187 168.88 4.56187C168.863 4.45718 168.809 4.30156 168.758 4.19969C168.965 4.21384 169.183 4.20818 169.242 4.20818C169.305 4.20252 169.324 4.18555 169.324 4.13179V3.88845H167.83V4.57036H167.443V2.40012H169.721V4.1431H169.718ZM167.828 2.71702V2.99715H169.322V2.71702H167.828ZM169.322 3.58852V3.30839H167.828V3.58852H169.322Z" fill="white"/>
<path d="M171.789 1.61342H172.578V1.96994H172.16L172.355 2.02087C172.278 2.21045 172.196 2.40852 172.126 2.55282H172.527V2.915H171.792V3.33943H172.468V3.69595H171.792V4.56744H171.398V3.69595H170.691V3.33943H171.398V2.915H170.649V2.55282H171.042C171.019 2.40003 170.951 2.18781 170.869 2.02087L171.053 1.96994H170.569V1.61342H171.396V1.22011H170.733V0.869253H171.396V0.444824H171.789V0.869253H172.411V1.22011H171.789V1.61342V1.61342ZM171.8 2.51038C171.862 2.35758 171.944 2.13122 171.99 1.96994H171.209C171.291 2.14537 171.367 2.36607 171.384 2.51038L171.234 2.54999H171.953L171.8 2.51038ZM174.601 2.23591C174.511 2.77352 174.341 3.27718 174.092 3.70727C174.287 3.93363 174.511 4.11755 174.766 4.24488C174.675 4.32128 174.548 4.47407 174.485 4.57876C174.256 4.44295 174.047 4.26186 173.863 4.04681C173.704 4.25337 173.521 4.43446 173.311 4.58442C173.257 4.50803 173.167 4.40899 173.082 4.34108V4.58159H172.703V0.634403H174.5V1.48609C174.5 1.68133 174.46 1.78885 174.301 1.84827C174.152 1.90769 173.922 1.90769 173.583 1.90769C173.566 1.80017 173.512 1.64737 173.455 1.54551C173.713 1.554 173.951 1.554 174.019 1.55117C174.086 1.54551 174.103 1.53419 174.103 1.48326V1.00224H173.079V2.15669H174.276L174.344 2.13971L174.601 2.23591ZM173.079 4.26186C173.286 4.11755 173.464 3.93363 173.617 3.72142C173.388 3.3649 173.209 2.94896 173.079 2.50189V4.26186ZM173.433 2.50189C173.532 2.80748 173.668 3.10175 173.835 3.36773C173.979 3.09609 174.084 2.80465 174.154 2.50189H173.433Z" fill="white"/>
<path d="M175.796 2.04039H178.75C178.843 2.04039 179.01 2.03473 179.129 2.01775V2.4818C179.021 2.47614 178.866 2.47331 178.75 2.47331H177.587C177.57 2.9515 177.479 3.34763 177.307 3.67303C177.145 3.97862 176.8 4.3125 176.41 4.51623L175.994 4.21064C176.327 4.07482 176.653 3.8145 176.828 3.53721C177.024 3.23445 177.08 2.87793 177.1 2.47331H175.796C175.66 2.47331 175.513 2.47897 175.385 2.48746V2.01775C175.513 2.0319 175.657 2.04039 175.796 2.04039ZM176.356 0.90292H177.881C178.02 0.90292 178.192 0.894431 178.331 0.874624V1.33867C178.186 1.33018 178.025 1.32169 177.881 1.32169H176.361C176.209 1.32169 176.042 1.33018 175.92 1.33867V0.874624C176.053 0.894431 176.206 0.90292 176.356 0.90292ZM178.945 1.15192L178.648 1.27925C178.557 1.09816 178.413 0.829352 178.291 0.656751L178.58 0.535081C178.693 0.696364 178.854 0.976487 178.945 1.15192ZM179.465 0.953851L179.171 1.08401C179.078 0.888772 178.928 0.634115 178.8 0.461514L179.089 0.339844C179.211 0.512445 179.383 0.789739 179.465 0.953851Z" fill="white"/>
<path d="M181.578 4.53607L181.194 4.17955C182.037 3.8683 182.436 3.48066 182.436 2.28377V2.10268H181.25V2.77893C181.25 2.96002 181.264 3.15243 181.267 3.21751H180.766C180.775 3.15526 180.789 2.96568 180.789 2.77893V2.10268H180.348C180.135 2.10268 179.951 2.11116 179.878 2.11682V1.63015C179.937 1.63863 180.138 1.66693 180.348 1.66693H180.789V1.14347C180.789 1.03594 180.781 0.900127 180.766 0.781287H181.273C181.264 0.843537 181.25 0.979354 181.25 1.1463V1.6641H182.436V1.14347C182.436 0.962377 182.422 0.815241 182.413 0.750162H182.923C182.917 0.812412 182.9 0.962377 182.9 1.14347V1.66693H183.319C183.539 1.66693 183.684 1.65278 183.769 1.63863V2.11682C183.701 2.10834 183.539 2.10268 183.321 2.10268H182.897V2.25547C182.903 3.42124 182.634 4.06637 181.578 4.53607ZM183.565 1.367L183.305 1.45754C183.237 1.26231 183.146 1.00765 183.056 0.829389L183.313 0.747333C183.392 0.917104 183.505 1.19157 183.565 1.367ZM184.026 1.22835L183.766 1.31324C183.698 1.11517 183.604 0.863344 183.514 0.685083L183.771 0.603027C183.853 0.778458 183.967 1.04726 184.026 1.22835Z" fill="white"/>
<path d="M186.633 1.70618C187.102 1.41757 187.58 0.998798 187.886 0.633789L188.265 0.995969C187.923 1.344 187.498 1.69203 187.051 1.98347V3.85662C187.051 4.04054 187.06 4.28954 187.082 4.38857H186.522C186.536 4.28954 186.55 4.04054 186.55 3.85662V2.28623C186.078 2.54372 185.481 2.80404 184.887 2.98513L184.666 2.53806C185.455 2.32585 186.132 2.01743 186.633 1.70618Z" fill="white"/>
<path d="M191.33 3.24564C192.057 2.79858 192.62 2.12232 192.894 1.5451L193.169 2.03743C192.843 2.62315 192.289 3.23715 191.584 3.67007C191.129 3.95019 190.554 4.21617 189.855 4.3435L189.553 3.87946C190.311 3.76345 190.897 3.51162 191.33 3.24564ZM191.177 1.80258L190.82 2.16759C190.586 1.92991 190.025 1.43758 189.691 1.21121L190.02 0.860352C190.337 1.06974 190.925 1.53944 191.177 1.80258Z" fill="white"/>
<path d="M194.883 1.10691H197.127C197.249 1.10691 197.407 1.10125 197.489 1.09842C197.484 1.19745 197.481 1.35874 197.481 1.47758V3.80911C197.481 3.96756 197.489 4.18826 197.498 4.2873H196.983C196.983 4.22505 196.989 4.13733 196.989 4.04396H194.85C194.666 4.04396 194.439 4.05245 194.309 4.06093V3.55162C194.439 3.56011 194.637 3.57426 194.833 3.57426H196.994V1.56246H194.886C194.711 1.56246 194.479 1.57095 194.363 1.57944V1.07861C194.518 1.09276 194.736 1.10691 194.883 1.10691Z" fill="white"/>
<path d="M199.374 2.23581H201.827C202.045 2.23581 202.22 2.21884 202.333 2.20752V2.76777C202.234 2.76211 202.028 2.74513 201.827 2.74513H199.374C199.125 2.74513 198.856 2.75362 198.7 2.76777V2.20752C198.85 2.21601 199.13 2.23581 199.374 2.23581Z" fill="white"/>
<path d="M206.456 1.41806C206.298 1.78872 206.032 2.29804 205.715 2.70266C206.179 3.0988 206.725 3.68168 207.005 4.02405L206.609 4.37491C206.312 3.96746 205.859 3.47229 205.412 3.05635C204.929 3.57133 204.32 4.05235 203.675 4.35511L203.31 3.97312C204.04 3.693 204.719 3.15256 205.163 2.65173C205.469 2.30936 205.772 1.81136 205.882 1.4605H204.227C204.051 1.4605 203.808 1.48314 203.734 1.48879V0.97948C203.825 0.993628 204.085 1.0106 204.227 1.0106H205.902C206.069 1.0106 206.219 0.993627 206.295 0.965332L206.589 1.18321C206.556 1.22848 206.488 1.34166 206.456 1.41806Z" fill="white"/>
<path d="M104.896 10.0818V10.461H100.971V10.0818H102.709V9.27543H101.441V8.90193H104.514V9.27543H103.139V10.0818H104.896ZM102.649 7.26646C102.559 8.04175 102.307 8.51145 101.209 8.75479C101.172 8.64727 101.065 8.48316 100.983 8.39827C101.953 8.21718 102.143 7.86915 102.211 7.26646H101.452V7.8352H101.042V6.88731H102.706V6.44873H103.136V6.88731H104.836V7.73899H104.409V7.26646H103.625V8.0842C103.625 8.19738 103.654 8.21435 103.801 8.21435H104.302C104.423 8.21435 104.452 8.16342 104.463 7.87198C104.548 7.92574 104.715 7.98799 104.825 8.01629C104.785 8.45769 104.672 8.57088 104.347 8.57088H103.747C103.308 8.57088 103.209 8.46335 103.209 8.08703V7.26646H102.649V7.26646Z" fill="white"/>
<path d="M106.146 8.20027V10.5912H105.73V6.62988H107.394V8.20027H106.146ZM106.146 6.94679V7.25804H106.998V6.94679H106.146ZM106.998 7.88902V7.55514H106.146V7.88902H106.998ZM109.457 10.0678C109.457 10.3054 109.406 10.4413 109.245 10.5148C109.086 10.5827 108.837 10.5856 108.461 10.5856C108.444 10.4724 108.385 10.2913 108.331 10.1753H107.111V10.4016H106.726V8.51152H108.419V10.164C108.639 10.1725 108.857 10.1696 108.928 10.1696C109.01 10.164 109.033 10.1413 109.033 10.0649V8.21159H107.751V6.63271H109.457V10.0678V10.0678ZM107.111 8.82843V9.17929H108.028V8.82843H107.111ZM108.028 9.8612V9.4877H107.111V9.8612H108.028ZM108.153 6.94679V7.25804H109.033V6.94679H108.153ZM109.033 7.89751V7.55514H108.153V7.89751H109.033Z" fill="white"/>
<path d="M110.739 8.05602H113.693C113.786 8.05602 113.953 8.05036 114.072 8.03338V8.49742C113.965 8.49176 113.809 8.48893 113.693 8.48893H112.53C112.513 8.96712 112.422 9.36326 112.25 9.68865C112.089 9.99424 111.743 10.3281 111.353 10.5319L110.937 10.2263C111.271 10.0904 111.596 9.83013 111.772 9.55283C111.967 9.25007 112.023 8.89355 112.043 8.48893H110.739C110.603 8.48893 110.456 8.49459 110.329 8.50308V8.03338C110.453 8.04753 110.597 8.05602 110.739 8.05602ZM111.296 6.91855H112.821C112.96 6.91855 113.133 6.91006 113.271 6.89025V7.35429C113.127 7.3458 112.966 7.33732 112.821 7.33732H111.302C111.149 7.33732 110.982 7.3458 110.861 7.35429V6.89025C110.996 6.91006 111.149 6.91855 111.296 6.91855ZM113.888 7.16754L113.591 7.29487C113.501 7.11378 113.356 6.84498 113.235 6.67238L113.523 6.55071C113.634 6.71199 113.798 6.99211 113.888 7.16754ZM114.406 6.96948L114.112 7.09963C114.018 6.9044 113.868 6.64974 113.741 6.47714L114.03 6.35547C114.154 6.52807 114.324 6.80536 114.406 6.96948Z" fill="white"/>
<path d="M116.523 10.5517L116.138 10.1952C116.981 9.88393 117.38 9.49628 117.38 8.29939V8.1183H116.195V8.79456C116.195 8.97565 116.209 9.16806 116.212 9.23314H115.711C115.719 9.17089 115.733 8.98131 115.733 8.79456V8.1183H115.292C115.08 8.1183 114.896 8.12679 114.822 8.13245V7.64577C114.882 7.65426 115.083 7.68256 115.292 7.68256H115.733V7.15909C115.733 7.05157 115.725 6.91575 115.711 6.79691H116.217C116.209 6.85916 116.195 6.99498 116.195 7.16192V7.67973H117.38V7.15626C117.38 6.97517 117.366 6.82804 117.358 6.76296H117.867C117.861 6.82521 117.844 6.97517 117.844 7.15626V7.67973H118.263C118.484 7.67973 118.628 7.66558 118.713 7.65143V8.12962C118.645 8.12113 118.484 8.11547 118.266 8.11547H117.841V8.26827C117.844 9.43686 117.578 10.082 116.523 10.5517ZM118.509 7.38262L118.249 7.47317C118.181 7.27793 118.09 7.02327 118 6.84501L118.257 6.76296C118.337 6.93273 118.45 7.20719 118.509 7.38262ZM118.968 7.24398L118.707 7.32886C118.639 7.1308 118.546 6.87897 118.455 6.70071L118.713 6.61865C118.798 6.79408 118.908 7.06289 118.968 7.24398Z" fill="white"/>
<path d="M121.576 7.72181C122.046 7.43319 122.524 7.01442 122.829 6.64941L123.209 7.01159C122.866 7.35962 122.442 7.70766 121.995 7.9991V9.87225C121.995 10.0562 122.003 10.3052 122.026 10.4042H121.466C121.48 10.3052 121.494 10.0562 121.494 9.87225V8.30186C121.021 8.55934 120.424 8.81966 119.83 9.00075L119.609 8.55369C120.399 8.34147 121.075 8.03305 121.576 7.72181Z" fill="white"/>
<path d="M126.273 9.26176C127 8.81469 127.563 8.13843 127.838 7.56121L128.112 8.05355C127.787 8.63926 127.232 9.25327 126.528 9.68619C126.072 9.96631 125.498 10.2323 124.799 10.3596L124.496 9.89557C125.252 9.77956 125.837 9.52773 126.273 9.26176ZM126.117 7.8187L125.761 8.18371C125.526 7.94603 124.966 7.45369 124.632 7.22733L124.96 6.87646C125.28 7.08585 125.866 7.55555 126.117 7.8187Z" fill="white"/>
<path d="M129.827 7.12253H132.071C132.192 7.12253 132.351 7.11687 132.433 7.11404C132.427 7.21308 132.424 7.37436 132.424 7.4932V9.82473C132.424 9.98319 132.433 10.2039 132.441 10.3029H131.926C131.926 10.2407 131.932 10.153 131.932 10.0596H129.793C129.609 10.0596 129.383 10.0681 129.252 10.0766V9.56725C129.383 9.57573 129.581 9.58988 129.776 9.58988H131.938V7.57809H129.83C129.654 7.57809 129.422 7.58658 129.306 7.59506V7.09424C129.462 7.10839 129.677 7.12253 129.827 7.12253Z" fill="white"/>
<path d="M134.317 8.25095H136.771C136.989 8.25095 137.164 8.23397 137.277 8.22266V8.7829C137.178 8.77724 136.972 8.76027 136.771 8.76027H134.317C134.068 8.76027 133.8 8.76875 133.644 8.7829V8.22266C133.794 8.23114 134.071 8.25095 134.317 8.25095Z" fill="white"/>
<path d="M141.399 7.43368C141.241 7.80435 140.975 8.31366 140.658 8.71829C141.122 9.11442 141.668 9.6973 141.948 10.0397L141.552 10.3905C141.255 9.98309 140.802 9.48792 140.355 9.07198C139.871 9.58695 139.263 10.068 138.618 10.3707L138.253 9.98874C138.983 9.70862 139.662 9.16818 140.106 8.66736C140.412 8.32498 140.715 7.82699 140.825 7.47612H139.17C138.994 7.47612 138.751 7.49876 138.677 7.50442V6.9951C138.768 7.00925 139.028 7.02623 139.17 7.02623H140.845C141.012 7.02623 141.162 7.00925 141.238 6.98096L141.532 7.19883C141.498 7.2441 141.43 7.35728 141.399 7.43368Z" fill="white"/>
<path d="M145.279 8.52005C145.279 8.80866 145.044 9.04351 144.755 9.04351C144.467 9.04351 144.232 8.80866 144.232 8.52005C144.232 8.23143 144.467 7.99658 144.755 7.99658C145.044 7.99658 145.279 8.23143 145.279 8.52005Z" fill="white"/>
<path d="M150.703 7.30371C150.559 7.67721 150.341 8.16106 150.052 8.58549C150.454 8.91371 150.842 9.2674 151.153 9.60412L150.791 10.0002C150.465 9.62675 150.129 9.30419 149.752 8.98162C149.342 9.48245 148.802 9.99742 148.024 10.4105L147.627 10.054C148.394 9.689 148.94 9.2193 149.382 8.6732C149.054 8.40723 148.584 8.05919 148.137 7.78473L148.434 7.42255C148.813 7.66306 149.314 8.00826 149.673 8.28556C149.939 7.89225 150.106 7.49046 150.236 7.12262C150.273 7.02359 150.313 6.8623 150.335 6.75195L150.859 6.93587C150.816 7.02642 150.737 7.20468 150.703 7.30371Z" fill="white"/>
<path d="M152.562 8.05602H155.516C155.61 8.05602 155.776 8.05036 155.895 8.03338V8.49742C155.788 8.49176 155.632 8.48893 155.516 8.48893H154.353C154.336 8.96712 154.246 9.36326 154.073 9.68865C153.912 9.99424 153.567 10.3281 153.176 10.5319L152.76 10.2263C153.094 10.0904 153.419 9.83013 153.595 9.55283C153.79 9.25007 153.847 8.89355 153.867 8.48893H152.562C152.426 8.48893 152.279 8.49459 152.152 8.50308V8.03338C152.276 8.04753 152.421 8.05602 152.562 8.05602ZM153.12 6.91855H154.645C154.783 6.91855 154.956 6.91006 155.095 6.89025V7.35429C154.95 7.3458 154.789 7.33732 154.645 7.33732H153.125C152.972 7.33732 152.805 7.3458 152.684 7.35429V6.89025C152.82 6.91006 152.972 6.91855 153.12 6.91855ZM155.711 7.16754L155.414 7.29487C155.324 7.11378 155.179 6.84498 155.058 6.67238L155.346 6.55071C155.457 6.71199 155.621 6.99211 155.711 7.16754ZM156.229 6.96948L155.935 7.09963C155.842 6.9044 155.692 6.64974 155.564 6.47714L155.853 6.35547C155.977 6.52807 156.147 6.80536 156.229 6.96948Z" fill="white"/>
<path d="M158.584 8.35347C159.011 8.08749 159.447 7.70267 159.679 7.41406L160.03 7.75644C159.803 7.99412 159.416 8.31951 159.014 8.58549V10.17C159.014 10.3143 159.02 10.5265 159.037 10.6029H158.513C158.522 10.5265 158.53 10.3143 158.53 10.17V8.87127C158.143 9.07499 157.625 9.2957 157.172 9.44L156.954 9.01557C157.551 8.88259 158.219 8.57417 158.584 8.35347Z" fill="white"/>
<path d="M165.19 7.3742C164.995 7.70242 164.568 8.27682 164.084 8.61919L163.71 8.31643C164.106 8.08724 164.5 7.64017 164.63 7.38269H162.157C161.976 7.38269 161.817 7.39683 161.625 7.41098V6.91016C161.792 6.93279 161.976 6.94977 162.157 6.94977H164.678C164.777 6.94977 164.981 6.93562 165.052 6.91864L165.335 7.18462C165.298 7.23555 165.224 7.32044 165.19 7.3742ZM162.262 10.4386L161.846 10.099C161.976 10.0538 162.134 9.98302 162.279 9.87833C162.924 9.46239 163.028 8.89365 163.028 8.14666C163.028 8.02499 163.023 7.91747 163 7.78448H163.515C163.515 8.96439 163.447 9.83023 162.262 10.4386Z" fill="white"/>
<path d="M166.503 8.05602H169.457C169.55 8.05602 169.717 8.05036 169.836 8.03338V8.49742C169.729 8.49176 169.573 8.48893 169.457 8.48893H168.294C168.277 8.96712 168.187 9.36326 168.014 9.68865C167.853 9.99424 167.508 10.3281 167.117 10.5319L166.701 10.2263C167.035 10.0904 167.36 9.83013 167.536 9.55283C167.731 9.25007 167.788 8.89355 167.807 8.48893H166.503C166.367 8.48893 166.22 8.49459 166.093 8.50308V8.03338C166.217 8.04753 166.362 8.05602 166.503 8.05602ZM167.06 6.91855H168.586C168.724 6.91855 168.897 6.91006 169.035 6.89025V7.35429C168.891 7.3458 168.73 7.33732 168.586 7.33732H167.066C166.913 7.33732 166.746 7.3458 166.625 7.35429V6.89025C166.758 6.91006 166.913 6.91855 167.06 6.91855ZM169.652 7.16754L169.355 7.29487C169.265 7.11378 169.12 6.84498 168.999 6.67238L169.287 6.55071C169.398 6.71199 169.562 6.99211 169.652 7.16754ZM170.17 6.96948L169.876 7.09963C169.782 6.9044 169.633 6.64974 169.505 6.47714L169.794 6.35547C169.918 6.52807 170.088 6.80536 170.17 6.96948Z" fill="white"/>
<path d="M172.287 10.5517L171.902 10.1952C172.745 9.88393 173.144 9.49628 173.144 8.29939V8.1183H171.959V8.79456C171.959 8.97565 171.973 9.16806 171.976 9.23314H171.475C171.483 9.17089 171.498 8.98131 171.498 8.79456V8.1183H171.056C170.844 8.1183 170.66 8.12679 170.586 8.13245V7.64577C170.646 7.65426 170.847 7.68256 171.056 7.68256H171.498V7.15909C171.498 7.05157 171.489 6.91575 171.475 6.79691H171.981C171.973 6.85916 171.959 6.99498 171.959 7.16192V7.67973H173.144V7.15626C173.144 6.97517 173.13 6.82804 173.122 6.76296H173.631C173.625 6.82521 173.608 6.97517 173.608 7.15626V7.67973H174.027C174.248 7.67973 174.392 7.66558 174.477 7.65143V8.12962C174.409 8.12113 174.248 8.11547 174.03 8.11547H173.606V8.26827C173.608 9.43686 173.342 10.082 172.287 10.5517ZM174.27 7.38262L174.01 7.47317C173.942 7.27793 173.852 7.02327 173.761 6.84501L174.019 6.76296C174.101 6.93273 174.214 7.20719 174.27 7.38262ZM174.732 7.24398L174.471 7.32886C174.403 7.1308 174.31 6.87897 174.22 6.70071L174.477 6.61865C174.559 6.79408 174.672 7.06289 174.732 7.24398Z" fill="white"/>
<path d="M177.341 7.72181C177.81 7.43319 178.288 7.01442 178.594 6.64941L178.973 7.01159C178.631 7.35962 178.206 7.70766 177.759 7.9991V9.87225C177.759 10.0562 177.768 10.3052 177.79 10.4042H177.23C177.244 10.3052 177.258 10.0562 177.258 9.87225V8.30186C176.786 8.55934 176.189 8.81966 175.595 9.00075L175.374 8.55369C176.161 8.34147 176.84 8.03305 177.341 7.72181Z" fill="white"/>
<path d="M182.035 9.26176C182.762 8.81469 183.325 8.13843 183.599 7.56121L183.874 8.05355C183.549 8.63926 182.994 9.25327 182.289 9.68619C181.834 9.96631 181.259 10.2323 180.561 10.3596L180.258 9.89557C181.016 9.77956 181.602 9.52773 182.035 9.26176ZM181.882 7.8187L181.525 8.18371C181.291 7.94603 180.73 7.45369 180.396 7.22733L180.725 6.87646C181.044 7.08585 181.63 7.55555 181.882 7.8187Z" fill="white"/>
<path d="M185.591 7.12253H187.835C187.957 7.12253 188.115 7.11687 188.197 7.11404C188.192 7.21308 188.189 7.37436 188.189 7.4932V9.82473C188.189 9.98319 188.197 10.2039 188.206 10.3029H187.691C187.691 10.2407 187.697 10.153 187.697 10.0596H185.558C185.374 10.0596 185.147 10.0681 185.017 10.0766V9.56725C185.147 9.57573 185.345 9.58988 185.541 9.58988H187.702V7.57809H185.594C185.419 7.57809 185.187 7.58658 185.071 7.59506V7.09424C185.226 7.10839 185.442 7.12253 185.591 7.12253Z" fill="white"/>
<path d="M190.079 8.25095H192.532C192.75 8.25095 192.925 8.23397 193.038 8.22266V8.7829C192.939 8.77724 192.733 8.76027 192.532 8.76027H190.079C189.83 8.76027 189.561 8.76875 189.405 8.7829V8.22266C189.555 8.23114 189.835 8.25095 190.079 8.25095Z" fill="white"/>
<path d="M197.164 7.43368C197.005 7.80435 196.739 8.31366 196.422 8.71829C196.886 9.11442 197.432 9.6973 197.712 10.0397L197.316 10.3905C197.019 9.98309 196.566 9.48792 196.119 9.07198C195.636 9.58695 195.027 10.068 194.382 10.3707L194.017 9.98874C194.747 9.70862 195.426 9.16818 195.87 8.66736C196.176 8.32498 196.479 7.82699 196.589 7.47612H194.934C194.758 7.47612 194.515 7.49876 194.442 7.50442V6.9951C194.532 7.00925 194.792 7.02623 194.934 7.02623H196.609C196.776 7.02623 196.926 7.00925 197.002 6.98096L197.297 7.19883C197.263 7.2441 197.195 7.35728 197.164 7.43368Z" fill="white"/>
<path d="M112.278 51.6447H103.17C103.108 49.2396 104.401 47.5334 107.901 45.4084C109.964 44.104 110.507 43.4447 110.507 42.1799C110.507 40.7765 109.466 39.7946 107.986 39.7946C106.84 39.7946 105.963 40.3549 105.609 41.2999C105.485 41.6819 105.442 42.0413 105.442 43.0231H103.586V42.5223C103.586 41.1585 103.877 40.236 104.565 39.4947C105.357 38.5921 106.566 38.1309 108.045 38.1309C110.671 38.1309 112.442 39.755 112.442 42.1601C112.442 43.323 112.027 44.3049 111.212 45.1283C110.649 45.6885 110.377 45.8894 108.334 47.1542C106.897 48.0766 105.728 49.2198 105.479 49.9809H112.276V51.6447H112.278Z" fill="white"/>
<path d="M124.346 40.3346C125.034 41.5569 125.325 42.9802 125.325 45.1052C125.325 47.0292 125.014 48.5147 124.346 49.6975C123.554 51.0811 122.137 51.9017 120.532 51.9017C118.948 51.9017 117.53 51.0783 116.738 49.6975C116.07 48.4751 115.759 47.0519 115.759 45.0061C115.759 42.9802 116.07 41.4975 116.738 40.3346C117.55 38.9509 118.948 38.1304 120.532 38.1304C122.159 38.1275 123.554 38.9311 124.346 40.3346ZM118.28 41.3362C117.884 42.2389 117.697 43.3622 117.697 45.0061C117.697 46.6501 117.884 47.7932 118.28 48.6958C118.718 49.6381 119.573 50.2408 120.552 50.2408C121.511 50.2408 122.386 49.6409 122.804 48.6958C123.2 47.7932 123.387 46.6699 123.387 45.0882C123.387 43.365 123.22 42.2219 122.804 41.3391C122.366 40.377 121.491 39.7941 120.532 39.7941C119.573 39.7941 118.718 40.3742 118.28 41.3362Z" fill="white"/>
<path d="M138.061 51.6447H128.953C128.891 49.2396 130.184 47.5334 133.684 45.4084C135.747 44.104 136.29 43.4447 136.29 42.1799C136.29 40.7765 135.249 39.7946 133.769 39.7946C132.623 39.7946 131.746 40.3549 131.392 41.2999C131.267 41.6819 131.225 42.0413 131.225 43.0231H129.369V42.5223C129.369 41.1585 129.66 40.236 130.348 39.4947C131.14 38.5921 132.348 38.1309 133.828 38.1309C136.454 38.1309 138.225 39.755 138.225 42.1601C138.225 43.323 137.809 44.3049 136.994 45.1283C136.431 45.6885 136.16 45.8894 134.117 47.1542C132.679 48.0766 131.511 49.2198 131.262 49.9809H138.058V51.6447H138.061Z" fill="white"/>
<path d="M150.423 51.6447H141.315C141.252 49.2396 142.545 47.5334 146.046 45.4084C148.108 44.104 148.652 43.4447 148.652 42.1799C148.652 40.7765 147.61 39.7946 146.13 39.7946C144.985 39.7946 144.107 40.3549 143.754 41.2999C143.629 41.6819 143.587 42.0413 143.587 43.0231H141.731V42.5223C141.731 41.1585 142.022 40.236 142.71 39.4947C143.502 38.5921 144.71 38.1309 146.19 38.1309C148.816 38.1309 150.587 39.755 150.587 42.1601C150.587 43.323 150.171 44.3049 149.356 45.1283C148.793 45.6885 148.521 45.8894 146.479 47.1542C145.041 48.0766 143.873 49.2198 143.624 49.9809H150.42V51.6447H150.423Z" fill="white"/>
<path d="M156.3 51.3755H154.368V49.5703H156.3V51.3755Z" fill="white"/>
<path d="M174.253 51.5764H161.41C161.323 48.1838 163.145 45.7815 168.082 42.7851C170.991 40.9487 171.755 40.0149 171.755 38.2323C171.755 36.2545 170.286 34.868 168.198 34.868C166.583 34.868 165.346 35.6603 164.848 36.9874C164.673 37.525 164.613 38.0343 164.613 39.4179H161.999V38.7105C161.999 36.7893 162.409 35.4877 163.38 34.4408C164.497 33.1675 166.201 32.5195 168.289 32.5195C171.993 32.5195 174.491 34.8086 174.491 38.2012C174.491 39.8423 173.903 41.226 172.757 42.3861C171.964 43.1784 171.582 43.4613 168.702 45.2411C166.673 46.5427 165.029 48.1527 164.676 49.2279H174.256V51.5764H174.253Z" fill="white"/>
<path d="M179.38 51.3755H177.448V49.5703H179.38V51.3755Z" fill="white"/>
<path d="M191.214 51.5769H188.628V38.1762H184.191V36.3398C186.718 36.4247 188.746 35.0383 189.216 32.9189H191.214V51.5769Z" fill="white"/>
<path d="M208.525 46.2062C208.525 49.5139 205.675 51.9444 201.853 51.9444C198.002 51.9444 195.152 49.4856 195.152 46.2062C195.152 44.0868 196.239 42.474 198.474 41.2884C196.859 40.383 196.035 39.0276 196.035 37.3582C196.035 34.5598 198.474 32.5254 201.855 32.5254C205.206 32.5254 207.645 34.5598 207.645 37.3582C207.645 39.0276 206.821 40.383 205.206 41.2884C207.438 42.474 208.525 44.0868 208.525 46.2062ZM197.886 46.0647C197.886 48.1557 199.501 49.5988 201.853 49.5988C204.145 49.5988 205.791 48.1557 205.791 46.1213C205.791 44.002 204.204 42.5589 201.824 42.5589C199.501 42.5589 197.886 44.002 197.886 46.0647ZM198.678 37.5563C198.678 39.1408 199.971 40.2415 201.853 40.2415C203.675 40.2415 204.996 39.138 204.996 37.5846C204.996 35.9718 203.731 34.8711 201.822 34.8711C199.971 34.8682 198.678 35.9718 198.678 37.5563Z" fill="white"/>
<path d="M218.799 44.4969H214.173V47.1029H218.058V48.147H214.173V52.1083H212.934V43.416H218.799V44.4969Z" fill="white"/>
<path d="M221.561 45.8124V46.8027C221.81 46.4377 221.911 46.2934 222.081 46.1377C222.367 45.8378 222.825 45.6426 223.202 45.6426C223.436 45.6426 223.657 45.6935 223.867 45.7982V46.8791C223.618 46.8281 223.487 46.814 223.32 46.814C222.356 46.814 221.614 47.6742 221.614 48.7947V52.1052H220.415V45.8095H221.561V45.8124Z" fill="white"/>
<path d="M226.736 44.811H225.536V43.416H226.736V44.811ZM226.736 52.1083H225.536V45.8126H226.736V52.1083Z" fill="white"/>
<path d="M243.464 43.1754H235.218V42.1709H243.464V43.1754Z" fill="white"/>
<path d="M265.028 51.6161H252.133C252.046 48.2093 253.874 45.7957 258.831 42.7851C261.751 40.9403 262.521 40.0037 262.521 38.2126C262.521 36.2263 261.046 34.8341 258.95 34.8341C257.326 34.8341 256.086 35.6292 255.585 36.9648C255.407 37.5052 255.351 38.0145 255.351 39.4067H252.725V38.6965C252.725 36.7667 253.138 35.4595 254.111 34.4097C255.232 33.1336 256.944 32.48 259.04 32.48C262.758 32.48 265.268 34.7804 265.268 38.1871C265.268 39.8339 264.677 41.226 263.528 42.389C262.73 43.1841 262.348 43.467 259.456 45.2553C257.419 46.5625 255.766 48.1782 255.413 49.2591H265.033V51.6161H265.028Z" fill="white"/>
<path d="M280.964 35.6038C281.937 37.3355 282.35 39.3529 282.35 42.3607C282.35 45.0855 281.909 47.1879 280.964 48.8629C279.843 50.821 277.837 51.9867 275.562 51.9867C273.318 51.9867 271.312 50.8238 270.192 48.8629C269.247 47.1313 268.805 45.1138 268.805 42.2192C268.805 39.3529 269.247 37.2506 270.192 35.6038C271.343 33.6457 273.321 32.48 275.562 32.48C277.865 32.48 279.843 33.6175 280.964 35.6038ZM272.379 37.0242C271.819 38.3031 271.553 39.8905 271.553 42.2192C271.553 44.5479 271.819 46.1664 272.379 47.4425C272.999 48.7781 274.21 49.6297 275.596 49.6297C276.954 49.6297 278.194 48.7781 278.782 47.4425C279.342 46.1636 279.608 44.5762 279.608 42.3324C279.608 39.8905 279.373 38.272 278.782 37.0242C278.162 35.6604 276.923 34.837 275.565 34.837C274.207 34.837 272.999 35.6604 272.379 37.0242Z" fill="white"/>
<path d="M292.052 46.1013C291.922 44.9015 291.206 44.3158 289.888 44.3158C288.727 44.3158 287.983 44.811 287.983 45.5665C287.983 46.206 288.439 46.5823 289.548 46.8313L290.954 47.1454C291.984 47.3802 292.505 47.6009 292.924 47.9801C293.379 48.3847 293.628 48.9704 293.628 49.6495C293.628 51.2906 292.298 52.3092 290.187 52.3092C287.932 52.3092 286.577 51.1633 286.393 49.0779H287.683C287.814 50.4587 288.727 51.2284 290.224 51.2284C291.475 51.2284 292.361 50.6144 292.361 49.7429C292.361 49.0921 291.891 48.662 290.98 48.4385L289.025 47.9688C287.434 47.5896 286.718 46.8879 286.718 45.7136C286.718 44.1885 287.983 43.2236 289.978 43.2236C291.973 43.2236 293.042 44.1489 293.314 46.1041H292.052V46.1013Z" fill="white"/>
<path d="M299.35 52.1082V51.3923C298.725 52.0573 298.215 52.278 297.355 52.278C296.611 52.278 296 52.029 295.649 51.5876C295.349 51.1971 295.233 50.7529 295.233 50.0228V45.8125H296.433V49.9323C296.433 50.7925 296.823 51.2084 297.644 51.2084C298.674 51.2084 299.299 50.6085 299.299 49.6324V45.8125H300.499V52.1082H299.35Z" fill="white"/>
<path d="M303.769 45.8124V46.5282C304.395 45.8633 304.904 45.6426 305.764 45.6426C306.506 45.6426 307.12 45.8916 307.47 46.333C307.77 46.7235 307.886 47.1677 307.886 47.8977V52.108H306.687V47.9883C306.687 47.1281 306.296 46.7121 305.476 46.7121C304.446 46.7121 303.82 47.312 303.82 48.2882V52.108H302.621V45.8124H303.769Z" fill="white"/>
</svg>
