<?xml version="1.0" encoding="utf-8"?>
<!-- Generator: Adobe Illustrator 25.0.1, SVG Export Plug-In . SVG Version: 6.00 Build 0)  -->
<svg version="1.1" xmlns="http://www.w3.org/2000/svg" xmlns:xlink="http://www.w3.org/1999/xlink" x="0px" y="0px"
	 viewBox="0 0 1020.47 510.24" style="enable-background:new 0 0 1020.47 510.24;" xml:space="preserve">
<style type="text/css">
	.st0{fill:#FFFFFF;}
</style>
<g id="レイヤー_2">
</g>
<g id="レイヤー_3">
</g>
<g id="レイヤー_4">
	<g>
		<g>
			<path class="st0" d="M58.9,145.19c0.14-0.25,0.31-0.48,0.5-0.62c0.14-0.11,0.2-0.22,0.2-0.34c0-0.17-0.06-0.25-0.34-0.39
				c-0.45-0.2-1.09-0.42-1.71-0.59c-0.08,0.59-0.2,1.01-0.48,1.59c-1.57,3.5-4.61,7.3-8.73,9.76c0.36,0.2,0.7,0.53,0.98,0.95
				c0.2,0.25,0.25,0.36,0.39,0.36c0.08,0,0.2-0.08,0.42-0.25C54.07,152.85,56.64,149.75,58.9,145.19"/>
			<path class="st0" d="M64.75,143.4c-0.11-0.22-0.17-0.22-0.5-0.06l-0.78,0.34c-0.31,0.14-0.36,0.17-0.28,0.39
				c1.99,4.39,5.29,8.47,9.59,11.47c0.2,0.14,0.31,0.22,0.39,0.22c0.11,0,0.2-0.11,0.36-0.39c0.25-0.42,0.59-0.87,0.92-1.12
				C70.17,151.73,66.71,147.82,64.75,143.4"/>
			<path class="st0" d="M65.2,156.99c-0.17-0.17-0.2-0.17-0.48,0.03l-0.73,0.45c-0.34,0.22-0.42,0.28-0.28,0.45
				c1.34,1.62,2.49,3.16,3.52,4.78c-3.16,0.42-6.99,0.84-10.43,1.12c1.51-3.33,2.88-6.91,3.89-9.7c0.25-0.73,0.45-1.06,0.67-1.37
				c0.14-0.17,0.2-0.22,0.2-0.39c0-0.14-0.14-0.28-0.36-0.36c-0.53-0.2-1.12-0.36-1.79-0.53c-0.11,0.89-0.34,1.68-0.75,2.96
				c-0.73,2.29-2.13,5.96-3.78,9.56c-0.28,0-0.56,0.03-0.84,0.03c-1.23,0.08-2.21,0.11-3.1,0.06c0.14,0.7,0.31,1.34,0.48,1.85
				c0.06,0.22,0.17,0.34,0.28,0.34c0.14,0,0.22-0.06,0.36-0.14c0.22-0.14,0.5-0.25,1.12-0.31c4.92-0.45,10.46-1.01,14.93-1.71
				c0.5,0.84,0.98,1.71,1.48,2.66c0.11,0.22,0.17,0.2,0.56,0l0.87-0.5c0.36-0.2,0.39-0.25,0.28-0.42
				C69.25,162.31,67.71,159.98,65.2,156.99"/>
			<path class="st0" d="M102.92,149.41c0.2,0,0.22-0.03,0.22-0.25v-1.34c0-0.2-0.03-0.22-0.22-0.22c-0.14,0-1.06,0.06-3.86,0.06
				H92.8v-2.32c0-1.2,0.06-1.68,0.17-1.93c0.08-0.2,0.14-0.31,0.14-0.5c0-0.11-0.14-0.22-0.36-0.25c-0.62-0.08-1.03-0.11-1.93-0.14
				c0.14,0.67,0.2,1.43,0.2,2.82v2.32H85.3c-2.77,0-3.69-0.06-3.86-0.06c-0.2,0-0.22,0.03-0.22,0.22v1.34
				c0,0.22,0.03,0.25,0.22,0.25c0.17,0,1.09-0.06,3.86-0.06h13.76C101.86,149.36,102.78,149.41,102.92,149.41"/>
			<path class="st0" d="M86.17,151.48l-0.92,0.31c-0.39,0.14-0.42,0.17-0.34,0.36c1.2,3.1,2.04,5.96,2.69,9.7
				c0.06,0.25,0.11,0.28,0.53,0.17l0.98-0.28c0.34-0.08,0.34-0.17,0.31-0.36c-0.7-3.8-1.68-6.88-2.85-9.82
				C86.5,151.4,86.45,151.4,86.17,151.48"/>
			<path class="st0" d="M104.32,163.9c-0.17,0-1.01,0.06-3.64,0.06H95.2c1.45-3.38,2.55-6.6,3.55-10.07
				c0.17-0.59,0.31-0.98,0.53-1.23c0.11-0.14,0.25-0.31,0.25-0.48c0-0.14-0.06-0.22-0.28-0.31c-0.64-0.25-1.23-0.42-1.96-0.62
				c-0.08,0.92-0.22,1.65-0.56,2.91c-0.78,2.88-1.85,6.24-3.36,9.79h-9.76c-2.6,0-3.47-0.06-3.61-0.06c-0.2,0-0.22,0.03-0.22,0.22
				v1.4c0,0.2,0.03,0.22,0.22,0.22c0.14,0,1.01-0.06,3.61-0.06h17.06c2.63,0,3.47,0.06,3.64,0.06c0.2,0,0.22-0.03,0.22-0.22v-1.4
				C104.54,163.93,104.51,163.9,104.32,163.9"/>
			<path class="st0" d="M123.83,151.9h6.99c2.69,0,3.58,0.06,3.72,0.06c0.2,0,0.22-0.03,0.22-0.25v-1.29c0-0.2-0.03-0.22-0.22-0.22
				c-0.14,0-1.03,0.06-3.72,0.06h-7.52c0.17-1.46,0.25-2.96,0.28-4.53c0.03-1.29,0.08-1.82,0.22-2.1c0.08-0.2,0.17-0.31,0.17-0.53
				c0-0.14-0.11-0.25-0.39-0.31c-0.56-0.08-1.34-0.14-1.99-0.17c0.14,0.84,0.17,1.59,0.14,3.16c-0.03,1.59-0.08,3.08-0.22,4.48h-6.6
				c-2.69,0-3.58-0.06-3.72-0.06c-0.2,0-0.22,0.03-0.22,0.22v1.29c0,0.22,0.03,0.25,0.22,0.25c0.14,0,1.03-0.06,3.72-0.06h6.4
				c-0.31,2.01-0.81,3.8-1.62,5.48c-1.62,3.36-4.59,6.32-9.31,8.28c0.36,0.25,0.73,0.56,1.03,0.95c0.2,0.28,0.28,0.39,0.42,0.39
				c0.11,0,0.22-0.06,0.45-0.14c4.31-2.15,7.1-4.81,9.03-8.78c0.67-1.4,1.17-2.99,1.54-4.73c1.82,6.01,5.87,10.88,10.71,13.42
				c0.2,0.11,0.34,0.17,0.42,0.17c0.14,0,0.22-0.11,0.39-0.42c0.28-0.45,0.64-0.87,1.01-1.17
				C129.71,163.12,125.62,157.75,123.83,151.9"/>
			<path class="st0" d="M165.72,157.89c-0.14,0-1.01,0.06-3.64,0.06h-7.44v-0.34c0-0.45,0-0.76,0.03-0.95
				c1.76-1.01,3.19-1.93,4.31-2.82c0.64-0.53,0.89-0.64,1.17-0.73c0.17-0.06,0.28-0.17,0.28-0.36c0-0.2-0.17-0.48-0.56-0.87
				c-0.45-0.45-0.62-0.59-0.78-0.59c-0.11,0-0.2,0.03-0.28,0.06c-0.08,0.03-0.28,0.06-0.73,0.06h-7.83c-2.63,0-3.5-0.06-3.64-0.06
				c-0.2,0-0.22,0.03-0.22,0.22v1.15c0,0.2,0.03,0.22,0.22,0.22c0.14,0,1.01-0.06,3.64-0.06h7.52c-1.15,0.98-2.29,1.79-3.64,2.57
				c-0.42-0.11-0.89-0.2-1.43-0.28c0.14,0.7,0.2,1.54,0.2,2.77h-7.64c-2.63,0-3.5-0.06-3.64-0.06c-0.2,0-0.22,0.03-0.22,0.22v1.23
				c0,0.2,0.03,0.22,0.22,0.22c0.14,0,1.01-0.06,3.64-0.06h7.64v4.84c0,0.89-0.42,1.09-1.23,1.09c-1.15,0-1.93-0.06-2.91-0.17
				c0.25,0.34,0.45,0.87,0.59,1.29c0.14,0.56,0.14,0.53,0.67,0.53c2.6,0.06,3.3-0.08,3.89-0.45c0.56-0.39,0.76-0.84,0.76-1.82
				c0-0.67-0.03-1.82-0.03-2.41v-2.91h7.44c2.63,0,3.5,0.06,3.64,0.06c0.2,0,0.22-0.03,0.22-0.22v-1.23
				C165.95,157.91,165.92,157.89,165.72,157.89"/>
			<path class="st0" d="M146.43,147.29c-2.71,0-3.69-0.06-3.86-0.06c-0.2,0-0.22,0.03-0.22,0.2c0,0.17,0.06,0.59,0.06,1.54v0.98
				c0,2.46-0.06,2.82-0.06,2.99c0,0.2,0.03,0.22,0.22,0.22h1.29c0.2,0,0.22-0.03,0.22-0.22v-4.17h19.27v4.17
				c0,0.2,0.03,0.22,0.22,0.22h1.26c0.22,0,0.25-0.03,0.25-0.22c0-0.14-0.06-0.5-0.06-2.99v-1.15c0-0.78,0.06-1.23,0.06-1.37
				c0-0.17-0.03-0.2-0.25-0.2c-0.14,0-1.12,0.06-3.86,0.06h-1.17c0.7-1.03,1.17-1.87,1.68-2.82c0.14-0.25,0.36-0.53,0.53-0.64
				c0.14-0.08,0.2-0.2,0.2-0.31c0-0.14-0.08-0.25-0.31-0.36c-0.45-0.22-1.03-0.45-1.65-0.59c-0.08,0.53-0.22,0.98-0.36,1.29
				c-0.5,1.2-1.03,2.27-1.82,3.44H146.43z"/>
			<path class="st0" d="M147.43,146.84c0.08,0,0.17-0.06,0.36-0.14l0.75-0.36c0.34-0.17,0.36-0.17,0.25-0.36
				c-0.61-1.09-1.29-2.13-2.1-3.13c-0.14-0.17-0.22-0.17-0.53-0.03l-0.7,0.31c-0.34,0.14-0.36,0.22-0.25,0.36
				c0.73,0.89,1.54,2.1,2.04,3.16C147.32,146.78,147.35,146.84,147.43,146.84"/>
			<path class="st0" d="M153.92,146.36l0.76-0.28c0.36-0.17,0.39-0.17,0.31-0.36c-0.45-1.12-1.03-2.27-1.73-3.3
				c-0.11-0.17-0.2-0.17-0.48-0.06l-0.76,0.25c-0.31,0.11-0.39,0.17-0.25,0.36c0.64,1.01,1.17,1.93,1.62,3.3
				C153.47,146.53,153.53,146.53,153.92,146.36"/>
			<path class="st0" d="M178.5,146.03c-1.09-1.15-2.41-2.18-3.72-3.02c-0.17-0.11-0.25-0.08-0.45,0.14l-0.62,0.64
				c-0.25,0.25-0.25,0.31-0.08,0.42c1.15,0.73,2.6,1.99,3.72,3.22c0.17,0.17,0.22,0.14,0.45-0.11l0.62-0.75
				C178.64,146.31,178.64,146.2,178.5,146.03"/>
			<path class="st0" d="M196.59,154.73c-0.17,0-1.15,0.06-3.97,0.06h-4.81v-5.09h3.52c2.74,0,3.66,0.06,3.8,0.06
				c0.2,0,0.22-0.03,0.22-0.22v-1.17c0-0.2-0.03-0.22-0.22-0.22c-0.14,0-1.06,0.06-3.8,0.06h-3.52v-2.07c0-1.68,0.08-2.43,0.17-2.69
				c0.08-0.22,0.14-0.33,0.14-0.5c0-0.11-0.14-0.22-0.34-0.25c-0.62-0.08-1.09-0.11-1.82-0.14c0.14,0.98,0.17,1.76,0.17,3.64v2.01
				h-2.41c-2.74,0-3.64-0.06-3.78-0.06c-0.2,0-0.22,0.03-0.22,0.22v1.17c0,0.2,0.03,0.22,0.22,0.22c0.14,0,1.03-0.06,3.78-0.06h2.41
				v5.09h-3.72c-2.82,0-3.8-0.06-3.97-0.06c-0.2,0-0.22,0.03-0.22,0.22v1.17c0,0.22,0.03,0.25,0.22,0.25c0.17,0,1.15-0.06,3.97-0.06
				h2.43c-0.78,2.94-1.76,5.45-2.83,7.86l-1.01,0.08c-0.81,0.06-1.71,0.08-2.85,0.08c0.11,0.59,0.28,1.2,0.45,1.76
				c0.06,0.2,0.2,0.36,0.36,0.36c0.17,0,0.28-0.11,0.45-0.2c0.14-0.08,0.36-0.17,1.15-0.25c4.7-0.53,8.47-1.01,12.89-1.73
				c0.53,0.81,1.03,1.68,1.51,2.57c0.08,0.2,0.14,0.2,0.5-0.06l0.78-0.5c0.28-0.2,0.28-0.25,0.2-0.42
				c-1.59-2.68-3.19-4.92-5.17-7.08c-0.11-0.11-0.2-0.11-0.39,0.03l-0.7,0.42c-0.31,0.2-0.34,0.28-0.17,0.45
				c0.89,1.03,1.76,2.1,2.54,3.22c-2.88,0.45-5.59,0.81-8.7,1.09c0.98-2.18,1.96-4.75,2.85-7.69h5.9c2.82,0,3.8,0.06,3.97,0.06
				c0.17,0,0.2-0.03,0.2-0.25v-1.17C196.79,154.75,196.76,154.73,196.59,154.73"/>
			<path class="st0" d="M176.35,154.03l0.67-0.78c0.17-0.2,0.17-0.25,0.03-0.39c-1.23-1.17-2.6-2.13-3.94-2.94
				c-0.17-0.08-0.28-0.08-0.45,0.14l-0.59,0.7c-0.2,0.22-0.22,0.28-0.03,0.39c1.26,0.78,2.69,1.87,3.83,3.08
				C176.04,154.39,176.07,154.36,176.35,154.03"/>
			<path class="st0" d="M177.13,158.31c-0.39-0.28-0.67-0.48-0.95-0.84c-0.78,2.77-1.68,5.01-2.55,6.71
				c-0.42,0.84-0.73,1.4-1.26,2.07c0.5,0.39,0.87,0.64,1.34,0.92c0.2,0.11,0.31,0.14,0.42,0.14c0.11,0,0.2-0.14,0.22-0.33
				c0.03-0.25,0.22-0.67,0.48-1.26c0.84-1.96,1.79-4.28,2.55-6.57C177.55,158.59,177.55,158.56,177.13,158.31"/>
			<path class="st0" d="M215.92,147.18c0.03-0.48,0.03-0.95,0.03-1.45c0-0.7,0.11-1.26,0.25-1.57c0.08-0.2,0.17-0.34,0.17-0.56
				c0-0.17-0.17-0.28-0.39-0.34c-0.62-0.11-1.43-0.2-2.1-0.22c0.14,0.98,0.17,1.79,0.2,3.33c0.11,8.03-3.75,15.35-11.24,18.96
				c0.36,0.25,0.73,0.59,1.03,1.01c0.2,0.28,0.28,0.42,0.39,0.42c0.11,0,0.22-0.08,0.42-0.2c5.68-3.22,9.48-8.36,10.66-15.38
				c1.03,5.62,4.06,11.35,10.4,15.41c0.2,0.14,0.31,0.2,0.42,0.2c0.11,0,0.2-0.11,0.36-0.39c0.25-0.45,0.59-0.84,0.98-1.15
				C220.17,161.1,217.03,154.7,215.92,147.18"/>
			<path class="st0" d="M266.14,159.12c0-0.22-0.03-0.25-0.22-0.25c-0.17,0-1.15,0.06-3.97,0.06h-5.9c0.42-0.92,0.78-1.9,1.15-3.08
				h2.63c2.63,0,3.55,0.06,3.69,0.06c0.2,0,0.22-0.03,0.22-0.22c0-0.14-0.06-0.62-0.06-2.07v-2.07c0-1.43,0.06-1.9,0.06-2.04
				c0-0.2-0.03-0.22-0.22-0.22c-0.14,0-1.06,0.06-3.69,0.06h-6.24c-2.63,0-3.52-0.06-3.69-0.06c-0.2,0-0.22,0.03-0.22,0.22
				c0,0.14,0.06,0.62,0.06,2.04v2.07c0,1.45-0.06,1.93-0.06,2.07c0,0.2,0.03,0.22,0.22,0.22c0.17,0,1.06-0.06,3.69-0.06h1.85
				c-0.28,0.95-0.7,2.04-1.17,3.08h-2.71c-2.85,0-3.86-0.06-4-0.06c-0.2,0-0.22,0.03-0.22,0.25c0,0.14,0.06,0.73,0.06,2.41v1.65
				c0,3.41-0.06,3.94-0.06,4.11s0.03,0.2,0.22,0.2h1.32c0.17,0,0.2-0.03,0.2-0.2v-1.17h15.35v1.06c0,0.17,0.03,0.2,0.22,0.2h1.29
				c0.2,0,0.22-0.03,0.22-0.2s-0.06-0.7-0.06-4.08v-1.87C266.08,159.84,266.14,159.26,266.14,159.12 M251.34,150.7h10.71v3.8h-10.71
				V150.7z M264.4,164.65h-15.35v-4.31h15.35V164.65z"/>
			<path class="st0" d="M268.01,145.55c0-0.2-0.03-0.22-0.22-0.22c-0.17,0-1.12,0.06-3.86,0.06h-6.6v-0.39
				c0-1.26,0.03-1.68,0.14-1.96c0.06-0.2,0.14-0.31,0.14-0.5c0-0.11-0.11-0.22-0.34-0.25c-0.53-0.06-1.15-0.08-1.82-0.11
				c0.17,0.67,0.2,1.4,0.2,2.85v0.36h-6.13c-2.74,0-3.69-0.06-3.86-0.06c-0.2,0-0.22,0.03-0.22,0.22c0,0.14,0.06,0.56,0.06,1.51
				v0.95c0,2.49-0.06,2.83-0.06,2.96c0,0.2,0.03,0.22,0.22,0.22h1.29c0.2,0,0.22-0.03,0.22-0.22v-4.11h19.1v4.11
				c0,0.2,0.03,0.22,0.22,0.22h1.29c0.2,0,0.22-0.03,0.22-0.22c0-0.14-0.06-0.5-0.06-2.96v-1.12
				C267.96,146.11,268.01,145.69,268.01,145.55"/>
			<path class="st0" d="M297.46,146.42c0.08,0,0.17-0.06,0.34-0.17l0.53-0.36c0.34-0.22,0.36-0.28,0.25-0.45
				c-0.64-0.92-1.31-1.73-2.1-2.43c-0.17-0.17-0.17-0.2-0.48,0l-0.56,0.34c-0.34,0.2-0.36,0.25-0.2,0.39
				c0.73,0.7,1.43,1.57,2.01,2.49C297.34,146.34,297.37,146.42,297.46,146.42"/>
			<path class="st0" d="M282.3,159.26c0-0.39,0.03-0.76,0.11-1.06c-0.84,0.48-1.71,0.89-2.57,1.26v-8.11h0.2
				c1.76,0,2.27,0.06,2.43,0.06c0.2,0,0.22-0.03,0.22-0.22V150c0-0.2-0.03-0.22-0.22-0.22c-0.17,0-0.67,0.06-2.43,0.06h-0.2v-3.36
				c0-1.87,0.08-2.57,0.17-2.91c0.08-0.2,0.14-0.34,0.14-0.48c0-0.14-0.14-0.22-0.34-0.25c-0.53-0.08-1.09-0.14-1.82-0.17
				c0.2,1.09,0.22,1.87,0.22,3.86v3.3h-0.45c-1.79,0-2.29-0.06-2.43-0.06c-0.2,0-0.22,0.03-0.22,0.22v1.17
				c0,0.2,0.03,0.22,0.22,0.22c0.14,0,0.64-0.06,2.43-0.06h0.45v8.75l-1.12,0.36c-0.87,0.28-1.45,0.39-2.24,0.5
				c0.14,0.56,0.31,1.09,0.48,1.54c0.08,0.2,0.2,0.31,0.31,0.31c0.14,0,0.25-0.11,0.36-0.2c0.11-0.08,0.36-0.22,0.95-0.45
				c1.65-0.59,3.38-1.32,4.84-2.1C282.3,159.79,282.3,159.84,282.3,159.26"/>
			<path class="st0" d="M300.06,161.63c-0.34-0.17-0.73-0.39-0.98-0.7c-0.17,2.41-0.39,3.89-0.92,3.89c-0.67,0-1.96-1.4-2.96-4.59
				c0.98-1.65,1.82-3.58,2.55-5.99c0.28-0.95,0.39-1.32,0.59-1.57c0.14-0.2,0.22-0.31,0.22-0.45c0-0.17-0.11-0.31-0.34-0.39
				c-0.45-0.2-0.89-0.34-1.51-0.5c-0.08,0.92-0.25,1.79-0.5,2.71c-0.45,1.57-0.95,2.96-1.59,4.19c-0.73-2.8-1.12-5.87-1.29-9.54
				h2.32c2.74,0,3.66,0.06,3.83,0.06c0.2,0,0.22-0.03,0.22-0.22v-1.17c0-0.2-0.03-0.2-0.22-0.2c-0.17,0-1.09,0.03-3.83,0.03h-2.38
				v-1.9c0-1.34,0.08-1.82,0.17-2.01c0.08-0.2,0.14-0.36,0.14-0.53c0-0.11-0.08-0.22-0.36-0.28c-0.59-0.11-1.12-0.17-1.73-0.2
				c0.14,1.03,0.17,2.32,0.17,3.44c0,0.5,0,1.01,0.03,1.48h-3.97c-2.74,0-3.72-0.03-3.86-0.03c-0.2,0-0.22,0-0.22,0.2
				c0,0.17,0.06,1.01,0.06,3.16c0,2.94-0.03,5.51-0.42,8c-0.5,3.1-1.93,5.73-3.72,7.61c0.36,0.14,0.76,0.36,1.09,0.64
				c0.2,0.17,0.28,0.28,0.39,0.28c0.08,0,0.17-0.11,0.31-0.34c1.57-2.01,2.99-4.81,3.47-7.61c0.28-1.71,0.42-3.33,0.48-5.06h3.5
				c0,2.38-0.25,4.73-0.45,5.54c-0.22,0.73-0.5,0.92-1.09,0.92c-0.56,0-1.12-0.08-1.96-0.22c0.17,0.39,0.25,0.75,0.31,1.17
				c0.06,0.53,0.08,0.53,0.45,0.59c0.5,0.06,1.01,0.06,1.62,0.06c0.9,0,1.76-0.48,1.99-1.4c0.36-1.2,0.62-3.24,0.7-6.24
				c0.03-0.5,0.03-1.03,0.08-1.71c0-0.2-0.06-0.25-0.25-0.25c-0.17,0-0.5,0.06-1.85,0.06h-3.02v-3.86h6.43
				c0.2,4.08,0.73,8.05,1.79,11.38c-1.76,2.57-4.17,4.36-7.24,5.79c0.34,0.17,0.67,0.45,0.92,0.76c0.2,0.22,0.28,0.34,0.42,0.34
				c0.08,0,0.22-0.08,0.45-0.2c2.52-1.34,4.47-2.88,6.04-4.95c1.31,3.47,2.88,4.95,4.08,4.95c1.23,0,1.93-0.95,2.27-4.36
				C300.5,161.89,300.5,161.86,300.06,161.63"/>
			<path class="st0" d="M319.15,151.9h6.99c2.69,0,3.58,0.06,3.72,0.06c0.2,0,0.22-0.03,0.22-0.25v-1.29c0-0.2-0.03-0.22-0.22-0.22
				c-0.14,0-1.03,0.06-3.72,0.06h-7.52c0.17-1.46,0.25-2.96,0.28-4.53c0.03-1.29,0.08-1.82,0.22-2.1c0.08-0.2,0.17-0.31,0.17-0.53
				c0-0.14-0.11-0.25-0.39-0.31c-0.56-0.08-1.34-0.14-1.99-0.17c0.14,0.84,0.17,1.59,0.14,3.16c-0.03,1.59-0.08,3.08-0.22,4.48h-6.6
				c-2.68,0-3.58-0.06-3.72-0.06c-0.2,0-0.22,0.03-0.22,0.22v1.29c0,0.22,0.03,0.25,0.22,0.25c0.14,0,1.04-0.06,3.72-0.06h6.4
				c-0.31,2.01-0.81,3.8-1.62,5.48c-1.62,3.36-4.59,6.32-9.31,8.28c0.36,0.25,0.73,0.56,1.04,0.95c0.2,0.28,0.28,0.39,0.42,0.39
				c0.11,0,0.22-0.06,0.45-0.14c4.31-2.15,7.1-4.81,9.03-8.78c0.67-1.4,1.18-2.99,1.54-4.73c1.82,6.01,5.87,10.88,10.71,13.42
				c0.2,0.11,0.34,0.17,0.42,0.17c0.14,0,0.22-0.11,0.39-0.42c0.28-0.45,0.64-0.87,1.01-1.17
				C325.03,163.12,320.94,157.75,319.15,151.9"/>
			<path class="st0" d="M342.75,146.84c0.08,0,0.17-0.06,0.36-0.14l0.76-0.36c0.33-0.17,0.36-0.17,0.25-0.36
				c-0.61-1.09-1.29-2.13-2.1-3.13c-0.14-0.17-0.22-0.17-0.53-0.03l-0.7,0.31c-0.34,0.14-0.36,0.22-0.25,0.36
				c0.73,0.89,1.54,2.1,2.04,3.16C342.64,146.78,342.67,146.84,342.75,146.84"/>
			<path class="st0" d="M337.66,152.94c0,0.2,0.03,0.22,0.22,0.22h1.29c0.2,0,0.22-0.03,0.22-0.22v-4.17h19.27v4.17
				c0,0.2,0.03,0.22,0.22,0.22h1.26c0.22,0,0.25-0.03,0.25-0.22c0-0.14-0.06-0.5-0.06-2.99v-1.15c0-0.78,0.06-1.23,0.06-1.37
				c0-0.17-0.03-0.2-0.25-0.2c-0.14,0-1.12,0.06-3.86,0.06h-1.18c0.7-1.03,1.18-1.87,1.68-2.82c0.14-0.25,0.36-0.53,0.53-0.64
				c0.14-0.08,0.2-0.2,0.2-0.31c0-0.14-0.08-0.25-0.31-0.36c-0.45-0.22-1.03-0.45-1.65-0.59c-0.08,0.53-0.22,0.98-0.36,1.29
				c-0.5,1.2-1.04,2.27-1.82,3.44h-11.63c-2.71,0-3.69-0.06-3.86-0.06c-0.2,0-0.22,0.03-0.22,0.2c0,0.17,0.06,0.59,0.06,1.54v0.98
				C337.72,152.4,337.66,152.77,337.66,152.94"/>
			<path class="st0" d="M349.24,146.36l0.75-0.28c0.36-0.17,0.39-0.17,0.31-0.36c-0.45-1.12-1.03-2.27-1.73-3.3
				c-0.11-0.17-0.2-0.17-0.48-0.06l-0.75,0.25c-0.31,0.11-0.39,0.17-0.25,0.36c0.64,1.01,1.17,1.93,1.62,3.3
				C348.79,146.53,348.85,146.53,349.24,146.36"/>
			<path class="st0" d="M361.04,157.89c-0.14,0-1.01,0.06-3.64,0.06h-7.44v-0.34c0-0.45,0-0.76,0.03-0.95
				c1.76-1.01,3.19-1.93,4.31-2.82c0.64-0.53,0.89-0.64,1.17-0.73c0.17-0.06,0.28-0.17,0.28-0.36c0-0.2-0.17-0.48-0.56-0.87
				c-0.45-0.45-0.62-0.59-0.78-0.59c-0.11,0-0.2,0.03-0.28,0.06c-0.08,0.03-0.28,0.06-0.73,0.06h-7.83c-2.63,0-3.5-0.06-3.64-0.06
				c-0.2,0-0.22,0.03-0.22,0.22v1.15c0,0.2,0.03,0.22,0.22,0.22c0.14,0,1.01-0.06,3.64-0.06h7.52c-1.15,0.98-2.29,1.79-3.64,2.57
				c-0.42-0.11-0.9-0.2-1.43-0.28c0.14,0.7,0.2,1.54,0.2,2.77h-7.64c-2.63,0-3.5-0.06-3.64-0.06c-0.2,0-0.22,0.03-0.22,0.22v1.23
				c0,0.2,0.03,0.22,0.22,0.22c0.14,0,1.01-0.06,3.64-0.06h7.64v4.84c0,0.89-0.42,1.09-1.23,1.09c-1.15,0-1.93-0.06-2.91-0.17
				c0.25,0.34,0.45,0.87,0.59,1.29c0.14,0.56,0.14,0.53,0.67,0.53c2.6,0.06,3.3-0.08,3.89-0.45c0.56-0.39,0.75-0.84,0.75-1.82
				c0-0.67-0.03-1.82-0.03-2.41v-2.91h7.44c2.63,0,3.5,0.06,3.64,0.06c0.2,0,0.22-0.03,0.22-0.22v-1.23
				C361.27,157.91,361.24,157.89,361.04,157.89"/>
			<path class="st0" d="M82.2,130.83c-11.43,0-13.77-4.13-13.77-15.97V46.59h0.27l28.22,88.92h4.82l29.32-89.48h0.28v75.71
				c0,6.61-2.34,9.09-12.39,9.09v4.68h39.92v-4.68c-11.15,0-13.49-2.48-13.49-9.09V54.57c0-6.61,2.34-9.08,12.25-9.08v-4.68h-30.42
				l-22.99,70.48h-0.28L81.51,40.81H49.16v4.68c11.15,0,13.49,2.48,13.49,9.08v60.29c0,11.84-2.34,15.97-13.49,15.97v4.68H82.2
				V130.83z"/>
			<path class="st0" d="M240.75,58.57c5.09-9.64,6.88-13.08,16.79-13.08v-4.68h-31.52v4.68c8.67,0,11.7,1.65,11.7,4.54
				c0,7.02-16.38,32.62-19,38.41c-2.34-6.19-18.45-33.59-18.45-38.27c0-3.3,3.3-4.68,11.56-4.68v-4.68h-39.09v4.68
				c7.16,0,9.77,1.1,13.49,8.4l21.06,41.43v26.43c0,6.61-2.34,9.08-14.32,9.08v4.68h43.22v-4.68c-12.53,0-14.87-2.48-14.87-9.08
				V95.32L240.75,58.57z"/>
			<path class="st0" d="M334.06,40.81v4.68c13.35,0,14.73,5.78,14.73,13.21v46.53c0,15.42-7.57,27.25-27.67,27.25
				c-15.14,0-22.44-7.98-22.44-22.71v-55.2c0-6.61,2.34-9.08,13.21-9.08v-4.68h-40.47v4.68c10.87,0,13.22,2.48,13.22,9.08v54.79
				c0,19.27,13.63,27.81,34.83,27.81c19.82,0,34.28-11.01,34.28-30.84V58.7c0-7.43,1.38-13.21,13.49-13.21v-4.68H334.06z"/>
		</g>
		<g>
			<path class="st0" d="M484.79,70.94v24.64h-6.01l-1.4-5.67c-3.07,4.81-6.88,6.68-13.35,6.68c-12.62,0-20.36-8.75-20.36-22.97
				c0-14.29,8.55-23.57,21.63-23.57c9.75,0,17.09,5.54,19.16,14.49l-9.68,0.6c-1.07-4.14-4.54-6.61-9.41-6.61
				c-7.21,0-11.68,5.47-11.68,14.42c0,9.61,4.34,15.36,11.62,15.36c5.67,0,9.95-3.54,10.95-9.15h-10.88v-8.21H484.79z"/>
			<path class="st0" d="M500.74,63.33l-0.27,5.74c1.87-5.21,4.27-6.68,11.15-6.61v8.95c-1.13-0.13-1.6-0.13-2.4-0.13
				c-3.27,0-5.94,1.47-7.01,3.87c-0.93,2.14-1.27,5.14-1.27,11.35v9.08h-9.48V63.33H500.74z"/>
			<path class="st0" d="M518.23,73.48c0.6-7.41,5.21-11.02,14.29-11.02c4.87,0,8.61,1.13,11.15,3.34c2.34,2.07,3.2,4.67,3.2,9.41
				v14.82c0,3.47,0.13,3.94,1.2,5.54h-9.68c-0.4-1.13-0.4-1.34-0.73-2.54c-3.14,2.6-5.41,3.4-9.21,3.4
				c-7.14,0-11.88-4.01-11.88-10.08c0-6.08,3.81-9.21,12.82-10.68l5.14-0.87c2.14-0.33,2.87-0.87,2.87-2.2
				c0-1.8-1.87-2.94-4.94-2.94c-3.47,0-5.34,1.2-5.74,3.81H518.23z M537.65,80.22c-1,0.4-1.87,0.67-3.47,1l-3.4,0.73
				c-3.4,0.8-4.87,1.94-4.87,3.87c0,2.14,1.8,3.4,4.81,3.4c3.14,0,5.41-1.34,6.94-4.07V80.22z"/>
			<path class="st0" d="M584.45,95.58h-9.08v-3.47c-2.4,3.14-4.94,4.34-8.88,4.34c-8.48,0-14.15-6.74-14.15-16.96
				c0-10.28,5.74-17.09,14.42-17.09c3.47,0,5.94,1,8.21,3.34V51.05h9.48V95.58z M561.68,79.42c0,5.67,2.67,9.35,6.81,9.35
				c4.07,0,6.81-3.74,6.81-9.21c0-5.74-2.67-9.48-6.81-9.48C564.36,70.08,561.68,73.75,561.68,79.42z"/>
			<path class="st0" d="M623.3,95.58h-9.01v-3.54c-2.27,3.2-4.61,4.41-8.55,4.41c-3.34,0-6.41-1.2-8.55-3.34
				c-2.2-2.2-3.07-4.94-3.07-9.55V63.33h9.48v18.16c0,3.14,0.13,3.94,1,5.07c0.87,1.2,2.4,1.87,4.14,1.87c1.74,0,3.2-0.67,4.07-1.87
				c0.87-1.13,1-1.87,1-5.07V63.33h9.48V95.58z"/>
			<path class="st0" d="M631.78,73.48c0.6-7.41,5.21-11.02,14.29-11.02c4.87,0,8.61,1.13,11.15,3.34c2.34,2.07,3.2,4.67,3.2,9.41
				v14.82c0,3.47,0.13,3.94,1.2,5.54h-9.68c-0.4-1.13-0.4-1.34-0.73-2.54c-3.14,2.6-5.41,3.4-9.21,3.4
				c-7.14,0-11.88-4.01-11.88-10.08c0-6.08,3.81-9.21,12.82-10.68l5.14-0.87c2.14-0.33,2.87-0.87,2.87-2.2
				c0-1.8-1.87-2.94-4.94-2.94c-3.47,0-5.34,1.2-5.74,3.81H631.78z M651.2,80.22c-1,0.4-1.87,0.67-3.47,1l-3.4,0.73
				c-3.4,0.8-4.87,1.94-4.87,3.87c0,2.14,1.8,3.4,4.81,3.4c3.14,0,5.41-1.34,6.94-4.07V80.22z"/>
			<path class="st0" d="M687.85,70.41h-5.81v12.55c0,5.07,0.2,5.47,2.4,5.47h3.4v7.14h-5.81c-4.14,0-6.21-0.6-7.61-2.14
				c-1.47-1.6-1.87-3.34-1.87-8.35V70.41h-4.54v-6.68h4.54V53.52h9.48v10.21h5.81V70.41z"/>
			<path class="st0" d="M709.48,58.86H700v-7.81h9.48V58.86z M709.48,95.58H700V63.33h9.48V95.58z"/>
			<path class="st0" d="M750.47,79.69c0,9.75-7.21,16.76-17.16,16.76c-10.01,0-17.09-7.01-17.09-17.02
				c0-9.95,7.08-16.96,17.09-16.96C743.53,62.47,750.47,69.41,750.47,79.69z M725.77,79.42c0,6.08,2.74,9.48,7.61,9.48
				c4.74,0,7.54-3.4,7.54-9.28c0-6.21-2.67-9.61-7.61-9.61C728.51,70.01,725.77,73.41,725.77,79.42z"/>
			<path class="st0" d="M766.42,63.33v3.14c3.47-3.2,5.47-4.07,8.81-4.07c7.01,0,11.28,4.67,11.28,12.28v20.9h-9.48V78.02
				c0-3.27-0.2-4.54-1-5.74c-0.8-1.2-2.2-1.87-3.87-1.87c-1.6,0-3.07,0.6-4.07,1.74c-1.07,1.2-1.4,2.54-1.4,5.34v18.09h-9.48V63.33
				H766.42z"/>
			<path class="st0" d="M452.81,164.02l-12.02-44.53h9.95l4.81,19.96c0.87,3.74,1.34,5.81,2.47,11.08c0.73-5.07,1.2-7.74,1.87-11.08
				l4.21-19.96h9.61l4.14,20.3c0.87,4.41,1.34,6.81,1.94,10.75c0.4-1.94,1.13-5.54,2.27-10.75l4.94-20.3h9.95l-12.42,44.53h-9.35
				l-4.07-18.56c-1-4.61-1.94-9.41-2.2-11.55c-0.87,4.81-1.4,7.68-2.27,11.55l-4.21,18.56H452.81z"/>
			<path class="st0" d="M532.45,148.13c0,9.75-7.21,16.76-17.16,16.76c-10.01,0-17.09-7.01-17.09-17.02
				c0-9.95,7.08-16.96,17.09-16.96C525.5,130.91,532.45,137.85,532.45,148.13z M507.75,147.87c0,6.08,2.74,9.48,7.61,9.48
				c4.74,0,7.54-3.4,7.54-9.28c0-6.21-2.67-9.61-7.61-9.61C510.48,138.45,507.75,141.86,507.75,147.87z"/>
			<path class="st0" d="M548.47,131.78l-0.27,5.74c1.87-5.21,4.27-6.68,11.15-6.61v8.95c-1.13-0.13-1.6-0.13-2.4-0.13
				c-3.27,0-5.94,1.47-7.01,3.87c-0.93,2.14-1.27,5.14-1.27,11.35v9.08h-9.48v-32.25H548.47z"/>
			<path class="st0" d="M599.4,164.02h-11.62l-8.01-13.75l-3.07,3v10.75h-9.48v-44.53h9.48v23.37l9.88-11.08h11.75l-12.28,12.28
				L599.4,164.02z"/>
			<path class="st0" d="M621.17,141.46c-0.4-2.4-2.34-3.67-5.47-3.67c-2.74,0-4.54,1.07-4.54,2.67c0,1.2,0.93,1.8,3.94,2.47
				l5.94,1.27c3.94,0.8,5.94,1.67,7.34,3.14c1.54,1.47,2.4,3.87,2.4,6.48c0,6.81-5.54,11.08-14.49,11.08
				c-8.95,0-14.49-4.21-15.02-11.35h8.88c0.53,3.07,2.54,4.47,6.34,4.47c3,0,4.94-1.2,4.94-3.14c0-1.54-1.07-2.34-3.61-2.94
				l-5.88-1.34c-7.08-1.54-9.81-4.14-9.81-9.28c0-6.48,5.14-10.42,13.75-10.42c8.28,0,13.29,3.74,14.15,10.55H621.17z"/>
			<path class="st0" d="M690.93,128.04h-23.17v8.68h20.23v7.88h-20.23v10.88h23.57v8.55h-33.58v-44.53h33.18V128.04z"/>
			<path class="st0" d="M728.98,164.02h-11.02l-6.08-9.21l-5.94,9.21h-10.82l11.55-16.89l-10.55-15.35h10.55l5.27,8.14l5.07-8.14
				h10.55l-10.48,15.35L728.98,164.02z"/>
			<path class="st0" d="M745.2,134.51c2.67-2.54,5.21-3.61,8.55-3.61c3.27,0,6.21,1.2,8.28,3.47c2.07,2.27,2.87,5.01,2.87,9.81
				v19.83h-9.48v-18.09c0-3-0.27-4.21-1.07-5.34c-0.8-1.07-2.14-1.67-3.74-1.67c-1.6,0-3.14,0.6-4.14,1.6
				c-1.07,1.13-1.27,2.07-1.27,5.41v18.09h-9.48v-44.53h9.48V134.51z"/>
			<path class="st0" d="M782.71,127.3h-9.48v-7.81h9.48V127.3z M782.71,164.02h-9.48v-32.25h9.48V164.02z"/>
			<path class="st0" d="M789.72,119.49h9.48v14.55c3.07-2.27,5.61-3.14,8.88-3.14c8.21,0,13.75,6.68,13.75,16.56
				c0,10.15-5.94,17.42-14.22,17.42c-4.01,0-6.28-1.2-8.81-4.54v3.67h-9.08V119.49z M798.8,147.87c0,5.61,2.74,9.35,6.88,9.35
				c4.14,0,6.81-3.61,6.81-9.21c0-5.81-2.6-9.41-6.81-9.41C801.54,138.59,798.8,142.33,798.8,147.87z"/>
			<path class="st0" d="M838.05,127.3h-9.48v-7.81h9.48V127.3z M838.05,164.02h-9.48v-32.25h9.48V164.02z"/>
			<path class="st0" d="M865.29,141.46c-0.4-2.4-2.34-3.67-5.47-3.67c-2.74,0-4.54,1.07-4.54,2.67c0,1.2,0.93,1.8,3.94,2.47
				l5.94,1.27c3.94,0.8,5.94,1.67,7.34,3.14c1.54,1.47,2.4,3.87,2.4,6.48c0,6.81-5.54,11.08-14.49,11.08
				c-8.95,0-14.49-4.21-15.02-11.35h8.88c0.53,3.07,2.54,4.47,6.34,4.47c3,0,4.94-1.2,4.94-3.14c0-1.54-1.07-2.34-3.61-2.94
				l-5.88-1.34c-7.08-1.54-9.81-4.14-9.81-9.28c0-6.48,5.14-10.42,13.75-10.42c8.28,0,13.29,3.74,14.15,10.55H865.29z"/>
			<path class="st0" d="M892.12,127.3h-9.48v-7.81h9.48V127.3z M892.12,164.02h-9.48v-32.25h9.48V164.02z"/>
			<path class="st0" d="M933.11,148.13c0,9.75-7.21,16.76-17.16,16.76c-10.01,0-17.09-7.01-17.09-17.02
				c0-9.95,7.08-16.96,17.09-16.96C926.17,130.91,933.11,137.85,933.11,148.13z M908.41,147.87c0,6.08,2.74,9.48,7.61,9.48
				c4.74,0,7.54-3.4,7.54-9.28c0-6.21-2.67-9.61-7.61-9.61C911.15,138.45,908.41,141.86,908.41,147.87z"/>
			<path class="st0" d="M949.07,131.78v3.14c3.47-3.2,5.47-4.07,8.81-4.07c7.01,0,11.28,4.67,11.28,12.28v20.9h-9.48v-17.56
				c0-3.27-0.2-4.54-1-5.74c-0.8-1.2-2.2-1.87-3.87-1.87c-1.6,0-3.07,0.6-4.07,1.74c-1.07,1.2-1.4,2.54-1.4,5.34v18.09h-9.48v-32.25
				H949.07z"/>
		</g>
		<g>
			<path class="st0" d="M76.23,327.94H65.98v-4.19h10.25v-10.91h4.44v10.91h10.25v4.19H80.68v10.91h-4.44V327.94z"/>
			<path class="st0" d="M150.63,321.07c3.43,10.51,9.8,19.04,19.34,23.03c-1.16,1.01-2.73,2.98-3.49,4.4
				c-9.44-4.4-15.56-12.58-19.5-23.28c-2.58,9.14-8.03,17.88-19.5,23.28c-0.76-1.26-2.27-2.93-3.59-3.94
				c12.02-5.25,16.92-14.34,18.94-23.49h-17.93v-4.85h18.79c0.61-5.05,0.56-9.9,0.61-13.94h5.1c-0.05,4.09-0.1,8.94-0.71,13.94
				h20.35v4.85H150.63z"/>
			<path class="st0" d="M222,334.86h-19.9v8.44c0,2.58-0.66,3.89-2.73,4.6c-2.07,0.66-5.05,0.71-9.44,0.71
				c-0.35-1.31-1.26-3.23-1.97-4.55c3.54,0.15,7.07,0.15,8.08,0.1c1.01-0.05,1.26-0.25,1.26-1.01v-8.28h-19.7v-4.34h19.7v-3.49h2.37
				c1.97-1.06,3.99-2.42,5.71-3.79h-19.19v-4.09h23.69l1.01-0.25l3.03,2.27c-3.03,3.23-7.48,6.46-11.82,8.69v0.66H222V334.86z
				 M182.86,321.98h-4.39v-11.57h7.27c-0.91-1.82-2.47-4.09-3.94-5.81l4.04-1.82c1.82,2.02,3.84,4.85,4.7,6.77l-1.82,0.86h9.34
				c-0.71-2.02-2.17-4.8-3.54-6.92l4.09-1.51c1.72,2.27,3.43,5.46,4.09,7.47l-2.47,0.96h8.54c1.77-2.32,3.74-5.51,4.9-7.88
				l4.95,1.57c-1.46,2.17-3.13,4.39-4.7,6.31h7.32v11.57h-4.65v-7.42h-33.74V321.98z"/>
			<path class="st0" d="M245.23,305.97c-1.41,4.24-3.18,9.49-4.8,13.43c3.43,3.99,4.19,7.48,4.19,10.5c0,2.88-0.61,5-2.07,6.01
				c-0.76,0.51-1.72,0.86-2.73,1.01c-0.96,0.1-2.17,0.1-3.33,0.05c-0.05-1.16-0.4-2.93-1.11-4.04c1.06,0.1,1.92,0.1,2.58,0.05
				c0.61,0,1.11-0.15,1.57-0.45c0.71-0.51,0.91-1.72,0.91-3.18c0-2.52-0.81-5.81-4.09-9.44c1.26-3.38,2.58-7.88,3.54-11.31h-5.4v40
				h-4.14v-44.24h11.11l0.71-0.15L245.23,305.97z M269.48,343.8c0.91,0,1.11-0.81,1.21-6.06c0.91,0.76,2.78,1.46,3.99,1.77
				c-0.4,6.72-1.57,8.49-4.7,8.49h-3.94c-3.84,0-4.75-1.36-4.75-5.66v-12.32h-4.85c-0.71,9.34-2.78,15.3-12.27,18.59
				c-0.4-1.11-1.62-2.88-2.58-3.64c8.13-2.63,9.85-7.32,10.35-14.95h-6.16v-4.29h28.18v4.29h-8.23v12.27c0,1.36,0.15,1.52,1.06,1.52
				H269.48z M256.85,307.89v-5.51h4.55v5.51h12.58v9.44h-3.99v3.59h-20.91v-3.59h-3.84v-9.44H256.85z M269.63,311.93h-20.2v4.9h20.2
				V311.93z"/>
			<path class="st0" d="M326.15,334.46h-5.25v8.84h-4.75v-2.17h-10.76v2.63c0,2.58-0.66,3.64-2.37,4.29
				c-1.72,0.61-4.34,0.66-8.59,0.66c-0.25-1.06-0.96-2.78-1.62-3.79c2.78,0.1,5.81,0.1,6.62,0.05c0.91-0.05,1.21-0.3,1.21-1.16
				v-2.68h-15.76v-3.54h15.76v-3.13h-20.2v-3.69h20.2v-2.88h-15.3v-3.33h15.3v-2.98h-13.99v-9.29h13.99v-2.58H281.5v-3.79h19.14
				v-3.69h4.75v3.69h19.7v3.79h-19.7v2.58h14.7v9.29h-14.7v2.98h15.51v6.21h5.25V334.46z M300.64,318.45v-3.03h-9.5v3.03H300.64z
				 M305.39,315.42v3.03h9.95v-3.03H305.39z M305.39,330.77h10.76v-2.88h-10.76V330.77z M316.15,334.46h-10.76v3.13h10.76V334.46z"
				/>
			<path class="st0" d="M361.3,336.88c4.44,3.13,10.96,5.71,17.12,6.87c-1.06,1.01-2.42,2.93-3.13,4.19
				c-6.57-1.77-13.33-5.15-18.08-9.5v10.15h-4.6v-9.8c-4.8,4.04-11.62,7.32-17.93,9.09c-0.71-1.21-2.02-2.98-3.08-3.99
				c6.01-1.26,12.58-3.89,17.02-7.02h-15.61v-3.94h19.6v-3.08h-14.9v-3.53h14.9v-3.03h-17.37v-3.74h10.35
				c-0.45-1.41-1.31-3.23-2.12-4.6l1.21-0.2h-11.46v-3.94h7.47c-0.76-1.97-2.27-4.75-3.69-6.82l4.09-1.36
				c1.57,2.17,3.33,5.25,4.04,7.22l-2.58,0.96h5.56v-8.64h4.39v8.64h5v-8.64h4.44v8.64h5.45l-1.92-0.61
				c1.21-2.02,2.78-5.2,3.54-7.48l4.85,1.21c-1.36,2.48-2.88,5-4.19,6.87h7.27v3.94h-9.75c-0.96,1.72-1.97,3.38-2.83,4.8h10.71v3.74
				h-17.88v3.03h15.51v3.53h-15.51v3.08h19.9v3.94H361.3z M348.32,314.76c0.91,1.47,1.82,3.28,2.17,4.49l-1.46,0.3h10.66
				c0.76-1.36,1.57-3.18,2.22-4.8H348.32z"/>
			<path class="st0" d="M398.58,332.59c-0.66-1.62-2.12-4.39-3.43-6.77v22.73h-4.34v-21.36c-1.52,4.8-3.38,9.24-5.4,12.12
				c-0.45-1.26-1.57-3.03-2.22-4.04c2.98-4.14,5.86-11.62,7.22-18.03h-6.16v-4.34h6.57v-10.66h4.34v10.66h5.4v4.34h-5.4v2.98
				c1.41,1.87,5.15,7.58,5.96,8.94L398.58,332.59z M430.39,340.52h-2.98v3.33c0,2.12-0.45,3.18-1.92,3.89
				c-1.46,0.56-3.74,0.61-6.97,0.61c-0.2-1.11-0.76-2.73-1.26-3.79c2.12,0.1,4.29,0.1,4.95,0.05c0.61,0,0.81-0.2,0.81-0.81v-3.28
				h-15.81v7.83h-4.29v-7.83h-3.23v-3.53h3.23v-12.63h9.9v-2.47h-12.27v-3.49h6.62v-2.83h-4.44v-3.28h4.44v-2.78h-5.51v-3.38h5.51
				v-3.89h4.39v3.89h6.92v-3.89h4.39v3.89h6.01v3.38h-6.01v2.78h5.25v3.28h-5.25v2.83h7.02v3.49h-12.83v2.47h10.35v12.63h2.98
				V340.52z M407.21,327.74v2.88h5.61v-2.88H407.21z M407.21,336.99h5.61v-3.13h-5.61V336.99z M411.56,312.29h6.92v-2.78h-6.92
				V312.29z M411.56,318.4h6.92v-2.83h-6.92V318.4z M417.06,327.74v2.88h5.96v-2.88H417.06z M423.02,336.99v-3.13h-5.96v3.13H423.02
				z"/>
			<path class="st0" d="M445.95,331.88v-11.82c-1.97,3.64-4.39,6.92-6.87,9.04c-0.71-1.06-2.12-2.53-3.08-3.33
				c3.54-2.53,7.07-7.37,9.19-12.17h-7.98v-3.99h8.74v-7.22h4.44v7.22h7.58v3.99h-7.58v2.42c1.92,1.16,6.92,4.8,8.23,5.76
				l-2.53,3.84c-1.21-1.26-3.64-3.48-5.71-5.25v11.46L445.95,331.88z M436.56,343.8c1.97-2.68,3.64-6.87,4.6-10.35l4.14,1.67
				c-1.01,3.48-2.63,7.98-4.5,10.81L436.56,343.8z M465.35,343.35c2.37,0,2.73-0.71,3.03-5.76c1.01,0.76,2.93,1.41,4.24,1.72
				c-0.66,6.67-1.97,8.23-6.92,8.23h-9.85c-6.06,0-7.63-1.26-7.63-5.71v-7.53h4.65v7.47c0,1.36,0.51,1.57,3.38,1.57H465.35z
				 M458.33,330.47c2.27,2.12,5.35,5.1,6.92,6.92l-3.43,2.88c-1.41-1.87-4.44-5-6.72-7.27L458.33,330.47z M479.99,331.28h-19.95
				v-26.42h19.95V331.28z M475.5,308.65h-11.16v3.84h11.16V308.65z M475.5,316.07h-11.16v3.94h11.16V316.07z M475.5,323.55h-11.16
				v3.99h11.16V323.55z M476.46,332.69c2.07,3.13,4.85,7.42,6.16,10l-4.34,2.22c-1.21-2.63-3.89-7.07-5.91-10.3L476.46,332.69z"/>
			<path class="st0" d="M532.62,334.86h-19.9v8.44c0,2.58-0.66,3.89-2.73,4.6c-2.07,0.66-5.05,0.71-9.44,0.71
				c-0.35-1.31-1.26-3.23-1.97-4.55c3.54,0.15,7.07,0.15,8.08,0.1c1.01-0.05,1.26-0.25,1.26-1.01v-8.28h-19.7v-4.34h19.7v-3.49h2.37
				c1.97-1.06,3.99-2.42,5.71-3.79h-19.19v-4.09h23.69l1.01-0.25l3.03,2.27c-3.03,3.23-7.48,6.46-11.82,8.69v0.66h19.9V334.86z
				 M493.48,321.98h-4.39v-11.57h7.27c-0.91-1.82-2.47-4.09-3.94-5.81l4.04-1.82c1.82,2.02,3.84,4.85,4.7,6.77l-1.82,0.86h9.34
				c-0.71-2.02-2.17-4.8-3.54-6.92l4.09-1.51c1.72,2.27,3.43,5.46,4.09,7.47l-2.47,0.96h8.54c1.77-2.32,3.74-5.51,4.9-7.88
				l4.95,1.57c-1.46,2.17-3.13,4.39-4.7,6.31h7.32v11.57h-4.65v-7.42h-33.74V321.98z"/>
			<path class="st0" d="M539.44,304.81h17.88v4.24h-7.58c-0.76,3.84-1.72,7.58-2.93,11.11h9.75v22.22h-9.9v3.89h-3.94v-17.07
				c-0.76,1.26-1.52,2.42-2.37,3.49c-0.2-1.21-1.16-4.04-1.87-5.3c3.33-4.5,5.51-11.16,6.82-18.33h-5.86V304.81z M552.52,324.36
				h-5.86v13.89h5.86V324.36z M585.25,327.24h-5.45v21.36h-4.5v-21.36h-7.17c-0.25,7.58-1.57,15.96-7.02,21.62
				c-0.81-0.76-2.53-2.12-3.59-2.73c4.8-5,5.96-12.42,6.21-18.89h-5.2v-4.44h5.25v-13.54h-3.89v-4.4h24.34v4.4h-4.44v13.54h5.45
				V327.24z M575.3,322.79v-13.54h-7.12v13.54H575.3z"/>
			<path class="st0" d="M632.17,343.65c1.26,0,1.46-0.86,1.67-7.32c1.01,0.86,3.13,1.67,4.44,2.02c-0.45,7.88-1.72,9.9-5.56,9.9
				h-4.9c-4.34,0-5.61-1.36-5.61-6.21v-9.09h-8.49c-1.06,5.91-5.15,12.12-18.69,15.81c-0.71-1.11-2.07-2.83-3.18-3.84
				c11.67-3.08,15.66-7.68,16.92-11.97h-13.33v-4.39h13.89v-5.81h4.7v5.81h13.08v13.43c0,1.46,0.25,1.67,1.46,1.67H632.17z
				 M611.26,310.92c-1.06,8.03-4.09,12.73-16.06,15.2c-0.4-1.11-1.52-2.93-2.47-3.79c10.4-1.82,12.78-5.3,13.64-11.41h-8.03v5.3
				h-4.7v-9.5h18.89v-4.55h4.8v4.55h19.24v9.04h-4.95v-4.85h-8.89v7.93c0,1.31,0.25,1.47,1.92,1.47h5.3c1.31,0,1.57-0.45,1.72-3.64
				c0.96,0.71,2.88,1.41,4.14,1.62c-0.51,4.9-1.77,6.16-5.3,6.16h-6.46c-4.85,0-5.96-1.26-5.96-5.56v-7.98H611.26z"/>
			<path class="st0" d="M662.18,333.15c-0.71-1.52-2.42-4.34-3.94-6.67v22.07h-4.55V328.1c-1.87,4.6-4.14,8.89-6.46,11.77
				c-0.45-1.26-1.57-3.18-2.27-4.34c2.98-3.44,6.21-9.44,8.08-14.8h-7.42v-4.39h8.08v-6.77c-2.17,0.4-4.34,0.71-6.36,1.01
				c-0.15-1.01-0.81-2.68-1.31-3.64c5.66-0.91,12.12-2.37,16.06-4.09l2.68,3.84c-1.92,0.76-4.14,1.36-6.52,1.92v7.73h7.07v4.39
				h-7.07v0.71c1.52,1.57,5.81,6.72,6.77,8.03L662.18,333.15z M685.86,335.62v12.93h-4.65v-12.12l-15.91,2.68l-0.71-4.49l16.62-2.78
				v-29.6h4.65v28.84l5.51-0.91l0.71,4.39L685.86,335.62z M674.85,328.8c-1.67-2.17-5.35-5.4-8.43-7.53l2.98-2.73
				c3.03,2.02,6.87,5.05,8.64,7.17L674.85,328.8z M676.12,315.52c-1.52-2.12-4.95-5.2-7.83-7.32l3.08-2.68
				c2.88,1.97,6.36,4.9,8.03,7.02L676.12,315.52z"/>
			<path class="st0" d="M725.56,303.7c-1.11,3.28-2.42,6.62-3.89,9.85v35h-4.44v-26.77c-1.31,2.07-2.63,3.94-4.04,5.61
				c-0.4-1.16-1.67-3.79-2.37-4.95c4.19-4.9,8.08-12.37,10.4-19.95L725.56,303.7z M753.75,311.33c-1.62,3.13-3.74,5.81-6.26,8.08
				c3.28,1.77,7.22,3.13,11.82,3.94c-0.81,0.96-2.02,2.68-2.58,3.84c-4.95-1.11-9.14-2.98-12.63-5.2
				c-3.54,2.42-7.68,4.24-12.17,5.61c-0.45-0.86-1.62-2.37-2.47-3.33v16.01h-4.09v-31.92h4.09v6.72c3.64-3.23,6.82-7.93,8.64-12.88
				l4.29,1.06c-0.56,1.46-1.21,2.88-1.97,4.29h17.27v3.79H753.75z M729.45,323.85c4.14-1.01,7.93-2.47,11.16-4.44
				c-1.87-1.57-3.38-3.23-4.65-4.95c-1.21,1.51-2.47,2.83-3.74,3.99c-0.61-0.56-1.82-1.52-2.78-2.22V323.85z M757.89,337.04
				c-5.05,5.96-14.24,9.44-24.7,11.31c-0.51-1.11-1.52-2.73-2.42-3.69c9.75-1.41,18.69-4.34,23.08-9.29L757.89,337.04z
				 M748.34,326.53c-3.13,3.13-8.18,5.66-12.88,7.17c-0.61-0.81-1.67-2.02-2.58-2.73c4.34-1.21,9.29-3.38,11.92-5.91L748.34,326.53z
				 M753.09,331.18c-3.89,4.29-10.56,7.32-17.32,9.14c-0.56-0.91-1.52-2.22-2.32-3.03c6.26-1.41,12.83-4.04,16.16-7.53
				L753.09,331.18z M738.24,311.33l-0.05,0.05c1.36,2.02,3.23,3.99,5.66,5.76c2.02-1.67,3.69-3.59,5-5.81H738.24z"/>
			<path class="st0" d="M790.26,322.39v18.99h17.53v4.7h-39.65v-4.7h17.12v-18.99h-19.9v-4.65h19.9v-15.4h5v15.4h20.2v4.65H790.26z"
				/>
			<path class="st0" d="M836.07,318.1h11.62v4.29h-11.62v4.5h10.1v13.28c0,1.92-0.3,3.13-1.62,3.84c-1.31,0.71-3.23,0.76-5.86,0.71
				c-0.1-1.16-0.66-2.88-1.26-3.99c1.82,0.05,3.33,0.05,3.84,0c0.51,0,0.66-0.15,0.66-0.66v-8.99h-5.86v17.53h-4.44v-17.53h-5.51
				v13.48h-4.19v-17.68h9.7v-4.5h-11.87v-4.29h3.48c-0.96-0.56-2.83-1.21-3.94-1.62c2.22-3.33,3.89-8.33,4.85-13.13l4.39,0.91
				c-0.4,1.67-0.86,3.38-1.31,5h4.39v-6.72h4.44v6.72h9.65v4.24h-9.65V318.1z M831.63,318.1v-4.6h-5.91
				c-0.66,1.72-1.41,3.33-2.22,4.6H831.63z M855.12,334.61h-4.34v-27.93h4.34V334.61z M864.21,302.94v39.65
				c0,2.83-0.61,4.14-2.27,4.95c-1.62,0.81-4.44,0.91-8.23,0.91c-0.2-1.26-0.86-3.44-1.52-4.8c2.83,0.1,5.56,0.1,6.41,0.05
				c0.81,0,1.06-0.25,1.06-1.06v-39.7H864.21z"/>
			<path class="st0" d="M889.51,303.85c-1.36,3.54-3.08,7.17-5,10.56v34.09h-4.75v-26.67c-1.31,1.82-2.73,3.49-4.14,4.95
				c-0.45-1.16-1.82-3.79-2.63-4.85c4.8-4.75,9.29-12.12,12.02-19.5L889.51,303.85z M904.76,315.01v6.42h13.74v4.29h-13.74v6.72
				h14.44v4.39h-14.44v11.72h-4.8v-33.54h-2.83c-2.12,3.94-4.44,7.48-6.87,10.15c-0.76-0.81-2.58-2.47-3.64-3.18
				c4.44-4.65,8.48-11.92,10.91-19.19l4.5,1.21c-0.81,2.17-1.67,4.4-2.63,6.52h20.3v4.49H904.76z"/>
			<path class="st0" d="M969.57,336.08c-2.22,1.72-5,3.33-7.42,4.65c2.83,1.87,6.26,3.28,10.25,4.09c-1.01,0.86-2.17,2.68-2.78,3.84
				c-8.94-2.22-14.9-7.27-18.38-14.9h-5.35v8.48c3.13-0.46,6.46-1.01,9.8-1.51l0.15,4.09c-6.72,1.11-13.84,2.27-19.09,3.08
				l-0.71-4.29c1.62-0.2,3.49-0.45,5.51-0.76v-9.09h-5.86v-3.94h8.49v-4.39h-7.02v-3.99h7.02v-4.04h-8.43v1.87
				c0,8.64-0.71,21.21-5.96,29.4c-0.91-0.76-2.98-1.97-4.14-2.42c5-7.78,5.4-18.94,5.4-26.97v-14.75h37.98v12.88h-7.17v4.04h7.93
				v3.99h-7.93v4.39h10v3.94h-5.66L969.57,336.08z M935.73,313.35h28.59v-4.8h-28.59V313.35z M948.45,321.43h8.99v-4.04h-8.99
				V321.43z M948.45,329.81h8.99v-4.39h-8.99V329.81z M955.68,333.75c0.96,1.72,2.12,3.23,3.54,4.6c2.32-1.36,4.95-3.13,6.72-4.6
				H955.68z"/>
		</g>
		<g>
			<path class="st0" d="M643.96,267.93h-20.25v11.62h-4.85v-11.62h-19.75v-4.5h19.75v-3.33h3.23c-0.91-0.91-2.27-2.02-3.13-2.58
				c5.2-2.88,9.14-7.58,10.96-13.38l4.75,0.91c-0.61,1.87-1.36,3.64-2.27,5.25c3.64,2.42,8.08,5.66,10.35,7.83l-3.28,3.49
				c-2.02-2.02-5.96-5.1-9.5-7.63c-1.82,2.42-3.99,4.44-6.31,6.11h0.05v3.33h20.25V267.93z M617.04,258.03
				c-1.26-1.26-3.54-3.13-5.66-4.7c-2.27,3.49-5.05,6.46-8.08,8.64c-0.76-0.81-2.73-2.42-3.79-3.13c5.15-3.18,9.09-8.54,11.01-14.8
				l4.75,1.06c-0.56,1.62-1.16,3.18-1.92,4.7c2.32,1.57,5.05,3.54,6.52,4.9L617.04,258.03z M642.5,243.89h-42.07v-4.5h18.44v-6.16
				h4.85v6.16h18.79V243.89z"/>
			<path class="st0" d="M680.58,267.88c4.44,3.13,10.96,5.71,17.12,6.87c-1.06,1.01-2.42,2.93-3.13,4.19
				c-6.57-1.77-13.33-5.15-18.08-9.5v10.15h-4.6v-9.8c-4.8,4.04-11.62,7.32-17.93,9.09c-0.71-1.21-2.02-2.98-3.08-3.99
				c6.01-1.26,12.58-3.89,17.02-7.02H652.3v-3.94h19.6v-3.08h-14.9v-3.54h14.9v-3.03h-17.37v-3.74h10.35
				c-0.45-1.41-1.31-3.23-2.12-4.6l1.21-0.2H652.5v-3.94h7.47c-0.76-1.97-2.27-4.75-3.69-6.82l4.09-1.36
				c1.57,2.17,3.33,5.25,4.04,7.22l-2.58,0.96h5.56v-8.64h4.39v8.64h5v-8.64h4.44v8.64h5.45l-1.92-0.61
				c1.21-2.02,2.78-5.2,3.54-7.47l4.85,1.21c-1.36,2.48-2.88,5-4.19,6.87h7.27v3.94h-9.75c-0.96,1.72-1.97,3.38-2.83,4.8h10.71v3.74
				h-17.88v3.03h15.51v3.54h-15.51v3.08h19.9v3.94H680.58z M667.6,245.76c0.91,1.46,1.82,3.28,2.17,4.5l-1.46,0.3h10.66
				c0.76-1.36,1.57-3.18,2.22-4.8H667.6z"/>
			<path class="st0" d="M704.42,235.81h17.88v4.24h-7.58c-0.76,3.84-1.72,7.58-2.93,11.11h9.75v22.22h-9.9v3.89h-3.94V260.2
				c-0.76,1.26-1.52,2.42-2.37,3.49c-0.2-1.21-1.16-4.04-1.87-5.3c3.33-4.5,5.51-11.16,6.82-18.33h-5.86V235.81z M717.5,255.35
				h-5.86v13.89h5.86V255.35z M750.23,258.23h-5.45v21.36h-4.5v-21.36h-7.17c-0.25,7.58-1.57,15.96-7.02,21.62
				c-0.81-0.76-2.53-2.12-3.59-2.73c4.8-5,5.96-12.43,6.21-18.89h-5.2v-4.44h5.25v-13.54h-3.89v-4.39h24.34v4.39h-4.44v13.54h5.45
				V258.23z M740.28,253.79v-13.54h-7.12v13.54H740.28z"/>
			<path class="st0" d="M797.15,274.65c1.26,0,1.46-0.86,1.67-7.32c1.01,0.86,3.13,1.67,4.44,2.02c-0.45,7.88-1.72,9.9-5.56,9.9
				h-4.9c-4.34,0-5.61-1.36-5.61-6.21v-9.09h-8.49c-1.06,5.91-5.15,12.12-18.69,15.81c-0.71-1.11-2.07-2.83-3.18-3.84
				c11.67-3.08,15.66-7.68,16.92-11.97h-13.33v-4.39h13.89v-5.81h4.7v5.81h13.08v13.43c0,1.46,0.25,1.67,1.46,1.67H797.15z
				 M776.24,241.92c-1.06,8.03-4.09,12.73-16.06,15.2c-0.4-1.11-1.52-2.93-2.47-3.79c10.4-1.82,12.78-5.3,13.64-11.41h-8.03v5.3
				h-4.7v-9.5h18.89v-4.55h4.8v4.55h19.24v9.04h-4.95v-4.85h-8.89v7.93c0,1.31,0.25,1.46,1.92,1.46h5.3c1.31,0,1.57-0.45,1.72-3.64
				c0.96,0.71,2.88,1.41,4.14,1.62c-0.51,4.9-1.77,6.16-5.3,6.16h-6.46c-4.85,0-5.96-1.26-5.96-5.56v-7.98H776.24z"/>
			<path class="st0" d="M814.06,256.41c0,2.59-2.1,4.69-4.69,4.69s-4.69-2.1-4.69-4.69c0-2.59,2.1-4.69,4.69-4.69
				S814.06,253.83,814.06,256.41z"/>
			<path class="st0" d="M838.77,249.09h11.62v4.29h-11.62v4.5h10.1v13.28c0,1.92-0.3,3.13-1.62,3.84c-1.31,0.71-3.23,0.76-5.86,0.71
				c-0.1-1.16-0.66-2.88-1.26-3.99c1.82,0.05,3.33,0.05,3.84,0c0.51,0,0.66-0.15,0.66-0.66v-8.99h-5.86v17.53h-4.44v-17.53h-5.51
				v13.49h-4.19v-17.68h9.7v-4.5h-11.87v-4.29h3.48c-0.96-0.56-2.83-1.21-3.94-1.62c2.22-3.33,3.89-8.33,4.85-13.13l4.39,0.91
				c-0.4,1.67-0.86,3.38-1.31,5h4.39v-6.72h4.44v6.72h9.65v4.24h-9.65V249.09z M834.33,249.09v-4.6h-5.91
				c-0.66,1.72-1.41,3.33-2.22,4.6H834.33z M857.81,265.61h-4.34v-27.93h4.34V265.61z M866.9,233.94v39.65
				c0,2.83-0.61,4.14-2.27,4.95c-1.62,0.81-4.44,0.91-8.23,0.91c-0.2-1.26-0.86-3.44-1.52-4.8c2.83,0.1,5.56,0.1,6.41,0.05
				c0.81,0,1.06-0.25,1.06-1.06v-39.7H866.9z"/>
			<path class="st0" d="M890.19,234.85c-1.36,3.54-3.08,7.17-5,10.56v34.09h-4.75v-26.67c-1.31,1.82-2.73,3.49-4.14,4.95
				c-0.45-1.16-1.82-3.79-2.63-4.85c4.8-4.75,9.29-12.12,12.02-19.5L890.19,234.85z M905.44,246.01v6.41h13.74v4.29h-13.74v6.72
				h14.44v4.39h-14.44v11.72h-4.8v-33.54h-2.83c-2.12,3.94-4.44,7.48-6.87,10.15c-0.76-0.81-2.58-2.47-3.64-3.18
				c4.44-4.65,8.49-11.92,10.91-19.19l4.5,1.21c-0.81,2.17-1.67,4.39-2.63,6.52h20.3v4.5H905.44z"/>
			<path class="st0" d="M968.22,267.07c-2.22,1.72-5,3.33-7.42,4.65c2.83,1.87,6.26,3.28,10.25,4.09c-1.01,0.86-2.17,2.68-2.78,3.84
				c-8.94-2.22-14.9-7.27-18.38-14.9h-5.35v8.49c3.13-0.45,6.46-1.01,9.8-1.52l0.15,4.09c-6.72,1.11-13.84,2.27-19.09,3.08
				l-0.71-4.29c1.62-0.2,3.49-0.45,5.51-0.76v-9.09h-5.86v-3.94h8.49v-4.39h-7.02v-3.99h7.02v-4.04h-8.43v1.87
				c0,8.64-0.71,21.21-5.96,29.39c-0.91-0.76-2.98-1.97-4.14-2.42c5-7.78,5.4-18.94,5.4-26.97V235.5h37.98v12.88h-7.17v4.04h7.93
				v3.99h-7.93v4.39h10v3.94h-5.66L968.22,267.07z M934.38,244.34h28.59v-4.8h-28.59V244.34z M947.11,252.42h8.99v-4.04h-8.99
				V252.42z M947.11,260.81h8.99v-4.39h-8.99V260.81z M954.33,264.75c0.96,1.72,2.12,3.23,3.54,4.6c2.32-1.36,4.95-3.13,6.72-4.6
				H954.33z"/>
		</g>
		<g>
			<path class="st0" d="M68.49,255.09v2.93h-22.5v-2.93h9.66v-5.03h-6.78v-2.88h6.78v-4.4h-5.18c-0.73,1.38-1.5,2.65-2.33,3.63
				c-0.6-0.48-1.93-1.38-2.68-1.78c1.95-2.1,3.58-5.56,4.43-8.96l3.08,0.68c-0.35,1.2-0.75,2.38-1.18,3.53h3.85v-4.51h3.13v4.51
				h8.43v2.9h-8.43v4.4h7.48v2.88h-7.48v5.03H68.49z"/>
			<path class="st0" d="M75.55,247.41c-1.03-0.73-3.18-1.9-4.66-2.7l1.6-2.2c1.38,0.68,3.6,1.75,4.71,2.43L75.55,247.41z
				 M71.25,256.42c1.33-1.88,3.25-4.98,4.76-7.88l2.18,2c-1.33,2.63-2.9,5.48-4.43,7.91L71.25,256.42z M76.63,240.58
				c-0.98-0.75-3.1-1.93-4.55-2.75l1.68-2.15c1.4,0.7,3.58,1.8,4.66,2.5L76.63,240.58z M87.72,245.46v3.15h5.11v9.99H90v-0.9h-7.51
				v1.03h-2.7v-10.11h5.11v-3.15h-6.66v-2.85h6.66v-2.93c-1.63,0.25-3.3,0.43-4.86,0.58c-0.13-0.73-0.53-1.88-0.88-2.55
				c4.25-0.43,8.96-1.25,11.71-2.35l2.28,2.35c-1.6,0.6-3.48,1.1-5.43,1.48v3.43h6.36v2.85H87.72z M90,251.31h-7.51v3.68H90V251.31z
				"/>
			<path class="st0" d="M105.77,253.06c-2.85,0.83-5.88,1.65-8.28,2.25l-0.63-2.75c0.9-0.2,1.98-0.45,3.15-0.75v-4.91h-2.55v-2.63
				h2.55v-4.55h-2.78v-2.6h8.01v2.6h-2.6v4.55h2.28v2.63h-2.28v4.25l2.75-0.73L105.77,253.06z M120.03,253.11
				c-0.88,0.68-1.85,1.33-2.65,1.8c0.93,0.63,1.95,1.15,3.05,1.5c-0.6,0.53-1.43,1.58-1.85,2.3c-2.58-1.03-4.63-2.98-6.08-5.38v5.38
				h-2.8v-3.65c-1.53,1-3.15,1.85-4.68,2.45c-0.38-0.63-1.18-1.6-1.75-2.13c2.5-0.75,5.26-2.15,7.26-3.7h-4.05v-5.86h12.54v5.86
				h-0.93L120.03,253.11z M104.97,242.58h15.39v2.35h-15.39V242.58z M119.43,241.75h-13.36v-5.63h13.36V241.75z M109.97,238.12
				h-1.53v1.63h1.53V238.12z M109.07,249.58h7.18v-1.63h-7.18V249.58z M113.45,238.12h-1.58v1.63h1.58V238.12z M114.2,251.69
				c0.4,0.65,0.9,1.25,1.48,1.83c0.75-0.53,1.65-1.28,2.23-1.83H114.2z M116.96,238.12h-1.63v1.63h1.63V238.12z"/>
			<path class="st0" d="M131.43,251.34c-2.63,1.28-5.51,2.58-7.78,3.63l-1-2.98c0.85-0.3,1.9-0.7,3.05-1.15v-6.76h-2.48v-2.8h2.48
				v-5.58h2.75v5.58h2.28v2.8h-2.28v5.63c0.78-0.33,1.55-0.68,2.33-1L131.43,251.34z M143.54,256.07c0.4,0,0.53-0.25,0.58-2.15
				c0.55,0.43,1.7,0.9,2.48,1.05c-0.28,2.88-0.98,3.63-2.73,3.63h-1.95c-2.35,0-2.85-0.83-2.85-3.2v-2.93h-1.78
				c-0.55,3-2,5.11-6.78,6.33c-0.28-0.73-1.05-1.93-1.63-2.5c3.93-0.75,5.03-2,5.48-3.83h-2.13v-7.93h12.74v7.93h-3.08v2.9
				c0,0.63,0.07,0.7,0.53,0.7H143.54z M146.12,243.55h-15.29v-2.43h3.3c-0.13-0.55-0.38-1.2-0.63-1.7l0.93-0.2h-3.05v-2.3h5.43
				v-1.53h2.93v1.53h5.93v2.3h-2.83l0.63,0.13c-0.33,0.68-0.65,1.28-0.93,1.78h3.58V243.55z M135.01,247.61h7.03v-1.25h-7.03V247.61
				z M135.01,250.61h7.03v-1.28h-7.03V250.61z M136.28,239.22c0.33,0.6,0.58,1.3,0.7,1.83l-0.33,0.08h3.18l-0.12-0.03
				c0.25-0.55,0.55-1.28,0.75-1.88H136.28z"/>
			<path class="st0" d="M151.26,244.31h15.41c0.49,0,1.53-0.05,2.14-0.14v3.12c-0.59-0.05-1.48-0.07-2.14-0.07H161
				c-0.14,2.48-0.66,4.5-1.51,6.18c-0.82,1.68-2.64,3.53-4.73,4.62l-2.75-2.04c1.67-0.65,3.32-2.02,4.26-3.44
				c0.96-1.49,1.36-3.29,1.46-5.31h-6.47c-0.68,0-1.6,0.05-2.26,0.1v-3.15C149.7,244.26,150.53,244.31,151.26,244.31z
				 M154.24,238.21h7.69c0.8,0,1.74-0.07,2.54-0.19v3.1c-0.8-0.05-1.72-0.07-2.54-0.07h-7.69c-0.8,0-1.81,0.02-2.52,0.07v-3.1
				C152.48,238.13,153.44,238.21,154.24,238.21z M167.75,239.65l-1.88,0.84c-0.49-0.99-1.22-2.43-1.86-3.34l1.88-0.79
				C166.48,237.24,167.3,238.76,167.75,239.65z M170.57,238.54l-1.88,0.84c-0.49-1.01-1.25-2.4-1.88-3.32l1.86-0.79
				C169.28,236.19,170.15,237.7,170.57,238.54z"/>
			<path class="st0" d="M181.19,258.06l-2.52-2.43c4.54-1.63,6.54-3.7,6.54-9.61v-0.91h-5.58v3.27c0,1.08,0.07,2.04,0.09,2.52h-3.29
				c0.07-0.48,0.14-1.44,0.14-2.52v-3.27h-2c-1.18,0-2.02,0.07-2.54,0.1v-3.27c0.42,0.07,1.36,0.22,2.54,0.22h2v-2.38
				c0-0.7-0.07-1.42-0.14-2.16h3.34c-0.05,0.46-0.14,1.23-0.14,2.19v2.36h5.58v-2.52c0-0.96-0.07-1.75-0.14-2.24h3.36
				c-0.07,0.5-0.16,1.27-0.16,2.24v2.52h1.74c1.25,0,1.95-0.05,2.59-0.17v3.2c-0.52-0.05-1.34-0.07-2.56-0.07h-1.76v0.79
				C188.27,251.86,186.88,255.49,181.19,258.06z M191.54,240.75l-1.62,0.53c-0.33-1.01-0.75-2.33-1.2-3.29l1.58-0.53
				C190.74,238.42,191.28,239.82,191.54,240.75z M194.01,239.96l-1.62,0.53c-0.33-1.03-0.78-2.33-1.27-3.27l1.6-0.53
				C193.16,237.65,193.7,239.05,194.01,239.96z"/>
			<path class="st0" d="M206.58,242.51c2.42-1.54,5.11-3.94,6.63-5.84l2.54,2.48c-1.79,1.8-4.05,3.68-6.33,5.22v9.71
				c0,1.06,0.05,2.55,0.21,3.15h-3.72c0.09-0.58,0.16-2.09,0.16-3.15v-7.69c-2.42,1.3-5.41,2.6-8.31,3.46l-1.48-3.03
				C200.51,245.71,203.96,244.14,206.58,242.51z"/>
			<path class="st0" d="M230.34,250.75c4.02-2.43,7.08-6.11,8.56-9.35l1.84,3.39c-1.79,3.24-4.92,6.56-8.71,8.89
				c-2.38,1.47-5.41,2.81-8.73,3.39l-1.98-3.17C225,253.37,228.06,252.15,230.34,250.75z M230.34,242.99l-2.4,2.5
				c-1.22-1.35-4.16-3.97-5.88-5.19l2.21-2.4C225.92,239.02,228.98,241.52,230.34,242.99z"/>
			<path class="st0" d="M248.96,239.24h11.86c0.68,0,1.67-0.02,2.07-0.05c-0.02,0.55-0.07,1.51-0.07,2.21v12.45
				c0,0.84,0.05,2.12,0.09,2.84h-3.41c0.02-0.38,0.02-0.79,0.02-1.25h-10.73c-0.92,0-2.26,0.07-3.04,0.14v-3.44
				c0.82,0.07,1.88,0.14,2.94,0.14h10.85v-9.95h-10.56c-0.99,0-2.26,0.05-2.92,0.1v-3.34C246.93,239.19,248.16,239.24,248.96,239.24
				z"/>
			<path class="st0" d="M271.21,245.18h10.76c0.94,0,1.82-0.1,2.34-0.14v3.77c-0.48-0.02-1.5-0.12-2.34-0.12h-10.76
				c-1.14,0-2.48,0.05-3.23,0.12v-3.77C268.7,245.1,270.16,245.18,271.21,245.18z"/>
			<path class="st0" d="M305.16,241.35c-0.8,1.88-2.12,4.45-3.69,6.61c2.33,2.07,5.18,5.14,6.56,6.87l-2.68,2.38
				c-1.53-2.16-3.72-4.62-5.93-6.8c-2.49,2.69-5.62,5.19-8.85,6.75l-2.42-2.6c3.79-1.44,7.43-4.37,9.65-6.9
				c1.55-1.8,2.99-4.18,3.51-5.89h-7.98c-0.99,0-2.28,0.14-2.78,0.17v-3.41c0.64,0.1,2.07,0.17,2.78,0.17h8.31
				c1.01,0,1.95-0.14,2.42-0.31l1.93,1.47C305.8,240.13,305.37,240.87,305.16,241.35z"/>
			<path class="st0" d="M316.12,247.03c0,1.4-1.16,2.56-2.56,2.56c-1.4,0-2.56-1.16-2.56-2.56c0-1.4,1.16-2.56,2.56-2.56
				C314.96,244.46,316.12,245.62,316.12,247.03z"/>
			<path class="st0" d="M326.17,241.48c0,3.08-0.48,7.43-2.85,10.26c-0.43-0.53-1.58-1.5-2.15-1.8c2.05-2.48,2.28-5.98,2.28-8.51
				v-3.75h10.64c-0.08-0.78-0.13-1.55-0.15-2.33h2.78c0.02,0.78,0.08,1.58,0.15,2.33h2.68c-0.65-0.35-1.38-0.68-2.03-0.93l1.48-1.63
				c1.18,0.35,2.7,1.03,3.48,1.65l-0.75,0.9h2.3v2.35h-6.81c0.25,1.43,0.63,2.75,1.03,3.93c0.63-1.03,1.15-2.13,1.53-3.3l2.75,0.65
				c-0.7,2.03-1.7,3.85-2.9,5.48c0.68,1,1.38,1.58,2.08,1.58c0.55-0.02,0.75-0.85,0.88-3c0.63,0.55,1.55,1.08,2.25,1.3
				c-0.43,3.55-1.3,4.38-3.28,4.38c-1.43,0-2.7-0.8-3.78-2.15c-0.75,0.73-1.53,1.38-2.35,1.93c-0.3-0.43-0.93-1.08-1.48-1.58v0.45
				h-1.6c1.33,0.73,2.8,1.85,3.55,2.73l-2.05,1.75c-0.73-0.95-2.35-2.23-3.73-3.05l1.7-1.43h-4.96v-5.41h7.08v4.1
				c0.85-0.55,1.63-1.2,2.35-1.93c-0.83-1.8-1.48-4-1.88-6.43h-8.23V241.48z M321.39,256.54c1.48-1.15,2.55-2.93,3.05-4.78
				l2.65,0.95c-0.58,2.08-1.55,4.15-3.25,5.48L321.39,256.54z M334.11,243.08h-7.36v-1.9h7.36V243.08z M335.51,255.74
				c0.95,0,1.13-0.25,1.25-2.23c0.55,0.45,1.83,0.88,2.6,1.05c-0.33,3.08-1.15,3.83-3.58,3.83h-4c-3.23,0-3.98-0.8-3.98-3.38v-3.23
				h2.95v3.2c0,0.68,0.2,0.75,1.35,0.75H335.51z M331.5,246.18h-2.28v1.58h2.28V246.18z M340.79,251.39c1.63,1.48,3.35,3.58,4,5.21
				l-2.7,1.35c-0.55-1.53-2.18-3.73-3.8-5.31L340.79,251.39z"/>
			<path class="st0" d="M369.93,255.09v2.83h-15.57v-2.83h6.68v-5.01h-4.83v-2.78h4.83v-4.1h-2.75c-0.38,1.3-0.88,2.5-1.4,3.45
				c-0.6-0.38-1.95-1.05-2.65-1.35c0.25-0.45,0.5-0.93,0.75-1.45l-1.43,0.65c-0.15-0.75-0.53-1.85-0.95-2.88v17.09h-2.98v-17.89
				c-0.15,2.1-0.55,4.86-1.13,6.63l-2.2-0.8c0.6-1.65,1.05-4.45,1.23-6.51l2.1,0.3v-5.11h2.98v4.73l1.45-0.6
				c0.5,0.98,1.03,2.18,1.38,3.15c0.63-1.83,1.08-3.98,1.33-6.11l2.9,0.4c-0.18,1.18-0.38,2.35-0.63,3.48h2v-4.91h2.98v4.91h5.11
				v2.8h-5.11v4.1h4.58v2.78h-4.58v5.01H369.93z"/>
			<path class="st0" d="M371.63,246.81c0.53-1.7,0.9-4.51,1.03-6.53l2.1,0.28c-0.05,2.08-0.45,5.06-0.98,6.98L371.63,246.81z
				 M395.26,243.25v2.13h-16.39v-2.13h6.63v-1.08h-5.18l0.05,0.12l-1.95,0.95c-0.18-0.73-0.53-1.78-0.93-2.75v18.19h-2.68v-23.35
				h2.68v4l1.43-0.6c0.53,1.08,1.1,2.48,1.4,3.4v-1.98h5.18v-1h-5.86v-2.13h5.86v-1.7h2.95v1.7h6.06v2.13h-6.06v1h5.38v2h-5.38v1.08
				H395.26z M393.58,255.87c0,1.3-0.25,2-1.15,2.4c-0.88,0.43-2.13,0.43-3.85,0.43c-0.1-0.73-0.45-1.8-0.8-2.53
				c1.03,0.08,2.2,0.05,2.53,0.05c0.35,0,0.48-0.1,0.48-0.4v-0.83h-7.48v3.75h-2.75v-12.41h13.04V255.87z M383.3,248.51v1.18h7.48
				v-1.18H383.3z M390.78,252.94v-1.15h-7.48v1.15H390.78z"/>
			<path class="st0" d="M404.95,241.75h4.18v2.5h-2.08l0.98,0.25c-0.43,0.93-0.8,1.9-1.15,2.65h1.88v2.5h-3.8v1.93h3.53v2.5h-3.53
				v4.56h-2.75v-4.56h-3.73v-2.5h3.73v-1.93h-3.93v-2.5h1.88c-0.15-0.8-0.48-1.85-0.83-2.68l0.9-0.23h-2.48v-2.5h4.45v-1.73h-3.58
				v-2.45h3.58v-2.18h2.75v2.18h3.25v2.45h-3.25V241.75z M404.58,246.93c0.3-0.75,0.68-1.83,0.9-2.68h-3.8
				c0.43,0.9,0.78,1.98,0.88,2.68l-0.8,0.23h3.63L404.58,246.93z M420.59,245.48c-0.48,3.03-1.35,5.83-2.63,8.18
				c1.03,1.13,2.18,2.08,3.48,2.73c-0.65,0.55-1.5,1.6-1.93,2.35c-1.18-0.7-2.2-1.6-3.13-2.65c-0.8,1.03-1.7,1.93-2.73,2.68
				c-0.33-0.5-0.85-1.08-1.38-1.55v1.48h-2.7v-22.3h10.44v4.7c0,1.28-0.28,2-1.25,2.4c-0.95,0.4-2.3,0.43-4.13,0.43
				c-0.13-0.8-0.5-1.83-0.85-2.55c1.23,0.05,2.6,0.05,2.98,0.05c0.38-0.02,0.5-0.1,0.5-0.38V239h-4.98v5.98h6.03l0.5-0.12
				L420.59,245.48z M412.29,256.32c0.9-0.73,1.7-1.58,2.4-2.55c-0.98-1.6-1.78-3.43-2.4-5.41V256.32z M414.39,247.33
				c0.45,1.38,1.05,2.68,1.78,3.88c0.58-1.2,1.03-2.53,1.33-3.88H414.39z"/>
			<path class="st0" d="M426.16,244.31h15.41c0.49,0,1.53-0.05,2.14-0.14v3.12c-0.59-0.05-1.48-0.07-2.14-0.07h-5.67
				c-0.14,2.48-0.66,4.5-1.51,6.18c-0.82,1.68-2.64,3.53-4.73,4.62l-2.75-2.04c1.67-0.65,3.32-2.02,4.26-3.44
				c0.96-1.49,1.36-3.29,1.46-5.31h-6.47c-0.68,0-1.6,0.05-2.26,0.1v-3.15C424.6,244.26,425.43,244.31,426.16,244.31z
				 M429.14,238.21h7.69c0.8,0,1.74-0.07,2.54-0.19v3.1c-0.8-0.05-1.72-0.07-2.54-0.07h-7.69c-0.8,0-1.81,0.02-2.52,0.07v-3.1
				C427.38,238.13,428.34,238.21,429.14,238.21z M442.65,239.65l-1.88,0.84c-0.49-0.99-1.22-2.43-1.86-3.34l1.88-0.79
				C441.38,237.24,442.2,238.76,442.65,239.65z M445.47,238.54l-1.88,0.84c-0.49-1.01-1.25-2.4-1.88-3.32l1.86-0.79
				C444.18,236.19,445.05,237.7,445.47,238.54z"/>
			<path class="st0" d="M456.09,258.06l-2.52-2.43c4.54-1.63,6.54-3.7,6.54-9.61v-0.91h-5.58v3.27c0,1.08,0.07,2.04,0.09,2.52h-3.29
				c0.07-0.48,0.14-1.44,0.14-2.52v-3.27h-2c-1.18,0-2.02,0.07-2.54,0.1v-3.27c0.42,0.07,1.36,0.22,2.54,0.22h2v-2.38
				c0-0.7-0.07-1.42-0.14-2.16h3.34c-0.05,0.46-0.14,1.23-0.14,2.19v2.36h5.58v-2.52c0-0.96-0.07-1.75-0.14-2.24h3.36
				c-0.07,0.5-0.16,1.27-0.16,2.24v2.52h1.74c1.25,0,1.95-0.05,2.59-0.17v3.2c-0.52-0.05-1.34-0.07-2.56-0.07h-1.76v0.79
				C463.17,251.86,461.78,255.49,456.09,258.06z M466.44,240.75l-1.62,0.53c-0.33-1.01-0.75-2.33-1.2-3.29l1.58-0.53
				C465.64,238.42,466.18,239.82,466.44,240.75z M468.91,239.96l-1.62,0.53c-0.33-1.03-0.78-2.33-1.27-3.27l1.6-0.53
				C468.06,237.65,468.6,239.05,468.91,239.96z"/>
			<path class="st0" d="M481.48,242.51c2.42-1.54,5.11-3.94,6.63-5.84l2.54,2.48c-1.79,1.8-4.05,3.68-6.33,5.22v9.71
				c0,1.06,0.05,2.55,0.21,3.15h-3.72c0.09-0.58,0.16-2.09,0.16-3.15v-7.69c-2.42,1.3-5.41,2.6-8.31,3.46l-1.48-3.03
				C475.41,245.71,478.87,244.14,481.48,242.51z"/>
			<path class="st0" d="M505.24,250.75c4.02-2.43,7.08-6.11,8.56-9.35l1.84,3.39c-1.79,3.24-4.92,6.56-8.71,8.89
				c-2.38,1.47-5.41,2.81-8.73,3.39l-1.98-3.17C499.9,253.37,502.96,252.15,505.24,250.75z M505.24,242.99l-2.4,2.5
				c-1.22-1.35-4.16-3.97-5.88-5.19l2.21-2.4C500.82,239.02,503.88,241.52,505.24,242.99z"/>
			<path class="st0" d="M523.86,239.24h11.86c0.68,0,1.67-0.02,2.07-0.05c-0.02,0.55-0.07,1.51-0.07,2.21v12.45
				c0,0.84,0.05,2.12,0.09,2.84h-3.41c0.02-0.38,0.02-0.79,0.02-1.25h-10.73c-0.92,0-2.26,0.07-3.04,0.14v-3.44
				c0.82,0.07,1.88,0.14,2.94,0.14h10.85v-9.95h-10.56c-0.99,0-2.26,0.05-2.92,0.1v-3.34C521.83,239.19,523.06,239.24,523.86,239.24
				z"/>
			<path class="st0" d="M546.11,245.18h10.76c0.94,0,1.82-0.1,2.34-0.14v3.77c-0.48-0.02-1.5-0.12-2.34-0.12h-10.76
				c-1.14,0-2.48,0.05-3.23,0.12v-3.77C543.6,245.1,545.06,245.18,546.11,245.18z"/>
			<path class="st0" d="M580.06,241.35c-0.8,1.88-2.12,4.45-3.69,6.61c2.33,2.07,5.18,5.14,6.56,6.87l-2.68,2.38
				c-1.53-2.16-3.72-4.62-5.93-6.8c-2.49,2.69-5.62,5.19-8.85,6.75l-2.42-2.6c3.79-1.44,7.43-4.37,9.65-6.9
				c1.55-1.8,2.99-4.18,3.51-5.89h-7.98c-0.99,0-2.28,0.14-2.78,0.17v-3.41c0.64,0.1,2.07,0.17,2.78,0.17h8.31
				c1.01,0,1.95-0.14,2.42-0.31l1.93,1.47C580.7,240.13,580.27,240.87,580.06,241.35z"/>
			<path class="st0" d="M55.95,268.36c-0.45,4.15-1.83,6.78-8.18,8.16c-0.25-0.7-1-1.9-1.6-2.5c5.46-0.95,6.33-2.7,6.73-5.66h-3.45
				v2.9h-2.93v-5.61h9.06v-2.25h3.05v2.25h9.29v5.18h-3.08v-2.48h-3.53v3.95c0,0.68,0.15,0.78,0.93,0.78h2.23
				c0.63,0,0.75-0.25,0.85-1.83c0.55,0.43,1.78,0.85,2.55,1.03c-0.3,2.63-1.1,3.33-3.1,3.33h-2.98c-2.8,0-3.4-0.8-3.4-3.28v-3.98
				H55.95z M68.14,283.4v2.7h-21.9v-2.7h9.34v-3.73h-6.71v-2.68h17.14v2.68h-7.38v3.73H68.14z"/>
			<path class="st0" d="M75.43,273.39v13.39h-2.95v-22.42h9.59v9.03H75.43z M75.43,266.51v1.33h3.85v-1.33H75.43z M79.28,271.26
				v-1.43h-3.85v1.43H79.28z M93.6,283.25c0,1.6-0.33,2.48-1.33,2.95c-0.98,0.5-2.43,0.57-4.58,0.57c-0.08-0.63-0.35-1.55-0.65-2.33
				h-6.21v1.28h-2.7v-10.81h1.23v-0.02l8.41,0.02v8.86c0.98,0.03,1.9,0.03,2.23,0c0.45,0,0.6-0.15,0.6-0.55v-9.79h-6.81v-9.09h9.81
				V283.25z M84.96,277.09h-4.13v1.5h4.13V277.09z M84.96,282.27v-1.55h-4.13v1.55H84.96z M86.62,266.51v1.33h3.98v-1.33H86.62z
				 M90.6,271.31v-1.48h-3.98v1.48H90.6z"/>
			<path class="st0" d="M99.18,272.37h15.41c0.49,0,1.53-0.05,2.14-0.14v3.12c-0.59-0.05-1.48-0.07-2.14-0.07h-5.67
				c-0.14,2.48-0.66,4.5-1.51,6.18c-0.82,1.68-2.64,3.53-4.73,4.62l-2.75-2.04c1.67-0.65,3.32-2.02,4.26-3.44
				c0.96-1.49,1.36-3.29,1.46-5.31h-6.47c-0.68,0-1.6,0.05-2.26,0.1v-3.15C97.63,272.32,98.46,272.37,99.18,272.37z M102.17,266.27
				h7.69c0.8,0,1.74-0.07,2.54-0.19v3.1c-0.8-0.05-1.72-0.07-2.54-0.07h-7.69c-0.8,0-1.81,0.02-2.52,0.07v-3.1
				C100.41,266.19,101.37,266.27,102.17,266.27z M115.68,267.71l-1.88,0.84c-0.49-0.99-1.22-2.43-1.86-3.34l1.88-0.79
				C114.41,265.3,115.23,266.82,115.68,267.71z M118.5,266.6l-1.88,0.84c-0.49-1.01-1.25-2.4-1.88-3.32l1.86-0.79
				C117.21,264.25,118.08,265.76,118.5,266.6z"/>
			<path class="st0" d="M129.12,286.12l-2.52-2.43c4.54-1.63,6.54-3.7,6.54-9.61v-0.91h-5.58v3.27c0,1.08,0.07,2.04,0.09,2.52h-3.29
				c0.07-0.48,0.14-1.44,0.14-2.52v-3.27h-2c-1.18,0-2.02,0.07-2.54,0.1v-3.27c0.42,0.07,1.36,0.22,2.54,0.22h2v-2.38
				c0-0.7-0.07-1.42-0.14-2.16h3.34c-0.05,0.46-0.14,1.23-0.14,2.19v2.36h5.58v-2.52c0-0.96-0.07-1.75-0.14-2.24h3.36
				c-0.07,0.5-0.16,1.27-0.16,2.24v2.52h1.74c1.25,0,1.95-0.05,2.59-0.17v3.2c-0.52-0.05-1.34-0.07-2.56-0.07h-1.76v0.79
				C136.2,279.92,134.81,283.55,129.12,286.12z M139.47,268.81l-1.62,0.53c-0.33-1.01-0.75-2.33-1.2-3.29l1.58-0.53
				C138.67,266.48,139.21,267.88,139.47,268.81z M141.94,268.02l-1.62,0.53c-0.33-1.03-0.78-2.33-1.27-3.27l1.6-0.53
				C141.09,265.71,141.63,267.11,141.94,268.02z"/>
			<path class="st0" d="M154.51,270.57c2.42-1.54,5.11-3.94,6.63-5.84l2.54,2.48c-1.79,1.8-4.05,3.68-6.33,5.22v9.71
				c0,1.06,0.05,2.55,0.21,3.15h-3.72c0.09-0.58,0.16-2.09,0.16-3.15v-7.69c-2.42,1.3-5.41,2.6-8.31,3.46l-1.48-3.03
				C148.44,273.77,151.9,272.2,154.51,270.57z"/>
			<path class="st0" d="M178.27,278.81c4.02-2.43,7.08-6.11,8.56-9.35l1.84,3.39c-1.79,3.24-4.92,6.56-8.71,8.89
				c-2.38,1.47-5.41,2.81-8.73,3.39l-1.98-3.17C172.93,281.43,175.99,280.21,178.27,278.81z M178.27,271.05l-2.4,2.5
				c-1.22-1.35-4.16-3.97-5.88-5.19l2.21-2.4C173.85,267.08,176.91,269.58,178.27,271.05z"/>
			<path class="st0" d="M196.89,267.3h11.86c0.68,0,1.67-0.02,2.07-0.05c-0.02,0.55-0.07,1.51-0.07,2.21v12.45
				c0,0.84,0.05,2.12,0.09,2.84h-3.41c0.02-0.38,0.02-0.79,0.02-1.25h-10.73c-0.92,0-2.26,0.07-3.04,0.14v-3.44
				c0.82,0.07,1.88,0.14,2.94,0.14h10.85v-9.95h-10.56c-0.99,0-2.26,0.05-2.92,0.1v-3.34C194.86,267.25,196.09,267.3,196.89,267.3z"
				/>
			<path class="st0" d="M219.14,273.24h10.76c0.94,0,1.82-0.1,2.34-0.14v3.77c-0.48-0.02-1.5-0.12-2.34-0.12h-10.76
				c-1.14,0-2.48,0.05-3.23,0.12v-3.77C216.63,273.16,218.09,273.24,219.14,273.24z"/>
			<path class="st0" d="M253.09,269.41c-0.8,1.88-2.12,4.45-3.69,6.61c2.33,2.07,5.18,5.14,6.56,6.87l-2.68,2.38
				c-1.53-2.16-3.72-4.62-5.93-6.8c-2.49,2.69-5.62,5.19-8.85,6.75l-2.42-2.6c3.79-1.44,7.43-4.38,9.65-6.9
				c1.55-1.8,2.99-4.18,3.51-5.89h-7.98c-0.99,0-2.28,0.14-2.78,0.17v-3.41c0.64,0.1,2.07,0.17,2.78,0.17h8.31
				c1.01,0,1.95-0.14,2.42-0.31l1.93,1.47C253.73,268.19,253.3,268.93,253.09,269.41z"/>
			<path class="st0" d="M263.58,275.09c0,1.4-1.16,2.56-2.56,2.56c-1.4,0-2.56-1.16-2.56-2.56c0-1.4,1.16-2.56,2.56-2.56
				C262.42,272.52,263.58,273.68,263.58,275.09z"/>
			<path class="st0" d="M284.47,268.72c-0.71,1.9-1.76,4.33-3.15,6.54c2.07,1.73,4.05,3.58,5.65,5.31l-2.42,2.74
				c-1.65-1.97-3.34-3.65-5.22-5.31c-2.07,2.55-4.78,5.22-8.75,7.43l-2.64-2.43c3.84-1.9,6.61-4.23,8.94-7.09
				c-1.69-1.37-3.95-3.08-6.35-4.57l2-2.45c1.88,1.18,4.35,2.91,6.26,4.35c1.2-1.92,2-3.82,2.61-5.72c0.21-0.63,0.47-1.59,0.56-2.21
				l3.51,1.25C285.15,267.11,284.7,268.16,284.47,268.72z"/>
			<path class="st0" d="M293.34,272.37h15.41c0.49,0,1.53-0.05,2.14-0.14v3.12c-0.59-0.05-1.48-0.07-2.14-0.07h-5.67
				c-0.14,2.48-0.66,4.5-1.51,6.18c-0.82,1.68-2.64,3.53-4.73,4.62l-2.75-2.04c1.67-0.65,3.32-2.02,4.26-3.44
				c0.96-1.49,1.36-3.29,1.46-5.31h-6.47c-0.68,0-1.6,0.05-2.26,0.1v-3.15C291.79,272.32,292.61,272.37,293.34,272.37z
				 M296.33,266.27h7.69c0.8,0,1.74-0.07,2.54-0.19v3.1c-0.8-0.05-1.72-0.07-2.54-0.07h-7.69c-0.8,0-1.81,0.02-2.52,0.07v-3.1
				C294.57,266.19,295.53,266.27,296.33,266.27z M309.83,267.71l-1.88,0.84c-0.49-0.99-1.22-2.43-1.86-3.34l1.88-0.79
				C308.56,265.3,309.39,266.82,309.83,267.71z M312.66,266.6l-1.88,0.84c-0.49-1.01-1.25-2.4-1.88-3.32l1.86-0.79
				C311.36,264.25,312.23,265.76,312.66,266.6z"/>
			<path class="st0" d="M324.1,273.93c2.28-1.42,4.66-3.58,5.86-5.14l2.33,2.33c-1.11,1.25-3.18,2.96-5.27,4.38v8.24
				c0,0.84,0.02,2.12,0.16,2.6h-3.48c0.05-0.48,0.12-1.75,0.12-2.6v-6.35c-2.07,1.06-4.71,2.16-6.75,2.81l-1.39-2.84
				C318.73,276.7,322.24,275.09,324.1,273.93z"/>
			<path class="st0" d="M358.47,269.2c-1.11,1.88-3.34,4.9-5.65,6.59l-2.45-2c1.88-1.18,3.72-3.29,4.33-4.47h-12.26
				c-0.99,0-1.76,0.07-2.87,0.17v-3.34c0.89,0.14,1.88,0.24,2.87,0.24h12.68c0.66,0,1.95-0.07,2.4-0.22l1.86,1.78
				C359.13,268.26,358.69,268.84,358.47,269.2z M343.28,285.57l-2.75-2.28c0.75-0.26,1.6-0.67,2.47-1.32
				c2.99-2.12,3.55-4.66,3.55-8.6c0-0.75-0.05-1.39-0.16-2.16h3.41C349.79,277.15,349.67,282.06,343.28,285.57z"/>
			<path class="st0" d="M364.64,272.37h15.41c0.49,0,1.53-0.05,2.14-0.14v3.12c-0.59-0.05-1.48-0.07-2.14-0.07h-5.67
				c-0.14,2.48-0.66,4.5-1.51,6.18c-0.82,1.68-2.64,3.53-4.73,4.62l-2.75-2.04c1.67-0.65,3.32-2.02,4.26-3.44
				c0.96-1.49,1.36-3.29,1.46-5.31h-6.47c-0.68,0-1.6,0.05-2.26,0.1v-3.15C363.09,272.32,363.91,272.37,364.64,272.37z
				 M367.63,266.27h7.69c0.8,0,1.74-0.07,2.54-0.19v3.1c-0.8-0.05-1.72-0.07-2.54-0.07h-7.69c-0.8,0-1.81,0.02-2.52,0.07v-3.1
				C365.87,266.19,366.83,266.27,367.63,266.27z M381.14,267.71l-1.88,0.84c-0.49-0.99-1.22-2.43-1.86-3.34l1.88-0.79
				C379.86,265.3,380.69,266.82,381.14,267.71z M383.96,266.6l-1.88,0.84c-0.49-1.01-1.25-2.4-1.88-3.32l1.86-0.79
				C382.66,264.25,383.53,265.76,383.96,266.6z"/>
			<path class="st0" d="M394.57,286.12l-2.52-2.43c4.54-1.63,6.54-3.7,6.54-9.61v-0.91h-5.58v3.27c0,1.08,0.07,2.04,0.09,2.52h-3.29
				c0.07-0.48,0.14-1.44,0.14-2.52v-3.27h-2c-1.18,0-2.02,0.07-2.54,0.1v-3.27c0.42,0.07,1.36,0.22,2.54,0.22h2v-2.38
				c0-0.7-0.07-1.42-0.14-2.16h3.34c-0.05,0.46-0.14,1.23-0.14,2.19v2.36h5.58v-2.52c0-0.96-0.07-1.75-0.14-2.24h3.36
				c-0.07,0.5-0.16,1.27-0.16,2.24v2.52h1.74c1.25,0,1.95-0.05,2.59-0.17v3.2c-0.52-0.05-1.34-0.07-2.56-0.07h-1.76v0.79
				C401.66,279.92,400.27,283.55,394.57,286.12z M404.93,268.81l-1.62,0.53c-0.33-1.01-0.75-2.33-1.2-3.29l1.58-0.53
				C404.13,266.48,404.67,267.88,404.93,268.81z M407.4,268.02l-1.62,0.53c-0.33-1.03-0.78-2.33-1.27-3.27l1.6-0.53
				C406.55,265.71,407.09,267.11,407.4,268.02z"/>
			<path class="st0" d="M419.96,270.57c2.42-1.54,5.11-3.94,6.63-5.84l2.54,2.48c-1.79,1.8-4.05,3.68-6.33,5.22v9.71
				c0,1.06,0.05,2.55,0.21,3.15h-3.72c0.09-0.58,0.16-2.09,0.16-3.15v-7.69c-2.42,1.3-5.41,2.6-8.31,3.46l-1.48-3.03
				C413.89,273.77,417.35,272.2,419.96,270.57z"/>
			<path class="st0" d="M443.73,278.81c4.02-2.43,7.08-6.11,8.56-9.35l1.84,3.39c-1.79,3.24-4.92,6.56-8.71,8.89
				c-2.38,1.47-5.41,2.81-8.73,3.39l-1.98-3.17C438.39,281.43,441.45,280.21,443.73,278.81z M443.73,271.05l-2.4,2.5
				c-1.22-1.35-4.16-3.97-5.88-5.19l2.21-2.4C439.31,267.08,442.37,269.58,443.73,271.05z"/>
			<path class="st0" d="M462.34,267.3h11.86c0.68,0,1.67-0.02,2.07-0.05c-0.02,0.55-0.07,1.51-0.07,2.21v12.45
				c0,0.84,0.05,2.12,0.09,2.84h-3.41c0.02-0.38,0.02-0.79,0.02-1.25h-10.73c-0.92,0-2.26,0.07-3.04,0.14v-3.44
				c0.82,0.07,1.88,0.14,2.94,0.14h10.85v-9.95h-10.56c-0.99,0-2.26,0.05-2.92,0.1v-3.34C460.32,267.25,461.55,267.3,462.34,267.3z"
				/>
			<path class="st0" d="M484.59,273.24h10.76c0.94,0,1.82-0.1,2.34-0.14v3.77c-0.48-0.02-1.5-0.12-2.34-0.12h-10.76
				c-1.14,0-2.48,0.05-3.23,0.12v-3.77C482.09,273.16,483.55,273.24,484.59,273.24z"/>
			<path class="st0" d="M518.55,269.41c-0.8,1.88-2.12,4.45-3.69,6.61c2.33,2.07,5.18,5.14,6.56,6.87l-2.68,2.38
				c-1.53-2.16-3.72-4.62-5.93-6.8c-2.49,2.69-5.62,5.19-8.85,6.75l-2.42-2.6c3.79-1.44,7.43-4.38,9.65-6.9
				c1.55-1.8,2.99-4.18,3.51-5.89h-7.98c-0.99,0-2.28,0.14-2.78,0.17v-3.41c0.64,0.1,2.07,0.17,2.78,0.17h8.31
				c1.01,0,1.95-0.14,2.42-0.31l1.93,1.47C519.19,268.19,518.76,268.93,518.55,269.41z"/>
		</g>
		<g>
			<path class="st0" d="M89.96,466.34H47.47c-0.29-11.22,5.74-19.17,22.07-29.09c9.63-6.08,12.15-9.17,12.15-15.06
				c0-6.55-4.86-11.13-11.77-11.13c-5.35,0-9.43,2.62-11.08,7.01c-0.58,1.78-0.78,3.46-0.78,8.04h-8.65v-2.34
				c0-6.36,1.36-10.66,4.57-14.12c3.69-4.21,9.33-6.36,16.24-6.36c12.25,0,20.52,7.58,20.52,18.8c0,5.42-1.94,10.01-5.74,13.84
				c-2.63,2.62-3.89,3.55-13.42,9.45c-6.71,4.3-12.15,9.63-13.32,13.19h31.7V466.34z"/>
			<path class="st0" d="M144.32,413.59c3.21,5.71,4.57,12.35,4.57,22.26c0,8.98-1.46,15.9-4.57,21.42
				c-3.69,6.45-10.31,10.29-17.79,10.29c-7.39,0-14-3.83-17.7-10.29c-3.11-5.71-4.57-12.35-4.57-21.89c0-9.45,1.46-16.37,4.57-21.79
				c3.79-6.45,10.31-10.29,17.7-10.29C134.11,403.3,140.62,407.04,144.32,413.59z M116.02,418.27c-1.85,4.21-2.72,9.45-2.72,17.12
				s0.88,13,2.72,17.21c2.04,4.4,6.03,7.2,10.6,7.2c4.47,0,8.56-2.81,10.5-7.2c1.85-4.21,2.72-9.45,2.72-16.84
				c0-8.04-0.78-13.37-2.72-17.49c-2.04-4.49-6.13-7.2-10.6-7.2C122.05,411.06,118.06,413.77,116.02,418.27z"/>
			<path class="st0" d="M206.35,466.34h-42.49c-0.29-11.22,5.74-19.17,22.07-29.09c9.63-6.08,12.15-9.17,12.15-15.06
				c0-6.55-4.86-11.13-11.77-11.13c-5.35,0-9.43,2.62-11.08,7.01c-0.58,1.78-0.78,3.46-0.78,8.04h-8.65v-2.34
				c0-6.36,1.36-10.66,4.57-14.12c3.69-4.21,9.33-6.36,16.24-6.36c12.25,0,20.52,7.58,20.52,18.8c0,5.42-1.94,10.01-5.74,13.84
				c-2.63,2.62-3.89,3.55-13.42,9.45c-6.71,4.3-12.15,9.63-13.32,13.19h31.7V466.34z"/>
			<path class="st0" d="M262.06,466.34h-42.49c-0.29-11.22,5.74-19.17,22.07-29.09c9.63-6.08,12.15-9.17,12.15-15.06
				c0-6.55-4.86-11.13-11.77-11.13c-5.35,0-9.43,2.62-11.08,7.01c-0.58,1.78-0.78,3.46-0.78,8.04h-8.65v-2.34
				c0-6.36,1.36-10.66,4.57-14.12c3.69-4.21,9.33-6.36,16.24-6.36c12.25,0,20.52,7.58,20.52,18.8c0,5.42-1.94,10.01-5.74,13.84
				c-2.63,2.62-3.89,3.55-13.42,9.45c-6.71,4.3-12.15,9.63-13.32,13.19h31.7V466.34z"/>
			<path class="st0" d="M289.48,465.09h-9.01v-8.42h9.01V465.09z"/>
			<path class="st0" d="M374.97,466.03h-59.91c-0.41-15.83,8.09-27.04,31.12-41.02c13.57-8.57,17.14-12.92,17.14-21.23
				c0-9.23-6.85-15.69-16.59-15.69c-7.54,0-13.3,3.69-15.63,9.89c-0.82,2.51-1.1,4.88-1.1,11.34h-12.2v-3.3
				c0-8.97,1.92-15.03,6.44-19.91c5.21-5.94,13.16-8.97,22.89-8.97c17.27,0,28.93,10.68,28.93,26.51c0,7.65-2.74,14.11-8.09,19.52
				c-3.7,3.69-5.48,5.01-18.92,13.32c-9.46,6.07-17.14,13.58-18.78,18.6h44.69V466.03z"/>
			<path class="st0" d="M401.63,465.09h-9.01v-8.42h9.01V465.09z"/>
			<path class="st0" d="M449.83,466.03h-12.06v-62.51h-20.7v-8.57c11.79,0.4,21.25-6.07,23.44-15.96h9.32V466.03z"/>
			<path class="st0" d="M533.31,440.98c0,15.43-13.3,26.77-31.12,26.77c-17.96,0-31.26-11.47-31.26-26.77
				c0-9.89,5.07-17.41,15.49-22.95c-7.54-4.22-11.38-10.55-11.38-18.33c0-13.06,11.38-22.55,27.14-22.55
				c15.63,0,27.01,9.5,27.01,22.55c0,7.78-3.84,14.11-11.38,18.33C528.24,423.57,533.31,431.08,533.31,440.98z M483.69,440.32
				c0,9.76,7.54,16.49,18.51,16.49c10.69,0,18.37-6.73,18.37-16.22c0-9.89-7.4-16.62-18.51-16.62
				C491.23,423.96,483.69,430.69,483.69,440.32z M487.39,400.62c0,7.39,6.03,12.53,14.81,12.53c8.5,0,14.67-5.14,14.67-12.4
				c0-7.52-5.89-12.66-14.81-12.66C493.42,388.09,487.39,393.23,487.39,400.62z"/>
			<path class="st0" d="M578.49,433.01h-21.58v12.16h18.12v4.86h-18.12v18.48h-5.78v-40.55h27.36V433.01z"/>
			<path class="st0" d="M590.17,439.15v4.62c1.16-1.7,1.64-2.37,2.43-3.1c1.34-1.4,3.47-2.31,5.23-2.31c1.09,0,2.13,0.24,3.1,0.73
				v5.05c-1.16-0.24-1.76-0.3-2.55-0.3c-4.5,0-7.96,4.01-7.96,9.24v15.44h-5.59v-29.36H590.17z"/>
			<path class="st0" d="M615.52,434.47h-5.59v-6.51h5.59V434.47z M615.52,468.52h-5.59v-29.36h5.59V468.52z"/>
			<path class="st0" d="M683.12,430.93h-34.4v-8.03h34.4V430.93z"/>
			<path class="st0" d="M778.73,466.22h-60.16c-0.41-15.89,8.12-27.15,31.25-41.19c13.63-8.61,17.21-12.98,17.21-21.32
				c0-9.27-6.88-15.76-16.66-15.76c-7.57,0-13.35,3.71-15.69,9.93c-0.83,2.52-1.1,4.9-1.1,11.39h-12.25v-3.31
				c0-9.01,1.93-15.1,6.47-20c5.23-5.96,13.21-9.01,22.99-9.01c17.34,0,29.05,10.73,29.05,26.62c0,7.68-2.75,14.17-8.12,19.6
				c-3.72,3.71-5.51,5.03-19,13.38c-9.5,6.09-17.21,13.64-18.86,18.67h44.88V466.22z"/>
			<path class="st0" d="M850.32,391.52c4.54,8.08,6.47,17.48,6.47,31.52c0,12.71-2.06,22.51-6.47,30.33
				c-5.23,9.14-14.59,14.57-25.19,14.57c-10.46,0-19.82-5.43-25.05-14.57c-4.4-8.08-6.47-17.48-6.47-30.99
				c0-13.38,2.06-23.18,6.47-30.86c5.37-9.14,14.59-14.57,25.05-14.57C835.86,376.96,845.09,382.25,850.32,391.52z M810.26,398.15
				c-2.62,5.96-3.85,13.38-3.85,24.24c0,10.86,1.24,18.41,3.85,24.37c2.89,6.22,8.53,10.2,15,10.2c6.33,0,12.11-3.97,14.87-10.2
				c2.62-5.96,3.85-13.38,3.85-23.84c0-11.39-1.1-18.94-3.85-24.76c-2.89-6.36-8.67-10.2-15-10.2S813.15,391.79,810.26,398.15z"/>
			<path class="st0" d="M893.77,440.49c-0.61-5.59-3.95-8.33-10.09-8.33c-5.41,0-8.88,2.31-8.88,5.84c0,2.98,2.13,4.74,7.29,5.9
				l6.57,1.46c4.8,1.09,7.23,2.13,9.18,3.89c2.13,1.88,3.28,4.62,3.28,7.78c0,7.66-6.2,12.4-16.05,12.4
				c-10.52,0-16.84-5.35-17.69-15.08h6.02c0.61,6.44,4.86,10.03,11.85,10.03c5.84,0,9.97-2.86,9.97-6.93c0-3.04-2.19-5.05-6.44-6.08
				l-9.12-2.19c-7.42-1.76-10.76-5.05-10.76-10.52c0-7.11,5.9-11.61,15.2-11.61s14.29,4.32,15.56,13.43H893.77z"/>
			<path class="st0" d="M929.03,468.52v-3.34c-2.92,3.1-5.29,4.13-9.3,4.13c-3.47,0-6.32-1.16-7.96-3.22
				c-1.4-1.82-1.95-3.89-1.95-7.3v-19.64h5.59v19.21c0,4.01,1.82,5.96,5.65,5.96c4.8,0,7.72-2.8,7.72-7.36v-17.81h5.59v29.36H929.03
				z"/>
			<path class="st0" d="M948.43,439.15v3.34c2.92-3.1,5.29-4.13,9.3-4.13c3.47,0,6.32,1.15,7.96,3.22c1.4,1.82,1.95,3.89,1.95,7.3
				v19.64h-5.59v-19.21c0-4.01-1.82-5.96-5.65-5.96c-4.8,0-7.72,2.8-7.72,7.36v17.81h-5.59v-29.36H948.43z"/>
		</g>
		<path class="st0" d="M977.8,201.83H42.67c-2.05,0-3.71-1.66-3.71-3.71c0-2.05,1.66-3.71,3.71-3.71H977.8
			c2.05,0,3.71,1.66,3.71,3.71C981.51,200.17,979.85,201.83,977.8,201.83z"/>
	</g>
</g>
<g id="レイヤー_5">
</g>
<g id="レイヤー_1">
</g>
</svg>
