<svg width="191" height="53" fill="#EA574E" xmlns="http://www.w3.org/2000/svg"><path d="M27.396 38l-2.69-8.836H11.171L8.48 38H0L13.102.727h9.623L35.877 38h-8.48zm-4.57-15.438l-2.691-8.632a98.695 98.695 0 00-.686-2.21c-.27-.913-.55-1.836-.838-2.767-.27-.948-.49-1.769-.66-2.463-.17.694-.406 1.558-.71 2.59a320.7 320.7 0 01-1.422 4.85l-2.667 8.633h9.674zM57.07 6.896c-1.507 0-2.844.297-4.012.89-1.151.575-2.124 1.413-2.92 2.513-.779 1.1-1.37 2.429-1.777 3.986-.406 1.557-.61 3.31-.61 5.256 0 2.624.322 4.867.965 6.729.66 1.845 1.676 3.258 3.047 4.24 1.371.965 3.14 1.447 5.307 1.447a20.6 20.6 0 004.52-.508c1.523-.338 3.173-.82 4.95-1.447v6.601a23.868 23.868 0 01-4.85 1.448c-1.59.304-3.376.457-5.356.457-3.826 0-6.975-.787-9.446-2.361-2.454-1.592-4.274-3.81-5.459-6.653-1.185-2.86-1.777-6.195-1.777-10.004 0-2.81.38-5.383 1.142-7.718.762-2.336 1.88-4.36 3.352-6.069 1.473-1.71 3.292-3.03 5.459-3.96C51.772.81 54.26.345 57.07.345c1.845 0 3.69.237 5.535.71a27.355 27.355 0 015.332 1.905l-2.54 6.398a42.031 42.031 0 00-4.189-1.726c-1.404-.491-2.784-.737-4.138-.737zm33.888 0c-1.507 0-2.844.297-4.012.89-1.15.575-2.124 1.413-2.92 2.513-.778 1.1-1.37 2.429-1.777 3.986-.406 1.557-.61 3.31-.61 5.256 0 2.624.322 4.867.965 6.729.66 1.845 1.676 3.258 3.047 4.24 1.371.965 3.14 1.447 5.307 1.447 1.507 0 3.013-.17 4.52-.508 1.523-.338 3.173-.82 4.951-1.447v6.601a23.877 23.877 0 01-4.85 1.448c-1.591.304-3.377.457-5.357.457-3.826 0-6.974-.787-9.446-2.361-2.454-1.592-4.274-3.81-5.459-6.653-1.185-2.86-1.777-6.195-1.777-10.004 0-2.81.38-5.383 1.143-7.718.761-2.336 1.878-4.36 3.351-6.069 1.473-1.71 3.292-3.03 5.46-3.96C85.66.81 88.147.345 90.957.345c1.845 0 3.69.237 5.535.71a27.358 27.358 0 015.332 1.905l-2.539 6.398a42.023 42.023 0 00-4.19-1.726c-1.404-.491-2.784-.737-4.138-.737zM130.457 38h-21.378V.879h21.378v6.45H116.95v8.15h12.568v6.449H116.95V31.5h13.507V38zm30.41-10.309c0 2.2-.533 4.114-1.6 5.739-1.066 1.625-2.623 2.877-4.671 3.758-2.032.88-4.503 1.32-7.414 1.32a27.85 27.85 0 01-3.784-.254 26.086 26.086 0 01-3.529-.736 21.982 21.982 0 01-3.199-1.245v-7.312a60.254 60.254 0 005.484 2.107c1.896.627 3.775.94 5.637.94 1.286 0 2.319-.17 3.098-.508.795-.338 1.371-.804 1.726-1.396.356-.593.533-1.27.533-2.032 0-.93-.313-1.726-.939-2.386-.626-.66-1.49-1.278-2.59-1.854a104.91 104.91 0 00-3.682-1.854 42.463 42.463 0 01-2.818-1.472 16.475 16.475 0 01-2.894-2.158c-.915-.847-1.668-1.87-2.26-3.073-.576-1.218-.864-2.674-.864-4.367 0-2.217.508-4.113 1.524-5.687 1.016-1.575 2.463-2.776 4.342-3.606 1.896-.846 4.13-1.27 6.703-1.27 1.93 0 3.766.23 5.51.686 1.76.44 3.597 1.084 5.509 1.93l-2.539 6.12c-1.709-.695-3.241-1.228-4.595-1.6a14.913 14.913 0 00-4.139-.585c-.982 0-1.82.161-2.514.483-.694.305-1.219.745-1.574 1.32-.355.559-.533 1.21-.533 1.955 0 .88.254 1.625.762 2.235.524.592 1.303 1.168 2.335 1.726 1.05.559 2.353 1.21 3.911 1.955 1.895.897 3.512 1.837 4.849 2.819 1.354.965 2.395 2.107 3.123 3.427.728 1.304 1.092 2.929 1.092 4.875zm29.369 0c0 2.2-.534 4.114-1.6 5.739s-2.624 2.877-4.672 3.758c-2.031.88-4.502 1.32-7.414 1.32-1.286 0-2.547-.085-3.783-.254a26.054 26.054 0 01-3.529-.736 21.994 21.994 0 01-3.2-1.245v-7.312a60.388 60.388 0 005.485 2.107c1.896.627 3.775.94 5.637.94 1.286 0 2.319-.17 3.097-.508.796-.338 1.371-.804 1.727-1.396.355-.593.533-1.27.533-2.032 0-.93-.313-1.726-.94-2.386-.626-.66-1.489-1.278-2.589-1.854a105.794 105.794 0 00-3.682-1.854 42.217 42.217 0 01-2.818-1.472 16.482 16.482 0 01-2.895-2.158c-.914-.847-1.667-1.87-2.26-3.073-.575-1.218-.863-2.674-.863-4.367 0-2.217.508-4.113 1.524-5.687 1.015-1.575 2.462-2.776 4.341-3.606 1.896-.846 4.131-1.27 6.703-1.27 1.93 0 3.767.23 5.51.686 1.761.44 3.597 1.084 5.51 1.93l-2.539 6.12c-1.71-.695-3.242-1.228-4.596-1.6a14.906 14.906 0 00-4.138-.585c-.982 0-1.82.161-2.514.483-.694.305-1.219.745-1.574 1.32-.356.559-.534 1.21-.534 1.955 0 .88.254 1.625.762 2.235.525.592 1.304 1.168 2.336 1.726 1.05.559 2.353 1.21 3.91 1.955 1.896.897 3.513 1.837 4.85 2.819 1.354.965 2.395 2.107 3.123 3.427.728 1.304 1.092 2.929 1.092 4.875z"/></svg>