<svg width="55" height="13" fill="none" xmlns="http://www.w3.org/2000/svg"><path d="M9.372 12l-.829-2.719H4.38L3.551 12H.941L4.974.531h2.961L11.981 12h-2.61zM7.965 7.25C7.2 4.786 6.767 3.393 6.668 3.07a13.148 13.148 0 01-.203-.765C6.293 2.97 5.801 4.62 4.99 7.25h2.976zm9.045 4.906c-2.72 0-4.079-1.492-4.079-4.476 0-1.485.37-2.617 1.11-3.399.74-.786 1.8-1.18 3.18-1.18 1.01 0 1.916.198 2.718.594l-.703 1.844a11.124 11.124 0 00-1.047-.367 3.29 3.29 0 00-.968-.149c-1.24 0-1.86.88-1.86 2.641 0 1.708.62 2.563 1.86 2.563.458 0 .882-.06 1.273-.18.39-.125.781-.318 1.172-.578v2.039a3.83 3.83 0 01-1.172.508c-.39.093-.885.14-1.484.14zm8.458 0c-2.719 0-4.078-1.492-4.078-4.476 0-1.485.37-2.617 1.11-3.399.739-.786 1.799-1.18 3.179-1.18 1.01 0 1.917.198 2.719.594l-.703 1.844a11.124 11.124 0 00-1.047-.367 3.29 3.29 0 00-.969-.149c-1.24 0-1.86.88-1.86 2.641 0 1.708.62 2.563 1.86 2.563.458 0 .883-.06 1.273-.18a4.702 4.702 0 001.172-.578v2.039a3.832 3.832 0 01-1.172.508c-.39.093-.885.14-1.484.14zm8.529-7.359c-.505 0-.901.161-1.188.484-.286.318-.45.771-.492 1.36h3.344c-.01-.589-.164-1.042-.461-1.36-.297-.323-.698-.484-1.203-.484zm.336 7.36c-1.407 0-2.506-.389-3.297-1.165-.792-.776-1.188-1.875-1.188-3.297 0-1.463.365-2.593 1.094-3.39.734-.802 1.747-1.203 3.04-1.203 1.233 0 2.194.351 2.882 1.054.687.703 1.031 1.675 1.031 2.914v1.157h-5.633c.026.677.227 1.205.602 1.585.375.38.9.57 1.578.57.526 0 1.023-.054 1.492-.163a7.47 7.47 0 001.469-.524v1.844a5.479 5.479 0 01-1.336.461c-.474.104-1.052.156-1.734.156zM46.15 9.406c0 .896-.312 1.578-.937 2.047-.62.469-1.55.703-2.79.703a8.517 8.517 0 01-1.624-.133 5.98 5.98 0 01-1.258-.375V9.68c.443.208.94.383 1.492.523.557.14 1.047.211 1.469.211.864 0 1.297-.25 1.297-.75a.613.613 0 00-.172-.453c-.115-.12-.313-.253-.594-.399a13.831 13.831 0 00-1.125-.523c-.672-.281-1.166-.542-1.484-.781a2.26 2.26 0 01-.688-.82c-.14-.313-.21-.696-.21-1.149 0-.776.299-1.375.898-1.797.604-.427 1.458-.64 2.562-.64 1.052 0 2.076.229 3.07.687l-.718 1.719a13.222 13.222 0 00-1.227-.461c-.38-.12-.768-.18-1.164-.18-.703 0-1.054.19-1.054.57 0 .214.112.399.335.555.23.156.727.388 1.493.696.682.276 1.182.533 1.5.773a2.3 2.3 0 01.703.828c.15.313.226.685.226 1.117zm8.178 0c0 .896-.313 1.578-.938 2.047-.62.469-1.55.703-2.789.703a8.515 8.515 0 01-1.625-.133 5.98 5.98 0 01-1.258-.375V9.68c.443.208.94.383 1.492.523.558.14 1.047.211 1.47.211.864 0 1.296-.25 1.296-.75a.613.613 0 00-.172-.453c-.114-.12-.312-.253-.594-.399a13.831 13.831 0 00-1.125-.523c-.672-.281-1.166-.542-1.484-.781a2.259 2.259 0 01-.688-.82c-.14-.313-.21-.696-.21-1.149 0-.776.299-1.375.898-1.797.604-.427 1.458-.64 2.563-.64a7.27 7.27 0 013.07.687l-.719 1.719a13.221 13.221 0 00-1.227-.461c-.38-.12-.768-.18-1.164-.18-.703 0-1.054.19-1.054.57 0 .214.112.399.336.555.229.156.726.388 1.492.696.682.276 1.182.533 1.5.773a2.3 2.3 0 01.703.828c.151.313.227.685.227 1.117z" fill="#fff"/></svg>