<svg width="81" height="25" fill="#fff" xmlns="http://www.w3.org/2000/svg"><path d="M12.835 18l-1.242-4.078H5.347L4.104 18H.19L6.237.797h4.442L16.749 18h-3.914zm-2.11-7.125a3456.008 3456.008 0 01-1.945-6.27 19.69 19.69 0 01-.304-1.148c-.258 1-.997 3.473-2.215 7.418h4.465zm13.567 7.359c-4.078 0-6.117-2.238-6.117-6.715 0-2.226.555-3.925 1.664-5.097 1.11-1.18 2.7-1.77 4.77-1.77 1.515 0 2.874.297 4.078.891l-1.055 2.766a16.686 16.686 0 00-1.57-.551 4.937 4.937 0 00-1.454-.223c-1.859 0-2.789 1.32-2.789 3.961 0 2.563.93 3.844 2.79 3.844.687 0 1.324-.09 1.91-.27a7.052 7.052 0 001.757-.867v3.059a5.747 5.747 0 01-1.757.761c-.586.141-1.328.211-2.227.211zm12.688 0c-4.078 0-6.118-2.238-6.118-6.715 0-2.226.555-3.925 1.665-5.097 1.109-1.18 2.699-1.77 4.769-1.77 1.516 0 2.875.297 4.078.891L40.32 8.309a16.687 16.687 0 00-1.57-.551 4.936 4.936 0 00-1.453-.223c-1.86 0-2.789 1.32-2.789 3.961 0 2.563.93 3.844 2.789 3.844.688 0 1.324-.09 1.91-.27a7.053 7.053 0 001.758-.867v3.059a5.749 5.749 0 01-1.758.761c-.586.141-1.328.211-2.226.211zM49.773 7.195c-.758 0-1.352.242-1.782.727-.43.476-.675 1.156-.738 2.039h5.016c-.016-.883-.246-1.563-.692-2.04-.445-.484-1.046-.726-1.804-.726zm.504 11.04c-2.11 0-3.758-.583-4.946-1.747-1.187-1.164-1.781-2.812-1.781-4.945 0-2.195.547-3.89 1.64-5.086 1.102-1.203 2.622-1.805 4.56-1.805 1.85 0 3.292.528 4.323 1.582 1.032 1.055 1.547 2.512 1.547 4.371v1.735h-8.449c.04 1.015.34 1.808.902 2.379.563.57 1.352.855 2.368.855.789 0 1.535-.082 2.238-.246a11.2 11.2 0 002.203-.785v2.766a8.21 8.21 0 01-2.004.691c-.71.156-1.578.234-2.601.234zm17.726-4.125c0 1.343-.469 2.367-1.406 3.07-.93.703-2.324 1.054-4.184 1.054-.953 0-1.765-.066-2.437-.199a8.978 8.978 0 01-1.887-.562V14.52a12.5 12.5 0 002.238.785c.836.21 1.57.316 2.204.316 1.296 0 1.945-.375 1.945-1.125 0-.281-.086-.508-.258-.68-.172-.18-.469-.379-.89-.597a20.77 20.77 0 00-1.688-.785c-1.008-.422-1.75-.813-2.227-1.172-.468-.36-.812-.77-1.03-1.23-.212-.47-.317-1.044-.317-1.723 0-1.164.449-2.063 1.347-2.696.907-.64 2.188-.96 3.844-.96 1.578 0 3.113.343 4.606 1.03l-1.079 2.579a19.829 19.829 0 00-1.84-.692A5.778 5.778 0 0063.2 7.3c-1.055 0-1.582.286-1.582.856 0 .32.167.598.503.832.344.235 1.09.582 2.239 1.043 1.023.414 1.773.801 2.25 1.16.476.36.828.774 1.054 1.243.227.468.34 1.027.34 1.675zm12.266 0c0 1.343-.469 2.367-1.406 3.07-.93.703-2.325 1.054-4.184 1.054-.953 0-1.766-.066-2.438-.199a8.974 8.974 0 01-1.886-.562V14.52a12.5 12.5 0 002.238.785c.836.21 1.57.316 2.203.316 1.297 0 1.945-.375 1.945-1.125 0-.281-.085-.508-.257-.68-.172-.18-.469-.379-.89-.597a20.77 20.77 0 00-1.688-.785c-1.008-.422-1.75-.813-2.227-1.172-.469-.36-.813-.77-1.031-1.23-.211-.47-.317-1.044-.317-1.723 0-1.164.45-2.063 1.348-2.696.906-.64 2.188-.96 3.844-.96 1.578 0 3.113.343 4.605 1.03l-1.078 2.58a19.829 19.829 0 00-1.84-.692 5.778 5.778 0 00-1.746-.27c-1.055 0-1.582.286-1.582.856 0 .32.168.598.504.832.344.235 1.09.582 2.238 1.043 1.024.414 1.774.801 2.25 1.16.477.36.829.774 1.055 1.243.227.468.34 1.027.34 1.675z"/></svg>