<svg width="73" height="13" fill="none" xmlns="http://www.w3.org/2000/svg"><path d="M5.592 2.43c-.912 0-1.617.343-2.117 1.03-.5.683-.75 1.636-.75 2.86 0 2.547.955 3.82 2.867 3.82.802 0 1.773-.2 2.914-.6v2.03c-.938.39-1.985.586-3.14.586-1.662 0-2.933-.502-3.813-1.508C.673 9.638.233 8.19.233 6.305c0-1.188.216-2.227.648-3.117.432-.896 1.052-1.581 1.86-2.055.812-.48 1.762-.719 2.85-.719 1.11 0 2.225.268 3.345.805l-.782 1.968a12.63 12.63 0 00-1.289-.53 3.846 3.846 0 00-1.273-.227zm7.286 5.187c0 .865.14 1.518.422 1.961.287.443.75.664 1.39.664.636 0 1.092-.219 1.368-.656.281-.443.422-1.099.422-1.969 0-.864-.14-1.513-.422-1.945-.281-.432-.742-.649-1.383-.649-.635 0-1.094.217-1.375.649-.281.427-.422 1.075-.422 1.945zm6.04 0c0 1.422-.376 2.534-1.126 3.336-.75.802-1.794 1.203-3.133 1.203-.838 0-1.578-.182-2.218-.547a3.69 3.69 0 01-1.477-1.586c-.344-.687-.515-1.49-.515-2.406 0-1.427.372-2.536 1.117-3.328.745-.792 1.791-1.187 3.14-1.187.839 0 1.579.182 2.22.546a3.65 3.65 0 011.476 1.57c.343.683.515 1.483.515 2.4zM29.173 12H26.79V6.898c0-.63-.112-1.101-.336-1.414-.224-.317-.58-.476-1.07-.476-.667 0-1.149.224-1.446.672-.297.442-.445 1.18-.445 2.21V12H21.11V3.266h1.82l.32 1.117h.134a2.49 2.49 0 011.093-.953c.469-.22 1-.328 1.594-.328 1.016 0 1.787.276 2.313.828.526.547.789 1.338.789 2.375V12zm6.357-1.742c.416 0 .916-.091 1.5-.274v1.774c-.594.265-1.324.398-2.188.398-.953 0-1.648-.24-2.086-.719-.432-.484-.648-1.208-.648-2.171V5.055h-1.141V4.047l1.312-.797.688-1.844h1.523v1.86h2.446v1.789H34.49v4.21c0 .34.094.59.282.75.192.162.445.243.757.243zm7.114-5.461c-.505 0-.901.161-1.188.484-.286.318-.45.771-.492 1.36h3.344c-.01-.589-.164-1.042-.46-1.36-.298-.323-.699-.484-1.204-.484zm.336 7.36c-1.406 0-2.505-.389-3.297-1.165-.792-.776-1.187-1.875-1.187-3.297 0-1.463.364-2.593 1.093-3.39.735-.802 1.748-1.203 3.04-1.203 1.234 0 2.195.351 2.882 1.054.688.703 1.031 1.675 1.031 2.914v1.157H40.91c.026.677.226 1.205.601 1.585.375.38.901.57 1.578.57.526 0 1.024-.054 1.492-.163.47-.11.959-.284 1.47-.524v1.844a5.48 5.48 0 01-1.337.461c-.474.104-1.052.156-1.734.156zM56.767 12h-2.383V6.898c0-.63-.112-1.101-.336-1.414-.224-.317-.581-.476-1.07-.476-.667 0-1.149.224-1.446.672-.297.442-.445 1.18-.445 2.21V12h-2.383V3.266h1.82l.32 1.117h.133c.266-.422.63-.74 1.094-.953.469-.22 1-.328 1.594-.328 1.016 0 1.786.276 2.312.828.527.547.79 1.338.79 2.375V12zm6.356-1.742c.417 0 .917-.091 1.5-.274v1.774c-.593.265-1.323.398-2.187.398-.953 0-1.649-.24-2.086-.719-.432-.484-.649-1.208-.649-2.171V5.055h-1.14V4.047l1.312-.797.688-1.844h1.523v1.86h2.446v1.789h-2.446v4.21c0 .34.094.59.281.75.193.162.446.243.758.243zm9.592-.852c0 .896-.313 1.578-.938 2.047-.62.469-1.55.703-2.79.703a8.516 8.516 0 01-1.624-.133 5.98 5.98 0 01-1.258-.375V9.68c.443.208.94.383 1.492.523.558.14 1.047.211 1.47.211.864 0 1.296-.25 1.296-.75a.613.613 0 00-.172-.453c-.115-.12-.312-.253-.594-.399a13.831 13.831 0 00-1.125-.523c-.672-.281-1.166-.542-1.484-.781a2.26 2.26 0 01-.688-.82c-.14-.313-.21-.696-.21-1.149 0-.776.299-1.375.898-1.797.604-.427 1.458-.64 2.562-.64a7.26 7.26 0 013.07.687l-.718 1.719a13.222 13.222 0 00-1.227-.461c-.38-.12-.768-.18-1.164-.18-.703 0-1.054.19-1.054.57 0 .214.112.399.336.555.229.156.726.388 1.492.696.682.276 1.182.533 1.5.773.318.24.552.516.703.828.151.313.227.685.227 1.117z" fill="#fff"/></svg>