<svg width="110" height="25" fill="#fff" xmlns="http://www.w3.org/2000/svg"><path d="M8.858 3.645c-1.367 0-2.425.515-3.175 1.546-.75 1.024-1.125 2.454-1.125 4.29 0 3.82 1.433 5.73 4.3 5.73 1.204 0 2.66-.3 4.371-.902v3.046c-1.406.586-2.976.88-4.71.88-2.493 0-4.399-.755-5.72-2.262C1.48 14.457.82 12.285.82 9.457c0-1.781.325-3.34.973-4.676C2.44 3.438 3.37 2.411 4.581 1.7 5.8.98 7.226.621 8.858.621c1.665 0 3.336.402 5.016 1.207l-1.172 2.953c-.64-.304-1.285-.57-1.933-.797a5.769 5.769 0 00-1.91-.34zm10.93 7.781c0 1.297.211 2.277.633 2.941.43.664 1.125.996 2.086.996.953 0 1.637-.328 2.05-.984.423-.664.634-1.649.634-2.953 0-1.297-.211-2.27-.633-2.918-.422-.649-1.114-.973-2.075-.973-.953 0-1.64.324-2.062.973-.422.64-.633 1.613-.633 2.918zm9.059 0c0 2.133-.563 3.8-1.688 5.004-1.125 1.203-2.691 1.804-4.699 1.804-1.258 0-2.367-.273-3.328-.82-.961-.555-1.7-1.348-2.215-2.379-.516-1.031-.773-2.234-.773-3.61 0-2.14.558-3.804 1.675-4.991 1.118-1.188 2.688-1.782 4.711-1.782 1.258 0 2.367.274 3.328.82.961.548 1.7 1.333 2.215 2.356.516 1.024.774 2.223.774 3.598zM44.23 18h-3.575v-7.652c0-.946-.168-1.653-.504-2.121-.335-.477-.87-.715-1.605-.715-1 0-1.723.336-2.168 1.008-.445.664-.668 1.77-.668 3.316V18h-3.574V4.898h2.73l.48 1.676h.2a3.747 3.747 0 011.64-1.43c.704-.328 1.5-.492 2.391-.492 1.524 0 2.68.414 3.469 1.243.79.82 1.184 2.007 1.184 3.562V18zm9.535-2.613c.625 0 1.375-.137 2.25-.41v2.66c-.89.398-1.984.597-3.281.597-1.43 0-2.473-.359-3.13-1.078-.648-.726-.972-1.812-.972-3.258V7.582h-1.71V6.07l1.968-1.195 1.031-2.766h2.285V4.9h3.668v2.683h-3.668v6.316c0 .508.14.883.422 1.125.29.243.668.364 1.137.364zm10.672-8.192c-.758 0-1.352.242-1.781.727-.43.476-.676 1.156-.739 2.039h5.016c-.016-.883-.246-1.563-.692-2.04-.445-.484-1.046-.726-1.804-.726zm.504 11.04c-2.11 0-3.758-.583-4.946-1.747-1.187-1.164-1.78-2.812-1.78-4.945 0-2.195.546-3.89 1.64-5.086 1.101-1.203 2.62-1.805 4.558-1.805 1.852 0 3.293.528 4.325 1.582 1.03 1.055 1.546 2.512 1.546 4.371v1.735h-8.449c.04 1.015.34 1.808.903 2.379.562.57 1.351.855 2.367.855.789 0 1.535-.082 2.238-.246a11.2 11.2 0 002.203-.785v2.766a8.212 8.212 0 01-2.004.691c-.71.156-1.578.234-2.601.234zM85.62 18h-3.574v-7.652c0-.946-.168-1.653-.504-2.121-.336-.477-.87-.715-1.605-.715-1 0-1.723.336-2.168 1.008-.445.664-.668 1.77-.668 3.316V18h-3.574V4.898h2.73l.48 1.676h.2a3.747 3.747 0 011.64-1.43c.704-.328 1.5-.492 2.391-.492 1.523 0 2.68.414 3.469 1.243.789.82 1.183 2.007 1.183 3.562V18zm9.536-2.613c.625 0 1.375-.137 2.25-.41v2.66c-.891.398-1.985.597-3.282.597-1.43 0-2.472-.359-3.128-1.078-.649-.726-.973-1.812-.973-3.258V7.582h-1.711V6.07l1.969-1.195 1.03-2.766h2.286V4.9h3.668v2.683h-3.668v6.316c0 .508.14.883.422 1.125.289.243.668.364 1.137.364zm14.386-1.277c0 1.343-.468 2.367-1.406 3.07-.93.703-2.324 1.054-4.183 1.054-.954 0-1.766-.066-2.438-.199a8.966 8.966 0 01-1.887-.562V14.52c.664.312 1.411.574 2.239.785.836.21 1.57.316 2.203.316 1.297 0 1.945-.375 1.945-1.125 0-.281-.086-.508-.258-.68-.172-.18-.468-.379-.89-.597a20.825 20.825 0 00-1.688-.785c-1.008-.422-1.75-.813-2.226-1.172-.469-.36-.813-.77-1.032-1.23-.21-.47-.316-1.044-.316-1.723 0-1.164.449-2.063 1.348-2.696.906-.64 2.187-.96 3.843-.96 1.578 0 3.114.343 4.606 1.03l-1.078 2.579a19.95 19.95 0 00-1.84-.692 5.779 5.779 0 00-1.746-.27c-1.055 0-1.582.286-1.582.856 0 .32.168.598.504.832.343.235 1.089.582 2.238 1.043 1.023.414 1.773.801 2.25 1.16.476.36.828.774 1.055 1.243.226.468.339 1.027.339 1.675z"/></svg>