<svg width="236" height="53" fill="#EA574E" xmlns="http://www.w3.org/2000/svg"><path d="M17.44 6.896c-1.507 0-2.844.297-4.012.89-1.151.575-2.125 1.413-2.92 2.513-.779 1.1-1.371 2.429-1.778 3.986-.406 1.557-.609 3.31-.609 5.256 0 2.624.322 4.867.965 6.729.66 1.845 1.676 3.258 3.047 4.24 1.37.965 3.14 1.447 5.306 1.447 1.507 0 3.014-.17 4.52-.508 1.523-.338 3.174-.82 4.951-1.447v6.601a23.869 23.869 0 01-4.85 1.448c-1.59.304-3.376.457-5.357.457-3.825 0-6.974-.787-9.445-2.361-2.455-1.592-4.274-3.81-5.46-6.653C.615 26.634.022 23.3.022 19.49c0-2.81.381-5.383 1.143-7.718.762-2.336 1.879-4.36 3.352-6.069 1.472-1.71 3.292-3.03 5.459-3.96C12.14.81 14.63.345 17.439.345c1.846 0 3.69.237 5.536.71a27.352 27.352 0 015.332 1.905l-2.54 6.398a42.023 42.023 0 00-4.189-1.726c-1.405-.491-2.784-.737-4.139-.737zm43.308 16.86c0 2.37-.322 4.469-.965 6.297-.627 1.828-1.55 3.377-2.768 4.646-1.202 1.253-2.657 2.2-4.367 2.844-1.693.643-3.606.965-5.738.965-1.998 0-3.834-.322-5.51-.965a12.248 12.248 0 01-4.342-2.844c-1.219-1.27-2.167-2.818-2.844-4.646-.66-1.828-.99-3.927-.99-6.297 0-3.149.559-5.815 1.676-7.998 1.117-2.184 2.708-3.843 4.773-4.977 2.065-1.134 4.528-1.7 7.389-1.7 2.657 0 5.01.566 7.059 1.7 2.065 1.134 3.681 2.793 4.85 4.977 1.184 2.183 1.777 4.85 1.777 7.998zm-19.627 0c0 1.862.203 3.428.609 4.697.406 1.27 1.041 2.226 1.904 2.87.864.642 1.99.964 3.377.964 1.371 0 2.48-.322 3.326-.965.864-.643 1.49-1.6 1.88-2.869.406-1.27.609-2.835.609-4.697 0-1.879-.203-3.436-.61-4.672-.389-1.253-1.015-2.192-1.879-2.818-.863-.627-1.989-.94-3.377-.94-2.048 0-3.537.703-4.468 2.108-.914 1.404-1.371 3.512-1.371 6.322zM83.997 9.08c3.03 0 5.468.83 7.313 2.488 1.845 1.642 2.767 4.283 2.767 7.922V38h-7.744V21.42c0-2.031-.372-3.563-1.117-4.596-.728-1.032-1.88-1.549-3.453-1.549-2.37 0-3.987.804-4.85 2.412-.863 1.609-1.295 3.928-1.295 6.957V38h-7.744V9.613h5.916l1.041 3.631h.432a7.82 7.82 0 012.26-2.387 9.936 9.936 0 013.02-1.345 13.788 13.788 0 013.454-.432zm30.74 23.258c.846 0 1.667-.085 2.463-.254a24.16 24.16 0 002.412-.635v5.764c-.83.372-1.862.677-3.098.914-1.219.254-2.556.38-4.012.38-1.692 0-3.216-.27-4.57-.812-1.337-.558-2.395-1.515-3.174-2.869-.762-1.37-1.142-3.275-1.142-5.713V15.428h-3.707v-3.276l4.265-2.59 2.235-5.992h4.951v6.043h7.947v5.815h-7.947v13.685c0 1.084.304 1.896.914 2.438.626.524 1.447.787 2.463.787zM137.808 9.08c2.624 0 4.884.508 6.78 1.524 1.896.998 3.36 2.454 4.392 4.367 1.033 1.913 1.549 4.248 1.549 7.008v3.757h-18.306c.084 2.184.736 3.902 1.955 5.155 1.235 1.235 2.945 1.853 5.129 1.853 1.811 0 3.47-.186 4.976-.559 1.507-.372 3.055-.93 4.647-1.675v5.992a18.455 18.455 0 01-4.418 1.523c-1.524.322-3.377.483-5.561.483-2.844 0-5.366-.525-7.566-1.574-2.184-1.05-3.902-2.65-5.155-4.8-1.235-2.149-1.853-4.857-1.853-8.124 0-3.318.558-6.077 1.676-8.278 1.134-2.217 2.708-3.876 4.722-4.976 2.015-1.117 4.359-1.676 7.033-1.676zm.051 5.51c-1.506 0-2.759.482-3.758 1.447-.981.965-1.548 2.48-1.701 4.545h10.867c-.016-1.151-.228-2.175-.634-3.072a4.773 4.773 0 00-1.778-2.133c-.778-.525-1.777-.787-2.996-.787zm35.818-5.51c3.03 0 5.468.83 7.313 2.488 1.845 1.642 2.767 4.283 2.767 7.922V38h-7.744V21.42c0-2.031-.372-3.563-1.117-4.596-.728-1.032-1.879-1.549-3.453-1.549-2.37 0-3.987.804-4.85 2.412-.863 1.609-1.295 3.928-1.295 6.957V38h-7.744V9.613h5.916l1.041 3.631h.432a7.83 7.83 0 012.259-2.387 9.952 9.952 0 013.022-1.345 13.785 13.785 0 013.453-.432zm30.74 23.258c.846 0 1.667-.085 2.463-.254a24.16 24.16 0 002.412-.635v5.764c-.83.372-1.862.677-3.098.914-1.219.254-2.556.38-4.012.38-1.692 0-3.216-.27-4.57-.812-1.337-.558-2.395-1.515-3.174-2.869-.761-1.37-1.142-3.275-1.142-5.713V15.428h-3.707v-3.276l4.265-2.59 2.235-5.992h4.951v6.043h7.947v5.815h-7.947v13.685c0 1.084.305 1.896.914 2.438.626.524 1.447.787 2.463.787zm31.171-2.768c0 1.93-.457 3.563-1.371 4.9-.897 1.321-2.243 2.328-4.037 3.022-1.794.677-4.029 1.016-6.703 1.016-1.981 0-3.682-.127-5.104-.381a21.022 21.022 0 01-4.265-1.27V30.46a30.85 30.85 0 004.951 1.726c1.777.44 3.335.66 4.672.66 1.506 0 2.581-.22 3.224-.66.661-.457.991-1.049.991-1.777 0-.474-.136-.897-.407-1.27-.254-.389-.812-.82-1.675-1.294-.864-.491-2.218-1.126-4.063-1.905-1.777-.744-3.241-1.498-4.393-2.26-1.134-.761-1.98-1.658-2.539-2.69-.541-1.05-.812-2.379-.812-3.987 0-2.624 1.016-4.596 3.047-5.916 2.048-1.337 4.782-2.006 8.201-2.006 1.76 0 3.436.178 5.027.533 1.608.356 3.259.923 4.951 1.702l-2.335 5.585a39.626 39.626 0 00-3.987-1.498 12.516 12.516 0 00-3.783-.584c-1.134 0-1.989.153-2.564.457-.576.305-.864.77-.864 1.397 0 .457.144.863.432 1.219.305.355.88.753 1.726 1.193.864.423 2.125.973 3.784 1.65 1.608.66 3.004 1.354 4.189 2.082 1.185.711 2.099 1.6 2.742 2.666.644 1.05.965 2.413.965 4.088z"/></svg>