<svg width="144" height="53" fill="#EA574E" xmlns="http://www.w3.org/2000/svg"><path d="M22.05 38H.673V.879H22.05v6.45H8.543v8.15h12.568v6.449H8.543V31.5h13.508V38zm14.643 0L25.876 9.613h8.1l5.484 16.174c.305.948.542 1.947.711 2.996.187 1.05.313 1.99.381 2.819h.203c.051-.898.17-1.854.356-2.87a23.5 23.5 0 01.787-2.945l5.459-16.174h8.1L44.64 38h-7.947zM71.978 9.08c2.623 0 4.883.508 6.779 1.524 1.896.998 3.36 2.454 4.392 4.367 1.033 1.913 1.55 4.248 1.55 7.008v3.757H66.39c.085 2.184.737 3.902 1.956 5.155 1.235 1.235 2.945 1.853 5.129 1.853 1.81 0 3.47-.186 4.976-.559 1.507-.372 3.055-.93 4.647-1.675v5.992a18.449 18.449 0 01-4.418 1.523c-1.524.322-3.377.483-5.56.483-2.845 0-5.367-.525-7.567-1.574-2.184-1.05-3.902-2.65-5.155-4.8-1.235-2.149-1.853-4.857-1.853-8.124 0-3.318.558-6.077 1.676-8.278 1.134-2.217 2.708-3.876 4.722-4.976 2.015-1.117 4.359-1.676 7.034-1.676zm.05 5.51c-1.506 0-2.759.482-3.758 1.447-.981.965-1.548 2.48-1.7 4.545h10.867c-.017-1.151-.229-2.175-.635-3.072a4.77 4.77 0 00-1.778-2.133c-.778-.525-1.777-.787-2.996-.787zm35.818-5.51c3.03 0 5.468.83 7.313 2.488 1.845 1.642 2.767 4.283 2.767 7.922V38h-7.744V21.42c0-2.031-.372-3.563-1.117-4.596-.728-1.032-1.879-1.549-3.453-1.549-2.37 0-3.987.804-4.85 2.412-.863 1.609-1.295 3.928-1.295 6.957V38h-7.744V9.613h5.916l1.041 3.631h.432c.61-.982 1.362-1.777 2.259-2.387a9.952 9.952 0 013.022-1.345 13.785 13.785 0 013.453-.432zm30.74 23.258c.846 0 1.667-.085 2.463-.254a24.16 24.16 0 002.412-.635v5.764c-.83.372-1.862.677-3.098.914-1.219.254-2.556.38-4.012.38-1.692 0-3.216-.27-4.57-.812-1.337-.558-2.395-1.515-3.174-2.869-.761-1.37-1.142-3.275-1.142-5.713V15.428h-3.707v-3.276l4.265-2.59 2.235-5.992h4.951v6.043h7.947v5.815h-7.947v13.685c0 1.084.305 1.896.914 2.438.626.524 1.447.787 2.463.787z"/></svg>