<svg width="45" height="13" fill="none" xmlns="http://www.w3.org/2000/svg"><path d="M7.321 12H.743V.578h6.578v1.985H3.165V5.07h3.867v1.985H3.165V10h4.156v2zm4.505 0L8.498 3.266h2.493l1.687 4.976c.188.63.305 1.227.352 1.79h.046c.027-.5.144-1.097.352-1.79l1.68-4.976H17.6L14.272 12h-2.446zm10.873-7.203c-.505 0-.901.161-1.188.484-.286.318-.45.771-.492 1.36h3.344c-.01-.589-.164-1.042-.46-1.36-.298-.323-.699-.484-1.204-.484zm.336 7.36c-1.406 0-2.505-.389-3.297-1.165-.792-.776-1.188-1.875-1.188-3.297 0-1.463.365-2.593 1.094-3.39.735-.802 1.748-1.203 3.04-1.203 1.234 0 2.195.351 2.882 1.054.688.703 1.031 1.675 1.031 2.914v1.157h-5.632c.026.677.226 1.205.601 1.585.375.38.901.57 1.578.57.526 0 1.024-.054 1.493-.163.468-.11.958-.284 1.468-.524v1.844A5.478 5.478 0 0124.77 12c-.474.104-1.052.156-1.734.156zM36.821 12H34.44V6.898c0-.63-.112-1.101-.336-1.414-.224-.317-.581-.476-1.07-.476-.667 0-1.15.224-1.446.672-.297.442-.445 1.18-.445 2.21V12H28.76V3.266h1.82l.32 1.117h.133c.266-.422.63-.74 1.094-.953.469-.22 1-.328 1.594-.328 1.016 0 1.786.276 2.312.828.526.547.79 1.338.79 2.375V12zm6.357-1.742c.417 0 .917-.091 1.5-.274v1.774c-.593.265-1.323.398-2.187.398-.953 0-1.649-.24-2.086-.719-.433-.484-.649-1.208-.649-2.171V5.055h-1.14V4.047l1.312-.797.688-1.844h1.523v1.86h2.445v1.789H42.14v4.21c0 .34.094.59.281.75.193.162.446.243.758.243z" fill="#fff"/></svg>