<svg width="71" height="17" fill="none" xmlns="http://www.w3.org/2000/svg"><path d="M5.775 6.586h4.532v5.922c-.735.24-1.427.406-2.078.5a13.08 13.08 0 01-1.985.148c-1.724 0-3.042-.505-3.953-1.515-.906-1.016-1.36-2.472-1.36-4.368 0-1.843.527-3.28 1.579-4.312C3.567 1.93 5.03 1.414 6.9 1.414c1.172 0 2.302.234 3.391.703l-.805 1.938a5.747 5.747 0 00-2.601-.625c-1.047 0-1.886.351-2.516 1.054-.63.704-.945 1.649-.945 2.836 0 1.24.252 2.188.758 2.844.51.651 1.25.977 2.218.977a7.84 7.84 0 001.54-.157V8.602H5.774V6.586zm12.17-2.484c.323 0 .59.023.804.07l-.18 2.234a2.73 2.73 0 00-.702-.078c-.76 0-1.355.195-1.782.586-.421.39-.633.938-.633 1.64V13H13.07V4.266h1.804l.352 1.468h.117c.271-.49.636-.882 1.094-1.18a2.708 2.708 0 011.508-.452zm6.232 1.695c-.506 0-.901.161-1.188.484-.286.318-.45.771-.492 1.36h3.344c-.01-.589-.165-1.042-.461-1.36-.297-.323-.698-.484-1.203-.484zm.335 7.36c-1.406 0-2.505-.389-3.296-1.165-.792-.776-1.188-1.875-1.188-3.297 0-1.463.365-2.593 1.094-3.39.734-.802 1.747-1.203 3.039-1.203 1.234 0 2.195.351 2.883 1.054.687.703 1.031 1.675 1.031 2.914v1.157h-5.633c.026.677.227 1.205.602 1.585.375.38.9.57 1.578.57.526 0 1.023-.054 1.492-.163.469-.11.958-.284 1.469-.524v1.844a5.479 5.479 0 01-1.336.461c-.474.104-1.052.156-1.735.156zm9.342-7.36c-.506 0-.901.161-1.188.484-.286.318-.45.771-.492 1.36h3.344c-.01-.589-.164-1.042-.461-1.36-.297-.323-.698-.484-1.203-.484zm.336 7.36c-1.407 0-2.506-.389-3.297-1.165-.792-.776-1.188-1.875-1.188-3.297 0-1.463.365-2.593 1.094-3.39.734-.802 1.747-1.203 3.039-1.203 1.234 0 2.195.351 2.883 1.054.687.703 1.031 1.675 1.031 2.914v1.157H32.12c.026.677.227 1.205.602 1.585.375.38.9.57 1.578.57.526 0 1.023-.054 1.492-.163a7.47 7.47 0 001.469-.524v1.844a5.48 5.48 0 01-1.336.461c-.474.104-1.052.156-1.734.156zm9.403-1.899c.417 0 .917-.091 1.5-.274v1.774c-.594.265-1.323.398-2.187.398-.953 0-1.649-.24-2.086-.719-.432-.484-.649-1.208-.649-2.171V6.055h-1.14V5.047l1.312-.797.688-1.844h1.523v1.86H45v1.789h-2.445v4.21c0 .34.094.59.282.75.192.162.445.243.757.243zm3.397-9.25c0-.776.431-1.164 1.296-1.164s1.297.388 1.297 1.164c0 .37-.11.659-.328.867-.214.203-.537.305-.969.305-.865 0-1.297-.39-1.297-1.172zM49.472 13H47.09V4.266h2.383V13zm10.796 0h-2.383V7.898c0-.63-.112-1.101-.336-1.414-.224-.317-.58-.476-1.07-.476-.667 0-1.149.224-1.446.672-.296.442-.445 1.18-.445 2.21V13h-2.383V4.266h1.82l.321 1.117h.133a2.49 2.49 0 011.093-.953c.47-.22 1-.328 1.594-.328 1.016 0 1.787.276 2.313.828.526.547.789 1.338.789 2.375V13zm10.278-8.734v1.21l-1.367.352c.25.39.375.828.375 1.313 0 .937-.328 1.669-.984 2.195-.651.52-1.557.781-2.719.781l-.43-.023-.351-.04c-.245.188-.367.396-.367.626 0 .343.437.515 1.312.515H67.5c.958 0 1.687.206 2.187.617.505.412.758 1.016.758 1.813 0 1.02-.427 1.813-1.281 2.375-.85.563-2.07.844-3.664.844-1.22 0-2.151-.214-2.797-.64-.64-.423-.961-1.017-.961-1.782 0-.526.164-.966.492-1.32.328-.355.81-.607 1.445-.758a1.607 1.607 0 01-.64-.508 1.232 1.232 0 01-.274-.758c0-.333.097-.61.29-.828.192-.224.47-.443.835-.656a2.366 2.366 0 01-1.093-.953c-.266-.438-.399-.954-.399-1.547 0-.953.31-1.69.93-2.211.62-.521 1.505-.781 2.656-.781.245 0 .534.023.867.07.339.042.555.073.649.094h3.046zm-6.742 9.968c0 .329.157.586.47.774.317.187.76.281 1.327.281.854 0 1.524-.117 2.008-.351.484-.235.727-.555.727-.961 0-.329-.144-.555-.43-.68-.287-.125-.73-.188-1.328-.188h-1.235c-.437 0-.804.102-1.101.305-.292.208-.438.482-.438.82zm.867-7.109c0 .474.107.849.32 1.125.22.276.55.414.993.414.448 0 .776-.138.984-.414.209-.276.313-.651.313-1.125 0-1.052-.432-1.578-1.297-1.578-.875 0-1.313.526-1.313 1.578z" fill="#fff"/></svg>