<svg width="227" height="53" fill="#EA574E" xmlns="http://www.w3.org/2000/svg"><path d="M15.764 19.154H30.49V38.4a46.137 46.137 0 01-6.068 1.55c-2.1.372-4.477.558-7.135.558-3.69 0-6.821-.728-9.394-2.184-2.573-1.456-4.528-3.605-5.866-6.449C.69 29.031.021 25.535.021 21.389c0-3.894.745-7.262 2.235-10.106C3.762 8.44 5.954 6.24 8.832 4.682c2.895-1.558 6.424-2.336 10.588-2.336 1.963 0 3.902.211 5.814.634 1.913.424 3.648.974 5.205 1.65l-2.615 6.298c-1.134-.576-2.429-1.058-3.885-1.448a17.617 17.617 0 00-4.57-.584c-2.285 0-4.274.525-5.967 1.575-1.675 1.05-2.979 2.522-3.91 4.418-.914 1.879-1.37 4.096-1.37 6.652 0 2.42.33 4.57.99 6.45.66 1.861 1.7 3.325 3.122 4.392 1.422 1.05 3.276 1.574 5.56 1.574 1.118 0 2.058-.05 2.82-.152a99.919 99.919 0 002.183-.356v-7.744h-7.033v-6.55zm39.55-8.074c.39 0 .838.025 1.346.076.524.034.948.085 1.27.153l-.585 7.261c-.254-.084-.618-.144-1.092-.177a10.99 10.99 0 00-1.193-.077c-.999 0-1.972.127-2.92.381a7.14 7.14 0 00-2.514 1.244c-.744.559-1.337 1.304-1.777 2.235-.423.914-.635 2.04-.635 3.377V40H39.47V11.613h5.865l1.143 4.774h.38a11.933 11.933 0 012.083-2.64 9.947 9.947 0 012.869-1.93 8.39 8.39 0 013.504-.737zm20.202 0c2.624 0 4.884.508 6.78 1.524 1.896.998 3.36 2.454 4.392 4.367 1.033 1.913 1.55 4.248 1.55 7.008v3.757H69.93c.084 2.184.736 3.902 1.955 5.155 1.235 1.235 2.945 1.853 5.129 1.853 1.81 0 3.47-.186 4.976-.559 1.507-.372 3.055-.93 4.647-1.675v5.992a18.448 18.448 0 01-4.418 1.523c-1.524.322-3.377.483-5.56.483-2.845 0-5.367-.525-7.567-1.574-2.184-1.05-3.902-2.65-5.155-4.8-1.235-2.149-1.853-4.857-1.853-8.124 0-3.318.559-6.077 1.676-8.278 1.134-2.217 2.708-3.876 4.722-4.976 2.015-1.117 4.36-1.676 7.033-1.676zm.051 5.51c-1.506 0-2.759.482-3.757 1.447-.982.965-1.55 2.48-1.702 4.545h10.867c-.016-1.151-.228-2.175-.634-3.072a4.77 4.77 0 00-1.778-2.133c-.778-.525-1.777-.787-2.996-.787zm31.4-5.51c2.624 0 4.884.508 6.779 1.524 1.896.998 3.361 2.454 4.393 4.367 1.033 1.913 1.549 4.248 1.549 7.008v3.757h-18.307c.085 2.184.737 3.902 1.955 5.155 1.236 1.235 2.946 1.853 5.129 1.853 1.811 0 3.47-.186 4.977-.559 1.506-.372 3.055-.93 4.646-1.675v5.992a18.44 18.44 0 01-4.418 1.523c-1.523.322-3.377.483-5.56.483-2.844 0-5.366-.525-7.567-1.574-2.183-1.05-3.901-2.65-5.154-4.8-1.236-2.149-1.853-4.857-1.853-8.124 0-3.318.558-6.077 1.675-8.278 1.135-2.217 2.709-3.876 4.723-4.976 2.014-1.117 4.359-1.676 7.033-1.676zm.051 5.51c-1.507 0-2.759.482-3.758 1.447-.982.965-1.549 2.48-1.701 4.545h10.867c-.017-1.151-.228-2.175-.635-3.072a4.764 4.764 0 00-1.777-2.133c-.779-.525-1.777-.787-2.996-.787zm31.654 17.748c.846 0 1.667-.085 2.463-.254a24.16 24.16 0 002.412-.635v5.764c-.83.372-1.862.677-3.098.914-1.219.254-2.556.38-4.012.38-1.692 0-3.216-.27-4.57-.812-1.337-.558-2.395-1.515-3.174-2.869-.761-1.37-1.142-3.275-1.142-5.713V17.428h-3.707v-3.276l4.265-2.59 2.235-5.992h4.951v6.043h7.947v5.815h-7.947v13.685c0 1.084.305 1.896.914 2.438.626.524 1.447.787 2.463.787zm19.111-22.725V40h-7.745V11.613h7.745zm-3.86-11.12c1.151 0 2.141.27 2.971.812.829.524 1.244 1.515 1.244 2.97 0 1.44-.415 2.438-1.244 2.996-.83.542-1.82.813-2.971.813-1.168 0-2.166-.27-2.996-.813-.812-.558-1.219-1.557-1.219-2.996 0-1.455.407-2.446 1.219-2.97.83-.542 1.828-.813 2.996-.813zm28.861 10.587c3.03 0 5.467.83 7.313 2.488 1.845 1.642 2.767 4.283 2.767 7.922V40h-7.744V23.42c0-2.031-.372-3.563-1.117-4.596-.728-1.032-1.879-1.549-3.453-1.549-2.37 0-3.987.804-4.85 2.413-.863 1.608-1.295 3.927-1.295 6.957V40h-7.744V11.613h5.916l1.041 3.631h.432a7.83 7.83 0 012.259-2.387 9.942 9.942 0 013.022-1.345 13.788 13.788 0 013.453-.432zm27.083 41.412c-3.96 0-6.99-.694-9.089-2.082-2.082-1.37-3.123-3.3-3.123-5.789 0-1.71.533-3.14 1.599-4.29 1.067-1.152 2.632-1.973 4.697-2.464-.795-.338-1.489-.889-2.082-1.65-.592-.779-.888-1.6-.888-2.463 0-1.083.313-1.98.939-2.691.627-.728 1.532-1.44 2.717-2.133-1.49-.643-2.674-1.676-3.555-3.098-.863-1.422-1.295-3.098-1.295-5.027 0-2.065.449-3.817 1.346-5.256.914-1.456 2.234-2.565 3.961-3.326 1.744-.762 3.859-1.143 6.348-1.143.524 0 1.134.034 1.828.102.694.067 1.329.143 1.904.228.593.085.99.152 1.193.203h9.903v3.936l-4.444 1.142c.407.627.711 1.295.915 2.006.203.711.304 1.465.304 2.26 0 3.047-1.066 5.425-3.199 7.135-2.116 1.693-5.061 2.539-8.836 2.539a51.64 51.64 0 01-2.539-.203c-.389.304-.686.626-.889.965a2.042 2.042 0 00-.304 1.066c0 .372.152.685.457.94.321.236.795.423 1.422.558.643.118 1.438.178 2.386.178h4.824c3.115 0 5.485.668 7.11 2.006 1.642 1.337 2.463 3.3 2.463 5.89 0 3.318-1.388 5.89-4.164 7.719-2.759 1.828-6.729 2.742-11.909 2.742zm.331-5.052c1.845 0 3.427-.178 4.748-.534 1.337-.338 2.361-.83 3.072-1.472.711-.627 1.066-1.38 1.066-2.26 0-.711-.211-1.278-.634-1.701-.407-.407-1.033-.694-1.879-.864-.83-.169-1.896-.254-3.2-.254h-4.011c-.948 0-1.803.153-2.565.458-.745.304-1.337.727-1.777 1.269a3.031 3.031 0 00-.66 1.93c0 1.066.508 1.904 1.523 2.513 1.033.61 2.472.915 4.317.915zm1.244-21.532c1.455 0 2.522-.448 3.199-1.346.677-.897 1.016-2.115 1.016-3.656 0-1.71-.356-2.987-1.067-3.834-.694-.863-1.743-1.295-3.148-1.295-1.422 0-2.489.432-3.2 1.295-.71.847-1.066 2.125-1.066 3.834 0 1.54.347 2.76 1.041 3.657.711.897 1.786 1.345 3.225 1.345z"/></svg>