<svg width="61" height="14" fill="none" xmlns="http://www.w3.org/2000/svg"><path d="M11.843 7.273c0 .88-.11 1.683-.328 2.407a5.078 5.078 0 01-1 1.86 4.346 4.346 0 01-1.688 1.202c-.682.276-1.49.414-2.422.414-.932 0-1.74-.138-2.422-.414a4.413 4.413 0 01-1.695-1.203 5.137 5.137 0 01-.992-1.867C1.077 8.948.968 8.143.968 7.258c0-1.182.192-2.211.578-3.086.39-.88.99-1.563 1.797-2.047.807-.484 1.833-.727 3.078-.727 1.24 0 2.258.243 3.055.727a4.382 4.382 0 011.78 2.047c.392.88.587 1.914.587 3.101zm-8.336 0c0 .797.099 1.485.297 2.063.203.573.518 1.016.945 1.328.427.307.98.461 1.656.461.688 0 1.245-.154 1.672-.46.427-.313.737-.756.93-1.33.198-.577.297-1.265.297-2.062 0-1.197-.224-2.14-.672-2.828-.448-.687-1.185-1.03-2.211-1.03-.682 0-1.24.155-1.672.468-.427.307-.742.75-.945 1.328-.198.573-.297 1.26-.297 2.062zm18.755-3.007V13h-1.828l-.32-1.117h-.125a2.393 2.393 0 01-.704.726 3.055 3.055 0 01-.93.414c-.338.089-.69.133-1.054.133-.625 0-1.17-.11-1.633-.328a2.432 2.432 0 01-1.086-1.039c-.255-.469-.382-1.078-.382-1.828V4.266h2.382v5.101c0 .625.112 1.096.336 1.414.224.318.581.477 1.07.477.485 0 .865-.11 1.141-.328.276-.224.469-.55.578-.977.115-.432.172-.958.172-1.578v-4.11h2.383zm6.404 6.992c.26 0 .513-.026.758-.078.25-.052.497-.117.742-.196v1.774a4.357 4.357 0 01-.953.281 6.06 6.06 0 01-1.235.117c-.52 0-.99-.083-1.406-.25a2 2 0 01-.976-.883c-.235-.421-.352-1.007-.352-1.757V6.055h-1.14V5.047l1.312-.797.687-1.844h1.524v1.86h2.445v1.789h-2.445v4.21c0 .334.094.584.281.75.193.162.445.243.758.243zM34.546 13h-2.383V.844h2.383V13zm5.114-8.734V13h-2.382V4.266h2.383zM38.474.844c.354 0 .659.083.914.25.255.161.383.466.383.914 0 .443-.128.75-.383.922a1.64 1.64 0 01-.914.25c-.36 0-.666-.084-.922-.25-.25-.172-.375-.48-.375-.922 0-.448.125-.753.375-.914.255-.167.563-.25.922-.25zm8.879 3.258c.933 0 1.683.255 2.25.765.568.505.852 1.318.852 2.438V13h-2.383V7.898c0-.625-.114-1.096-.344-1.414-.224-.317-.578-.476-1.062-.476-.73 0-1.227.247-1.492.742-.266.495-.399 1.208-.399 2.14V13h-2.383V4.266h1.82l.321 1.117h.133a2.41 2.41 0 01.695-.735c.282-.187.591-.325.93-.414a4.242 4.242 0 011.062-.132zm9.381 0c.807 0 1.502.156 2.086.468a3.204 3.204 0 011.351 1.344c.318.589.477 1.307.477 2.156v1.157h-5.633c.026.671.227 1.2.602 1.585.38.38.906.57 1.578.57.557 0 1.067-.056 1.53-.171a7.84 7.84 0 001.43-.516v1.844c-.432.214-.885.37-1.359.469-.469.099-1.039.148-1.71.148-.876 0-1.652-.161-2.329-.484a3.616 3.616 0 01-1.586-1.477c-.38-.661-.57-1.494-.57-2.5 0-1.02.172-1.87.516-2.547.348-.682.833-1.192 1.453-1.53.62-.345 1.34-.516 2.164-.516zm.015 1.695c-.463 0-.849.148-1.156.445-.302.297-.477.763-.523 1.399h3.343a2.354 2.354 0 00-.195-.946 1.468 1.468 0 00-.547-.656c-.24-.161-.547-.242-.922-.242z" fill="#fff"/></svg>