<svg width="194" height="53" fill="#EA574E" xmlns="http://www.w3.org/2000/svg"><path d="M35.365 21.389c0 2.86-.355 5.467-1.066 7.82-.711 2.336-1.794 4.35-3.25 6.043-1.439 1.693-3.267 2.996-5.485 3.91-2.217.897-4.84 1.346-7.87 1.346-3.03 0-5.654-.449-7.872-1.346-2.217-.914-4.054-2.217-5.51-3.91-1.438-1.693-2.513-3.716-3.224-6.068C.377 26.83.02 24.215.02 21.338c0-3.843.627-7.186 1.88-10.03C3.17 8.449 5.116 6.23 7.74 4.657c2.623-1.574 5.958-2.361 10.003-2.361 4.029 0 7.338.787 9.928 2.361 2.607 1.574 4.536 3.792 5.789 6.653 1.27 2.86 1.904 6.22 1.904 10.08zm-27.092 0c0 2.59.322 4.824.965 6.703.66 1.862 1.684 3.3 3.072 4.316 1.389.999 3.183 1.498 5.383 1.498 2.235 0 4.046-.5 5.434-1.498 1.388-1.015 2.395-2.454 3.021-4.316.644-1.88.965-4.113.965-6.703 0-3.894-.728-6.957-2.183-9.192-1.456-2.234-3.851-3.351-7.186-3.351-2.217 0-4.028.508-5.434 1.523-1.388.999-2.412 2.438-3.072 4.316-.643 1.862-.965 4.097-.965 6.704zm60.955-9.776V40h-5.941l-1.041-3.63h-.407a7.809 7.809 0 01-2.285 2.36 9.94 9.94 0 01-3.021 1.346 13.48 13.48 0 01-3.428.432c-2.031 0-3.8-.356-5.307-1.067-1.506-.727-2.683-1.853-3.529-3.377-.83-1.523-1.244-3.504-1.244-5.941v-18.51h7.744v16.58c0 2.032.364 3.563 1.092 4.596.728 1.033 1.887 1.549 3.478 1.549 1.575 0 2.81-.356 3.707-1.066.898-.728 1.524-1.786 1.88-3.174.372-1.405.558-3.115.558-5.13V11.614h7.744zM90.04 34.338c.846 0 1.667-.085 2.463-.254.812-.17 1.616-.38 2.412-.635v5.764c-.83.372-1.862.677-3.098.914-1.218.254-2.556.38-4.011.38-1.693 0-3.216-.27-4.57-.812-1.338-.558-2.396-1.515-3.175-2.869-.761-1.37-1.142-3.275-1.142-5.713V17.428h-3.707v-3.276l4.266-2.59 2.234-5.992h4.951v6.043h7.947v5.815h-7.947v13.685c0 1.084.305 1.896.914 2.438.626.524 1.447.787 2.463.787zM109.151 40h-7.744V.492h7.744V40zm16.622-28.387V40h-7.744V11.613h7.744zM121.914.493c1.151 0 2.141.27 2.971.812.829.524 1.244 1.515 1.244 2.97 0 1.44-.415 2.438-1.244 2.996-.83.542-1.82.813-2.971.813-1.168 0-2.167-.27-2.996-.813-.813-.558-1.219-1.557-1.219-2.996 0-1.455.406-2.446 1.219-2.97.829-.542 1.828-.813 2.996-.813zm28.861 10.587c3.03 0 5.467.83 7.312 2.488 1.845 1.642 2.768 4.283 2.768 7.922V40h-7.744V23.42c0-2.031-.373-3.563-1.117-4.596-.728-1.032-1.879-1.549-3.454-1.549-2.369 0-3.986.804-4.849 2.413-.864 1.608-1.295 3.927-1.295 6.957V40h-7.744V11.613h5.916l1.041 3.631h.431a7.845 7.845 0 012.26-2.387 9.931 9.931 0 013.022-1.345 13.788 13.788 0 013.453-.432zm30.486 0c2.623 0 4.883.508 6.779 1.524 1.896.998 3.36 2.454 4.392 4.367 1.033 1.913 1.549 4.248 1.549 7.008v3.757h-18.306c.084 2.184.736 3.902 1.955 5.155 1.235 1.235 2.945 1.853 5.129 1.853 1.811 0 3.47-.186 4.976-.559 1.507-.372 3.056-.93 4.647-1.675v5.992a18.455 18.455 0 01-4.418 1.523c-1.524.322-3.377.483-5.561.483-2.844 0-5.366-.525-7.566-1.574-2.184-1.05-3.902-2.65-5.155-4.8-1.235-2.149-1.853-4.857-1.853-8.124 0-3.318.559-6.077 1.676-8.278 1.134-2.217 2.708-3.876 4.722-4.976 2.015-1.117 4.359-1.676 7.034-1.676zm.05 5.51c-1.506 0-2.759.482-3.757 1.447-.982.965-1.549 2.48-1.702 4.545h10.868c-.017-1.151-.229-2.175-.635-3.072a4.773 4.773 0 00-1.778-2.133c-.778-.525-1.777-.787-2.996-.787z"/></svg>