<svg width="308" height="54" fill="none" xmlns="http://www.w3.org/2000/svg"><path d="M3.107 36.186a.546.546 0 01.148-.181c.041-.033.058-.066.058-.099 0-.049-.017-.074-.1-.115a3.897 3.897 0 00-.502-.173 1.464 1.464 0 01-.14.47A6.63 6.63 0 010 38.963a.848.848 0 01.288.28c.058.074.075.107.116.107.025 0 .057-.025.124-.074 1.153-.833 1.91-1.748 2.579-3.09zm1.723-.528c-.033-.065-.05-.065-.149-.016l-.23.1c-.091.04-.108.048-.083.115a8.346 8.346 0 002.826 3.379c.058.04.091.065.116.065.033 0 .057-.032.107-.115a1.2 1.2 0 01.272-.33 7.11 7.11 0 01-2.86-3.198zm.131 4.006c-.05-.05-.057-.05-.14.008l-.214.132c-.099.066-.123.082-.082.131.395.478.733.931 1.038 1.41a63.99 63.99 0 01-3.074.33c.445-.982.848-2.036 1.145-2.86.074-.215.132-.313.198-.404.042-.05.058-.066.058-.116 0-.041-.042-.082-.107-.107a5.269 5.269 0 00-.528-.157c-.033.264-.099.495-.223.874a27.35 27.35 0 01-1.112 2.818c-.083 0-.165.009-.247.009a7.017 7.017 0 01-.915.016c.041.206.09.395.14.544.016.065.05.098.082.098.042 0 .066-.016.108-.04.065-.042.148-.075.33-.091 1.45-.132 3.081-.297 4.4-.503.149.247.289.503.437.783.033.066.05.058.165 0l.256-.148c.107-.057.115-.074.082-.123-.602-1.039-1.055-1.722-1.797-2.604zm10.21-2.234c.058 0 .066-.008.066-.074v-.395c0-.057-.008-.066-.066-.066-.041 0-.313.017-1.137.017h-1.846v-.684c0-.354.016-.495.05-.57.024-.056.04-.09.04-.148 0-.032-.04-.065-.107-.074a4.872 4.872 0 00-.568-.041c.041.197.058.42.058.832v.684H9.979c-.815 0-1.088-.017-1.137-.017-.057 0-.066.009-.066.066v.396c0 .066.009.074.066.074.05 0 .322-.016 1.137-.016h4.055c.824 0 1.096.017 1.137.017zm-4.936.61l-.272.09c-.116.042-.124.05-.099.108.354.915.602 1.755.791 2.86.016.074.033.082.157.05l.288-.083c.1-.025.1-.05.09-.107a14.653 14.653 0 00-.84-2.893c-.017-.049-.034-.049-.115-.024z" fill="#fff"/><path d="M15.583 41.7c-.05 0-.297.017-1.072.017h-1.615c.429-.998.75-1.946 1.047-2.967.05-.173.09-.289.157-.363.033-.041.074-.09.074-.14 0-.041-.017-.066-.083-.09a5.215 5.215 0 00-.576-.181 4.655 4.655 0 01-.165.856c-.231.85-.544 1.838-.99 2.885H9.485c-.766 0-1.022-.017-1.062-.017-.058 0-.066.009-.066.066v.412c0 .057.008.066.066.066.041 0 .297-.017 1.062-.017h5.027c.775 0 1.022.017 1.072.017.057 0 .066-.009.066-.066v-.412c0-.058-.008-.066-.066-.066zm4.858-3.535h2.06c.791 0 1.055.016 1.097.016.057 0 .066-.008.066-.074v-.38c0-.057-.009-.066-.066-.066-.042 0-.305.017-1.096.017h-2.217c.049-.429.074-.873.082-1.335.008-.38.025-.536.066-.619.024-.057.049-.09.049-.156 0-.041-.033-.075-.116-.09a6.342 6.342 0 00-.585-.05c.042.247.05.47.042.93-.009.47-.025.907-.066 1.32h-1.945c-.791 0-1.055-.017-1.096-.017-.058 0-.066.008-.066.066v.379c0 .066.008.074.066.074.041 0 .304-.016 1.096-.016h1.887a5.569 5.569 0 01-.478 1.616c-.478.989-1.352 1.862-2.744 2.44.107.074.214.164.305.28.057.082.082.115.123.115.033 0 .066-.016.133-.041 1.269-.635 2.093-1.418 2.661-2.588a6.09 6.09 0 00.453-1.393c.536 1.772 1.731 3.206 3.157 3.956.057.033.098.05.123.05.042 0 .066-.033.116-.124a1.53 1.53 0 01.297-.346c-1.673-.66-2.877-2.242-3.404-3.964zm11.426 1.764c-.041 0-.297.016-1.072.016h-2.192v-.099c0-.132 0-.223.008-.28.52-.297.94-.569 1.27-.832.189-.157.263-.19.345-.215.05-.016.083-.05.083-.107 0-.057-.05-.14-.166-.255-.131-.132-.18-.173-.23-.173-.033 0-.058.008-.083.016a.813.813 0 01-.214.016h-2.308c-.775 0-1.03-.016-1.071-.016-.058 0-.066.008-.066.066v.338c0 .057.008.066.066.066.04 0 .297-.016 1.07-.016h2.218a7.158 7.158 0 01-1.072.758 4.393 4.393 0 00-.42-.083c.041.207.057.453.057.816h-2.25c-.774 0-1.03-.016-1.07-.016-.058 0-.066.009-.066.066v.363c0 .057.008.066.065.066.042 0 .297-.017 1.072-.017h2.25v1.426c0 .264-.125.322-.363.322-.338 0-.569-.017-.858-.05.075.099.133.255.173.38.041.164.041.155.198.155.767.017.973-.024 1.146-.131.165-.116.222-.247.222-.536 0-.197-.008-.535-.008-.708v-.858h2.192c.775 0 1.03.017 1.072.017.057 0 .066-.009.066-.066v-.363c.002-.058-.006-.066-.064-.066z" fill="#fff"/><path d="M26.18 36.805c-.799 0-1.087-.017-1.137-.017-.058 0-.066.009-.066.058 0 .05.016.173.016.453v.288c0 .725-.016.832-.016.882 0 .058.008.066.066.066h.38c.057 0 .065-.008.065-.066v-1.228h5.678v1.228c0 .058.008.066.066.066h.37c.067 0 .075-.008.075-.066 0-.041-.016-.148-.016-.882v-.338c0-.23.016-.363.016-.404 0-.049-.008-.057-.074-.057-.042 0-.33.017-1.138.017h-.346c.206-.306.346-.553.495-.833a.618.618 0 01.156-.19c.042-.024.058-.057.058-.09 0-.041-.025-.074-.091-.107a2.23 2.23 0 00-.486-.173 1.496 1.496 0 01-.107.379 5.705 5.705 0 01-.536 1.014H26.18z" fill="#fff"/><path d="M26.477 36.673c.025 0 .05-.016.107-.041l.223-.107c.099-.05.107-.05.074-.107a6.67 6.67 0 00-.618-.923c-.041-.05-.066-.05-.157-.008l-.205.09c-.1.041-.107.066-.075.107.215.264.453.618.602.931.017.042.025.058.05.058zm1.912-.14l.223-.082c.107-.05.115-.05.09-.108a5.22 5.22 0 00-.511-.972c-.033-.05-.057-.05-.14-.016l-.223.074c-.09.033-.115.05-.074.107.19.297.346.57.478.973.025.074.041.074.157.024zm6.366-.1a5.924 5.924 0 00-1.097-.89c-.05-.032-.074-.024-.131.042l-.182.19c-.074.074-.074.09-.025.123.338.215.767.586 1.096.948.05.05.066.042.133-.033l.181-.222c.065-.075.065-.109.025-.158zm5.331 2.563c-.05 0-.338.017-1.17.017h-1.418v-1.5h1.039c.808 0 1.08.016 1.12.016.058 0 .067-.008.067-.066v-.345c0-.058-.009-.066-.066-.066-.042 0-.313.016-1.121.016h-1.039v-.61c0-.494.025-.717.05-.79.024-.067.041-.1.041-.15 0-.032-.041-.065-.099-.073a5.007 5.007 0 00-.535-.042c.041.289.05.52.05 1.071v.594h-.709c-.808 0-1.072-.016-1.112-.016-.058 0-.066.008-.066.066v.346c0 .057.008.065.066.065.041 0 .305-.016 1.112-.016h.709v1.5h-1.097c-.832 0-1.12-.017-1.17-.017-.058 0-.066.009-.066.066v.346c0 .066.008.074.066.074.05 0 .338-.016 1.17-.016h.717c-.23.865-.52 1.608-.832 2.316l-.297.025a12.28 12.28 0 01-.84.025 5.4 5.4 0 00.13.518c.017.058.058.108.108.108.05 0 .083-.033.132-.058.04-.024.107-.05.338-.074a72.136 72.136 0 003.799-.511c.157.239.305.495.445.758.025.057.041.057.148-.016l.231-.149c.083-.057.083-.074.058-.123-.47-.79-.94-1.45-1.525-2.085-.033-.033-.057-.033-.115.008l-.206.124c-.091.058-.099.083-.05.132.264.305.52.618.75.948-.849.132-1.649.238-2.563.32.288-.642.577-1.4.84-2.266h1.74c.832 0 1.12.016 1.17.016.05 0 .058-.008.058-.074v-.346c0-.057-.009-.066-.058-.066zm-5.966-.206l.198-.23c.05-.058.05-.074.008-.116a6.643 6.643 0 00-1.162-.865c-.05-.025-.083-.025-.132.041l-.172.206c-.058.066-.066.083-.009.116.371.23.791.552 1.13.906.048.05.056.041.139-.057zm.231 1.261c-.115-.082-.198-.14-.28-.247a11.016 11.016 0 01-.75 1.978 3.156 3.156 0 01-.37.61c.148.116.255.19.395.272a.238.238 0 00.124.041c.032 0 .057-.041.065-.099.009-.074.066-.198.14-.37.248-.577.528-1.261.75-1.937.05-.165.05-.173-.074-.248zm10.508-3.28c.008-.14.008-.28.008-.428 0-.207.033-.371.074-.462.025-.057.05-.099.05-.165 0-.05-.05-.082-.116-.099a4.932 4.932 0 00-.618-.066c.041.289.05.527.058.981.033 2.365-1.105 4.524-3.313 5.588.107.074.214.172.305.296.057.083.082.124.115.124s.066-.025.124-.057c1.673-.948 2.794-2.464 3.14-4.533.305 1.657 1.195 3.346 3.065 4.541.058.041.091.058.124.058s.057-.033.107-.116a1.15 1.15 0 01.288-.338c-2.159-1.22-3.082-3.107-3.411-5.324zm14.798 3.52c0-.066-.008-.074-.065-.074-.05 0-.338.016-1.17.016h-1.74c.124-.271.231-.56.338-.906h.775c.775 0 1.047.016 1.088.016.058 0 .066-.009.066-.066 0-.041-.017-.181-.017-.61v-.61c0-.42.017-.56.017-.602 0-.057-.008-.065-.066-.065-.041 0-.313.016-1.088.016h-1.837c-.775 0-1.039-.016-1.088-.016-.057 0-.066.008-.066.066 0 .04.016.18.016.601v.61c0 .429-.016.569-.016.61 0 .057.008.066.066.066.049 0 .313-.016 1.088-.016h.544c-.083.28-.206.6-.346.906h-.8c-.84 0-1.137-.016-1.178-.016-.058 0-.066.008-.066.074 0 .042.016.214.016.709v.486c0 1.005-.016 1.162-.016 1.211 0 .05.008.058.066.058h.387c.05 0 .058-.009.058-.058v-.346h4.524v.313c0 .05.009.058.066.058h.38c.057 0 .065-.009.065-.058 0-.05-.017-.206-.017-1.203v-.552c0-.404.017-.576.017-.618zm-4.36-2.48h3.157v1.12h-3.156v-1.12zm3.85 4.112h-4.525v-1.27h4.525v1.27z" fill="#fff"/><path d="M60.21 36.294c0-.057-.01-.065-.067-.065-.05 0-.33.016-1.136.016H57.06v-.116c0-.37.009-.494.041-.577.017-.057.042-.09.042-.148 0-.033-.033-.066-.099-.074a8.258 8.258 0 00-.535-.033c.05.198.057.412.057.84v.108h-1.805c-.808 0-1.088-.016-1.137-.016-.057 0-.065.008-.065.065 0 .042.016.166.016.446v.28c0 .733-.016.832-.016.873 0 .058.008.066.065.066h.38c.057 0 .065-.008.065-.066v-1.212h5.629v1.212c0 .058.008.066.066.066h.378c.058 0 .066-.008.066-.066 0-.041-.016-.148-.016-.873v-.33c0-.231.016-.354.016-.396zm7.979.255c.024 0 .049-.016.098-.05l.157-.106c.099-.066.107-.083.074-.133a4.036 4.036 0 00-.618-.716c-.05-.05-.05-.058-.14 0l-.165.098c-.099.058-.107.075-.058.116.215.206.421.461.594.733.024.033.032.058.058.058zm-4.469 3.783c0-.115.009-.223.034-.313a7.18 7.18 0 01-.759.371V38h.058c.52 0 .667.016.717.016.057 0 .066-.008.066-.066v-.345c0-.058-.009-.066-.066-.066-.05 0-.198.017-.717.017h-.058v-.99c0-.552.025-.758.05-.857a.375.375 0 00.041-.14c0-.041-.04-.066-.098-.074a4.365 4.365 0 00-.536-.05c.058.322.066.553.066 1.138v.972h-.132c-.528 0-.675-.017-.717-.017-.057 0-.065.009-.065.066v.346c0 .057.008.066.066.066.04 0 .19-.016.716-.016h.132v2.58l-.33.106a3.592 3.592 0 01-.66.149c.042.164.091.321.14.453.026.057.058.09.092.09.041 0 .074-.032.107-.057s.107-.066.28-.131c.486-.173.997-.388 1.426-.619.148-.082.148-.065.148-.239z" fill="#fff"/><path d="M68.954 41.032a.887.887 0 01-.288-.206c-.05.709-.116 1.146-.272 1.146-.198 0-.577-.412-.874-1.352.289-.486.536-1.055.75-1.763.083-.28.115-.388.173-.462.041-.057.066-.09.066-.131 0-.05-.033-.091-.099-.116a3.181 3.181 0 00-.445-.148 4.583 4.583 0 01-.149.8 6.51 6.51 0 01-.47 1.236c-.214-.824-.33-1.73-.378-2.81h.684c.808 0 1.08.016 1.129.016.057 0 .066-.008.066-.066v-.346c0-.057-.009-.057-.066-.057-.05 0-.321.008-1.13.008h-.7v-.56c0-.396.025-.536.05-.594a.394.394 0 00.041-.157c0-.033-.024-.066-.107-.082a3.397 3.397 0 00-.511-.058c.041.305.05.684.05 1.014 0 .148 0 .297.008.437h-1.17c-.808 0-1.097-.009-1.138-.009-.057 0-.066 0-.066.058 0 .05.016.296.016.93 0 .866-.008 1.624-.123 2.358a4.237 4.237 0 01-1.097 2.241c.107.041.223.107.322.19.057.05.082.082.115.082.025 0 .05-.032.09-.098.462-.594.883-1.418 1.023-2.242.082-.502.123-.98.14-1.492h1.03c0 .701-.074 1.394-.132 1.632-.066.214-.148.272-.321.272a3.54 3.54 0 01-.577-.066c.05.115.074.223.091.346.016.157.025.157.132.173.148.016.297.016.478.016.264 0 .52-.14.585-.412.107-.355.181-.956.207-1.838.008-.148.008-.305.024-.503 0-.057-.016-.074-.074-.074-.05 0-.149.016-.544.016h-.89v-1.137h1.895c.058 1.203.214 2.373.528 3.354-.52.758-1.228 1.286-2.135 1.706.099.05.198.132.272.223.058.066.083.099.124.099.025 0 .066-.026.132-.058.742-.395 1.319-.849 1.78-1.459.387 1.022.849 1.46 1.203 1.46.363 0 .569-.28.668-1.286.016-.156.016-.165-.116-.23zm5.048-2.867h2.06c.791 0 1.055.016 1.097.016.057 0 .066-.008.066-.074v-.38c0-.057-.009-.066-.066-.066-.042 0-.306.017-1.097.017h-2.216c.05-.429.074-.873.082-1.335.008-.38.025-.536.066-.619.024-.057.05-.09.05-.156 0-.041-.033-.075-.116-.09a6.345 6.345 0 00-.585-.05c.041.247.05.47.041.93-.008.47-.024.907-.066 1.32h-1.944c-.791 0-1.055-.017-1.096-.017-.058 0-.066.008-.066.066v.379c0 .066.008.074.066.074.04 0 .305-.016 1.096-.016h1.887a5.569 5.569 0 01-.478 1.616c-.478.989-1.352 1.862-2.745 2.44.107.074.214.164.305.28.058.082.083.115.124.115.033 0 .066-.016.132-.041 1.269-.635 2.093-1.418 2.661-2.588.198-.412.347-.882.453-1.393.536 1.772 1.731 3.206 3.157 3.956a.3.3 0 00.124.05c.04 0 .065-.033.115-.124.083-.132.19-.256.297-.346-1.673-.66-2.877-2.242-3.404-3.964zm6.297-1.492c.024 0 .05-.016.107-.041l.222-.107c.1-.05.108-.05.075-.107a6.68 6.68 0 00-.618-.923c-.042-.05-.066-.05-.157-.008l-.206.09c-.099.041-.107.066-.074.107.214.264.453.618.601.931.017.042.025.058.05.058z" fill="#fff"/><path d="M78.799 38.47c0 .058.008.066.066.066h.379c.058 0 .066-.008.066-.066v-1.228h5.678v1.228c0 .058.009.066.066.066h.371c.066 0 .074-.008.074-.066 0-.041-.016-.148-.016-.882v-.338c0-.231.016-.363.016-.404 0-.049-.008-.057-.074-.057-.041 0-.33.017-1.137.017h-.346c.206-.305.346-.553.494-.833a.618.618 0 01.157-.19c.041-.024.057-.057.057-.09 0-.041-.024-.074-.09-.107a2.25 2.25 0 00-.487-.173 1.51 1.51 0 01-.107.38 5.75 5.75 0 01-.535 1.013h-3.429c-.8 0-1.088-.017-1.137-.017-.058 0-.066.009-.066.058 0 .05.017.173.017.453v.289c-.001.724-.017.831-.017.881z" fill="#fff"/><path d="M82.21 36.533l.223-.082c.107-.05.116-.05.091-.108a5.22 5.22 0 00-.51-.972c-.034-.05-.058-.05-.14-.016l-.223.074c-.091.033-.116.05-.075.107.19.297.346.57.479.973.023.074.04.074.156.024zm3.479 3.396c-.041 0-.297.016-1.072.016h-2.192v-.099c0-.132 0-.223.008-.28.52-.297.94-.569 1.27-.832.188-.157.263-.19.345-.215.05-.016.083-.05.083-.107 0-.057-.05-.14-.165-.255-.132-.132-.181-.173-.23-.173-.033 0-.058.008-.083.016a.813.813 0 01-.214.016H81.13c-.775 0-1.03-.016-1.071-.016-.058 0-.066.008-.066.066v.338c0 .057.008.066.066.066.041 0 .297-.016 1.071-.016h2.217a7.187 7.187 0 01-1.071.758 4.37 4.37 0 00-.42-.083 4.2 4.2 0 01.057.816h-2.25c-.775 0-1.03-.016-1.071-.016-.058 0-.066.009-.066.066v.363c0 .057.008.066.066.066.041 0 .296-.017 1.07-.017h2.25v1.426c0 .264-.123.322-.362.322a6.74 6.74 0 01-.857-.05c.074.099.132.255.173.38.041.164.041.155.198.155.767.017.972-.024 1.146-.131.165-.116.222-.247.222-.536 0-.197-.008-.535-.008-.708v-.858h2.192c.775 0 1.03.017 1.072.017.057 0 .066-.009.066-.066v-.363c0-.058-.009-.066-.066-.066zM10.034 27.313c-3.366 0-4.056-1.217-4.056-4.706V2.487h.08l8.316 26.205h1.42l8.64-26.367h.082v22.31c0 1.948-.69 2.677-3.651 2.677v1.38h11.764v-1.38c-3.286 0-3.975-.73-3.975-2.677V4.84c0-1.947.69-2.677 3.61-2.677V.783h-8.965l-6.774 20.769h-.082L9.832.784H.299v1.38c3.286 0 3.976.729 3.976 2.676v17.767c0 3.489-.69 4.706-3.976 4.706v1.378h9.736v-1.378zM52.95 6.016c1.501-2.84 2.028-3.853 4.95-3.853V.783h-9.29v1.38c2.555 0 3.448.487 3.448 1.338 0 2.069-4.827 9.614-5.598 11.318-.69-1.826-5.435-9.898-5.435-11.277 0-.974.974-1.379 3.407-1.379V.783h-11.52v1.38c2.11 0 2.88.325 3.976 2.475l6.206 12.21v7.788c0 1.947-.69 2.677-4.219 2.677v1.378h12.737v-1.378c-3.69 0-4.38-.73-4.38-2.677v-7.789l5.718-10.83zM77.156.784v1.38c3.935 0 4.34 1.703 4.34 3.893v13.71c0 4.543-2.23 8.032-8.152 8.032-4.463 0-6.613-2.352-6.613-6.693V4.84c0-1.946.69-2.677 3.894-2.677V.783H58.7v1.38c3.204 0 3.894.73 3.894 2.677v16.145c0 5.678 4.016 8.194 10.262 8.194 5.842 0 10.1-3.245 10.1-9.086V6.057c0-2.19.407-3.894 3.976-3.894V.783h-9.776zm18.22 22.051h-2.33v-.952h2.33v-2.478h1.009v2.478h2.328v.952h-2.328v2.477h-1.01v-2.477zm16.034-1.56c.78 2.386 2.225 4.324 4.393 5.23a4.23 4.23 0 00-.792.998c-2.145-.998-3.533-2.855-4.427-5.287-.586 2.076-1.824 4.06-4.428 5.287a3.736 3.736 0 00-.814-.895c2.73-1.192 3.842-3.257 4.301-5.333h-4.072v-1.101h4.267c.137-1.148.126-2.248.137-3.166h1.158c-.011.93-.023 2.03-.16 3.166h4.622v1.101h-4.185zm17.124 3.131h-4.519v1.916c0 .585-.149.883-.62 1.044-.47.15-1.147.16-2.144.16-.08-.297-.287-.734-.448-1.032.803.035 1.606.035 1.835.024.23-.012.287-.058.287-.23v-1.88h-4.473v-.988h4.473v-.792h.539c.447-.24.906-.55 1.296-.86h-4.358v-.929h5.379l.229-.057.689.516c-.689.734-1.698 1.468-2.684 1.973v.149h4.519v.986zm-8.889-2.924h-.998v-2.627h1.651a7.184 7.184 0 00-.895-1.319l.918-.413c.413.459.872 1.102 1.066 1.537l-.413.195h2.123c-.161-.459-.493-1.09-.803-1.571l.929-.344c.39.516.78 1.239.929 1.697l-.562.219h1.938a12.05 12.05 0 001.113-1.79l1.124.356a20.3 20.3 0 01-1.067 1.434h1.664v2.626h-1.055v-1.686h-7.662v1.686zm14.624-3.636c-.321.963-.723 2.156-1.09 3.05.78.907.952 1.698.952 2.387 0 .653-.138 1.136-.47 1.365-.173.114-.39.194-.62.23a5.378 5.378 0 01-.757.01c-.011-.263-.091-.664-.252-.917.241.024.436.024.585.012a.618.618 0 00.356-.103c.16-.115.206-.39.206-.723 0-.573-.183-1.319-.929-2.145.287-.768.585-1.789.803-2.569h-1.227v9.084h-.941V17.478h2.523l.161-.034.7.402zm5.506 8.59c.206 0 .252-.183.275-1.376.207.172.631.332.906.401-.092 1.526-.356 1.927-1.067 1.927h-.894c-.872 0-1.079-.31-1.079-1.285v-2.798h-1.101c-.161 2.122-.631 3.475-2.787 4.22-.092-.251-.368-.653-.586-.825 1.847-.596 2.237-1.663 2.352-3.395h-1.4v-.975h6.4v.975h-1.87v2.787c0 .31.034.344.241.344h.61zm-2.868-8.155v-1.25h1.033v1.25h2.855v2.145h-.906v.814h-4.748v-.814h-.871V18.28h2.637zm2.902.918h-4.588v1.112h4.588V19.2zm13.293 5.116h-1.193v2.007h-1.078v-.493h-2.443v.596c0 .585-.149.826-.539.975-.39.138-.986.15-1.95.15a3.284 3.284 0 00-.367-.86 23.07 23.07 0 001.503.01c.206-.01.275-.068.275-.263v-.608h-3.578v-.803h3.578v-.71h-4.588v-.838h4.588v-.654h-3.475v-.757h3.475v-.677h-3.177v-2.11h3.177v-.586h-4.347v-.86h4.347v-.837h1.078v.837h4.474v.86h-4.474v.585h3.338v2.11h-3.338v.678h3.521v1.41h1.193v.838zm-5.792-3.637v-.688h-2.157v.688h2.157zm1.078-.688v.689h2.259v-.689h-2.259zm0 3.487h2.443v-.653h-2.443v.653zm2.443.838h-2.443v.71h2.443v-.71zm10.713.55c1.009.712 2.489 1.297 3.888 1.56-.241.23-.55.666-.711.952-1.491-.401-3.028-1.17-4.106-2.156v2.305h-1.044v-2.225c-1.09.917-2.639 1.663-4.072 2.065a4.779 4.779 0 00-.7-.906c1.365-.287 2.856-.884 3.866-1.595h-3.544v-.894h4.45v-.7h-3.384v-.803h3.384v-.688h-3.946v-.849h2.351a5.634 5.634 0 00-.482-1.043l.276-.046h-2.604v-.895h1.698c-.172-.447-.516-1.078-.837-1.549l.929-.31c.355.493.756 1.194.917 1.64l-.585.219h1.261v-1.962h.998v1.962h1.136v-1.962h1.009v1.962h1.239l-.436-.138c.275-.458.631-1.181.803-1.697l1.101.275c-.31.562-.654 1.136-.952 1.56h1.652v.895h-2.213c-.218.39-.447.769-.642 1.09h2.432v.849h-4.061v.688h3.521v.803h-3.521v.7h4.519v.894h-3.59zm-2.948-5.023c.207.333.413.745.493 1.02l-.333.07h2.421c.172-.31.355-.723.504-1.09h-3.085zm11.871 4.048c-.149-.367-.482-.998-.78-1.537v5.161h-.987v-4.851c-.344 1.09-.768 2.099-1.227 2.752-.103-.286-.356-.688-.505-.917.677-.94 1.331-2.638 1.64-4.095h-1.399v-.986h1.491v-2.42h.987v2.42h1.227v.986h-1.227v.677c.321.425 1.169 1.72 1.353 2.03l-.573.78zm7.225 1.8h-.676v.758c0 .482-.104.722-.437.883-.332.127-.848.137-1.582.137a4.032 4.032 0 00-.287-.86c.482.024.975.024 1.124.012.138 0 .183-.046.183-.183v-.745h-3.59v1.777h-.974v-1.777h-.735v-.803h.735v-2.867h2.247v-.562h-2.787v-.792h1.503v-.643h-1.009v-.746h1.009v-.63h-1.251v-.77h1.251v-.882h.998v.883h1.571v-.883h.998v.883h1.365v.768h-1.365v.631h1.193v.746h-1.193v.642h1.595v.792h-2.914v.562h2.352v2.867h.676v.803zm-5.264-2.901v.653h1.273v-.653h-1.273zm0 2.099h1.273v-.711h-1.273v.71zm.987-5.609h1.571v-.63h-1.571v.63zm0 1.388h1.571v-.642h-1.571v.642zm1.249 2.122v.653h1.354v-.653h-1.354zm1.354 2.099v-.711h-1.354v.71h1.354zm5.666-1.158v-2.684c-.447.826-.998 1.57-1.56 2.053a4.393 4.393 0 00-.699-.757c.802-.574 1.606-1.674 2.087-2.764H179.7v-.906h1.984v-1.64h1.01v1.64h1.72v.906h-1.72v.55c.436.264 1.571 1.09 1.87 1.308l-.574.872a21.543 21.543 0 00-1.296-1.193v2.603l-1.01.012zm-2.133 2.706c.447-.607.826-1.56 1.044-2.35l.941.378c-.23.792-.596 1.812-1.021 2.454l-.964-.482zm6.538-.103c.539 0 .62-.16.689-1.308.229.173.665.322.963.39-.149 1.514-.447 1.87-1.571 1.87h-2.236c-1.377 0-1.732-.287-1.732-1.296V24.28h1.055v1.698c0 .31.115.355.768.355h2.064zm-1.594-2.925c.516.482 1.216 1.159 1.571 1.572l-.78.653c-.321-.424-1.009-1.135-1.525-1.652l.734-.573zm4.92.184h-4.53v-5.998h4.53v5.998zm-1.02-5.138h-2.535v.872h2.535v-.872zm0 1.686h-2.535v.895h2.535v-.895zm0 1.697h-2.535v.906h2.535v-.906zm.218 2.076c.47.711 1.101 1.686 1.399 2.271l-.986.505c-.276-.596-.884-1.606-1.342-2.34l.929-.436zm13.212.493h-4.519v1.916c0 .585-.149.883-.62 1.044-.47.15-1.147.16-2.144.16-.08-.297-.287-.734-.448-1.032.803.035 1.606.035 1.835.024.23-.012.287-.058.287-.23v-1.88h-4.473v-.988h4.473v-.792h.539c.447-.24.906-.55 1.296-.86h-4.358v-.929h5.379l.229-.057.689.516c-.689.734-1.698 1.468-2.684 1.973v.149h4.519v.986zm-8.889-2.924h-.998v-2.627h1.651a7.184 7.184 0 00-.895-1.319l.918-.413c.413.459.872 1.102 1.066 1.537l-.413.195h2.123c-.161-.459-.493-1.09-.803-1.571l.929-.344c.39.516.78 1.239.929 1.697l-.562.219h1.938a12.05 12.05 0 001.113-1.79l1.124.356a20.3 20.3 0 01-1.067 1.434h1.664v2.626h-1.055v-1.686h-7.662v1.686zm10.897-3.901h4.06v.964h-1.72a19.42 19.42 0 01-.665 2.523h2.213v5.047h-2.248V27h-.894v-3.877c-.173.287-.344.55-.539.792a5.216 5.216 0 00-.425-1.205c.757-1.02 1.251-2.535 1.549-4.163h-1.331v-.965zm2.97 4.439h-1.33v3.154h1.33V22.02zm7.433.654h-1.239v4.852h-1.021v-4.852h-1.629c-.057 1.721-.355 3.625-1.594 4.91a5.555 5.555 0 00-.814-.62c1.09-1.136 1.354-2.822 1.41-4.29h-1.181v-1.009h1.193v-3.074h-.883v-.998h5.528v.998h-1.009v3.074h1.239v1.01zm-2.26-1.01v-3.073h-1.617v3.073h1.617zm13.373 4.738c.287 0 .333-.195.379-1.663.23.194.711.378 1.009.458-.103 1.79-.39 2.248-1.261 2.248h-1.113c-.986 0-1.273-.31-1.273-1.41V23.97h-1.926c-.241 1.342-1.17 2.753-4.244 3.59a5.028 5.028 0 00-.723-.871c2.65-.7 3.556-1.744 3.843-2.719h-3.028v-.998h3.154v-1.319h1.067v1.319h2.97v3.051c0 .333.058.379.333.379h.813zm-4.748-7.432c-.241 1.823-.929 2.89-3.648 3.452-.091-.252-.343-.665-.562-.86 2.363-.413 2.902-1.204 3.098-2.592h-1.825v1.205h-1.066v-2.156h4.289v-1.033h1.09v1.033h4.37v2.053h-1.124V18.97h-2.019v1.8c0 .299.058.334.436.334h1.205c.298 0 .355-.104.389-.826.218.16.654.32.941.367-.115 1.112-.401 1.4-1.205 1.4h-1.468c-1.101 0-1.353-.287-1.353-1.262V18.97h-1.548zm12.02 5.046c-.161-.344-.551-.987-.895-1.514v5.012h-1.032V22.87c-.425 1.044-.941 2.02-1.468 2.673-.104-.287-.356-.723-.517-.987.677-.78 1.412-2.144 1.835-3.36h-1.685v-.999h1.835V18.66c-.493.092-.987.16-1.446.23-.034-.23-.183-.608-.298-.826 1.285-.207 2.753-.539 3.648-.93l.607.872c-.435.173-.94.31-1.479.436v1.755h1.606v.998h-1.606v.16a31.906 31.906 0 011.537 1.824l-.642.837zm5.38.562v2.936h-1.055v-2.752l-3.614.608-.16-1.021 3.773-.631v-6.721H238v6.549l1.25-.207.161.998-1.41.24zM235.5 23.03c-.379-.493-1.216-1.227-1.916-1.71l.677-.619c.688.46 1.56 1.148 1.961 1.629l-.722.7zm.287-3.017c-.344-.482-1.124-1.181-1.778-1.663l.7-.608c.653.447 1.445 1.112 1.823 1.594l-.745.677zm16.619-2.683c-.252.745-.55 1.503-.883 2.236v7.949h-1.009v-6.08c-.298.47-.596.895-.918 1.274a8.326 8.326 0 00-.538-1.125c.951-1.112 1.835-2.81 2.362-4.53l.986.276zm6.401 1.732a6.42 6.42 0 01-1.422 1.835c.745.401 1.64.71 2.684.895-.183.218-.459.607-.585.871a8.952 8.952 0 01-2.868-1.181c-.802.55-1.743.963-2.764 1.273-.103-.195-.367-.539-.562-.757v3.636h-.929v-7.25h.929v1.526c.826-.734 1.549-1.8 1.962-2.925l.975.241a8.553 8.553 0 01-.447.975h3.922v.86h-.895zm-5.517 2.844c.94-.23 1.8-.561 2.535-1.009a6.362 6.362 0 01-1.055-1.124 8.195 8.195 0 01-.849.906 9.063 9.063 0 00-.631-.504v1.731zm6.457 2.994c-1.147 1.353-3.235 2.144-5.609 2.569a3.545 3.545 0 00-.55-.838c2.213-.32 4.243-.986 5.241-2.11l.918.379zm-2.168-2.386c-.711.711-1.858 1.285-2.925 1.629a3.65 3.65 0 00-.585-.62c.987-.275 2.111-.768 2.707-1.342l.803.333zm1.078 1.055c-.883.975-2.397 1.664-3.934 2.076a4.208 4.208 0 00-.528-.688c1.423-.321 2.914-.918 3.671-1.71l.791.322zm-3.372-4.507l-.011.011a5.31 5.31 0 001.284 1.308 4.985 4.985 0 001.136-1.319h-2.409zm12.043 2.511v4.313h3.979v1.067h-9.004v-1.067h3.888v-4.313h-4.519v-1.055h4.519V17.02h1.136v3.498h4.588v1.055h-4.587zm10.632-.975h2.638v.975h-2.638v1.02h2.294v3.017c0 .436-.069.711-.367.872-.299.16-.735.172-1.331.16a2.701 2.701 0 00-.286-.905c.413.011.756.011.871 0 .115 0 .149-.035.149-.15v-2.041h-1.33v3.98h-1.009v-3.98H275.7v3.062h-.951v-4.014h2.202v-1.021h-2.696v-.975h.792c-.218-.127-.643-.275-.895-.367.504-.757.883-1.893 1.101-2.982l.998.206c-.091.379-.194.769-.298 1.136h.998v-1.526h1.01v1.526h2.19v.963h-2.19v1.044h-.001zm-1.009 0v-1.044h-1.342a5.95 5.95 0 01-.505 1.044h1.847zm5.333 3.75h-.986v-6.342h.986v6.343zm2.065-7.19v9.003c0 .642-.138.94-.516 1.124-.367.183-1.009.206-1.87.206a4.784 4.784 0 00-.344-1.09c.642.024 1.261.024 1.457.012.183 0 .241-.057.241-.24v-9.016h1.032zm5.517.206c-.31.802-.7 1.628-1.136 2.397v7.742h-1.078v-6.056a10.22 10.22 0 01-.941 1.124c-.103-.264-.413-.86-.596-1.101 1.09-1.078 2.111-2.752 2.73-4.427l1.021.32zm3.463 2.535v1.457h3.12v.975h-3.12v1.525h3.281v.998h-3.281v2.661h-1.089v-7.616h-.643c-.482.895-1.009 1.697-1.56 2.305-.172-.183-.585-.562-.826-.722 1.009-1.055 1.927-2.707 2.478-4.359l1.02.276c-.183.493-.378.998-.596 1.48h4.611v1.02h-3.395zm14.028 4.781c-.505.39-1.136.758-1.686 1.056.642.424 1.422.745 2.329.929-.23.195-.493.608-.631.872-2.03-.505-3.384-1.652-4.176-3.384h-1.215v1.927c.711-.103 1.468-.23 2.225-.344l.034.929c-1.525.252-3.142.516-4.335.7l-.161-.975c.367-.046.792-.104 1.25-.173v-2.064h-1.33v-.895h1.926v-.999h-1.594v-.905h1.594v-.918h-1.915v.425c0 1.961-.161 4.817-1.354 6.675a4.475 4.475 0 00-.941-.55c1.136-1.767 1.228-4.301 1.228-6.125v-3.35h8.625v2.925h-1.629v.918h1.801v.905h-1.801v.999h2.272v.895h-1.285l.769.528zm-7.685-5.16h6.493v-1.09h-6.493v1.09zm2.89 1.835h2.042v-.918h-2.042v.918zm0 1.904h2.042v-.998h-2.042v.998zm1.641.895c.218.39.482.734.802 1.044a12.62 12.62 0 001.526-1.044h-2.328zM235.58 7.95h-4.599v2.638h-1.101V7.949h-4.485V6.93h4.485v-.757h.734a5.158 5.158 0 00-.711-.585 5.252 5.252 0 002.489-3.04l1.079.206c-.138.425-.31.826-.517 1.193.826.55 1.835 1.285 2.352 1.778l-.746.792c-.459-.459-1.354-1.158-2.157-1.732a6.562 6.562 0 01-1.433 1.388h.011v.757h4.599v1.02zm-6.113-2.25c-.286-.286-.803-.71-1.285-1.066-.516.792-1.147 1.468-1.835 1.962a6.77 6.77 0 00-.86-.711c1.17-.723 2.065-1.939 2.501-3.36l1.078.24a8.63 8.63 0 01-.437 1.067c.528.355 1.148.802 1.48 1.112l-.642.757zm5.781-3.21h-9.554V1.469h4.186v-1.4h1.101v1.4h4.267v1.02zm7.96 5.448c1.009.711 2.489 1.296 3.888 1.56-.241.23-.55.666-.711.952-1.491-.401-3.028-1.17-4.106-2.156v2.305h-1.044V8.374c-1.09.917-2.639 1.663-4.072 2.064a4.78 4.78 0 00-.7-.905c1.365-.287 2.856-.884 3.866-1.595h-3.544v-.895h4.45v-.7h-3.384v-.802h3.384v-.688h-3.946v-.849h2.351a5.634 5.634 0 00-.482-1.044l.276-.046h-2.603V2.02h1.697c-.172-.448-.516-1.079-.837-1.549l.929-.31c.355.493.757 1.193.917 1.64l-.585.219h1.261V.058h.998V2.02h1.135V.058h1.01V2.02h1.238l-.436-.138c.276-.459.631-1.181.803-1.697l1.101.275a17.876 17.876 0 01-.951 1.56h1.651v.895h-2.213c-.218.39-.448.769-.642 1.09h2.431v.848h-4.06v.688h3.521v.803h-3.521v.7h4.519v.894h-3.589zm-2.948-5.024c.207.333.413.746.493 1.021l-.332.07h2.42c.172-.31.355-.723.504-1.09h-3.085zm7.444-2.259h4.06v.963h-1.72c-.173.872-.39 1.72-.666 2.524h2.214v5.046h-2.248v.884h-.895V6.195c-.172.286-.344.55-.539.791a5.216 5.216 0 00-.425-1.204c.757-1.021 1.251-2.535 1.549-4.164h-1.331V.655h.001zm2.971 4.438h-1.331v3.155h1.331V5.093zm7.432.654h-1.239V10.6h-1.021V5.747h-1.628c-.058 1.72-.356 3.625-1.594 4.91a5.633 5.633 0 00-.815-.62c1.09-1.136 1.354-2.822 1.411-4.29h-1.181v-1.01h1.193V1.665h-.883V.666h5.528v.999h-1.009v3.073h1.239v1.01h-.001zm-2.26-1.01V1.665h-1.617v3.074h1.617zm12.227 4.738c.287 0 .333-.195.379-1.663.229.195.711.378 1.009.458-.103 1.79-.39 2.248-1.261 2.248h-1.113c-.986 0-1.273-.31-1.273-1.41V7.042h-1.927c-.241 1.342-1.17 2.752-4.243 3.59a5.073 5.073 0 00-.723-.872c2.649-.7 3.556-1.743 3.842-2.718h-3.028v-.999h3.155V4.726h1.066v1.32h2.971v3.05c0 .333.057.38.333.38h.813zm-4.749-7.432c-.24 1.823-.929 2.89-3.647 3.452-.092-.252-.344-.665-.562-.86 2.363-.413 2.902-1.204 3.097-2.592h-1.823v1.205h-1.067V1.09h4.29V.058h1.089V1.09h4.37v2.054h-1.124V2.043h-2.019v1.8c0 .299.057.334.435.334h1.205c.298 0 .356-.104.39-.826.218.16.653.321.941.367-.115 1.112-.402 1.4-1.205 1.4h-1.468c-1.101 0-1.354-.287-1.354-1.262V2.043h-1.548zm9.576 3.292a.905.905 0 11-1.81 0 .905.905 0 011.81 0zm6.03-1.664h2.638v.975h-2.638v1.02h2.294v3.017c0 .436-.069.711-.367.872-.298.16-.735.172-1.331.16a2.701 2.701 0 00-.286-.905c.413.011.757.011.872 0 .114 0 .149-.034.149-.15V6.62h-1.331v3.979h-1.009v-3.98h-1.25v3.062h-.952V5.667h2.202v-1.02h-2.696V3.67h.792c-.218-.126-.643-.275-.895-.367.505-.757.883-1.892 1.101-2.982l.999.206c-.092.38-.195.769-.299 1.136h.999V.139h1.009v1.525h2.19v.963h-2.19v1.044h-.001zm-1.01 0V2.627h-1.342a5.94 5.94 0 01-.504 1.044h1.846zm5.334 3.75h-.987V1.08h.987v6.343zm2.064-7.19v9.003c0 .643-.137.941-.516 1.124-.367.183-1.009.207-1.87.207a4.729 4.729 0 00-.343-1.09 22.08 22.08 0 001.456.012c.184 0 .241-.058.241-.241V.23h1.032zm4.6.206a18.34 18.34 0 01-1.135 2.397v7.742h-1.079V4.52c-.298.413-.619.791-.94 1.124-.104-.264-.413-.86-.597-1.102 1.09-1.078 2.111-2.752 2.73-4.427l1.021.322zm3.464 2.535v1.457h3.12v.975h-3.12v1.525h3.281v.998h-3.281v2.661h-1.089V2.972h-.643c-.482.895-1.009 1.697-1.56 2.305-.173-.183-.585-.562-.826-.723 1.009-1.054 1.926-2.706 2.477-4.358l1.021.276c-.183.493-.379.998-.596 1.479h4.611v1.02h-3.395zm13.798 4.782c-.504.39-1.135.757-1.686 1.055.642.424 1.422.745 2.329.929-.23.195-.493.608-.631.872-2.03-.505-3.384-1.652-4.175-3.384h-1.216v1.927c.711-.104 1.468-.23 2.225-.344l.034.929c-1.525.252-3.142.516-4.335.7l-.161-.976a49.97 49.97 0 001.25-.172V7.225h-1.33V6.33h1.927v-.998h-1.594v-.904h1.594V3.51h-1.915v.425c0 1.961-.161 4.817-1.354 6.675a4.5 4.5 0 00-.941-.55c1.136-1.767 1.227-4.301 1.227-6.125V.585h8.626V3.51h-1.629v.918h1.801v.906h-1.801v.998h2.271v.895h-1.284l.768.527zm-7.684-5.161h6.492v-1.09h-6.492v1.09zm2.889 1.835h2.042V3.51h-2.042v.918zm0 1.904h2.042v-.998h-2.042v.998zm1.641.895c.218.39.482.734.802 1.044.528-.31 1.124-.711 1.526-1.044h-2.328zM97.813 4.697v.517h-5.1v-.517h2.275v-1.32H93.35v-.512h1.637V1.717h-1.275a4.969 4.969 0 01-.569.89 3.408 3.408 0 00-.487-.321c.465-.489.827-1.275 1.04-2.08l.55.127c-.086.293-.19.586-.299.862h1.04V.125h.55v1.069h2v.523h-2v1.148h1.787v.511h-1.786v1.32h2.274zm2.137-1.935c-.236-.16-.712-.436-1.057-.614l.293-.397c.327.161.816.414 1.057.569l-.293.442zm-.942 2.2a17.07 17.07 0 001.079-1.816l.385.357c-.293.591-.678 1.28-1.016 1.815l-.448-.357zm1.212-3.75A15.13 15.13 0 0099.169.58l.298-.38c.333.162.822.42 1.069.581l-.316.43zm2.388 1.085v.85h1.183v2.21h-.505v-.212h-1.901v.242h-.488v-2.24h1.206v-.85h-1.596v-.511h1.596V.97c-.402.063-.816.11-1.194.138a1.892 1.892 0 00-.155-.448c.982-.103 2.096-.287 2.728-.522l.419.413a7.62 7.62 0 01-1.292.333v.902h1.522v.51h-1.523zm.678 1.332h-1.9v1.034h1.9V3.629zm3.79.407c-.643.19-1.332.39-1.866.535l-.115-.506c.212-.051.471-.115.746-.184V2.635h-.62v-.471h.62V.993h-.677V.522h1.803v.47h-.643v1.173h.557v.47h-.557V3.75c.23-.063.465-.126.695-.19l.057.477zm3.216.024c-.23.172-.517.344-.747.459a2.5 2.5 0 00.868.454 2.002 2.002 0 00-.345.419c-.649-.253-1.166-.758-1.493-1.384l-.046.04v1.344h-.499v-.954a6.02 6.02 0 01-1.206.638 1.94 1.94 0 00-.316-.374 5.55 5.55 0 001.74-.942h-.988V2.492h2.785V3.76h-1.136c.091.178.212.344.356.5.218-.133.493-.34.655-.478l.372.277zm-3.389-2.275h3.503v.436h-3.503v-.436zm3.257-.258h-2.992V.304h2.992v1.223zm-2.108-.85h-.447v.47h.447v-.47zm-.322 2.688h1.821v-.483h-1.821v.483zm1.143-2.688h-.465v.47h.465v-.47zm.833 0h-.471v.47h.471v-.47zm3.606 2.993c-.603.292-1.263.597-1.768.832l-.19-.528c.206-.075.465-.184.741-.3V1.993h-.626v-.5h.626V.19h.493v1.304h.563v.5h-.563v1.464l.604-.264.12.476zm2.82 1.228c.109 0 .132-.064.149-.535.097.081.31.155.442.19-.046.643-.178.804-.54.804h-.511c-.465 0-.569-.144-.569-.603v-.781h-.516c-.139.7-.489 1.16-1.545 1.424a1.793 1.793 0 00-.293-.448c.907-.178 1.194-.493 1.315-.976h-.54V2.222h2.831v1.752h-.746v.775c0 .132.017.15.143.15h.38v-.001zm.522-2.946h-3.497v-.437h.873a2.157 2.157 0 00-.189-.505l.253-.057h-.77v-.42h1.298V.131h.523v.402h1.389v.42h-.758l.247.051c-.103.184-.189.368-.269.511h.901v.437h-.001zm-2.624.976h1.809v-.362h-1.809v.362zm0 .7h1.809v-.367h-1.809v.367zm.298-2.675c.092.166.173.373.202.517l-.178.045h1.028l-.127-.028c.075-.15.172-.368.23-.534h-1.155zm4.066 1.212h3.761c.121 0 .333-.006.483-.029v.592a12.76 12.76 0 00-.483-.012h-1.481c-.023.609-.138 1.115-.356 1.528-.207.39-.644.816-1.143 1.074l-.529-.39c.426-.173.839-.506 1.063-.856.247-.385.321-.839.345-1.356h-1.66a7.33 7.33 0 00-.522.018v-.598c.16.017.343.029.522.029zm.712-1.448h1.941c.178 0 .396-.011.574-.034v.592a9.485 9.485 0 00-.574-.023h-1.935c-.196 0-.408.011-.563.023V.683c.172.023.367.034.557.034zm3.296.316l-.378.16a6.874 6.874 0 00-.454-.792l.368-.155c.142.207.349.563.464.787zm.66-.252l-.373.166a5.865 5.865 0 00-.471-.792l.368-.155a7.2 7.2 0 01.476.78zm2.464 4.559l-.488-.453c1.073-.397 1.579-.89 1.579-2.412v-.23h-1.51v.861c0 .23.017.477.023.557h-.637c.011-.08.028-.321.028-.557v-.862h-.563a9.98 9.98 0 00-.597.018v-.62c.075.011.333.046.597.046h.563V1.02c0-.138-.012-.31-.028-.46h.643a3.46 3.46 0 00-.029.466v.66h1.51V1.02c0-.23-.017-.42-.028-.5h.649c-.006.081-.029.27-.029.5v.666h.534c.281 0 .465-.018.574-.034v.608a5.793 5.793 0 00-.568-.017h-.54v.195c0 1.482-.339 2.304-1.683 2.901zm2.527-4.032l-.333.115a6.922 6.922 0 00-.316-.798l.327-.103c.104.212.248.562.322.786zm.586-.177l-.333.109a6.545 6.545 0 00-.322-.798l.328-.104c.109.218.253.563.327.793zm3.089.609a7.063 7.063 0 001.596-1.367l.483.46a9.641 9.641 0 01-1.545 1.257v2.383c0 .236.012.551.04.678h-.712c.018-.127.034-.442.034-.678V2.475c-.603.327-1.36.66-2.119.89l-.281-.569c1.005-.27 1.867-.66 2.504-1.056zm5.519 1.957c.924-.568 1.642-1.43 1.992-2.164l.351.626c-.414.746-1.121 1.527-2.016 2.078a6.323 6.323 0 01-2.2.856l-.384-.592a5.962 5.962 0 002.257-.804zm-.195-1.837l-.454.465c-.298-.305-1.01-.93-1.435-1.218l.419-.447c.401.27 1.148.867 1.47 1.2zm4.26-.885h2.855c.154 0 .356-.006.459-.011a11.8 11.8 0 00-.012.482v2.97c0 .2.012.482.024.608h-.655c0-.08.005-.19.005-.31h-2.722c-.235 0-.522.011-.689.023v-.65c.167.012.42.03.666.03h2.751V1.555h-2.682c-.224 0-.517.012-.666.023V.941c.201.017.477.034.666.034zm4.972 1.436h2.499c.221 0 .4-.023.514-.034v.712c-.101-.006-.312-.028-.514-.028h-2.499c-.253 0-.528.011-.684.028v-.712c.151.012.436.034.684.034zm7.748-1.039c-.201.471-.54 1.12-.942 1.637a15.18 15.18 0 011.643 1.683l-.505.448a12.863 12.863 0 00-1.522-1.677c-.615.655-1.39 1.269-2.212 1.653l-.465-.488c.931-.356 1.792-1.045 2.361-1.683.39-.436.775-1.068.912-1.516h-2.107c-.224 0-.534.029-.626.034V.815c.115.018.448.04.626.04h2.131c.212 0 .402-.023.499-.057l.374.275c-.04.058-.127.202-.167.3zm4.479 1.384a.666.666 0 11-1.333-.001.666.666 0 011.333 0zm5.18.592h-1.585V2.136h1.585v1.073c.235-.154.453-.344.649-.562-.212-.425-.374-.953-.477-1.539h-1.992v.431c0 .677-.104 1.637-.632 2.28a1.936 1.936 0 00-.39-.328c.476-.58.534-1.378.534-1.958V.677h2.418a5.67 5.67 0 01-.046-.557h.505c.006.19.017.374.04.557h.867a4.142 4.142 0 00-.62-.299l.264-.304c.281.086.626.247.815.39l-.178.212h.58v.431h-1.659c.075.408.184.776.316 1.086a3.95 3.95 0 00.408-.868l.505.115a4.88 4.88 0 01-.661 1.258c.201.316.42.5.62.5.133 0 .19-.196.219-.701.109.091.281.19.413.235-.081.752-.259.948-.661.948-.338 0-.654-.218-.918-.586a3.941 3.941 0 01-.626.534 2.036 2.036 0 00-.293-.298v.018zm-2.803 1.63c.368-.258.608-.683.741-1.108l.471.167c-.144.46-.368.942-.764 1.24l-.448-.298zm2.872-3.18h-1.717V1.44h1.717v.356zm.396 3.043c.236 0 .276-.07.299-.563.109.08.339.16.477.195-.064.678-.218.844-.724.844h-1.028c-.654 0-.815-.143-.815-.643v-.821h.528v.815c0 .15.046.173.339.173h.924zm-.908-2.343h-.706v.488h.706v-.488zm-.063.884c.339.173.746.448.936.666l-.373.327c-.178-.218-.575-.51-.913-.694l.35-.299zm2.016.42c.396.326.804.797.977 1.16l-.489.252c-.144-.35-.54-.838-.925-1.182l.437-.23zm1.877-1.115c.144-.385.247-1.016.287-1.481l.391.057c-.029.471-.133 1.137-.27 1.562l-.408-.138zm5.295 2.004v.505h-3.52v-.505h1.596V3.388h-1.166v-.5h1.166v-1.08h-.746a5.171 5.171 0 01-.368.85 3.044 3.044 0 00-.477-.247c.075-.115.149-.247.213-.396l-.322.154c-.051-.23-.201-.597-.344-.9v4.117h-.535V.12h.535v1.062l.338-.138c.144.27.305.62.374.862.178-.448.305-.988.379-1.528l.522.086c-.04.287-.103.569-.172.838h.603V.142h.535v1.161h1.24v.505h-1.24v1.08h1.114v.499h-1.114V4.69h1.389v.001zm.97-1.981c.121-.39.213-1.028.247-1.476l.385.046a7.789 7.789 0 01-.23 1.556l-.402-.126zm1.493-.798a7.352 7.352 0 00-.293-.804v4.278h-.488V.126h.488v.936l.333-.132c.115.258.264.597.322.81l-.362.172zm3.831.034v.396h-3.721v-.396h1.574v-.333h-1.264v-.374h1.264V.941h-1.402V.544h1.402V.12h.528v.425h1.452v.397h-1.453v.298h1.304v.374h-1.304v.333h1.62zm-.419 2.894c0 .242-.052.379-.224.454-.178.075-.448.08-.844.08a1.978 1.978 0 00-.155-.459c.264.017.54.012.614.012.081-.006.103-.029.103-.098v-.31h-1.9v.867h-.494V2.624h2.9V4.84zm-2.406-1.814v.356h1.9v-.356h-1.9zm1.9 1.108v-.356h-1.9v.356h1.9zm3.486-2.515h1.005v.453h-.534l.247.063a9.95 9.95 0 01-.293.678h.511v.46h-.936v.54h.861v.453h-.861v1.108h-.499V4.266h-.902v-.454h.902v-.54h-.953v-.46h.499a2.556 2.556 0 00-.218-.677l.235-.063h-.614V1.62h1.051v-.5h-.844V.671h.844v-.54h.5v.54h.792v.448h-.792v.5h-.001zm.012 1.142c.08-.195.184-.482.241-.689h-.994c.104.224.202.505.224.69l-.189.05h.913l-.195-.05zm3.566-.35a5.613 5.613 0 01-.649 1.872c.247.287.534.523.855.684a2.125 2.125 0 00-.356.425 3.138 3.138 0 01-.792-.678 3.307 3.307 0 01-.701.684 1.663 1.663 0 00-.293-.31v.304h-.483V.372h2.286v1.086c0 .247-.052.384-.253.46-.19.074-.483.074-.913.074a1.68 1.68 0 00-.161-.46c.327.012.632.012.718.007.086-.006.109-.024.109-.086V.844h-1.303v1.47h1.522l.086-.022.328.119zm-1.935 2.579c.264-.184.488-.42.683-.69a5.914 5.914 0 01-.683-1.55v2.24zm.448-2.24c.126.39.298.764.511 1.102.183-.344.316-.718.407-1.102h-.918zm3.353-.585h3.762c.12 0 .332-.006.482-.029v.592a12.756 12.756 0 00-.482-.012h-1.482c-.023.609-.138 1.115-.356 1.528-.207.39-.643.816-1.143 1.074l-.528-.39c.425-.173.838-.506 1.062-.856.248-.385.322-.839.345-1.356h-1.659c-.173 0-.362.006-.523.018v-.598c.161.017.344.029.522.029zm.712-1.448h1.941c.178 0 .396-.011.574-.034v.592a9.485 9.485 0 00-.574-.023h-1.935a7.75 7.75 0 00-.563.023V.683c.173.023.368.034.557.034zm3.297.316l-.379.16a6.874 6.874 0 00-.454-.792l.368-.155c.143.207.35.563.465.787zm.66-.252l-.374.166a5.763 5.763 0 00-.471-.792l.368-.155c.155.217.373.574.477.78zm2.234 4.559l-.489-.453c1.074-.397 1.58-.89 1.58-2.412v-.23h-1.511v.861c0 .23.018.477.023.557h-.637c.012-.08.028-.321.028-.557v-.862h-.562c-.27 0-.506.012-.598.018v-.62c.075.011.333.046.598.046h.562V1.02c0-.138-.011-.31-.028-.46h.643a3.64 3.64 0 00-.029.466v.66h1.511V1.02c0-.23-.018-.42-.029-.5h.649c-.006.081-.029.27-.029.5v.666h.535c.281 0 .465-.018.574-.034v.608a5.818 5.818 0 00-.569-.017h-.54v.195c0 1.482-.338 2.304-1.682 2.901zm2.526-4.032l-.333.115a6.922 6.922 0 00-.316-.798l.327-.103c.104.212.248.562.322.786zm.586-.177l-.333.109a6.542 6.542 0 00-.321-.798l.327-.104c.109.218.253.563.327.793zm2.859.609a7.063 7.063 0 001.596-1.367l.483.46a9.641 9.641 0 01-1.545 1.257v2.383c0 .236.012.551.04.678h-.712a6.74 6.74 0 00.034-.678V2.475c-.603.327-1.361.66-2.119.89l-.281-.569c1.005-.27 1.867-.66 2.504-1.056zm5.519 1.957c.925-.568 1.643-1.43 1.993-2.164l.35.626c-.414.746-1.12 1.527-2.016 2.078a6.325 6.325 0 01-2.199.856l-.385-.592a5.955 5.955 0 002.257-.804zm-.195-1.837l-.453.465c-.299-.305-1.011-.93-1.436-1.218L203.4.66c.402.27 1.148.867 1.47 1.2zm4.26-.885h2.855a9.8 9.8 0 00.459-.011c-.006.126-.011.332-.011.482v2.97c0 .2.011.482.023.608h-.655c0-.08.006-.19.006-.31h-2.722c-.236 0-.523.011-.689.023v-.65a9.4 9.4 0 00.665.03h2.751V1.555h-2.682c-.223 0-.516.012-.665.023V.941c.2.017.476.034.665.034zm4.972 1.436h2.499c.221 0 .399-.023.514-.034v.712c-.101-.006-.312-.028-.514-.028h-2.499c-.253 0-.528.011-.685.028v-.712c.152.012.437.034.685.034zm7.748-1.039c-.201.471-.54 1.12-.942 1.637a15.18 15.18 0 011.643 1.683l-.505.448a12.863 12.863 0 00-1.522-1.677c-.615.655-1.39 1.269-2.212 1.653l-.465-.488c.931-.356 1.792-1.045 2.36-1.683.391-.436.776-1.068.913-1.516h-2.107c-.224 0-.534.029-.626.034V.815c.115.018.448.04.626.04h2.131c.212 0 .402-.023.499-.057l.374.275c-.04.058-.127.202-.167.3zm-124.1 10.13v.483h-4.996v-.483h2.211v-1.027h-1.614v-.477h3.911v.477H95.51v1.027h2.24zM94.89 7.92c-.115.988-.436 1.585-1.832 1.895a1.51 1.51 0 00-.287-.454c1.235-.23 1.476-.671 1.562-1.441h-.964v.723h-.523V7.436h2.12V6.88h.545v.557h2.165v1.085h-.546v-.603h-1v1.04c0 .144.035.166.224.166h.638c.155 0 .19-.063.206-.436.11.069.322.149.46.184-.052.562-.196.706-.609.706h-.764c-.557 0-.683-.138-.683-.614V7.92h-.712zm4.91 1.187v3.044h-.528V7.108h2.118v1.999H99.8zm0-1.596v.396h1.085v-.396H99.8zm1.085 1.2v-.425H99.8v.425h1.085zm3.13 2.774c0 .305-.063.477-.27.568-.2.087-.516.092-.999.092a2.376 2.376 0 00-.166-.523h-1.551v.287h-.488V9.503h2.153v2.103c.282.011.557.005.649.005.104-.005.133-.034.133-.132V9.12h-1.631V7.11h2.17v4.376zm-2.986-1.58v.448h1.166v-.448h-1.166zm1.166 1.316v-.477h-1.166v.477h1.166zm.161-3.71v.396h1.12v-.396h-1.12zm1.119 1.212v-.436h-1.12v.436h1.12zm2.63.2h3.762c.12 0 .333-.006.482-.028v.591a12.756 12.756 0 00-.482-.011h-1.482c-.023.608-.138 1.114-.356 1.528-.206.39-.643.815-1.143 1.073l-.528-.39c.425-.172.838-.505 1.063-.856.247-.384.321-.838.344-1.355h-1.659a7.37 7.37 0 00-.523.017v-.597c.161.017.344.028.522.028zm.712-1.447h1.941c.178 0 .396-.012.574-.034v.591a9.477 9.477 0 00-.574-.023h-1.935c-.195 0-.408.012-.563.023v-.591c.173.023.368.034.557.034zm3.297.316l-.379.16a6.874 6.874 0 00-.454-.792l.368-.155c.143.207.35.563.465.787zm.66-.253l-.374.166a5.665 5.665 0 00-.471-.792l.368-.155c.155.218.374.575.477.781zm2.578 4.561l-.488-.454c1.074-.396 1.579-.89 1.579-2.412v-.23h-1.51v.862c0 .23.017.476.023.556h-.637a5.29 5.29 0 00.028-.556v-.862h-.563a9.98 9.98 0 00-.597.018v-.62c.075.011.333.045.597.045h.563v-.665c0-.138-.011-.31-.028-.46h.643c-.012.08-.029.253-.029.465v.661h1.51v-.666c0-.23-.017-.42-.028-.5h.649c-.006.081-.029.27-.029.5v.666h.534c.282 0 .466-.017.575-.034v.608a5.815 5.815 0 00-.569-.017h-.54V9.2c0 1.481-.339 2.303-1.683 2.9zm2.527-4.032l-.333.115a6.922 6.922 0 00-.316-.798l.327-.103c.104.212.248.562.322.786zm.586-.178l-.333.109a6.542 6.542 0 00-.321-.798l.327-.103c.109.218.253.562.327.792zm3.204.609a7.085 7.085 0 001.596-1.367l.483.46a9.73 9.73 0 01-1.545 1.257v2.384c0 .235.012.55.04.677h-.712a6.73 6.73 0 00.034-.677v-2c-.604.328-1.361.662-2.119.891l-.281-.568c1.005-.27 1.866-.66 2.504-1.057zm5.863 1.958c.924-.568 1.643-1.43 1.992-2.165l.351.626c-.414.747-1.12 1.528-2.016 2.08a6.323 6.323 0 01-2.2.855l-.384-.592a5.972 5.972 0 002.257-.804zm-.195-1.837l-.454.465c-.298-.305-1.01-.93-1.435-1.218l.419-.448c.402.27 1.148.867 1.47 1.2zm4.605-.885h2.854c.155 0 .357-.006.46-.012a11.8 11.8 0 00-.012.483v2.97c0 .2.012.482.023.608h-.654c0-.081.005-.19.005-.31h-2.722c-.235 0-.523.01-.689.022v-.649c.166.012.419.03.666.03h2.75V8.315h-2.681c-.224 0-.517.012-.666.023v-.637c.201.016.477.034.666.034zm5.317 1.435h2.499c.22 0 .399-.022.514-.033v.712c-.101-.006-.312-.028-.514-.028h-2.499a7.4 7.4 0 00-.685.028v-.712c.152.01.436.034.685.034zm8.023-1.04a7.87 7.87 0 01-.942 1.638 15.177 15.177 0 011.643 1.682l-.505.448a12.869 12.869 0 00-1.522-1.677c-.615.655-1.39 1.27-2.212 1.654l-.465-.489c.931-.356 1.792-1.045 2.36-1.682.391-.436.776-1.068.913-1.517h-2.107c-.224 0-.534.03-.626.035v-.65c.115.018.448.04.626.04h2.131c.212 0 .402-.023.499-.057l.374.276a2.08 2.08 0 00-.167.3zm4.823 1.385a.666.666 0 11-1.333-.001.666.666 0 011.333.001zm6.674-1.55c-.184.477-.46 1.09-.827 1.63.511.42 1.005.868 1.401 1.299l-.459.505a12.753 12.753 0 00-1.321-1.297 7.164 7.164 0 01-2.2 1.82l-.505-.454a6.246 6.246 0 002.234-1.757 16.244 16.244 0 00-1.585-1.131l.379-.46c.483.305 1.12.747 1.579 1.097.339-.5.552-1.01.719-1.481.045-.127.097-.333.126-.471l.666.235a4.028 4.028 0 00-.207.465zm2.135.958h3.762c.12 0 .333-.006.482-.028v.591a12.756 12.756 0 00-.482-.011h-1.482c-.023.608-.138 1.114-.356 1.528-.206.39-.643.815-1.143 1.073l-.528-.39c.425-.172.838-.505 1.063-.856.247-.384.321-.838.344-1.355h-1.659a7.37 7.37 0 00-.523.017v-.597c.161.017.345.028.522.028zm.712-1.447h1.941c.178 0 .396-.012.574-.034v.591a9.444 9.444 0 00-.574-.023h-1.935c-.195 0-.408.012-.562.023v-.591c.172.023.367.034.556.034zm3.297.316l-.379.16a6.874 6.874 0 00-.454-.792l.368-.155c.144.207.35.563.465.787zm.661-.253l-.374.166a5.763 5.763 0 00-.471-.792l.368-.155c.155.218.373.575.477.781zm2.767 1.764c.546-.339 1.097-.827 1.396-1.194l.447.436c-.287.305-.78.718-1.292 1.057v2.016c0 .184.006.453.028.55h-.665c.011-.097.023-.367.023-.55V9.963c-.494.259-1.155.54-1.729.724l-.275-.54c.752-.172 1.602-.563 2.067-.844zm8.178-1.246c-.247.419-.793 1.148-1.407 1.584l-.477-.384c.505-.293 1.005-.862 1.171-1.189h-3.146c-.23 0-.431.018-.678.034v-.637c.212.028.448.051.678.051h3.21c.126 0 .384-.017.476-.04l.362.34c-.051.062-.143.172-.189.24zm-3.727 3.9l-.528-.432c.166-.057.367-.149.551-.281.821-.528.953-1.252.953-2.205 0-.155-.006-.293-.035-.46h.655c0 1.499-.086 2.602-1.596 3.377zm5.168-3.034h3.761c.121 0 .333-.006.483-.028v.591a12.76 12.76 0 00-.483-.011h-1.481c-.023.608-.138 1.114-.356 1.528-.207.39-.644.815-1.143 1.073l-.528-.39c.425-.172.838-.505 1.062-.856.247-.384.322-.838.345-1.355h-1.66c-.172 0-.362.005-.522.017v-.597c.16.017.344.028.522.028zm.712-1.447h1.941c.178 0 .396-.012.574-.034v.591a9.477 9.477 0 00-.574-.023h-1.935c-.196 0-.408.012-.563.023v-.591c.173.023.367.034.557.034zm3.296.316l-.378.16a6.874 6.874 0 00-.454-.792l.368-.155c.143.207.35.563.464.787zm.661-.253l-.373.166a5.865 5.865 0 00-.471-.792l.367-.155c.155.218.373.575.477.781zm2.462 4.561l-.488-.454c1.074-.396 1.579-.89 1.579-2.412v-.23h-1.51v.862c0 .23.017.476.023.556h-.637a5.29 5.29 0 00.028-.556v-.862h-.562c-.27 0-.506.012-.598.018v-.62c.075.011.333.045.598.045h.562v-.665c0-.138-.011-.31-.028-.46h.643c-.012.08-.029.253-.029.465v.661h1.51v-.666c0-.23-.017-.42-.028-.5h.649c-.006.081-.029.27-.029.5v.666h.534c.282 0 .466-.017.575-.034v.608a5.815 5.815 0 00-.569-.017h-.54V9.2c0 1.481-.339 2.303-1.683 2.9zm2.528-4.032l-.333.115a7.108 7.108 0 00-.316-.798l.327-.103c.103.212.247.562.322.786zm.585-.178l-.333.109a6.542 6.542 0 00-.321-.798l.327-.103c.109.218.253.562.327.792zm3.089.609a7.09 7.09 0 001.597-1.367l.482.46a9.676 9.676 0 01-1.544 1.257v2.384c0 .235.011.55.04.677h-.713c.018-.126.035-.442.035-.677v-2c-.604.328-1.361.662-2.119.891l-.282-.568c1.006-.27 1.868-.66 2.504-1.057zm5.748 1.958c.925-.568 1.643-1.43 1.993-2.165l.35.626c-.413.747-1.12 1.528-2.015 2.08a6.339 6.339 0 01-2.2.855l-.385-.592a5.965 5.965 0 002.257-.804zm-.194-1.837l-.454.465c-.299-.305-1.01-.93-1.436-1.218l.42-.448c.401.27 1.148.867 1.47 1.2zm4.49-.885h2.854c.155 0 .356-.006.46-.012a11.8 11.8 0 00-.012.483v2.97c0 .2.012.482.023.608h-.655c0-.081.006-.19.006-.31h-2.722c-.236 0-.523.01-.689.022v-.649c.166.012.419.03.666.03h2.75V8.315h-2.681c-.224 0-.517.012-.666.023v-.637c.201.016.477.034.666.034zm5.202 1.435h2.499c.22 0 .399-.022.514-.033v.712c-.101-.006-.312-.028-.514-.028h-2.499a7.4 7.4 0 00-.685.028v-.712c.152.01.436.034.685.034zm7.931-1.04a7.87 7.87 0 01-.942 1.638 15.177 15.177 0 011.643 1.682l-.505.448a12.869 12.869 0 00-1.522-1.677c-.614.655-1.39 1.27-2.211 1.654l-.465-.489c.93-.356 1.791-1.045 2.36-1.682.39-.436.775-1.068.913-1.517h-2.108c-.223 0-.534.03-.625.035v-.65a5.9 5.9 0 00.625.04h2.131c.212 0 .402-.023.499-.057l.374.276a2.08 2.08 0 00-.167.3zM100.894 53.17h-9.65c-.066-2.548 1.303-4.354 5.013-6.605 2.185-1.381 2.76-2.082 2.76-3.42 0-1.487-1.104-2.527-2.672-2.527-1.214 0-2.141.595-2.517 1.593-.132.403-.177.786-.177 1.826h-1.965v-.53c0-1.445.309-2.422 1.037-3.208.84-.956 2.12-1.444 3.688-1.444 2.782 0 4.659 1.72 4.659 4.27 0 1.231-.441 2.272-1.303 3.143-.596.595-.883.807-3.047 2.145-1.523.977-2.76 2.188-3.025 2.995h7.198v1.762h.001zm12.343-11.979c.728 1.296 1.037 2.804 1.037 5.055 0 2.04-.331 3.611-1.037 4.865a4.59 4.59 0 01-4.04 2.336 4.582 4.582 0 01-4.019-2.336c-.706-1.296-1.037-2.804-1.037-4.97 0-2.146.331-3.718 1.037-4.95.862-1.465 2.34-2.336 4.019-2.336 1.722 0 3.2.849 4.04 2.336zm-6.425 1.062c-.42.956-.618 2.146-.618 3.887s.198 2.953.618 3.908c.464.998 1.369 1.636 2.407 1.636 1.015 0 1.942-.638 2.384-1.636.42-.956.618-2.145.618-3.823 0-1.826-.176-3.037-.618-3.972-.464-1.02-1.391-1.635-2.406-1.635-1.016 0-1.922.616-2.385 1.635zm20.07 10.917h-9.649c-.067-2.548 1.302-4.354 5.012-6.605 2.186-1.381 2.76-2.082 2.76-3.42 0-1.487-1.104-2.527-2.672-2.527-1.214 0-2.141.595-2.517 1.593-.132.403-.177.786-.177 1.826h-1.965v-.53c0-1.445.309-2.422 1.038-3.208.838-.956 2.119-1.444 3.687-1.444 2.782 0 4.659 1.72 4.659 4.27 0 1.231-.441 2.272-1.303 3.143-.596.595-.883.807-3.047 2.145-1.523.977-2.76 2.188-3.025 2.995h7.198v1.762h.001zm13.093 0h-9.649c-.066-2.548 1.303-4.354 5.012-6.605 2.186-1.381 2.76-2.082 2.76-3.42 0-1.487-1.104-2.527-2.672-2.527-1.214 0-2.141.595-2.517 1.593-.132.403-.176.786-.176 1.826h-1.966v-.53c0-1.445.309-2.422 1.038-3.208.839-.956 2.119-1.444 3.687-1.444 2.782 0 4.659 1.72 4.659 4.27 0 1.231-.441 2.272-1.302 3.143-.596.595-.884.807-3.048 2.145-1.523.977-2.76 2.188-3.024 2.995h7.198v1.762zm6.227-.283h-2.047v-1.912h2.047v1.912zm19.016.214h-13.605c-.094-3.593 1.837-6.139 7.067-9.313 3.082-1.947 3.891-2.935 3.891-4.822 0-2.096-1.557-3.564-3.767-3.564-1.712 0-3.019.84-3.549 2.246-.187.57-.249 1.108-.249 2.576h-2.771v-.748c0-2.037.436-3.414 1.464-4.523 1.183-1.348 2.988-2.036 5.199-2.036 3.923 0 6.569 2.426 6.569 6.02 0 1.737-.623 3.205-1.837 4.433-.841.838-1.245 1.138-4.297 3.024-2.148 1.378-3.891 3.085-4.265 4.223h10.15v2.484zm6.055-.214h-2.047v-1.912h2.047v1.912zm10.546.214h-2.739V38.906h-4.701v-1.947c2.677.09 4.825-1.378 5.323-3.624h2.117v19.766zm19.581-5.69c0 3.505-3.019 6.08-7.066 6.08-4.078 0-7.098-2.606-7.098-6.08 0-2.246 1.152-3.953 3.518-5.21-1.712-.959-2.583-2.396-2.583-4.163 0-2.965 2.583-5.121 6.163-5.121 3.549 0 6.133 2.156 6.133 5.12 0 1.768-.871 3.205-2.583 4.164 2.364 1.257 3.516 2.964 3.516 5.21zm-11.269-.15c0 2.217 1.712 3.744 4.202 3.744 2.428 0 4.171-1.527 4.171-3.683 0-2.246-1.68-3.774-4.202-3.774-2.459 0-4.171 1.527-4.171 3.714zm.841-9.014c0 1.677 1.369 2.845 3.362 2.845 1.93 0 3.33-1.168 3.33-2.815 0-1.707-1.338-2.875-3.362-2.875-1.961 0-3.33 1.168-3.33 2.845zm21.311 7.355h-4.901v2.76h4.114v1.105h-4.114v4.198h-1.312v-9.209h6.213v1.146zm2.927 1.395v1.05c.263-.387.373-.54.553-.705.303-.317.787-.524 1.187-.524.248 0 .483.055.704.166v1.146a2.492 2.492 0 00-.58-.07c-1.022 0-1.809.912-1.809 2.099v3.507h-1.27v-6.669h1.215zm6.033-1.063h-1.27v-1.478h1.27v1.478zm0 7.73h-1.27v-6.667h1.27v6.668zm17.169-8.516h-8.733V43.31h8.733v1.838zm23.604 7.995h-13.662c-.093-3.609 1.844-6.165 7.096-9.353 3.095-1.955 3.908-2.947 3.908-4.842 0-2.105-1.563-3.579-3.782-3.579-1.72 0-3.033.842-3.564 2.256-.188.572-.25 1.113-.25 2.587h-2.782v-.752c0-2.045.437-3.429 1.469-4.541 1.188-1.354 3.001-2.045 5.22-2.045 3.939 0 6.596 2.435 6.596 6.045 0 1.744-.625 3.217-1.844 4.45-.844.842-1.251 1.143-4.314 3.038-2.157 1.383-3.908 3.098-4.283 4.24h10.191v2.496h.001zm16.88-16.962c1.032 1.834 1.469 3.97 1.469 7.158 0 2.887-.469 5.112-1.469 6.887-1.188 2.075-3.314 3.308-5.721 3.308-2.375 0-4.501-1.233-5.689-3.308-1-1.835-1.469-3.97-1.469-7.038 0-3.038.469-5.263 1.469-7.007 1.219-2.075 3.314-3.308 5.689-3.308 2.439 0 4.533 1.203 5.721 3.308zm-9.097 1.504c-.594 1.354-.876 3.038-.876 5.504 0 2.466.282 4.18.876 5.533.656 1.414 1.938 2.316 3.407 2.316 1.438 0 2.752-.902 3.377-2.316.594-1.353.875-3.038.875-5.413 0-2.587-.25-4.3-.875-5.624-.656-1.443-1.969-2.316-3.408-2.316-1.438 0-2.719.872-3.376 2.316zm20.84 9.615c-.138-1.27-.897-1.892-2.292-1.892-1.228 0-2.015.525-2.015 1.326 0 .676.483 1.077 1.657 1.34l1.491.33c1.09.25 1.642.484 2.084.884.484.428.746 1.05.746 1.767 0 1.74-1.409 2.817-3.645 2.817-2.389 0-3.824-1.215-4.018-3.424h1.367c.138 1.463 1.104 2.278 2.691 2.278 1.326 0 2.264-.65 2.264-1.574 0-.69-.496-1.146-1.463-1.38l-2.071-.497c-1.685-.401-2.443-1.146-2.443-2.389 0-1.616 1.339-2.637 3.451-2.637s3.244.98 3.534 3.051h-1.338zm8.008 6.364v-.759c-.663.704-1.202.939-2.113.939-.787 0-1.435-.263-1.808-.732-.318-.414-.442-.883-.442-1.657v-4.459h1.27v4.363c0 .911.414 1.353 1.284 1.353 1.091 0 1.753-.635 1.753-1.67v-4.045h1.271v6.668h-1.215zm4.128-6.667v.76c.662-.704 1.201-.94 2.112-.94.787 0 1.436.264 1.809.733.317.414.442.883.442 1.657v4.459h-1.271v-4.363c0-.911-.414-1.353-1.284-1.353-1.09 0-1.753.634-1.753 1.67v4.045h-1.27v-6.668h1.215z" fill="#fff"/></svg>