<svg xmlns="http://www.w3.org/2000/svg" viewBox="0 0 1009.07 504.54"><style>.st0{fill:#fff}</style><g id="レイヤー_1"><path class="st0" d="M463.03 46.4v26.2h-6.39l-1.49-6.04c-3.27 5.11-7.31 7.1-14.2 7.1-13.42 0-21.65-9.3-21.65-24.42 0-15.19 9.09-25.06 23-25.06 10.37 0 18.18 5.89 20.38 15.41l-10.29.64c-1.14-4.4-4.83-7.03-10.01-7.03-7.67 0-12.42 5.82-12.42 15.34 0 10.22 4.61 16.33 12.35 16.33 6.03 0 10.58-3.76 11.64-9.73h-11.57V46.4h20.65zm19.81-8.1l-.28 6.11c1.99-5.54 4.54-7.1 11.86-7.03v9.51c-1.21-.14-1.7-.14-2.56-.14-3.48 0-6.32 1.56-7.45 4.12-.99 2.27-1.35 5.47-1.35 12.07v9.66h-10.08V38.3h9.86zm20.02 10.79c.64-7.88 5.54-11.72 15.19-11.72 5.18 0 9.16 1.21 11.86 3.55 2.48 2.2 3.41 4.97 3.41 10.01V66.7c0 3.69.14 4.19 1.28 5.89h-10.3c-.43-1.21-.43-1.42-.78-2.7-3.34 2.77-5.75 3.62-9.8 3.62-7.6 0-12.64-4.26-12.64-10.72s4.05-9.8 13.63-11.36l5.47-.92c2.27-.35 3.05-.92 3.05-2.34 0-1.92-1.99-3.12-5.25-3.12-3.69 0-5.68 1.28-6.11 4.05h-9.01zm20.66 7.18c-1.06.43-1.99.71-3.69 1.06l-3.62.78c-3.62.85-5.18 2.06-5.18 4.12 0 2.27 1.92 3.62 5.11 3.62 3.34 0 5.75-1.42 7.38-4.33v-5.25zm52.61 16.32h-9.66V68.9c-2.56 3.34-5.25 4.61-9.44 4.61-9.02 0-15.05-7.17-15.05-18.03 0-10.93 6.11-18.18 15.34-18.18 3.69 0 6.32 1.06 8.73 3.55V25.24h10.08v47.35zm-24.21-17.18c0 6.03 2.84 9.94 7.24 9.94 4.33 0 7.24-3.98 7.24-9.8 0-6.11-2.84-10.08-7.24-10.08s-7.24 3.91-7.24 9.94zm66.95 17.18h-9.58v-3.76c-2.41 3.41-4.9 4.69-9.09 4.69-3.55 0-6.82-1.28-9.09-3.55-2.34-2.34-3.27-5.25-3.27-10.15V38.3h10.08v19.31c0 3.34.14 4.19 1.06 5.4.92 1.28 2.56 1.99 4.4 1.99s3.41-.71 4.33-1.99c.92-1.21 1.06-1.99 1.06-5.4V38.3h10.08v34.29zm10.44-23.5c.64-7.88 5.54-11.72 15.19-11.72 5.18 0 9.16 1.21 11.86 3.55 2.48 2.2 3.41 4.97 3.41 10.01V66.7c0 3.69.14 4.19 1.28 5.89h-10.29c-.43-1.21-.43-1.42-.78-2.7-3.34 2.77-5.75 3.62-9.8 3.62-7.6 0-12.64-4.26-12.64-10.72s4.05-9.8 13.63-11.36l5.47-.92c2.27-.35 3.05-.92 3.05-2.34 0-1.92-1.99-3.12-5.25-3.12-3.69 0-5.68 1.28-6.11 4.05h-9.02zm20.66 7.18c-1.06.43-1.99.71-3.69 1.06l-3.62.78c-3.62.85-5.18 2.06-5.18 4.12 0 2.27 1.92 3.62 5.11 3.62 3.34 0 5.75-1.42 7.38-4.33v-5.25zm40.4-10.44h-6.18v13.35c0 5.4.21 5.82 2.56 5.82h3.62v7.6h-6.18c-4.4 0-6.6-.64-8.09-2.27-1.56-1.7-1.99-3.55-1.99-8.88V45.83h-4.83v-7.1h4.83V27.87h10.08v10.86h6.18v7.1zm21.58-12.28h-10.08v-8.31h10.08v8.31zm0 39.04h-10.08V38.3h10.08v34.29zm45.01-16.89c0 10.37-7.67 17.82-18.25 17.82-10.65 0-18.18-7.45-18.18-18.1 0-10.58 7.53-18.03 18.18-18.03 10.87-.01 18.25 7.37 18.25 18.31zm-26.27-.29c0 6.46 2.91 10.08 8.09 10.08 5.04 0 8.02-3.62 8.02-9.87 0-6.6-2.84-10.22-8.09-10.22-5.11 0-8.02 3.62-8.02 10.01zm44.66-17.11v3.34c3.69-3.41 5.82-4.33 9.37-4.33 7.45 0 12 4.97 12 13.06v22.22h-10.08V53.92c0-3.48-.21-4.83-1.07-6.11-.85-1.28-2.34-1.99-4.12-1.99-1.7 0-3.27.64-4.33 1.85-1.14 1.28-1.49 2.7-1.49 5.68v19.24h-10.08V38.3h9.8zM429.02 154.59l-12.78-47.36h10.58l5.11 21.23c.92 3.98 1.42 6.18 2.63 11.79.78-5.4 1.28-8.24 1.99-11.79l4.47-21.23h10.22l4.4 21.58c.92 4.69 1.42 7.24 2.06 11.43.43-2.06 1.21-5.89 2.41-11.43l5.25-21.58h10.58l-13.21 47.36h-9.94l-4.33-19.74c-1.06-4.9-2.06-10.01-2.34-12.28-.92 5.11-1.49 8.17-2.41 12.28l-4.47 19.74h-10.22zm86.12-16.89c0 10.37-7.67 17.82-18.25 17.82-10.65 0-18.18-7.45-18.18-18.1 0-10.58 7.53-18.03 18.18-18.03 10.87-.01 18.25 7.37 18.25 18.31zm-26.27-.29c0 6.46 2.91 10.08 8.09 10.08 5.04 0 8.02-3.62 8.02-9.87 0-6.6-2.84-10.22-8.09-10.22-5.11 0-8.02 3.62-8.02 10.01zm44.73-17.11l-.28 6.11c1.99-5.54 4.54-7.1 11.86-7.03v9.51c-1.21-.14-1.7-.14-2.56-.14-3.48 0-6.32 1.56-7.45 4.12-.99 2.27-1.35 5.47-1.35 12.07v9.66h-10.08v-34.3h9.86zm55.59 34.29h-12.35l-8.52-14.63-3.27 3.2v11.43h-10.08v-47.36h10.08v24.85l10.51-11.79h12.5L575 133.35l14.19 21.24zm24.57-23.99c-.43-2.56-2.49-3.91-5.82-3.91-2.91 0-4.83 1.14-4.83 2.84 0 1.28.99 1.92 4.19 2.63l6.32 1.35c4.19.85 6.32 1.78 7.81 3.34 1.63 1.56 2.56 4.12 2.56 6.89 0 7.24-5.89 11.79-15.41 11.79-9.51 0-15.41-4.47-15.97-12.07h9.44c.57 3.27 2.7 4.76 6.74 4.76 3.2 0 5.25-1.28 5.25-3.34 0-1.63-1.14-2.48-3.83-3.12l-6.25-1.42c-7.53-1.63-10.44-4.4-10.44-9.87 0-6.89 5.47-11.08 14.63-11.08 8.8 0 14.13 3.98 15.05 11.22h-9.44zm77.03-14.27h-24.64v9.23h21.51v8.38h-21.51v11.57h25.06v9.09H655.5v-47.36h35.29v9.09zm41.89 38.26h-11.71l-6.46-9.8-6.32 9.8h-11.5l12.28-17.96-11.22-16.33h11.22l5.61 8.66 5.4-8.66h11.22l-11.15 16.33 12.63 17.96zm18.67-31.38c2.84-2.7 5.54-3.83 9.09-3.83 3.48 0 6.6 1.28 8.8 3.69 2.2 2.41 3.05 5.32 3.05 10.44v21.09h-10.08v-19.24c0-3.19-.28-4.47-1.14-5.68-.85-1.14-2.27-1.77-3.98-1.77-1.7 0-3.34.64-4.4 1.7-1.14 1.21-1.35 2.2-1.35 5.75v19.24h-10.08v-47.36h10.08v15.97zm41.33-7.66H782.6v-8.31h10.08v8.31zm0 39.04H782.6V120.3h10.08v34.29zm8.87-47.35h10.08v15.48c3.27-2.41 5.96-3.34 9.44-3.34 8.73 0 14.63 7.1 14.63 17.61 0 10.79-6.32 18.53-15.12 18.53-4.26 0-6.67-1.28-9.37-4.83v3.9h-9.66v-47.35zm9.66 30.17c0 5.96 2.91 9.94 7.31 9.94 4.4 0 7.24-3.83 7.24-9.8 0-6.18-2.77-10.01-7.24-10.01-4.4 0-7.31 3.98-7.31 9.87zm43.16-21.86h-10.08v-8.31h10.08v8.31zm0 39.04h-10.08V120.3h10.08v34.29zm33.37-26.76h-6.18v13.35c0 5.4.21 5.82 2.56 5.82h3.62v7.6h-6.18c-4.4 0-6.6-.64-8.09-2.27-1.56-1.7-1.99-3.55-1.99-8.88v-15.62h-4.83v-7.1h4.83v-10.86h10.08v10.86h6.18v7.1zm21.59-12.28h-10.08v-8.31h10.08v8.31zm0 39.04h-10.08V120.3h10.08v34.29zm45.01-16.89c0 10.37-7.67 17.82-18.25 17.82-10.65 0-18.18-7.45-18.18-18.1 0-10.58 7.53-18.03 18.18-18.03 10.87-.01 18.25 7.37 18.25 18.31zm-26.27-.29c0 6.46 2.91 10.08 8.09 10.08 5.04 0 8.02-3.62 8.02-9.87 0-6.6-2.84-10.22-8.09-10.22-5.11 0-8.02 3.62-8.02 10.01zm44.66-17.11v3.34c3.69-3.41 5.82-4.33 9.37-4.33 7.45 0 12 4.97 12 13.06v22.22h-10.08v-18.67c0-3.48-.21-4.83-1.06-6.11-.85-1.28-2.34-1.99-4.12-1.99-1.7 0-3.27.64-4.33 1.85-1.14 1.28-1.49 2.7-1.49 5.68v19.24h-10.08V120.3h9.79zM26.55 131.11c.15-.27.33-.51.54-.66.15-.12.21-.24.21-.36 0-.18-.06-.27-.36-.42-.48-.21-1.18-.45-1.84-.63-.09.63-.21 1.09-.51 1.72-1.69 3.77-4.98 7.87-9.41 10.53.39.21.75.57 1.06 1.03.21.27.27.39.42.39.09 0 .21-.09.45-.27 4.22-3.06 7-6.41 9.44-11.33m6.31-1.93c-.12-.24-.18-.24-.54-.06l-.84.36c-.33.15-.39.18-.3.42 2.14 4.74 5.7 9.14 10.35 12.37.21.15.33.24.42.24.12 0 .21-.12.39-.42.27-.45.63-.93 1-1.21-4.63-2.71-8.37-6.93-10.48-11.7m.48 14.66c-.18-.18-.21-.18-.51.03l-.78.48c-.36.24-.45.3-.3.48 1.45 1.75 2.68 3.41 3.8 5.16-3.41.45-7.54.9-11.25 1.21 1.63-3.59 3.11-7.45 4.19-10.47.27-.78.48-1.15.72-1.48.15-.18.21-.24.21-.42 0-.15-.15-.3-.39-.39-.57-.21-1.21-.39-1.93-.57-.12.97-.36 1.81-.81 3.2-.78 2.47-2.29 6.43-4.07 10.32-.3 0-.6.03-.9.03-1.33.09-2.38.12-3.35.06.15.75.33 1.45.51 1.99.06.24.18.36.3.36.15 0 .24-.06.39-.15.24-.15.54-.27 1.21-.33 5.31-.48 11.28-1.09 16.11-1.84.54.9 1.06 1.84 1.6 2.87.12.24.18.21.6 0l.94-.54c.39-.21.42-.27.3-.45-2.22-3.81-3.88-6.32-6.59-9.55m40.68-8.17c.21 0 .24-.03.24-.27v-1.45c0-.21-.03-.24-.24-.24-.15 0-1.15.06-4.16.06H63.1v-2.5c0-1.3.06-1.81.18-2.08.09-.21.15-.33.15-.54 0-.12-.15-.24-.39-.27-.66-.09-1.12-.12-2.08-.15.15.72.21 1.54.21 3.05v2.5h-6.15c-2.99 0-3.98-.06-4.16-.06-.21 0-.24.03-.24.24v1.45c0 .24.03.27.24.27.18 0 1.18-.06 4.16-.06h14.84c3.02-.01 4.01.05 4.16.05m-18.06 2.23l-1 .33c-.42.15-.45.18-.36.39 1.3 3.35 2.2 6.42 2.9 10.47.06.27.12.3.57.18l1.06-.3c.36-.09.36-.18.33-.39-.75-4.1-1.81-7.42-3.08-10.59-.06-.18-.12-.18-.42-.09"/><path class="st0" d="M75.53 151.29c-.18 0-1.09.06-3.92.06H65.7c1.57-3.65 2.75-7.12 3.83-10.86.18-.63.33-1.06.57-1.33.12-.15.27-.33.27-.51 0-.15-.06-.24-.3-.33-.69-.27-1.33-.45-2.11-.66-.09 1-.24 1.78-.6 3.14-.84 3.11-1.99 6.73-3.62 10.56H53.21c-2.81 0-3.74-.06-3.89-.06-.21 0-.24.03-.24.24v1.51c0 .21.03.24.24.24.15 0 1.09-.06 3.89-.06h18.4c2.84 0 3.74.06 3.92.06.21 0 .24-.03.24-.24v-1.51c0-.22-.03-.25-.24-.25m21.05-12.94h7.54c2.9 0 3.86.06 4.01.06.21 0 .24-.03.24-.27v-1.39c0-.21-.03-.24-.24-.24-.15 0-1.12.06-4.01.06h-8.11c.18-1.57.27-3.2.3-4.89.03-1.39.09-1.96.24-2.26.09-.21.18-.33.18-.57 0-.15-.12-.27-.42-.33-.6-.09-1.45-.15-2.14-.18.15.9.18 1.72.15 3.41-.03 1.72-.09 3.32-.24 4.83h-7.12c-2.9 0-3.86-.06-4.01-.06-.21 0-.24.03-.24.24v1.39c0 .24.03.27.24.27.15 0 1.12-.06 4.01-.06h6.91c-.33 2.17-.87 4.1-1.75 5.91-1.75 3.62-4.95 6.82-10.04 8.93.39.27.78.6 1.12 1.03.21.3.3.42.45.42.12 0 .24-.06.48-.15 4.64-2.32 7.66-5.19 9.74-9.47.72-1.51 1.27-3.23 1.66-5.1 1.96 6.49 6.33 11.73 11.55 14.48.21.12.36.18.45.18.15 0 .24-.12.42-.45.3-.48.69-.93 1.09-1.27-6.12-2.42-10.53-8.21-12.46-14.52m45.18 6.46c-.15 0-1.09.06-3.92.06h-8.02v-.36c0-.48 0-.81.03-1.03 1.9-1.09 3.44-2.08 4.65-3.05.69-.57.97-.69 1.27-.78.18-.06.3-.18.3-.39 0-.21-.18-.51-.6-.94-.48-.48-.66-.63-.84-.63-.12 0-.21.03-.3.06s-.3.06-.78.06h-8.45c-2.84 0-3.77-.06-3.92-.06-.21 0-.24.03-.24.24v1.24c0 .21.03.24.24.24.15 0 1.09-.06 3.92-.06h8.11a26.347 26.347 0 01-3.92 2.78c-.45-.12-.97-.21-1.54-.3.15.75.21 1.66.21 2.99h-8.24c-2.84 0-3.77-.06-3.92-.06-.21 0-.24.03-.24.24v1.33c0 .21.03.24.24.24.15 0 1.09-.06 3.92-.06h8.24v5.22c0 .97-.45 1.18-1.33 1.18-1.24 0-2.08-.06-3.14-.18.27.36.48.94.63 1.39.15.6.15.57.72.57 2.81.06 3.56-.09 4.19-.48.6-.42.81-.9.81-1.96 0-.72-.03-1.96-.03-2.59v-3.14h8.02c2.84 0 3.77.06 3.92.06.21 0 .24-.03.24-.24v-1.33c.01-.23-.02-.26-.23-.26"/><path class="st0" d="M120.95 133.38c-2.93 0-3.98-.06-4.16-.06-.21 0-.24.03-.24.21s.06.63.06 1.66v1.06c0 2.65-.06 3.05-.06 3.23 0 .21.03.24.24.24h1.39c.21 0 .24-.03.24-.24v-4.49h20.78v4.49c0 .21.03.24.24.24h1.36c.24 0 .27-.03.27-.24 0-.15-.06-.54-.06-3.23v-1.24c0-.84.06-1.33.06-1.48 0-.18-.03-.21-.27-.21-.15 0-1.21.06-4.16.06h-1.27c.75-1.12 1.27-2.02 1.81-3.05.15-.27.39-.57.57-.69.15-.09.21-.21.21-.33 0-.15-.09-.27-.33-.39-.48-.24-1.12-.48-1.78-.63a5.62 5.62 0 01-.39 1.39c-.54 1.3-1.12 2.44-1.96 3.71h-12.55z"/><path class="st0" d="M122.04 132.89c.09 0 .18-.06.39-.15l.81-.39c.36-.18.39-.18.27-.39-.66-1.18-1.39-2.29-2.26-3.38-.15-.18-.24-.18-.57-.03l-.75.33c-.36.15-.39.24-.27.39.78.97 1.66 2.26 2.2 3.41.05.15.08.21.18.21m6.99-.51l.81-.3c.39-.18.42-.18.33-.39-.48-1.21-1.12-2.44-1.87-3.56-.12-.18-.21-.18-.51-.06l-.81.27c-.33.12-.42.18-.27.39.69 1.09 1.27 2.08 1.75 3.56.09.27.15.27.57.09m26.51-.36c-1.18-1.24-2.59-2.35-4.01-3.26-.18-.12-.27-.09-.48.15l-.66.69c-.27.27-.27.33-.09.45 1.24.78 2.81 2.14 4.01 3.47.18.18.24.15.48-.12l.66-.81c.24-.27.24-.39.09-.57m19.52 9.38c-.18 0-1.24.06-4.28.06h-5.19v-5.49h3.8c2.96 0 3.95.06 4.1.06.21 0 .24-.03.24-.24v-1.27c0-.21-.03-.24-.24-.24-.15 0-1.15.06-4.1.06h-3.8v-2.23c0-1.81.09-2.62.18-2.9.09-.24.15-.36.15-.54 0-.12-.15-.24-.36-.27-.66-.09-1.18-.12-1.96-.15.15 1.06.18 1.9.18 3.92v2.17h-2.59c-2.96 0-3.92-.06-4.07-.06-.21 0-.24.03-.24.24v1.27c0 .21.03.24.24.24.15 0 1.12-.06 4.07-.06h2.59v5.49h-4.01c-3.05 0-4.1-.06-4.28-.06-.21 0-.24.03-.24.24v1.27c0 .24.03.27.24.27.18 0 1.24-.06 4.28-.06h2.62c-.84 3.17-1.9 5.88-3.05 8.48l-1.09.09c-.87.06-1.84.09-3.08.09.12.63.3 1.3.48 1.9.06.21.21.39.39.39.18 0 .3-.12.48-.21.15-.09.39-.18 1.24-.27 5.07-.57 9.14-1.09 13.9-1.87.57.87 1.12 1.81 1.63 2.78.09.21.15.21.54-.06l.84-.54c.3-.21.3-.27.21-.45-1.72-2.9-3.44-5.31-5.58-7.63-.12-.12-.21-.12-.42.03l-.75.45c-.33.21-.36.3-.18.48.97 1.12 1.9 2.26 2.74 3.47-3.11.48-6.03.87-9.38 1.18 1.06-2.35 2.11-5.13 3.08-8.3h6.37c3.05 0 4.1.06 4.28.06.18 0 .21-.03.21-.27v-1.27c.02-.22-.01-.25-.19-.25m-21.84-.75l.72-.84c.18-.21.18-.27.03-.42-1.33-1.27-2.81-2.29-4.25-3.17-.18-.09-.3-.09-.48.15l-.63.75c-.21.24-.24.3-.03.42 1.36.84 2.9 2.02 4.13 3.32.18.18.21.15.51-.21m.84 4.61c-.42-.3-.72-.51-1.03-.9-.84 2.99-1.81 5.4-2.75 7.24-.45.9-.78 1.51-1.36 2.23.54.42.94.69 1.45 1 .21.12.33.15.45.15s.21-.15.24-.36c.03-.27.24-.72.51-1.36.91-2.11 1.93-4.61 2.75-7.09.2-.61.2-.64-.26-.91m41.84-12c.03-.51.03-1.03.03-1.57 0-.75.12-1.36.27-1.69.09-.21.18-.36.18-.6 0-.18-.18-.3-.42-.36-.66-.12-1.54-.21-2.26-.24.15 1.06.18 1.93.21 3.59.12 8.66-4.04 16.56-12.13 20.45.39.27.78.63 1.12 1.09.21.3.3.45.42.45s.24-.09.45-.21c6.12-3.47 10.23-9.02 11.49-16.59 1.12 6.06 4.37 12.25 11.22 16.62.21.15.33.21.45.21s.21-.12.39-.42c.27-.48.63-.9 1.06-1.24-7.9-4.47-11.28-11.38-12.48-19.49m54.16 12.88c0-.24-.03-.27-.24-.27-.18 0-1.24.06-4.28.06h-6.37c.45-1 .84-2.05 1.24-3.32h2.84c2.84 0 3.83.06 3.98.06.21 0 .24-.03.24-.24 0-.15-.06-.66-.06-2.23v-2.23c0-1.54.06-2.05.06-2.2 0-.21-.03-.24-.24-.24-.15 0-1.15.06-3.98.06h-6.73c-2.84 0-3.8-.06-3.98-.06-.21 0-.24.03-.24.24 0 .15.06.66.06 2.2v2.23c0 1.57-.06 2.08-.06 2.23 0 .21.03.24.24.24.18 0 1.15-.06 3.98-.06h1.99c-.3 1.03-.75 2.2-1.27 3.32h-2.93c-3.08 0-4.16-.06-4.31-.06-.21 0-.24.03-.24.27 0 .15.06.78.06 2.59v1.78c0 3.68-.06 4.25-.06 4.43s.03.21.24.21h1.42c.18 0 .21-.03.21-.21v-1.27h16.56v1.15c0 .18.03.21.24.21h1.39c.21 0 .24-.03.24-.21s-.06-.75-.06-4.4v-2.02c0-1.48.06-2.11.06-2.26m-15.95-9.08h11.55v4.1h-11.55v-4.1zm14.08 15.05h-16.56v-4.65h16.56v4.65z"/><path class="st0" d="M252.08 131.51c0-.21-.03-.24-.24-.24-.18 0-1.21.06-4.16.06h-7.12v-.42c0-1.36.03-1.81.15-2.11.06-.21.15-.33.15-.54 0-.12-.12-.24-.36-.27-.57-.06-1.24-.09-1.96-.12.18.72.21 1.51.21 3.08v.39h-6.61c-2.96 0-3.98-.06-4.16-.06-.21 0-.24.03-.24.24 0 .15.06.6.06 1.63v1.03c0 2.68-.06 3.05-.06 3.2 0 .21.03.24.24.24h1.39c.21 0 .24-.03.24-.24v-4.43h20.6v4.43c0 .21.03.24.24.24h1.39c.21 0 .24-.03.24-.24 0-.15-.06-.54-.06-3.2v-1.21c0-.86.06-1.31.06-1.46m31.76.93c.09 0 .18-.06.36-.18l.57-.39c.36-.24.39-.3.27-.48-.69-.99-1.42-1.87-2.26-2.62-.18-.18-.18-.21-.51 0l-.6.36c-.36.21-.39.27-.21.42.78.75 1.54 1.69 2.17 2.68.09.12.12.21.21.21m-16.35 13.85c0-.42.03-.81.12-1.15-.9.51-1.84.97-2.78 1.36v-8.75h.21c1.9 0 2.44.06 2.62.06.21 0 .24-.03.24-.24v-1.27c0-.21-.03-.24-.24-.24-.18 0-.72.06-2.62.06h-.21v-3.62c0-2.02.09-2.78.18-3.14.09-.21.15-.36.15-.51 0-.15-.15-.24-.36-.27-.57-.09-1.18-.15-1.96-.18.21 1.18.24 2.02.24 4.16v3.56h-.48c-1.93 0-2.47-.06-2.62-.06-.21 0-.24.03-.24.24v1.27c0 .21.03.24.24.24.15 0 .69-.06 2.62-.06h.48v9.44l-1.21.39c-.94.3-1.57.42-2.41.54.15.6.33 1.18.51 1.66.09.21.21.33.33.33.15 0 .27-.12.39-.21s.39-.24 1.03-.48c1.78-.63 3.65-1.42 5.22-2.26.55-.3.55-.24.55-.87"/><path class="st0" d="M286.65 148.85c-.36-.18-.78-.42-1.06-.75-.18 2.59-.42 4.19-1 4.19-.72 0-2.11-1.51-3.2-4.95 1.06-1.78 1.96-3.86 2.75-6.46.3-1.03.42-1.42.63-1.69.15-.21.24-.33.24-.48 0-.18-.12-.33-.36-.42-.48-.21-.97-.36-1.63-.54-.09 1-.27 1.93-.54 2.93-.48 1.69-1.03 3.2-1.72 4.52-.78-3.02-1.21-6.33-1.39-10.29h2.5c2.96 0 3.95.06 4.13.06.21 0 .24-.03.24-.24v-1.27c0-.21-.03-.21-.24-.21-.18 0-1.18.03-4.13.03h-2.56v-2.05c0-1.45.09-1.96.18-2.17.09-.21.15-.39.15-.57 0-.12-.09-.24-.39-.3-.63-.12-1.21-.18-1.87-.21.15 1.12.18 2.5.18 3.71 0 .54 0 1.09.03 1.6h-4.28c-2.96 0-4.01-.03-4.16-.03-.21 0-.24 0-.24.21 0 .18.06 1.09.06 3.41 0 3.17-.03 5.94-.45 8.63-.54 3.35-2.08 6.18-4.01 8.21.39.15.81.39 1.18.69.21.18.3.3.42.3.09 0 .18-.12.33-.36 1.69-2.17 3.23-5.19 3.74-8.2.3-1.84.45-3.59.51-5.46h3.77c0 2.56-.27 5.1-.48 5.97-.24.78-.54.99-1.18.99-.6 0-1.21-.09-2.11-.24.18.42.27.81.33 1.27.06.57.09.57.48.63.54.06 1.09.06 1.75.06.97 0 1.9-.51 2.14-1.51.39-1.3.66-3.5.75-6.73.03-.54.03-1.12.09-1.84 0-.21-.06-.27-.27-.27-.18 0-.54.06-1.99.06h-3.26v-4.16h6.94c.21 4.4.78 8.69 1.93 12.28-1.9 2.78-4.49 4.71-7.81 6.24.36.18.72.48 1 .81.21.24.3.36.45.36.09 0 .24-.09.48-.21 2.71-1.45 4.83-3.11 6.52-5.34 1.42 3.74 3.11 5.34 4.4 5.34 1.33 0 2.08-1.03 2.44-4.71.07-.57.07-.6-.41-.84m20.59-10.5h7.54c2.9 0 3.86.06 4.01.06.21 0 .24-.03.24-.27v-1.39c0-.21-.03-.24-.24-.24-.15 0-1.12.06-4.01.06h-8.11c.18-1.57.27-3.2.3-4.89.03-1.39.09-1.96.24-2.26.09-.21.18-.33.18-.57 0-.15-.12-.27-.42-.33-.6-.09-1.45-.15-2.14-.18.15.9.18 1.72.15 3.41-.03 1.72-.09 3.32-.24 4.83h-7.12c-2.9 0-3.86-.06-4.01-.06-.21 0-.24.03-.24.24v1.39c0 .24.03.27.24.27.15 0 1.12-.06 4.01-.06h6.91c-.33 2.17-.87 4.1-1.75 5.91-1.75 3.62-4.95 6.82-10.05 8.93.39.27.78.6 1.12 1.03.21.3.3.42.45.42.12 0 .24-.06.48-.15 4.65-2.32 7.66-5.19 9.74-9.47.72-1.51 1.27-3.23 1.66-5.1 1.96 6.49 6.33 11.73 11.55 14.48.21.12.36.18.45.18.15 0 .24-.12.42-.45.3-.48.69-.93 1.09-1.27-6.11-2.42-10.52-8.21-12.45-14.52m25.46-5.46c.09 0 .18-.06.39-.15l.81-.39c.36-.18.39-.18.27-.39-.66-1.18-1.39-2.29-2.26-3.38-.15-.18-.24-.18-.57-.03l-.75.33c-.36.15-.39.24-.27.39.78.97 1.66 2.26 2.2 3.41.05.15.09.21.18.21"/><path class="st0" d="M327.21 139.47c0 .21.03.24.24.24h1.39c.21 0 .24-.03.24-.24v-4.49h20.78v4.49c0 .21.03.24.24.24h1.36c.24 0 .27-.03.27-.24 0-.15-.06-.54-.06-3.23V135c0-.84.06-1.33.06-1.48 0-.18-.03-.21-.27-.21-.15 0-1.21.06-4.16.06h-1.27c.75-1.12 1.27-2.02 1.81-3.05.15-.27.39-.57.57-.69.15-.09.21-.21.21-.33 0-.15-.09-.27-.33-.39-.48-.24-1.12-.48-1.78-.63a5.62 5.62 0 01-.39 1.39c-.54 1.3-1.12 2.44-1.96 3.71h-12.55c-2.93 0-3.98-.06-4.16-.06-.21 0-.24.03-.24.21s.06.63.06 1.66v1.06c0 2.65-.06 3.04-.06 3.22"/><path class="st0" d="M339.69 132.38l.81-.3c.39-.18.42-.18.33-.39-.48-1.21-1.12-2.44-1.87-3.56-.12-.18-.21-.18-.51-.06l-.81.27c-.33.12-.42.18-.27.39.69 1.09 1.27 2.08 1.75 3.56.09.27.15.27.57.09m12.73 12.43c-.15 0-1.09.06-3.92.06h-8.02v-.36c0-.48 0-.81.03-1.03 1.9-1.09 3.44-2.08 4.65-3.05.69-.57.97-.69 1.27-.78.18-.06.3-.18.3-.39 0-.21-.18-.51-.6-.94-.48-.48-.66-.63-.84-.63-.12 0-.21.03-.3.06s-.3.06-.78.06h-8.45c-2.84 0-3.77-.06-3.92-.06-.21 0-.24.03-.24.24v1.24c0 .21.03.24.24.24.15 0 1.09-.06 3.92-.06h8.11a26.347 26.347 0 01-3.92 2.78c-.45-.12-.97-.21-1.54-.3.15.75.21 1.66.21 2.99h-8.24c-2.84 0-3.77-.06-3.92-.06-.21 0-.24.03-.24.24v1.33c0 .21.03.24.24.24.15 0 1.09-.06 3.92-.06h8.24v5.22c0 .97-.45 1.18-1.33 1.18-1.24 0-2.08-.06-3.14-.18.27.36.48.94.63 1.39.15.6.15.57.72.57 2.81.06 3.56-.09 4.19-.48.6-.42.81-.9.81-1.96 0-.72-.03-1.96-.03-2.59v-3.14h8.02c2.84 0 3.77.06 3.92.06.21 0 .24-.03.24-.24v-1.33c.01-.23-.02-.26-.23-.26M51.67 115.63c-12.32 0-14.85-4.45-14.85-17.22V24.77h.3l30.44 95.91h5.2l31.62-96.5h.3v81.66c0 7.13-2.52 9.8-13.36 9.8v5.05h43.06v-5.05c-12.02 0-14.55-2.67-14.55-9.8V33.38c0-7.13 2.52-9.8 13.21-9.8v-5.05h-32.81l-24.8 76.02h-.3l-24.2-76.02H16.04v5.05c12.03 0 14.55 2.67 14.55 9.8v65.03c0 12.77-2.52 17.22-14.55 17.22v5.05h35.63v-5.05zm171.01-77.94c5.49-10.39 7.42-14.1 18.11-14.1v-5.05h-34v5.05c9.35 0 12.62 1.78 12.62 4.9 0 7.57-17.67 35.19-20.49 41.42-2.52-6.68-19.89-36.23-19.89-41.27 0-3.56 3.56-5.05 12.47-5.05v-5.05h-42.16v5.05c7.72 0 10.54 1.19 14.55 9.06l22.72 44.69v28.51c0 7.13-2.52 9.8-15.44 9.8v5.05h46.62v-5.05c-13.51 0-16.03-2.67-16.03-9.8V77.33l20.92-39.64zm100.64-19.15v5.05c14.4 0 15.89 6.24 15.89 14.25v50.18c0 16.63-8.17 29.4-29.84 29.4-16.33 0-24.2-8.61-24.2-24.5V33.38c0-7.13 2.52-9.8 14.25-9.8v-5.05h-43.65v5.05c11.73 0 14.25 2.67 14.25 9.8v59.09c0 20.78 14.7 29.99 37.56 29.99 21.38 0 36.97-11.88 36.97-33.26V37.84c0-8.02 1.48-14.25 14.55-14.25v-5.05h-35.78zM46.41 348.22H35.35v-4.52h11.06v-11.77h4.79v11.77h11.06v4.52H51.2v11.77h-4.79v-11.77zm80.24-7.4c3.7 11.33 10.57 20.54 20.86 24.84-1.25 1.09-2.94 3.21-3.76 4.74-10.19-4.74-16.78-13.56-21.03-25.11-2.78 9.86-8.66 19.28-21.03 25.11-.82-1.36-2.45-3.16-3.87-4.25 12.96-5.67 18.25-15.47 20.43-25.33H98.92v-5.23h20.26c.65-5.45.6-10.68.65-15.04h5.5c-.05 4.41-.11 9.64-.76 15.04h21.95v5.23h-19.87zm76.97 14.87h-21.46v9.1c0 2.78-.71 4.2-2.94 4.96-2.23.71-5.45.76-10.19.76-.38-1.42-1.36-3.49-2.12-4.9 3.81.16 7.63.16 8.72.11s1.36-.27 1.36-1.09v-8.93h-21.24V351h21.24v-3.76h2.56c2.12-1.14 4.3-2.62 6.16-4.09H165v-4.41h25.55l1.09-.27 3.27 2.45c-3.27 3.49-8.06 6.97-12.75 9.37v.71h21.46v4.69zM161.4 341.8h-4.74v-12.47h7.84c-.98-1.96-2.67-4.41-4.25-6.26l4.36-1.96c1.96 2.18 4.14 5.23 5.07 7.3l-1.96.93h10.08c-.76-2.18-2.34-5.17-3.81-7.46l4.41-1.63c1.85 2.45 3.7 5.88 4.41 8.06l-2.67 1.04h9.21c1.91-2.51 4.03-5.94 5.28-8.5l5.34 1.69a96.342 96.342 0 01-5.07 6.81h7.9v12.47h-5.01v-8.01H161.4v7.99zm67.28-17.27c-1.52 4.58-3.43 10.24-5.17 14.49 3.7 4.3 4.52 8.06 4.52 11.33 0 3.11-.65 5.39-2.23 6.48-.82.54-1.85.93-2.94 1.09-1.04.11-2.34.11-3.6.05-.05-1.25-.44-3.16-1.2-4.36 1.14.11 2.07.11 2.78.05.65 0 1.2-.16 1.69-.49.76-.54.98-1.85.98-3.43 0-2.72-.87-6.26-4.41-10.19 1.36-3.65 2.78-8.5 3.81-12.2h-5.83v43.14h-4.47v-47.72h11.98l.76-.16 3.33 1.92zm26.15 40.8c.98 0 1.2-.87 1.31-6.54.98.82 3 1.58 4.3 1.91-.44 7.25-1.69 9.15-5.07 9.15h-4.25c-4.14 0-5.12-1.47-5.12-6.1v-13.29h-5.23c-.76 10.08-3 16.51-13.24 20.05-.44-1.2-1.74-3.1-2.78-3.92 8.77-2.83 10.62-7.9 11.17-16.12h-6.65v-4.63h30.4v4.63h-8.88v13.24c0 1.47.16 1.63 1.14 1.63h2.9zm-13.62-38.73v-5.94h4.9v5.94h13.56v10.19h-4.3v3.87h-22.55v-3.87h-4.14V326.6h12.53zm13.78 4.36H233.2v5.28h21.79v-5.28zm60.96 24.29h-5.67v9.53h-5.12v-2.34h-11.6v2.83c0 2.78-.71 3.92-2.56 4.63-1.85.65-4.68.71-9.26.71-.27-1.14-1.04-3-1.74-4.09 3 .11 6.26.11 7.14.05.98-.05 1.31-.33 1.31-1.25v-2.89h-17v-3.81h17v-3.38h-21.79v-3.98h21.79v-3.11h-16.51v-3.59h16.51v-3.21h-15.09v-10.02h15.09v-2.78H267.8v-4.09h20.65v-3.98h5.12v3.98h21.24v4.09h-21.24v2.78h15.85v10.02h-15.85v3.21h16.72v6.7h5.67v3.99zm-27.51-17.27v-3.27H278.2v3.27h10.24zm5.12-3.27v3.27h10.73v-3.27h-10.73zm0 16.56h11.6v-3.11h-11.6v3.11zm11.6 3.98h-11.6v3.38h11.6v-3.38zm48.7 2.62c4.79 3.38 11.82 6.16 18.47 7.41-1.14 1.09-2.61 3.16-3.38 4.52-7.08-1.91-14.38-5.56-19.5-10.24v10.95h-4.96v-10.57c-5.18 4.36-12.53 7.9-19.34 9.81-.76-1.31-2.18-3.21-3.32-4.3 6.48-1.36 13.56-4.19 18.36-7.57h-16.83v-4.25h21.14v-3.32h-16.07v-3.81h16.07v-3.27h-18.74v-4.03h11.17c-.49-1.53-1.42-3.49-2.29-4.96l1.31-.22h-12.37v-4.25h8.06c-.82-2.12-2.45-5.12-3.98-7.35l4.41-1.47c1.69 2.34 3.6 5.67 4.36 7.79l-2.78 1.04h5.99v-9.31h4.74v9.31h5.39v-9.31h4.79v9.31h5.88l-2.07-.65c1.31-2.18 3-5.61 3.81-8.06l5.23 1.31c-1.47 2.67-3.1 5.39-4.52 7.41h7.84v4.25h-10.51a164.39 164.39 0 01-3.05 5.17h11.55v4.03h-19.28v3.27h16.72v3.81h-16.72v3.32h21.46v4.25h-17.04zm-14-23.86c.98 1.58 1.96 3.54 2.34 4.85l-1.58.33h11.49c.82-1.47 1.69-3.43 2.4-5.17h-14.65zm54.21 19.23c-.71-1.74-2.29-4.74-3.7-7.3v24.51h-4.69v-23.04c-1.63 5.17-3.65 9.97-5.83 13.07-.49-1.36-1.69-3.27-2.4-4.36 3.21-4.47 6.32-12.53 7.79-19.45h-6.65v-4.68h7.08V320.5h4.69v11.49h5.83v4.68h-5.83v3.21c1.52 2.02 5.56 8.17 6.43 9.64l-2.72 3.72zm34.32 8.55h-3.21v3.6c0 2.29-.49 3.43-2.07 4.19-1.58.6-4.03.65-7.52.65-.22-1.2-.82-2.94-1.36-4.09 2.29.11 4.63.11 5.34.05.65 0 .87-.22.87-.87v-3.54h-17.05v8.44h-4.63v-8.44h-3.49v-3.81h3.49v-13.62h10.68v-2.67H396.2v-3.76h7.14v-3.05h-4.79v-3.54h4.79v-3h-5.94v-3.65h5.94v-4.19h4.74v4.19h7.46v-4.19h4.74v4.19h6.48v3.65h-6.48v3h5.67v3.54h-5.67v3.05h7.57v3.76H414v2.67h11.17v13.62h3.21v3.82zm-25.01-13.78v3.1h6.05v-3.1h-6.05zm0 9.97h6.05v-3.38h-6.05v3.38zm4.69-26.64h7.46v-3h-7.46v3zm0 6.59h7.46v-3.05h-7.46v3.05zm5.93 10.08v3.1h6.43v-3.1H414zm6.43 9.97v-3.38H414v3.38h6.43zm24.73-5.51v-12.75c-2.12 3.92-4.74 7.46-7.41 9.75-.76-1.14-2.29-2.72-3.32-3.6 3.81-2.72 7.63-7.95 9.91-13.13h-8.61v-4.3h9.42v-7.79h4.79v7.79h8.17v4.3h-8.17v2.62c2.07 1.25 7.46 5.17 8.88 6.21l-2.72 4.14c-1.31-1.36-3.92-3.76-6.16-5.67v12.37l-4.78.06zm-10.13 12.86c2.12-2.89 3.92-7.41 4.96-11.17l4.47 1.8c-1.09 3.76-2.83 8.61-4.85 11.66l-4.58-2.29zm31.05-.49c2.56 0 2.94-.76 3.27-6.21 1.09.82 3.16 1.53 4.58 1.85-.71 7.19-2.12 8.88-7.46 8.88h-10.62c-6.54 0-8.23-1.36-8.23-6.16v-8.12h5.01v8.06c0 1.47.54 1.69 3.65 1.69h9.8zm-7.57-13.89c2.45 2.29 5.77 5.5 7.46 7.46l-3.7 3.11c-1.53-2.02-4.79-5.39-7.25-7.84l3.49-2.73zm23.37.87h-21.52v-28.49h21.52v28.49zm-4.85-24.4h-12.04v4.14h12.04v-4.14zm0 8h-12.04v4.25h12.04v-4.25zm0 8.06h-12.04v4.3h12.04v-4.3zm1.04 9.86c2.23 3.38 5.23 8.01 6.65 10.79l-4.69 2.4c-1.31-2.83-4.19-7.63-6.37-11.11l4.41-2.08zm60.57 2.35h-21.46v9.1c0 2.78-.71 4.2-2.94 4.96-2.23.71-5.45.76-10.19.76-.38-1.42-1.36-3.49-2.12-4.9 3.81.16 7.63.16 8.72.11 1.09-.05 1.36-.27 1.36-1.09v-8.93h-21.25V351h21.25v-3.76h2.56c2.12-1.14 4.3-2.62 6.16-4.09h-20.7v-4.41h25.55l1.09-.27 3.27 2.45c-3.27 3.49-8.06 6.97-12.75 9.37v.71h21.46v4.69zm-42.21-13.89h-4.74v-12.47h7.84c-.98-1.96-2.67-4.41-4.25-6.26l4.36-1.96c1.96 2.18 4.14 5.23 5.07 7.3l-1.96.93h10.08c-.76-2.18-2.34-5.17-3.81-7.46l4.41-1.63c1.85 2.45 3.7 5.88 4.41 8.06l-2.67 1.04h9.21c1.91-2.51 4.03-5.94 5.28-8.5l5.34 1.69a96.342 96.342 0 01-5.07 6.81h7.9v12.47h-5.01v-8.01h-36.39v7.99zM546 323.27h19.28v4.58h-8.17c-.82 4.14-1.85 8.17-3.16 11.98h10.51v23.97h-10.68v4.2h-4.25v-18.41c-.82 1.36-1.63 2.62-2.56 3.76-.22-1.31-1.25-4.36-2.02-5.72 3.6-4.85 5.94-12.04 7.35-19.77H546v-4.59zm14.11 21.09h-6.32v14.98h6.32v-14.98zm35.3 3.1h-5.88v23.04h-4.85v-23.04h-7.74c-.27 8.17-1.69 17.21-7.57 23.31-.87-.82-2.72-2.29-3.87-2.94 5.17-5.39 6.43-13.4 6.7-20.37h-5.61v-4.79h5.67v-14.6h-4.19v-4.74h26.26v4.74h-4.79v14.6h5.88v4.79zm-10.74-4.79v-14.6h-7.68v14.6h7.68zm61.34 22.5c1.36 0 1.58-.93 1.8-7.9 1.09.93 3.38 1.8 4.79 2.18-.49 8.5-1.85 10.68-5.99 10.68h-5.28c-4.69 0-6.05-1.47-6.05-6.7v-9.81h-9.15c-1.14 6.37-5.56 13.07-20.16 17.05-.76-1.2-2.23-3.05-3.43-4.14 12.58-3.32 16.89-8.28 18.25-12.91h-14.38v-4.74h14.98v-6.26h5.07v6.26h14.11v14.49c0 1.58.27 1.8 1.58 1.8h3.86zm-22.55-35.3c-1.14 8.66-4.41 13.73-17.32 16.4-.44-1.2-1.63-3.16-2.67-4.09 11.22-1.96 13.78-5.72 14.71-12.31h-8.66v5.72h-5.07v-10.24h20.37v-4.9H630v4.9h20.75v9.75h-5.34v-5.23h-9.59v8.55c0 1.42.27 1.58 2.07 1.58h5.72c1.42 0 1.69-.49 1.85-3.92 1.04.76 3.1 1.53 4.47 1.74-.54 5.28-1.91 6.65-5.72 6.65h-6.97c-5.23 0-6.43-1.36-6.43-5.99v-8.61h-7.35zm54.91 23.96c-.76-1.63-2.61-4.68-4.25-7.19v23.81h-4.9v-22.06c-2.02 4.96-4.47 9.59-6.97 12.69-.49-1.36-1.69-3.43-2.45-4.68 3.21-3.7 6.7-10.19 8.72-15.96h-8.01v-4.74h8.72v-7.3c-2.34.44-4.68.76-6.86 1.09-.16-1.09-.87-2.89-1.42-3.92 6.1-.98 13.07-2.56 17.32-4.41l2.89 4.14c-2.07.82-4.47 1.47-7.03 2.07v8.33h7.63v4.74h-7.63v.76c1.63 1.69 6.26 7.25 7.3 8.66l-3.06 3.97zm25.55 2.67v13.95h-5.01v-13.07l-17.16 2.89-.76-4.85 17.92-3V320.5h5.01v31.1l5.94-.98.76 4.74-6.7 1.14zm-11.87-7.35c-1.8-2.34-5.77-5.83-9.1-8.12l3.21-2.94c3.27 2.18 7.41 5.45 9.31 7.74l-3.42 3.32zm1.36-14.33c-1.63-2.29-5.34-5.61-8.44-7.9l3.32-2.89c3.1 2.12 6.86 5.28 8.66 7.57l-3.54 3.22zm53.33-12.74c-1.2 3.54-2.61 7.14-4.19 10.62v37.75h-4.79v-28.87c-1.42 2.23-2.83 4.25-4.36 6.05-.44-1.25-1.8-4.08-2.56-5.34 4.52-5.28 8.72-13.35 11.22-21.52l4.68 1.31zm30.39 8.22c-1.74 3.38-4.03 6.26-6.75 8.72 3.54 1.91 7.79 3.38 12.75 4.25-.87 1.04-2.18 2.89-2.78 4.14-5.34-1.2-9.86-3.21-13.62-5.61-3.81 2.61-8.28 4.58-13.13 6.05-.49-.93-1.74-2.56-2.67-3.59v17.27h-4.41V327.1h4.41v7.25c3.92-3.49 7.35-8.55 9.31-13.89l4.63 1.14c-.6 1.58-1.31 3.1-2.12 4.63h18.63v4.09h-4.25zm-26.2 13.51c4.47-1.09 8.55-2.67 12.04-4.79a30.326 30.326 0 01-5.01-5.34 39.085 39.085 0 01-4.03 4.3c-.65-.6-1.96-1.63-3-2.4v8.23zm30.67 14.22c-5.45 6.43-15.36 10.19-26.64 12.2-.54-1.2-1.63-2.94-2.61-3.98 10.51-1.53 20.16-4.69 24.89-10.02l4.36 1.8zm-10.29-11.33c-3.38 3.38-8.82 6.1-13.89 7.74-.65-.87-1.8-2.18-2.78-2.94 4.69-1.31 10.02-3.65 12.86-6.37l3.81 1.57zm5.12 5.01c-4.19 4.63-11.38 7.9-18.68 9.86-.6-.98-1.63-2.4-2.51-3.27 6.75-1.52 13.84-4.36 17.43-8.12l3.76 1.53zm-16.02-21.41l-.05.05c1.47 2.18 3.49 4.3 6.1 6.21 2.18-1.8 3.98-3.87 5.39-6.26h-11.44zm55.02 11.93v20.48h18.9v5.07h-42.76v-5.07h18.47v-20.48h-21.46v-5.01h21.46v-16.61h5.39v16.61h21.79v5.01h-21.79zm48.32-4.63h12.53v4.63h-12.53v4.85h10.89v14.33c0 2.07-.33 3.38-1.74 4.14-1.42.76-3.49.82-6.32.76-.11-1.25-.71-3.1-1.36-4.3 1.96.05 3.6.05 4.14 0 .54 0 .71-.16.71-.71v-9.7h-6.32v18.9h-4.79v-18.9h-5.94v14.54h-4.52v-19.07h10.46v-4.85h-12.8v-4.63h3.76c-1.04-.6-3.05-1.31-4.25-1.74 2.4-3.6 4.19-8.99 5.23-14.16l4.74.98c-.44 1.8-.93 3.65-1.42 5.39h4.74v-7.25h4.79v7.25h10.4v4.58h-10.4v4.96zm-4.79 0v-4.96h-6.37c-.71 1.85-1.53 3.59-2.4 4.96h8.77zm25.33 17.81h-4.68v-30.12h4.68v30.12zm9.8-34.15v42.76c0 3.05-.65 4.47-2.45 5.34-1.74.87-4.79.98-8.88.98-.22-1.36-.93-3.7-1.63-5.17 3.05.11 5.99.11 6.92.05.87 0 1.14-.27 1.14-1.14v-42.82h4.9zm20.76.98a86.767 86.767 0 01-5.39 11.39v36.77h-5.12v-28.76a49.28 49.28 0 01-4.47 5.34c-.49-1.25-1.96-4.09-2.83-5.23 5.18-5.12 10.02-13.07 12.96-21.03l4.85 1.52zm16.45 12.04v6.92h14.82v4.63H931.3v7.24h15.58v4.74H931.3v12.64h-5.17v-36.17h-3.05c-2.29 4.25-4.79 8.06-7.41 10.95-.82-.87-2.78-2.67-3.92-3.43 4.79-5.01 9.15-12.86 11.77-20.7l4.85 1.31c-.87 2.34-1.8 4.74-2.83 7.03h21.9v4.85H931.3zm64.44 22.71c-2.4 1.85-5.39 3.59-8.01 5.01 3.05 2.02 6.75 3.54 11.06 4.41-1.09.93-2.34 2.89-3 4.14-9.64-2.4-16.07-7.84-19.83-16.07h-5.77v9.15c3.38-.49 6.97-1.09 10.57-1.63l.16 4.41c-7.25 1.2-14.93 2.45-20.59 3.32l-.76-4.63c1.74-.22 3.76-.49 5.94-.82v-9.8h-6.32v-4.25h9.15v-4.74h-7.57v-4.3h7.57v-4.36h-9.1v2.02c0 9.31-.76 22.88-6.43 31.7-.98-.82-3.21-2.12-4.47-2.61 5.39-8.39 5.83-20.43 5.83-29.09v-15.91h40.96v13.89h-7.74v4.36h8.55v4.3h-8.55v4.74h10.79v4.25h-6.1l3.66 2.51zm-36.49-24.51h30.83v-5.17h-30.83v5.17zm13.72 8.72h9.7v-4.36h-9.7v4.36zm0 9.04h9.7v-4.74h-9.7v4.74zm7.79 4.25c1.04 1.85 2.29 3.49 3.81 4.96 2.51-1.47 5.34-3.38 7.24-4.96h-11.05zM653.37 279.5h-21.84v12.53h-5.23V279.5H605v-4.85h21.3v-3.6h3.49c-.98-.98-2.45-2.18-3.38-2.78 5.61-3.1 9.86-8.17 11.82-14.44l5.12.98c-.65 2.02-1.47 3.92-2.45 5.67 3.92 2.61 8.72 6.1 11.17 8.44l-3.54 3.76c-2.18-2.18-6.43-5.5-10.24-8.23-1.96 2.61-4.3 4.79-6.81 6.59h.05v3.6h21.84v4.86zm-29.04-10.68c-1.36-1.36-3.81-3.38-6.1-5.07-2.45 3.76-5.45 6.97-8.72 9.31-.82-.87-2.94-2.61-4.09-3.38 5.56-3.43 9.81-9.21 11.88-15.96l5.12 1.14c-.6 1.74-1.25 3.43-2.07 5.07 2.51 1.69 5.45 3.81 7.03 5.28l-3.05 3.61zm27.46-15.25h-45.38v-4.85h19.88v-6.65h5.23v6.65h20.26v4.85zm41.07 25.87c4.79 3.38 11.82 6.16 18.47 7.41-1.14 1.09-2.61 3.16-3.38 4.52-7.08-1.91-14.38-5.56-19.5-10.24v10.95h-4.96v-10.57c-5.18 4.36-12.53 7.9-19.34 9.81-.76-1.31-2.18-3.21-3.32-4.3 6.48-1.36 13.56-4.19 18.36-7.57h-16.83v-4.25h21.14v-3.32h-16.07v-3.81h16.07v-3.27h-18.74v-4.03h11.17c-.49-1.53-1.42-3.49-2.29-4.96l1.31-.22h-12.37v-4.25h8.06c-.82-2.12-2.45-5.12-3.98-7.35l4.41-1.47c1.69 2.34 3.6 5.67 4.36 7.79l-2.78 1.04h5.99v-9.31h4.74v9.31h5.39v-9.31h4.79v9.31h5.88l-2.07-.65c1.31-2.18 3-5.61 3.81-8.06l5.23 1.31c-1.47 2.67-3.1 5.39-4.52 7.41h7.84v4.25h-10.51a164.39 164.39 0 01-3.05 5.17h11.55v4.03h-19.28v3.27h16.72v3.81h-16.72v3.32h21.46v4.25h-17.04zm-14-23.86c.98 1.58 1.96 3.54 2.34 4.85l-1.58.33h11.49c.82-1.47 1.69-3.43 2.4-5.17h-14.65zm39.72-10.73h19.28v4.58h-8.17c-.82 4.14-1.85 8.17-3.16 11.98h10.51v23.97h-10.68v4.19h-4.25v-18.41c-.82 1.36-1.63 2.61-2.56 3.76-.22-1.31-1.25-4.36-2.02-5.72 3.6-4.85 5.94-12.04 7.35-19.77h-6.32v-4.58zm14.11 21.08h-6.32v14.98h6.32v-14.98zm35.29 3.11h-5.88v23.04h-4.85v-23.04h-7.74c-.27 8.17-1.69 17.21-7.57 23.32-.87-.82-2.72-2.29-3.87-2.94 5.18-5.39 6.43-13.4 6.7-20.37h-5.61v-4.79h5.67v-14.6h-4.19v-4.74h26.26v4.74h-4.79v14.6h5.88v4.78zm-10.73-4.8v-14.6h-7.68v14.6h7.68zm61.34 22.5c1.36 0 1.58-.93 1.8-7.9 1.09.93 3.38 1.8 4.79 2.18-.49 8.5-1.85 10.68-5.99 10.68h-5.28c-4.68 0-6.05-1.47-6.05-6.7v-9.8h-9.15c-1.14 6.37-5.56 13.07-20.16 17.05-.76-1.2-2.23-3.05-3.43-4.14 12.58-3.32 16.89-8.28 18.25-12.91h-14.38v-4.74h14.98v-6.27h5.07v6.27h14.11v14.49c0 1.58.27 1.8 1.58 1.8h3.86zm-22.55-35.3c-1.14 8.66-4.41 13.73-17.32 16.4-.44-1.2-1.63-3.16-2.67-4.09 11.22-1.96 13.78-5.72 14.71-12.31h-8.66v5.72h-5.07v-10.24h20.37v-4.9h5.18v4.9h20.75v9.75h-5.34v-5.23h-9.59v8.55c0 1.42.27 1.58 2.07 1.58h5.72c1.42 0 1.69-.49 1.85-3.92 1.03.76 3.1 1.53 4.47 1.74-.54 5.28-1.91 6.65-5.72 6.65h-6.97c-5.23 0-6.43-1.36-6.43-5.99v-8.61h-7.35zm40.79 15.64c0 2.79-2.27 5.06-5.06 5.06s-5.06-2.27-5.06-5.06 2.27-5.06 5.06-5.06 5.06 2.27 5.06 5.06zm26.65-7.9h12.53v4.63h-12.53v4.85h10.89v14.33c0 2.07-.33 3.38-1.74 4.14-1.42.76-3.49.82-6.32.76-.11-1.25-.71-3.11-1.36-4.3 1.96.05 3.6.05 4.14 0 .54 0 .71-.16.71-.71v-9.7h-6.32v18.9h-4.79v-18.9h-5.94v14.54h-4.52v-19.07h10.46v-4.85h-12.8v-4.63h3.76c-1.04-.6-3.05-1.31-4.25-1.74 2.4-3.6 4.19-8.99 5.23-14.16l4.74.98c-.44 1.8-.93 3.65-1.42 5.39h4.74v-7.25h4.79v7.25h10.4v4.58h-10.4v4.96zm-4.79 0v-4.96h-6.37c-.71 1.85-1.53 3.6-2.4 4.96h8.77zm25.33 17.81h-4.68v-30.12h4.68v30.12zm9.8-34.16v42.76c0 3.05-.65 4.47-2.45 5.34-1.74.87-4.79.98-8.88.98-.22-1.36-.93-3.71-1.63-5.18 3.05.11 5.99.11 6.92.05.87 0 1.14-.27 1.14-1.14v-42.82h4.9zm21.85.99a86.767 86.767 0 01-5.39 11.39v36.77h-5.12v-28.76a49.28 49.28 0 01-4.47 5.34c-.49-1.25-1.96-4.09-2.83-5.23 5.17-5.12 10.02-13.07 12.96-21.03l4.85 1.52zm16.45 12.03v6.92h14.82v4.63h-14.82v7.25h15.58v4.74h-15.58v12.64h-5.18v-36.17h-3.05c-2.29 4.25-4.79 8.06-7.41 10.95-.82-.87-2.78-2.67-3.92-3.43 4.79-5.01 9.15-12.86 11.77-20.7l4.85 1.31c-.87 2.34-1.8 4.74-2.83 7.03h21.9v4.85h-16.13zm63.35 22.72c-2.4 1.85-5.39 3.6-8.01 5.01 3.05 2.02 6.75 3.54 11.06 4.41-1.09.93-2.34 2.89-3 4.14-9.64-2.4-16.07-7.84-19.83-16.07h-5.77v9.15c3.38-.49 6.97-1.09 10.57-1.63l.16 4.41c-7.25 1.2-14.93 2.45-20.59 3.32l-.76-4.63c1.74-.22 3.76-.49 5.94-.82v-9.81h-6.32v-4.25h9.15v-4.74h-7.57v-4.3h7.57v-4.36h-9.1v2.02c0 9.32-.76 22.88-6.43 31.7-.98-.82-3.21-2.12-4.47-2.62 5.39-8.39 5.83-20.43 5.83-29.09V244.5h40.96v13.89h-7.73v4.36h8.55v4.3h-8.55v4.74h10.79v4.25h-6.1l3.65 2.53zm-36.5-24.51h30.83v-5.18h-30.83v5.18zm13.73 8.71h9.7v-4.36h-9.7v4.36zm0 9.04h9.7v-4.74h-9.7v4.74zm7.79 4.25c1.04 1.85 2.29 3.49 3.81 4.96 2.51-1.47 5.34-3.38 7.25-4.96h-11.06zm-943.6-14.41v3.16H12.62v-3.16h10.42v-5.43h-7.31v-3.1h7.31v-4.75h-5.59c-.78 1.48-1.62 2.86-2.51 3.91-.65-.51-2.08-1.48-2.89-1.92 2.11-2.27 3.86-5.99 4.78-9.66l3.32.73c-.38 1.3-.81 2.56-1.27 3.81h4.16v-4.86h3.37v4.86h9.1v3.13h-9.1v4.75h8.07v3.1h-8.07v5.43h10.48zm7.62-8.29c-1.11-.78-3.43-2.05-5.02-2.92l1.73-2.38c1.48.73 3.89 1.89 5.07 2.62l-1.78 2.68zm-4.64 9.72c1.43-2.02 3.51-5.37 5.13-8.5l2.35 2.16c-1.43 2.83-3.13 5.91-4.78 8.53l-2.7-2.19zm5.8-17.09c-1.05-.81-3.35-2.08-4.91-2.97l1.81-2.32c1.51.76 3.86 1.94 5.02 2.7l-1.92 2.59zm11.96 5.27v3.4h5.51v10.77h-3.05v-.97h-8.1v1.11h-2.92v-10.9h5.51v-3.4H47.4v-3.08h7.18v-3.16c-1.75.27-3.56.46-5.24.62-.14-.78-.57-2.02-.94-2.75 4.59-.46 9.66-1.35 12.63-2.54l2.46 2.54c-1.73.65-3.75 1.19-5.86 1.59v3.7h6.86v3.08h-6.86zm2.45 6.31h-8.1v3.97h8.1v-3.97zm16.48 1.89c-3.08.89-6.34 1.78-8.93 2.43l-.67-2.97c.97-.22 2.13-.49 3.4-.81v-5.29H67.6v-2.83h2.75v-4.91h-3v-2.81h8.64v2.81h-2.81v4.91h2.46v2.83h-2.46v4.59l2.97-.78.41 2.83zm15.38.06c-.94.73-2 1.43-2.86 1.94 1 .67 2.11 1.24 3.29 1.62-.65.57-1.54 1.7-2 2.48-2.78-1.11-4.99-3.21-6.56-5.8v5.8H80.8v-3.94c-1.65 1.08-3.4 2-5.05 2.65-.4-.67-1.27-1.73-1.89-2.29 2.7-.81 5.67-2.32 7.83-4h-4.37v-6.32h13.52v6.32h-1l2.1 1.54zm-16.25-11.37h16.6v2.54h-16.6v-2.54zm15.61-.89H76.88v-6.07H91.3v6.07zm-10.21-3.91h-1.65v1.75h1.65v-1.75zm-.97 12.36h7.75v-1.75h-7.75v1.75zm4.72-12.36h-1.7v1.75h1.7v-1.75zm.81 14.63c.43.7.97 1.35 1.59 1.97.81-.57 1.78-1.38 2.4-1.97h-3.99zm2.97-14.63h-1.75v1.75h1.75v-1.75zm15.61 14.25c-2.83 1.38-5.94 2.78-8.39 3.91l-1.08-3.21c.92-.32 2.05-.76 3.29-1.24v-7.29h-2.67v-3.02h2.67v-6.02h2.97v6.02h2.46v3.02h-2.46v6.07c.84-.35 1.67-.73 2.51-1.08l.7 2.84zm13.07 5.1c.43 0 .57-.27.62-2.32.59.46 1.84.97 2.67 1.13-.3 3.1-1.05 3.91-2.94 3.91h-2.11c-2.54 0-3.08-.89-3.08-3.46v-3.16h-1.92c-.59 3.24-2.16 5.51-7.31 6.83-.3-.78-1.13-2.08-1.75-2.7 4.24-.81 5.43-2.16 5.91-4.13h-2.29v-8.56h13.74v8.56h-3.32v3.13c0 .67.08.76.57.76h1.21zm2.78-13.5h-16.49v-2.62h3.56c-.14-.59-.4-1.3-.67-1.84l1-.22h-3.29v-2.48h5.86v-1.65h3.16v1.65h6.4v2.48h-3.05l.67.14c-.35.73-.7 1.38-1 1.92h3.86v2.62zm-11.99 4.38h7.58v-1.35h-7.58v1.35zm0 3.24h7.58v-1.38h-7.58v1.38zm1.38-12.29c.35.65.62 1.4.76 1.97l-.35.08h3.43l-.13-.03c.27-.59.59-1.38.81-2.02h-4.52zm16.15 5.49h16.62c.53 0 1.65-.05 2.31-.16v3.37c-.63-.05-1.6-.08-2.31-.08h-6.12c-.15 2.67-.71 4.85-1.62 6.66-.89 1.81-2.84 3.81-5.1 4.98l-2.97-2.2c1.8-.7 3.58-2.18 4.59-3.71 1.04-1.61 1.47-3.55 1.57-5.73h-6.98c-.74 0-1.73.05-2.44.1v-3.4c.77.12 1.66.17 2.45.17zm3.22-6.58h8.3c.86 0 1.88-.08 2.74-.21v3.34c-.86-.05-1.85-.08-2.74-.08h-8.3c-.86 0-1.95.03-2.72.08v-3.34c.82.13 1.86.21 2.72.21zm14.56 1.55l-2.03.91c-.53-1.06-1.32-2.62-2-3.6l2.03-.86c.63.96 1.52 2.59 2 3.55zm3.05-1.19l-2.03.91c-.53-1.09-1.34-2.59-2.03-3.58l2-.86c.66.99 1.6 2.62 2.06 3.53zm11.45 21.05l-2.72-2.62c4.9-1.76 7.05-3.99 7.05-10.37v-.98h-6.01v3.53c0 1.17.08 2.2.1 2.72h-3.55c.08-.52.15-1.56.15-2.72v-3.53h-2.16c-1.27 0-2.18.08-2.74.1v-3.53c.46.08 1.47.23 2.74.23h2.16v-2.57c0-.75-.08-1.53-.15-2.33h3.6c-.05.49-.15 1.32-.15 2.36v2.54h6.01v-2.72c0-1.04-.08-1.89-.15-2.41h3.63c-.08.54-.18 1.37-.18 2.41v2.72h1.88c1.34 0 2.11-.05 2.79-.18v3.45c-.56-.05-1.45-.08-2.77-.08h-1.9v.86c.01 6.43-1.49 10.35-7.63 13.12zm11.16-18.66l-1.75.57c-.36-1.09-.81-2.51-1.29-3.55l1.7-.57c.48 1.03 1.06 2.53 1.34 3.55zm2.67-.86l-1.75.57c-.36-1.11-.84-2.51-1.37-3.53l1.73-.57c.47 1.04 1.06 2.54 1.39 3.53zm13.55 2.75c2.61-1.66 5.51-4.25 7.16-6.3l2.74 2.67a46.76 46.76 0 01-6.83 5.63v10.47c0 1.14.05 2.75.23 3.4h-4.01c.1-.62.18-2.26.18-3.4v-8.3c-2.61 1.4-5.84 2.8-8.96 3.73l-1.6-3.27c4.55-1.18 8.28-2.87 11.09-4.63zm25.64 8.89c4.34-2.62 7.64-6.58 9.24-10.08l1.98 3.66c-1.93 3.5-5.3 7.08-9.39 9.59-2.56 1.58-5.84 3.03-9.41 3.66l-2.13-3.42c3.95-.58 7.25-1.91 9.71-3.41zm0-8.37l-2.59 2.7c-1.32-1.45-4.49-4.28-6.34-5.6l2.39-2.59c1.77 1.21 5.07 3.91 6.54 5.49zm19.57-4.05h12.79c.74 0 1.8-.03 2.23-.05-.03.6-.08 1.63-.08 2.38v13.43c0 .91.05 2.28.1 3.06h-3.68c.03-.41.03-.86.03-1.35h-11.57c-.99 0-2.44.08-3.27.16v-3.71c.89.08 2.03.16 3.17.16h11.7V247.9h-11.39c-1.07 0-2.44.05-3.15.1v-3.6c.93.1 2.25.15 3.12.15zm23.99 6.41h11.6c1.02 0 1.97-.1 2.53-.16v4.07c-.52-.03-1.62-.13-2.53-.13h-11.6c-1.23 0-2.68.05-3.48.13v-4.07c.78.08 2.36.16 3.48.16zm36.63-4.13c-.86 2.02-2.28 4.8-3.98 7.13 2.51 2.23 5.58 5.55 7.08 7.41l-2.89 2.57c-1.65-2.33-4.01-4.98-6.39-7.34-2.69 2.9-6.06 5.6-9.54 7.28l-2.61-2.8c4.09-1.56 8.02-4.72 10.4-7.44 1.67-1.94 3.22-4.51 3.78-6.35h-8.6c-1.07 0-2.46.16-2.99.18v-3.68c.69.1 2.23.18 2.99.18h8.96c1.09 0 2.11-.16 2.61-.34l2.08 1.58c-.22.3-.68 1.1-.9 1.62zm11.82 6.12c0 1.51-1.25 2.77-2.77 2.77s-2.77-1.25-2.77-2.77 1.25-2.77 2.77-2.77 2.77 1.26 2.77 2.77zm10.83-5.99c0 3.32-.51 8.02-3.08 11.07-.46-.57-1.7-1.62-2.32-1.94 2.21-2.67 2.46-6.45 2.46-9.18v-4.05h11.47c-.08-.84-.14-1.67-.16-2.51h3c.03.84.08 1.7.16 2.51h2.89c-.7-.38-1.48-.73-2.19-1l1.59-1.75c1.27.38 2.92 1.11 3.75 1.78l-.81.97H333v2.54h-7.34c.27 1.54.67 2.97 1.11 4.24.67-1.11 1.24-2.29 1.65-3.56l2.97.7a22.23 22.23 0 01-3.13 5.91c.73 1.08 1.48 1.7 2.24 1.7.59-.03.81-.92.94-3.24.68.59 1.67 1.16 2.43 1.4-.46 3.83-1.4 4.72-3.54 4.72-1.54 0-2.92-.86-4.08-2.32-.81.78-1.65 1.48-2.54 2.08-.32-.46-1-1.16-1.59-1.7v.49h-1.73c1.43.78 3.02 2 3.83 2.94l-2.21 1.89c-.78-1.03-2.54-2.4-4.02-3.29l1.84-1.54h-5.34v-5.83h7.64v4.43c.92-.59 1.75-1.3 2.54-2.08-.89-1.94-1.59-4.32-2.02-6.94h-8.88v1.56zm-5.15 16.25c1.59-1.24 2.75-3.16 3.29-5.16l2.86 1.03c-.62 2.24-1.67 4.48-3.51 5.91l-2.64-1.78zm13.71-14.52h-7.94v-2.05h7.94v2.05zm1.51 13.66c1.03 0 1.21-.27 1.35-2.4.59.49 1.97.94 2.81 1.13-.35 3.32-1.24 4.13-3.86 4.13h-4.32c-3.48 0-4.29-.86-4.29-3.64v-3.48h3.19v3.46c0 .73.22.81 1.46.81h3.66zm-4.32-10.31h-2.46v1.7h2.46v-1.7zm10.02 5.61c1.75 1.59 3.62 3.86 4.32 5.61l-2.92 1.46c-.59-1.65-2.35-4.02-4.1-5.72l2.7-1.35zm31.43 4v3.05h-16.79v-3.05h7.21v-5.4h-5.21v-3h5.21v-4.43h-2.97c-.41 1.4-.94 2.7-1.51 3.73-.65-.4-2.11-1.13-2.86-1.46.27-.49.54-1 .81-1.57l-1.54.7c-.16-.81-.57-2-1.03-3.1v18.44h-3.21v-19.3c-.16 2.27-.59 5.24-1.21 7.15l-2.38-.86c.65-1.78 1.13-4.8 1.32-7.02l2.27.32v-5.51h3.21v5.1l1.57-.65c.54 1.05 1.11 2.35 1.48 3.4.67-1.97 1.16-4.29 1.43-6.59l3.13.43c-.19 1.27-.41 2.54-.68 3.75h2.16v-5.29h3.21v5.29h5.51v3.02h-5.51v4.43h4.94v3h-4.94v5.4h6.38zm1.84-8.94c.57-1.84.97-4.86 1.11-7.05l2.27.3c-.05 2.24-.49 5.45-1.05 7.53l-2.33-.78zm25.48-3.83v2.29H370.6v-2.29h7.15v-1.16h-5.59l.05.13-2.11 1.03c-.19-.78-.57-1.92-1-2.97v19.62h-2.89v-25.18h2.89v4.32l1.54-.65c.57 1.16 1.19 2.67 1.51 3.67v-2.13h5.59v-1.08h-6.32v-2.29h6.32v-1.84h3.19v1.84h6.53v2.29h-6.53v1.08h5.8v2.16h-5.8v1.16h7.35zm-1.81 13.6c0 1.4-.27 2.16-1.24 2.59-.94.46-2.29.46-4.16.46-.11-.78-.49-1.94-.86-2.73 1.11.08 2.38.05 2.73.05.38 0 .51-.11.51-.43v-.89h-8.07v4.05h-2.97V252.2h14.06v10.28zm-11.09-7.93v1.27h8.07v-1.27h-8.07zm8.07 4.78v-1.24h-8.07v1.24h8.07zm15.28-12.07h4.51v2.7H401l1.05.27c-.46 1-.86 2.05-1.24 2.86h2.02v2.7h-4.1v2.08h3.81v2.7h-3.81v4.91h-2.97v-4.91h-4.02v-2.7h4.02v-2.08h-4.24v-2.7h2.02c-.16-.86-.51-2-.89-2.89l.97-.24h-2.67v-2.7h4.8v-1.86h-3.86v-2.65h3.86v-2.35h2.97v2.35h3.51v2.65h-3.51v1.86zm-.4 5.59c.32-.81.73-1.97.97-2.89h-4.1c.46.97.84 2.13.94 2.89l-.86.24h3.91l-.86-.24zm17.27-1.57c-.51 3.27-1.46 6.29-2.83 8.83 1.11 1.21 2.35 2.24 3.75 2.94-.7.59-1.62 1.73-2.08 2.54-1.27-.76-2.38-1.73-3.37-2.86-.86 1.11-1.84 2.08-2.94 2.89-.35-.54-.92-1.16-1.48-1.67v1.59h-2.92v-24.05h11.26v5.07c0 1.38-.3 2.16-1.35 2.59-1.03.43-2.48.46-4.45.46-.14-.86-.54-1.97-.92-2.75 1.32.05 2.81.05 3.21.05.41-.03.54-.11.54-.4v-2.21h-5.37v6.45h6.51l.54-.13 1.9.66zm-8.96 11.69c.97-.78 1.84-1.7 2.59-2.75-1.05-1.73-1.92-3.7-2.59-5.83v8.58zm2.27-9.69c.49 1.48 1.13 2.89 1.92 4.18.62-1.3 1.11-2.73 1.43-4.18h-3.35zm12.69-3.26h16.62c.53 0 1.65-.05 2.31-.16v3.37c-.63-.05-1.6-.08-2.31-.08h-6.12c-.15 2.67-.71 4.85-1.62 6.66-.89 1.81-2.84 3.81-5.1 4.98l-2.97-2.2c1.8-.7 3.58-2.18 4.59-3.71 1.04-1.61 1.47-3.55 1.57-5.73h-6.98c-.74 0-1.73.05-2.44.1v-3.4c.78.12 1.66.17 2.45.17zm3.22-6.58h8.3c.86 0 1.88-.08 2.74-.21v3.34c-.86-.05-1.85-.08-2.74-.08h-8.3c-.86 0-1.95.03-2.72.08v-3.34c.82.13 1.86.21 2.72.21zm14.57 1.55l-2.03.91c-.53-1.06-1.32-2.62-2-3.6l2.03-.86c.63.96 1.52 2.59 2 3.55zm3.04-1.19l-2.03.91c-.53-1.09-1.34-2.59-2.03-3.58l2-.86c.67.99 1.61 2.62 2.06 3.53zm11.45 21.05l-2.72-2.62c4.9-1.76 7.05-3.99 7.05-10.37v-.98h-6.01v3.53c0 1.17.08 2.2.1 2.72h-3.55c.08-.52.15-1.56.15-2.72v-3.53h-2.16c-1.27 0-2.18.08-2.74.1v-3.53c.46.08 1.47.23 2.74.23h2.16v-2.57c0-.75-.08-1.53-.15-2.33h3.6c-.05.49-.15 1.32-.15 2.36v2.54h6.01v-2.72c0-1.04-.08-1.89-.15-2.41h3.63c-.08.54-.18 1.37-.18 2.41v2.72h1.88c1.34 0 2.11-.05 2.79-.18v3.45c-.56-.05-1.45-.08-2.77-.08h-1.9v.86c.01 6.43-1.49 10.35-7.63 13.12zm11.17-18.66l-1.75.57c-.36-1.09-.81-2.51-1.29-3.55l1.7-.57c.48 1.03 1.06 2.53 1.34 3.55zm2.66-.86l-1.75.57c-.36-1.11-.84-2.51-1.37-3.53l1.73-.57c.48 1.04 1.06 2.54 1.39 3.53zm13.56 2.75c2.61-1.66 5.51-4.25 7.16-6.3l2.74 2.67a46.76 46.76 0 01-6.83 5.63v10.47c0 1.14.05 2.75.23 3.4h-4.01c.1-.62.18-2.26.18-3.4v-8.3c-2.61 1.4-5.84 2.8-8.96 3.73l-1.6-3.27c4.54-1.18 8.27-2.87 11.09-4.63zm25.63 8.89c4.34-2.62 7.64-6.58 9.24-10.08l1.98 3.66c-1.93 3.5-5.3 7.08-9.39 9.59-2.56 1.58-5.84 3.03-9.41 3.66l-2.13-3.42c3.95-.58 7.25-1.91 9.71-3.41zm0-8.37l-2.59 2.7c-1.32-1.45-4.49-4.28-6.34-5.6l2.39-2.59c1.77 1.21 5.07 3.91 6.54 5.49zm20.08-4.05h12.79c.74 0 1.8-.03 2.23-.05-.03.6-.08 1.63-.08 2.38v13.43c0 .91.05 2.28.1 3.06h-3.68c.03-.41.03-.86.03-1.35H526.8c-.99 0-2.44.08-3.27.16v-3.71c.89.08 2.03.16 3.17.16h11.7V247.9H527c-1.07 0-2.44.05-3.15.1v-3.6c.95.1 2.27.15 3.13.15zm23.99 6.41h11.6c1.02 0 1.97-.1 2.53-.16v4.07c-.52-.03-1.62-.13-2.53-.13h-11.6c-1.23 0-2.68.05-3.48.13v-4.07c.78.08 2.36.16 3.48.16zm36.63-4.13c-.86 2.02-2.28 4.8-3.98 7.13 2.51 2.23 5.58 5.55 7.08 7.41l-2.89 2.57c-1.65-2.33-4.01-4.98-6.39-7.34-2.69 2.9-6.06 5.6-9.54 7.28l-2.61-2.8c4.09-1.56 8.02-4.72 10.4-7.44 1.67-1.94 3.22-4.51 3.78-6.35h-8.6c-1.07 0-2.46.16-2.99.18v-3.68c.69.1 2.23.18 2.99.18h8.96c1.09 0 2.11-.16 2.61-.34l2.08 1.58c-.22.3-.67 1.1-.9 1.62zM24.45 275.96c-.49 4.48-1.97 7.32-8.83 8.8-.27-.76-1.08-2.05-1.73-2.7 5.88-1.03 6.83-2.92 7.26-6.1h-3.73v3.13h-3.16v-6.05h9.77v-2.43h3.29v2.43h10.01v5.59h-3.32v-2.67H30.2v4.26c0 .73.16.84 1 .84h2.4c.67 0 .81-.27.92-1.97.59.46 1.92.92 2.75 1.11-.32 2.83-1.19 3.59-3.35 3.59h-3.21c-3.02 0-3.67-.86-3.67-3.54v-4.29h-2.59zm13.14 16.22v2.92H13.97v-2.92h10.07v-4.02h-7.23v-2.89H35.3v2.89h-7.96v4.02h10.25zm11.65-10.79v14.44h-3.19v-24.19h10.34v9.75h-7.15zm0-7.43v1.43h4.16v-1.43h-4.16zm4.15 5.13v-1.54h-4.16v1.54h4.16zm15.44 12.93c0 1.73-.35 2.67-1.43 3.19-1.05.54-2.62.62-4.94.62-.08-.67-.38-1.67-.7-2.51h-6.69v1.38h-2.92v-11.66h1.32V283l9.07.03v9.56c1.05.03 2.05.03 2.4 0 .49 0 .65-.16.65-.59v-10.55h-7.34v-9.8h10.58v20.37zm-9.31-6.64h-4.45V287h4.45v-1.62zm0 5.59v-1.67h-4.45v1.67h4.45zm1.78-17.01v1.43h4.29v-1.43H61.3zm4.29 5.19v-1.59H61.3v1.59h4.29zm11.97 1.14h16.62c.53 0 1.65-.05 2.31-.16v3.37c-.63-.05-1.6-.08-2.31-.08h-6.12c-.15 2.67-.71 4.85-1.62 6.66-.89 1.82-2.84 3.81-5.1 4.98l-2.97-2.2c1.8-.7 3.58-2.18 4.59-3.71 1.04-1.61 1.47-3.55 1.57-5.73h-6.98c-.74 0-1.73.05-2.44.1v-3.4c.77.11 1.66.17 2.45.17zm3.22-6.59h8.3c.86 0 1.88-.08 2.74-.21v3.34c-.86-.05-1.85-.08-2.74-.08h-8.3c-.86 0-1.95.03-2.72.08v-3.34c.82.13 1.86.21 2.72.21zm14.56 1.56l-2.03.91c-.53-1.06-1.32-2.62-2-3.6l2.03-.86c.63.95 1.52 2.59 2 3.55zm3.05-1.2l-2.03.91c-.53-1.09-1.34-2.59-2.03-3.58l2-.86c.66.99 1.6 2.63 2.06 3.53zm13.99 21.05l-2.72-2.62c4.9-1.76 7.05-3.99 7.05-10.37v-.98h-6.01v3.53c0 1.17.08 2.2.1 2.72h-3.55c.08-.52.15-1.55.15-2.72v-3.53h-2.16c-1.27 0-2.18.08-2.74.1v-3.53c.46.08 1.47.23 2.74.23h2.16v-2.57c0-.75-.08-1.53-.15-2.33h3.6c-.05.49-.15 1.32-.15 2.36v2.54h6.01v-2.72c0-1.04-.08-1.89-.15-2.41h3.63c-.08.54-.18 1.37-.18 2.41v2.72h1.88c1.34 0 2.11-.05 2.79-.18v3.45c-.56-.05-1.45-.08-2.77-.08h-1.9v.87c0 6.43-1.49 10.34-7.63 13.11zm11.16-18.66l-1.75.57c-.36-1.09-.81-2.51-1.29-3.55l1.7-.57c.48 1.04 1.06 2.54 1.34 3.55zm2.67-.86l-1.75.57c-.36-1.12-.84-2.51-1.37-3.53l1.73-.57c.47 1.04 1.06 2.55 1.39 3.53zm16.09 2.75c2.61-1.66 5.51-4.25 7.16-6.3l2.74 2.67a46.76 46.76 0 01-6.83 5.63v10.47c0 1.14.05 2.75.23 3.4h-4.01c.1-.62.18-2.25.18-3.4v-8.3c-2.61 1.4-5.84 2.8-8.96 3.73l-1.6-3.27c4.54-1.18 8.27-2.87 11.09-4.63zm28.17 8.89c4.34-2.62 7.64-6.58 9.24-10.08l1.98 3.66c-1.93 3.5-5.3 7.08-9.39 9.59-2.56 1.58-5.84 3.03-9.41 3.66l-2.13-3.42c3.95-.58 7.25-1.9 9.71-3.41zm0-8.37l-2.59 2.7c-1.32-1.45-4.49-4.28-6.34-5.6l2.39-2.59c1.77 1.21 5.07 3.91 6.54 5.49zm22.62-4.04h12.79c.74 0 1.8-.03 2.23-.05-.03.6-.08 1.63-.08 2.38v13.43c0 .91.05 2.28.1 3.06h-3.68c.03-.41.03-.86.03-1.35h-11.57c-.99 0-2.44.08-3.27.16v-3.71c.89.08 2.03.16 3.17.16h11.7v-10.73h-11.39c-1.07 0-2.44.05-3.15.1v-3.6c.93.09 2.25.15 3.12.15zm26.53 6.4h11.6c1.02 0 1.97-.1 2.53-.16v4.07c-.52-.03-1.62-.13-2.53-.13h-11.6c-1.23 0-2.68.05-3.48.13v-4.07c.78.08 2.36.16 3.48.16zm38.78-4.12c-.86 2.02-2.28 4.8-3.98 7.13 2.51 2.23 5.58 5.55 7.08 7.41l-2.89 2.57c-1.65-2.33-4.01-4.98-6.39-7.34-2.69 2.9-6.06 5.6-9.54 7.28l-2.61-2.8c4.09-1.56 8.02-4.72 10.4-7.44 1.67-1.94 3.22-4.51 3.78-6.35h-8.6c-1.07 0-2.46.16-2.99.18v-3.68c.69.1 2.23.18 2.99.18h8.96c1.09 0 2.11-.16 2.61-.34l2.08 1.58c-.21.29-.67 1.1-.9 1.62zm22.48 6.12c0 1.51-1.25 2.77-2.77 2.77s-2.77-1.25-2.77-2.77 1.25-2.77 2.77-2.77 2.77 1.25 2.77 2.77zm30.31-6.87c-.76 2.05-1.9 4.67-3.4 7.05 2.23 1.87 4.36 3.86 6.09 5.73l-2.61 2.96c-1.78-2.12-3.6-3.94-5.63-5.73-2.23 2.75-5.15 5.62-9.44 8.01l-2.84-2.62c4.14-2.05 7.13-4.56 9.64-7.65-1.83-1.48-4.26-3.32-6.85-4.93l2.16-2.64c2.03 1.27 4.69 3.14 6.75 4.69 1.29-2.07 2.16-4.12 2.82-6.17.23-.67.51-1.71.61-2.38l3.78 1.35c-.35.59-.83 1.73-1.08 2.33zm12.1 3.94h16.62c.53 0 1.65-.05 2.31-.16v3.37c-.63-.05-1.6-.08-2.31-.08h-6.12c-.15 2.67-.71 4.85-1.62 6.66-.89 1.82-2.84 3.81-5.1 4.98l-2.97-2.2c1.8-.7 3.58-2.18 4.59-3.71 1.04-1.61 1.47-3.55 1.57-5.73h-6.98c-.74 0-1.73.05-2.44.1v-3.4c.78.11 1.67.17 2.45.17zm3.23-6.59h8.3c.86 0 1.88-.08 2.74-.21v3.34c-.86-.05-1.85-.08-2.74-.08h-8.3c-.86 0-1.95.03-2.72.08v-3.34c.81.13 1.85.21 2.72.21zm14.56 1.56l-2.03.91c-.53-1.06-1.32-2.62-2-3.6l2.03-.86c.63.95 1.52 2.59 2 3.55zm3.05-1.2l-2.03.91c-.53-1.09-1.34-2.59-2.03-3.58l2-.86c.66.99 1.6 2.63 2.06 3.53zm14.87 7.91c2.46-1.53 5.02-3.86 6.32-5.55l2.51 2.51c-1.19 1.35-3.43 3.19-5.68 4.72v8.89c0 .91.03 2.28.18 2.8h-3.76c.05-.52.13-1.89.13-2.8v-6.84c-2.23 1.14-5.08 2.33-7.28 3.03l-1.5-3.06c3.3-.72 7.08-2.45 9.08-3.7zm39.62-5.11c-1.19 2.02-3.6 5.29-6.09 7.1l-2.64-2.15c2.03-1.27 4.01-3.55 4.67-4.82h-13.22c-1.07 0-1.9.08-3.1.18v-3.6c.96.16 2.03.26 3.1.26h13.68c.71 0 2.11-.08 2.59-.23l2 1.92c-.28.33-.76.96-.99 1.34zm-16.39 17.66l-2.97-2.46c.81-.29 1.73-.73 2.66-1.43 3.22-2.28 3.83-5.03 3.83-9.28 0-.8-.05-1.5-.18-2.33h3.68c0 6.42-.12 11.71-7.02 15.5zm25.58-14.23h16.62c.53 0 1.65-.05 2.31-.16v3.37c-.63-.05-1.6-.08-2.31-.08h-6.12c-.15 2.67-.71 4.85-1.62 6.66-.89 1.82-2.84 3.81-5.1 4.98l-2.97-2.2c1.8-.7 3.58-2.18 4.59-3.71 1.04-1.61 1.47-3.55 1.57-5.73h-6.98c-.74 0-1.73.05-2.44.1v-3.4c.77.11 1.66.17 2.45.17zm3.22-6.59h8.3c.86 0 1.88-.08 2.74-.21v3.34c-.86-.05-1.85-.08-2.74-.08h-8.3c-.86 0-1.95.03-2.72.08v-3.34c.82.13 1.86.21 2.72.21zm14.57 1.56l-2.03.91c-.53-1.06-1.32-2.62-2-3.6l2.03-.86c.63.95 1.52 2.59 2 3.55zm3.04-1.2l-2.03.91c-.53-1.09-1.34-2.59-2.03-3.58l2-.86c.67.99 1.61 2.63 2.06 3.53zm13.99 21.05l-2.72-2.62c4.9-1.76 7.05-3.99 7.05-10.37v-.98h-6.01v3.53c0 1.17.08 2.2.1 2.72h-3.55c.08-.52.15-1.55.15-2.72v-3.53h-2.16c-1.27 0-2.18.08-2.74.1v-3.53c.46.08 1.47.23 2.74.23h2.16v-2.57c0-.75-.08-1.53-.15-2.33h3.6c-.05.49-.15 1.32-.15 2.36v2.54h6.01v-2.72c0-1.04-.08-1.89-.15-2.41h3.63c-.08.54-.18 1.37-.18 2.41v2.72h1.88c1.34 0 2.11-.05 2.79-.18v3.45c-.56-.05-1.45-.08-2.77-.08h-1.9v.87c.01 6.43-1.49 10.34-7.63 13.11zm11.16-18.66l-1.75.57c-.36-1.09-.81-2.51-1.29-3.55l1.7-.57c.48 1.04 1.07 2.54 1.34 3.55zm2.67-.86l-1.75.57c-.36-1.12-.84-2.51-1.37-3.53l1.73-.57c.48 1.04 1.06 2.55 1.39 3.53zm16.09 2.75c2.61-1.66 5.51-4.25 7.16-6.3l2.74 2.67a46.76 46.76 0 01-6.83 5.63v10.47c0 1.14.05 2.75.23 3.4h-4.01c.1-.62.18-2.25.18-3.4v-8.3c-2.61 1.4-5.84 2.8-8.96 3.73l-1.6-3.27c4.54-1.18 8.28-2.87 11.09-4.63zm28.17 8.89c4.34-2.62 7.64-6.58 9.24-10.08l1.98 3.66c-1.93 3.5-5.3 7.08-9.39 9.59-2.56 1.58-5.84 3.03-9.41 3.66l-2.13-3.42c3.95-.58 7.25-1.9 9.71-3.41zm0-8.37l-2.59 2.7c-1.32-1.45-4.49-4.28-6.34-5.6l2.39-2.59c1.77 1.21 5.07 3.91 6.54 5.49zm22.62-4.04h12.79c.74 0 1.8-.03 2.23-.05-.03.6-.08 1.63-.08 2.38v13.43c0 .91.05 2.28.1 3.06h-3.68c.03-.41.03-.86.03-1.35h-11.57c-.99 0-2.44.08-3.27.16v-3.71c.89.08 2.03.16 3.17.16h11.7v-10.73h-11.39c-1.07 0-2.44.05-3.15.1v-3.6c.94.09 2.26.15 3.12.15zm26.53 6.4h11.6c1.02 0 1.97-.1 2.53-.16v4.07c-.52-.03-1.62-.13-2.53-.13h-11.6c-1.23 0-2.68.05-3.48.13v-4.07c.78.08 2.36.16 3.48.16zm38.79-4.12c-.86 2.02-2.28 4.8-3.98 7.13 2.51 2.23 5.58 5.55 7.08 7.41l-2.89 2.57c-1.65-2.33-4.01-4.98-6.39-7.34-2.69 2.9-6.06 5.6-9.54 7.28l-2.61-2.8c4.09-1.56 8.02-4.72 10.4-7.44 1.67-1.94 3.22-4.51 3.78-6.35h-8.6c-1.07 0-2.46.16-2.99.18v-3.68c.69.1 2.23.18 2.99.18h8.96c1.09 0 2.11-.16 2.61-.34l2.08 1.58c-.22.29-.68 1.1-.9 1.62zM56.46 485.3H19.11c-.26-9.81 5.04-16.77 19.4-25.44 8.46-5.32 10.68-8.02 10.68-13.17 0-5.73-4.27-9.73-10.34-9.73-4.7 0-8.29 2.29-9.74 6.13-.51 1.55-.68 3.03-.68 7.03h-7.61v-2.04c0-5.56 1.2-9.32 4.02-12.35 3.25-3.68 8.2-5.56 14.27-5.56 10.77 0 18.03 6.62 18.03 16.44 0 4.74-1.71 8.75-5.04 12.1-2.31 2.29-3.42 3.11-11.79 8.26-5.9 3.76-10.68 8.42-11.71 11.53h27.86v6.8zm56.32-46.13c2.82 4.99 4.02 10.8 4.02 19.46 0 7.85-1.28 13.9-4.02 18.73-3.25 5.64-9.06 9-15.64 9-6.5 0-12.31-3.35-15.55-9-2.73-4.99-4.02-10.8-4.02-19.14 0-8.26 1.28-14.31 4.02-19.06 3.33-5.64 9.06-9 15.55-9 6.67.01 12.39 3.29 15.64 9.01zm-24.87 4.09c-1.62 3.68-2.39 8.26-2.39 14.97 0 6.71.77 11.37 2.39 15.05 1.79 3.84 5.3 6.3 9.32 6.3 3.93 0 7.52-2.45 9.23-6.3 1.62-3.68 2.39-8.26 2.39-14.72 0-7.03-.68-11.7-2.39-15.29-1.79-3.93-5.38-6.3-9.32-6.3-3.93-.01-7.43 2.36-9.23 6.29zm87.94 42.04H138.5c-.26-9.81 5.04-16.77 19.4-25.44 8.46-5.32 10.68-8.02 10.68-13.17 0-5.73-4.27-9.73-10.34-9.73-4.7 0-8.29 2.29-9.74 6.13-.51 1.55-.68 3.03-.68 7.03h-7.61v-2.04c0-5.56 1.2-9.32 4.02-12.35 3.25-3.68 8.2-5.56 14.27-5.56 10.77 0 18.03 6.62 18.03 16.44 0 4.74-1.71 8.75-5.04 12.1-2.31 2.29-3.42 3.11-11.79 8.26-5.9 3.76-10.68 8.42-11.71 11.53h27.86v6.8zm57.51 0h-37.35c-.26-9.81 5.04-16.77 19.4-25.44 8.46-5.32 10.68-8.02 10.68-13.17 0-5.73-4.27-9.73-10.34-9.73-4.7 0-8.29 2.29-9.74 6.13-.51 1.55-.68 3.03-.68 7.03h-7.61v-2.04c0-5.56 1.2-9.32 4.02-12.35 3.25-3.68 8.2-5.56 14.27-5.56 10.77 0 18.03 6.62 18.03 16.44 0 4.74-1.71 8.75-5.04 12.1-2.31 2.29-3.42 3.11-11.79 8.26-5.9 3.76-10.68 8.42-11.71 11.53h27.86v6.8zm34.36-1.09h-7.92v-7.36h7.92v7.36zm84.37.82h-52.66c-.36-13.84 7.11-23.64 27.35-35.86 11.93-7.5 15.06-11.3 15.06-18.57 0-8.07-6.02-13.72-14.58-13.72-6.63 0-11.69 3.23-13.74 8.65-.72 2.19-.96 4.27-.96 9.92h-10.72v-2.88c0-7.84 1.69-13.15 5.66-17.41 4.58-5.19 11.57-7.84 20.12-7.84 15.18 0 25.43 9.34 25.43 23.18 0 6.69-2.41 12.34-7.11 17.07-3.25 3.23-4.82 4.38-16.63 11.65-8.31 5.3-15.06 11.88-16.51 16.26h39.28v9.55zm37.89-.82h-7.92v-7.36h7.92v7.36zm50.05.82h-10.6v-54.66h-18.19v-7.5c10.36.35 18.68-5.3 20.6-13.95h8.19v76.11zm85.43-21.91c0 13.49-11.69 23.41-27.35 23.41-15.78 0-27.47-10.03-27.47-23.41 0-8.65 4.46-15.22 13.61-20.06-6.63-3.69-10-9.22-10-16.03 0-11.42 10-19.72 23.86-19.72 13.74 0 23.74 8.3 23.74 19.72 0 6.8-3.37 12.34-10 16.03 9.15 4.84 13.61 11.42 13.61 20.06zm-43.62-.57c0 8.53 6.63 14.41 16.27 14.41 9.4 0 16.14-5.88 16.14-14.18 0-8.65-6.51-14.53-16.27-14.53-9.51 0-16.14 5.88-16.14 14.3zm3.25-34.71c0 6.46 5.3 10.95 13.01 10.95 7.47 0 12.89-4.5 12.89-10.84 0-6.57-5.18-11.07-13.01-11.07-7.59 0-12.89 4.5-12.89 10.96zm92.13 28.32h-18.97v10.63h15.92v4.25h-15.92v16.16h-5.08v-35.46h24.05v4.42zm15.6 5.37v4.04c1.02-1.49 1.44-2.07 2.14-2.71 1.18-1.22 3.05-2.02 4.6-2.02.96 0 1.87.21 2.73.64v4.41c-1.02-.21-1.55-.27-2.24-.27-3.95 0-7 3.51-7 8.08v13.5h-4.92v-25.68h4.69zm27.63-4.1h-4.92v-5.69h4.92v5.69zm0 29.77h-4.92v-25.68h4.92v25.68zm70.91-32.86h-30.24v-7.02h30.24v7.02zm99.46 30.85h-52.87c-.36-13.9 7.14-23.74 27.46-36.01 11.98-7.53 15.12-11.35 15.12-18.64 0-8.11-6.05-13.78-14.64-13.78-6.65 0-11.74 3.24-13.79 8.68-.73 2.2-.97 4.29-.97 9.96h-10.77v-2.89c0-7.88 1.69-13.2 5.69-17.49 4.6-5.21 11.61-7.87 20.2-7.87 15.24 0 25.53 9.38 25.53 23.28 0 6.72-2.42 12.39-7.14 17.14-3.27 3.24-4.84 4.4-16.7 11.7-8.35 5.33-15.12 11.93-16.58 16.33h39.44v9.59zm75.02-65.31c3.99 7.06 5.69 15.29 5.69 27.56 0 11.12-1.81 19.69-5.69 26.52-4.6 7.99-12.82 12.74-22.14 12.74-9.19 0-17.42-4.75-22.02-12.74-3.87-7.06-5.69-15.29-5.69-27.1 0-11.7 1.81-20.26 5.69-26.98 4.72-7.99 12.82-12.74 22.02-12.74 9.43.01 17.54 4.64 22.14 12.74zm-35.21 5.79c-2.3 5.21-3.39 11.7-3.39 21.19 0 9.5 1.09 16.1 3.39 21.31 2.54 5.44 7.5 8.92 13.19 8.92 5.57 0 10.65-3.47 13.07-8.92 2.3-5.21 3.39-11.7 3.39-20.84 0-9.96-.97-16.56-3.39-21.65-2.54-5.56-7.62-8.92-13.19-8.92-5.57 0-10.53 3.35-13.07 8.91zm85.5 37.03c-.53-4.89-3.47-7.28-8.87-7.28-4.76 0-7.8 2.02-7.8 5.1 0 2.6 1.87 4.15 6.41 5.16l5.77 1.28c4.22.96 6.36 1.86 8.07 3.4 1.87 1.65 2.89 4.04 2.89 6.8 0 6.7-5.45 10.84-14.11 10.84-9.24 0-14.8-4.68-15.55-13.18h5.29c.53 5.64 4.27 8.77 10.42 8.77 5.13 0 8.76-2.5 8.76-6.06 0-2.66-1.92-4.41-5.66-5.32l-8.02-1.91c-6.52-1.54-9.46-4.41-9.46-9.2 0-6.22 5.18-10.15 13.36-10.15s12.56 3.77 13.68 11.75h-5.18zm36.34 24.5v-2.92c-2.56 2.71-4.65 3.62-8.18 3.62-3.05 0-5.56-1.01-7-2.82-1.23-1.59-1.71-3.4-1.71-6.38v-17.17h4.92v16.8c0 3.51 1.6 5.21 4.97 5.21 4.22 0 6.79-2.45 6.79-6.43v-15.58h4.92v25.68h-4.71zm22.39-25.67v2.92c2.56-2.71 4.65-3.62 8.18-3.62 3.05 0 5.56 1.01 7 2.82 1.23 1.6 1.71 3.4 1.71 6.38v17.17h-4.92v-16.8c0-3.51-1.6-5.21-4.97-5.21-4.22 0-6.79 2.45-6.79 6.43v15.58h-4.92v-25.68h4.71zm25.17-265.32H9.04a2.5 2.5 0 010-5h990.99a2.5 2.5 0 010 5z"/></g></svg>