<svg width="297" height="105" fill="none" xmlns="http://www.w3.org/2000/svg"><path d="M9.69 15.52h4.33v4.74a15.618 15.618 0 01-3.08.31 5.312 5.312 0 01-4.44-1.95 9.18 9.18 0 01-1.52-5.69 8.15 8.15 0 011.9-5.67 6.43 6.43 0 015-2.11 11.54 11.54 0 015.2 1.25l1.61-3.87a17 17 0 00-6.78-1.41c-3.74 0-6.667 1.033-8.78 3.1C1.016 6.287-.037 9.16-.03 12.84c0 3.787.907 6.697 2.72 8.73 1.813 2.033 4.45 3.033 7.91 3a25.815 25.815 0 008.16-1.3V11.43H9.7l-.01 4.09zm21.32-8.1a6.53 6.53 0 00-2.19 2.36h-.23l-.7-2.94h-3.61v17.47h4.76v-8.89a4.23 4.23 0 011.27-3.28 5.08 5.08 0 013.56-1.17c.475-.01.95.043 1.41.16l.36-4.47a7.35 7.35 0 00-1.61-.14 5.45 5.45 0 00-3.02.9zm20.79.6a8.32 8.32 0 00-5.39-1.53 14.22 14.22 0 00-6.69 1.57l1.58 3.22a12.468 12.468 0 014.92-1.26c1.82 0 2.72.88 2.72 2.65v.77l-3 .09A11.36 11.36 0 0040.07 15a4.612 4.612 0 00-1.94 4.09 5.54 5.54 0 001.44 4.1 5.392 5.392 0 004 1.44 8.151 8.151 0 003.31-.58 7.161 7.161 0 002.48-2.11h.13l.92 2.37h3.33V12.67a5.65 5.65 0 00-1.94-4.65zm-2.86 9.64a3.33 3.33 0 01-1 2.53 3.63 3.63 0 01-2.64 1c-1.54 0-2.31-.667-2.31-2a2.361 2.361 0 011-2.1 5.83 5.83 0 013.09-.75l1.84-.06.02 1.38zM69.53 5.59c.014 1.172.135 2.34.36 3.49h-.16a5.68 5.68 0 00-5-2.56 5.81 5.81 0 00-4.93 2.4 13.421 13.421 0 000 13.32 5.72 5.72 0 004.85 2.39 5.44 5.44 0 005-2.58h.2l.93 2.26h3.65V0h-4.78l-.12 5.59zm.33 10.57a6.09 6.09 0 01-.94 3.61 3.221 3.221 0 01-2.67 1.06 2.94 2.94 0 01-2.55-1.28 6.93 6.93 0 01-.89-3.88 7.159 7.159 0 01.88-3.92 2.8 2.8 0 012.48-1.36 3.2 3.2 0 012.81 1.22 7 7 0 01.88 4v.55zm21.15-1.1a8.37 8.37 0 01-.89 4.44 3.21 3.21 0 01-2.89 1.33 2.44 2.44 0 01-2.14-.94 4.9 4.9 0 01-.67-2.84V6.84h-4.77v11.42a6.68 6.68 0 001.56 4.75 6.14 6.14 0 004.64 1.64 7.49 7.49 0 003.21-.66 5.08 5.08 0 002.17-1.89h.25l.64 2.23h3.66V6.86h-4.77v8.2zm22.76-7.04a8.34 8.34 0 00-5.39-1.53 14.22 14.22 0 00-6.69 1.57l1.58 3.22a12.471 12.471 0 014.92-1.26c1.82 0 2.72.88 2.72 2.65v.77l-3 .09a11.36 11.36 0 00-5.87 1.47 4.58 4.58 0 00-1.94 4.09 5.542 5.542 0 001.44 4.1 5.379 5.379 0 004 1.44 8.169 8.169 0 003.32-.58 7.16 7.16 0 002.48-2.11h.13l.92 2.37h3.33V12.67a5.645 5.645 0 00-1.95-4.65zm-2.86 9.64a3.332 3.332 0 01-1 2.53 3.626 3.626 0 01-2.64 1c-1.54 0-2.31-.667-2.31-2a2.38 2.38 0 011-2.1 5.889 5.889 0 013.1-.75l1.84-.06.01 1.38zm15.98 2.68a1.884 1.884 0 01-.56-1.5v-8.42h4.89V6.84h-4.89V3.13h-3.05l-1.37 3.68-2.63 1.6v2h2.28v8.42a6.334 6.334 0 001.3 4.35 5.386 5.386 0 004.17 1.44c1.5.042 2.992-.23 4.38-.8v-3.56c-.967.333-1.978.518-3 .55a2.26 2.26 0 01-1.52-.47zM137.76 0c-1.73 0-2.59.78-2.59 2.33s.86 2.34 2.59 2.34a2.7 2.7 0 001.94-.61 2.258 2.258 0 00.66-1.73c0-1.55-.87-2.33-2.6-2.33zm2.38 6.84h-4.77v17.47h4.77V6.84zm21.34 8.71a10.509 10.509 0 00-1-4.8 7.29 7.29 0 00-3-3.14 8.8 8.8 0 00-4.44-1.09 8.221 8.221 0 00-6.28 2.37 9.335 9.335 0 00-2.23 6.66 10.578 10.578 0 001 4.81 7.365 7.365 0 003 3.17 8.809 8.809 0 004.44 1.1 8.18 8.18 0 006.27-2.41 9.38 9.38 0 002.24-6.67zm-5.72 3.94a2.998 2.998 0 01-2.74 1.31 3.07 3.07 0 01-2.78-1.33 7.423 7.423 0 01-.84-3.92 7.181 7.181 0 01.84-3.89 3.003 3.003 0 012.75-1.3 3.059 3.059 0 012.77 1.3 7.238 7.238 0 01.84 3.89 7.466 7.466 0 01-.84 3.94zm14.87-3.4a8.191 8.191 0 01.89-4.42 3.213 3.213 0 012.89-1.34 2.45 2.45 0 012.14.95c.507.853.74 1.84.67 2.83v10.2h4.77V12.92a6.608 6.608 0 00-1.58-4.75 6.12 6.12 0 00-4.63-1.65 7.58 7.58 0 00-3.19.65 5.063 5.063 0 00-2.18 1.91h-.27l-.64-2.24h-3.61v17.47h4.77l-.03-8.22zm49.14-14.62l-2.9 12.47c-.19.75-.4 1.73-.63 3-.23 1.27-.39 2.22-.5 3-.11-.84-.28-1.85-.5-3-.22-1.15-.4-2.05-.55-2.62l-3.32-12.8h-4.58l-3.33 12.8c-.2.68-.41 1.65-.64 2.9-.23 1.25-.36 2.16-.42 2.75-.23-1.68-.6-3.68-1.11-6L198.37 1.5h-4.77l5.83 22.84h5.5l3.08-12c.13-.53.32-1.41.57-2.65.25-1.24.41-2.16.47-2.72 0 .46.2 1.36.47 2.7.27 1.34.48 2.22.6 2.64l3.09 12h5.52l5.81-22.84h-4.77zm21.34 20.79a9.383 9.383 0 002.25-6.67 10.509 10.509 0 00-1-4.8 7.337 7.337 0 00-3-3.14 8.8 8.8 0 00-4.44-1.09 8.207 8.207 0 00-6.28 2.37 9.33 9.33 0 00-2.24 6.66 10.729 10.729 0 001 4.81 7.393 7.393 0 003 3.17 8.808 8.808 0 004.44 1.1 8.17 8.17 0 006.27-2.41zm-9-2.75a7.31 7.31 0 01-.85-3.92 7.074 7.074 0 01.85-3.89 3.573 3.573 0 015.51 0 7.222 7.222 0 01.85 3.89 7.45 7.45 0 01-.85 3.94 2.999 2.999 0 01-2.73 1.31 3.068 3.068 0 01-2.76-1.37l-.02.04zm26.64-8.38l.36-4.47a7.35 7.35 0 00-1.61-.14c-1.067 0-2.11.313-3 .9a6.53 6.53 0 00-2.19 2.36h-.23l-.7-2.94h-3.61v17.47h4.76v-8.89a4.232 4.232 0 011.27-3.28 5.08 5.08 0 013.56-1.17c.468-.009.936.045 1.39.16zm13.96 3.29l6.94-7.58h-5.38l-4.89 5.32-2.08 2.65h-.06l.25-3.97V0h-4.76v24.31h4.76v-5.43l2.05-1.65 5.03 7.08h5.5l-7.36-9.89zm11.04.91a14.487 14.487 0 003 1.56c.94.4 1.69.733 2.25 1a4.69 4.69 0 011.19.8 1.188 1.188 0 01.34.9c0 1-.86 1.5-2.59 1.5-.993-.02-1.98-.161-2.94-.42a16.248 16.248 0 01-3-1.05v3.94c.808.338 1.649.59 2.51.75 1.072.195 2.161.286 3.25.27a9.18 9.18 0 005.58-1.41 4.8 4.8 0 001.87-4.09 5.141 5.141 0 00-.45-2.24 4.54 4.54 0 00-1.4-1.65 13.874 13.874 0 00-3-1.55 19.536 19.536 0 01-3-1.39 1.327 1.327 0 01-.67-1.11c0-.76.7-1.14 2.11-1.14.791 0 1.577.121 2.33.36a25.6 25.6 0 012.45.92l1.44-3.44a14.476 14.476 0 00-6.14-1.37 8.761 8.761 0 00-5.13 1.28 4.122 4.122 0 00-1.8 3.59 5.631 5.631 0 00.43 2.3 4.585 4.585 0 001.37 1.69zM153.38 68.31h13.16v-4h-8.32v-5.89h7.74v-3.97h-7.74v-5.01h8.32v-3.97h-13.16v22.84zm33.59-17.47h-5.41l-3.42 5.57-3.39-5.57h-5.41l5.63 8.55-5.92 8.92h5.4l3.69-5.98 3.67 5.98h5.43l-5.96-8.92 5.69-8.55zm5.76-6.84c-1.73 0-2.59.78-2.59 2.33s.86 2.34 2.59 2.34a2.72 2.72 0 001.94-.61 2.245 2.245 0 00.65-1.73c0-1.55-.86-2.33-2.59-2.33zm2.38 6.84h-4.77v17.47h4.77V50.84zm15.18-.32a5.519 5.519 0 00-5 2.59h-.18c.12-1.58.18-2.73.18-3.45V44h-4.76v24.31h3.64l.8-1.92h.32a6.286 6.286 0 007.589 1.594 6.29 6.29 0 002.151-1.734 10.83 10.83 0 001.81-6.7 11.01 11.01 0 00-1.75-6.61 5.628 5.628 0 00-4.8-2.42zm.86 12.9a2.654 2.654 0 01-2.33 1.35 3 3 0 01-2.66-1.22 7.425 7.425 0 01-.83-4v-.52a6.271 6.271 0 01.85-3.58 2.998 2.998 0 012.58-1.09 2.743 2.743 0 012.39 1.3 6.915 6.915 0 01.87 3.86 7.323 7.323 0 01-.87 3.9zM223.66 44c-1.73 0-2.6.78-2.6 2.33s.87 2.34 2.6 2.34a2.72 2.72 0 001.94-.61 2.282 2.282 0 00.65-1.73c0-1.55-.86-2.33-2.59-2.33zm2.37 6.84h-4.76v17.47h4.76V50.84zm15.79 8.42a13.44 13.44 0 00-3-1.55 19.727 19.727 0 01-3-1.39 1.325 1.325 0 01-.67-1.11c0-.76.7-1.14 2.11-1.14.79 0 1.576.121 2.33.36.832.265 1.649.572 2.45.92l1.44-3.44a14.482 14.482 0 00-6.14-1.37 8.759 8.759 0 00-5.13 1.28 4.113 4.113 0 00-1.8 3.59 5.451 5.451 0 00.43 2.3c.321.647.79 1.21 1.37 1.64a14.437 14.437 0 003 1.56c.94.4 1.69.733 2.25 1 .435.204.836.474 1.19.8.115.118.205.26.264.414.058.155.084.32.076.486 0 1-.86 1.5-2.59 1.5a12.202 12.202 0 01-2.94-.42 16.23 16.23 0 01-3-1.05v3.94c.807.34 1.649.59 2.51.75a16.78 16.78 0 003.25.27 9.181 9.181 0 005.58-1.41 4.8 4.8 0 001.87-4.09 5.141 5.141 0 00-.45-2.24 4.474 4.474 0 00-1.4-1.6zM250.24 44c-1.73 0-2.59.78-2.59 2.33s.86 2.34 2.59 2.34a2.701 2.701 0 001.94-.61 2.245 2.245 0 00.65-1.73c0-1.55-.86-2.33-2.59-2.33zm2.38 6.84h-4.77v17.47h4.77V50.84zm17.35.77a8.802 8.802 0 00-4.44-1.09 8.209 8.209 0 00-6.28 2.37 9.326 9.326 0 00-2.23 6.66 10.578 10.578 0 001 4.81 7.358 7.358 0 002.95 3.17 8.809 8.809 0 004.44 1.1 8.157 8.157 0 006.26-2.41 9.383 9.383 0 002.25-6.67 10.509 10.509 0 00-1-4.8 7.294 7.294 0 00-2.95-3.14zm-1.73 11.88a3.005 3.005 0 01-2.74 1.31 3.069 3.069 0 01-2.78-1.33 7.414 7.414 0 01-.84-3.92 7.181 7.181 0 01.84-3.89 2.996 2.996 0 012.75-1.3 3.059 3.059 0 012.77 1.3 7.238 7.238 0 01.84 3.89 7.476 7.476 0 01-.84 3.94zm20.02-12.97a7.582 7.582 0 00-3.19.65 5.063 5.063 0 00-2.18 1.91h-.27l-.64-2.24h-3.64v17.47h4.77v-8.22a8.191 8.191 0 01.89-4.42 3.206 3.206 0 012.89-1.34 2.45 2.45 0 012.14.95c.506.853.74 1.84.67 2.83v10.2h4.77V56.92a6.612 6.612 0 00-1.58-4.75 6.12 6.12 0 00-4.63-1.65z" fill="#FF5C52"/><path d="M125.89 95.91h3.9v-5.58h-10.48v5.58h3.91c0 .42-.07.84-.11 1.24h-5.22v6.92h2.4v-.74h8.82v.7h2.5v-6.88h-6.06c.13-.39.26-.81.34-1.24zm-4.34-3.68h5.84v1.78h-5.84v-1.78zm7.54 9h-8.82v-2h8.82v2z" fill="#fff"/><path d="M125.77 85.33h-2.54v1.66h-7.2v5.04h2.34v-2.86h12.44v2.86h2.46v-5.04h-7.5v-1.66zm27.12 13.32c-.06 2.06-.24 3-.52 3s-.74-.78-1.06-2.1a22.739 22.739 0 002.74-6.88l-2.16-.4a21.503 21.503 0 01-1.17 3.76c-.21-1.69-.36-3.65-.44-5.74h3.83v-2.18h-1.14l.88-.52a11.25 11.25 0 00-2-2.36l-1.64 1a13.493 13.493 0 011.54 1.92h-1.57v-2.8h-2.26v2.8h-6.03v6.66a21.53 21.53 0 01-.31 4l-.31-1.49-1.54.56v-5.54h1.56v-2.2h-1.56v-4.5h-2.22v4.5h-1.76v2.2h1.76v6.33c-.77.26-1.49.5-2.08.67l.74 2.38c1.57-.62 3.43-1.37 5.21-2.12a7.655 7.655 0 01-1.61 3.14 8.297 8.297 0 011.74 1.48 10.229 10.229 0 002.26-5.25 6 6 0 01.5 1.91c.568.03 1.138.003 1.7-.08a1.606 1.606 0 001.12-.68c.4-.58.48-2.36.54-6.86v-.78h-3.56v-2.22H148c.075 2.96.386 5.91.93 8.82a12.217 12.217 0 01-3.74 3.42 12.771 12.771 0 011.66 1.62 14.272 14.272 0 002.82-2.51c.58 1.4 1.33 2.25 2.32 2.25 1.58 0 2.2-.86 2.5-4a5.226 5.226 0 01-1.6-1.21zm-7.18-4.26c0 3-.11 4-.28 4.32a.555.555 0 01-.5.24 10.17 10.17 0 01-1.09-.05c.216-1.36.32-2.734.31-4.11v-.4h1.56zm21.31-1.2h7.09v-2.48h-7.91c.2-1.88.22-3.72.25-5.38h-2.64c0 1.65 0 3.5-.19 5.38h-7.31v2.48h6.91a12.003 12.003 0 01-7.31 8.82 7.546 7.546 0 011.82 2 13.89 13.89 0 007.52-8.55c1.56 3.89 3.87 6.86 7.5 8.55a11.023 11.023 0 011.8-2.28c-3.77-1.47-6.19-4.63-7.53-8.54zm12.03-2.56h12.84v2.78h2.38v-4.9h-2.68c.57-.7 1.15-1.49 1.7-2.28l-2.6-.76a18.12 18.12 0 01-1.74 3h-3.06l1-.4a12.296 12.296 0 00-1.58-2.9l-2.12.8a12.99 12.99 0 011.26 2.5h-3.16l.74-.34a10.55 10.55 0 00-1.84-2.64l-2 .92a14.9 14.9 0 011.39 2.06h-2.73v4.9h2.26l-.06-2.74z" fill="#fff"/><path d="M191.19 93.26l-1.52-1.16-.5.12h-9v2.04h6.81c-.505.414-1.036.795-1.59 1.14h-1.1v1.28h-7.7v2.22h7.7v2.6c0 .28-.12.38-.52.38h-3.18a9.43 9.43 0 011 2.32 13.13 13.13 0 003.92-.36c1-.36 1.26-1 1.26-2.22v-2.68h7.74v-2.22h-7.62a19.29 19.29 0 004.3-3.46zm15.7 3a11.482 11.482 0 002.21-2.09 28.088 28.088 0 013.49 2.77l1.7-1.82a31.608 31.608 0 00-4-2.82c.337-.62.615-1.269.83-1.94l-2-.42h5v-2.28h-7.23v-2.3h-2.52v2.3h-7.12v2.28h3.76a9.998 9.998 0 01-4.22 5.5 16.177 16.177 0 012 1.62 12.64 12.64 0 003-3.2c.676.48 1.312 1.015 1.9 1.6l1.42-1.7a20.317 20.317 0 00-2.3-1.69 12 12 0 00.7-1.69l-1.92-.44h7.15a8.61 8.61 0 01-4.31 5.08c.502.348.979.728 1.43 1.14h-1.47v1.26h-7.68v2.3h7.68v4.38h2.5v-4.38h7.88v-2.3h-7.88v-1.16zm28.1 3.27v-2h-7.8v-.9h6v-1.74h-6v-.88h7v-1.88h-3.94c.29-.47.61-1 .94-1.6h3.7v-2h-2.59c.48-.7 1-1.6 1.57-2.52l-2.52-.6a17.834 17.834 0 01-1.26 2.92l.65.2h-1.71v-3.28h-2.28v3.28h-1.46v-3.28h-2.24v3.28h-1.81l1-.34a15.283 15.283 0 00-1.52-2.84l-2.06.7c.477.793.891 1.623 1.24 2.48h-2.68v2h4.11-.13c.261.509.481 1.037.66 1.58h-3.82v1.88h6.8v.88h-5.8v1.74h5.8v.9h-7.66v2h5.71a19.999 19.999 0 01-6.37 2.34 10.27 10.27 0 011.54 2 18.993 18.993 0 006.74-3.27v3.51h2.38v-3.6a16.798 16.798 0 006.72 3.38 10.17 10.17 0 011.62-2.16 18.502 18.502 0 01-6.34-2.2l5.81.02zm-11.31-9h4.79a16.902 16.902 0 01-.68 1.6h-3.77l.35-.06a8.042 8.042 0 00-.69-1.5v-.04zm29.07 10.73c0 .32-.1.42-.42.42h-2.44c.335.784.583 1.602.74 2.44a8.2 8.2 0 003.44-.46c.74-.42 1-1.06 1-2.36V85.7h-2.32v15.56zm-8.86-11.09h3.62v-2.18h-3.62v-2.54h-2.28v2.54h-1.28c.17-.6.33-1.22.46-1.84l-2.2-.44a16.196 16.196 0 01-1.84 5.22c.48.17 1.27.48 1.81.74h-1.51v2.16h4.56v1.43h-3.78v7.24h2.14v-5.1h1.64v6.68h2.28V97.4h1.76v2.94c0 .2-.06.24-.24.24h-1.24c.284.637.479 1.31.58 2a4.467 4.467 0 002.34-.36c.6-.36.72-.92.72-1.86v-5.1h-3.92v-1.44h4.4v-2.16h-4.4v-1.49zm-5 1.5c.263-.484.493-.985.69-1.5h2v1.5h-2.69z" fill="#fff"/><path d="M251.39 86.99h-2.24v11.3h2.24v-11.3zm12.5-.84l-2.32-.74a21.057 21.057 0 01-4.6 7.52c.518.81.96 1.668 1.32 2.56.45-.467.871-.961 1.26-1.48v10.08h2.42V90.26a33.418 33.418 0 001.92-4.11z" fill="#fff"/><path d="M269.21 86.13l-2.32-.62a19.997 19.997 0 01-4.26 7.58 14.68 14.68 0 011.82 1.68 21.746 21.746 0 002.66-3.9h.74v13.24h2.46v-4.46h5.46v-2.24h-5.46v-2.24h5.2v-2.18h-5.2v-2.12h5.72v-2.28h-7.79c.36-.81.65-1.63.97-2.46zm23.49 14.76a21.11 21.11 0 002.59-1.58l-1.42-1h2.14v-2h-3.78v-1.36h2.88v-2h-2.88v-1.32h2.7v-5.46h-15.48v5.94c0 3.2-.16 7.72-2.16 10.8.763.333 1.487.749 2.16 1.24 2.1-3.3 2.42-8.52 2.42-12v-.48h2.94v1.32h-2.54v2h2.54v1.36h-3.08v2h2.08v3.07l-2.06.23.34 2.2c2.08-.32 4.88-.72 7.48-1.16l-.08-1.64a10.107 10.107 0 005.32 3.08c.382-.727.859-1.4 1.42-2a10.72 10.72 0 01-3.53-1.24zm-10.81-12.63h10.64v1.42h-10.64v-1.42zm5.14 3.44h3v1.32h-3V91.7zm0 3.32h3v1.36h-3v-1.36zm-1 6.16V98.4h1.77c.372.83.842 1.612 1.4 2.33l-3.17.45zm4-2.78h3.1a20.29 20.29 0 01-2 1.36 7.418 7.418 0 01-1.08-1.41l-.02.05z" fill="#fff"/></svg>