<svg width="678" height="83" fill="none" xmlns="http://www.w3.org/2000/svg"><path d="M14.531 23.274h6.492v7.148c-1.52.309-3.066.466-4.617.469a7.954 7.954 0 01-6.656-2.93c-1.516-1.968-2.274-4.812-2.274-8.531a12.28 12.28 0 012.836-8.508 9.64 9.64 0 017.547-3.164c2.713.002 5.387.645 7.805 1.875l2.414-5.812a25.45 25.45 0 00-10.172-2.109c-5.61 0-10 1.547-13.172 4.64C1.578 9.446 0 13.758 0 19.289c0 5.688 1.36 10.055 4.078 13.1 2.733 3.031 6.686 4.547 11.859 4.547a39.36 39.36 0 005.953-.445 37.3 37.3 0 006.235-1.5V17.227H14.531v6.047zm31.985-12.141a9.784 9.784 0 00-3.28 3.539h-.353l-1.054-4.406h-5.415v26.2h7.15V23.133a6.376 6.376 0 011.9-4.922 7.626 7.626 0 015.343-1.758c.71-.014 1.42.065 2.11.235l.538-6.7a11.572 11.572 0 00-2.414-.21 8.127 8.127 0 00-4.523 1.359m31.182.886c-1.874-1.533-4.57-2.3-8.086-2.3a21.3 21.3 0 00-10.03 2.367l2.366 4.828a18.593 18.593 0 017.383-1.9c2.72 0 4.08 1.328 4.078 3.985v1.148l-4.547.141c-3.922.14-6.859.873-8.812 2.2a6.892 6.892 0 00-2.907 6.14 8.307 8.307 0 002.157 6.141 8.101 8.101 0 005.953 2.156 12.059 12.059 0 004.968-.867 10.65 10.65 0 003.727-3.164h.188l1.382 3.562h4.993V19.008c0-3.125-.937-5.453-2.813-6.985zm-4.286 14.461a5 5 0 01-1.5 3.8 5.454 5.454 0 01-3.96 1.43c-2.313 0-3.469-1.008-3.47-3.024a3.533 3.533 0 011.524-3.14 8.853 8.853 0 014.64-1.126l2.766-.093v2.153zM104.3 8.39a29.22 29.22 0 00.539 5.227h-.239a8.553 8.553 0 00-7.547-3.844 8.735 8.735 0 00-7.406 3.61c-1.782 2.39-2.673 5.734-2.672 10.031 0 4.234.875 7.546 2.625 9.937a8.539 8.539 0 007.265 3.586 8.179 8.179 0 007.43-3.867h.305l1.383 3.4h5.484V0H104.3v8.39zm.492 15.844c-.078 2.547-.547 4.352-1.406 5.414a4.812 4.812 0 01-4.008 1.594 4.373 4.373 0 01-3.82-1.922 10.307 10.307 0 01-1.336-5.812 10.828 10.828 0 011.312-5.883 4.218 4.218 0 013.727-2.039 4.798 4.798 0 014.219 1.828c.875 1.219 1.312 3.234 1.312 6.047v.773zm31.724-1.64c0 3.094-.446 5.313-1.336 6.656a4.84 4.84 0 01-4.336 1.992 3.678 3.678 0 01-3.211-1.406 7.403 7.403 0 01-1.008-4.265v-15.3h-7.148v17.081c0 3.094.781 5.469 2.344 7.125 1.562 1.64 3.882 2.46 6.961 2.461a11.23 11.23 0 004.8-.984 7.617 7.617 0 003.258-2.837h.375l.961 3.352h5.484v-26.2h-7.148l.004 12.325zm34.141-10.571c-1.874-1.533-4.57-2.3-8.086-2.3a21.302 21.302 0 00-10.031 2.367l2.367 4.828a18.6 18.6 0 017.383-1.9c2.718 0 4.078 1.328 4.078 3.985v1.148l-4.547.141c-3.922.14-6.859.873-8.813 2.2a6.893 6.893 0 00-2.906 6.14 8.325 8.325 0 002.156 6.141 8.106 8.106 0 005.953 2.156 12.063 12.063 0 004.969-.867 10.652 10.652 0 003.727-3.164h.187l1.383 3.562h4.992V19.008c0-3.125-.937-5.453-2.812-6.985zm-4.289 14.461a4.985 4.985 0 01-1.5 3.8 5.45 5.45 0 01-3.961 1.43c-2.313 0-3.469-1.008-3.469-3.024a3.54 3.54 0 011.523-3.14 8.859 8.859 0 014.641-1.126l2.766-.093v2.153zm23.922 4.032a2.816 2.816 0 01-.844-2.25V15.633h7.336v-5.367h-7.336V4.688h-4.57l-2.063 5.531-3.937 2.391v3.023h3.424v12.633c0 2.89.648 5.062 1.945 6.515 1.312 1.438 3.398 2.157 6.258 2.157a16.043 16.043 0 006.562-1.2v-5.32a15.49 15.49 0 01-4.5.82 3.423 3.423 0 01-2.273-.726M206.641 0c-2.593 0-3.89 1.164-3.89 3.492 0 2.344 1.297 3.516 3.89 3.516a4.082 4.082 0 002.907-.914 3.427 3.427 0 00.984-2.6c0-2.33-1.297-3.494-3.891-3.494zm3.563 10.266h-7.149v26.203h7.149V10.266zm26.031 1.149a13.22 13.22 0 00-6.656-1.641c-4.047 0-7.188 1.188-9.422 3.563-2.235 2.375-3.352 5.703-3.351 9.984a15.948 15.948 0 001.546 7.218 11.066 11.066 0 004.43 4.758 13.22 13.22 0 006.656 1.641c4.016 0 7.149-1.203 9.4-3.609 2.25-2.406 3.375-5.742 3.375-10.008a15.816 15.816 0 00-1.547-7.2 10.95 10.95 0 00-4.43-4.71l-.001.004zm-2.599 17.808a4.479 4.479 0 01-4.1 1.969 4.603 4.603 0 01-4.176-1.992 11.084 11.084 0 01-1.265-5.883 10.753 10.753 0 011.265-5.836 5.371 5.371 0 018.274 0 10.837 10.837 0 011.265 5.836 11.147 11.147 0 01-1.265 5.906m30.039-19.449a11.179 11.179 0 00-4.781.984 7.493 7.493 0 00-3.282 2.86h-.4l-.961-3.352h-5.459v26.2h7.149V24.141c0-3.094.445-5.305 1.335-6.633a4.82 4.82 0 014.336-2.015 3.658 3.658 0 013.211 1.429 7.294 7.294 0 011.008 4.242v15.305h7.149V19.383c0-3.109-.789-5.484-2.368-7.125-1.578-1.656-3.89-2.484-6.937-2.484zM325.3 20.906c-.281 1.125-.593 2.602-.937 4.43-.344 1.812-.594 3.328-.75 4.547a96.471 96.471 0 00-.75-4.547c-.328-1.765-.602-3.077-.823-3.936l-4.992-19.2h-6.867l-4.992 19.2c-.296 1.031-.617 2.485-.961 4.36-.328 1.86-.539 3.234-.633 4.125-.344-2.533-.898-5.526-1.664-8.977L297.548 2.2H290.4l8.742 34.266h8.25l4.617-17.953c.2-.8.489-2.128.867-3.985.376-1.875.609-3.234.7-4.078.063.688.296 2.04.7 4.055.422 2 .718 3.32.89 3.96l4.641 18h8.273L336.806 2.2h-7.148L325.3 20.906zm33.764-9.491a13.221 13.221 0 00-6.656-1.641c-4.047 0-7.187 1.188-9.422 3.563-2.235 2.375-3.352 5.703-3.352 9.984a15.948 15.948 0 001.547 7.218 11.063 11.063 0 004.43 4.758 13.22 13.22 0 006.656 1.641c4.016 0 7.149-1.203 9.4-3.609 2.251-2.406 3.376-5.742 3.375-10.008a15.803 15.803 0 00-1.546-7.2 10.952 10.952 0 00-4.43-4.71l-.002.004zm-2.598 17.808a4.475 4.475 0 01-4.1 1.969 4.604 4.604 0 01-4.172-1.992 11.075 11.075 0 01-1.266-5.883 10.744 10.744 0 011.266-5.836 5.372 5.372 0 016.422-1.435 5.372 5.372 0 011.851 1.435 10.82 10.82 0 011.266 5.836 11.138 11.138 0 01-1.266 5.906m25.253-18.09a9.788 9.788 0 00-3.281 3.539h-.352l-1.054-4.406h-5.414v26.2h7.148V23.133a6.37 6.37 0 011.9-4.922 7.622 7.622 0 015.343-1.758 8.156 8.156 0 012.11.235l.539-6.7a11.583 11.583 0 00-2.414-.21 8.13 8.13 0 00-4.524 1.359m37.749-.871h-8.062l-7.336 7.969-3.117 3.984h-.094l.375-5.953V0h-7.148v36.469h7.148v-8.156l3.07-2.461 7.547 10.617h8.25l-11.039-14.836 10.406-11.367zm20.547 12.586a20.735 20.735 0 00-4.5-2.32 28.384 28.384 0 01-4.476-2.086 2.012 2.012 0 01-1.008-1.664c0-1.14 1.054-1.711 3.164-1.711 1.185 0 2.362.181 3.492.539 1.14.36 2.367.82 3.68 1.383l2.156-5.156a21.79 21.79 0 00-9.211-2.063c-3.312 0-5.875.64-7.687 1.922a6.202 6.202 0 00-2.7 5.391 8.37 8.37 0 00.633 3.445 6.772 6.772 0 002.063 2.461 21.522 21.522 0 004.453 2.344c1.406.593 2.531 1.117 3.375 1.57a7.034 7.034 0 011.781 1.195 1.84 1.84 0 01.516 1.36c0 1.5-1.297 2.25-3.891 2.25a18.355 18.355 0 01-4.406-.633 25.01 25.01 0 01-4.477-1.571v5.907a17.95 17.95 0 003.774 1.125c1.608.289 3.241.422 4.875.4 3.718 0 6.507-.703 8.367-2.109a7.205 7.205 0 002.812-6.141 7.63 7.63 0 00-.679-3.351 6.875 6.875 0 00-2.11-2.485m22.747 13.615h19.734v-6h-12.469v-8.836h11.6V15.68h-11.6V8.157h12.469V2.2H462.76v34.269zm50.383-26.203h-8.11L499.9 18.61l-5.086-8.344h-8.11l8.438 12.82-8.882 13.383h8.109l5.532-8.977 5.507 8.977h8.133l-8.929-13.383 8.531-12.82zM521.784 0c-2.594 0-3.891 1.164-3.891 3.492 0 2.344 1.297 3.516 3.891 3.516a4.08 4.08 0 002.906-.914 3.412 3.412 0 00.984-2.6c0-2.328-1.297-3.492-3.89-3.492m3.562 10.264h-7.148v26.203h7.148V10.266zm22.774-.492a8.272 8.272 0 00-7.43 3.89h-.281c.187-2.375.281-4.101.281-5.18V0h-7.149v36.469H539l1.2-2.883h.492a9.439 9.439 0 0014.6-.211c1.813-2.375 2.719-5.726 2.719-10.054 0-4.204-.875-7.509-2.625-9.915a8.465 8.465 0 00-7.265-3.632h-.001zm1.29 19.359a3.97 3.97 0 01-3.493 2.016 4.503 4.503 0 01-3.984-1.829c-.828-1.218-1.242-3.233-1.242-6.046V22.5c.031-2.5.453-4.289 1.266-5.367a4.494 4.494 0 013.867-1.641 4.113 4.113 0 013.586 1.946 10.336 10.336 0 011.312 5.789c.126 2.053-.329 4.1-1.312 5.906M568.174 0c-2.593 0-3.89 1.164-3.89 3.492 0 2.344 1.297 3.516 3.89 3.516a4.082 4.082 0 002.907-.914 3.412 3.412 0 00.984-2.6c0-2.33-1.297-3.494-3.891-3.494zm3.563 10.266h-7.149v26.203h7.149V10.266zm23.688 12.586a20.77 20.77 0 00-4.5-2.32 28.445 28.445 0 01-4.477-2.086 2.012 2.012 0 01-1.008-1.664c0-1.14 1.055-1.711 3.164-1.711 1.185 0 2.363.181 3.492.539 1.141.36 2.367.82 3.68 1.383l2.156-5.156a21.786 21.786 0 00-9.211-2.063c-3.312 0-5.874.64-7.687 1.922a6.19 6.19 0 00-2.049 2.345 6.193 6.193 0 00-.651 3.046 8.386 8.386 0 00.632 3.445 6.782 6.782 0 002.063 2.461 21.547 21.547 0 004.453 2.344c1.406.593 2.531 1.117 3.375 1.57a7.02 7.02 0 011.781 1.195 1.826 1.826 0 01.516 1.36c0 1.5-1.297 2.25-3.891 2.25a18.367 18.367 0 01-4.406-.633 25.033 25.033 0 01-4.477-1.571v5.907a17.95 17.95 0 003.774 1.125c1.609.288 3.241.422 4.875.4 3.719 0 6.508-.703 8.367-2.109a7.212 7.212 0 002.813-6.141 7.63 7.63 0 00-.68-3.351 6.863 6.863 0 00-2.109-2.485M608.05 0c-2.594 0-3.891 1.164-3.891 3.492 0 2.344 1.297 3.516 3.891 3.516a4.078 4.078 0 002.906-.914 3.412 3.412 0 00.984-2.6c0-2.33-1.296-3.494-3.89-3.494zm3.562 10.266h-7.148v26.203h7.148V10.266zm26.031 1.149a13.216 13.216 0 00-6.656-1.641c-4.047 0-7.187 1.188-9.422 3.563-2.235 2.375-3.352 5.703-3.351 9.984a15.934 15.934 0 001.547 7.218 11.06 11.06 0 004.429 4.761 13.22 13.22 0 006.657 1.641c4.015 0 7.149-1.203 9.4-3.609 2.251-2.406 3.376-5.742 3.375-10.008a15.816 15.816 0 00-1.547-7.2 10.95 10.95 0 00-4.43-4.71l-.002.001zm-2.598 17.811a4.475 4.475 0 01-4.1 1.969 4.598 4.598 0 01-4.172-1.992 11.094 11.094 0 01-1.265-5.883 10.762 10.762 0 011.265-5.836 5.372 5.372 0 018.274 0 10.82 10.82 0 011.266 5.836 11.138 11.138 0 01-1.266 5.906m36.972-16.968c-1.579-1.656-3.891-2.484-6.938-2.484a11.179 11.179 0 00-4.781.984 7.495 7.495 0 00-3.281 2.859h-.4l-.961-3.351H650.2v26.2h7.149V24.141c0-3.094.446-5.305 1.336-6.633a4.822 4.822 0 014.336-2.016 3.656 3.656 0 013.211 1.43 7.302 7.302 0 011.007 4.242v15.305h7.149V19.383c0-3.109-.789-5.484-2.367-7.125" fill="#FF5C52"/><path d="M438.679 70.509h5.46V62.7h-14.672v7.812h5.47a44.77 44.77 0 01-.151 1.736h-7.335v9.688h3.36V80.9h12.348v.98h3.5v-9.635h-8.482c.156-.554.325-1.14.5-1.736h.002zm-6.079-5.152h8.176v2.492H432.6v-2.492zm10.556 12.628h-12.345v-2.856h12.348l-.003 2.856z" fill="#fff"/><path d="M438.455 55.7H434.9v2.324h-10.08v7.056h3.28v-4h17.416v4h3.444v-7.059h-10.5l-.005-2.321zm37.94 18.645c-.084 2.884-.336 4.2-.728 4.2-.535 0-1.046-1.1-1.49-2.939a31.99 31.99 0 003.842-9.633l-3.024-.56a29.563 29.563 0 01-1.646 5.271c-.285-2.372-.5-5.126-.61-8.043h5.361v-3.052h-1.6l1.232-.728a15.712 15.712 0 00-2.744-3.3L472.7 56.9a18.586 18.586 0 012.157 2.688h-2.2c-.017-1.3-.015-2.609.011-3.92h-3.164c.009 1.3.027 2.614.058 3.92h-8.486v9.324a29.02 29.02 0 01-.439 5.614l-.429-2.086c-.718.262-1.441.524-2.156.782v-7.753h2.184v-3.08h-2.184v-6.3h-3.108v6.3h-2.464v3.08h2.464v8.852a79.79 79.79 0 01-2.912.948l1.036 3.332c2.194-.873 4.81-1.92 7.311-2.978a10.728 10.728 0 01-2.271 4.406 11.624 11.624 0 012.436 2.072 14.29 14.29 0 003.176-7.328c.371.841.604 1.737.688 2.652.795.042 1.593.005 2.38-.112a2.24 2.24 0 001.568-.952c.56-.812.672-3.3.756-9.6.028-.336.028-1.092.028-1.092h-4.984v-3.028h5.5a77.815 77.815 0 001.291 12.341 17.043 17.043 0 01-5.226 4.795c.842.684 1.62 1.443 2.324 2.268a20.025 20.025 0 003.943-3.515c.809 1.973 1.867 3.151 3.253 3.151 2.212 0 3.08-1.2 3.5-5.572a7.324 7.324 0 01-2.352-1.764h.006zm-10.056-5.964c-.058 4.133-.154 5.663-.394 6.048a.776.776 0 01-.7.336 12.697 12.697 0 01-1.515-.079c.298-1.9.44-3.822.423-5.745v-.56h2.186zM496.2 66.7h9.928v-3.471h-11.062c.269-2.631.3-5.205.341-7.532h-3.7c-.025 2.308 0 4.9-.269 7.532h-10.227V66.7h9.673a16.884 16.884 0 01-10.233 12.348A10.591 10.591 0 01483.2 81.9a19.415 19.415 0 0010.513-11.948c2.19 5.441 5.437 9.575 10.515 11.948a15.426 15.426 0 012.52-3.192c-5.282-2.093-8.676-6.54-10.544-12.012m16.843-3.579h17.92v3.892h3.333v-6.86h-3.741a65.66 65.66 0 002.369-3.192l-3.64-1.064a26.358 26.358 0 01-2.424 4.256h-4.319l1.451-.56a17.262 17.262 0 00-2.212-4.06l-2.968 1.12a18.51 18.51 0 011.776 3.5h-4.438l1.038-.476a14.76 14.76 0 00-2.576-3.7l-2.856 1.288a20.14 20.14 0 011.944 2.884h-3.82v6.86h3.164l-.001-3.888z" fill="#fff"/><path d="M530.043 66.729l-2.128-1.624-.7.168h-12.656v2.884h9.528a21.403 21.403 0 01-2.22 1.6h-1.54v1.792h-10.78v3.108h10.78v3.64c0 .392-.168.532-.728.532-.56 0-2.66 0-4.452-.056a13.173 13.173 0 011.372 3.248 18.38 18.38 0 005.488-.5c1.344-.5 1.764-1.372 1.764-3.108v-3.76h10.836v-3.108H524a27.501 27.501 0 006.04-4.816m22.011 4.249a15.74 15.74 0 003.093-2.926 41.01 41.01 0 014.887 3.884l2.38-2.547a45.345 45.345 0 00-5.53-3.956c.464-.868.853-1.774 1.162-2.708l-2.846-.589h7.074v-3.192h-10.22v-3.219h-3.528v3.219h-9.968v3.192h5.261a13.944 13.944 0 01-5.9 7.7c.983.68 1.91 1.439 2.772 2.267a17.913 17.913 0 004.2-4.477 20.57 20.57 0 012.663 2.238l1.988-2.381a28.457 28.457 0 00-3.216-2.367c.374-.767.7-1.556.976-2.364l-2.684-.617h10.007a12.165 12.165 0 01-6.035 7.114 17.706 17.706 0 012 1.594h-2.056v1.764h-10.76v3.22h10.752v6.133h3.528v-6.132h11.032v-3.22h-11.032v-1.63zm39.312 4.599v-2.744h-10.92v-1.26h8.428v-2.436h-8.428V67.9h9.744v-2.627h-5.522a76.42 76.42 0 001.315-2.24h5.271v-2.772h-3.624a68.183 68.183 0 002.2-3.528l-3.528-.84a25.015 25.015 0 01-1.764 4.088l.9.28h-2.389v-4.592h-3.192v4.592h-2.044v-4.592h-3.136v4.592h-2.534l1.33-.476a21.336 21.336 0 00-2.128-3.976l-2.884.98a26.191 26.191 0 011.748 3.472h-3.764v2.772h5.758l-.181.028c.363.713.67 1.452.919 2.212h-5.343V67.9h9.52v1.232h-8.12v2.436h8.12v1.26h-10.728v2.744h8.049a28.47 28.47 0 01-8.917 3.276 14.398 14.398 0 012.156 2.8 26.637 26.637 0 009.436-4.577v4.913h3.332v-5.041a23.644 23.644 0 009.408 4.738 14.231 14.231 0 012.268-3.024 26.209 26.209 0 01-8.879-3.08h8.123zm-15.829-12.544h6.7c-.279.762-.597 1.51-.952 2.24h-5.273l.488-.084a12.071 12.071 0 00-.961-2.156m28.259-.56h5.068v-3.052h-5.068v-3.556H600.6v3.556h-1.8a35.15 35.15 0 00.648-2.576l-3.08-.616a22.665 22.665 0 01-2.576 7.308c.661.236 1.795.671 2.539 1.036h-2.119V67.6h6.388v2.016h-5.292v10.133h3v-7.14h2.3v9.352h3.192v-9.352h2.464v4.116c0 .28-.084.336-.336.336s-.98 0-1.736-.028c.401.91.673 1.871.808 2.856a6.265 6.265 0 003.276-.5c.84-.5 1.008-1.288 1.008-2.6v-7.176h-5.488V67.6h6.16v-3.027h-6.16l-.001-2.1zm-6.983 2.1c.357-.682.676-1.383.957-2.1h2.831v2.1h-3.788zm19.415 13.44c0 .448-.14.588-.588.588-.5 0-1.96 0-3.416-.056a16.373 16.373 0 011.036 3.416 11.48 11.48 0 004.816-.644c1.036-.588 1.4-1.484 1.4-3.3V56.173h-3.248v21.84z" fill="#fff"/><path d="M614.323 58.021h-3.136v15.82h3.136v-15.82zm17.556-1.176l-3.248-1.036a29.487 29.487 0 01-6.44 10.528 21.843 21.843 0 011.848 3.584 25.697 25.697 0 001.764-2.074v14.114h3.388V62.623a47.635 47.635 0 002.688-5.778" fill="#fff"/><path d="M639.271 56.817l-3.248-.868a28.013 28.013 0 01-5.964 10.612 20.616 20.616 0 012.548 2.352 30.53 30.53 0 003.721-5.46h1.039v18.536h3.444v-6.244h7.644v-3.136h-7.644v-3.136h7.28v-3.052h-7.28v-2.968h8.008v-3.192h-10.912a43.046 43.046 0 001.364-3.444m32.882 20.661a30.54 30.54 0 003.63-2.209l-1.983-1.344h2.99V71.1h-5.29v-1.9h4.032v-2.8H671.5v-1.855h3.78V56.9h-21.673v8.316c0 4.48-.224 10.808-3.024 15.12a16.038 16.038 0 013.024 1.736c2.94-4.62 3.388-11.928 3.388-16.856v-.672h4.116v1.848h-3.556v2.8h3.556v1.9H656.8v2.828h2.912v4.288c-1.057.131-2.04.246-2.884.332l.476 3.08c2.912-.448 6.832-1.008 10.473-1.624l-.112-2.3a14.099 14.099 0 007.447 4.316 12.87 12.87 0 011.988-2.772 15.146 15.146 0 01-4.946-1.767l-.001.005zm-15.158-17.749h14.9v1.988h-14.9v-1.988zm7.2 4.816h4.172v1.848h-4.172v-1.848zm0 4.648h4.172v1.9h-4.172v-1.9zm-1.4 8.617v-3.885h2.483a15.458 15.458 0 001.956 3.252c-1.493.221-3 .436-4.439.633zm5.659-3.885h4.346a31.561 31.561 0 01-2.844 1.9 10.35 10.35 0 01-1.509-1.9" fill="#fff"/></svg>