<svg width="692" height="118" fill="none" xmlns="http://www.w3.org/2000/svg"><path d="M6.599 75.092c.089-.16.19-.3.311-.388.09-.07.121-.14.121-.21 0-.102-.032-.159-.21-.242-.28-.12-.68-.26-1.068-.368-.05.368-.12.63-.298.998-.98 2.187-2.887 4.564-5.455 6.103.229.12.439.33.61.591.121.159.16.229.248.229.051 0 .121-.05.26-.159 2.455-1.761 4.063-3.7 5.48-6.554zm3.655-1.112c-.07-.14-.101-.14-.311-.032l-.49.21c-.19.089-.229.102-.171.248 1.24 2.746 3.306 5.295 5.995 7.164.12.09.19.14.248.14.07 0 .12-.07.228-.248.16-.26.37-.54.579-.699-2.69-1.577-4.857-4.024-6.078-6.783zm.28 8.492c-.108-.108-.12-.108-.299.02l-.458.28c-.21.14-.26.171-.171.279a28.925 28.925 0 012.2 2.988c-1.978.26-4.368.521-6.523.7.94-2.08 1.799-4.317 2.428-6.066.16-.457.28-.66.42-.858.089-.108.12-.14.12-.248 0-.089-.088-.171-.228-.229-.33-.12-.7-.228-1.119-.33-.07.56-.21 1.049-.47 1.85-.458 1.43-1.33 3.725-2.359 5.976-.172 0-.35.019-.521.019-.77.05-1.38.07-1.94.032.09.438.191.839.3 1.15.031.14.108.21.171.21.09 0 .14-.032.229-.09.14-.088.318-.158.7-.19 3.076-.28 6.535-.63 9.332-1.068.318.521.61 1.068.928 1.66.07.14.108.12.35 0l.54-.319c.229-.12.248-.158.172-.26-1.272-2.187-2.232-3.636-3.802-5.505zm23.579-4.735c.121 0 .14-.02.14-.16v-.839c0-.12-.019-.14-.14-.14-.089 0-.66.039-2.41.039h-3.915v-1.45c0-.75.032-1.049.108-1.208.05-.12.089-.19.089-.311 0-.07-.09-.14-.229-.16-.388-.05-.648-.069-1.208-.088.09.42.12.89.12 1.767v1.45h-3.566c-1.729 0-2.307-.038-2.409-.038-.12 0-.14.019-.14.14v.839c0 .14.02.159.14.159.102 0 .68-.032 2.41-.032h8.6c1.743-.007 2.321.032 2.41.032zm-10.47 1.29l-.579.19c-.248.09-.26.109-.21.23a29.793 29.793 0 011.679 6.064c.032.16.07.172.33.109l.61-.178c.21-.051.21-.102.192-.23a31.535 31.535 0 00-1.78-6.134c-.032-.102-.07-.102-.242-.05z" fill="#fff"/><path d="M34.984 86.79c-.108 0-.63.037-2.27.037h-3.426c.909-2.117 1.589-4.125 2.218-6.293.108-.369.19-.61.33-.77.07-.088.16-.19.16-.298 0-.09-.038-.14-.172-.191-.4-.159-.77-.26-1.227-.388-.05.579-.14 1.03-.35 1.818a47.791 47.791 0 01-2.097 6.116h-6.103c-1.628 0-2.168-.038-2.257-.038-.121 0-.14.019-.14.14v.87c0 .121.019.14.14.14.089 0 .63-.038 2.257-.038h10.66c1.64 0 2.169.039 2.27.039.121 0 .14-.02.14-.14v-.871c.007-.115-.013-.134-.133-.134zm12.2-7.502h4.367c1.678 0 2.238.031 2.327.031.12 0 .14-.019.14-.159v-.8c0-.121-.02-.14-.14-.14-.09 0-.649.038-2.327.038h-4.704c.101-.91.159-1.85.171-2.836.02-.8.051-1.138.14-1.31.051-.12.102-.19.102-.33 0-.089-.07-.159-.242-.19-.35-.051-.839-.09-1.24-.109.09.522.109.998.09 1.977-.02.999-.051 1.927-.14 2.798h-4.126c-1.678 0-2.238-.038-2.327-.038-.12 0-.14.019-.14.14v.8c0 .14.02.16.14.16.09 0 .649-.032 2.327-.032h4.005c-.19 1.258-.509 2.377-1.01 3.426-1.018 2.098-2.868 3.948-5.824 5.175.229.159.451.35.648.591.121.172.178.248.261.248.07 0 .14-.032.28-.089 2.689-1.348 4.437-3.007 5.645-5.486.42-.878.737-1.87.96-2.956 1.138 3.757 3.668 6.802 6.694 8.391.12.07.21.108.26.108.09 0 .14-.07.249-.26.171-.28.4-.54.63-.731-3.548-1.405-6.097-4.762-7.216-8.417zm26.179 3.744c-.089 0-.63.032-2.27.032h-4.647v-.21c0-.28 0-.47.02-.597 1.1-.63 1.99-1.208 2.689-1.768.4-.33.56-.4.73-.458.109-.031.179-.108.179-.228 0-.121-.108-.3-.35-.54-.28-.28-.388-.37-.49-.37-.07 0-.12.02-.171.032-.05.02-.172.032-.451.032h-4.895c-1.64 0-2.187-.032-2.27-.032-.12 0-.14.02-.14.14v.719c0 .12.02.14.14.14.089 0 .63-.032 2.27-.032h4.704a15.34 15.34 0 01-2.27 1.608c-.26-.07-.559-.12-.89-.178.09.439.121.96.121 1.73h-4.774c-1.64 0-2.187-.033-2.27-.033-.12 0-.14.02-.14.14v.77c0 .12.02.14.14.14.09 0 .63-.032 2.27-.032h4.774v3.026c0 .56-.26.68-.77.68-.717 0-1.207-.032-1.817-.108.159.21.28.54.369.807.088.35.088.33.42.33 1.627.039 2.059-.05 2.427-.279.35-.248.471-.521.471-1.138 0-.42-.02-1.138-.02-1.5v-1.818H71.1c1.64 0 2.187.031 2.27.031.12 0 .14-.019.14-.14v-.769c-.007-.108-.02-.127-.147-.127z" fill="#fff"/><path d="M61.303 76.408c-1.697 0-2.307-.038-2.41-.038-.12 0-.14.019-.14.12 0 .109.033.37.033.96v.61c0 1.54-.032 1.768-.032 1.87 0 .12.019.14.14.14h.8c.122 0 .14-.02.14-.14v-2.607h12.041v2.607c0 .12.02.14.14.14h.788c.14 0 .16-.02.16-.14 0-.09-.032-.312-.032-1.87v-.718c0-.49.031-.769.031-.858 0-.102-.019-.12-.159-.12-.089 0-.699.037-2.409.037h-.731a18.03 18.03 0 001.049-1.767c.089-.159.229-.33.33-.4.09-.051.121-.121.121-.191 0-.09-.05-.159-.19-.229-.28-.14-.649-.28-1.03-.369-.051.33-.14.61-.23.801a11.88 11.88 0 01-1.137 2.15h-7.273v.012z" fill="#fff"/><path d="M61.932 76.128c.051 0 .108-.032.229-.089l.47-.229c.21-.108.23-.108.16-.229a13.838 13.838 0 00-1.31-1.958c-.09-.101-.14-.101-.33-.019l-.44.19c-.21.09-.228.14-.158.23.451.56.96 1.31 1.277 1.977.032.089.051.127.102.127zm4.056-.298l.47-.172c.23-.108.249-.108.192-.229-.28-.7-.649-1.418-1.081-2.06-.07-.108-.121-.108-.299-.032l-.47.16c-.191.07-.248.108-.16.228.401.63.732 1.208 1.018 2.066.05.14.082.14.33.038zm15.359-.21c-.68-.719-1.5-1.361-2.327-1.889-.108-.07-.159-.05-.28.09l-.387.4c-.16.159-.16.19-.051.26.718.452 1.627 1.24 2.326 2.01.109.108.14.088.28-.07l.388-.471c.14-.153.14-.229.05-.33zm11.309 5.435c-.108 0-.718.032-2.479.032H87.17v-3.179h2.2c1.71 0 2.288.032 2.377.032.121 0 .14-.02.14-.14v-.731c0-.12-.019-.14-.14-.14-.088 0-.66.032-2.377.032h-2.2v-1.297c0-1.049.051-1.52.108-1.678.051-.14.09-.21.09-.312 0-.07-.09-.14-.21-.159-.388-.05-.68-.07-1.138-.089.089.61.108 1.1.108 2.27v1.258h-1.5c-1.71 0-2.27-.031-2.36-.031-.12 0-.14.019-.14.14v.73c0 .121.02.14.14.14.09 0 .65-.031 2.36-.031h1.5v3.178H83.8c-1.767 0-2.378-.031-2.48-.031-.12 0-.14.019-.14.14v.73c0 .14.02.16.14.16.109 0 .719-.032 2.48-.032h1.52c-.49 1.837-1.1 3.407-1.768 4.914l-.63.05c-.508.032-1.067.052-1.78.052.07.368.172.75.28 1.1.032.12.121.228.23.228.107 0 .177-.07.279-.12.089-.051.229-.109.718-.16 2.937-.33 5.296-.629 8.061-1.087.33.509.649 1.05.948 1.609.05.12.088.12.311-.032l.49-.318c.171-.12.171-.159.12-.26-.998-1.679-1.996-3.077-3.236-4.425-.07-.07-.12-.07-.247.019l-.44.26c-.19.121-.209.172-.107.28.56.649 1.1 1.31 1.59 2.01-1.8.279-3.497.508-5.436.68a40.92 40.92 0 001.78-4.807h3.687c1.767 0 2.377.032 2.48.032.1 0 .12-.019.12-.159v-.73c.013-.109-.006-.128-.115-.128zm-12.65-.438l.42-.49c.108-.12.108-.159.019-.248-.77-.731-1.628-1.329-2.467-1.837-.108-.051-.171-.051-.28.089l-.368.439c-.121.14-.14.178-.02.247.789.49 1.679 1.17 2.397 1.927.102.101.121.082.3-.127zm.489 2.676c-.248-.171-.42-.299-.591-.521-.49 1.73-1.049 3.128-1.59 4.196-.26.521-.45.87-.788 1.29.312.248.54.4.84.579.12.07.19.089.26.089s.121-.09.14-.21c.02-.159.14-.42.299-.788.528-1.22 1.119-2.677 1.59-4.107.1-.35.1-.369-.16-.528zm24.24-6.955c.02-.299.02-.598.02-.91 0-.438.069-.787.158-.978.051-.121.109-.21.109-.35 0-.108-.109-.171-.248-.21a10.9 10.9 0 00-1.31-.14c.089.61.108 1.12.121 2.08.07 5.015-2.34 9.599-7.025 11.85.229.158.458.368.648.629.121.178.178.26.248.26s.14-.05.261-.12c3.547-2.01 5.925-5.226 6.662-9.613.649 3.516 2.537 7.095 6.504 9.632.121.088.191.12.261.12s.12-.07.228-.248c.159-.28.369-.52.611-.718-4.59-2.581-6.548-6.586-7.248-11.284zm31.393 7.463c0-.14-.019-.159-.14-.159-.108 0-.718.032-2.479.032h-3.687c.26-.578.489-1.189.718-1.92h1.64c1.64 0 2.219.032 2.308.032.121 0 .14-.019.14-.14 0-.089-.038-.388-.038-1.29v-1.297c0-.89.038-1.189.038-1.278 0-.12-.019-.14-.14-.14-.089 0-.661.032-2.308.032h-3.897c-1.646 0-2.199-.032-2.307-.032-.121 0-.14.02-.14.14 0 .089.032.388.032 1.278v1.297c0 .909-.032 1.208-.032 1.29 0 .121.019.14.14.14.101 0 .661-.032 2.307-.032h1.151a15.91 15.91 0 01-.731 1.92h-1.698c-1.78 0-2.409-.032-2.498-.032-.121 0-.14.02-.14.16 0 .088.032.45.032 1.5v1.03c0 2.13-.032 2.466-.032 2.568 0 .108.019.12.14.12h.82c.108 0 .121-.019.121-.12v-.731h9.599v.66c0 .109.019.122.14.122h.801c.121 0 .14-.02.14-.121 0-.108-.038-.439-.038-2.55v-1.17c0-.857.038-1.22.038-1.309zm-9.25-5.264h6.694v2.378h-6.694v-2.378zm8.163 8.723h-9.599v-2.69h9.599v2.69z" fill="#fff"/><path d="M137.298 75.32c0-.12-.019-.14-.14-.14-.108 0-.7.032-2.41.032h-4.125v-.247c0-.789.019-1.05.089-1.221.031-.12.089-.19.089-.311 0-.07-.07-.14-.21-.16-.331-.038-.719-.05-1.138-.07.108.42.121.878.121 1.78v.23h-3.827c-1.711 0-2.308-.032-2.41-.032-.121 0-.14.019-.14.14 0 .089.032.35.032.94v.592c0 1.557-.032 1.767-.032 1.85 0 .12.019.14.14.14h.801c.121 0 .14-.02.14-.14v-2.569h11.939v2.569c0 .12.019.14.14.14h.801c.121 0 .14-.02.14-.14 0-.09-.032-.312-.032-1.85v-.7c-.006-.483.032-.743.032-.832zm18.404.541c.051 0 .102-.032.21-.102l.33-.228c.21-.14.229-.178.159-.28a8.474 8.474 0 00-1.309-1.52c-.108-.108-.108-.12-.299 0l-.35.21c-.21.121-.229.16-.121.248.458.439.89.98 1.259 1.558.051.063.07.114.121.114zm-9.479 8.029c0-.248.019-.47.07-.661-.521.299-1.068.56-1.608.788v-5.066h.121c1.099 0 1.417.031 1.519.031.121 0 .14-.019.14-.14v-.73c0-.121-.019-.14-.14-.14-.108 0-.42.038-1.519.038h-.121v-2.098c0-1.17.051-1.609.108-1.818.051-.121.089-.21.089-.3 0-.088-.089-.139-.21-.158-.33-.051-.68-.09-1.138-.102.121.68.14 1.17.14 2.41v2.066h-.28c-1.119 0-1.43-.038-1.519-.038-.121 0-.14.019-.14.14v.73c0 .121.019.14.14.14.089 0 .4-.031 1.519-.031h.28v5.473l-.699.229a7.762 7.762 0 01-1.399.311c.089.35.191.68.299.96.051.121.121.191.191.191.089 0 .159-.07.229-.12.069-.052.228-.14.591-.28 1.03-.369 2.117-.82 3.026-1.31.311-.184.311-.153.311-.515z" fill="#fff"/><path d="M157.329 85.372c-.209-.108-.457-.248-.61-.439-.108 1.5-.241 2.429-.578 2.429-.42 0-1.221-.878-1.85-2.867.61-1.03 1.138-2.238 1.589-3.739.172-.597.248-.82.369-.979.089-.12.14-.19.14-.28 0-.107-.07-.19-.21-.247-.28-.121-.56-.21-.941-.318a9.915 9.915 0 01-.312 1.697c-.279.98-.597 1.85-.998 2.62-.451-1.749-.699-3.669-.801-5.964h1.45c1.71 0 2.288.032 2.396.032.121 0 .14-.019.14-.14v-.73c0-.122-.019-.122-.14-.122-.108 0-.68.02-2.396.02h-1.488v-1.19c0-.838.051-1.137.108-1.258a.886.886 0 00.089-.33c0-.07-.051-.14-.229-.172a6.762 6.762 0 00-1.087-.121c.089.648.108 1.45.108 2.149 0 .311 0 .629.019.928h-2.479c-1.71 0-2.327-.02-2.409-.02-.121 0-.14 0-.14.122 0 .108.032.629.032 1.977 0 1.837-.02 3.445-.261 4.996-.312 1.94-1.208 3.586-2.327 4.756.229.089.471.229.68.4.121.108.172.172.248.172.051 0 .108-.07.191-.21.979-1.259 1.869-3.007 2.168-4.755a24.96 24.96 0 00.299-3.166h2.187c0 1.487-.159 2.956-.28 3.458-.14.452-.318.579-.68.579-.35 0-.7-.051-1.221-.14.108.242.159.47.191.731.032.33.051.33.279.369.312.031.63.031 1.011.031.56 0 1.1-.298 1.24-.877.229-.75.388-2.028.439-3.897.019-.318.019-.648.05-1.068 0-.12-.031-.159-.158-.159-.109 0-.318.032-1.151.032h-1.888v-2.41h4.018c.12 2.55.451 5.036 1.118 7.114-1.099 1.609-2.606 2.728-4.526 3.618.21.108.42.28.579.47.12.14.171.21.26.21.051 0 .14-.05.28-.12 1.57-.84 2.797-1.8 3.776-3.097.82 2.168 1.799 3.096 2.549 3.096.77 0 1.208-.597 1.418-2.727.019-.305.019-.324-.261-.464zm11.933-6.084h4.368c1.678 0 2.237.031 2.326.031.121 0 .14-.019.14-.159v-.8c0-.121-.019-.14-.14-.14-.089 0-.648.038-2.326.038h-4.705c.108-.91.159-1.85.178-2.836.019-.8.051-1.138.14-1.31.051-.12.108-.19.108-.33 0-.089-.07-.159-.248-.19-.349-.051-.839-.09-1.239-.109.089.522.108.998.089 1.977-.019.999-.051 1.927-.14 2.798h-4.126c-1.678 0-2.238-.038-2.327-.038-.121 0-.14.019-.14.14v.8c0 .14.019.16.14.16.089 0 .649-.032 2.327-.032h4.005c-.191 1.258-.509 2.377-1.011 3.426-1.017 2.098-2.867 3.948-5.823 5.175.229.159.458.35.648.591.121.172.172.248.261.248.07 0 .14-.032.28-.089 2.689-1.348 4.437-3.007 5.645-5.486.42-.878.737-1.87.96-2.956 1.138 3.757 3.668 6.802 6.694 8.391.121.07.21.108.261.108.089 0 .14-.07.248-.26.171-.28.4-.54.629-.731-3.547-1.405-6.103-4.762-7.222-8.417zm14.749-3.16c.051 0 .108-.032.229-.089l.47-.229c.21-.108.229-.108.159-.229a13.765 13.765 0 00-1.31-1.958c-.089-.101-.139-.101-.33-.019l-.439.19c-.21.09-.229.14-.159.23.452.56.96 1.31 1.278 1.977.032.089.051.127.102.127z" fill="#fff"/><path d="M180.832 79.936c0 .12.019.14.14.14h.801c.121 0 .14-.02.14-.14V77.33h12.047v2.606c0 .12.019.14.14.14h.788c.14 0 .159-.02.159-.14 0-.089-.038-.311-.038-1.869v-.718c0-.49.038-.77.038-.859 0-.101-.019-.12-.159-.12-.089 0-.699.038-2.409.038h-.738c.439-.649.738-1.17 1.049-1.767.089-.16.229-.331.331-.401.089-.05.12-.12.12-.19 0-.09-.05-.16-.19-.23a4.87 4.87 0 00-1.03-.368c-.051.33-.14.61-.229.8-.318.75-.648 1.418-1.138 2.15h-7.273c-1.697 0-2.307-.039-2.409-.039-.121 0-.14.02-.14.121 0 .108.038.369.038.96v.61c-.006 1.552-.038 1.78-.038 1.882z" fill="#fff"/><path d="M188.067 75.83l.47-.172c.229-.108.248-.108.191-.229-.28-.7-.648-1.418-1.087-2.06-.07-.108-.121-.108-.299-.032l-.47.16c-.191.07-.248.108-.159.228.4.63.731 1.208 1.011 2.066.063.14.101.14.343.038zm7.381 7.202c-.089 0-.63.032-2.27.032h-4.647v-.21c0-.28 0-.47.019-.597 1.1-.63 1.99-1.208 2.696-1.768.4-.33.559-.4.731-.458a.22.22 0 00.171-.228c0-.121-.108-.3-.349-.54-.28-.28-.388-.37-.49-.37-.07 0-.121.02-.178.032-.051.02-.171.032-.451.032h-4.895c-1.64 0-2.187-.032-2.27-.032-.121 0-.14.02-.14.14v.719c0 .12.019.14.14.14.089 0 .63-.032 2.27-.032h4.704a15.33 15.33 0 01-2.269 1.608c-.261-.07-.56-.12-.89-.178.089.439.12.96.12 1.73h-4.774c-1.64 0-2.187-.033-2.27-.033-.12 0-.139.02-.139.14v.77c0 .12.019.14.139.14.089 0 .63-.032 2.27-.032h4.774v3.026c0 .56-.26.68-.769.68a13.38 13.38 0 01-1.818-.108c.159.21.28.54.369.807.089.35.089.33.419.33 1.628.039 2.066-.05 2.429-.279.349-.248.47-.521.47-1.138 0-.42-.019-1.138-.019-1.5v-1.818h4.647c1.64 0 2.187.031 2.27.031.121 0 .14-.019.14-.14v-.769c0-.108-.019-.127-.14-.127zM21.157 56.268c-7.139 0-8.601-2.581-8.601-9.98V3.617h.171l17.642 55.58h3.013L51.71 3.275h.172v47.323c0 4.133-1.462 5.677-7.743 5.677V59.2H69.09v-2.925c-6.968 0-8.43-1.55-8.43-5.677V8.607c0-4.131 1.462-5.676 7.66-5.676V.006H49.308L34.94 44.056h-.172L20.725 0H.509v2.924c6.967 0 8.43 1.552 8.43 5.677v37.686c0 7.4-1.463 9.981-8.43 9.981v2.924h20.648v-2.924zM120.26 11.1c3.185-6.02 4.304-8.176 10.496-8.176V0h-19.701v2.924c5.422 0 7.311 1.03 7.311 2.842 0 4.386-10.242 20.394-11.876 24.005-1.462-3.872-11.526-20.992-11.526-23.916 0-2.066 2.067-2.924 7.229-2.924V.006H77.762v2.925c4.475 0 6.109.686 8.43 5.244l13.165 25.9v16.522c0 4.133-1.462 5.677-8.95 5.677V59.2h27.018v-2.925c-7.833 0-9.295-1.55-9.295-5.677V34.075L120.26 11.1zM178.582 0v2.924c8.347 0 9.205 3.611 9.205 8.258v29.085c0 9.637-4.729 17.037-17.291 17.037-9.466 0-14.024-4.99-14.024-14.196v-34.5c0-4.132 1.462-5.677 8.258-5.677V.006h-25.296v2.925c6.796 0 8.258 1.55 8.258 5.677v34.24c0 12.047 8.519 17.38 21.767 17.38 12.391 0 21.424-6.884 21.424-19.275V11.19c0-4.647.859-8.258 8.43-8.258V.006h-20.731V0zM506.89 16.828h-9.758v5.594h-2.333v-5.594h-9.511V14.66h9.511v-1.602h1.557c-.439-.438-1.093-.973-1.507-1.24 2.505-1.385 4.406-3.649 5.277-6.446l2.289.439a13.762 13.762 0 01-1.094 2.53c1.748 1.17 3.891 2.727 4.984 3.77l-1.583 1.678c-.972-.973-2.873-2.46-4.571-3.674a13.869 13.869 0 01-3.038 2.943h.025v1.608h9.758v2.162h-.006zm-12.962-4.768c-.611-.61-1.704-1.507-2.728-2.263-1.093 1.678-2.435 3.115-3.89 4.157-.363-.387-1.316-1.17-1.825-1.506 2.479-1.532 4.38-4.113 5.302-7.127l2.289.509a19.02 19.02 0 01-.922 2.263c1.119.757 2.435 1.704 3.14 2.359l-1.366 1.608zm12.256-6.809h-20.267V3.084h8.882V.114h2.333v2.97h9.052V5.25zm19.32 11.552c2.142 1.506 5.276 2.746 8.245 3.305-.509.49-1.17 1.412-1.507 2.022-3.166-.852-6.421-2.48-8.709-4.57v4.888h-2.213V17.73c-2.314 1.945-5.594 3.528-8.639 4.38-.343-.585-.973-1.437-1.481-1.92 2.892-.61 6.058-1.875 8.201-3.382h-7.521v-1.9h9.44v-1.482h-7.177v-1.704h7.177V10.26h-8.366v-1.8h4.991c-.216-.68-.636-1.557-1.024-2.211l.585-.096h-5.524V4.26h3.598c-.362-.948-1.094-2.289-1.774-3.287l1.971-.655c.756 1.05 1.608 2.53 1.945 3.478l-1.239.464h2.676V.09h2.117v4.157h2.409V.089h2.143v4.158h2.625l-.922-.292c.585-.973 1.336-2.505 1.704-3.599l2.333.585c-.654 1.195-1.386 2.41-2.021 3.306h3.503v1.894h-4.698c-.465.827-.948 1.628-1.361 2.315h5.156v1.799h-8.614v1.462h7.47v1.704h-7.47v1.48h9.587v1.902h-7.616zm-6.256-10.655c.439.705.877 1.583 1.049 2.168l-.706.146h5.131c.362-.655.756-1.532 1.068-2.314h-6.542zm18.709-4.794h8.614v2.041h-3.649a40.431 40.431 0 01-1.411 5.353h4.692v10.706h-4.768v1.875h-1.895v-8.22c-.362.61-.731 1.17-1.144 1.678-.095-.585-.56-1.945-.903-2.555 1.609-2.168 2.651-5.378 3.287-8.83h-2.823V1.354zm6.3 9.416h-2.822v6.687h2.822V10.77zm15.766 1.386h-2.625v10.292h-2.168V12.155h-3.452c-.121 3.65-.757 7.686-3.382 10.414-.388-.363-1.214-1.024-1.729-1.316 2.314-2.41 2.873-5.982 2.994-9.098h-2.505v-2.142h2.53V3.497h-1.875V1.38h11.729v2.117h-2.142v6.522h2.625v2.136zm-4.793-2.137V3.497h-3.433v6.522h3.433zm28.366 10.045c.61 0 .706-.413.801-3.528.49.413 1.507.8 2.143.972-.217 3.796-.827 4.768-2.677 4.768h-2.358c-2.092 0-2.702-.655-2.702-2.994v-4.38h-4.088c-.508 2.848-2.479 5.836-9.002 7.616-.343-.534-.998-1.36-1.532-1.85 5.62-1.482 7.54-3.7 8.15-5.766h-6.421v-2.117h6.688V9.988h2.263v2.797h6.3v6.471c0 .706.121.802.706.802h1.729v.006zm-10.07-15.766c-.508 3.865-1.97 6.128-7.736 7.323-.198-.534-.732-1.41-1.196-1.824 5.01-.877 6.154-2.556 6.567-5.5h-3.865v2.556h-2.263v-4.57h9.097V.089h2.314v2.187h9.269v4.355h-2.384V4.298h-4.285v3.82c0 .636.121.706.922.706h2.556c.629 0 .756-.216.826-1.754.464.343 1.386.68 1.996.775-.241 2.359-.851 2.969-2.555 2.969h-3.115c-2.333 0-2.874-.61-2.874-2.676V4.292h-3.274v.006zm30.942 6.986a2.825 2.825 0 01-2.823 2.823 2.824 2.824 0 01-2.823-2.822 2.824 2.824 0 012.823-2.823 2.825 2.825 0 012.823 2.822zm20.413-3.528h5.594v2.067h-5.594v2.167h4.863v6.396c0 .922-.146 1.506-.775 1.85-.636.343-1.558.362-2.823.343-.051-.56-.318-1.386-.61-1.92.877.026 1.608.026 1.85 0 .241 0 .317-.07.317-.318v-4.329h-2.822v8.442h-2.143v-8.448h-2.651v6.497h-2.021V11.99h4.672V9.823h-5.715V7.756h1.679c-.465-.267-1.361-.584-1.895-.775 1.068-1.609 1.876-4.012 2.333-6.326l2.117.439a68.988 68.988 0 01-.636 2.41h2.117V.267h2.143v3.235h4.647v2.041h-4.647v2.212zm-2.143 0V5.544h-2.848c-.317.827-.68 1.608-1.068 2.212h3.916zm11.316 7.953h-2.091V2.257h2.091V15.71zm4.38-15.25v19.096c0 1.36-.292 1.997-1.093 2.384-.776.388-2.142.44-3.967.44-.095-.611-.413-1.654-.731-2.315 1.36.05 2.676.05 3.09.026.387 0 .508-.121.508-.51V.459h2.193zm12.67.438a38.09 38.09 0 01-2.41 5.085v16.421h-2.288V9.555a22.41 22.41 0 01-1.996 2.384c-.217-.56-.878-1.824-1.265-2.333 2.314-2.289 4.475-5.836 5.791-9.39l2.168.68zm7.349 5.371v3.09h6.618v2.066h-6.618v3.236h6.961v2.117h-6.961v5.645h-2.308V6.268h-1.36c-1.024 1.895-2.143 3.599-3.306 4.89-.362-.389-1.24-1.196-1.755-1.533 2.143-2.238 4.088-5.74 5.258-9.243l2.168.584a47.244 47.244 0 01-1.266 3.141h9.778v2.168h-7.209v-.007zm32.187 10.147c-1.068.826-2.41 1.608-3.579 2.237 1.36.903 3.019 1.583 4.939 1.971-.489.413-1.049 1.29-1.335 1.85-4.304-1.068-7.177-3.503-8.855-7.177h-2.581v4.087c1.506-.216 3.115-.49 4.717-.73l.076 1.97a898.261 898.261 0 01-9.199 1.481l-.343-2.066c.775-.095 1.678-.216 2.651-.362v-4.38h-2.823V13.4h4.088v-2.117h-3.382v-1.92h3.382V7.42h-4.062v.903c0 4.157-.344 10.216-2.874 14.157-.439-.362-1.437-.947-1.996-1.17 2.409-3.744 2.6-9.122 2.6-12.994V1.208h18.296v6.205h-3.452v1.945h3.821v1.92h-3.821v2.117h4.819v1.894H689l1.64 1.126zm-16.3-10.948h13.77V3.153h-13.77v2.314zm6.128 3.891h4.33V7.413h-4.33v1.945zm0 4.043h4.33v-2.117h-4.33v2.117zm3.478 1.895a9.471 9.471 0 001.703 2.212c1.119-.655 2.384-1.507 3.236-2.212h-4.939zM231.722 44.514h-4.939v-2.022h4.939v-5.257h2.143v5.257h4.939v2.022h-4.939v5.257h-2.143v-5.257zm27.444-3.305c1.653 5.06 4.717 9.173 9.32 11.093-.559.49-1.316 1.437-1.678 2.117-4.552-2.117-7.495-6.059-9.39-11.214-1.24 4.405-3.865 8.614-9.39 11.214-.362-.61-1.093-1.411-1.729-1.895 5.792-2.53 8.15-6.91 9.123-11.316h-8.64V38.87h9.053c.293-2.435.267-4.768.293-6.713h2.46c-.026 1.97-.051 4.304-.343 6.713h9.802v2.333h-8.881v.007zm37.019 6.642h-9.587v4.062c0 1.24-.318 1.876-1.316 2.213-.998.318-2.435.343-4.552.343-.171-.636-.61-1.558-.947-2.187 1.704.07 3.407.07 3.891.05.489-.025.61-.12.61-.489v-3.992h-9.485V45.76h9.485v-1.68h1.144c.947-.508 1.92-1.17 2.746-1.824h-9.243v-1.971h11.411l.49-.12 1.462 1.093c-1.462 1.557-3.598 3.115-5.69 4.183v.318h9.587v2.091h-.006zm-18.856-6.205h-2.117v-5.575h3.503c-.439-.877-1.195-1.97-1.895-2.797l1.946-.877c.877.972 1.85 2.333 2.263 3.26l-.877.414h4.501c-.344-.973-1.049-2.314-1.704-3.331l1.971-.731c.826 1.093 1.652 2.625 1.97 3.598l-1.195.464h4.113c.852-1.119 1.799-2.65 2.359-3.795l2.384.756a41.238 41.238 0 01-2.263 3.04h3.528v5.568h-2.238v-3.58h-16.249v3.586zm32.689-7.711c-.68 2.04-1.532 4.571-2.314 6.472 1.653 1.92 2.022 3.598 2.022 5.06 0 1.386-.293 2.41-.998 2.893a3.337 3.337 0 01-1.316.49c-.464.05-1.049.05-1.609.025-.025-.56-.197-1.411-.534-1.946.509.051.922.051 1.24.026.292 0 .534-.07.756-.216.344-.242.439-.827.439-1.532 0-1.215-.388-2.797-1.971-4.552.611-1.628 1.24-3.795 1.704-5.448h-2.606v19.268h-1.997V33.153h5.353l.344-.07 1.487.852zm11.678 18.22c.439 0 .534-.388.585-2.918.439.362 1.335.706 1.92.852-.197 3.236-.756 4.088-2.263 4.088h-1.894c-1.85 0-2.289-.655-2.289-2.727v-5.938h-2.333c-.343 4.5-1.335 7.374-5.912 8.95-.197-.533-.776-1.385-1.24-1.754 3.916-1.265 4.742-3.528 4.99-7.203h-2.968v-2.06h13.572v2.067h-3.967v5.912c0 .655.07.731.509.731h1.29zm-6.077-17.298v-2.65h2.187v2.65h6.058v4.552h-1.92v1.729h-10.069v-1.73h-1.85v-4.551h5.594zm6.154 1.945h-9.733v2.359h9.733v-2.359zm29.866 10.852h-2.53v4.26h-2.289v-1.05h-5.181v1.266c0 1.24-.318 1.754-1.144 2.066-.827.292-2.092.318-4.139.318-.12-.509-.464-1.335-.775-1.825 1.335.051 2.797.051 3.185.026.438-.026.585-.147.585-.56v-1.29h-7.591V49.16h7.591v-1.507h-9.733V45.88h9.733v-1.386h-7.375v-1.609h7.375V41.45h-6.739v-4.476h6.739v-1.24h-9.218V33.91h9.218v-1.78h2.288v1.774h9.485v1.824h-9.485v1.24h7.082v4.475h-7.082v1.437h7.47v2.994h2.53v1.78zm-12.288-7.711V38.48h-4.571v1.462h4.571zm2.288-1.462v1.462h4.794V38.48h-4.794zm0 7.4h5.181v-1.386h-5.181v1.386zm5.181 1.773h-5.181v1.507h5.181v-1.507zm24.393 1.17c2.142 1.506 5.277 2.746 8.245 3.305-.508.49-1.169 1.412-1.506 2.022-3.16-.852-6.421-2.48-8.71-4.57v4.888h-2.212v-4.717c-2.314 1.945-5.594 3.528-8.64 4.38-.343-.585-.972-1.437-1.481-1.92 2.893-.61 6.059-1.875 8.201-3.382h-7.521v-1.9h9.441v-1.482h-7.177v-1.704h7.177v-1.462h-8.366v-1.8h4.99c-.216-.68-.635-1.557-1.023-2.212l.585-.095h-5.525v-1.894h3.598c-.362-.947-1.093-2.289-1.773-3.287l1.97-.655c.757 1.05 1.609 2.53 1.946 3.478l-1.24.464h2.676v-4.158h2.117v4.158h2.41v-4.158h2.142v4.158h2.626l-.922-.293c.585-.972 1.335-2.505 1.704-3.598l2.333.585c-.655 1.195-1.386 2.41-2.022 3.306h3.503v1.894h-4.698c-.464.827-.947 1.628-1.36 2.314h5.155v1.8h-8.614v1.462h7.47v1.703h-7.47v1.481h9.587v1.901h-7.616v-.012zm-6.249-10.662c.438.706.877 1.583 1.049 2.168l-.706.147h5.13c.363-.655.757-1.533 1.068-2.315h-6.541zm26.847 8.59c-.318-.776-1.024-2.117-1.653-3.262v10.947h-2.092V44.153c-.731 2.313-1.627 4.45-2.6 5.835-.216-.61-.757-1.462-1.068-1.945 1.437-1.996 2.823-5.594 3.477-8.684h-2.968v-2.091h3.165V32.13h2.092v5.136h2.6v2.092h-2.6v1.437c.68.903 2.479 3.649 2.873 4.304l-1.226 1.653zm15.327 3.82h-1.431v1.609c0 1.023-.216 1.532-.921 1.875-.706.267-1.799.293-3.357.293-.095-.534-.362-1.316-.61-1.825 1.023.05 2.066.05 2.384.025.292 0 .388-.095.388-.387v-1.583h-7.616v3.77h-2.067v-3.77h-1.557v-1.704h1.557V42.79h4.768v-1.195h-5.912v-1.678h3.185v-1.36h-2.142v-1.584h2.142V35.64h-2.651v-1.627h2.651V32.13h2.117v1.875h3.331V32.13h2.117v1.875h2.893v1.628h-2.893v1.335h2.53v1.583h-2.53v1.36h3.382v1.678h-6.179v1.196h4.99v6.084h1.437v1.703h-.006zm-11.163-6.154v1.386h2.701v-1.386h-2.701zm0 4.45h2.701v-1.506h-2.701v1.506zm2.091-11.894h3.331V35.64h-3.331v1.335zm0 2.944h3.331v-1.36h-3.331v1.36zm2.651 4.5v1.386h2.874v-1.386h-2.874zm2.874 4.45v-1.506h-2.874v1.506h2.874zm13.687-2.454v-5.69c-.947 1.755-2.117 3.332-3.306 4.355-.343-.509-1.023-1.214-1.481-1.608 1.704-1.215 3.408-3.554 4.425-5.862h-3.846v-1.92h4.208v-3.477h2.143v3.477h3.649v1.92h-3.649v1.17c.921.56 3.331 2.314 3.967 2.772l-1.215 1.85c-.585-.61-1.754-1.679-2.746-2.53v5.524l-2.149.019zm-4.526 5.74c.947-1.29 1.754-3.305 2.212-4.99l1.996.801c-.489 1.678-1.265 3.846-2.167 5.207l-2.041-1.017zm13.865-.222c1.144 0 1.316-.343 1.462-2.772.49.363 1.412.68 2.041.827-.318 3.21-.947 3.967-3.331 3.967h-4.743c-2.918 0-3.674-.61-3.674-2.747v-3.63h2.237v3.599c0 .654.242.756 1.628.756h4.38zm-3.376-6.198c1.094 1.023 2.581 2.46 3.332 3.331l-1.653 1.386c-.681-.903-2.143-2.41-3.236-3.503l1.557-1.214zm10.433.388h-9.613V33.394h9.613v12.728zm-2.162-10.903h-5.378v1.85h5.378v-1.85zm0 3.579h-5.378v1.895h5.378v-1.895zm0 3.598h-5.378v1.92h5.378v-1.92zm.458 4.406c.998 1.507 2.333 3.579 2.969 4.819l-2.092 1.068c-.585-1.266-1.875-3.408-2.848-4.965l1.971-.922zm29.7 1.049h-9.587v4.062c0 1.24-.318 1.876-1.316 2.213-.998.318-2.435.343-4.552.343-.171-.636-.61-1.558-.947-2.187 1.704.07 3.408.07 3.891.05.489-.025.61-.12.61-.489v-3.992h-9.485V45.76h9.485v-1.68h1.144c.948-.508 1.92-1.17 2.747-1.824h-9.244v-1.971h11.412l.489-.12 1.462 1.093c-1.462 1.557-3.598 3.115-5.689 4.183v.318h9.586v2.091h-.006zm-18.856-6.205h-2.117v-5.575h3.503c-.438-.877-1.195-1.97-1.894-2.797l1.945-.877c.877.972 1.85 2.333 2.263 3.26l-.877.414h4.501c-.343-.973-1.049-2.314-1.704-3.331l1.971-.731c.826 1.093 1.653 2.625 1.971 3.598l-1.195.464h4.113c.852-1.119 1.799-2.65 2.358-3.795l2.384.756a40.677 40.677 0 01-2.263 3.04h3.528v5.568h-2.238v-3.58h-16.249v3.586zm24.781-8.27h8.615v2.04h-3.65a40.436 40.436 0 01-1.411 5.354h4.698v10.705h-4.768v1.875h-1.894v-8.226c-.363.61-.731 1.17-1.145 1.678-.095-.584-.559-1.945-.902-2.555 1.608-2.168 2.651-5.378 3.286-8.83h-2.822v-2.041h-.007zm6.3 9.415h-2.822v6.688h2.822V42.79zm15.766 1.386h-2.625v10.292h-2.168V44.177h-3.452c-.121 3.649-.756 7.686-3.382 10.413-.388-.362-1.214-1.023-1.729-1.316 2.314-2.41 2.873-5.982 2.994-9.097h-2.505v-2.142h2.531v-6.523h-1.876v-2.117h11.729v2.117h-2.142v6.523h2.625v2.142zm-4.793-2.142v-6.523h-3.433v6.523h3.433zm30.039 10.043c.61 0 .705-.413.801-3.528.489.413 1.506.801 2.142.973-.216 3.795-.826 4.768-2.676 4.768h-2.359c-2.091 0-2.702-.655-2.702-2.994v-4.38h-4.087c-.509 2.847-2.48 5.835-9.002 7.615-.343-.534-.998-1.36-1.532-1.85 5.62-1.48 7.539-3.7 8.15-5.766h-6.421V44.8h6.688v-2.797h2.263V44.8h6.3v6.472c0 .706.121.801.706.801h1.729v.006zm-10.07-15.76c-.509 3.866-1.971 6.13-7.737 7.324-.197-.534-.731-1.41-1.195-1.824 5.009-.877 6.154-2.556 6.567-5.5h-3.865v2.556h-2.263v-4.57h9.097v-2.187h2.314v2.187h9.269v4.354h-2.384v-2.333h-4.285v3.82c0 .637.121.707.922.707h2.555c.63 0 .757-.217.827-1.755.464.343 1.386.68 1.996.776-.242 2.358-.852 2.968-2.556 2.968h-3.115c-2.333 0-2.873-.61-2.873-2.676v-3.846h-3.274zm27.164 10.701c-.343-.731-1.169-2.092-1.901-3.21v10.629h-2.186V44.59c-.903 2.212-1.997 4.285-3.115 5.67-.217-.61-.757-1.531-1.094-2.09 1.437-1.654 2.994-4.553 3.891-7.127h-3.579v-2.117h3.89v-3.262c-1.049.198-2.091.344-3.064.49-.07-.49-.388-1.29-.629-1.755 2.727-.438 5.836-1.144 7.736-1.97l1.291 1.85c-.922.362-1.996.654-3.141.921v3.72h3.408v2.116H530.1v.344c.732.756 2.798 3.235 3.262 3.865l-1.361 1.774zm11.412 1.195v6.23h-2.238v-5.836l-7.661 1.29-.343-2.167 8.004-1.335V32.13h2.238v13.89l2.651-.438.343 2.117-2.994.515zm-5.302-3.287c-.801-1.049-2.581-2.6-4.063-3.624l1.437-1.316c1.462.973 3.306 2.435 4.158 3.452l-1.532 1.488zm.604-6.395c-.732-1.024-2.384-2.505-3.77-3.529l1.481-1.29c1.386.947 3.064 2.358 3.865 3.382l-1.576 1.437zm27.71-5.697a51.237 51.237 0 01-1.875 4.743v16.859h-2.143V41.545c-.635.998-1.265 1.894-1.945 2.701-.197-.56-.801-1.824-1.144-2.384 2.021-2.358 3.891-5.963 5.009-9.612l2.098.585zm13.573 3.675a13.48 13.48 0 01-3.02 3.89c1.583.852 3.478 1.507 5.696 1.895-.387.464-.972 1.29-1.239 1.85a19.017 19.017 0 01-6.084-2.505c-1.704 1.17-3.7 2.04-5.862 2.702-.216-.413-.775-1.145-1.195-1.609v7.712h-1.97V35.073h1.97v3.236c1.755-1.558 3.287-3.821 4.158-6.205l2.066.509a17.779 17.779 0 01-.947 2.066h8.321v1.824h-1.894v.007zm-11.697 6.033c1.996-.49 3.82-1.196 5.378-2.143a13.66 13.66 0 01-2.238-2.384 17.585 17.585 0 01-1.799 1.92 19.762 19.762 0 00-1.335-1.068v3.675h-.006zm13.693 6.35c-2.435 2.874-6.859 4.552-11.894 5.449-.242-.534-.731-1.316-1.17-1.774 4.698-.68 9.002-2.091 11.119-4.475l1.945.8zm-4.596-5.06c-1.507 1.507-3.942 2.727-6.205 3.452-.292-.388-.801-.972-1.239-1.316 2.091-.585 4.475-1.627 5.74-2.848l1.704.712zm2.289 2.238c-1.876 2.066-5.086 3.528-8.348 4.406-.267-.44-.731-1.069-1.118-1.463 3.019-.68 6.179-1.945 7.787-3.623l1.679.68zm-7.152-9.561l-.026.025c.655.973 1.558 1.92 2.727 2.772a10.658 10.658 0 002.41-2.797h-5.111zm26.726 5.327v9.148h8.442v2.264h-19.097v-2.264h8.245v-9.148h-9.586V39.6h9.586v-7.42h2.41v7.42h9.733v2.237h-9.733zm23.738-2.065h5.594v2.066h-5.594v2.167h4.863v6.396c0 .922-.146 1.507-.775 1.85-.636.343-1.558.362-2.823.343-.051-.56-.318-1.386-.61-1.92.877.026 1.608.026 1.85 0 .241 0 .318-.07.318-.318v-4.329h-2.823v8.442h-2.142v-8.448h-2.651v6.497h-2.022v-8.513h4.673v-2.167h-5.716v-2.066h1.679c-.464-.267-1.361-.585-1.901-.776 1.068-1.608 1.875-4.012 2.333-6.326l2.117.44a69.029 69.029 0 01-.636 2.409h2.117v-3.236h2.143v3.236h4.647v2.04h-4.647v2.213h.006zm-2.142 0v-2.213h-2.848c-.318.827-.681 1.609-1.068 2.213h3.916zm11.316 7.953h-2.092V34.272h2.092v13.453zm4.373-15.252v19.098c0 1.36-.292 1.996-1.093 2.384-.776.387-2.143.438-3.967.438-.095-.61-.413-1.653-.731-2.314 1.36.051 2.676.051 3.089.026.388 0 .509-.121.509-.509V32.473h2.193zm13.858.439a38.208 38.208 0 01-2.409 5.086v16.42h-2.289V41.57a22.396 22.396 0 01-1.996 2.384c-.216-.56-.877-1.824-1.265-2.333 2.314-2.288 4.475-5.836 5.791-9.39l2.168.68zm7.349 5.378v3.09h6.618v2.066h-6.618v3.236h6.961v2.116h-6.961v5.646h-2.314V38.29h-1.36c-1.024 1.894-2.143 3.598-3.313 4.889-.362-.388-1.239-1.196-1.748-1.532 2.143-2.238 4.088-5.741 5.258-9.244l2.168.585a47.247 47.247 0 01-1.266 3.14h9.778v2.168h-7.203v-.006zm32.887 10.14c-1.068.826-2.41 1.608-3.579 2.237 1.36.903 3.019 1.583 4.939 1.971-.489.413-1.049 1.29-1.335 1.85-4.304-1.068-7.177-3.503-8.855-7.177h-2.581v4.087c1.506-.216 3.115-.489 4.717-.73l.076 1.97a898.261 898.261 0 01-9.199 1.481l-.343-2.066c.775-.095 1.678-.216 2.651-.362v-4.38h-2.823v-1.895h4.088V43.3h-3.382v-1.92h3.382v-1.945h-4.062v.903c0 4.157-.344 10.216-2.874 14.157-.439-.362-1.437-.947-1.996-1.17 2.409-3.744 2.6-9.122 2.6-12.993V33.23h18.296v6.205h-3.452v1.946h3.821v1.92h-3.821v2.116h4.819v1.895H689l1.64 1.119zm-16.3-10.947h13.77v-2.314h-13.77v2.314zm6.128 3.897h4.33v-1.946h-4.33v1.946zm0 4.036h4.33V43.3h-4.33v2.117zm3.478 1.895a9.469 9.469 0 001.703 2.212c1.119-.655 2.384-1.507 3.236-2.212h-4.939zM235.791 9.053v.916h-9.002v-.916h4.011V6.72h-2.886v-.903h2.886V3.79h-2.25c-.312.61-.649 1.145-1.005 1.57a5.531 5.531 0 00-.858-.565c.82-.865 1.462-2.25 1.837-3.668l.973.222a18.624 18.624 0 01-.528 1.52h1.838V.979h.972v1.889h3.528v.921h-3.528v2.028h3.153v.903h-3.153v2.333h4.012zm3.159-3.413c-.413-.286-1.259-.77-1.863-1.087l.515-.7c.579.286 1.437.732 1.863 1.005l-.515.782zm-1.666 3.884c.541-.763 1.316-2.06 1.908-3.204l.68.63a36.829 36.829 0 01-1.793 3.203l-.795-.629zm2.143-6.624c-.413-.293-1.259-.782-1.856-1.113l.527-.667c.585.286 1.45.737 1.888 1.023l-.559.757zm4.215 1.92v1.5h2.091v3.903h-.89v-.375h-3.356v.426h-.865V6.32h2.13v-1.5h-2.817v-.903h2.817V2.48c-.712.115-1.437.191-2.111.242a3.067 3.067 0 00-.273-.788c1.735-.185 3.7-.51 4.812-.922l.738.73c-.649.242-1.437.44-2.283.586v1.589h2.689v.903h-2.682zm1.195 2.352h-3.357v1.824h3.357V7.172zm6.084.718a153.91 153.91 0 01-3.293.941l-.204-.89c.375-.089.833-.203 1.316-.324v-2.2h-1.093v-.832h1.093V2.518h-1.195v-.832h3.185v.832h-1.138v2.067h.986v.832h-.986v1.965c.407-.115.82-.223 1.227-.337l.102.845zm5.677.038c-.407.306-.916.61-1.316.814.445.356.96.636 1.532.801-.21.172-.464.515-.61.738-1.145-.445-2.06-1.335-2.639-2.442l-.082.07v2.372h-.884V8.596a10.43 10.43 0 01-2.13 1.125 3.413 3.413 0 00-.559-.66c1.055-.338 2.238-.974 3.071-1.667h-1.742V5.157h4.914v2.237h-2.009c.165.312.375.61.629.884.388-.235.871-.597 1.157-.839l.668.49zm-5.982-4.011h6.185v.77h-6.185v-.77zm5.747-.458h-5.283V1.298h5.283v2.161zm-3.719-1.5h-.789v.833h.789v-.833zm-.566 4.743h3.21V5.85h-3.21v.852zm2.015-4.743h-.82v.833h.82v-.833zm1.469 0h-.833v.833h.833v-.833zm5.76 5.283c-1.062.515-2.232 1.055-3.122 1.468l-.337-.934c.363-.134.82-.324 1.31-.528V4.28h-1.106v-.883h1.106V1.094h.871v2.302h.992v.883h-.992v2.588l1.061-.464.217.839zm4.977 2.168c.191 0 .236-.115.261-.941.172.14.547.273.782.337-.083 1.138-.312 1.417-.954 1.417h-.902c-.82 0-1.005-.254-1.005-1.061v-1.38h-.915c-.242 1.24-.865 2.047-2.728 2.511a3.078 3.078 0 00-.514-.788c1.602-.311 2.11-.87 2.32-1.723h-.954v-3.09h4.997v3.09h-1.316V9.15c0 .235.032.26.254.26h.674zm.922-5.2h-6.173v-.77h1.539a3.733 3.733 0 00-.337-.89l.445-.102h-1.361v-.737h2.289V.999h.922v.712h2.454v.737h-1.335l.438.09c-.184.324-.337.648-.477.902h1.59v.77h.006zm-4.634 1.722h3.191v-.635h-3.191v.635zm0 1.24h3.191v-.649h-3.191v.649zm.527-4.724c.166.293.306.662.356.916l-.311.083h1.812l-.223-.051a8.35 8.35 0 00.407-.941h-2.041v-.007zm6.568 2.136h6.637c.209 0 .584-.012.851-.05v1.042a17.994 17.994 0 00-.851-.019h-2.613c-.038 1.074-.242 1.964-.63 2.696-.362.686-1.138 1.436-2.015 1.894l-.934-.687c.75-.305 1.481-.89 1.875-1.513.439-.68.566-1.48.61-2.39h-2.93c-.306 0-.636.013-.922.032V4.534c.286.031.61.05.922.05zm1.258-2.555h3.427c.311 0 .699-.02 1.011-.064v1.043c-.325-.02-.687-.038-1.011-.038h-3.414c-.343 0-.718.019-.992.038V1.965c.299.045.649.064.979.064zm5.817.56l-.667.285c-.204-.407-.528-1.01-.801-1.398l.648-.274c.254.363.623.992.82 1.386zm1.17-.446l-.661.293a9.69 9.69 0 00-.833-1.399l.648-.273c.274.387.662 1.01.846 1.38zm4.755 8.049l-.865-.801c1.894-.7 2.791-1.57 2.791-4.26v-.407h-2.664v1.52c0 .407.032.839.038.985h-1.125c.019-.14.051-.566.051-.985v-1.52h-.992c-.477 0-.89.02-1.055.032V3.663c.133.019.585.082 1.055.082h.992V2.57c0-.241-.019-.547-.051-.814h1.138c-.019.14-.051.445-.051.82V3.74h2.664V2.57a7.32 7.32 0 00-.051-.883h1.144c-.012.14-.051.476-.051.883v1.176h.941a6.4 6.4 0 001.011-.063v1.074a10.624 10.624 0 00-1.004-.032h-.954v.344c.006 2.619-.591 4.068-2.962 5.124zm4.456-7.12l-.585.203c-.152-.439-.356-1.01-.559-1.411l.578-.185c.185.382.432.998.566 1.392zm1.036-.312l-.585.19c-.152-.444-.362-1.01-.565-1.41l.578-.185c.184.394.439.998.572 1.405zm5.856 1.074c1.055-.648 2.129-1.59 2.816-2.41l.852.815a16.688 16.688 0 01-2.728 2.218v4.209c0 .413.02.972.07 1.195h-1.258a11.5 11.5 0 00.063-1.195V5.137a20.751 20.751 0 01-3.738 1.57l-.496-1.004c1.774-.477 3.293-1.17 4.419-1.869zm10.553 3.458c1.634-1.004 2.899-2.524 3.515-3.82l.617 1.106c-.731 1.316-1.977 2.695-3.56 3.668a11.224 11.224 0 01-3.884 1.513l-.681-1.043c1.704-.26 3.02-.826 3.993-1.424zm-.344-3.242l-.801.82c-.527-.534-1.786-1.64-2.536-2.149l.737-.788c.712.47 2.035 1.526 2.6 2.117zm8.334-1.564h5.042c.273 0 .629-.012.813-.019-.012.223-.019.585-.019.852v5.239c0 .356.019.851.038 1.074h-1.157c0-.14.013-.337.013-.547h-4.806c-.413 0-.922.02-1.214.038V7.98c.292.02.737.05 1.176.05h4.857V3.51h-4.736c-.395 0-.916.02-1.176.04V2.422c.343.032.832.063 1.169.063zm10.083 2.537h5.512c.489 0 .884-.038 1.138-.064v1.26c-.223-.014-.687-.052-1.138-.052h-5.512c-.559 0-1.163.02-1.513.051V4.96c.337.02.966.064 1.513.064zm15.919-1.837c-.356.832-.954 1.977-1.666 2.886 1.043.89 2.27 2.2 2.899 2.969l-.89.788c-.668-.915-1.685-2.028-2.689-2.963-1.087 1.157-2.454 2.238-3.904 2.918l-.82-.858c1.641-.63 3.166-1.843 4.164-2.969.687-.769 1.367-1.888 1.615-2.676h-3.719c-.394 0-.941.05-1.106.064V2.2c.203.032.788.07 1.106.07h3.764c.375 0 .712-.038.883-.102l.661.49a3.081 3.081 0 00-.298.528zm8.716 2.441a1.178 1.178 0 01-2.353 0 1.178 1.178 0 012.353 0zm9.549 1.049h-2.798V4.54h2.798v1.894c.413-.273.801-.61 1.144-.992-.375-.75-.661-1.684-.839-2.714h-3.516v.763c0 1.195-.184 2.886-1.112 4.024a3.462 3.462 0 00-.687-.579c.839-1.023.941-2.434.941-3.458V1.965h4.266a12.55 12.55 0 01-.083-.985h.89c.013.337.032.66.07.985h1.532a7.515 7.515 0 00-1.093-.528l.464-.54c.496.153 1.106.439 1.436.687l-.311.375h1.023v.763h-2.93a9.08 9.08 0 00.559 1.913c.293-.464.541-.985.719-1.532l.89.203a8.664 8.664 0 01-1.164 2.22c.356.558.738.883 1.094.883.235 0 .337-.344.387-1.24.191.165.496.337.732.413-.14 1.329-.458 1.672-1.164 1.672-.597 0-1.157-.388-1.621-1.036a6.67 6.67 0 01-1.106.94c-.089-.133-.324-.361-.515-.527v.045h-.006zm-4.946 2.873c.648-.458 1.074-1.208 1.309-1.958l.833.293c-.254.813-.648 1.665-1.348 2.186l-.794-.52zm5.066-5.613h-3.032v-.63h3.032v.63zm.7 5.372c.413 0 .489-.121.527-.992.191.14.598.286.839.343-.114 1.195-.387 1.488-1.277 1.488h-1.812c-1.157 0-1.437-.255-1.437-1.138v-1.45h.935v1.437c0 .26.082.305.597.305h1.628v.007zm-1.602-4.133h-1.246v.865h1.246v-.865zm-.115 1.558c.598.305 1.316.788 1.653 1.176l-.661.579c-.312-.388-1.011-.903-1.615-1.227l.623-.528zm3.56.744c.7.578 1.418 1.411 1.723 2.047l-.864.445c-.255-.617-.954-1.481-1.634-2.092l.775-.4zm2.708-1.971c.254-.68.439-1.792.509-2.612l.686.101c-.051.833-.235 2.01-.477 2.76l-.718-.249zm9.345 3.541v.89h-6.211v-.89h2.816V6.746h-2.059v-.884h2.059V3.955h-1.316a8.736 8.736 0 01-.648 1.5 5.819 5.819 0 00-.839-.438c.133-.204.26-.439.375-.7l-.566.274c-.089-.407-.356-1.055-.61-1.59v7.267h-.941V.974h.941v1.875l.597-.242c.255.477.534 1.094.661 1.52.312-.788.541-1.742.668-2.696l.922.153c-.07.509-.185 1.004-.305 1.481h1.061V1.018h.941v2.047h2.187v.89h-2.187v1.907h1.965v.884h-1.965v2.301h2.454zm1.107-3.497c.209-.686.375-1.811.438-2.606l.68.083c-.031.801-.19 1.99-.406 2.746l-.712-.222zm2.631-1.41a12.787 12.787 0 00-.514-1.418v7.552h-.865V.986h.865V2.64l.584-.235c.204.458.464 1.055.566 1.43l-.636.306zm6.765.063v.7h-6.567v-.7h2.778v-.585h-2.232v-.667h2.232v-.528h-2.473v-.7h2.473v-.75h.934v.75h2.562v.7h-2.562v.528h2.302v.66h-2.302v.586h2.855v.006zm-.744 5.105c0 .426-.089.668-.394.801-.312.133-.789.14-1.488.14a3.327 3.327 0 00-.273-.814c.464.032.953.02 1.087.02.14-.014.184-.052.184-.172v-.547h-3.356v1.532h-.871V5.392h5.117v3.916h-.006zm-4.247-3.204v.63h3.357v-.63h-3.357zm3.357 1.958v-.63h-3.357v.63h3.357zm5.543-4.437h1.774v.8h-.941l.438.115a19.83 19.83 0 01-.514 1.195h.902v.814h-1.653v.953h1.52v.802h-1.52v1.957h-.883V8.304h-1.59v-.802h1.59V6.55h-1.685v-.814h.884a4.524 4.524 0 00-.388-1.195l.413-.114h-1.087v-.801h1.856V2.74h-1.487v-.788h1.487V.999h.884v.954h1.399v.788h-1.399v.884zm.025 2.015c.14-.343.325-.852.426-1.214h-1.754c.184.394.356.89.394 1.214l-.337.089h1.615l-.344-.09zm6.294-.617c-.203 1.208-.585 2.34-1.144 3.306a4.9 4.9 0 001.513 1.208c-.204.171-.49.515-.63.75a5.649 5.649 0 01-1.398-1.195 5.89 5.89 0 01-1.24 1.208 2.944 2.944 0 00-.515-.547v.54h-.852V1.425h4.037v1.913c0 .44-.089.68-.445.814-.337.134-.852.134-1.615.134a2.798 2.798 0 00-.286-.814c.579.02 1.113.02 1.266.013.152-.013.19-.038.19-.153v-1.08h-2.301v2.593h2.689l.153-.038.578.216zm-3.42 4.552a5.11 5.11 0 001.208-1.214c-.515-.801-.916-1.736-1.208-2.74v3.954zm.795-3.954c.222.686.527 1.347.902 1.945.325-.61.56-1.265.719-1.945h-1.621zm5.308-1.037h6.637a7 7 0 00.852-.05v1.042a18.067 18.067 0 00-.852-.019h-2.613c-.038 1.074-.242 1.964-.63 2.696-.362.686-1.137 1.436-2.015 1.894l-.934-.687c.75-.305 1.481-.89 1.875-1.513.439-.68.566-1.48.61-2.39h-2.93c-.305 0-.636.013-.922.032V4.534c.286.031.61.05.922.05zm1.258-2.555h3.427c.311 0 .699-.02 1.011-.064v1.043c-.324-.02-.687-.038-1.011-.038h-3.414c-.343 0-.718.019-.992.038V1.965c.299.045.642.064.979.064zm5.817.56l-.667.285c-.204-.407-.528-1.01-.801-1.398l.648-.274c.255.363.617.992.82 1.386zm1.17-.446l-.661.293a9.69 9.69 0 00-.833-1.399l.649-.273c.273.387.661 1.01.845 1.38zm4.749 8.049l-.865-.801c1.895-.7 2.791-1.57 2.791-4.26v-.407h-2.664v1.52c0 .407.032.839.039.985h-1.126c.019-.14.051-.566.051-.985v-1.52h-.992c-.476 0-.89.02-1.055.032V3.663c.134.019.585.082 1.055.082h.992V2.57c0-.241-.019-.547-.051-.814h1.138c-.019.14-.051.445-.051.82V3.74h2.664V2.57a7.32 7.32 0 00-.051-.883h1.144c-.012.14-.05.476-.05.883v1.176h.941c.495 0 .82-.031 1.01-.063v1.074a10.61 10.61 0 00-1.004-.032h-.954v.344c.013 2.619-.591 4.068-2.962 5.124zm4.463-7.12l-.585.203c-.153-.439-.356-1.01-.56-1.411l.579-.185c.178.382.432.998.566 1.392zm1.036-.312l-.585.19c-.153-.444-.362-1.01-.566-1.41l.579-.185c.184.394.438.998.572 1.405zm5.855 1.074c1.055-.648 2.13-1.59 2.816-2.41l.852.815a16.679 16.679 0 01-2.727 2.218v4.209c0 .413.019.972.07 1.195h-1.259c.032-.223.064-.782.064-1.195V5.137a20.782 20.782 0 01-3.738 1.57l-.496-1.004c1.774-.477 3.293-1.17 4.418-1.869zm10.553 3.458c1.634-1.004 2.899-2.524 3.516-3.82l.616 1.106c-.731 1.316-1.977 2.695-3.56 3.668a11.216 11.216 0 01-3.884 1.513l-.68-1.043c1.704-.26 3.02-.826 3.992-1.424zm-.343-3.242l-.801.82c-.528-.534-1.786-1.64-2.537-2.149l.738-.788c.712.47 2.034 1.526 2.6 2.117zm8.328-1.564h5.041c.274 0 .63-.012.814-.019-.013.223-.019.585-.019.852v5.239c0 .356.019.851.038 1.074h-1.157c0-.14.013-.337.013-.547h-4.806c-.414 0-.922.02-1.215.038V7.98c.293.02.738.05 1.177.05h4.856V3.51h-4.736c-.394 0-.915.02-1.176.04V2.422c.35.032.839.063 1.17.063zm10.089 2.537h5.512c.489 0 .884-.038 1.138-.064v1.26c-.223-.014-.687-.052-1.138-.052h-5.512c-.559 0-1.163.02-1.513.051V4.96c.337.02.966.064 1.513.064zm15.912-1.837c-.356.832-.953 1.977-1.665 2.886 1.042.89 2.269 2.2 2.899 2.969l-.89.788c-.668-.915-1.685-2.028-2.689-2.963-1.088 1.157-2.454 2.238-3.904 2.918l-.82-.858c1.64-.63 3.166-1.843 4.164-2.969.687-.769 1.367-1.888 1.615-2.676h-3.719c-.394 0-.941.05-1.106.064V2.2c.203.032.788.07 1.106.07h3.763c.375 0 .712-.038.884-.102l.661.49a3.08 3.08 0 00-.299.528zM235.676 22.651v.852h-8.817v-.852h3.903V20.84h-2.848V20h6.904v.84h-3.089v1.811h3.947zm-5.047-6.325c-.204 1.742-.769 2.797-3.236 3.344-.083-.242-.324-.61-.509-.801 2.181-.407 2.607-1.189 2.759-2.543h-1.703v1.278h-.922v-2.13h3.738v-.985h.966v.985h3.821v1.914h-.96v-1.062h-1.761v1.837c0 .255.064.293.394.293h1.125c.274 0 .337-.115.363-.77.19.121.566.261.813.325-.089.991-.343 1.246-1.074 1.246h-1.348c-.985 0-1.208-.242-1.208-1.087v-1.844h-1.258zm7.857 2.098v5.372h-.935v-8.9h3.738v3.528h-2.803zm0-2.816v.7h1.913v-.7h-1.913zm1.913 2.117v-.75h-1.913v.75h1.913zm5.525 4.895c0 .534-.115.84-.477 1.005-.356.152-.915.158-1.761.158a4.1 4.1 0 00-.292-.921h-2.74v.508h-.865v-4.246h3.802v3.712c.496.02.985.013 1.144.013.184-.013.235-.064.235-.235V18.45h-2.88v-3.548h3.834v7.718zm-5.27-2.784v.788h2.059v-.788h-2.059zm2.059 2.32v-.84h-2.059v.84h2.059zm.28-6.548v.7h1.977v-.7h-1.977zm1.977 2.136v-.77h-1.977v.77h1.977zm3.834.356h6.637c.21 0 .585-.013.852-.051v1.042a18.036 18.036 0 00-.852-.019h-2.613c-.038 1.075-.241 1.965-.629 2.696-.362.686-1.138 1.436-2.015 1.894l-.935-.686c.75-.306 1.481-.89 1.876-1.514.438-.68.565-1.48.61-2.39h-2.931c-.305 0-.636.013-.922.032v-1.055c.28.031.604.05.922.05zm1.253-2.556h3.426c.312 0 .699-.02 1.011-.064v1.043a17.88 17.88 0 00-1.011-.038h-3.414c-.343 0-.718.019-.992.038V15.48c.306.045.649.064.98.064zm5.823.56l-.668.285c-.203-.406-.527-1.01-.801-1.398l.649-.274c.248.363.616.992.82 1.386zm1.163-.446l-.661.293a9.688 9.688 0 00-.833-1.399l.649-.273c.279.388.661 1.01.845 1.38zm4.756 8.049l-.865-.801c1.895-.7 2.791-1.57 2.791-4.26v-.407h-2.664v1.52c0 .407.032.839.038.985h-1.125c.019-.14.051-.566.051-.985v-1.52h-.992c-.476 0-.89.02-1.055.032v-1.093c.134.019.585.082 1.055.082h.992v-1.176c0-.241-.019-.546-.051-.813h1.138c-.019.14-.051.445-.051.82v1.163h2.664v-1.176c0-.407-.032-.737-.051-.884h1.144c-.012.14-.05.477-.05.884v1.176h.94c.496 0 .821-.032 1.011-.064v1.075c-.152-.02-.515-.032-1.004-.032h-.954v.343c.007 2.626-.591 4.075-2.962 5.13zm4.463-7.12l-.585.203c-.153-.439-.356-1.01-.56-1.411l.579-.185c.178.382.432.998.566 1.393zm1.029-.312l-.584.19c-.153-.444-.363-1.01-.566-1.41l.578-.185c.191.394.439.998.572 1.405zm5.861 1.075c1.055-.649 2.13-1.59 2.816-2.41l.852.814a16.724 16.724 0 01-2.727 2.219v4.208c0 .414.019.973.07 1.195h-1.259c.032-.222.064-.781.064-1.195v-3.528a20.785 20.785 0 01-3.738 1.57l-.496-1.004c1.774-.477 3.293-1.17 4.418-1.87zm10.553 3.458c1.634-1.004 2.899-2.523 3.516-3.82l.616 1.106c-.731 1.316-1.977 2.695-3.56 3.668a11.218 11.218 0 01-3.884 1.513l-.68-1.043c1.697-.26 3.013-.826 3.992-1.424zm-.349-3.242l-.801.82c-.528-.534-1.787-1.64-2.537-2.148l.737-.789c.719.47 2.035 1.526 2.601 2.117zm8.334-1.564h5.041c.274 0 .63-.013.814-.019-.013.223-.019.585-.019.852v5.238c0 .356.019.852.038 1.075h-1.157c0-.14.013-.337.013-.547h-4.806c-.414 0-.922.019-1.215.038v-1.144c.293.019.738.05 1.177.05h4.856v-4.52h-4.736c-.394 0-.915.02-1.176.039v-1.126c.35.032.833.064 1.17.064zm10.089 2.536h5.512c.489 0 .884-.038 1.138-.063v1.258c-.223-.012-.687-.05-1.138-.05h-5.512c-.559 0-1.163.019-1.513.05v-1.258c.337.019.96.063 1.513.063zm15.912-1.837c-.356.833-.954 1.977-1.666 2.886 1.043.89 2.27 2.2 2.899 2.97l-.89.788c-.667-.916-1.685-2.028-2.689-2.963-1.087 1.157-2.454 2.238-3.903 2.918l-.82-.858c1.64-.63 3.165-1.844 4.164-2.969.686-.77 1.366-1.888 1.614-2.676h-3.719c-.394 0-.941.05-1.106.063v-1.144c.204.032.788.07 1.106.07h3.764c.375 0 .712-.038.883-.102l.662.49a3.015 3.015 0 00-.299.527zm8.716 2.441a1.177 1.177 0 11-1.176-1.176c.648 0 1.176.528 1.176 1.176zm12.186-2.732c-.324.838-.813 1.925-1.462 2.879.903.737 1.774 1.532 2.473 2.288l-.813.89a22.075 22.075 0 00-2.334-2.288c-.921 1.125-2.136 2.282-3.884 3.21l-.89-.8a10.986 10.986 0 003.942-3.103 28.18 28.18 0 00-2.798-1.996l.668-.814a40.57 40.57 0 012.784 1.94c.598-.885.973-1.787 1.266-2.614.082-.222.171-.585.222-.833l1.176.414a11.18 11.18 0 00-.35.826zm4.177 1.69h6.637c.21 0 .585-.013.852-.051v1.042a18.006 18.006 0 00-.852-.019h-2.612c-.039 1.075-.242 1.965-.63 2.696-.362.686-1.138 1.436-2.015 1.894l-.935-.686c.751-.306 1.482-.89 1.876-1.514.439-.68.566-1.48.61-2.39h-2.931c-.305 0-.635.013-.921.032v-1.055c.279.031.604.05.921.05zm1.253-2.556h3.426c.312 0 .7-.02 1.011-.064v1.043c-.324-.02-.686-.038-1.011-.038h-3.413c-.344 0-.719.019-.992.038V15.48c.305.045.648.064.979.064zm5.823.56l-.667.285c-.204-.406-.528-1.01-.801-1.398l.648-.274c.248.363.617.992.82 1.386zm1.163-.446l-.661.293a9.598 9.598 0 00-.833-1.399l.649-.273c.28.388.661 1.01.845 1.38zm5.29 3.109c.96-.597 1.939-1.462 2.46-2.11l.789.769c-.509.534-1.38 1.265-2.283 1.863v3.56c0 .324.013.8.051.972h-1.176c.019-.171.038-.648.038-.972V19.93a20.34 20.34 0 01-3.051 1.277l-.49-.953c1.342-.299 2.842-.992 3.662-1.488zm14.844-2.199c-.439.737-1.399 2.028-2.486 2.797l-.839-.68c.89-.515 1.774-1.52 2.066-2.098h-5.556c-.407 0-.763.032-1.195.064v-1.126c.375.051.788.09 1.195.09h5.664c.223 0 .681-.032.839-.07l.636.597c-.082.114-.248.305-.324.426zm-6.58 6.885l-.934-.763c.292-.102.648-.26.972-.496 1.45-.934 1.685-2.212 1.685-3.89 0-.274-.013-.515-.064-.814h1.157c0 2.65-.152 4.596-2.816 5.963zm9.53-5.353h6.637c.209 0 .585-.013.852-.051v1.042a18.067 18.067 0 00-.852-.019h-2.613c-.038 1.075-.242 1.965-.63 2.696-.362.686-1.137 1.436-2.015 1.894l-.934-.686c.75-.306 1.481-.89 1.875-1.514.439-.68.566-1.48.61-2.39h-2.93c-.305 0-.636.013-.922.032v-1.055c.28.031.604.05.922.05zm1.252-2.556h3.427c.311 0 .699-.02 1.01-.064v1.043c-.324-.02-.686-.038-1.01-.038h-3.414c-.343 0-.719.019-.992.038V15.48c.299.045.648.064.979.064zm5.823.56l-.667.285c-.204-.406-.528-1.01-.801-1.398l.648-.274c.248.363.617.992.82 1.386zm1.164-.446l-.661.293a9.688 9.688 0 00-.833-1.399l.648-.273c.28.388.661 1.01.846 1.38zm4.755 8.049l-.865-.801c1.895-.7 2.791-1.57 2.791-4.26v-.407h-2.664v1.52c0 .407.032.839.039.985h-1.126c.019-.14.051-.566.051-.985v-1.52h-.992c-.476 0-.89.02-1.055.032v-1.093c.134.019.585.082 1.055.082h.992v-1.176c0-.241-.019-.546-.051-.813h1.138c-.019.14-.051.445-.051.82v1.163h2.664v-1.176c0-.407-.032-.737-.051-.884h1.145c-.013.14-.051.477-.051.884v1.176h.941c.495 0 .82-.032 1.01-.064v1.075c-.152-.02-.515-.032-1.004-.032h-.954v.343c.007 2.626-.591 4.075-2.962 5.13zm4.456-7.12l-.585.203c-.152-.439-.356-1.01-.559-1.411l.578-.185c.185.382.439.998.566 1.393zm1.036-.312l-.584.19c-.153-.444-.363-1.01-.566-1.41l.578-.185c.185.394.439.998.572 1.405zm5.862 1.075c1.056-.649 2.13-1.59 2.817-2.41l.851.814a16.681 16.681 0 01-2.727 2.219v4.208c0 .414.019.973.07 1.195h-1.259c.032-.222.064-.781.064-1.195v-3.528a20.785 20.785 0 01-3.738 1.57l-.496-1.004c1.767-.477 3.293-1.17 4.418-1.87zm10.546 3.458c1.634-1.004 2.899-2.523 3.516-3.82l.617 1.106c-.731 1.316-1.977 2.695-3.56 3.668a11.223 11.223 0 01-3.885 1.513l-.68-1.043c1.704-.26 3.02-.826 3.992-1.424zm-.343-3.242l-.801.82c-.527-.534-1.786-1.64-2.536-2.148l.737-.789c.718.47 2.034 1.526 2.6 2.117zm8.335-1.564h5.041c.274 0 .63-.013.814-.019-.013.223-.019.585-.019.852v5.238c0 .356.019.852.038 1.075h-1.157c0-.14.013-.337.013-.547h-4.806c-.414 0-.922.019-1.215.038v-1.144c.293.019.738.05 1.177.05h4.857v-4.52h-4.737c-.394 0-.915.02-1.176.039v-1.126c.35.032.833.064 1.17.064zm10.082 2.536h5.512c.49 0 .884-.038 1.138-.063v1.258c-.222-.012-.687-.05-1.138-.05h-5.512c-.559 0-1.163.019-1.513.05v-1.258c.337.019.967.063 1.513.063zm15.918-1.837c-.356.833-.953 1.977-1.665 2.886 1.042.89 2.269 2.2 2.899 2.97l-.89.788c-.668-.916-1.685-2.028-2.689-2.963-1.087 1.157-2.454 2.238-3.904 2.918l-.82-.858c1.64-.63 3.166-1.844 4.164-2.969.687-.77 1.367-1.888 1.615-2.676h-3.719c-.394 0-.941.05-1.106.063v-1.144c.203.032.788.07 1.106.07h3.763c.375 0 .712-.038.884-.102l.661.49a3.08 3.08 0 00-.299.527zm-190.717 99.332h-20.464c-.14-5.404 2.766-9.237 10.63-14.011 4.634-2.93 5.855-4.412 5.855-7.254 0-3.153-2.34-5.359-5.665-5.359-2.574 0-4.545 1.259-5.34 3.382-.28.858-.375 1.666-.375 3.872h-4.17v-1.126c0-3.064.655-5.136 2.199-6.802 1.78-2.028 4.495-3.064 7.82-3.064 5.899 0 9.879 3.649 9.879 9.053 0 2.612-.935 4.818-2.765 6.668-1.266 1.259-1.876 1.71-6.466 4.552-3.229 2.073-5.855 4.641-6.414 6.351h15.27v3.738h.006zm27.114-25.41c1.545 2.746 2.199 5.944 2.199 10.718 0 4.323-.699 7.661-2.199 10.318-1.78 3.109-4.965 4.952-8.57 4.952-3.56 0-6.745-1.85-8.525-4.952-1.5-2.746-2.199-5.944-2.199-10.54 0-4.552.699-7.883 2.199-10.496 1.825-3.109 4.965-4.953 8.525-4.953 3.656-.006 6.79 1.8 8.57 4.953zm-13.63 2.25c-.89 2.028-1.31 4.552-1.31 8.246 0 3.693.42 6.261 1.31 8.289.985 2.117 2.905 3.471 5.105 3.471 2.155 0 4.119-1.347 5.06-3.471.89-2.028 1.31-4.551 1.31-8.105 0-3.872-.375-6.44-1.31-8.423-.985-2.162-2.95-3.471-5.105-3.471-2.155 0-4.075 1.303-5.06 3.464zm44.444 23.16h-20.465c-.139-5.404 2.766-9.237 10.63-14.011 4.634-2.93 5.855-4.412 5.855-7.254 0-3.153-2.34-5.359-5.664-5.359-2.575 0-4.546 1.259-5.341 3.382-.279.858-.375 1.666-.375 3.872h-4.17v-1.126c0-3.064.655-5.136 2.2-6.802 1.78-2.028 4.494-3.064 7.819-3.064 5.9 0 9.879 3.649 9.879 9.053 0 2.612-.934 4.818-2.765 6.668-1.265 1.259-1.876 1.71-6.466 4.552-3.229 2.073-5.855 4.641-6.414 6.351h15.27v3.738h.007zm27.774 0H317.5c-.139-5.404 2.766-9.237 10.63-14.011 4.634-2.93 5.855-4.412 5.855-7.254 0-3.153-2.34-5.359-5.665-5.359-2.574 0-4.545 1.259-5.34 3.382-.279.858-.375 1.666-.375 3.872h-4.17v-1.126c0-3.064.655-5.136 2.2-6.802 1.78-2.028 4.494-3.064 7.819-3.064 5.899 0 9.879 3.649 9.879 9.053 0 2.612-.934 4.818-2.765 6.668-1.265 1.259-1.876 1.71-6.466 4.552-3.229 2.073-5.855 4.641-6.414 6.351h15.27v3.738h.006zm13.205-.604h-4.342v-4.056h4.342v4.056zm40.336.452h-28.856c-.197-7.623 3.897-13.02 14.991-19.752 6.535-4.126 8.251-6.224 8.251-10.23 0-4.443-3.299-7.558-7.991-7.558-3.63 0-6.408 1.78-7.527 4.762-.394 1.207-.527 2.352-.527 5.46h-5.874v-1.589c0-4.316.921-7.24 3.102-9.593 2.511-2.86 6.338-4.317 11.03-4.317 8.321 0 13.935 5.144 13.935 12.766 0 3.687-1.322 6.796-3.897 9.402-1.78 1.78-2.638 2.416-9.11 6.415-4.558 2.924-8.252 6.541-9.046 8.957h21.525v5.277h-.006zm11.519-.452h-4.342v-4.056h4.342v4.056zm26.586.451h-5.81V85.772h-9.968v-4.126c5.677.191 10.235-2.924 11.29-7.686h4.488v41.92zm38.894-12.066c0 7.432-6.401 12.893-14.99 12.893-8.652 0-15.054-5.524-15.054-12.893 0-4.761 2.441-8.385 7.463-11.048-3.63-2.035-5.48-5.08-5.48-8.83 0-6.288 5.48-10.859 13.077-10.859 7.527 0 13.007 4.571 13.007 10.858 0 3.751-1.85 6.796-5.48 8.83 5.016 2.664 7.457 6.288 7.457 11.049zm-23.903-.317c0 4.698 3.63 7.94 8.913 7.94 5.149 0 8.849-3.242 8.849-7.813 0-4.762-3.566-8.004-8.913-8.004-5.219 0-8.849 3.242-8.849 7.877zm1.78-19.117c0 3.56 2.905 6.033 7.133 6.033 4.094 0 7.063-2.479 7.063-5.97 0-3.623-2.842-6.096-7.133-6.096-4.158-.006-7.063 2.473-7.063 6.033zm45.207 15.594h-10.394v5.855h8.728v2.346h-8.728v8.9h-2.785v-19.53h13.179v2.43zm6.204 2.956v2.225c.56-.82.789-1.144 1.17-1.494.642-.674 1.672-1.112 2.518-1.112.527 0 1.023.114 1.494.349v2.429c-.56-.114-.852-.146-1.227-.146-2.168 0-3.834 1.932-3.834 4.45v7.438h-2.695v-14.145h2.574v.006zm11.628-2.25h-2.695v-3.134h2.695v3.134zm0 16.395h-2.695V102.93h2.695v14.145zm37.584-20.07h-18.525V94.75h18.525v2.256zm48.448 18.964h-28.97c-.197-7.654 3.91-13.077 15.048-19.84 6.561-4.146 8.29-6.25 8.29-10.274 0-4.463-3.312-7.59-8.023-7.59-3.649 0-6.434 1.786-7.559 4.786-.4 1.215-.527 2.359-.527 5.487h-5.9v-1.596c0-4.336.928-7.273 3.115-9.631 2.518-2.867 6.364-4.336 11.074-4.336 8.354 0 13.993 5.169 13.993 12.823 0 3.7-1.329 6.827-3.91 9.44-1.793 1.787-2.651 2.422-9.148 6.44-4.577 2.937-8.29 6.567-9.085 8.996h21.615v5.295h-.013zm35.805-35.976c2.186 3.891 3.115 8.424 3.115 15.182 0 6.122-.992 10.845-3.115 14.609-2.518 4.399-7.025 7.018-12.136 7.018-5.042 0-9.549-2.613-12.067-7.018-2.123-3.891-3.115-8.424-3.115-14.927 0-6.44.992-11.164 3.115-14.864 2.588-4.399 7.032-7.018 12.067-7.018 5.174 0 9.618 2.556 12.136 7.019zm-19.288 3.192c-1.259 2.873-1.857 6.44-1.857 11.672s.598 8.868 1.857 11.735c1.392 3.001 4.113 4.914 7.228 4.914 3.051 0 5.836-1.913 7.158-4.914 1.259-2.873 1.856-6.44 1.856-11.48 0-5.487-.527-9.124-1.856-11.927-1.392-3.064-4.177-4.914-7.228-4.914-3.052 0-5.766 1.85-7.158 4.914zm44.202 20.394c-.293-2.695-1.901-4.011-4.864-4.011-2.606 0-4.278 1.112-4.278 2.81 0 1.436 1.023 2.282 3.515 2.841l3.16.706c2.314.528 3.484 1.023 4.425 1.875 1.023.909 1.583 2.225 1.583 3.751 0 3.687-2.988 5.976-7.731 5.976-5.067 0-8.112-2.575-8.525-7.26h2.899c.292 3.102 2.346 4.831 5.709 4.831 2.81 0 4.799-1.379 4.799-3.337 0-1.462-1.055-2.429-3.102-2.931l-4.393-1.055c-3.572-.852-5.181-2.429-5.181-5.067 0-3.426 2.842-5.594 7.324-5.594 4.482 0 6.885 2.079 7.495 6.471h-2.835v-.006zm16.395 13.497v-1.609c-1.405 1.494-2.55 1.99-4.482 1.99-1.672 0-3.045-.559-3.834-1.551-.673-.877-.934-1.876-.934-3.516v-9.459h2.695v9.256c0 1.932.878 2.867 2.721 2.867 2.314 0 3.719-1.348 3.719-3.541v-8.582h2.696v14.145h-2.581zm9.93-14.146v1.609c1.405-1.494 2.549-1.99 4.481-1.99 1.666 0 3.046.559 3.834 1.551.674.877.934 1.875.934 3.516v9.459h-2.695v-9.256c0-1.933-.877-2.867-2.721-2.867-2.314 0-3.719 1.348-3.719 3.541v8.582h-2.695V102.93h2.581z" fill="#fff"/></svg>