<svg width="308" height="53" fill="none" xmlns="http://www.w3.org/2000/svg"><path d="M2.937 33.422a.539.539 0 01.139-.172c.04-.031.053-.063.053-.094 0-.045-.014-.07-.093-.107a3.985 3.985 0 00-.475-.164c-.023.164-.054.28-.133.444A6.265 6.265 0 010 36.045a.774.774 0 01.272.264c.053.07.07.101.11.101.023 0 .054-.022.116-.07 1.092-.784 1.808-1.647 2.44-2.918zm1.627-.494c-.031-.063-.045-.063-.139-.015l-.218.094c-.085.04-.101.045-.076.11a7.868 7.868 0 002.668 3.189c.054.04.085.062.11.062.032 0 .054-.03.102-.11.071-.116.165-.24.258-.311a6.693 6.693 0 01-2.705-3.02zm.125 3.78c-.049-.048-.054-.048-.133.008l-.204.125c-.094.062-.116.076-.077.124.374.45.694.88.98 1.33a62.74 62.74 0 01-2.904.311c.42-.925.801-1.921 1.081-2.7.071-.203.125-.293.187-.381.04-.048.054-.062.054-.11 0-.04-.04-.077-.102-.102a4.629 4.629 0 00-.498-.148c-.031.25-.093.467-.21.824a26.17 26.17 0 01-1.05 2.66c-.076 0-.155.008-.231.008a6.487 6.487 0 01-.863.014c.04.196.085.374.133.513.014.062.048.093.076.093.04 0 .062-.014.102-.04.062-.04.141-.07.311-.085 1.37-.124 2.909-.28 4.154-.475.141.232.272.475.413.739.031.062.048.053.156 0l.24-.142c.102-.054.11-.07.077-.116-.566-.973-.994-1.619-1.692-2.45zM15.183 34.6c.054 0 .063-.009.063-.071v-.374c0-.053-.009-.062-.063-.062-.04 0-.294.017-1.072.017h-1.743v-.645c0-.334.014-.467.048-.538.023-.053.04-.085.04-.138 0-.032-.04-.063-.102-.071a4.873 4.873 0 00-.538-.04c.04.187.054.396.054.787v.645h-1.587c-.77 0-1.028-.017-1.073-.017-.054 0-.062.008-.062.062v.374c0 .062.008.07.062.07.045 0 .303-.014 1.073-.014h3.828c.775-.002 1.033.014 1.072.014zm-4.66.574l-.257.084c-.11.04-.116.048-.094.102.334.863.569 1.658.747 2.7.014.07.031.076.147.048l.272-.08c.094-.022.094-.045.085-.101a14.033 14.033 0 00-.792-2.73c-.014-.046-.031-.046-.108-.023z" fill="#fff"/><path d="M15.57 38.629c-.047 0-.28.017-1.01.017h-1.524c.404-.942.707-1.837.987-2.801.048-.164.085-.272.147-.343.031-.04.071-.085.071-.133 0-.04-.017-.062-.076-.085a5.312 5.312 0 00-.546-.172 4.333 4.333 0 01-.156.81c-.218.8-.515 1.734-.934 2.721H9.813c-.725 0-.965-.017-1.005-.017-.053 0-.062.009-.062.062v.388c0 .054.009.062.062.062.04 0 .28-.017 1.005-.017h4.745c.73 0 .965.017 1.01.017.054 0 .062-.008.062-.062v-.388c.003-.05-.005-.06-.06-.06zM21 35.29h1.945c.747 0 .996.014 1.035.014.054 0 .063-.008.063-.07v-.357c0-.054-.009-.063-.063-.063-.04 0-.288.017-1.035.017H20.85c.045-.404.07-.823.076-1.262.009-.356.023-.506.063-.582.022-.054.045-.085.045-.148 0-.04-.031-.07-.108-.084a6.383 6.383 0 00-.552-.049c.04.233.049.445.04.88-.008.445-.023.858-.062 1.245h-1.837c-.746 0-.995-.017-1.035-.017-.054 0-.062.009-.062.063v.356c0 .063.008.071.062.071.04 0 .288-.014 1.035-.014H20.3a5.316 5.316 0 01-.45 1.525c-.453.934-1.276 1.757-2.592 2.303.102.071.201.156.289.263.054.077.08.11.116.11.031 0 .062-.013.124-.039 1.197-.6 1.976-1.338 2.513-2.442.187-.39.328-.832.427-1.316.507 1.673 1.633 3.028 2.98 3.735a.298.298 0 00.116.049c.04 0 .062-.032.11-.116.077-.125.178-.24.28-.326-1.579-.625-2.713-2.12-3.211-3.746zm11.653 1.666c-.04 0-.28.014-1.01.014h-2.069v-.093c0-.124 0-.21.008-.266.49-.28.886-.537 1.197-.786.179-.148.25-.179.326-.204.048-.014.079-.048.079-.102 0-.054-.048-.133-.156-.24-.124-.125-.172-.165-.217-.165-.032 0-.054.009-.077.014a.745.745 0 01-.2.015h-2.18c-.73 0-.973-.015-1.01-.015-.053 0-.062.009-.062.063v.32c0 .053.009.062.062.062.04 0 .28-.014 1.01-.014h2.094c-.32.271-.636.498-1.01.715-.116-.03-.249-.053-.396-.079.04.195.054.427.054.77H26.97c-.73 0-.974-.014-1.01-.014-.054 0-.063.008-.063.062v.342c0 .054.009.063.063.063.04 0 .28-.015 1.01-.015h2.125v1.347c0 .25-.116.303-.343.303-.32 0-.537-.014-.809-.048.07.093.125.24.164.36.04.155.04.146.187.146.724.017.917-.022 1.08-.124.157-.11.21-.232.21-.507 0-.186-.008-.506-.008-.667v-.81h2.068c.73 0 .974.014 1.01.014.054 0 .063-.008.063-.062v-.342c-.003-.048-.009-.057-.066-.057z" fill="#fff"/><path d="M27.285 34.008c-.755 0-1.027-.017-1.072-.017-.054 0-.062.008-.062.054 0 .048.014.164.014.427v.272c0 .684-.014.786-.014.832 0 .053.008.062.062.062h.357c.053 0 .062-.009.062-.062v-1.16h5.359v1.16c0 .053.009.062.062.062h.351c.062 0 .07-.009.07-.062 0-.04-.013-.14-.013-.832v-.32c0-.218.014-.342.014-.382 0-.045-.009-.054-.07-.054-.04 0-.312.017-1.073.017h-.326c.196-.288.326-.52.467-.786a.602.602 0 01.147-.179c.04-.022.054-.053.054-.085 0-.04-.023-.07-.085-.101a2.157 2.157 0 00-.458-.164 1.36 1.36 0 01-.102.356 5.29 5.29 0 01-.506.956h-3.238v.006z" fill="#fff"/><path d="M27.565 33.883c.022 0 .048-.014.102-.04l.21-.101c.092-.048.1-.048.07-.102a6.152 6.152 0 00-.583-.871c-.04-.046-.062-.046-.147-.009l-.195.085c-.094.04-.102.062-.071.102.2.249.427.583.569.88.014.04.022.056.045.056zm1.805-.133l.21-.076c.102-.048.11-.048.085-.102a4.977 4.977 0 00-.481-.916c-.031-.048-.054-.048-.133-.014l-.21.07c-.085.031-.11.048-.07.102.178.28.325.538.452.92.023.062.037.062.148.017zm6.836-.093a5.567 5.567 0 00-1.035-.84c-.048-.031-.071-.023-.125.04l-.172.178c-.071.07-.071.085-.023.116.32.2.724.551 1.036.894.048.048.062.04.124-.031l.173-.21c.062-.068.062-.102.022-.147zm5.034 2.42c-.048 0-.32.014-1.104.014h-1.338v-1.415h.98c.76 0 1.018.014 1.057.014.054 0 .063-.008.063-.062v-.325c0-.054-.009-.063-.063-.063-.04 0-.294.014-1.058.014h-.979v-.577c0-.467.023-.676.048-.747.023-.062.04-.093.04-.139 0-.03-.04-.062-.094-.07a5.151 5.151 0 00-.506-.04c.04.272.048.49.048 1.01v.56h-.668c-.76 0-1.01-.014-1.05-.014-.053 0-.062.009-.062.063v.325c0 .054.009.062.063.062.04 0 .288-.014 1.05-.014h.667v1.415h-1.036c-.786 0-1.058-.014-1.103-.014-.054 0-.062.008-.062.062v.325c0 .063.008.071.062.071.048 0 .32-.014 1.103-.014h.677c-.218.818-.49 1.517-.787 2.187l-.28.023a12.47 12.47 0 01-.792.023c.03.164.076.333.124.489.014.054.054.102.102.102.048 0 .08-.031.125-.054.04-.022.101-.048.32-.07a65.993 65.993 0 003.587-.485c.147.227.289.467.422.716.022.054.04.054.138-.014l.218-.141c.077-.054.077-.071.054-.116a11.453 11.453 0 00-1.44-1.97c-.031-.03-.054-.03-.11.009l-.196.116c-.085.054-.093.076-.048.124.25.289.49.583.708.895-.801.124-1.557.226-2.42.302a18.1 18.1 0 00.792-2.139h1.642c.786 0 1.058.014 1.103.014.045 0 .054-.008.054-.07v-.326c.006-.048-.003-.056-.051-.056zm-5.63-.195l.186-.218c.048-.054.048-.071.009-.11a6.391 6.391 0 00-1.098-.819c-.048-.022-.076-.022-.124.04l-.165.195c-.053.063-.062.08-.008.11.35.219.747.521 1.067.858.045.045.053.037.133-.056zm.217 1.191a1.047 1.047 0 01-.263-.232 10.52 10.52 0 01-.707 1.867 2.892 2.892 0 01-.351.575c.139.11.24.178.373.257.054.031.085.04.116.04.032 0 .054-.04.063-.094.008-.07.062-.186.133-.35.234-.544.498-1.192.707-1.828.045-.156.045-.164-.07-.235zm10.789-3.096c.009-.133.009-.266.009-.405 0-.195.03-.35.07-.436.023-.053.049-.093.049-.155 0-.048-.048-.077-.11-.094a4.78 4.78 0 00-.584-.062c.04.272.049.498.054.925.031 2.233-1.041 4.273-3.127 5.275.102.07.204.164.29.28.053.079.078.116.11.116.03 0 .062-.023.115-.054 1.58-.894 2.638-2.326 2.966-4.278.288 1.565 1.129 3.158 2.895 4.287.053.04.084.053.115.053.032 0 .054-.03.102-.11.071-.125.164-.232.272-.32-2.043-1.149-2.914-2.931-3.226-5.022zm13.973 3.321c0-.062-.009-.07-.063-.07-.048 0-.32.014-1.103.014h-1.641a7.49 7.49 0 00.32-.855h.73c.73 0 .987.014 1.027.014.053 0 .062-.008.062-.062 0-.04-.017-.172-.017-.574v-.577c0-.397.017-.53.017-.57 0-.053-.009-.061-.062-.061-.04 0-.295.014-1.028.014h-1.734c-.733 0-.979-.014-1.027-.014-.054 0-.062.008-.062.062 0 .04.014.172.014.569v.577c0 .404-.014.538-.014.574 0 .054.008.063.062.063.045 0 .294-.015 1.027-.015h.512c-.08.264-.195.57-.325.855h-.756c-.792 0-1.072-.014-1.112-.014-.053 0-.062.008-.062.07 0 .04.014.201.014.668v.459c0 .948-.014 1.098-.014 1.143 0 .048.008.053.062.053h.365c.048 0 .054-.008.054-.053v-.326h4.273v.295c0 .048.008.053.062.053h.356c.054 0 .063-.008.063-.053 0-.048-.017-.196-.017-1.135v-.52c0-.383.017-.544.017-.584zm-4.117-2.342h2.98v1.058h-2.98v-1.058zm3.633 3.882h-4.273V37.64h4.273v1.197z" fill="#fff"/><path d="M61.11 33.524c0-.053-.01-.062-.063-.062-.048 0-.311.014-1.072.014h-1.837v-.11c0-.351.009-.467.04-.544.014-.053.04-.084.04-.138 0-.031-.032-.062-.094-.07-.147-.018-.32-.023-.506-.032.048.187.053.39.053.792v.102h-1.703c-.761 0-1.027-.014-1.072-.014-.054 0-.063.008-.063.062 0 .04.015.156.015.419v.263c0 .693-.014.787-.014.824 0 .053.008.062.062.062h.356c.054 0 .063-.009.063-.062v-1.144h5.313v1.144c0 .053.009.062.063.062h.356c.054 0 .062-.009.062-.062 0-.04-.014-.14-.014-.824v-.311c-.003-.215.014-.331.014-.37zm8.191.241c.023 0 .045-.014.093-.045l.147-.102c.094-.063.102-.08.071-.125a3.775 3.775 0 00-.583-.676c-.048-.048-.048-.054-.133 0l-.155.093c-.094.054-.102.071-.054.11.204.196.396.436.56.694.023.028.031.05.054.05zm-4.219 3.574c0-.11.009-.21.031-.294a6.697 6.697 0 01-.716.35V35.14h.054c.49 0 .631.014.676.014.054 0 .063-.008.063-.062v-.325c0-.054-.009-.063-.063-.063-.048 0-.186.017-.676.017h-.054v-.933c0-.52.023-.716.048-.81a.351.351 0 00.04-.133c0-.04-.04-.062-.093-.07a3.903 3.903 0 00-.507-.045c.054.302.062.52.062 1.072v.92h-.124c-.498 0-.637-.017-.676-.017-.054 0-.063.008-.063.062v.325c0 .054.009.062.063.062.04 0 .178-.014.676-.014h.124v2.437l-.31.101a3.426 3.426 0 01-.623.139c.04.156.085.303.133.427.022.054.053.085.084.085.04 0 .071-.031.102-.054a1.25 1.25 0 01.264-.124 10.11 10.11 0 001.346-.583c.14-.082.14-.068.14-.23z" fill="#fff"/><path d="M70.025 37.998a.842.842 0 01-.272-.195c-.048.667-.107 1.08-.257 1.08-.187 0-.543-.39-.823-1.276.271-.458.506-.996.707-1.663.076-.266.11-.365.164-.436.04-.054.062-.085.062-.125 0-.048-.03-.085-.093-.11a3.278 3.278 0 00-.419-.141c-.022.257-.07.498-.138.755a6.216 6.216 0 01-.445 1.166c-.2-.778-.31-1.633-.356-2.654h.645c.761 0 1.019.014 1.067.014.053 0 .062-.009.062-.062v-.326c0-.053-.009-.053-.062-.053-.048 0-.303.008-1.067.008h-.662v-.53c0-.373.022-.506.048-.56a.395.395 0 00.04-.147c0-.03-.023-.062-.102-.076a3.011 3.011 0 00-.484-.054c.04.289.048.645.048.957 0 .138 0 .28.008.413h-1.103c-.761 0-1.036-.009-1.073-.009-.053 0-.062 0-.062.054 0 .048.014.28.014.88 0 .818-.008 1.534-.116 2.224a3.99 3.99 0 01-1.035 2.117c.102.04.21.101.303.178.053.048.076.076.11.076.023 0 .048-.03.085-.093.435-.56.832-1.339.965-2.117.076-.475.116-.925.133-1.409h.973c0 .662-.07 1.316-.124 1.54-.063.2-.142.257-.303.257a3.27 3.27 0 01-.543-.062c.048.107.07.21.084.325.014.147.023.147.125.164.138.014.28.014.45.014.249 0 .49-.133.552-.39.101-.334.172-.903.195-1.735.008-.141.008-.288.022-.475 0-.054-.014-.07-.07-.07-.049 0-.142.013-.513.013h-.84v-1.072h1.788c.054 1.135.201 2.241.498 3.166-.49.716-1.16 1.214-2.014 1.61a.867.867 0 01.257.21c.054.062.077.093.116.093.023 0 .063-.023.125-.054.699-.373 1.245-.8 1.68-1.378.365.965.801 1.378 1.135 1.378.343 0 .538-.266.631-1.214.009-.135.009-.144-.116-.206zm5.311-2.708h1.944c.747 0 .996.014 1.036.014.054 0 .062-.008.062-.07v-.357c0-.054-.008-.063-.062-.063-.04 0-.289.017-1.036.017h-2.094a12.8 12.8 0 00.08-1.262c.008-.356.022-.506.062-.582.022-.054.048-.085.048-.148 0-.04-.031-.07-.11-.084a6.382 6.382 0 00-.552-.049c.04.233.048.445.04.88-.009.445-.023.858-.063 1.245h-1.836c-.747 0-.996-.017-1.036-.017-.053 0-.062.009-.062.063v.356c0 .063.008.071.062.071.04 0 .289-.014 1.036-.014h1.782a5.313 5.313 0 01-.45 1.525c-.452.934-1.276 1.757-2.591 2.303.102.071.203.156.288.263.054.077.077.11.116.11a.353.353 0 00.125-.039c1.197-.6 1.975-1.338 2.512-2.442.187-.39.329-.832.428-1.316.506 1.673 1.632 3.028 2.98 3.735a.298.298 0 00.115.049c.04 0 .063-.032.11-.116.077-.125.179-.24.28-.326-1.578-.625-2.716-2.12-3.214-3.746zm6.564-1.407c.023 0 .049-.014.103-.04l.209-.101c.093-.048.102-.048.07-.102a6.151 6.151 0 00-.582-.871c-.04-.046-.062-.046-.147-.009l-.195.085c-.094.04-.102.062-.071.102.2.249.427.583.569.88.014.04.022.056.045.056z" fill="#fff"/><path d="M80.486 35.578c0 .054.009.063.063.063h.356c.054 0 .062-.009.062-.063v-1.16h5.362v1.16c0 .054.009.063.063.063h.35c.063 0 .071-.009.071-.063 0-.04-.017-.138-.017-.831v-.32c0-.218.017-.343.017-.382 0-.045-.008-.054-.07-.054-.04 0-.312.017-1.073.017h-.328c.195-.289.328-.52.467-.787a.604.604 0 01.147-.178c.04-.022.054-.053.054-.085 0-.04-.023-.07-.085-.102a2.157 2.157 0 00-.459-.164 1.356 1.356 0 01-.102.357 5.471 5.471 0 01-.506.956h-3.237c-.755 0-1.027-.017-1.072-.017-.054 0-.063.009-.063.054 0 .048.017.164.017.427v.272c-.002.69-.017.792-.017.837z" fill="#fff"/><path d="M83.706 33.75l.21-.076c.102-.048.11-.048.085-.102a4.82 4.82 0 00-.484-.916c-.031-.048-.054-.048-.133-.014l-.21.07c-.085.031-.11.048-.07.102.178.28.325.538.45.92.028.062.045.062.152.017zm3.284 3.206c-.039 0-.28.014-1.01.014h-2.068v-.093c0-.124 0-.21.009-.266.49-.28.885-.537 1.2-.786.178-.148.249-.179.325-.204a.098.098 0 00.076-.102c0-.054-.048-.133-.155-.24-.125-.125-.173-.165-.218-.165-.031 0-.054.009-.08.014a.744.744 0 01-.2.015h-2.18c-.73 0-.972-.015-1.01-.015-.053 0-.061.009-.061.063v.32c0 .053.008.062.062.062.04 0 .28-.014 1.01-.014h2.094a6.84 6.84 0 01-1.01.715c-.116-.03-.25-.053-.397-.079.04.195.054.427.054.77h-2.125c-.73 0-.973-.014-1.01-.014-.054 0-.062.008-.062.062v.342c0 .054.008.063.062.063.04 0 .28-.015 1.01-.015h2.125v1.347c0 .25-.116.303-.342.303-.32 0-.538-.014-.81-.048.071.093.125.24.165.36.04.155.04.146.186.146.725.017.92-.022 1.081-.124.156-.11.21-.232.21-.507 0-.186-.009-.506-.009-.667v-.81h2.069c.73 0 .973.014 1.01.014.054 0 .062-.008.062-.062v-.342c0-.048-.008-.057-.062-.057zM9.416 25.044c-3.177 0-3.828-1.149-3.828-4.442V1.61h.076l7.852 24.739h1.342l8.157-24.892h.076V22.52c0 1.84-.65 2.527-3.446 2.527v1.302h11.106v-1.302c-3.101 0-3.752-.69-3.752-2.527V3.831c0-1.839.65-2.527 3.41-2.527V.003h-8.463L15.55 19.609h-.077L9.224 0H.226v1.302c3.101 0 3.752.69 3.752 2.526v16.774c0 3.293-.65 4.442-3.752 4.442v1.302h9.19v-1.302zM53.526 4.94c1.418-2.68 1.916-3.638 4.672-3.638V0h-8.769v1.302c2.414 0 3.254.458 3.254 1.264 0 1.953-4.558 9.077-5.285 10.685-.651-1.723-5.13-9.343-5.13-10.645 0-.92.92-1.302 3.217-1.302V.003H34.61v1.301c1.992 0 2.719.306 3.752 2.335l5.86 11.527v7.354c0 1.84-.651 2.527-3.984 2.527v1.302h12.025v-1.302c-3.486 0-4.137-.69-4.137-2.527v-7.354l5.4-10.226zM79.484 0v1.302c3.716 0 4.097 1.607 4.097 3.675v12.945c0 4.29-2.105 7.583-7.696 7.583-4.213 0-6.242-2.22-6.242-6.318V3.831c0-1.839.651-2.527 3.676-2.527V.003H62.06v1.301c3.025 0 3.676.69 3.676 2.527v15.24c0 5.362 3.791 7.736 9.688 7.736 5.515 0 9.535-3.064 9.535-8.58V4.98c0-2.068.382-3.676 3.752-3.676V.003h-9.227V0zm146.125 7.49h-4.343v2.49h-1.038V7.49h-4.233v-.965h4.233v-.713h.693a4.833 4.833 0 00-.671-.552 4.952 4.952 0 002.349-2.87l1.018.196c-.13.402-.291.781-.486 1.126.778.52 1.731 1.214 2.218 1.678l-.705.747c-.432-.433-1.278-1.095-2.034-1.635a6.18 6.18 0 01-1.352 1.31h.011v.716h4.343v.962h-.003zm-5.769-2.123c-.272-.271-.758-.67-1.214-1.007-.487.747-1.084 1.387-1.732 1.85a6.223 6.223 0 00-.812-.67c1.104-.682 1.95-1.83 2.36-3.172l1.019.227a8.512 8.512 0 01-.41 1.007c.498.337 1.083.758 1.397 1.05l-.608.715zm5.455-3.03h-9.02v-.965h3.953V.051h1.038v1.321h4.029v.965zm8.599 5.141c.953.671 2.348 1.223 3.67 1.472a4.492 4.492 0 00-.671.9c-1.409-.38-2.858-1.104-3.876-2.035v2.176h-.985v-2.1c-1.03.866-2.49 1.57-3.845 1.95a4.522 4.522 0 00-.66-.854c1.288-.272 2.697-.835 3.65-1.506h-3.347v-.846h4.202v-.66h-3.195v-.757h3.195v-.651h-3.724v-.801h2.221a5.267 5.267 0 00-.455-.985l.26-.042h-2.459v-.843h1.602c-.161-.422-.487-1.019-.79-1.463l.878-.292c.336.467.715 1.127.865 1.548l-.551.207h1.191V.04h.942v1.85h1.073V.04h.953v1.85h1.169l-.411-.13a9.48 9.48 0 00.759-1.602l1.038.26a15.818 15.818 0 01-.9 1.472h1.559v.843h-2.091c-.206.368-.421.725-.605 1.03h2.295v.801h-3.834v.65h3.324v.76h-3.324v.658h4.267v.846h-3.39zm-2.784-4.742c.195.314.39.705.466.965l-.314.065h2.284a9.78 9.78 0 00.475-1.03h-2.911zm8.327-2.133h3.834v.908h-1.624a18.034 18.034 0 01-.628 2.382h2.088v4.765h-2.122v.835h-.843V5.834a6.188 6.188 0 01-.51.747 4.824 4.824 0 00-.402-1.137c.716-.965 1.18-2.394 1.463-3.93h-1.256V.603zm2.804 4.19h-1.256V7.77h1.256V4.793zm7.017.617h-1.168v4.58h-.965V5.41h-1.537c-.053 1.624-.336 3.42-1.505 4.635a5.217 5.217 0 00-.77-.586c1.03-1.072 1.279-2.663 1.333-4.05h-1.115v-.953h1.126v-2.9h-.834V.614h5.22v.942h-.953V4.46h1.168v.95zm-2.133-.95V1.555h-1.528V4.46h1.528zm12.625 4.47c.272 0 .314-.184.357-1.57.218.183.67.356.953.432-.096 1.69-.368 2.123-1.191 2.123h-1.05c-.931 0-1.202-.292-1.202-1.333v-1.95h-1.82c-.226 1.268-1.103 2.598-4.006 3.39a4.89 4.89 0 00-.682-.823c2.501-.66 3.356-1.647 3.627-2.567h-2.857V5.69h2.976V4.445h1.007V5.69h2.805v2.88c0 .315.053.357.314.357h.769v.003zm-4.482-7.017c-.226 1.72-.877 2.727-3.443 3.26-.088-.238-.326-.629-.532-.813 2.229-.39 2.739-1.137 2.923-2.447h-1.721V3.05h-1.007V1.016h4.049V.04h1.03v.973h4.125V2.95h-1.061V1.913h-1.907v1.7c0 .283.054.314.411.314h1.137c.28 0 .337-.096.368-.78.206.152.617.302.888.345-.107 1.05-.379 1.321-1.137 1.321h-1.387c-1.038 0-1.279-.272-1.279-1.191V1.91h-1.457v.003zm13.772 3.109a1.257 1.257 0 11-2.514 0 1.257 1.257 0 012.514 0zm9.086-1.57h2.49v.92h-2.49v.964h2.164v2.847c0 .41-.065.67-.345.823-.283.153-.693.161-1.256.153a2.562 2.562 0 00-.272-.855c.391.012.716.012.824 0 .107 0 .141-.03.141-.141V6.236h-1.256v3.758h-.954v-3.76h-1.18v2.891h-.9V5.336h2.08v-.965h-2.544v-.92h.747c-.206-.118-.605-.26-.843-.344.476-.716.835-1.786 1.039-2.816l.942.195a32.03 32.03 0 01-.283 1.073h.942V.119h.954v1.44h2.068v.908h-2.068v.985zm-.954 0v-.985h-1.267a5.613 5.613 0 01-.476.985h1.743zm5.037 3.54h-.931V1.004h.931v5.988zm1.949-6.788v8.5c0 .605-.13.888-.486 1.06-.346.173-.954.196-1.766.196a4.45 4.45 0 00-.325-1.03c.605.022 1.191.022 1.375.011.172 0 .226-.054.226-.226V.204h.976zm5.639.194a16.942 16.942 0 01-1.072 2.264v7.309h-1.019V4.252c-.283.39-.586.747-.889 1.061-.096-.249-.39-.812-.563-1.038 1.03-1.019 1.992-2.598 2.578-4.18l.965.303zm3.271 2.391v1.376h2.945v.92h-2.945v1.44h3.098v.942h-3.098v2.512h-1.027V2.79h-.606c-.455.844-.953 1.602-1.471 2.176-.161-.172-.552-.532-.781-.682.953-.996 1.819-2.555 2.34-4.114l.965.26a21.58 21.58 0 01-.563 1.398h4.352v.965h-3.209V2.79zm14.326 4.517c-.475.368-1.072.716-1.593.996.606.402 1.344.704 2.199.877-.218.184-.467.574-.594.823-1.916-.475-3.195-1.559-3.942-3.194h-1.149v1.82c.671-.097 1.387-.219 2.1-.326l.034.877c-1.44.238-2.968.487-4.094.66l-.153-.92a47.97 47.97 0 001.18-.162v-1.95h-1.257v-.842h1.82v-.943h-1.506v-.854h1.506v-.866h-1.808v.402c0 1.85-.153 4.547-1.279 6.301a4.41 4.41 0 00-.889-.52c1.073-1.667 1.158-4.06 1.158-5.784V.538h8.143v2.761h-1.537v.866h1.701v.855h-1.701v.942h2.145v.843h-1.214l.73.5zm-7.255-4.873h6.129v-1.03h-6.129v1.03zm2.728 1.732h1.927v-.866h-1.927v.866zm0 1.8h1.927v-.943h-1.927v.943zm1.548.843c.206.368.455.693.758.985a11.888 11.888 0 001.44-.985h-2.198zM103.136 19.812h-2.198v-.9h2.198v-2.34h.954v2.34h2.198v.9h-2.198v2.34h-.954v-2.34zm12.215-1.471c.736 2.253 2.099 4.083 4.148 4.938a4 4 0 00-.747.942c-2.026-.942-3.336-2.697-4.179-4.991-.552 1.96-1.72 3.834-4.179 4.991a3.432 3.432 0 00-.77-.843c2.578-1.126 3.627-3.076 4.06-5.037h-3.845V17.3h4.029c.13-1.084.119-2.122.13-2.988h1.095c-.011.877-.022 1.916-.152 2.988h4.363v1.038h-3.953v.003zm16.476 2.957h-4.267v1.808c0 .552-.141.834-.586.984-.444.142-1.083.153-2.025.153-.077-.283-.272-.693-.422-.973.758.031 1.517.031 1.732.023.217-.012.271-.054.271-.218v-1.777h-4.221v-.931h4.221v-.747h.51c.421-.227.854-.52 1.222-.812h-4.114v-.877h5.079l.218-.054.65.486c-.65.694-1.601 1.387-2.532 1.862v.142h4.267v.93h-.003zm-8.392-2.762h-.942v-2.481h1.559a6.954 6.954 0 00-.844-1.245l.866-.39c.391.432.824 1.038 1.008 1.45l-.391.185h2.003c-.152-.433-.467-1.03-.758-1.483l.877-.325c.368.486.736 1.168.877 1.601l-.532.207h1.831c.379-.498.801-1.18 1.05-1.69l1.061.337c-.314.467-.671.942-1.007 1.353h1.57v2.478h-.996V16.94h-7.232v1.596zm14.549-3.432c-.302.908-.681 2.035-1.029 2.88.735.855.899 1.602.899 2.253 0 .617-.13 1.072-.444 1.287a1.483 1.483 0 01-.586.218 4.927 4.927 0 01-.715.011c-.012-.248-.088-.628-.238-.865.226.022.41.022.552.011.13 0 .237-.031.336-.096.153-.108.196-.368.196-.682 0-.54-.173-1.245-.878-2.026.272-.724.552-1.69.759-2.425h-1.16v8.576h-.889v-9.49h2.383l.152-.031.662.38zm5.198 8.11c.196 0 .238-.173.261-1.3.195.162.594.315.854.38-.088 1.44-.337 1.82-1.007 1.82h-.843c-.824 0-1.019-.292-1.019-1.215v-2.642h-1.038c-.153 2.003-.595 3.282-2.632 3.984-.088-.238-.345-.617-.552-.781 1.743-.563 2.111-1.57 2.222-3.206h-1.322v-.917h6.041v.92h-1.765v2.631c0 .292.031.325.226.325h.574zm-2.705-7.7v-1.18h.974v1.18h2.696v2.026h-.854v.77h-4.482v-.77h-.824v-2.026h2.49zm2.739.866h-4.332v1.05h4.332v-1.05zm13.293 4.83h-1.126v1.896h-1.019v-.467h-2.306v.563c0 .552-.141.78-.509.92-.368.13-.931.141-1.842.141a3.232 3.232 0 00-.345-.812c.594.023 1.245.023 1.417.011.195-.011.261-.065.261-.249v-.574h-3.379v-.758h3.379v-.671h-4.332v-.79h4.332v-.616h-3.283v-.716h3.283v-.64h-3v-1.992h3v-.551h-4.103v-.812h4.103V14.3h1.018v.79h4.222v.812h-4.222v.552h3.152v1.992h-3.152v.639h3.325v1.333h1.126v.792zm-5.469-3.432v-.651h-2.035v.65h2.035zm1.018-.651v.65h2.134v-.65h-2.134zm0 3.294h2.306v-.617h-2.306v.617zm2.306.789h-2.306v.67h2.306v-.67zm10.857.52c.954.671 2.349 1.223 3.67 1.472a4.52 4.52 0 00-.67.9c-1.407-.38-2.858-1.104-3.877-2.035v2.176h-.984v-2.1c-1.03.866-2.49 1.571-3.846 1.95a4.557 4.557 0 00-.659-.854c1.287-.272 2.697-.835 3.65-1.506h-3.347v-.846h4.202v-.659h-3.195v-.758h3.195v-.651h-3.724v-.8h2.221a5.332 5.332 0 00-.455-.985l.26-.043h-2.459v-.843h1.602c-.162-.422-.487-1.019-.79-1.463l.877-.291c.337.466.716 1.126.866 1.547l-.552.207h1.192v-1.85h.942v1.85h1.072v-1.85h.954v1.85h1.168l-.41-.13a9.55 9.55 0 00.758-1.602l1.039.26a16.036 16.036 0 01-.9 1.472h1.559v.843h-2.091c-.207.368-.422.724-.605 1.03h2.294v.8h-3.834v.652h3.325v.758h-3.325v.66h4.267v.845h-3.39v-.006zm-2.781-4.745c.195.314.39.705.467.965l-.314.065h2.283c.162-.291.337-.682.476-1.03h-2.912zm11.95 3.823c-.142-.345-.456-.942-.736-1.451v4.872h-.931v-4.578c-.325 1.03-.724 1.98-1.157 2.597-.097-.271-.337-.65-.476-.865.64-.889 1.257-2.49 1.548-3.866h-1.321v-.93h1.409V14.3h.931v2.287h1.157v.93h-1.157v.64a40.354 40.354 0 011.279 1.916l-.546.735zm6.822 1.7h-.637v.717c0 .455-.096.681-.41.834-.314.12-.801.13-1.494.13a3.655 3.655 0 00-.272-.812c.456.023.92.023 1.061.012.13 0 .173-.043.173-.173v-.704h-3.39v1.677h-.92v-1.677h-.693v-.759h.693v-2.708h2.122v-.532h-2.631v-.747h1.418v-.605h-.954v-.705h.954v-.594h-1.18v-.724h1.18V14.3h.942v.835h1.482V14.3h.943v.835h1.287v.724h-1.287v.595h1.126v.704h-1.126v.606h1.505v.747h-2.75v.532h2.221v2.707h.639v.759h-.002zm-4.969-2.738v.617h1.202v-.617h-1.202zm0 1.98h1.202v-.67h-1.202v.67zm.931-5.294h1.482v-.594h-1.482v.594zm0 1.31h1.482v-.605h-1.482v.605zm1.18 2.004v.617h1.279v-.617h-1.279zm1.279 1.98v-.67h-1.279v.67h1.279zm6.092-1.092v-2.533c-.422.781-.942 1.483-1.471 1.938a4.399 4.399 0 00-.66-.715c.759-.54 1.517-1.582 1.97-2.61h-1.712v-.854h1.873v-1.548h.953v1.548h1.625v.855h-1.625v.52c.411.25 1.483 1.03 1.766 1.234l-.54.823a21.027 21.027 0 00-1.223-1.126v2.46l-.956.008zm-2.015 2.555c.422-.575.781-1.472.985-2.222l.888.357c-.217.747-.563 1.712-.964 2.317l-.909-.452zm6.171-.1c.51 0 .586-.152.651-1.233.218.161.628.303.909.368-.142 1.429-.422 1.765-1.483 1.765h-2.111c-1.299 0-1.635-.271-1.635-1.222v-1.616h.996v1.602c0 .291.107.337.724.337h1.949zm-1.502-2.758c.487.455 1.149 1.095 1.483 1.482l-.736.617c-.303-.402-.954-1.072-1.44-1.559l.693-.54zm4.643.172h-4.278v-5.664h4.278v5.664zm-.962-4.852h-2.394v.823h2.394v-.823zm0 1.593h-2.394v.843h2.394v-.843zm0 1.601h-2.394v.855h2.394v-.855zm.204 1.961c.444.67 1.038 1.593 1.321 2.145l-.931.475c-.26-.563-.834-1.516-1.267-2.21l.877-.41zm13.219.468h-4.267v1.808c0 .552-.142.834-.586.984-.444.142-1.083.153-2.026.153-.076-.283-.271-.693-.421-.973.758.031 1.516.031 1.731.023.218-.012.272-.054.272-.218v-1.777h-4.222v-.931h4.222v-.747h.509c.422-.227.855-.52 1.223-.812h-4.114v-.877h5.079l.217-.054.651.486c-.651.694-1.601 1.387-2.532 1.862v.142h4.267v.93h-.003zm-8.392-2.762h-.943v-2.481h1.559a6.947 6.947 0 00-.843-1.245l.866-.39c.39.432.823 1.038 1.007 1.45l-.39.185h2.003c-.153-.433-.467-1.03-.758-1.483l.877-.325c.368.486.736 1.168.877 1.601l-.532.207h1.831c.379-.498.801-1.18 1.05-1.69l1.061.337a18.29 18.29 0 01-1.008 1.353h1.571v2.478h-.996V16.94h-7.232v1.596zm11.029-3.681h3.834v.908h-1.624a18.034 18.034 0 01-.629 2.383h2.091v4.765h-2.122v.834h-.843v-3.661c-.161.272-.325.52-.509.747a4.868 4.868 0 00-.402-1.137c.716-.965 1.18-2.394 1.463-3.93h-1.256v-.909h-.003zm2.804 4.19h-1.257v2.977h1.257v-2.976zm7.017.617h-1.169v4.581h-.964v-4.58h-1.537c-.054 1.623-.337 3.42-1.505 4.634a5.328 5.328 0 00-.77-.586c1.03-1.072 1.279-2.662 1.333-4.049h-1.115v-.953h1.126v-2.903h-.834v-.942h5.22v.942h-.954v2.903h1.169v.953zm-2.133-.953v-2.903h-1.528v2.903h1.528zm13.37 4.471c.271 0 .314-.185.356-1.571.218.184.671.356.954.433-.097 1.689-.368 2.122-1.192 2.122h-1.049c-.931 0-1.203-.292-1.203-1.333v-1.95h-1.819c-.227 1.268-1.104 2.598-4.007 3.39a4.89 4.89 0 00-.682-.823c2.501-.66 3.356-1.647 3.628-2.566h-2.858v-.943h2.976v-1.245h1.008v1.245h2.804v2.88c0 .315.054.357.314.357h.77v.003zm-4.482-7.015c-.227 1.72-.878 2.727-3.444 3.26-.088-.238-.325-.629-.532-.813 2.23-.39 2.739-1.137 2.923-2.447h-1.72v1.137h-1.008v-2.034h4.049v-.974h1.03v.974h4.126v1.938h-1.061v-1.038h-1.907v1.7c0 .283.053.314.41.314h1.137c.28 0 .337-.096.368-.78.207.152.617.302.889.345-.108 1.05-.38 1.32-1.138 1.32h-1.386c-1.039 0-1.279-.27-1.279-1.19v-1.712h-1.457zm12.09 4.762c-.153-.325-.521-.93-.846-1.429v4.731h-.974v-4.383c-.401.985-.888 1.907-1.386 2.524-.096-.271-.337-.682-.487-.93.64-.737 1.333-2.027 1.732-3.173h-1.593v-.942h1.732v-1.451c-.467.087-.931.152-1.364.217-.031-.218-.173-.574-.28-.78 1.213-.196 2.597-.51 3.443-.878l.575.824c-.411.161-.889.291-1.398.41v1.655h1.516v.943h-1.516v.152a31.1 31.1 0 011.451 1.72l-.605.79zm5.079.532v2.773h-.996v-2.598l-3.41.575-.153-.965 3.563-.594V14.3h.996v6.183l1.18-.195.153.942-1.333.229zm-2.36-1.463c-.357-.467-1.149-1.157-1.808-1.613l.639-.585c.651.433 1.472 1.083 1.851 1.536l-.682.662zm.269-2.846c-.326-.456-1.061-1.115-1.678-1.57l.659-.575c.617.421 1.364 1.05 1.721 1.505l-.702.64zm12.334-2.536a22.978 22.978 0 01-.835 2.111v7.504h-.954v-5.738c-.282.444-.563.843-.865 1.203a7.895 7.895 0 00-.51-1.062c.9-1.05 1.732-2.654 2.23-4.278l.934.26zm6.041 1.636a6 6 0 01-1.344 1.732c.704.379 1.548.67 2.535.843a4.793 4.793 0 00-.552.823 8.469 8.469 0 01-2.708-1.115c-.758.521-1.646.909-2.608 1.203-.097-.184-.346-.51-.532-.716v3.432h-.878V15.61h.878v1.44c.781-.693 1.462-1.7 1.85-2.76l.92.225a7.957 7.957 0 01-.422.92h3.704v.812h-.843v.003zm-5.207 2.685c.889-.218 1.701-.532 2.394-.953a6.094 6.094 0 01-.996-1.061c-.26.325-.532.605-.801.854a8.742 8.742 0 00-.594-.475v1.635h-.003zm6.095 2.827c-1.083 1.279-3.053 2.026-5.294 2.425a3.25 3.25 0 00-.52-.79c2.091-.302 4.006-.93 4.948-1.992l.866.357zm-2.045-2.253c-.671.671-1.755 1.214-2.762 1.537a3.555 3.555 0 00-.552-.586c.931-.26 1.992-.724 2.555-1.267l.759.316zm1.018.997c-.835.92-2.263 1.57-3.715 1.96a4.085 4.085 0 00-.498-.65c1.344-.303 2.75-.866 3.466-1.613l.747.303zm-3.183-4.256l-.011.011c.291.433.693.855 1.213 1.234.433-.357.79-.77 1.073-1.245h-2.275zm11.896 2.37v4.072h3.757V23.7h-8.5v-1.008h3.67v-4.071h-4.267v-.996h4.267v-3.302h1.073v3.302h4.332v.996h-4.332zm10.565-.919h2.49v.92h-2.49v.965h2.165v2.846c0 .41-.065.67-.345.824-.283.152-.694.161-1.257.152a2.538 2.538 0 00-.271-.854c.39.011.716.011.823 0 .108 0 .142-.031.142-.141v-1.927h-1.257v3.757h-.953v-3.76h-1.18v2.892h-.9v-3.79h2.08v-.964h-2.544v-.92h.747c-.207-.119-.606-.26-.846-.345.475-.716.835-1.785 1.038-2.815l.943.195c-.088.356-.184.724-.283 1.072h.942v-1.44h.953v1.44h2.069v.909h-2.069v.984h.003zm-.953 0v-.984h-1.268a5.614 5.614 0 01-.475.984h1.743zm5.036 3.54h-.931v-5.987h.931v5.987zm1.947-6.788v8.5c0 .605-.13.888-.487 1.061-.345.173-.953.195-1.765.195a4.454 4.454 0 00-.326-1.03c.606.023 1.191.023 1.375.012.173 0 .227-.054.227-.227v-8.511h.976zm6.167.196a16.944 16.944 0 01-1.072 2.263v7.309h-1.019v-5.719a9.92 9.92 0 01-.888 1.061c-.096-.249-.391-.812-.563-1.038 1.03-1.019 1.992-2.598 2.578-4.18l.964.303zm3.271 2.393v1.375h2.946v.92h-2.946v1.44h3.099v.942h-3.099v2.513h-1.03v-7.19h-.605c-.456.843-.954 1.602-1.474 2.176-.162-.172-.552-.532-.778-.682.953-.996 1.819-2.555 2.34-4.114l.964.26c-.172.467-.356.943-.563 1.398h4.352v.965h-3.206v-.003zm14.638 4.513c-.475.368-1.072.716-1.593.996.606.402 1.344.705 2.199.877-.218.184-.467.575-.594.823-1.916-.475-3.195-1.559-3.942-3.194h-1.149v1.82c.671-.097 1.387-.218 2.1-.326l.034.877c-1.44.238-2.968.487-4.094.66l-.153-.92a45 45 0 001.18-.162v-1.949h-1.257v-.843h1.82v-.942h-1.506v-.855h1.506v-.866h-1.808v.402c0 1.85-.153 4.547-1.279 6.301a4.407 4.407 0 00-.889-.52c1.073-1.667 1.158-4.06 1.158-5.784v-3.16h8.143v2.761h-1.537v.866h1.701v.854h-1.701v.943h2.145v.843h-1.214l.73.498zm-7.255-4.872h6.129v-1.03h-6.129v1.03zm2.728 1.734h1.927v-.866h-1.927v.866zm0 1.797h1.927v-.942h-1.927v.942zm1.548.843c.206.368.455.693.758.985a11.82 11.82 0 001.44-.985h-2.198zM104.947 4.03v.407h-4.007V4.03h1.786V2.99h-1.285v-.4h1.285v-.902h-1.002a3.81 3.81 0 01-.447.699 2.502 2.502 0 00-.382-.252c.365-.385.651-1.002.818-1.633l.433.1a8.38 8.38 0 01-.235.675h.818v-.84h.432v.84h1.571v.41h-1.571v.903h1.404v.402h-1.404V4.03h1.786zm1.406-1.52a9.832 9.832 0 00-.829-.484l.23-.311c.257.127.639.325.829.447l-.23.348zm-.741 1.729c.241-.34.586-.917.849-1.426l.303.28a16.372 16.372 0 01-.798 1.426l-.354-.28zm.954-2.948c-.184-.13-.561-.348-.827-.496l.235-.297c.261.128.645.329.841.456l-.249.337zm1.876.854v.668h.931V4.55h-.397v-.167h-1.494v.19h-.384v-1.76h.948v-.668h-1.254v-.402h1.254v-.64c-.317.052-.64.086-.94.108a1.36 1.36 0 00-.122-.35c.773-.083 1.647-.227 2.142-.41l.329.325c-.289.107-.64.195-1.016.26v.707h1.197v.402h-1.194zm.532 1.047h-1.494v.812h1.494v-.812zm2.707.32a74.13 74.13 0 01-1.466.419l-.09-.397c.166-.04.37-.09.585-.144v-.979h-.486v-.37h.486v-.92h-.532V.75h1.418v.37h-.507v.92h.439v.37h-.439v.874c.181-.05.365-.099.546-.15l.046.377zm2.527.017a4.347 4.347 0 01-.586.362c.198.158.427.283.682.357a1.642 1.642 0 00-.272.328c-.509-.198-.917-.594-1.174-1.087l-.037.031v1.056h-.393v-.75c-.303.206-.64.385-.948.5a1.537 1.537 0 00-.249-.294c.47-.15.996-.432 1.367-.74h-.776v-.997h2.187v.996h-.894c.074.139.167.272.28.393a4.58 4.58 0 00.515-.373l.298.218zm-2.663-1.786h2.753v.343h-2.753v-.343zm2.558-.203h-2.352V.578h2.352v.962zm-1.655-.668h-.351v.37h.351v-.37zm-.252 2.11h1.429v-.378h-1.429v.379zm.897-2.11h-.365v.37h.365v-.37zm.653 0h-.37v.37h.37v-.37zm2.564 2.351c-.472.23-.993.47-1.389.654l-.15-.416c.161-.06.365-.144.583-.235V1.905h-.492v-.393h.492V.487h.388v1.025h.441v.393h-.441v1.151l.472-.206.096.373zm2.216.965c.085 0 .104-.05.116-.418.076.062.243.121.348.15-.037.506-.139.63-.425.63h-.401c-.365 0-.447-.113-.447-.472v-.614h-.408c-.107.552-.385.911-1.214 1.118a1.358 1.358 0 00-.229-.351c.713-.139.939-.388 1.033-.767h-.425V2.089h2.224v1.375h-.585v.608c0 .105.014.116.113.116h.3zm.41-2.314h-2.747V1.53h.684a1.64 1.64 0 00-.15-.396l.198-.045h-.605V.762h1.019V.445h.41v.317h1.092v.328h-.594l.195.04c-.082.144-.15.288-.212.401h.707v.343h.003zm-2.063.767h1.421v-.283h-1.421v.283zm0 .551h1.421v-.288h-1.421v.288zm.235-2.102c.074.13.136.294.159.407l-.139.037h.806l-.099-.022c.06-.116.136-.29.181-.42h-.908V1.09zm2.923.95h2.954c.094 0 .261-.005.38-.022v.464a8.25 8.25 0 00-.38-.009h-1.163c-.017.478-.107.875-.28 1.2-.161.306-.506.64-.897.843l-.416-.305c.334-.136.66-.397.835-.674.195-.303.252-.66.272-1.064h-1.305c-.135 0-.283.006-.41.014v-.47c.127.015.272.023.41.023zm.561-1.137h1.525c.138 0 .311-.009.45-.028v.464a8.005 8.005 0 00-.45-.017h-1.52c-.153 0-.319.008-.441.017V.875c.133.02.288.028.436.028zm2.589.249l-.297.127a5.522 5.522 0 00-.357-.622l.289-.122c.113.161.277.441.365.617zm.52-.198l-.294.13a4.21 4.21 0 00-.371-.622l.289-.122c.122.172.294.45.376.614zm2.116 3.582l-.385-.356c.844-.312 1.243-.7 1.243-1.896v-.181h-1.186v.676c0 .181.014.373.017.439h-.501c.009-.063.023-.252.023-.44v-.675h-.442a6.88 6.88 0 00-.469.014V1.63c.059.009.26.037.469.037h.442v-.524a3.32 3.32 0 00-.023-.362h.507a2.738 2.738 0 00-.023.365v.518h1.186v-.52a3.34 3.34 0 00-.023-.394h.509c-.005.062-.022.212-.022.393v.524h.418c.221 0 .365-.014.45-.028v.478a4.729 4.729 0 00-.447-.014h-.424v.152c.003 1.166-.263 1.811-1.319 2.281zm1.984-3.169l-.261.09a5.333 5.333 0 00-.249-.628l.258-.082c.082.17.192.445.252.62zm.461-.139l-.26.085a5.498 5.498 0 00-.252-.628l.257-.082c.082.175.196.444.255.625zm2.606.478a5.52 5.52 0 001.254-1.072l.379.362a7.427 7.427 0 01-1.214.987v1.874c0 .184.009.433.031.532h-.56a5.06 5.06 0 00.028-.532v-1.57a9.227 9.227 0 01-1.663.698l-.221-.447a7.444 7.444 0 001.966-.832zm4.698 1.54c.727-.447 1.29-1.124 1.564-1.7l.275.491a4.62 4.62 0 01-1.585 1.633 4.99 4.99 0 01-1.729.673l-.302-.464a4.737 4.737 0 001.777-.633zm-.153-1.443l-.357.365c-.235-.238-.795-.73-1.129-.957l.328-.35c.317.209.906.678 1.158.942zm3.709-.696h2.244c.121 0 .28-.006.362-.009-.006.1-.009.26-.009.38v2.331c0 .159.009.38.017.478h-.515c0-.062.006-.15.006-.243h-2.139c-.184 0-.41.008-.541.017v-.51c.131.01.329.023.524.023h2.162V1.562h-2.108a9.15 9.15 0 00-.524.017v-.5a6.5 6.5 0 00.521.028zm4.487 1.129h2.454c.218 0 .393-.017.506-.028v.56c-.099-.006-.305-.023-.506-.023h-2.454c-.249 0-.517.009-.673.023v-.56c.15.008.43.028.673.028zm7.085-.818c-.158.37-.424.88-.741 1.285.464.396 1.01.979 1.29 1.321l-.396.35c-.297-.407-.75-.902-1.197-1.318-.484.515-1.092.996-1.737 1.3l-.365-.383c.73-.28 1.409-.82 1.853-1.321.306-.343.609-.84.719-1.192h-1.655c-.176 0-.419.023-.493.029v-.51c.091.015.351.032.493.032h1.675c.167 0 .317-.017.393-.046l.294.218a1.35 1.35 0 00-.133.235zm3.88 1.086a.524.524 0 11-1.049-.001.524.524 0 011.049.001zm4.25.467h-1.245v-.95h1.245v.842c.184-.121.356-.271.509-.441a4.421 4.421 0 01-.373-1.208h-1.565v.34c0 .531-.082 1.284-.495 1.79a1.54 1.54 0 00-.306-.257c.374-.456.419-1.084.419-1.54V.875h1.899a5.196 5.196 0 01-.037-.438h.396c.006.15.014.294.031.438h.682a3.314 3.314 0 00-.487-.235l.207-.24c.221.068.492.195.639.306l-.138.166h.455v.34h-1.304c.059.32.144.608.249.852.13-.207.24-.439.32-.682l.396.09c-.13.365-.306.7-.518.988.158.249.328.393.487.393.104 0 .15-.153.172-.552.085.074.221.15.326.184-.063.592-.204.744-.518.744-.266 0-.515-.172-.722-.46a2.996 2.996 0 01-.492.418 1.595 1.595 0 00-.229-.235v.02h-.003zm-2.201 1.279c.288-.204.478-.538.582-.872l.371.13c-.113.363-.289.742-.6.974l-.353-.232zm2.255-2.499h-1.35v-.28h1.35v.28zm.311 2.391c.184 0 .218-.053.235-.441.085.062.266.127.373.153-.051.532-.172.662-.568.662h-.807c-.515 0-.639-.113-.639-.507v-.645h.416v.64c0 .116.036.136.266.136h.724v.002zm-.713-1.839h-.555v.385h.555v-.385zm-.051.693c.266.136.586.351.736.524l-.295.257c-.138-.172-.45-.401-.718-.546l.277-.235zm1.584.331c.312.258.631.629.767.912l-.385.198c-.113-.275-.424-.66-.727-.931l.345-.179zm1.206-.876c.113-.303.195-.798.226-1.163l.306.045a5.83 5.83 0 01-.212 1.228l-.32-.11zm4.159 1.576v.396h-2.764v-.396h1.253V3.003h-.916V2.61h.916v-.85h-.585a3.89 3.89 0 01-.289.668 2.594 2.594 0 00-.374-.195c.06-.09.116-.195.167-.311l-.251.122c-.04-.181-.159-.47-.272-.708V4.57h-.419V.434h.419v.834l.266-.107c.113.212.238.486.294.676a5.18 5.18 0 00.297-1.2l.411.068a6.194 6.194 0 01-.136.66h.472V.453h.419v.912h.973v.396h-.973v.849h.874v.393h-.874v1.024h1.092zm.493-1.557c.093-.305.167-.806.195-1.16l.303.038a6.074 6.074 0 01-.181 1.222l-.317-.1zm1.171-.627a5.78 5.78 0 00-.229-.631v3.361h-.385V.44h.385v.736l.26-.105c.091.204.207.47.252.637l-.283.136zm3.011.028v.311h-2.923v-.311h1.236v-.26h-.993v-.297h.993v-.235h-1.1V.767h1.1V.434h.416v.333h1.141v.312h-1.141v.235h1.025v.294h-1.025v.26h1.271v.003zm-.331 2.272c0 .19-.04.297-.176.357-.138.06-.351.062-.662.062a1.476 1.476 0 00-.122-.362c.207.014.425.008.484.008.063-.005.082-.022.082-.076v-.244h-1.494v.682h-.387V2.4h2.278v1.743h-.003zm-1.89-1.426v.28h1.494v-.28h-1.494zm1.494.872v-.28h-1.494v.28h1.494zm2.467-1.976h.789v.357h-.418l.195.05c-.077.19-.159.389-.229.533h.401v.362h-.735v.424h.676v.357h-.676v.871h-.394v-.871h-.707v-.357h.707v-.424h-.749v-.362h.393a2.022 2.022 0 00-.173-.532l.184-.051h-.484v-.357h.827V1.22h-.663V.87h.663V.444h.393v.424h.622v.351h-.622v.393zm.011.897c.062-.152.144-.379.19-.54h-.781c.082.175.158.396.175.54l-.15.04h.719l-.153-.04zm2.801-.274a4.39 4.39 0 01-.509 1.471c.195.227.419.41.674.538-.091.076-.218.23-.281.334a2.512 2.512 0 01-.622-.532 2.614 2.614 0 01-.552.537 1.315 1.315 0 00-.229-.243v.24h-.379V.635h1.797v.852c0 .195-.04.303-.199.362-.149.06-.379.06-.718.06a1.25 1.25 0 00-.128-.362c.258.008.496.008.564.005.067-.005.084-.017.084-.068v-.48h-1.024v1.154h1.197l.068-.017.257.096zm-1.522 2.026c.207-.144.385-.328.538-.54a4.68 4.68 0 01-.538-1.22v1.76zm.354-1.76c.099.305.235.6.402.866.144-.272.249-.563.319-.866h-.721zm2.363-.462h2.954a3.1 3.1 0 00.379-.022v.464a8.205 8.205 0 00-.379-.009h-1.163c-.017.478-.108.875-.28 1.2-.162.306-.507.64-.897.843l-.416-.305c.333-.136.659-.397.834-.674.196-.303.252-.66.272-1.064h-1.304c-.136 0-.283.006-.411.014v-.47c.128.015.272.023.411.023zm.56-1.137h1.525c.139 0 .311-.009.45-.028v.464a8.005 8.005 0 00-.45-.017h-1.52a6.72 6.72 0 00-.441.017V.875c.133.02.286.028.436.028zm2.589.249l-.297.127a5.522 5.522 0 00-.357-.622l.289-.122c.113.161.274.441.365.617zm.52-.198l-.294.13a4.21 4.21 0 00-.371-.622l.289-.122c.122.172.294.45.376.614zm2.113 3.582l-.384-.356c.843-.312 1.242-.7 1.242-1.896v-.181h-1.186v.676c0 .181.014.373.017.439h-.501c.009-.063.023-.252.023-.44v-.675h-.441a7.1 7.1 0 00-.47.014V1.63c.059.009.26.037.47.037h.441v-.524a3.08 3.08 0 00-.023-.362h.507a2.738 2.738 0 00-.023.365v.518h1.186v-.52c0-.182-.014-.329-.023-.394h.51c-.006.062-.023.212-.023.393v.524h.419c.22 0 .365-.014.45-.028v.478a4.755 4.755 0 00-.448-.014h-.424v.152c.006 1.166-.263 1.811-1.319 2.281zm1.987-3.169l-.26.09a5.704 5.704 0 00-.249-.628l.257-.082c.079.17.192.445.252.62zm.461-.139l-.26.085a5.498 5.498 0 00-.252-.628l.257-.082c.082.175.196.444.255.625zm2.607.478a5.552 5.552 0 001.253-1.072l.379.362a7.427 7.427 0 01-1.214.987v1.874c0 .184.009.433.031.532h-.56a5.06 5.06 0 00.028-.532v-1.57a9.227 9.227 0 01-1.663.698l-.221-.447a7.466 7.466 0 001.967-.832zm4.697 1.54c.727-.447 1.29-1.124 1.564-1.7l.275.491a4.62 4.62 0 01-1.585 1.633 4.99 4.99 0 01-1.729.673l-.302-.464a4.737 4.737 0 001.777-.633zm-.153-1.443l-.357.365a9.962 9.962 0 00-1.129-.957l.329-.35c.317.209.905.678 1.157.942zm3.706-.696h2.244c.122 0 .28-.006.362-.009-.005.1-.008.26-.008.38v2.331c0 .159.008.38.017.478h-.515c0-.062.006-.15.006-.243h-2.139c-.184 0-.411.008-.541.017v-.51c.13.01.328.023.524.023h2.161V1.562h-2.108c-.175 0-.407.009-.523.017v-.5c.155.014.373.028.52.028zm4.491 1.129h2.453c.218 0 .393-.017.506-.028v.56c-.099-.006-.305-.023-.506-.023h-2.453c-.249 0-.518.009-.674.023v-.56c.15.008.43.028.674.028zm7.082-.818c-.158.37-.424.88-.741 1.285.464.396 1.01.979 1.29 1.321l-.396.35c-.297-.407-.75-.902-1.197-1.318-.483.515-1.092.996-1.737 1.3l-.365-.383c.73-.28 1.409-.82 1.853-1.321.306-.343.609-.84.719-1.192h-1.655c-.176 0-.419.023-.493.029v-.51c.091.015.351.032.493.032h1.675c.167 0 .317-.017.393-.046l.294.218a1.493 1.493 0 00-.133.235zm-101.56 8.664v.379h-3.925v-.38h1.738v-.806h-1.268v-.373h3.073v.373h-1.375v.807h1.757zm-2.247-2.816c-.09.776-.342 1.245-1.44 1.489a1.194 1.194 0 00-.226-.357c.97-.18 1.16-.529 1.228-1.132h-.759v.57h-.41v-.949h1.664V6.45h.43v.438h1.7v.852h-.427v-.473h-.784v.818c0 .113.029.13.176.13h.501c.121 0 .15-.05.161-.342.085.054.252.116.362.144-.04.442-.153.555-.478.555h-.6c-.439 0-.538-.108-.538-.484v-.82h-.56zm3.497.934v2.391h-.416V6.63h1.664V8.2h-1.248zm0-1.253v.311h.852v-.311h-.852zm.852.942v-.334h-.852v.334h.852zm2.459 2.179c0 .237-.051.373-.212.447-.159.068-.408.07-.784.07a1.8 1.8 0 00-.13-.41h-1.22v.227h-.385v-1.89h1.693v1.652c.22.008.438.006.509.006.082-.006.105-.029.105-.105V8.212h-1.282v-1.58h1.706v3.436zm-2.346-1.24v.351h.917v-.35h-.917zm.917 1.033v-.373h-.917v.373h.917zm.125-2.914v.311h.88v-.311h-.88zm.88.95v-.342h-.88v.343h.88zm1.706.159h2.954c.093 0 .26-.006.379-.023v.464a8.173 8.173 0 00-.379-.008h-1.163c-.017.478-.108.874-.28 1.2-.161.305-.507.64-.897.843l-.416-.306c.334-.136.659-.396.835-.673.195-.303.251-.66.271-1.064h-1.304c-.136 0-.283.006-.41.014v-.47c.124.015.268.023.41.023zm.557-1.137h1.525c.139 0 .312-.009.45-.029v.464a7.934 7.934 0 00-.45-.017h-1.519c-.153 0-.32.009-.441.017V6.89c.135.02.288.029.435.029zm2.592.249l-.297.127a5.513 5.513 0 00-.356-.623l.288-.121c.111.161.275.441.365.617zm.518-.199l-.294.13a4.39 4.39 0 00-.371-.622l.289-.122c.124.173.294.45.376.614zm2.117 3.583l-.385-.357c.843-.311 1.242-.699 1.242-1.896v-.18h-1.185v.676c0 .18.014.373.017.438h-.501c.008-.062.022-.252.022-.438v-.677h-.441c-.212 0-.396.009-.47.014v-.486c.06.008.261.037.47.037h.441v-.524a3.31 3.31 0 00-.022-.362h.506a2.981 2.981 0 00-.022.365v.518h1.185v-.524c0-.18-.014-.328-.022-.393h.509c-.006.062-.023.212-.023.393v.524h.419c.221 0 .365-.014.45-.029v.479a4.724 4.724 0 00-.447-.015h-.425v.153c.003 1.169-.263 1.814-1.318 2.284zm1.986-3.17l-.26.091a5.703 5.703 0 00-.249-.628l.257-.082c.08.17.193.444.252.62zm.459-.138l-.261.085a5.322 5.322 0 00-.252-.628l.258-.082c.085.175.195.444.255.625zm2.608.478a5.52 5.52 0 001.253-1.073l.38.363a7.47 7.47 0 01-1.214.987v1.873c0 .184.008.433.031.532h-.56a5.06 5.06 0 00.028-.532v-1.57A9.269 9.269 0 01119.83 9l-.221-.447a7.452 7.452 0 001.967-.832zm4.697 1.54c.727-.447 1.29-1.124 1.565-1.7l.274.492c-.325.585-.88 1.2-1.584 1.632-.456.28-1.03.546-1.729.674l-.303-.464a4.77 4.77 0 001.777-.634zm-.156-1.443l-.356.365c-.235-.238-.795-.73-1.129-.957l.328-.35c.32.209.906.679 1.157.942zm3.71-.696h2.244c.121 0 .28-.006.362-.009-.006.1-.009.26-.009.38v2.33c0 .16.009.38.017.479h-.515c0-.062.006-.15.006-.243h-2.139c-.184 0-.41.008-.541.017v-.51c.131.009.329.023.524.023h2.162V7.578h-2.108a9.15 9.15 0 00-.524.017v-.5c.156.013.371.028.521.028zm4.49 1.127h2.454c.218 0 .393-.016.506-.027v.56c-.099-.006-.305-.023-.506-.023h-2.454c-.249 0-.517.009-.673.023v-.56c.15.008.427.028.673.028zm7.082-.816c-.158.37-.424.88-.741 1.284.464.396 1.01.98 1.29 1.322l-.396.35c-.297-.407-.75-.902-1.197-1.318-.484.515-1.092.996-1.737 1.299l-.365-.382c.73-.28 1.409-.82 1.853-1.322.306-.342.609-.84.719-1.19h-1.655c-.176 0-.419.022-.493.027v-.509c.091.014.351.031.493.031h1.675c.167 0 .317-.017.393-.045l.294.218a1.35 1.35 0 00-.133.235zm3.88 1.086a.524.524 0 11-1.049-.002.524.524 0 011.049.002zm5.424-1.216a6.484 6.484 0 01-.651 1.281c.402.329.79.682 1.101 1.02l-.362.395a9.81 9.81 0 00-1.039-1.018c-.41.5-.95 1.015-1.728 1.429l-.397-.357a4.895 4.895 0 001.755-1.38 12.515 12.515 0 00-1.245-.89l.297-.361c.379.24.88.585 1.239.863.266-.394.433-.796.563-1.163a2.82 2.82 0 00.099-.371l.524.184a4.59 4.59 0 00-.156.368zm1.859.752h2.954c.094 0 .26-.006.379-.023v.464a8.173 8.173 0 00-.379-.008h-1.163c-.017.478-.107.874-.28 1.2-.161.305-.506.64-.897.843l-.416-.306c.334-.136.659-.396.835-.673.195-.303.252-.66.272-1.064h-1.305c-.136 0-.283.006-.41.014v-.47c.124.015.269.023.41.023zm.558-1.137h1.525c.138 0 .311-.009.45-.029v.464a8.005 8.005 0 00-.45-.017h-1.52c-.153 0-.32.009-.441.017V6.89a3.1 3.1 0 00.436.029zm2.591.249l-.297.127a5.513 5.513 0 00-.356-.623l.288-.121c.111.161.275.441.365.617zm.518-.199l-.294.13a4.21 4.21 0 00-.371-.622l.289-.122c.124.173.294.45.376.614zm2.355 1.384c.427-.266.863-.65 1.095-.939l.351.342a6.428 6.428 0 01-1.016.83v1.584c0 .144.006.357.023.433h-.524c.009-.076.017-.289.017-.433V8.871a9.01 9.01 0 01-1.358.569l-.218-.424a6.115 6.115 0 001.63-.663zm6.606-.979c-.195.328-.622.903-1.106 1.245l-.374-.303c.396-.229.79-.676.92-.933h-2.473c-.181 0-.34.014-.532.028v-.5c.167.022.351.039.532.039h2.521c.099 0 .303-.014.374-.031l.283.266c-.037.05-.111.135-.145.19zm-2.928 3.065l-.416-.34c.13-.045.288-.116.433-.22.645-.417.749-.985.749-1.732 0-.122-.005-.23-.028-.363h.515c0 1.18-.068 2.046-1.253 2.655zm4.241-2.383h2.954c.093 0 .26-.006.379-.023v.464a8.173 8.173 0 00-.379-.008h-1.163c-.017.478-.107.874-.28 1.2-.161.305-.506.64-.897.843l-.416-.306c.334-.136.659-.396.835-.673.195-.303.252-.66.271-1.064h-1.304c-.136 0-.283.006-.41.014v-.47c.124.015.269.023.41.023zm.557-1.137h1.526c.138 0 .311-.009.449-.029v.464a7.934 7.934 0 00-.449-.017h-1.52c-.153 0-.32.009-.441.017V6.89c.133.02.288.029.435.029zm2.592.249l-.297.127a5.513 5.513 0 00-.356-.623l.288-.121c.111.161.275.441.365.617zm.518-.199l-.294.13a4.299 4.299 0 00-.371-.622l.289-.122c.124.173.294.45.376.614zm2.117 3.583l-.385-.357c.843-.311 1.242-.699 1.242-1.896v-.18h-1.185v.676c0 .18.014.373.017.438h-.501a4.23 4.23 0 00.023-.438v-.677h-.442c-.212 0-.396.009-.47.014v-.486c.06.008.261.037.47.037h.442v-.524a3.32 3.32 0 00-.023-.362h.506a2.981 2.981 0 00-.022.365v.518h1.185v-.524c0-.18-.014-.328-.022-.393h.509c-.006.062-.023.212-.023.393v.524h.419c.221 0 .365-.014.45-.029v.479a4.724 4.724 0 00-.447-.015h-.424v.153c.002 1.169-.264 1.814-1.319 2.284zm1.983-3.17l-.26.091a5.511 5.511 0 00-.249-.628l.258-.082c.082.17.195.444.251.62zm.462-.138l-.261.085a5.496 5.496 0 00-.251-.628l.257-.082c.082.175.195.444.255.625zm2.609.478a5.552 5.552 0 001.253-1.073l.379.363a7.428 7.428 0 01-1.214.987v1.873c0 .184.009.433.031.532h-.56a5.06 5.06 0 00.028-.532v-1.57a9.227 9.227 0 01-1.663.699l-.221-.447a7.496 7.496 0 001.967-.832zm4.694 1.54c.727-.447 1.29-1.124 1.564-1.7l.275.492a4.61 4.61 0 01-1.585 1.632c-.455.28-1.03.546-1.728.674l-.303-.464a4.737 4.737 0 001.777-.634zm-.153-1.443l-.357.365a9.961 9.961 0 00-1.129-.957l.329-.35c.319.209.905.679 1.157.942zm3.709-.696h2.244c.122 0 .28-.006.362-.009-.005.1-.008.26-.008.38v2.33c0 .16.008.38.017.479h-.515c0-.062.006-.15.006-.243h-2.139a9.53 9.53 0 00-.541.017v-.51c.13.009.328.023.524.023h2.161V7.578h-2.108c-.175 0-.407.009-.523.017v-.5c.155.013.371.028.52.028zm4.488 1.127h2.453c.218 0 .393-.016.506-.027v.56c-.099-.006-.305-.023-.506-.023h-2.453c-.249 0-.518.009-.674.023v-.56c.15.008.43.028.674.028zm7.085-.816c-.159.37-.425.88-.742 1.284.464.396 1.01.98 1.29 1.322l-.396.35c-.297-.407-.75-.902-1.197-1.318-.483.515-1.092.996-1.737 1.299l-.365-.382c.73-.28 1.409-.82 1.853-1.322.306-.342.609-.84.719-1.19h-1.655c-.176 0-.419.022-.492.027v-.509c.09.014.35.031.492.031h1.675c.167 0 .317-.017.393-.045l.295.218a1.35 1.35 0 00-.133.235zm-84.886 44.211h-9.108c-.062-2.405 1.231-4.112 4.731-6.237 2.063-1.304 2.606-1.963 2.606-3.228 0-1.404-1.041-2.385-2.521-2.385-1.146 0-2.023.56-2.377 1.505-.124.382-.167.741-.167 1.723h-1.856v-.5c0-1.365.291-2.287.979-3.028.792-.903 2.001-1.364 3.48-1.364 2.626 0 4.397 1.624 4.397 4.03 0 1.162-.415 2.144-1.23 2.967-.563.56-.835.761-2.878 2.026-1.437.923-2.606 2.066-2.855 2.827h6.797v1.664h.002zm12.068-11.31c.688 1.222.979 2.645.979 4.77 0 1.924-.311 3.41-.979 4.593a4.332 4.332 0 01-3.814 2.204 4.33 4.33 0 01-3.794-2.205c-.668-1.222-.979-2.645-.979-4.69 0-2.027.311-3.51.979-4.672.812-1.384 2.21-2.205 3.794-2.205 1.627-.003 3.022.801 3.814 2.205zm-6.066 1.001c-.396.903-.583 2.026-.583 3.67 0 1.644.187 2.787.583 3.69.438.942 1.293 1.545 2.272 1.545.959 0 1.834-.6 2.252-1.545.396-.903.583-2.026.583-3.608 0-1.723-.167-2.866-.583-3.749-.438-.962-1.313-1.545-2.272-1.545-.959 0-1.814.58-2.252 1.542zm19.781 10.309h-9.108c-.062-2.405 1.231-4.112 4.731-6.237 2.063-1.304 2.606-1.963 2.606-3.228 0-1.404-1.041-2.385-2.521-2.385-1.146 0-2.023.56-2.377 1.505-.125.382-.167.741-.167 1.723h-1.856v-.5c0-1.365.291-2.287.979-3.028.792-.903 2-1.364 3.48-1.364 2.626 0 4.397 1.624 4.397 4.03 0 1.162-.416 2.144-1.231 2.967-.563.56-.834.761-2.877 2.026-1.438.923-2.606 2.066-2.855 2.827h6.796v1.664h.003zm12.362 0h-9.108c-.063-2.405 1.23-4.112 4.731-6.237 2.062-1.304 2.606-1.963 2.606-3.228 0-1.404-1.042-2.385-2.522-2.385-1.145 0-2.023.56-2.376 1.505-.125.382-.167.741-.167 1.723h-1.856v-.5c0-1.365.291-2.287.979-3.028.792-.903 2-1.364 3.48-1.364 2.626 0 4.397 1.624 4.397 4.03 0 1.162-.416 2.144-1.231 2.967-.563.56-.835.761-2.877 2.026-1.438.923-2.606 2.066-2.855 2.827h6.796v1.664h.003zm5.877-.269h-1.932V49.57h1.932v1.806zm17.953.2H161.41c-.087-3.392 1.735-5.794 6.672-8.79 2.909-1.837 3.673-2.771 3.673-4.554 0-1.977-1.469-3.364-3.557-3.364-1.615 0-2.852.792-3.35 2.12-.175.537-.235 1.046-.235 2.43h-2.614v-.707c0-1.922.41-3.223 1.381-4.27 1.117-1.274 2.821-1.922 4.909-1.922 3.704 0 6.202 2.29 6.202 5.682 0 1.641-.588 3.025-1.734 4.185-.793.792-1.175 1.075-4.055 2.855-2.029 1.302-3.673 2.912-4.026 3.987h9.58v2.348h-.003zm5.127-.2h-1.932V49.57h1.932v1.806zm11.834.201h-2.586v-13.4h-4.437V36.34c2.527.085 4.555-1.302 5.025-3.421h1.998v18.658zm17.311-5.371c0 3.308-2.85 5.738-6.672 5.738-3.851 0-6.701-2.458-6.701-5.738 0-2.12 1.087-3.732 3.322-4.918-1.615-.905-2.439-2.26-2.439-3.93 0-2.798 2.439-4.833 5.82-4.833 3.351 0 5.79 2.035 5.79 4.833 0 1.67-.824 3.025-2.439 3.93 2.232 1.186 3.319 2.799 3.319 4.918zm-10.639-.141c0 2.09 1.615 3.534 3.967 3.534 2.292 0 3.938-1.443 3.938-3.478 0-2.119-1.587-3.562-3.967-3.562-2.323 0-3.938 1.443-3.938 3.506zm.792-8.509c0 1.585 1.293 2.686 3.175 2.686 1.822 0 3.143-1.104 3.143-2.657 0-1.613-1.265-2.714-3.174-2.714-1.851-.003-3.144 1.1-3.144 2.685zm20.121 6.941h-4.626v2.606h3.885v1.044h-3.885v3.961h-1.239v-8.692h5.865v1.08zm2.762 1.315v.99c.249-.364.35-.509.52-.664.286-.3.744-.495 1.121-.495.234 0 .455.05.665.155v1.081a2.443 2.443 0 00-.547-.065c-.964 0-1.706.86-1.706 1.98v3.311h-1.199V45.81h1.146v.002zm5.175-1.001h-1.2v-1.395h1.2v1.395zm0 7.297h-1.2v-6.295h1.2v6.295zm16.728-8.933h-8.246v-1.004h8.246v1.004zm21.564 8.441h-12.895c-.087-3.407 1.741-5.82 6.698-8.83 2.92-1.846 3.69-2.782 3.69-4.573 0-1.987-1.475-3.379-3.571-3.379-1.624 0-2.864.795-3.365 2.13-.178.541-.234 1.05-.234 2.443h-2.626v-.71c0-1.93.413-3.238 1.386-4.287 1.121-1.276 2.833-1.93 4.929-1.93 3.718 0 6.228 2.3 6.228 5.707 0 1.647-.591 3.039-1.74 4.202-.798.795-1.18 1.078-4.072 2.866-2.037 1.307-3.69 2.923-4.043 4.004h9.62v2.357h-.005zm15.936-16.012c.973 1.732 1.386 3.749 1.386 6.757 0 2.725-.441 4.827-1.386 6.502-1.121 1.958-3.127 3.124-5.402 3.124-2.244 0-4.25-1.163-5.37-3.124-.945-1.732-1.387-3.75-1.387-6.644 0-2.866.442-4.968 1.387-6.615 1.151-1.958 3.129-3.124 5.37-3.124 2.303 0 4.281 1.138 5.402 3.124zm-8.585 1.42c-.56 1.28-.826 2.867-.826 5.195 0 2.329.266 3.947.826 5.224.62 1.335 1.831 2.187 3.217 2.187 1.358 0 2.598-.852 3.186-2.188.56-1.278.826-2.866.826-5.11 0-2.441-.235-4.06-.826-5.308-.62-1.364-1.859-2.187-3.217-2.187s-2.566.823-3.186 2.187zm19.673 9.077c-.13-1.2-.846-1.785-2.164-1.785-1.161 0-1.905.495-1.905 1.25 0 .64.456 1.016 1.565 1.265l1.406.314c1.03.235 1.551.456 1.97.835.455.405.704.99.704 1.67 0 1.64-1.33 2.66-3.441 2.66-2.255 0-3.61-1.147-3.794-3.232h1.29c.131 1.38 1.044 2.15 2.541 2.15 1.251 0 2.137-.614 2.137-1.485 0-.65-.47-1.081-1.381-1.305l-1.955-.47c-1.591-.378-2.307-1.08-2.307-2.254 0-1.526 1.265-2.49 3.26-2.49 1.995 0 3.064.925 3.336 2.88h-1.262v-.003zm7.298 6.007v-.716c-.625.665-1.135.886-1.995.886-.744 0-1.355-.249-1.706-.69-.3-.39-.416-.835-.416-1.565v-4.21h1.2v4.12c0 .86.39 1.275 1.211 1.275 1.03 0 1.655-.6 1.655-1.576v-3.82h1.2v6.296h-1.149zm4.419-6.296v.716c.626-.665 1.135-.885 1.995-.885.742 0 1.356.249 1.706.69.3.39.416.835.416 1.565v4.21h-1.199v-4.12c0-.86-.391-1.276-1.211-1.276-1.03 0-1.656.6-1.656 1.576v3.82h-1.199v-6.296h1.148z" fill="#fff"/></svg>