<svg width="707" height="83" fill="none" xmlns="http://www.w3.org/2000/svg"><g clip-path="url(#clip0_98_603)" fill="#fff"><path d="M14.53 23.28h6.49v7.14l-2 .33c-.863.106-1.731.153-2.6.14a8.41 8.41 0 01-5.13-1.45 8.45 8.45 0 01-2.88-4.06 17.83 17.83 0 01-.92-6 13.82 13.82 0 011.27-6.14 9.76 9.76 0 013.61-4.08 10.23 10.23 0 015.51-1.45 16.2 16.2 0 014.21.54 18.52 18.52 0 013.59 1.33l2.41-5.81a26.271 26.271 0 00-4.8-1.52 24.89 24.89 0 00-5.37-.59 20.36 20.36 0 00-9.77 2.16 14.55 14.55 0 00-6.07 6.09 19.82 19.82 0 00-2.06 9.33 22.56 22.56 0 001.85 9.68 12.91 12.91 0 005.41 5.95 17.32 17.32 0 008.67 2 37.317 37.317 0 006.59-.52 41.722 41.722 0 005.6-1.43V17.16H14.55l-.02 6.12zM51.04 9.81a7.651 7.651 0 00-3.24.68 9.08 9.08 0 00-2.65 1.78 11.167 11.167 0 00-1.92 2.43h-.35l-1.06-4.4h-5.41v26.2h7.15V23.16a7.382 7.382 0 01.58-3.11 5.39 5.39 0 011.65-2.06 6.32 6.32 0 012.32-1.15 10.076 10.076 0 012.69-.35c.368.002.735.025 1.1.07.339.013.675.066 1 .16l.54-6.7a7.49 7.49 0 00-1.17-.14 11.858 11.858 0 00-1.23-.07zm26.66 2.22c-1.88-1.54-4.57-2.3-8.09-2.3a22.663 22.663 0 00-5.36.63 20.004 20.004 0 00-4.67 1.74l2.37 4.82a30.14 30.14 0 013.66-1.36 13.38 13.38 0 013.72-.53 4.36 4.36 0 013 1 3.83 3.83 0 011.08 3v1.15l-4.55.14c-3.9.14-6.83.873-8.79 2.2a6.88 6.88 0 00-2.93 6.14 9.409 9.409 0 001.06 4.69 6.57 6.57 0 002.88 2.72 9.59 9.59 0 004.17.89c1.25.024 2.497-.117 3.71-.42a7.93 7.93 0 002.69-1.31 13.489 13.489 0 002.3-2.3h.19l1.38 3.56h5V19.01c-.01-3.13-.95-5.45-2.82-6.98zm-4.29 14.46a4.792 4.792 0 01-1.59 3.86 5.7 5.7 0 01-3.87 1.36 4.21 4.21 0 01-2.51-.68 2.71 2.71 0 01-1-2.34 3.78 3.78 0 011.34-3c.9-.77 2.51-1.18 4.82-1.25l2.77-.09.04 2.14zm30.88-18.1c.004 1.003.067 2.005.19 3 .14 1 .26 1.7.35 2.2h-.23a9.351 9.351 0 00-1.78-2 8.133 8.133 0 00-2.46-1.38 9.878 9.878 0 00-3.31-.51 8.91 8.91 0 00-7.29 3.46c-1.86 2.3-2.79 5.693-2.79 10.18s.917 7.853 2.75 10.1a8.75 8.75 0 007.14 3.42 9.468 9.468 0 003.31-.52 7.553 7.553 0 002.41-1.38 8.541 8.541 0 001.71-2h.31l1.38 3.4h5.49V-.11h-7.18v8.5zm.5 15.85a9.677 9.677 0 01-1.29 5.27c-.8 1.16-2.18 1.73-4.13 1.73a4.39 4.39 0 01-3.82-1.94 10.28 10.28 0 01-1.33-5.79 10.76 10.76 0 011.33-5.88 4.2 4.2 0 013.7-2c2.127 0 3.58.667 4.36 2a11.751 11.751 0 011.18 5.83v.78zm31.72-1.64a18.874 18.874 0 01-.51 4.73 5.34 5.34 0 01-1.74 2.93 5.349 5.349 0 01-3.42 1 3.634 3.634 0 01-3.21-1.43 7.35 7.35 0 01-1-4.24v-15.3h-7.15v17.08a11.54 11.54 0 001.15 5.49 7.377 7.377 0 003.26 3.12c1.54.69 3.213 1.032 4.9 1a12.22 12.22 0 003.16-.4 9.002 9.002 0 002.79-1.24 7.197 7.197 0 002.11-2.18h.38l1 3.35h5.47v-26.2h-7.15l-.04 12.29zm34.19-10.57c-1.87-1.54-4.57-2.3-8.08-2.3a22.674 22.674 0 00-5.37.63c-1.62.383-3.186.968-4.66 1.74l2.36 4.82a30.146 30.146 0 013.66-1.36c1.212-.35 2.468-.53 3.73-.53a4.36 4.36 0 013 1 3.877 3.877 0 011.07 3v1.15l-4.54.14c-3.907.14-6.837.873-8.79 2.2a6.863 6.863 0 00-2.93 6.14 9.41 9.41 0 001.05 4.69 6.648 6.648 0 002.89 2.72 9.517 9.517 0 004.17.89 14.07 14.07 0 003.7-.42 8.003 8.003 0 002.7-1.31 13.482 13.482 0 002.29-2.3h.19l1.38 3.56h5V19.01c-.05-3.13-.99-5.45-2.82-6.98zm-4.29 14.46a4.801 4.801 0 01-.352 2.112 4.8 4.8 0 01-1.238 1.748 5.7 5.7 0 01-3.87 1.36 4.18 4.18 0 01-2.5-.68 2.683 2.683 0 01-1-2.34 3.778 3.778 0 011.34-3c.91-.77 2.52-1.18 4.83-1.25l2.76-.09.03 2.14zm26.15 4.75a3.412 3.412 0 01-2.27-.72 2.835 2.835 0 01-.85-2.25V15.63h7.34v-5.36h-7.34V4.69h-4.57l-2.06 5.53-3.94 2.39v3h3.42v12.64a10.996 10.996 0 001.06 5.27 6 6 0 002.93 2.65c1.346.518 2.778.773 4.22.75a18.46 18.46 0 003.7-.35 12.861 12.861 0 002.86-.85V30.4c-.732.236-1.477.433-2.23.59-.745.165-1.506.249-2.27.25zM209.38.75a4.91 4.91 0 00-2.74-.75 4.999 4.999 0 00-2.77.75 2.994 2.994 0 00-1.12 2.74 3.137 3.137 0 001.12 2.77c.83.515 1.793.776 2.77.75a4.91 4.91 0 002.74-.75 3.095 3.095 0 001.15-2.77 2.994 2.994 0 00-1.15-2.74zm.83 9.52h-7.15v26.2h7.15v-26.2zm25.88 1.08a13.18 13.18 0 00-6.51-1.57 14 14 0 00-6.83 1.57 10.56 10.56 0 00-4.4 4.59 16.093 16.093 0 00-1.55 7.38 17.005 17.005 0 00.92 5.81 12.19 12.19 0 002.62 4.29 11.229 11.229 0 004 2.63c1.625.605 3.346.907 5.08.89a14.908 14.908 0 005.3-.89 10.65 10.65 0 004-2.63 11.39 11.39 0 002.56-4.29c.622-1.873.923-3.837.89-5.81a15.356 15.356 0 00-1.64-7.38 11.005 11.005 0 00-4.44-4.59zm-1.76 16.31a5.005 5.005 0 01-1.73 2.65 5 5 0 01-3.07.89 5.13 5.13 0 01-3.12-.89 5.18 5.18 0 01-1.76-2.65 14.568 14.568 0 01-.56-4.34 10.733 10.733 0 011.27-5.83 4.583 4.583 0 014.12-2 5.191 5.191 0 013.12.87 4.843 4.843 0 011.73 2.6c.416 1.398.608 2.852.57 4.31a14.23 14.23 0 01-.57 4.39zM263.7 9.81a12.997 12.997 0 00-3.19.39 9.249 9.249 0 00-2.79 1.25 7.071 7.071 0 00-2.08 2.2h-.4l-1-3.35h-5.46v26.2h7.14V24.17a13.819 13.819 0 011.2-6.42c.8-1.48 2.29-2.23 4.48-2.23a3.618 3.618 0 013.18 1.43 7.238 7.238 0 011 4.25v15.3h7.14V19.41c0-3.333-.85-5.77-2.55-7.31a9.71 9.71 0 00-6.67-2.29zm61.59 11.1c-.173.753-.373 1.683-.6 2.79-.22 1.11-.43 2.22-.64 3.35-.21 1.13-.33 2-.44 2.83-.07-.57-.17-1.25-.31-2-.14-.75-.26-1.61-.42-2.44-.16-.83-.31-1.6-.47-2.3-.16-.7-.26-1.29-.37-1.71l-5-19.19h-6.86l-5 19.19c-.13.44-.27 1-.43 1.71-.16.71-.31 1.47-.47 2.3-.16.83-.27 1.62-.39 2.41s-.23 1.47-.31 2.06c-.06-.57-.16-1.25-.3-2-.14-.75-.28-1.62-.45-2.47-.17-.85-.32-1.67-.49-2.46-.17-.79-.3-1.45-.42-2l-4.39-18.7h-7.14l8.74 34.26h8.25l4.62-18c.09-.38.21-.92.37-1.64.16-.72.31-1.5.47-2.32.16-.82.32-1.61.44-2.35s.24-1.32.29-1.75c0 .43.13 1 .25 1.78s.3 1.52.47 2.36c.17.84.34 1.6.49 2.3.15.7.29 1.23.38 1.57l4.64 18h8.27l8.72-34.26h-7.09l-4.41 18.68zm33.63-9.56a13.192 13.192 0 00-6.52-1.57 13.94 13.94 0 00-6.82 1.57 10.56 10.56 0 00-4.4 4.59 16.093 16.093 0 00-1.55 7.38c-.032 1.975.276 3.94.91 5.81a12.207 12.207 0 002.63 4.29 11.232 11.232 0 004 2.63c1.624.606 3.346.908 5.08.89a14.91 14.91 0 005.3-.89 10.645 10.645 0 004-2.63 11.39 11.39 0 002.56-4.29c.622-1.873.923-3.837.89-5.81a15.356 15.356 0 00-1.64-7.38 11.005 11.005 0 00-4.44-4.59zm-1.76 16.31a5.082 5.082 0 01-1.73 2.65 5 5 0 01-3.07.89 5.129 5.129 0 01-3.12-.89 5.18 5.18 0 01-1.76-2.65 14.568 14.568 0 01-.56-4.34 10.733 10.733 0 011.27-5.83 4.556 4.556 0 014.12-2 5.192 5.192 0 013.12.87 4.9 4.9 0 011.73 2.6 13.87 13.87 0 01.56 4.31 14.257 14.257 0 01-.56 4.39zm29.08-17.85a7.61 7.61 0 00-3.23.68 9.002 9.002 0 00-2.65 1.78 10.624 10.624 0 00-1.92 2.43h-.36l-1-4.4h-5.42v26.2h7.15V23.16a7.378 7.378 0 01.59-3.11 5.369 5.369 0 011.64-2.06 6.389 6.389 0 012.32-1.15c.88-.237 1.788-.355 2.7-.35.368.002.735.025 1.1.07a4.14 4.14 0 011 .16l.54-6.7a7.185 7.185 0 00-1.17-.14c-.428-.047-.859-.07-1.29-.07zm33.23.46h-8.07l-7.33 8a25.204 25.204 0 00-1.64 1.94c-.5.67-1 1.35-1.48 2h-.09c.09-1 .18-2 .26-3 .08-1 .11-2 .11-3V-.1h-7.15v36.47h7.15v-8.16l3.07-2.46 7.55 10.62h8.25l-11-14.84 10.37-11.26zm19.91 12.19a25.812 25.812 0 00-3.87-1.93c-1.53-.62-2.69-1.13-3.49-1.52a5.567 5.567 0 01-1.59-1.1 1.72 1.72 0 01-.4-1.13 1.376 1.376 0 01.8-1.29 5.208 5.208 0 012.36-.42c1.187 0 2.368.182 3.5.54a38.16 38.16 0 013.68 1.38l2.15-5.15a22.54 22.54 0 00-4.57-1.57 21.092 21.092 0 00-4.64-.49c-2.65-.134-5.281.51-7.57 1.85a6.094 6.094 0 00-2.81 5.46 7.992 7.992 0 00.77 3.72 7.006 7.006 0 002.34 2.48 24.397 24.397 0 004.06 2.09 37.879 37.879 0 013.75 1.76 4.3 4.3 0 011.54 1.19c.246.34.379.75.38 1.17a1.923 1.923 0 01-.92 1.64 5.4 5.4 0 01-3 .61 18.15 18.15 0 01-4.32-.61 28.906 28.906 0 01-4.57-1.59v5.91a20.45 20.45 0 003.94 1.17c1.557.25 3.133.368 4.71.35 2.103.06 4.2-.259 6.19-.94a7.683 7.683 0 003.73-2.79 7.83 7.83 0 001.26-4.52 7.002 7.002 0 00-.89-3.77 7.107 7.107 0 00-2.52-2.5zm23.38 14.01h19.73v-6h-12.47v-8.84h11.61v-5.95h-11.61V8.16h12.47V2.2h-19.73v34.27zm50.38-26.2h-8.11l-5.13 8.34-5.09-8.34h-8.11l8.44 12.82-8.88 13.38h8.11l5.53-8.98 5.51 8.98h8.13l-8.93-13.38 8.53-12.82zm24.79.54a11.418 11.418 0 00-5-1 11.25 11.25 0 00-3 .39 8.13 8.13 0 00-2.58 1.25 7.72 7.72 0 00-2 2.2h-.38c.05-.49.11-1.31.19-2.49.08-1.18.14-2.4.14-3.7V.03h-7.15V36.5h7.15V24.17a18.09 18.09 0 01.52-4.71 5.31 5.31 0 011.76-2.93 5.23 5.23 0 013.39-1 3.684 3.684 0 013.19 1.43 7.238 7.238 0 011 4.25v15.3h7.15V19.42a11.254 11.254 0 00-1.17-5.48 7.17 7.17 0 00-3.21-3.13zM556.7.75a4.891 4.891 0 00-2.74-.75 4.999 4.999 0 00-2.77.75 3.005 3.005 0 00-1.12 2.74 3.125 3.125 0 001.12 2.77c.83.515 1.793.776 2.77.75a4.89 4.89 0 002.74-.75 3.095 3.095 0 001.15-2.77A2.994 2.994 0 00556.7.75zm.87 9.52h-7.15v26.2h7.15v-26.2zm22.76-.46a8.419 8.419 0 00-4.61 1.14 8.797 8.797 0 00-2.81 2.75h-.29c.08-.54.14-1.29.19-2.25.05-.96.1-1.95.1-2.93V.03h-7.15V36.5h5.46l1.19-2.88h.5a10.328 10.328 0 002.69 2.32 8.59 8.59 0 004.55 1 9.27 9.27 0 005.27-1.52 10.005 10.005 0 003.54-4.57 19.784 19.784 0 001.27-7.53c0-4.44-.917-7.807-2.75-10.1a8.678 8.678 0 00-7.15-3.41zm1.29 19.33a4 4 0 01-3.49 2c-2 0-3.367-.667-4.1-2a12.282 12.282 0 01-1.12-5.85v-.78a14.274 14.274 0 01.53-3.91 4.476 4.476 0 011.62-2.32 5.079 5.079 0 013-.78 4.1 4.1 0 013.58 2 10.37 10.37 0 011.32 5.79 10.858 10.858 0 01-1.34 5.82v.03zM603.13.75a4.889 4.889 0 00-2.74-.75 4.999 4.999 0 00-2.77.75 2.994 2.994 0 00-1.12 2.74 3.137 3.137 0 001.12 2.77c.83.515 1.793.776 2.77.75a4.889 4.889 0 002.74-.75 3.09 3.09 0 001.15-2.77 2.994 2.994 0 00-1.15-2.74zm.83 9.52h-7.15v26.2h7.15v-26.2zm19.23 20.97a3.46 3.46 0 01-2.28-.72 2.856 2.856 0 01-.84-2.25V15.63h7.34v-5.36h-7.34V4.69h-4.57l-2.06 5.53-3.94 2.39v3h3.42v12.64a10.828 10.828 0 001.06 5.27 6 6 0 002.93 2.65c1.342.517 2.772.772 4.21.75 1.245.008 2.488-.11 3.71-.35a12.861 12.861 0 002.86-.85V30.4a22.23 22.23 0 01-2.23.59c-.745.165-1.507.249-2.27.25zM640.01.75a4.918 4.918 0 00-2.75-.75 4.93 4.93 0 00-2.76.75 3.004 3.004 0 00-1.13 2.74 3.133 3.133 0 001.13 2.77 4.93 4.93 0 002.76.75 4.918 4.918 0 002.75-.75 3.12 3.12 0 001.15-2.77 2.994 2.994 0 00-1.15-2.74zm.82 9.52h-7.15v26.2h7.15v-26.2zm25.87 1.08a13.192 13.192 0 00-6.52-1.57 13.94 13.94 0 00-6.82 1.57 10.56 10.56 0 00-4.4 4.59 16 16 0 00-1.55 7.38 16.98 16.98 0 00.91 5.81 12.207 12.207 0 002.63 4.29 11.143 11.143 0 004 2.63c1.624.606 3.346.908 5.08.89a14.91 14.91 0 005.3-.89 10.645 10.645 0 004-2.63 11.377 11.377 0 002.55-4.29c.63-1.87.935-3.836.9-5.81a15.252 15.252 0 00-1.65-7.38 10.94 10.94 0 00-4.43-4.59zm-1.76 16.31a5.082 5.082 0 01-1.73 2.65 5 5 0 01-3.07.89 5.111 5.111 0 01-3.12-.89 5.18 5.18 0 01-1.76-2.65 14.568 14.568 0 01-.56-4.34 10.833 10.833 0 011.26-5.83 4.587 4.587 0 014.13-2 5.192 5.192 0 013.12.87 4.9 4.9 0 011.73 2.6 13.87 13.87 0 01.56 4.31 14.25 14.25 0 01-.54 4.39h-.02zm36.11-15.59a9.741 9.741 0 00-6.75-2.29 13 13 0 00-3.19.39 8.994 8.994 0 00-2.79 1.25 7.216 7.216 0 00-2.09 2.2h-.39l-1-3.35h-5.46v26.2h7.15V24.14a13.83 13.83 0 011.2-6.42c.79-1.48 2.29-2.23 4.47-2.23a3.627 3.627 0 013.19 1.43 7.238 7.238 0 011 4.25v15.3h7.15V19.38c.04-3.347-.79-5.783-2.49-7.31zM467.89 70.51h5.46V62.7H458.7v7.81h5.47c0 .58-.09 1.17-.15 1.74h-7.32v9.68h3.36v-1h12.34v1h3.5V72.3h-8.48l.47-1.79zm-6.07-5.15h8.17v2.45h-8.17v-2.45zm10.55 12.63h-12.34v-2.86h12.34v2.86z"/><path d="M467.67 55.7h-3.55v2.32h-10.08v7.06h3.27v-4.01h17.42v4.01h3.44v-7.06h-10.5V55.7zm37.94 18.65c-.08 2.88-.34 4.2-.73 4.2-.39 0-1-1.1-1.49-2.94a31.76 31.76 0 003.84-9.64l-3-.56a29.39 29.39 0 01-1.65 5.28c-.28-2.38-.49-5.13-.6-8.05h5.36v-3h-1.64l1.23-.73a15.492 15.492 0 00-2.74-3.3l-2.3 1.34a18.334 18.334 0 012.16 2.69h-2.19v-3.92h-3.16c0 1.3 0 2.61.06 3.92h-8.49v9.32a29.727 29.727 0 01-.43 5.62l-.43-2.09-2.16.78v-7.75h2.18v-3.08h-2.18v-6.3h-3.11v6.3h-2.44v3.08h2.46v8.85c-1.08.38-2.08.7-2.91 1l1 3.33c2.19-.87 4.81-1.92 7.31-3a10.836 10.836 0 01-2.27 4.4 11.31 11.31 0 012.43 2.07 14.26 14.26 0 003.18-7.33c.373.843.606 1.742.69 2.66.795.04 1.593 0 2.38-.12a2.197 2.197 0 001.56-1c.56-.81.68-3.3.76-9.6v-1.09h-5v-3h5.51a78.157 78.157 0 001.29 12.34 17.139 17.139 0 01-5.23 4.8 17.902 17.902 0 012.33 2.27 19.91 19.91 0 003.94-3.52c.81 2 1.87 3.15 3.25 3.15 2.21 0 3.08-1.2 3.5-5.57a7.582 7.582 0 01-2.27-1.81zm-10-6c-.06 4.14-.15 5.67-.39 6a.796.796 0 01-.7.34 12.453 12.453 0 01-1.52-.08c.3-1.901.44-3.825.42-5.75v-.56l2.19.05zm29.81-1.65h9.93v-3.47h-11.07c.27-2.63.3-5.2.34-7.53h-3.69c0 2.31 0 4.9-.27 7.53h-10.23v3.47h9.67a16.864 16.864 0 01-10.23 12.35 10.475 10.475 0 012.54 2.86 19.451 19.451 0 0010.52-11.95c2.19 5.44 5.43 9.57 10.51 11.95a15.622 15.622 0 012.52-3.2c-5.26-2.09-8.67-6.54-10.54-12.01zm16.84-3.58h17.92v3.89h3.33v-6.86h-3.74c.79-1 1.61-2.1 2.37-3.19l-3.64-1.07a26.01 26.01 0 01-2.42 4.26h-4.32l1.45-.56a17.265 17.265 0 00-2.21-4.06l-3 1.12a18.605 18.605 0 011.78 3.5h-4.44l1-.48a14.748 14.748 0 00-2.58-3.69l-2.86 1.29a19.71 19.71 0 012 2.88h-3.82v6.86h3.16l.02-3.89z"/><path d="M559.26 66.73l-2.13-1.62-.7.16h-12.66v2.89h9.53a19.497 19.497 0 01-2.22 1.59h-1.54v1.8h-10.78v3.1h10.78v3.64c0 .4-.17.54-.73.54-.56 0-2.66 0-4.45-.06.6 1.017 1.061 2.11 1.37 3.25a18.27 18.27 0 005.49-.51c1.35-.5 1.77-1.37 1.77-3.1v-3.76h10.83v-3.1h-10.6a27.621 27.621 0 006.04-4.82zm22.01 4.25a15.49 15.49 0 003.09-2.93 41.925 41.925 0 014.89 3.89l2.38-2.55a46.844 46.844 0 00-5.53-4c.461-.866.849-1.77 1.16-2.7l-2.85-.59h7.08v-3.19h-10.22v-3.22h-3.57v3.22h-10v3.19h5.26a14 14 0 01-5.9 7.7 22.566 22.566 0 012.77 2.27 18.102 18.102 0 004.2-4.48 19.691 19.691 0 012.66 2.24l2-2.38a28.185 28.185 0 00-3.22-2.37c.382-.768.716-1.56 1-2.37l-2.69-.61h10a12.163 12.163 0 01-6 7.11 16.843 16.843 0 012 1.6h-2v1.76h-10.75v3.24h10.67v6.13h3.53v-6.13h11v-3.22h-11l.04-1.61zm39.31 4.6v-2.77H609.7v-1.26h8.43v-2.43h-8.43v-1.23h9.74v-2.64h-5.52c.41-.66.85-1.42 1.32-2.24h5.27v-2.77h-3.63c.67-1 1.45-2.24 2.2-3.53l-3.53-.84a25.026 25.026 0 01-1.76 4.09l.9.28h-2.39v-4.59h-3.19v4.59h-2v-4.59h-3.14v4.59h-2.53l1.33-.47a21.64 21.64 0 00-2.13-4l-2.89 1c.67 1.11 1.255 2.27 1.75 3.47h-3.8v2.77h5.75-.18c.36.713.668 1.452.92 2.21h-5.34v2.64h9.52v1.23h-8.12v2.43h8.12v1.29H595.6v2.75h8.1a28.47 28.47 0 01-9 3.25 14.469 14.469 0 012.16 2.8 26.645 26.645 0 009.44-4.57v4.91h3.4v-5a23.665 23.665 0 009.41 4.74 14.378 14.378 0 012.26-3 26.13 26.13 0 01-8.87-3.08l8.08-.03zm-15.83-12.55h6.7c-.28.77-.63 1.58-.95 2.24h-5.28l.49-.08a12.632 12.632 0 00-.96-2.16zm40.69 14.98c0 .45-.14.59-.59.59h-3.41c.456 1.097.791 2.24 1 3.41a11.539 11.539 0 004.82-.64c1-.59 1.4-1.49 1.4-3.31V56.22h-3.25l.03 21.79zm-12.43-15.54h5.07v-3.05h-5.07v-3.55h-3.19v3.55h-1.8c.25-.85.47-1.71.65-2.57l-3.08-.62a22.57 22.57 0 01-2.58 7.31c.863.29 1.711.623 2.54 1h-2.12v3h6.39v2h-5.29v10.14h3v-7.14h2.3v9.35h3.19v-9.35h2.46v4.12c0 .28-.08.33-.33.33h-1.74c.405.91.678 1.873.81 2.86a6.322 6.322 0 003.28-.5c.84-.51 1-1.29 1-2.61v-7.17h-5.49v-2h6.16v-3h-6.16v-2.1zm-7 2.1a22.67 22.67 0 00.95-2.1h2.84v2.1h-3.79z"/><path d="M643.55 58.02h-3.14v15.82h3.14V58.02zm17.54-1.21l-3.24-1a29.642 29.642 0 01-6.44 10.53 21.69 21.69 0 011.84 3.58 24.572 24.572 0 001.77-2.07v14.11h3.39V62.62a46.66 46.66 0 002.68-5.81z"/><path d="M668.49 56.81l-3.25-.87a27.99 27.99 0 01-6 10.61 20.57 20.57 0 012.55 2.35 30.228 30.228 0 003.72-5.46h1v18.54h3.45v-6.24h7.74V72.6h-7.64v-3.14h7.28v-3.05h-7.28v-3h8v-3.19h-10.91c.48-1.09.94-2.25 1.34-3.41zm32.88 20.67c1.26-.65 2.473-1.39 3.63-2.21l-2-1.34h3V71.1h-5.3v-1.91h4v-2.8h-4v-1.84h3.78V56.9h-21.67v8.32c0 4.48-.22 10.81-3 15.12a15.68 15.68 0 013 1.73c2.94-4.62 3.39-11.92 3.39-16.85v-.67h4.12v1.84h-3.56v2.8h3.56v1.91H686v2.83h2.92v4.28c-1.06.14-2 .25-2.89.34l.48 3.08c2.91-.45 6.83-1 10.47-1.63l-.11-2.3a14.111 14.111 0 007.45 4.32 12.832 12.832 0 012-2.77 15.399 15.399 0 01-4.95-1.77zm-15.16-17.75h14.9v2h-14.9v-2zm7.2 4.82h4.17v1.84h-4.17v-1.84zm0 4.64h4.17v1.91h-4.17v-1.91zm-1.4 8.62v-3.88h2.48a15.426 15.426 0 001.95 3.25l-4.43.63zm5.66-3.88h4.35a31.38 31.38 0 01-2.85 1.9 10.537 10.537 0 01-1.47-1.9h-.03z"/></g><defs><clipPath id="clip0_98_603"><path fill="#fff" d="M0 0h706.32v82.1H0z"/></clipPath></defs></svg>