<svg width="297" height="105" fill="none" xmlns="http://www.w3.org/2000/svg"><g clip-path="url(#clip0_98_649)" fill="#fff"><path d="M9.68 15.51h4.33v4.77l-1.34.22c-.578.066-1.159.096-1.74.09a5.61 5.61 0 01-3.42-1 5.62 5.62 0 01-1.92-2.7 11.87 11.87 0 01-.61-4 9.27 9.27 0 01.84-4.09 6.52 6.52 0 012.41-2.72 6.79 6.79 0 013.67-1 10.77 10.77 0 012.81.36c.828.215 1.632.513 2.4.89l1.6-3.88a17.7 17.7 0 00-3.2-1 16.57 16.57 0 00-3.58-.39A13.56 13.56 0 005.42 2.5a9.67 9.67 0 00-4.05 4.06A13.18 13.18 0 000 12.78a15.15 15.15 0 001.23 6.45 8.67 8.67 0 003.61 4 11.63 11.63 0 005.78 1.34c1.47.015 2.94-.099 4.39-.34a29.645 29.645 0 003.74-1V11.48H9.68v4.03zm24.34-9a5 5 0 00-2.15.46 6 6 0 00-1.77 1.18 7.362 7.362 0 00-1.28 1.63h-.24l-.7-2.94h-3.61v17.47h4.82v-8.89a5 5 0 01.39-2.08 3.55 3.55 0 011.09-1.37 4.42 4.42 0 011.55-.77 6.73 6.73 0 011.8-.23c.243-.013.487-.013.73 0 .227.01.452.047.67.11l.36-4.47a6.002 6.002 0 00-.78-.09c-.36.01-.64-.01-.88-.01zM51.8 7.98a8.34 8.34 0 00-5.39-1.53 15.18 15.18 0 00-3.58.42 13.93 13.93 0 00-3.11 1.16l1.58 3.22c.79-.362 1.606-.666 2.44-.91a8.702 8.702 0 012.48-.36 3 3 0 012 .64 2.58 2.58 0 01.72 2v.77l-3 .09a11.13 11.13 0 00-5.85 1.5 4.58 4.58 0 00-2 4.09 6.28 6.28 0 00.7 3.13 4.47 4.47 0 001.92 1.81c.87.402 1.82.604 2.78.59a9.278 9.278 0 002.47-.28 5.38 5.38 0 001.8-.87 9.21 9.21 0 001.53-1.53h.12l.93 2.37h3.32V12.65a5.673 5.673 0 00-1.86-4.67zm-2.86 9.64a3.219 3.219 0 01-1.06 2.58 3.79 3.79 0 01-2.58.91 2.82 2.82 0 01-1.67-.45 1.82 1.82 0 01-.64-1.57 2.5 2.5 0 01.89-2 5.29 5.29 0 013.22-.83l1.84-.06v1.42zM69.53 5.59c0 .668.04 1.336.12 2 .1.64.17 1.13.24 1.47h-.16a5.84 5.84 0 00-1.19-1.3 5.221 5.221 0 00-1.64-.92 6.43 6.43 0 00-2.2-.35 5.92 5.92 0 00-4.86 2.32c-1.24 1.533-1.86 3.793-1.86 6.78s.61 5.23 1.83 6.73a5.85 5.85 0 004.76 2.28 6.422 6.422 0 002.21-.34 5.383 5.383 0 001.61-.92c.444-.38.828-.826 1.14-1.32h.2l.92 2.27h3.66V-.02h-4.78v5.61zm.33 10.56a6.51 6.51 0 01-.86 3.52 3.11 3.11 0 01-2.75 1.16 2.94 2.94 0 01-2.55-1.3 6.88 6.88 0 01-.89-3.86 7.17 7.17 0 01.89-3.92 2.79 2.79 0 012.47-1.36 3 3 0 012.9 1.36 7.72 7.72 0 01.79 3.89v.51zm21.15-1.09a12.473 12.473 0 01-.35 3.16 3.58 3.58 0 01-1.15 2 3.6 3.6 0 01-2.28.66 2.45 2.45 0 01-2.15-1 5 5 0 01-.67-2.83V6.85h-4.76v11.39a7.651 7.651 0 00.76 3.66 4.89 4.89 0 002.17 2.08 7.721 7.721 0 003.27.65 8.65 8.65 0 002.11-.26 6.259 6.259 0 001.86-.83 5.001 5.001 0 001.41-1.45h.25l.64 2.23h3.65V6.85h-4.76v8.21zm22.76-7.08a8.342 8.342 0 00-5.39-1.53 15.177 15.177 0 00-3.58.42c-1.079.261-2.123.65-3.11 1.16l1.58 3.22c.79-.362 1.606-.666 2.44-.91a8.7 8.7 0 012.48-.36 3 3 0 012 .64 2.58 2.58 0 01.72 2v.77l-3 .09c-2.052-.06-4.08.449-5.86 1.47a4.595 4.595 0 00-2 4.09 6.27 6.27 0 00.71 3.13 4.465 4.465 0 001.92 1.81 6.411 6.411 0 002.78.59 9.278 9.278 0 002.47-.28 5.378 5.378 0 001.8-.87 9.22 9.22 0 001.53-1.53h.12l.92 2.37h3.33V12.62a5.678 5.678 0 00-1.86-4.64zm-2.86 9.64a3.227 3.227 0 01-1.06 2.58 3.791 3.791 0 01-2.58.91 2.82 2.82 0 01-1.67-.45 1.816 1.816 0 01-.64-1.57 2.503 2.503 0 01.89-2 5.28 5.28 0 013.21-.83l1.85-.06v1.42zm17.46 3.21a2.28 2.28 0 01-1.51-.49 1.871 1.871 0 01-.57-1.5v-8.42h4.89V6.84h-4.89V3.12h-3l-1.38 3.69-2.62 1.59v2h2.28v8.42a7.323 7.323 0 00.7 3.52 4.001 4.001 0 002 1.76 7.463 7.463 0 002.82.5c.829.004 1.656-.073 2.47-.23a9.456 9.456 0 001.9-.56v-3.55c-.485.16-.979.29-1.48.39a7.613 7.613 0 01-1.61.18zm7.54-16.66a3.342 3.342 0 001.85.5 3.3 3.3 0 001.83-.5 2.045 2.045 0 00.76-1.84 2.005 2.005 0 00-.76-1.83 3.22 3.22 0 00-1.83-.5 3.26 3.26 0 00-1.85.5 1.995 1.995 0 00-.75 1.83 2.075 2.075 0 00.75 1.84zm4.23 2.67h-4.77v17.47h4.77V6.84zm6.75 15.44a7.598 7.598 0 002.67 1.75c1.088.4 2.24.6 3.4.59a10.052 10.052 0 003.53-.59 7.213 7.213 0 002.68-1.75 7.744 7.744 0 001.71-2.86 11.86 11.86 0 00.59-3.88 10.224 10.224 0 00-1.09-4.92 7.414 7.414 0 00-3-3.06 8.801 8.801 0 00-4.34-1 9.3 9.3 0 00-4.55 1 7.13 7.13 0 00-2.94 3.06 10.84 10.84 0 00-1 4.92c-.019 1.319.187 2.63.61 3.88a8.24 8.24 0 001.73 2.86zm3.35-10.63a3.054 3.054 0 012.75-1.29 3.412 3.412 0 012.07.58c.57.43.978 1.04 1.16 1.73.275.93.403 1.9.38 2.87a9.672 9.672 0 01-.38 2.9 3.299 3.299 0 01-1.16 1.76 3.252 3.252 0 01-2 .59 3.349 3.349 0 01-2.08-.59 3.427 3.427 0 01-1.17-1.76 9.672 9.672 0 01-.38-2.9 7.17 7.17 0 01.81-3.89zm24.16-1.32a2.421 2.421 0 012.13 1c.517.85.759 1.838.69 2.83v10.2h4.76V12.97c0-2.24-.567-3.867-1.7-4.88a6.492 6.492 0 00-4.5-1.53 8.394 8.394 0 00-2.13.27 6.23 6.23 0 00-1.86.83 4.777 4.777 0 00-1.39 1.47h-.26l-.64-2.24h-3.64v17.47h4.76v-8.22a9.265 9.265 0 01.8-4.28 3.07 3.07 0 012.98-1.53zm33.6 2.01c.07-.25.15-.61.25-1.09.1-.48.21-1 .32-1.55.11-.55.21-1.07.29-1.56.08-.49.16-.88.19-1.17 0 .29.09.68.17 1.18.08.5.2 1 .31 1.58l.33 1.53c.11.47.19.82.25 1l3.1 12h5.51l5.81-22.84h-4.76l-2.91 12.47c-.11.5-.25 1.11-.4 1.85-.15.74-.29 1.49-.43 2.24-.14.75-.22 1.37-.29 1.89 0-.39-.11-.84-.21-1.36-.1-.52-.17-1.07-.28-1.62-.11-.55-.21-1.07-.31-1.54s-.18-.86-.25-1.14l-3.33-12.79h-4.58l-3.32 12.79c-.09.29-.18.68-.29 1.14-.11.46-.2 1-.31 1.54-.11.54-.18 1.07-.26 1.6-.08.53-.15 1-.21 1.38 0-.39-.11-.84-.2-1.36-.09-.52-.18-1.08-.3-1.64-.12-.56-.21-1.12-.32-1.64-.11-.52-.2-1-.29-1.34l-2.92-12.47h-4.76l5.82 22.84h5.5L208 12.34zm30.37 11.69a7.255 7.255 0 002.69-1.75 7.591 7.591 0 001.7-2.86c.419-1.25.622-2.562.6-3.88a10.217 10.217 0 00-1.1-4.92 7.393 7.393 0 00-3-3.06 8.81 8.81 0 00-4.35-1 9.258 9.258 0 00-4.54 1 7.13 7.13 0 00-2.94 3.06 10.705 10.705 0 00-1 4.92 11.324 11.324 0 00.61 3.88 8.243 8.243 0 001.75 2.86 7.598 7.598 0 002.67 1.75 9.496 9.496 0 003.39.59 10.002 10.002 0 003.52-.59zm-6.72-5.59a9.7 9.7 0 01-.37-2.9 7.266 7.266 0 01.84-3.89 3.069 3.069 0 012.75-1.29 3.42 3.42 0 012.08.58 3.23 3.23 0 011.16 1.73c.271.932.396 1.9.37 2.87a9.7 9.7 0 01-.37 2.9 3.363 3.363 0 01-1.16 1.76 3.26 3.26 0 01-2.05.59 3.34 3.34 0 01-2.07-.59 3.376 3.376 0 01-1.18-1.76zm26.44-7.46c.227.01.452.047.67.11l.36-4.47a6.019 6.019 0 00-.78-.09h-.83a4.998 4.998 0 00-2.15.46 5.994 5.994 0 00-1.77 1.18 7.324 7.324 0 00-1.28 1.63h-.22l-.7-2.94h-3.61v17.47h4.77v-8.89a4.997 4.997 0 01.39-2.08 3.548 3.548 0 011.09-1.37 4.415 4.415 0 011.55-.77 6.73 6.73 0 011.8-.23c.236-.015.473-.019.71-.01zm14.62 3.44l6.93-7.58h-5.37l-4.89 5.31c-.39.42-.75.85-1.1 1.3-.35.45-.66.9-1 1.36h-.06c.06-.66.12-1.31.17-2 .05-.69.08-1.31.08-2V-.02h-4.77v24.31h4.77v-5.44l2-1.64 5 7.08h5.5l-7.26-9.87zm11.3 1.08a16.457 16.457 0 002.71 1.39 27 27 0 012.5 1.17c.387.192.728.464 1 .8.163.227.25.5.25.78a1.276 1.276 0 01-.61 1.09 3.67 3.67 0 01-2 .41 12.2 12.2 0 01-2.87-.41 18.864 18.864 0 01-3.05-1.06v3.94c.848.349 1.729.61 2.63.78 1.038.165 2.089.241 3.14.23a11.92 11.92 0 004.12-.62c1-.351 1.869-1 2.49-1.86a5.235 5.235 0 00.84-3 4.778 4.778 0 00-.59-2.51 4.752 4.752 0 00-1.69-1.64 17.232 17.232 0 00-2.58-1.28c-1-.42-1.8-.76-2.33-1a3.922 3.922 0 01-1.06-.73 1.138 1.138 0 01-.26-.75.889.889 0 01.53-.86 3.4 3.4 0 011.57-.29 7.655 7.655 0 012.33.36c.836.265 1.658.575 2.46.93l1.43-3.44a15.062 15.062 0 00-3-1.05 14.103 14.103 0 00-3.1-.33 9 9 0 00-5 1.24 4.002 4.002 0 00-1.88 3.64c-.03.845.142 1.684.5 2.45a4.728 4.728 0 001.52 1.62zM133.9 68.31h13.16v-4h-8.31v-5.89h7.73v-3.97h-7.73v-5.01h8.31v-3.97H133.9v22.84zm33.59-17.47h-5.41l-3.42 5.57-3.39-5.57h-5.4l5.62 8.55-5.92 8.92h5.4l3.69-5.98 3.67 5.98h5.43l-5.96-8.92 5.69-8.55zm16.52.35a7.49 7.49 0 00-3.29-.68 7.311 7.311 0 00-2 .27c-.618.174-1.2.455-1.72.83a5.117 5.117 0 00-1.33 1.47h-.25c0-.33.08-.88.13-1.66.05-.78.09-1.6.09-2.47v-5h-4.76v24.31h4.76v-8.22a12.21 12.21 0 01.35-3.14 3.59 3.59 0 011.17-2 3.48 3.48 0 012.26-.67 2.439 2.439 0 012.13 1c.518.85.759 1.838.69 2.83v10.2H187V56.87a7.53 7.53 0 00-.78-3.66 4.722 4.722 0 00-2.21-2.02zm13.1-.35h-4.77v17.47h4.77V50.84zm-.56-6.34a3.21 3.21 0 00-1.82-.5 3.26 3.26 0 00-1.85.5 2.003 2.003 0 00-.75 1.83 2.075 2.075 0 00.75 1.84 3.342 3.342 0 001.85.5 3.29 3.29 0 001.82-.5 2.06 2.06 0 00.77-1.84 2.001 2.001 0 00-.77-1.83zm15.73 6.01a5.56 5.56 0 00-3.07.77 5.877 5.877 0 00-1.88 1.83h-.19a13.7 13.7 0 00.13-1.5c0-.65.06-1.3.06-2v-5.63h-4.76v24.31h3.64l.79-1.92h.33a7.116 7.116 0 001.76 1.61 5.81 5.81 0 003 .68 6.21 6.21 0 003.51-1 6.71 6.71 0 002.36-3.05 13.01 13.01 0 00.85-5c0-3-.61-5.2-1.83-6.73a5.817 5.817 0 00-4.7-2.37zm.86 12.89a2.625 2.625 0 01-2.32 1.36 2.852 2.852 0 01-2.74-1.34 8.23 8.23 0 01-.75-3.91v-.53a9.327 9.327 0 01.36-2.61 3 3 0 011.08-1.55 3.42 3.42 0 012-.51 2.74 2.74 0 012.39 1.29 6.9 6.9 0 01.88 3.86 7.184 7.184 0 01-.9 3.94zm14.89-12.56h-4.76v17.47h4.76V50.84zm-.55-6.34a3.222 3.222 0 00-1.83-.5 3.23 3.23 0 00-1.84.5 1.995 1.995 0 00-.75 1.83 2.075 2.075 0 00.75 1.84 3.31 3.31 0 001.84.5 3.3 3.3 0 001.83-.5 2.056 2.056 0 00.77-1.84 2.001 2.001 0 00-.77-1.83zm13.37 20.33a2.28 2.28 0 01-1.51-.49 1.884 1.884 0 01-.57-1.5v-8.42h4.89v-3.58h-4.89v-3.72h-3l-1.38 3.69-2.62 1.59v2h2.28v8.42a7.323 7.323 0 00.7 3.52 4.001 4.001 0 002 1.76 7.421 7.421 0 002.82.5c.829.004 1.656-.073 2.47-.23a9.456 9.456 0 001.9-.56v-3.55c-.485.16-.979.29-1.48.39a7.613 7.613 0 01-1.61.18zm11.77-13.99h-4.77v17.47h4.77V50.84zm-.53-6.34a3.24 3.24 0 00-1.83-.5 3.26 3.26 0 00-1.85.5 1.994 1.994 0 00-.75 1.83 2.075 2.075 0 00.75 1.84 3.342 3.342 0 001.85.5 3.318 3.318 0 001.83-.5 2.046 2.046 0 00.76-1.84 2.005 2.005 0 00-.76-1.83zm17.78 7.06a8.798 8.798 0 00-4.34-1 9.299 9.299 0 00-4.55 1 7.13 7.13 0 00-2.94 3.06 10.84 10.84 0 00-1 4.92c-.019 1.319.187 2.63.61 3.88a8.26 8.26 0 001.75 2.86 7.598 7.598 0 002.67 1.75c1.089.4 2.24.6 3.4.59a10.049 10.049 0 003.53-.59 7.213 7.213 0 002.68-1.75 7.731 7.731 0 001.71-2.86c.411-1.252.611-2.563.59-3.88a10.224 10.224 0 00-1.09-4.92 7.409 7.409 0 00-3.02-3.06zm-1.17 10.88a3.299 3.299 0 01-1.16 1.76 3.25 3.25 0 01-2 .59 3.35 3.35 0 01-2.08-.59 3.433 3.433 0 01-1.17-1.76 9.672 9.672 0 01-.38-2.9c-.089-1.35.205-2.7.85-3.89a3.061 3.061 0 012.75-1.29 3.408 3.408 0 012.07.58c.57.43.979 1.04 1.16 1.73.276.93.404 1.9.38 2.87a9.657 9.657 0 01-.42 2.9zm19.56-11.93a8.396 8.396 0 00-2.13.27 6.232 6.232 0 00-1.86.83 4.779 4.779 0 00-1.39 1.47h-.26l-.64-2.24h-3.64v17.47h4.75v-8.22a9.265 9.265 0 01.8-4.28 3.056 3.056 0 013-1.48 2.421 2.421 0 012.13 1c.517.849.759 1.838.69 2.83v10.2h4.76V56.97c0-2.24-.567-3.867-1.7-4.88a6.492 6.492 0 00-4.51-1.58zm-162.33 45.4h3.9v-5.58h-10.48v5.58h3.9c0 .41-.06.83-.1 1.24h-5.24v6.92h2.4v-.74h8.78v.7h2.5v-6.88h-6.06c.15-.4.27-.81.4-1.24zm-4.34-3.68h5.84v1.75h-5.84v-1.75zm7.54 9h-8.82v-2h8.78l.04 2z"/><path d="M125.77 85.33h-2.54v1.66h-7.2v5.04h2.34v-2.86h12.44v2.86h2.46v-5.04h-7.5v-1.66zm27.1 13.32c-.06 2.06-.24 3-.52 3s-.75-.78-1.07-2.1a23.016 23.016 0 002.75-6.88l-2.16-.4a20.889 20.889 0 01-1.18 3.76c-.2-1.69-.35-3.66-.43-5.74h3.83v-2.18h-1.14l.88-.52a11.25 11.25 0 00-2-2.36l-1.64 1a14.226 14.226 0 011.54 1.92h-1.57v-2.8h-2.26v2.8h-6.06v6.66c.024 1.34-.083 2.68-.32 4l-.3-1.48-1.54.56v-5.54h1.56v-2.2h-1.56v-4.5h-2.22v4.5h-1.76v2.2h1.76v6.32c-.78.27-1.49.5-2.08.68l.74 2.38c1.56-.62 3.43-1.37 5.21-2.12a7.654 7.654 0 01-1.61 3.14 8.322 8.322 0 011.74 1.48 10.266 10.266 0 002.26-5.25 6 6 0 01.5 1.91c.568.03 1.137.003 1.7-.08a1.606 1.606 0 001.12-.68c.4-.58.48-2.36.54-6.86v-.78h-3.49v-2.16h4a55.79 55.79 0 00.92 8.81 12.096 12.096 0 01-3.73 3.43 12.77 12.77 0 011.66 1.62 14.002 14.002 0 002.82-2.52c.58 1.41 1.33 2.26 2.32 2.26 1.58 0 2.2-.86 2.5-4a5.224 5.224 0 01-1.71-1.28zm-7.18-4.26c0 2.95-.11 4-.28 4.32a.562.562 0 01-.5.24 8.454 8.454 0 01-1.09-.06c.216-1.356.319-2.727.31-4.1v-.4h1.56zm21.33-1.2h7.07v-2.48h-7.91c.19-1.88.22-3.72.25-5.38h-2.64c0 1.65 0 3.5-.2 5.38h-7.3v2.48h6.91a12.064 12.064 0 01-7.31 8.82 7.546 7.546 0 011.82 2 13.862 13.862 0 007.51-8.56c1.57 3.9 3.88 6.86 7.51 8.56a11.023 11.023 0 011.8-2.28c-3.76-1.45-6.18-4.63-7.51-8.54zm24.17.02l-1.52-1.16-.5.12h-9v2.06h6.8a13.77 13.77 0 01-1.58 1.14h-1.1v1.28h-7.7v2.22h7.7v2.6c0 .28-.12.38-.52.38h-3.18a9.43 9.43 0 011 2.32 13.13 13.13 0 003.92-.36c1-.36 1.26-1 1.26-2.22v-2.68h7.74v-2.22h-7.58a19.657 19.657 0 004.26-3.48z"/><path d="M179.09 90.63h12.8v2.78h2.38v-4.9h-2.68c.56-.7 1.15-1.49 1.7-2.28l-2.6-.76a18.58 18.58 0 01-1.74 3h-3.08l1-.4a12.297 12.297 0 00-1.58-2.9l-2.12.8c.505.788.927 1.626 1.26 2.5h-3.16l.74-.34a10.55 10.55 0 00-1.84-2.64l-2 .92a14.9 14.9 0 011.39 2.06h-2.73v4.9h2.26v-2.74zm27.82 5.62a11.76 11.76 0 002.21-2.09 29.683 29.683 0 013.49 2.77l1.7-1.82a33.42 33.42 0 00-4-2.83c.329-.62.607-1.265.83-1.93l-2-.42h5.06v-2.28h-7.3v-2.3h-2.52v2.3h-7.12v2.33h3.75a9.935 9.935 0 01-4.21 5.5 16.101 16.101 0 012 1.62 12.814 12.814 0 003-3.2c.674.483 1.31 1.018 1.9 1.6l1.42-1.7a19.079 19.079 0 00-2.3-1.69c.264-.55.498-1.114.7-1.69l-1.92-.44h7.15a8.711 8.711 0 01-4.31 5.08c.5.345.975.726 1.42 1.14h-1.46v1.26h-7.68v2.3h7.68v4.38h2.52v-4.38h7.88v-2.3h-7.88l-.01-1.21zm28.08 3.28v-2h-7.8v-.9h6v-1.65h-6v-.88h7v-1.88h-3.95c.29-.47.61-1 .94-1.6h3.77v-2h-2.59c.47-.71 1-1.6 1.57-2.52l-2.52-.6a17.831 17.831 0 01-1.26 2.92l.64.2h-1.7v-3.28h-2.28v3.28h-1.46v-3.28h-2.26v3.28h-1.81l1-.34a15.226 15.226 0 00-1.52-2.84l-2.06.7c.473.796.887 1.624 1.24 2.48h-2.68v2h4.11-.13a9.9 9.9 0 01.65 1.58h-3.81v1.88h6.8v.88h-5.8v1.74h5.8v.9h-7.66v2h5.75a20.351 20.351 0 01-6.37 2.34 10.27 10.27 0 011.54 2 19.01 19.01 0 006.74-3.27v3.51h2.38v-3.6a16.875 16.875 0 006.72 3.38 10.17 10.17 0 011.62-2.16 18.848 18.848 0 01-6.35-2.2l5.74-.07zm-11.31-9h4.78c-.195.546-.422 1.08-.68 1.6h-3.76l.35-.06a8.72 8.72 0 00-.69-1.5v-.04zm20.19-.36h3.62v-2.19h-3.62v-2.54h-2.28v2.54h-1.29c.18-.61.34-1.23.47-1.84l-2.2-.44a16.196 16.196 0 01-1.84 5.22c.47.17 1.27.48 1.8.74h-1.5v2.16h4.56v1.44h-3.78v7.24h2.14v-5.1h1.64v6.68h2.28V97.4h1.76v2.94c0 .2-.06.24-.24.24h-1.24c.284.637.479 1.31.58 2a4.477 4.477 0 002.34-.36c.6-.36.72-.92.72-1.86v-5.12h-3.92V93.8h4.4v-2.16h-4.4v-1.47zm-5 1.5c.253-.488.48-.988.68-1.5h2v1.5h-2.68zm13.88 9.6c0 .32-.1.42-.42.42h-2.44c.335.784.583 1.602.74 2.44a8.2 8.2 0 003.44-.46c.74-.42 1-1.06 1-2.36v-15.6h-2.32v15.56z"/><path d="M251.39 86.99h-2.24v11.3h2.24v-11.3zm12.54-.84l-2.32-.74a21.056 21.056 0 01-4.6 7.52c.518.81.96 1.668 1.32 2.56.42-.44.84-1 1.26-1.48v10.08h2.42V90.28a34.854 34.854 0 001.92-4.13z"/><path d="M269.21 86.13l-2.32-.62a19.997 19.997 0 01-4.26 7.58c.653.508 1.261 1.07 1.82 1.68a22.289 22.289 0 002.66-3.9h.74v13.24h2.46v-4.46h5.46v-2.24h-5.46v-2.24h5.2v-2.19h-5.2v-2.12h5.72v-2.28h-7.8c.36-.8.69-1.6.98-2.45zm23.48 14.76c.901-.467 1.77-.995 2.6-1.58l-1.42-1h2.14v-2h-3.78v-1.33h2.86v-2h-2.88v-1.32h2.7V86.2h-15.48v5.94c0 3.2-.16 7.72-2.16 10.8a11.46 11.46 0 012.16 1.24c2.1-3.3 2.42-8.52 2.42-12v-.48h2.94v1.28h-2.54v2h2.54v1.36h-3.08v2h2.08v3.06c-.76.1-1.46.18-2.06.24l.34 2.2c2.08-.32 4.88-.72 7.48-1.16l-.08-1.64a10.097 10.097 0 005.32 3.08c.382-.727.859-1.4 1.42-2a10.864 10.864 0 01-3.52-1.23zm-10.82-12.68h10.64v1.42h-10.64v-1.42zm5.14 3.44h3v1.33h-3v-1.33zm0 3.32h3v1.36h-3v-1.36zm-1 6.15v-2.77h1.77c.366.83.837 1.61 1.4 2.32l-3.17.45zm4-2.77h3.1c-.643.487-1.311.941-2 1.36a7.431 7.431 0 01-1.02-1.36h-.08z"/></g><defs><clipPath id="clip0_98_649"><path fill="#fff" d="M0 0h296.23v104.19H0z"/></clipPath></defs></svg>