<svg xmlns="http://www.w3.org/2000/svg" viewBox="0 0 1020.47 510.24"><style>.st0{fill:#fff}</style><g id="レイヤー_4"><path class="st0" d="M58.9 145.19c.14-.25.31-.48.5-.62.14-.11.2-.22.2-.34 0-.17-.06-.25-.34-.39-.45-.2-1.09-.42-1.71-.59-.08.59-.2 1.01-.48 1.59-1.57 3.5-4.61 7.3-8.73 9.76.36.2.7.53.98.95.2.25.25.36.39.36.08 0 .2-.08.42-.25 3.94-2.81 6.51-5.91 8.77-10.47m5.85-1.79c-.11-.22-.17-.22-.5-.06l-.78.34c-.31.14-.36.17-.28.39 1.99 4.39 5.29 8.47 9.59 11.47.2.14.31.22.39.22.11 0 .2-.11.36-.39.25-.42.59-.87.92-1.12-4.28-2.52-7.74-6.43-9.7-10.85m.45 13.59c-.17-.17-.2-.17-.48.03l-.73.45c-.34.22-.42.28-.28.45 1.34 1.62 2.49 3.16 3.52 4.78-3.16.42-6.99.84-10.43 1.12 1.51-3.33 2.88-6.91 3.89-9.7.25-.73.45-1.06.67-1.37.14-.17.2-.22.2-.39 0-.14-.14-.28-.36-.36-.53-.2-1.12-.36-1.79-.53-.11.89-.34 1.68-.75 2.96-.73 2.29-2.13 5.96-3.78 9.56-.28 0-.56.03-.84.03-1.23.08-2.21.11-3.1.06.14.7.31 1.34.48 1.85.06.22.17.34.28.34.14 0 .22-.06.36-.14.22-.14.5-.25 1.12-.31 4.92-.45 10.46-1.01 14.93-1.71.5.84.98 1.71 1.48 2.66.11.22.17.2.56 0l.87-.5c.36-.2.39-.25.28-.42-2.05-3.54-3.59-5.87-6.1-8.86m37.72-7.58c.2 0 .22-.03.22-.25v-1.34c0-.2-.03-.22-.22-.22-.14 0-1.06.06-3.86.06H92.8v-2.32c0-1.2.06-1.68.17-1.93.08-.2.14-.31.14-.5 0-.11-.14-.22-.36-.25-.62-.08-1.03-.11-1.93-.14.14.67.2 1.43.2 2.82v2.32H85.3c-2.77 0-3.69-.06-3.86-.06-.2 0-.22.03-.22.22v1.34c0 .22.03.25.22.25.17 0 1.09-.06 3.86-.06h13.76c2.8.01 3.72.06 3.86.06m-16.75 2.07l-.92.31c-.39.14-.42.17-.34.36 1.2 3.1 2.04 5.96 2.69 9.7.06.25.11.28.53.17l.98-.28c.34-.08.34-.17.31-.36-.7-3.8-1.68-6.88-2.85-9.82-.07-.16-.12-.16-.4-.08"/><path class="st0" d="M104.32 163.9c-.17 0-1.01.06-3.64.06H95.2c1.45-3.38 2.55-6.6 3.55-10.07.17-.59.31-.98.53-1.23.11-.14.25-.31.25-.48 0-.14-.06-.22-.28-.31-.64-.25-1.23-.42-1.96-.62-.08.92-.22 1.65-.56 2.91-.78 2.88-1.85 6.24-3.36 9.79h-9.76c-2.6 0-3.47-.06-3.61-.06-.2 0-.22.03-.22.22v1.4c0 .2.03.22.22.22.14 0 1.01-.06 3.61-.06h17.06c2.63 0 3.47.06 3.64.06.2 0 .22-.03.22-.22v-1.4c.01-.18-.02-.21-.21-.21m19.51-12h6.99c2.69 0 3.58.06 3.72.06.2 0 .22-.03.22-.25v-1.29c0-.2-.03-.22-.22-.22-.14 0-1.03.06-3.72.06h-7.52c.17-1.46.25-2.96.28-4.53.03-1.29.08-1.82.22-2.1.08-.2.17-.31.17-.53 0-.14-.11-.25-.39-.31-.56-.08-1.34-.14-1.99-.17.14.84.17 1.59.14 3.16-.03 1.59-.08 3.08-.22 4.48h-6.6c-2.69 0-3.58-.06-3.72-.06-.2 0-.22.03-.22.22v1.29c0 .22.03.25.22.25.14 0 1.03-.06 3.72-.06h6.4c-.31 2.01-.81 3.8-1.62 5.48-1.62 3.36-4.59 6.32-9.31 8.28.36.25.73.56 1.03.95.2.28.28.39.42.39.11 0 .22-.06.45-.14 4.31-2.15 7.1-4.81 9.03-8.78.67-1.4 1.17-2.99 1.54-4.73 1.82 6.01 5.87 10.88 10.71 13.42.2.11.34.17.42.17.14 0 .22-.11.39-.42.28-.45.64-.87 1.01-1.17-5.67-2.23-9.76-7.6-11.55-13.45m41.89 5.99c-.14 0-1.01.06-3.64.06h-7.44v-.34c0-.45 0-.76.03-.95 1.76-1.01 3.19-1.93 4.31-2.82.64-.53.89-.64 1.17-.73.17-.06.28-.17.28-.36 0-.2-.17-.48-.56-.87-.45-.45-.62-.59-.78-.59-.11 0-.2.03-.28.06-.08.03-.28.06-.73.06h-7.83c-2.63 0-3.5-.06-3.64-.06-.2 0-.22.03-.22.22v1.15c0 .2.03.22.22.22.14 0 1.01-.06 3.64-.06h7.52c-1.15.98-2.29 1.79-3.64 2.57-.42-.11-.89-.2-1.43-.28.14.7.2 1.54.2 2.77h-7.64c-2.63 0-3.5-.06-3.64-.06-.2 0-.22.03-.22.22v1.23c0 .2.03.22.22.22.14 0 1.01-.06 3.64-.06h7.64v4.84c0 .89-.42 1.09-1.23 1.09-1.15 0-1.93-.06-2.91-.17.25.34.45.87.59 1.29.14.56.14.53.67.53 2.6.06 3.3-.08 3.89-.45.56-.39.76-.84.76-1.82 0-.67-.03-1.82-.03-2.41v-2.91h7.44c2.63 0 3.5.06 3.64.06.2 0 .22-.03.22-.22v-1.23c.01-.18-.02-.2-.22-.2"/><path class="st0" d="M146.43 147.29c-2.71 0-3.69-.06-3.86-.06-.2 0-.22.03-.22.2s.06.59.06 1.54v.98c0 2.46-.06 2.82-.06 2.99 0 .2.03.22.22.22h1.29c.2 0 .22-.03.22-.22v-4.17h19.27v4.17c0 .2.03.22.22.22h1.26c.22 0 .25-.03.25-.22 0-.14-.06-.5-.06-2.99v-1.15c0-.78.06-1.23.06-1.37 0-.17-.03-.2-.25-.2-.14 0-1.12.06-3.86.06h-1.17c.7-1.03 1.17-1.87 1.68-2.82.14-.25.36-.53.53-.64.14-.08.2-.2.2-.31 0-.14-.08-.25-.31-.36a7.72 7.72 0 00-1.65-.59c-.08.53-.22.98-.36 1.29-.5 1.2-1.03 2.27-1.82 3.44h-11.64z"/><path class="st0" d="M147.43 146.84c.08 0 .17-.06.36-.14l.75-.36c.34-.17.36-.17.25-.36a21.94 21.94 0 00-2.1-3.13c-.14-.17-.22-.17-.53-.03l-.7.31c-.34.14-.36.22-.25.36.73.89 1.54 2.1 2.04 3.16.07.13.1.19.18.19m6.49-.48l.76-.28c.36-.17.39-.17.31-.36-.45-1.12-1.03-2.27-1.73-3.3-.11-.17-.2-.17-.48-.06l-.76.25c-.31.11-.39.17-.25.36.64 1.01 1.17 1.93 1.62 3.3.08.26.14.26.53.09m24.58-.33c-1.09-1.15-2.41-2.18-3.72-3.02-.17-.11-.25-.08-.45.14l-.62.64c-.25.25-.25.31-.08.42 1.15.73 2.6 1.99 3.72 3.22.17.17.22.14.45-.11l.62-.75c.22-.26.22-.37.08-.54m18.09 8.7c-.17 0-1.15.06-3.97.06h-4.81v-5.09h3.52c2.74 0 3.66.06 3.8.06.2 0 .22-.03.22-.22v-1.17c0-.2-.03-.22-.22-.22-.14 0-1.06.06-3.8.06h-3.52v-2.07c0-1.68.08-2.43.17-2.69.08-.22.14-.33.14-.5 0-.11-.14-.22-.34-.25-.62-.08-1.09-.11-1.82-.14.14.98.17 1.76.17 3.64v2.01h-2.41c-2.74 0-3.64-.06-3.78-.06-.2 0-.22.03-.22.22v1.17c0 .2.03.22.22.22.14 0 1.03-.06 3.78-.06h2.41v5.09h-3.72c-2.82 0-3.8-.06-3.97-.06-.2 0-.22.03-.22.22v1.17c0 .22.03.25.22.25.17 0 1.15-.06 3.97-.06h2.43c-.78 2.94-1.76 5.45-2.83 7.86l-1.01.08c-.81.06-1.71.08-2.85.08.11.59.28 1.2.45 1.76.06.2.2.36.36.36.17 0 .28-.11.45-.2.14-.08.36-.17 1.15-.25 4.7-.53 8.47-1.01 12.89-1.73.53.81 1.03 1.68 1.51 2.57.08.2.14.2.5-.06l.78-.5c.28-.2.28-.25.2-.42-1.59-2.68-3.19-4.92-5.17-7.08-.11-.11-.2-.11-.39.03l-.7.42c-.31.2-.34.28-.17.45.89 1.03 1.76 2.1 2.54 3.22-2.88.45-5.59.81-8.7 1.09.98-2.18 1.96-4.75 2.85-7.69h5.9c2.82 0 3.8.06 3.97.06.17 0 .2-.03.2-.25v-1.17c.02-.19-.01-.21-.18-.21m-20.24-.7l.67-.78c.17-.2.17-.25.03-.39-1.23-1.17-2.6-2.13-3.94-2.94-.17-.08-.28-.08-.45.14l-.59.7c-.2.22-.22.28-.03.39 1.26.78 2.69 1.87 3.83 3.08.17.16.2.13.48-.2m.78 4.28c-.39-.28-.67-.48-.95-.84-.78 2.77-1.68 5.01-2.55 6.71-.42.84-.73 1.4-1.26 2.07.5.39.87.64 1.34.92.2.11.31.14.42.14.11 0 .2-.14.22-.33.03-.25.22-.67.48-1.26.84-1.96 1.79-4.28 2.55-6.57.17-.56.17-.59-.25-.84m38.79-11.13c.03-.48.03-.95.03-1.45 0-.7.11-1.26.25-1.57.08-.2.17-.34.17-.56 0-.17-.17-.28-.39-.34-.62-.11-1.43-.2-2.1-.22.14.98.17 1.79.2 3.33.11 8.03-3.75 15.35-11.24 18.96.36.25.73.59 1.03 1.01.2.28.28.42.39.42.11 0 .22-.08.42-.2 5.68-3.22 9.48-8.36 10.66-15.38 1.03 5.62 4.06 11.35 10.4 15.41.2.14.31.2.42.2.11 0 .2-.11.36-.39.25-.45.59-.84.98-1.15-7.33-4.15-10.47-10.55-11.58-18.07m50.22 11.94c0-.22-.03-.25-.22-.25-.17 0-1.15.06-3.97.06h-5.9c.42-.92.78-1.9 1.15-3.08h2.63c2.63 0 3.55.06 3.69.06.2 0 .22-.03.22-.22 0-.14-.06-.62-.06-2.07v-2.07c0-1.43.06-1.9.06-2.04 0-.2-.03-.22-.22-.22-.14 0-1.06.06-3.69.06h-6.24c-2.63 0-3.52-.06-3.69-.06-.2 0-.22.03-.22.22 0 .14.06.62.06 2.04v2.07c0 1.45-.06 1.93-.06 2.07 0 .2.03.22.22.22.17 0 1.06-.06 3.69-.06h1.85c-.28.95-.7 2.04-1.17 3.08h-2.71c-2.85 0-3.86-.06-4-.06-.2 0-.22.03-.22.25 0 .14.06.73.06 2.41v1.65c0 3.41-.06 3.94-.06 4.11s.03.2.22.2h1.32c.17 0 .2-.03.2-.2v-1.17h15.35v1.06c0 .17.03.2.22.2h1.29c.2 0 .22-.03.22-.2s-.06-.7-.06-4.08v-1.87c-.02-1.39.04-1.97.04-2.11m-14.8-8.42h10.71v3.8h-10.71v-3.8zm13.06 13.95h-15.35v-4.31h15.35v4.31z"/><path class="st0" d="M268.01 145.55c0-.2-.03-.22-.22-.22-.17 0-1.12.06-3.86.06h-6.6V145c0-1.26.03-1.68.14-1.96.06-.2.14-.31.14-.5 0-.11-.11-.22-.34-.25-.53-.06-1.15-.08-1.82-.11.17.67.2 1.4.2 2.85v.36h-6.13c-2.74 0-3.69-.06-3.86-.06-.2 0-.22.03-.22.22 0 .14.06.56.06 1.51v.95c0 2.49-.06 2.83-.06 2.96 0 .2.03.22.22.22h1.29c.2 0 .22-.03.22-.22v-4.11h19.1v4.11c0 .2.03.22.22.22h1.29c.2 0 .22-.03.22-.22 0-.14-.06-.5-.06-2.96v-1.12c.02-.78.07-1.2.07-1.34m29.45.87c.08 0 .17-.06.34-.17l.53-.36c.34-.22.36-.28.25-.45-.64-.92-1.31-1.73-2.1-2.43-.17-.17-.17-.2-.48 0l-.56.34c-.34.2-.36.25-.2.39.73.7 1.43 1.57 2.01 2.49.09.11.12.19.21.19m-15.16 12.84c0-.39.03-.76.11-1.06-.84.48-1.71.89-2.57 1.26v-8.11h.2c1.76 0 2.27.06 2.43.06.2 0 .22-.03.22-.22V150c0-.2-.03-.22-.22-.22-.17 0-.67.06-2.43.06h-.2v-3.36c0-1.87.08-2.57.17-2.91.08-.2.14-.34.14-.48 0-.14-.14-.22-.34-.25-.53-.08-1.09-.14-1.82-.17.2 1.09.22 1.87.22 3.86v3.3h-.45c-1.79 0-2.29-.06-2.43-.06-.2 0-.22.03-.22.22v1.17c0 .2.03.22.22.22.14 0 .64-.06 2.43-.06h.45v8.75l-1.12.36c-.87.28-1.45.39-2.24.5.14.56.31 1.09.48 1.54.08.2.2.31.31.31.14 0 .25-.11.36-.2.11-.08.36-.22.95-.45 1.65-.59 3.38-1.32 4.84-2.1.51-.24.51-.19.51-.77"/><path class="st0" d="M300.06 161.63c-.34-.17-.73-.39-.98-.7-.17 2.41-.39 3.89-.92 3.89-.67 0-1.96-1.4-2.96-4.59.98-1.65 1.82-3.58 2.55-5.99.28-.95.39-1.32.59-1.57.14-.2.22-.31.22-.45 0-.17-.11-.31-.34-.39-.45-.2-.89-.34-1.51-.5-.08.92-.25 1.79-.5 2.71-.45 1.57-.95 2.96-1.59 4.19-.73-2.8-1.12-5.87-1.29-9.54h2.32c2.74 0 3.66.06 3.83.06.2 0 .22-.03.22-.22v-1.17c0-.2-.03-.2-.22-.2-.17 0-1.09.03-3.83.03h-2.38v-1.9c0-1.34.08-1.82.17-2.01.08-.2.14-.36.14-.53 0-.11-.08-.22-.36-.28-.59-.11-1.12-.17-1.73-.2.14 1.03.17 2.32.17 3.44 0 .5 0 1.01.03 1.48h-3.97c-2.74 0-3.72-.03-3.86-.03-.2 0-.22 0-.22.2 0 .17.06 1.01.06 3.16 0 2.94-.03 5.51-.42 8-.5 3.1-1.93 5.73-3.72 7.61.36.14.76.36 1.09.64.2.17.28.28.39.28.08 0 .17-.11.31-.34 1.57-2.01 2.99-4.81 3.47-7.61.28-1.71.42-3.33.48-5.06h3.5c0 2.38-.25 4.73-.45 5.54-.22.73-.5.92-1.09.92-.56 0-1.12-.08-1.96-.22.17.39.25.75.31 1.17.06.53.08.53.45.59.5.06 1.01.06 1.62.06.9 0 1.76-.48 1.99-1.4.36-1.2.62-3.24.7-6.24.03-.5.03-1.03.08-1.71 0-.2-.06-.25-.25-.25-.17 0-.5.06-1.85.06h-3.02v-3.86h6.43c.2 4.08.73 8.05 1.79 11.38-1.76 2.57-4.17 4.36-7.24 5.79.34.17.67.45.92.76.2.22.28.34.42.34.08 0 .22-.08.45-.2 2.52-1.34 4.47-2.88 6.04-4.95 1.31 3.47 2.88 4.95 4.08 4.95 1.23 0 1.93-.95 2.27-4.36.01-.52.01-.55-.43-.78m19.09-9.73h6.99c2.69 0 3.58.06 3.72.06.2 0 .22-.03.22-.25v-1.29c0-.2-.03-.22-.22-.22-.14 0-1.03.06-3.72.06h-7.52c.17-1.46.25-2.96.28-4.53.03-1.29.08-1.82.22-2.1.08-.2.17-.31.17-.53 0-.14-.11-.25-.39-.31-.56-.08-1.34-.14-1.99-.17.14.84.17 1.59.14 3.16-.03 1.59-.08 3.08-.22 4.48h-6.6c-2.68 0-3.58-.06-3.72-.06-.2 0-.22.03-.22.22v1.29c0 .22.03.25.22.25.14 0 1.04-.06 3.72-.06h6.4c-.31 2.01-.81 3.8-1.62 5.48-1.62 3.36-4.59 6.32-9.31 8.28.36.25.73.56 1.04.95.2.28.28.39.42.39.11 0 .22-.06.45-.14 4.31-2.15 7.1-4.81 9.03-8.78.67-1.4 1.18-2.99 1.54-4.73 1.82 6.01 5.87 10.88 10.71 13.42.2.11.34.17.42.17.14 0 .22-.11.39-.42.28-.45.64-.87 1.01-1.17-5.68-2.23-9.77-7.6-11.56-13.45m23.6-5.06c.08 0 .17-.06.36-.14l.76-.36c.33-.17.36-.17.25-.36a21.94 21.94 0 00-2.1-3.13c-.14-.17-.22-.17-.53-.03l-.7.31c-.34.14-.36.22-.25.36.73.89 1.54 2.1 2.04 3.16.06.13.09.19.17.19"/><path class="st0" d="M337.66 152.94c0 .2.03.22.22.22h1.29c.2 0 .22-.03.22-.22v-4.17h19.27v4.17c0 .2.03.22.22.22h1.26c.22 0 .25-.03.25-.22 0-.14-.06-.5-.06-2.99v-1.15c0-.78.06-1.23.06-1.37 0-.17-.03-.2-.25-.2-.14 0-1.12.06-3.86.06h-1.18c.7-1.03 1.18-1.87 1.68-2.82.14-.25.36-.53.53-.64.14-.08.2-.2.2-.31 0-.14-.08-.25-.31-.36a7.72 7.72 0 00-1.65-.59c-.08.53-.22.98-.36 1.29-.5 1.2-1.04 2.27-1.82 3.44h-11.63c-2.71 0-3.69-.06-3.86-.06-.2 0-.22.03-.22.2s.06.59.06 1.54v.98c0 2.44-.06 2.81-.06 2.98"/><path class="st0" d="M349.24 146.36l.75-.28c.36-.17.39-.17.31-.36-.45-1.12-1.03-2.27-1.73-3.3-.11-.17-.2-.17-.48-.06l-.75.25c-.31.11-.39.17-.25.36.64 1.01 1.17 1.93 1.62 3.3.08.26.14.26.53.09m11.8 11.53c-.14 0-1.01.06-3.64.06h-7.44v-.34c0-.45 0-.76.03-.95 1.76-1.01 3.19-1.93 4.31-2.82.64-.53.89-.64 1.17-.73.17-.06.28-.17.28-.36 0-.2-.17-.48-.56-.87-.45-.45-.62-.59-.78-.59-.11 0-.2.03-.28.06-.08.03-.28.06-.73.06h-7.83c-2.63 0-3.5-.06-3.64-.06-.2 0-.22.03-.22.22v1.15c0 .2.03.22.22.22.14 0 1.01-.06 3.64-.06h7.52c-1.15.98-2.29 1.79-3.64 2.57-.42-.11-.9-.2-1.43-.28.14.7.2 1.54.2 2.77h-7.64c-2.63 0-3.5-.06-3.64-.06-.2 0-.22.03-.22.22v1.23c0 .2.03.22.22.22.14 0 1.01-.06 3.64-.06h7.64v4.84c0 .89-.42 1.09-1.23 1.09-1.15 0-1.93-.06-2.91-.17.25.34.45.87.59 1.29.14.56.14.53.67.53 2.6.06 3.3-.08 3.89-.45.56-.39.75-.84.75-1.82 0-.67-.03-1.82-.03-2.41v-2.91h7.44c2.63 0 3.5.06 3.64.06.2 0 .22-.03.22-.22v-1.23c.02-.18-.01-.2-.21-.2M82.2 130.83c-11.43 0-13.77-4.13-13.77-15.97V46.59h.27l28.22 88.92h4.82l29.32-89.48h.28v75.71c0 6.61-2.34 9.09-12.39 9.09v4.68h39.92v-4.68c-11.15 0-13.49-2.48-13.49-9.09V54.57c0-6.61 2.34-9.08 12.25-9.08v-4.68h-30.42l-22.99 70.48h-.28L81.51 40.81H49.16v4.68c11.15 0 13.49 2.48 13.49 9.08v60.29c0 11.84-2.34 15.97-13.49 15.97v4.68H82.2v-4.68zm158.55-72.26c5.09-9.64 6.88-13.08 16.79-13.08v-4.68h-31.52v4.68c8.67 0 11.7 1.65 11.7 4.54 0 7.02-16.38 32.62-19 38.41-2.34-6.19-18.45-33.59-18.45-38.27 0-3.3 3.3-4.68 11.56-4.68v-4.68h-39.09v4.68c7.16 0 9.77 1.1 13.49 8.4l21.06 41.43v26.43c0 6.61-2.34 9.08-14.32 9.08v4.68h43.22v-4.68c-12.53 0-14.87-2.48-14.87-9.08V95.32l19.43-36.75zm93.31-17.76v4.68c13.35 0 14.73 5.78 14.73 13.21v46.53c0 15.42-7.57 27.25-27.67 27.25-15.14 0-22.44-7.98-22.44-22.71v-55.2c0-6.61 2.34-9.08 13.21-9.08v-4.68h-40.47v4.68c10.87 0 13.22 2.48 13.22 9.08v54.79c0 19.27 13.63 27.81 34.83 27.81 19.82 0 34.28-11.01 34.28-30.84V58.7c0-7.43 1.38-13.21 13.49-13.21v-4.68h-33.18zm150.73 30.13v24.64h-6.01l-1.4-5.67c-3.07 4.81-6.88 6.68-13.35 6.68-12.62 0-20.36-8.75-20.36-22.97 0-14.29 8.55-23.57 21.63-23.57 9.75 0 17.09 5.54 19.16 14.49l-9.68.6c-1.07-4.14-4.54-6.61-9.41-6.61-7.21 0-11.68 5.47-11.68 14.42 0 9.61 4.34 15.36 11.62 15.36 5.67 0 9.95-3.54 10.95-9.15h-10.88v-8.21h19.41zm15.95-7.61l-.27 5.74c1.87-5.21 4.27-6.68 11.15-6.61v8.95c-1.13-.13-1.6-.13-2.4-.13-3.27 0-5.94 1.47-7.01 3.87-.93 2.14-1.27 5.14-1.27 11.35v9.08h-9.48V63.33h9.28zm17.49 10.15c.6-7.41 5.21-11.02 14.29-11.02 4.87 0 8.61 1.13 11.15 3.34 2.34 2.07 3.2 4.67 3.2 9.41v14.82c0 3.47.13 3.94 1.2 5.54h-9.68c-.4-1.13-.4-1.34-.73-2.54-3.14 2.6-5.41 3.4-9.21 3.4-7.14 0-11.88-4.01-11.88-10.08 0-6.08 3.81-9.21 12.82-10.68l5.14-.87c2.14-.33 2.87-.87 2.87-2.2 0-1.8-1.87-2.94-4.94-2.94-3.47 0-5.34 1.2-5.74 3.81h-8.49zm19.42 6.74c-1 .4-1.87.67-3.47 1l-3.4.73c-3.4.8-4.87 1.94-4.87 3.87 0 2.14 1.8 3.4 4.81 3.4 3.14 0 5.41-1.34 6.94-4.07v-4.93zm46.8 15.36h-9.08v-3.47c-2.4 3.14-4.94 4.34-8.88 4.34-8.48 0-14.15-6.74-14.15-16.96 0-10.28 5.74-17.09 14.42-17.09 3.47 0 5.94 1 8.21 3.34V51.05h9.48v44.53zm-22.77-16.16c0 5.67 2.67 9.35 6.81 9.35 4.07 0 6.81-3.74 6.81-9.21 0-5.74-2.67-9.48-6.81-9.48-4.13 0-6.81 3.67-6.81 9.34zm61.62 16.16h-9.01v-3.54c-2.27 3.2-4.61 4.41-8.55 4.41-3.34 0-6.41-1.2-8.55-3.34-2.2-2.2-3.07-4.94-3.07-9.55V63.33h9.48v18.16c0 3.14.13 3.94 1 5.07.87 1.2 2.4 1.87 4.14 1.87 1.74 0 3.2-.67 4.07-1.87.87-1.13 1-1.87 1-5.07V63.33h9.48v32.25zm8.48-22.1c.6-7.41 5.21-11.02 14.29-11.02 4.87 0 8.61 1.13 11.15 3.34 2.34 2.07 3.2 4.67 3.2 9.41v14.82c0 3.47.13 3.94 1.2 5.54h-9.68c-.4-1.13-.4-1.34-.73-2.54-3.14 2.6-5.41 3.4-9.21 3.4-7.14 0-11.88-4.01-11.88-10.08 0-6.08 3.81-9.21 12.82-10.68l5.14-.87c2.14-.33 2.87-.87 2.87-2.2 0-1.8-1.87-2.94-4.94-2.94-3.47 0-5.34 1.2-5.74 3.81h-8.49zm19.42 6.74c-1 .4-1.87.67-3.47 1l-3.4.73c-3.4.8-4.87 1.94-4.87 3.87 0 2.14 1.8 3.4 4.81 3.4 3.14 0 5.41-1.34 6.94-4.07v-4.93zm36.65-9.81h-5.81v12.55c0 5.07.2 5.47 2.4 5.47h3.4v7.14h-5.81c-4.14 0-6.21-.6-7.61-2.14-1.47-1.6-1.87-3.34-1.87-8.35V70.41h-4.54v-6.68h4.54V53.52h9.48v10.21h5.81v6.68zm21.63-11.55H700v-7.81h9.48v7.81zm0 36.72H700V63.33h9.48v32.25zm40.99-15.89c0 9.75-7.21 16.76-17.16 16.76-10.01 0-17.09-7.01-17.09-17.02 0-9.95 7.08-16.96 17.09-16.96 10.22 0 17.16 6.94 17.16 17.22zm-24.7-.27c0 6.08 2.74 9.48 7.61 9.48 4.74 0 7.54-3.4 7.54-9.28 0-6.21-2.67-9.61-7.61-9.61-4.8 0-7.54 3.4-7.54 9.41zm40.65-16.09v3.14c3.47-3.2 5.47-4.07 8.81-4.07 7.01 0 11.28 4.67 11.28 12.28v20.9h-9.48V78.02c0-3.27-.2-4.54-1-5.74-.8-1.2-2.2-1.87-3.87-1.87-1.6 0-3.07.6-4.07 1.74-1.07 1.2-1.4 2.54-1.4 5.34v18.09h-9.48V63.33h9.21zM452.81 164.02l-12.02-44.53h9.95l4.81 19.96c.87 3.74 1.34 5.81 2.47 11.08.73-5.07 1.2-7.74 1.87-11.08l4.21-19.96h9.61l4.14 20.3c.87 4.41 1.34 6.81 1.94 10.75.4-1.94 1.13-5.54 2.27-10.75l4.94-20.3h9.95l-12.42 44.53h-9.35l-4.07-18.56c-1-4.61-1.94-9.41-2.2-11.55-.87 4.81-1.4 7.68-2.27 11.55l-4.21 18.56h-9.62zm79.64-15.89c0 9.75-7.21 16.76-17.16 16.76-10.01 0-17.09-7.01-17.09-17.02 0-9.95 7.08-16.96 17.09-16.96 10.21 0 17.16 6.94 17.16 17.22zm-24.7-.26c0 6.08 2.74 9.48 7.61 9.48 4.74 0 7.54-3.4 7.54-9.28 0-6.21-2.67-9.61-7.61-9.61-4.81-.01-7.54 3.4-7.54 9.41zm40.72-16.09l-.27 5.74c1.87-5.21 4.27-6.68 11.15-6.61v8.95c-1.13-.13-1.6-.13-2.4-.13-3.27 0-5.94 1.47-7.01 3.87-.93 2.14-1.27 5.14-1.27 11.35v9.08h-9.48v-32.25h9.28zm50.93 32.24h-11.62l-8.01-13.75-3.07 3v10.75h-9.48v-44.53h9.48v23.37l9.88-11.08h11.75l-12.28 12.28 13.35 19.96zm21.77-22.56c-.4-2.4-2.34-3.67-5.47-3.67-2.74 0-4.54 1.07-4.54 2.67 0 1.2.93 1.8 3.94 2.47l5.94 1.27c3.94.8 5.94 1.67 7.34 3.14 1.54 1.47 2.4 3.87 2.4 6.48 0 6.81-5.54 11.08-14.49 11.08s-14.49-4.21-15.02-11.35h8.88c.53 3.07 2.54 4.47 6.34 4.47 3 0 4.94-1.2 4.94-3.14 0-1.54-1.07-2.34-3.61-2.94l-5.88-1.34c-7.08-1.54-9.81-4.14-9.81-9.28 0-6.48 5.14-10.42 13.75-10.42 8.28 0 13.29 3.74 14.15 10.55h-8.86zm69.76-13.42h-23.17v8.68h20.23v7.88h-20.23v10.88h23.57v8.55h-33.58V119.5h33.18v8.54zm38.05 35.98h-11.02l-6.08-9.21-5.94 9.21h-10.82l11.55-16.89-10.55-15.35h10.55l5.27 8.14 5.07-8.14h10.55l-10.48 15.35 11.9 16.89zm16.22-29.51c2.67-2.54 5.21-3.61 8.55-3.61 3.27 0 6.21 1.2 8.28 3.47 2.07 2.27 2.87 5.01 2.87 9.81v19.83h-9.48v-18.09c0-3-.27-4.21-1.07-5.34-.8-1.07-2.14-1.67-3.74-1.67s-3.14.6-4.14 1.6c-1.07 1.13-1.27 2.07-1.27 5.41v18.09h-9.48v-44.53h9.48v15.03zm37.51-7.21h-9.48v-7.81h9.48v7.81zm0 36.72h-9.48v-32.25h9.48v32.25zm7.01-44.53h9.48v14.55c3.07-2.27 5.61-3.14 8.88-3.14 8.21 0 13.75 6.68 13.75 16.56 0 10.15-5.94 17.42-14.22 17.42-4.01 0-6.28-1.2-8.81-4.54v3.67h-9.08v-44.52zm9.08 28.38c0 5.61 2.74 9.35 6.88 9.35s6.81-3.61 6.81-9.21c0-5.81-2.6-9.41-6.81-9.41-4.14-.01-6.88 3.73-6.88 9.27zm39.25-20.57h-9.48v-7.81h9.48v7.81zm0 36.72h-9.48v-32.25h9.48v32.25zm27.24-22.56c-.4-2.4-2.34-3.67-5.47-3.67-2.74 0-4.54 1.07-4.54 2.67 0 1.2.93 1.8 3.94 2.47l5.94 1.27c3.94.8 5.94 1.67 7.34 3.14 1.54 1.47 2.4 3.87 2.4 6.48 0 6.81-5.54 11.08-14.49 11.08s-14.49-4.21-15.02-11.35h8.88c.53 3.07 2.54 4.47 6.34 4.47 3 0 4.94-1.2 4.94-3.14 0-1.54-1.07-2.34-3.61-2.94l-5.88-1.34c-7.08-1.54-9.81-4.14-9.81-9.28 0-6.48 5.14-10.42 13.75-10.42 8.28 0 13.29 3.74 14.15 10.55h-8.86zm26.83-14.16h-9.48v-7.81h9.48v7.81zm0 36.72h-9.48v-32.25h9.48v32.25zm40.99-15.89c0 9.75-7.21 16.76-17.16 16.76-10.01 0-17.09-7.01-17.09-17.02 0-9.95 7.08-16.96 17.09-16.96 10.22 0 17.16 6.94 17.16 17.22zm-24.7-.26c0 6.08 2.74 9.48 7.61 9.48 4.74 0 7.54-3.4 7.54-9.28 0-6.21-2.67-9.61-7.61-9.61-4.8-.01-7.54 3.4-7.54 9.41zm40.66-16.09v3.14c3.47-3.2 5.47-4.07 8.81-4.07 7.01 0 11.28 4.67 11.28 12.28v20.9h-9.48v-17.56c0-3.27-.2-4.54-1-5.74-.8-1.2-2.2-1.87-3.87-1.87-1.6 0-3.07.6-4.07 1.74-1.07 1.2-1.4 2.54-1.4 5.34v18.09h-9.48v-32.25h9.21zM76.23 327.94H65.98v-4.19h10.25v-10.91h4.44v10.91h10.25v4.19H80.68v10.91h-4.44v-10.91zm74.4-6.87c3.43 10.51 9.8 19.04 19.34 23.03-1.16 1.01-2.73 2.98-3.49 4.4-9.44-4.4-15.56-12.58-19.5-23.28-2.58 9.14-8.03 17.88-19.5 23.28-.76-1.26-2.27-2.93-3.59-3.94 12.02-5.25 16.92-14.34 18.94-23.49H124.9v-4.85h18.79c.61-5.05.56-9.9.61-13.94h5.1c-.05 4.09-.1 8.94-.71 13.94h20.35v4.85h-18.41zM222 334.86h-19.9v8.44c0 2.58-.66 3.89-2.73 4.6-2.07.66-5.05.71-9.44.71-.35-1.31-1.26-3.23-1.97-4.55 3.54.15 7.07.15 8.08.1 1.01-.05 1.26-.25 1.26-1.01v-8.28h-19.7v-4.34h19.7v-3.49h2.37c1.97-1.06 3.99-2.42 5.71-3.79h-19.19v-4.09h23.69l1.01-.25 3.03 2.27c-3.03 3.23-7.48 6.46-11.82 8.69v.66H222v4.33zm-39.14-12.88h-4.39v-11.57h7.27c-.91-1.82-2.47-4.09-3.94-5.81l4.04-1.82c1.82 2.02 3.84 4.85 4.7 6.77l-1.82.86h9.34c-.71-2.02-2.17-4.8-3.54-6.92l4.09-1.51c1.72 2.27 3.43 5.46 4.09 7.47l-2.47.96h8.54c1.77-2.32 3.74-5.51 4.9-7.88l4.95 1.57a86.896 86.896 0 01-4.7 6.31h7.32v11.57h-4.65v-7.42h-33.74v7.42zm62.37-16.01c-1.41 4.24-3.18 9.49-4.8 13.43 3.43 3.99 4.19 7.48 4.19 10.5 0 2.88-.61 5-2.07 6.01-.76.51-1.72.86-2.73 1.01-.96.1-2.17.1-3.33.05-.05-1.16-.4-2.93-1.11-4.04 1.06.1 1.92.1 2.58.05.61 0 1.11-.15 1.57-.45.71-.51.91-1.72.91-3.18 0-2.52-.81-5.81-4.09-9.44 1.26-3.38 2.58-7.88 3.54-11.31h-5.4v40h-4.14v-44.24h11.11l.71-.15 3.06 1.76zm24.25 37.83c.91 0 1.11-.81 1.21-6.06.91.76 2.78 1.46 3.99 1.77-.4 6.72-1.57 8.49-4.7 8.49h-3.94c-3.84 0-4.75-1.36-4.75-5.66v-12.32h-4.85c-.71 9.34-2.78 15.3-12.27 18.59-.4-1.11-1.62-2.88-2.58-3.64 8.13-2.63 9.85-7.32 10.35-14.95h-6.16v-4.29h28.18v4.29h-8.23v12.27c0 1.36.15 1.52 1.06 1.52h2.69zm-12.63-35.91v-5.51h4.55v5.51h12.58v9.44h-3.99v3.59h-20.91v-3.59h-3.84v-9.44h11.61zm12.78 4.04h-20.2v4.9h20.2v-4.9zm56.52 22.53h-5.25v8.84h-4.75v-2.17h-10.76v2.63c0 2.58-.66 3.64-2.37 4.29-1.72.61-4.34.66-8.59.66-.25-1.06-.96-2.78-1.62-3.79 2.78.1 5.81.1 6.62.05.91-.05 1.21-.3 1.21-1.16v-2.68h-15.76v-3.54h15.76v-3.13h-20.2v-3.69h20.2v-2.88h-15.3v-3.33h15.3v-2.98h-13.99v-9.29h13.99v-2.58H281.5v-3.79h19.14v-3.69h4.75v3.69h19.7v3.79h-19.7v2.58h14.7v9.29h-14.7v2.98h15.51v6.21h5.25v3.69zm-25.51-16.01v-3.03h-9.5v3.03h9.5zm4.75-3.03v3.03h9.95v-3.03h-9.95zm0 15.35h10.76v-2.88h-10.76v2.88zm10.76 3.69h-10.76v3.13h10.76v-3.13zm45.15 2.42c4.44 3.13 10.96 5.71 17.12 6.87-1.06 1.01-2.42 2.93-3.13 4.19-6.57-1.77-13.33-5.15-18.08-9.5v10.15h-4.6v-9.8c-4.8 4.04-11.62 7.32-17.93 9.09-.71-1.21-2.02-2.98-3.08-3.99 6.01-1.26 12.58-3.89 17.02-7.02h-15.61v-3.94h19.6v-3.08h-14.9v-3.53h14.9v-3.03h-17.37v-3.74h10.35c-.45-1.41-1.31-3.23-2.12-4.6l1.21-.2h-11.46v-3.94h7.47c-.76-1.97-2.27-4.75-3.69-6.82l4.09-1.36c1.57 2.17 3.33 5.25 4.04 7.22l-2.58.96h5.56v-8.64h4.39v8.64h5v-8.64h4.44v8.64h5.45l-1.92-.61c1.21-2.02 2.78-5.2 3.54-7.48l4.85 1.21c-1.36 2.48-2.88 5-4.19 6.87h7.27v3.94h-9.75c-.96 1.72-1.97 3.38-2.83 4.8h10.71v3.74h-17.88v3.03h15.51v3.53h-15.51v3.08h19.9v3.94H361.3zm-12.98-22.12c.91 1.47 1.82 3.28 2.17 4.49l-1.46.3h10.66c.76-1.36 1.57-3.18 2.22-4.8h-13.59zm50.26 17.83c-.66-1.62-2.12-4.39-3.43-6.77v22.73h-4.34v-21.36c-1.52 4.8-3.38 9.24-5.4 12.12-.45-1.26-1.57-3.03-2.22-4.04 2.98-4.14 5.86-11.62 7.22-18.03h-6.16v-4.34h6.57v-10.66h4.34v10.66h5.4v4.34h-5.4v2.98c1.41 1.87 5.15 7.58 5.96 8.94l-2.54 3.43zm31.81 7.93h-2.98v3.33c0 2.12-.45 3.18-1.92 3.89-1.46.56-3.74.61-6.97.61-.2-1.11-.76-2.73-1.26-3.79 2.12.1 4.29.1 4.95.05.61 0 .81-.2.81-.81v-3.28h-15.81v7.83h-4.29v-7.83h-3.23v-3.53h3.23v-12.63h9.9v-2.47h-12.27v-3.49h6.62v-2.83h-4.44v-3.28h4.44v-2.78h-5.51v-3.38h5.51v-3.89h4.39v3.89h6.92v-3.89h4.39v3.89h6.01v3.38h-6.01v2.78h5.25v3.28h-5.25v2.83h7.02v3.49h-12.83v2.47h10.35v12.63h2.98v3.53zm-23.18-12.78v2.88h5.61v-2.88h-5.61zm0 9.25h5.61v-3.13h-5.61v3.13zm4.35-24.7h6.92v-2.78h-6.92v2.78zm0 6.11h6.92v-2.83h-6.92v2.83zm5.5 9.34v2.88h5.96v-2.88h-5.96zm5.96 9.25v-3.13h-5.96v3.13h5.96zm22.93-5.11v-11.82c-1.97 3.64-4.39 6.92-6.87 9.04-.71-1.06-2.12-2.53-3.08-3.33 3.54-2.53 7.07-7.37 9.19-12.17h-7.98v-3.99h8.74v-7.22h4.44v7.22h7.58v3.99h-7.58v2.42c1.92 1.16 6.92 4.8 8.23 5.76l-2.53 3.84c-1.21-1.26-3.64-3.48-5.71-5.25v11.46l-4.43.05zm-9.39 11.92c1.97-2.68 3.64-6.87 4.6-10.35l4.14 1.67c-1.01 3.48-2.63 7.98-4.5 10.81l-4.24-2.13zm28.79-.45c2.37 0 2.73-.71 3.03-5.76 1.01.76 2.93 1.41 4.24 1.72-.66 6.67-1.97 8.23-6.92 8.23h-9.85c-6.06 0-7.63-1.26-7.63-5.71v-7.53h4.65v7.47c0 1.36.51 1.57 3.38 1.57h9.1zm-7.02-12.88c2.27 2.12 5.35 5.1 6.92 6.92l-3.43 2.88c-1.41-1.87-4.44-5-6.72-7.27l3.23-2.53zm21.66.81h-19.95v-26.42h19.95v26.42zm-4.49-22.63h-11.16v3.84h11.16v-3.84zm0 7.42h-11.16v3.94h11.16v-3.94zm0 7.48h-11.16v3.99h11.16v-3.99zm.96 9.14c2.07 3.13 4.85 7.42 6.16 10l-4.34 2.22c-1.21-2.63-3.89-7.07-5.91-10.3l4.09-1.92zm56.16 2.17h-19.9v8.44c0 2.58-.66 3.89-2.73 4.6-2.07.66-5.05.71-9.44.71-.35-1.31-1.26-3.23-1.97-4.55 3.54.15 7.07.15 8.08.1 1.01-.05 1.26-.25 1.26-1.01v-8.28h-19.7v-4.34h19.7v-3.49h2.37c1.97-1.06 3.99-2.42 5.71-3.79h-19.19v-4.09h23.69l1.01-.25 3.03 2.27c-3.03 3.23-7.48 6.46-11.82 8.69v.66h19.9v4.33zm-39.14-12.88h-4.39v-11.57h7.27c-.91-1.82-2.47-4.09-3.94-5.81l4.04-1.82c1.82 2.02 3.84 4.85 4.7 6.77l-1.82.86h9.34c-.71-2.02-2.17-4.8-3.54-6.92l4.09-1.51c1.72 2.27 3.43 5.46 4.09 7.47l-2.47.96h8.54c1.77-2.32 3.74-5.51 4.9-7.88l4.95 1.57a86.896 86.896 0 01-4.7 6.31h7.32v11.57h-4.65v-7.42h-33.74v7.42zm45.96-17.17h17.88v4.24h-7.58c-.76 3.84-1.72 7.58-2.93 11.11h9.75v22.22h-9.9v3.89h-3.94V329.2c-.76 1.26-1.52 2.42-2.37 3.49-.2-1.21-1.16-4.04-1.87-5.3 3.33-4.5 5.51-11.16 6.82-18.33h-5.86v-4.25zm13.08 19.55h-5.86v13.89h5.86v-13.89zm32.73 2.88h-5.45v21.36h-4.5v-21.36h-7.17c-.25 7.58-1.57 15.96-7.02 21.62-.81-.76-2.53-2.12-3.59-2.73 4.8-5 5.96-12.42 6.21-18.89h-5.2v-4.44h5.25v-13.54h-3.89v-4.4h24.34v4.4h-4.44v13.54h5.45v4.44zm-9.95-4.45v-13.54h-7.12v13.54h7.12zm56.87 20.86c1.26 0 1.46-.86 1.67-7.32 1.01.86 3.13 1.67 4.44 2.02-.45 7.88-1.72 9.9-5.56 9.9h-4.9c-4.34 0-5.61-1.36-5.61-6.21v-9.09h-8.49c-1.06 5.91-5.15 12.12-18.69 15.81-.71-1.11-2.07-2.83-3.18-3.84 11.67-3.08 15.66-7.68 16.92-11.97h-13.33v-4.39h13.89v-5.81h4.7v5.81h13.08v13.43c0 1.46.25 1.67 1.46 1.67h3.6zm-20.91-32.73c-1.06 8.03-4.09 12.73-16.06 15.2-.4-1.11-1.52-2.93-2.47-3.79 10.4-1.82 12.78-5.3 13.64-11.41h-8.03v5.3h-4.7v-9.5h18.89v-4.55h4.8v4.55h19.24v9.04h-4.95v-4.85h-8.89v7.93c0 1.31.25 1.47 1.92 1.47h5.3c1.31 0 1.57-.45 1.72-3.64.96.71 2.88 1.41 4.14 1.62-.51 4.9-1.77 6.16-5.3 6.16h-6.46c-4.85 0-5.96-1.26-5.96-5.56v-7.98h-6.83zm50.92 22.23c-.71-1.52-2.42-4.34-3.94-6.67v22.07h-4.55V328.1c-1.87 4.6-4.14 8.89-6.46 11.77-.45-1.26-1.57-3.18-2.27-4.34 2.98-3.44 6.21-9.44 8.08-14.8h-7.42v-4.39h8.08v-6.77c-2.17.4-4.34.71-6.36 1.01-.15-1.01-.81-2.68-1.31-3.64 5.66-.91 12.12-2.37 16.06-4.09l2.68 3.84c-1.92.76-4.14 1.36-6.52 1.92v7.73h7.07v4.39h-7.07v.71c1.52 1.57 5.81 6.72 6.77 8.03l-2.84 3.68zm23.68 2.47v12.93h-4.65v-12.12l-15.91 2.68-.71-4.49 16.62-2.78v-29.6h4.65v28.84l5.51-.91.71 4.39-6.22 1.06zm-11.01-6.82c-1.67-2.17-5.35-5.4-8.43-7.53l2.98-2.73c3.03 2.02 6.87 5.05 8.64 7.17l-3.19 3.09zm1.27-13.28c-1.52-2.12-4.95-5.2-7.83-7.32l3.08-2.68c2.88 1.97 6.36 4.9 8.03 7.02l-3.28 2.98zm49.44-11.82c-1.11 3.28-2.42 6.62-3.89 9.85v35h-4.44v-26.77c-1.31 2.07-2.63 3.94-4.04 5.61-.4-1.16-1.67-3.79-2.37-4.95 4.19-4.9 8.08-12.37 10.4-19.95l4.34 1.21zm28.19 7.63a28.356 28.356 0 01-6.26 8.08c3.28 1.77 7.22 3.13 11.82 3.94-.81.96-2.02 2.68-2.58 3.84-4.95-1.11-9.14-2.98-12.63-5.2-3.54 2.42-7.68 4.24-12.17 5.61-.45-.86-1.62-2.37-2.47-3.33v16.01h-4.09v-31.92h4.09v6.72c3.64-3.23 6.82-7.93 8.64-12.88l4.29 1.06c-.56 1.46-1.21 2.88-1.97 4.29h17.27v3.79h-3.94zm-24.3 12.52c4.14-1.01 7.93-2.47 11.16-4.44a28.542 28.542 0 01-4.65-4.95 35.233 35.233 0 01-3.74 3.99c-.61-.56-1.82-1.52-2.78-2.22v7.62zm28.44 13.19c-5.05 5.96-14.24 9.44-24.7 11.31-.51-1.11-1.52-2.73-2.42-3.69 9.75-1.41 18.69-4.34 23.08-9.29l4.04 1.67zm-9.55-10.51c-3.13 3.13-8.18 5.66-12.88 7.17-.61-.81-1.67-2.02-2.58-2.73 4.34-1.21 9.29-3.38 11.92-5.91l3.54 1.47zm4.75 4.65c-3.89 4.29-10.56 7.32-17.32 9.14-.56-.91-1.52-2.22-2.32-3.03 6.26-1.41 12.83-4.04 16.16-7.53l3.48 1.42zm-14.85-19.85l-.05.05c1.36 2.02 3.23 3.99 5.66 5.76 2.02-1.67 3.69-3.59 5-5.81h-10.61zm52.02 11.06v18.99h17.53v4.7h-39.65v-4.7h17.12v-18.99h-19.9v-4.65h19.9v-15.4h5v15.4h20.2v4.65h-20.2zm45.81-4.29h11.62v4.29h-11.62v4.5h10.1v13.28c0 1.92-.3 3.13-1.62 3.84-1.31.71-3.23.76-5.86.71-.1-1.16-.66-2.88-1.26-3.99 1.82.05 3.33.05 3.84 0 .51 0 .66-.15.66-.66v-8.99h-5.86v17.53h-4.44v-17.53h-5.51v13.48h-4.19v-17.68h9.7v-4.5h-11.87v-4.29h3.48c-.96-.56-2.83-1.21-3.94-1.62 2.22-3.33 3.89-8.33 4.85-13.13l4.39.91c-.4 1.67-.86 3.38-1.31 5h4.39v-6.72h4.44v6.72h9.65v4.24h-9.65v4.61zm-4.44 0v-4.6h-5.91c-.66 1.72-1.41 3.33-2.22 4.6h8.13zm23.49 16.51h-4.34v-27.93h4.34v27.93zm9.09-31.67v39.65c0 2.83-.61 4.14-2.27 4.95-1.62.81-4.44.91-8.23.91-.2-1.26-.86-3.44-1.52-4.8 2.83.1 5.56.1 6.41.05.81 0 1.06-.25 1.06-1.06v-39.7h4.55zm25.3.91a79.89 79.89 0 01-5 10.56v34.09h-4.75v-26.67a45.146 45.146 0 01-4.14 4.95c-.45-1.16-1.82-3.79-2.63-4.85 4.8-4.75 9.29-12.12 12.02-19.5l4.5 1.42zm15.25 11.16v6.42h13.74v4.29h-13.74v6.72h14.44v4.39h-14.44v11.72h-4.8v-33.54h-2.83c-2.12 3.94-4.44 7.48-6.87 10.15-.76-.81-2.58-2.47-3.64-3.18 4.44-4.65 8.48-11.92 10.91-19.19l4.5 1.21c-.81 2.17-1.67 4.4-2.63 6.52h20.3v4.49h-14.94zm64.81 21.07c-2.22 1.72-5 3.33-7.42 4.65 2.83 1.87 6.26 3.28 10.25 4.09-1.01.86-2.17 2.68-2.78 3.84-8.94-2.22-14.9-7.27-18.38-14.9h-5.35v8.48c3.13-.46 6.46-1.01 9.8-1.51l.15 4.09c-6.72 1.11-13.84 2.27-19.09 3.08l-.71-4.29c1.62-.2 3.49-.45 5.51-.76v-9.09h-5.86v-3.94h8.49v-4.39h-7.02v-3.99h7.02v-4.04h-8.43v1.87c0 8.64-.71 21.21-5.96 29.4-.91-.76-2.98-1.97-4.14-2.42 5-7.78 5.4-18.94 5.4-26.97v-14.75h37.98v12.88h-7.17v4.04h7.93v3.99h-7.93v4.39h10v3.94h-5.66l3.37 2.31zm-33.84-22.73h28.59v-4.8h-28.59v4.8zm12.72 8.08h8.99v-4.04h-8.99v4.04zm0 8.38h8.99v-4.39h-8.99v4.39zm7.23 3.94c.96 1.72 2.12 3.23 3.54 4.6 2.32-1.36 4.95-3.13 6.72-4.6h-10.26zm-311.72-65.82h-20.25v11.62h-4.85v-11.62h-19.75v-4.5h19.75v-3.33h3.23c-.91-.91-2.27-2.02-3.13-2.58 5.2-2.88 9.14-7.58 10.96-13.38l4.75.91c-.61 1.87-1.36 3.64-2.27 5.25 3.64 2.42 8.08 5.66 10.35 7.83l-3.28 3.49c-2.02-2.02-5.96-5.1-9.5-7.63-1.82 2.42-3.99 4.44-6.31 6.11h.05v3.33h20.25v4.5zm-26.92-9.9c-1.26-1.26-3.54-3.13-5.66-4.7-2.27 3.49-5.05 6.46-8.08 8.64-.76-.81-2.73-2.42-3.79-3.13 5.15-3.18 9.09-8.54 11.01-14.8l4.75 1.06c-.56 1.62-1.16 3.18-1.92 4.7 2.32 1.57 5.05 3.54 6.52 4.9l-2.83 3.33zm25.46-14.14h-42.07v-4.5h18.44v-6.16h4.85v6.16h18.79v4.5zm38.08 23.99c4.44 3.13 10.96 5.71 17.12 6.87-1.06 1.01-2.42 2.93-3.13 4.19-6.57-1.77-13.33-5.15-18.08-9.5v10.15h-4.6v-9.8c-4.8 4.04-11.62 7.32-17.93 9.09-.71-1.21-2.02-2.98-3.08-3.99 6.01-1.26 12.58-3.89 17.02-7.02h-15.6v-3.94h19.6v-3.08H657v-3.54h14.9v-3.03h-17.37v-3.74h10.35c-.45-1.41-1.31-3.23-2.12-4.6l1.21-.2H652.5v-3.94h7.47c-.76-1.97-2.27-4.75-3.69-6.82l4.09-1.36c1.57 2.17 3.33 5.25 4.04 7.22l-2.58.96h5.56v-8.64h4.39v8.64h5v-8.64h4.44v8.64h5.45l-1.92-.61c1.21-2.02 2.78-5.2 3.54-7.47l4.85 1.21c-1.36 2.48-2.88 5-4.19 6.87h7.27v3.94h-9.75c-.96 1.72-1.97 3.38-2.83 4.8h10.71v3.74h-17.88v3.03h15.51v3.54h-15.51v3.08h19.9v3.94h-15.79zm-12.98-22.12c.91 1.46 1.82 3.28 2.17 4.5l-1.46.3h10.66c.76-1.36 1.57-3.18 2.22-4.8H667.6zm36.82-9.95h17.88v4.24h-7.58c-.76 3.84-1.72 7.58-2.93 11.11h9.75v22.22h-9.9v3.89h-3.94V260.2c-.76 1.26-1.52 2.42-2.37 3.49-.2-1.21-1.16-4.04-1.87-5.3 3.33-4.5 5.51-11.16 6.82-18.33h-5.86v-4.25zm13.08 19.54h-5.86v13.89h5.86v-13.89zm32.73 2.88h-5.45v21.36h-4.5v-21.36h-7.17c-.25 7.58-1.57 15.96-7.02 21.62-.81-.76-2.53-2.12-3.59-2.73 4.8-5 5.96-12.43 6.21-18.89h-5.2v-4.44h5.25v-13.54h-3.89v-4.39h24.34v4.39h-4.44v13.54h5.45v4.44zm-9.95-4.44v-13.54h-7.12v13.54h7.12zm56.87 20.86c1.26 0 1.46-.86 1.67-7.32 1.01.86 3.13 1.67 4.44 2.02-.45 7.88-1.72 9.9-5.56 9.9h-4.9c-4.34 0-5.61-1.36-5.61-6.21v-9.09h-8.49c-1.06 5.91-5.15 12.12-18.69 15.81-.71-1.11-2.07-2.83-3.18-3.84 11.67-3.08 15.66-7.68 16.92-11.97h-13.33v-4.39h13.89v-5.81h4.7v5.81h13.08v13.43c0 1.46.25 1.67 1.46 1.67h3.6zm-20.91-32.73c-1.06 8.03-4.09 12.73-16.06 15.2-.4-1.11-1.52-2.93-2.47-3.79 10.4-1.82 12.78-5.3 13.64-11.41h-8.03v5.3h-4.7v-9.5h18.89v-4.55h4.8v4.55h19.24v9.04h-4.95v-4.85h-8.89v7.93c0 1.31.25 1.46 1.92 1.46h5.3c1.31 0 1.57-.45 1.72-3.64.96.71 2.88 1.41 4.14 1.62-.51 4.9-1.77 6.16-5.3 6.16h-6.46c-4.85 0-5.96-1.26-5.96-5.56v-7.98h-6.83zm37.82 14.49a4.69 4.69 0 11-4.69-4.69c2.59 0 4.69 2.11 4.69 4.69zm24.71-7.32h11.62v4.29h-11.62v4.5h10.1v13.28c0 1.92-.3 3.13-1.62 3.84-1.31.71-3.23.76-5.86.71-.1-1.16-.66-2.88-1.26-3.99 1.82.05 3.33.05 3.84 0 .51 0 .66-.15.66-.66v-8.99h-5.86v17.53h-4.44v-17.53h-5.51v13.49h-4.19v-17.68h9.7v-4.5h-11.87v-4.29h3.48c-.96-.56-2.83-1.21-3.94-1.62 2.22-3.33 3.89-8.33 4.85-13.13l4.39.91c-.4 1.67-.86 3.38-1.31 5h4.39v-6.72h4.44v6.72h9.65v4.24h-9.65v4.6zm-4.44 0v-4.6h-5.91c-.66 1.72-1.41 3.33-2.22 4.6h8.13zm23.48 16.52h-4.34v-27.93h4.34v27.93zm9.09-31.67v39.65c0 2.83-.61 4.14-2.27 4.95-1.62.81-4.44.91-8.23.91-.2-1.26-.86-3.44-1.52-4.8 2.83.1 5.56.1 6.41.05.81 0 1.06-.25 1.06-1.06v-39.7h4.55zm23.29.91a79.89 79.89 0 01-5 10.56v34.09h-4.75v-26.67a45.146 45.146 0 01-4.14 4.95c-.45-1.16-1.82-3.79-2.63-4.85 4.8-4.75 9.29-12.12 12.02-19.5l4.5 1.42zm15.25 11.16v6.41h13.74v4.29h-13.74v6.72h14.44v4.39h-14.44v11.72h-4.8V246h-2.83c-2.12 3.94-4.44 7.48-6.87 10.15-.76-.81-2.58-2.47-3.64-3.18 4.44-4.65 8.49-11.92 10.91-19.19l4.5 1.21c-.81 2.17-1.67 4.39-2.63 6.52h20.3v4.5h-14.94zm62.78 21.06c-2.22 1.72-5 3.33-7.42 4.65 2.83 1.87 6.26 3.28 10.25 4.09-1.01.86-2.17 2.68-2.78 3.84-8.94-2.22-14.9-7.27-18.38-14.9h-5.35v8.49c3.13-.45 6.46-1.01 9.8-1.52l.15 4.09c-6.72 1.11-13.84 2.27-19.09 3.08l-.71-4.29c1.62-.2 3.49-.45 5.51-.76v-9.09h-5.86v-3.94h8.49v-4.39h-7.02v-3.99h7.02v-4.04h-8.43v1.87c0 8.64-.71 21.21-5.96 29.39-.91-.76-2.98-1.97-4.14-2.42 5-7.78 5.4-18.94 5.4-26.97V235.5h37.98v12.88h-7.17v4.04h7.93v3.99h-7.93v4.39h10v3.94h-5.66l3.37 2.33zm-33.84-22.73h28.59v-4.8h-28.59v4.8zm12.73 8.08h8.99v-4.04h-8.99v4.04zm0 8.39h8.99v-4.39h-8.99v4.39zm7.22 3.94c.96 1.72 2.12 3.23 3.54 4.6 2.32-1.36 4.95-3.13 6.72-4.6h-10.26zm-885.84-9.66v2.93h-22.5v-2.93h9.66v-5.03h-6.78v-2.88h6.78v-4.4h-5.18c-.73 1.38-1.5 2.65-2.33 3.63-.6-.48-1.93-1.38-2.68-1.78 1.95-2.1 3.58-5.56 4.43-8.96l3.08.68c-.35 1.2-.75 2.38-1.18 3.53h3.85v-4.51h3.13v4.51h8.43v2.9h-8.43v4.4h7.48v2.88h-7.48v5.03h9.72zm7.06-7.68c-1.03-.73-3.18-1.9-4.66-2.7l1.6-2.2c1.38.68 3.6 1.75 4.71 2.43l-1.65 2.47zm-4.3 9.01c1.33-1.88 3.25-4.98 4.76-7.88l2.18 2c-1.33 2.63-2.9 5.48-4.43 7.91l-2.51-2.03zm5.38-15.84c-.98-.75-3.1-1.93-4.55-2.75l1.68-2.15c1.4.7 3.58 1.8 4.66 2.5l-1.79 2.4zm11.09 4.88v3.15h5.11v9.99H90v-.9h-7.51v1.03h-2.7v-10.11h5.11v-3.15h-6.66v-2.85h6.66v-2.93c-1.63.25-3.3.43-4.86.58-.13-.73-.53-1.88-.88-2.55 4.25-.43 8.96-1.25 11.71-2.35l2.28 2.35c-1.6.6-3.48 1.1-5.43 1.48v3.43h6.36v2.85h-6.36zm2.28 5.85h-7.51v3.68H90v-3.68zm15.77 1.75c-2.85.83-5.88 1.65-8.28 2.25l-.63-2.75c.9-.2 1.98-.45 3.15-.75v-4.91h-2.55v-2.63h2.55v-4.55h-2.78v-2.6h8.01v2.6h-2.6v4.55h2.28v2.63h-2.28v4.25l2.75-.73.38 2.64zm14.26.05c-.88.68-1.85 1.33-2.65 1.8.93.63 1.95 1.15 3.05 1.5-.6.53-1.43 1.58-1.85 2.3-2.58-1.03-4.63-2.98-6.08-5.38v5.38h-2.8v-3.65c-1.53 1-3.15 1.85-4.68 2.45-.38-.63-1.18-1.6-1.75-2.13 2.5-.75 5.26-2.15 7.26-3.7h-4.05v-5.86h12.54v5.86h-.93l1.94 1.43zm-15.06-10.53h15.39v2.35h-15.39v-2.35zm14.46-.83h-13.36v-5.63h13.36v5.63zm-9.46-3.63h-1.53v1.63h1.53v-1.63zm-.9 11.46h7.18v-1.63h-7.18v1.63zm4.38-11.46h-1.58v1.63h1.58v-1.63zm.75 13.57c.4.65.9 1.25 1.48 1.83.75-.53 1.65-1.28 2.23-1.83h-3.71zm2.76-13.57h-1.63v1.63h1.63v-1.63zm14.47 13.22c-2.63 1.28-5.51 2.58-7.78 3.63l-1-2.98c.85-.3 1.9-.7 3.05-1.15v-6.76h-2.48v-2.8h2.48v-5.58h2.75v5.58h2.28v2.8h-2.28v5.63c.78-.33 1.55-.68 2.33-1l.65 2.63zm12.11 4.73c.4 0 .53-.25.58-2.15.55.43 1.7.9 2.48 1.05-.28 2.88-.98 3.63-2.73 3.63h-1.95c-2.35 0-2.85-.83-2.85-3.2v-2.93h-1.78c-.55 3-2 5.11-6.78 6.33-.28-.73-1.05-1.93-1.63-2.5 3.93-.75 5.03-2 5.48-3.83h-2.13v-7.93h12.74v7.93h-3.08v2.9c0 .63.07.7.53.7h1.12zm2.58-12.52h-15.29v-2.43h3.3c-.13-.55-.38-1.2-.63-1.7l.93-.2h-3.05v-2.3h5.43v-1.53h2.93v1.53h5.93v2.3h-2.83l.63.13c-.33.68-.65 1.28-.93 1.78h3.58v2.42zm-11.11 4.06h7.03v-1.25h-7.03v1.25zm0 3h7.03v-1.28h-7.03v1.28zm1.27-11.39c.33.6.58 1.3.7 1.83l-.33.08h3.18l-.12-.03c.25-.55.55-1.28.75-1.88h-4.18zm14.98 5.09h15.41c.49 0 1.53-.05 2.14-.14v3.12c-.59-.05-1.48-.07-2.14-.07H161c-.14 2.48-.66 4.5-1.51 6.18-.82 1.68-2.64 3.53-4.73 4.62l-2.75-2.04c1.67-.65 3.32-2.02 4.26-3.44.96-1.49 1.36-3.29 1.46-5.31h-6.47c-.68 0-1.6.05-2.26.1v-3.15c.7.08 1.53.13 2.26.13zm2.98-6.1h7.69c.8 0 1.74-.07 2.54-.19v3.1c-.8-.05-1.72-.07-2.54-.07h-7.69c-.8 0-1.81.02-2.52.07v-3.1c.76.11 1.72.19 2.52.19zm13.51 1.44l-1.88.84c-.49-.99-1.22-2.43-1.86-3.34l1.88-.79c.59.88 1.41 2.4 1.86 3.29zm2.82-1.11l-1.88.84c-.49-1.01-1.25-2.4-1.88-3.32l1.86-.79c.61.92 1.48 2.43 1.9 3.27zm10.62 19.52l-2.52-2.43c4.54-1.63 6.54-3.7 6.54-9.61v-.91h-5.58v3.27c0 1.08.07 2.04.09 2.52h-3.29c.07-.48.14-1.44.14-2.52v-3.27h-2c-1.18 0-2.02.07-2.54.1v-3.27c.42.07 1.36.22 2.54.22h2v-2.38c0-.7-.07-1.42-.14-2.16h3.34c-.05.46-.14 1.23-.14 2.19v2.36h5.58v-2.52c0-.96-.07-1.75-.14-2.24h3.36c-.07.5-.16 1.27-.16 2.24v2.52h1.74c1.25 0 1.95-.05 2.59-.17v3.2c-.52-.05-1.34-.07-2.56-.07h-1.76v.79c-.01 5.94-1.4 9.57-7.09 12.14zm10.35-17.31l-1.62.53c-.33-1.01-.75-2.33-1.2-3.29l1.58-.53c.44.96.98 2.36 1.24 3.29zm2.47-.79l-1.62.53c-.33-1.03-.78-2.33-1.27-3.27l1.6-.53c.44.96.98 2.36 1.29 3.27zm12.57 2.55c2.42-1.54 5.11-3.94 6.63-5.84l2.54 2.48c-1.79 1.8-4.05 3.68-6.33 5.22v9.71c0 1.06.05 2.55.21 3.15h-3.72c.09-.58.16-2.09.16-3.15v-7.69c-2.42 1.3-5.41 2.6-8.31 3.46l-1.48-3.03c4.23-1.11 7.68-2.68 10.3-4.31zm23.76 8.24c4.02-2.43 7.08-6.11 8.56-9.35l1.84 3.39c-1.79 3.24-4.92 6.56-8.71 8.89-2.38 1.47-5.41 2.81-8.73 3.39l-1.98-3.17c3.68-.53 6.74-1.75 9.02-3.15zm0-7.76l-2.4 2.5c-1.22-1.35-4.16-3.97-5.88-5.19l2.21-2.4c1.65 1.12 4.71 3.62 6.07 5.09zm18.62-3.75h11.86c.68 0 1.67-.02 2.07-.05-.02.55-.07 1.51-.07 2.21v12.45c0 .84.05 2.12.09 2.84h-3.41c.02-.38.02-.79.02-1.25h-10.73c-.92 0-2.26.07-3.04.14v-3.44c.82.07 1.88.14 2.94.14h10.85v-9.95h-10.56c-.99 0-2.26.05-2.92.1v-3.34c.87.1 2.1.15 2.9.15zm22.25 5.94h10.76c.94 0 1.82-.1 2.34-.14v3.77c-.48-.02-1.5-.12-2.34-.12h-10.76c-1.14 0-2.48.05-3.23.12v-3.77c.72.06 2.18.14 3.23.14zm33.95-3.83c-.8 1.88-2.12 4.45-3.69 6.61 2.33 2.07 5.18 5.14 6.56 6.87l-2.68 2.38c-1.53-2.16-3.72-4.62-5.93-6.8-2.49 2.69-5.62 5.19-8.85 6.75l-2.42-2.6c3.79-1.44 7.43-4.37 9.65-6.9 1.55-1.8 2.99-4.18 3.51-5.89h-7.98c-.99 0-2.28.14-2.78.17v-3.41c.64.1 2.07.17 2.78.17h8.31c1.01 0 1.95-.14 2.42-.31l1.93 1.47c-.19.27-.62 1.01-.83 1.49zm10.96 5.68c0 1.4-1.16 2.56-2.56 2.56-1.4 0-2.56-1.16-2.56-2.56 0-1.4 1.16-2.56 2.56-2.56 1.4-.01 2.56 1.15 2.56 2.56zm10.05-5.55c0 3.08-.48 7.43-2.85 10.26-.43-.53-1.58-1.5-2.15-1.8 2.05-2.48 2.28-5.98 2.28-8.51v-3.75h10.64c-.08-.78-.13-1.55-.15-2.33h2.78c.02.78.08 1.58.15 2.33h2.68c-.65-.35-1.38-.68-2.03-.93l1.48-1.63c1.18.35 2.7 1.03 3.48 1.65l-.75.9h2.3v2.35h-6.81c.25 1.43.63 2.75 1.03 3.93a15.49 15.49 0 001.53-3.3l2.75.65c-.7 2.03-1.7 3.85-2.9 5.48.68 1 1.38 1.58 2.08 1.58.55-.02.75-.85.88-3 .63.55 1.55 1.08 2.25 1.3-.43 3.55-1.3 4.38-3.28 4.38-1.43 0-2.7-.8-3.78-2.15-.75.73-1.53 1.38-2.35 1.93-.3-.43-.93-1.08-1.48-1.58v.45h-1.6c1.33.73 2.8 1.85 3.55 2.73l-2.05 1.75c-.73-.95-2.35-2.23-3.73-3.05l1.7-1.43h-4.96v-5.41h7.08v4.1c.85-.55 1.63-1.2 2.35-1.93-.83-1.8-1.48-4-1.88-6.43h-8.23v1.46zm-4.78 15.06c1.48-1.15 2.55-2.93 3.05-4.78l2.65.95c-.58 2.08-1.55 4.15-3.25 5.48l-2.45-1.65zm12.72-13.46h-7.36v-1.9h7.36v1.9zm1.4 12.66c.95 0 1.13-.25 1.25-2.23.55.45 1.83.88 2.6 1.05-.33 3.08-1.15 3.83-3.58 3.83h-4c-3.23 0-3.98-.8-3.98-3.38v-3.23h2.95v3.2c0 .68.2.75 1.35.75h3.41zm-4.01-9.56h-2.28v1.58h2.28v-1.58zm9.29 5.21c1.63 1.48 3.35 3.58 4 5.21l-2.7 1.35c-.55-1.53-2.18-3.73-3.8-5.31l2.5-1.25zm29.14 3.7v2.83h-15.57v-2.83h6.68v-5.01h-4.83v-2.78h4.83v-4.1h-2.75c-.38 1.3-.88 2.5-1.4 3.45-.6-.38-1.95-1.05-2.65-1.35.25-.45.5-.93.75-1.45l-1.43.65c-.15-.75-.53-1.85-.95-2.88v17.09h-2.98v-17.89c-.15 2.1-.55 4.86-1.13 6.63l-2.2-.8c.6-1.65 1.05-4.45 1.23-6.51l2.1.3v-5.11h2.98v4.73l1.45-.6c.5.98 1.03 2.18 1.38 3.15.63-1.83 1.08-3.98 1.33-6.11l2.9.4c-.18 1.18-.38 2.35-.63 3.48h2v-4.91h2.98v4.91h5.11v2.8h-5.11v4.1h4.58v2.78h-4.58v5.01h5.91zm1.7-8.28c.53-1.7.9-4.51 1.03-6.53l2.1.28c-.05 2.08-.45 5.06-.98 6.98l-2.15-.73zm23.63-3.56v2.13h-16.39v-2.13h6.63v-1.08h-5.18l.05.12-1.95.95c-.18-.73-.53-1.78-.93-2.75v18.19h-2.68v-23.35h2.68v4l1.43-.6c.53 1.08 1.1 2.48 1.4 3.4v-1.98h5.18v-1h-5.86v-2.13h5.86v-1.7h2.95v1.7h6.06v2.13h-6.06v1h5.38v2h-5.38v1.08h6.81zm-1.68 12.62c0 1.3-.25 2-1.15 2.4-.88.43-2.13.43-3.85.43-.1-.73-.45-1.8-.8-2.53 1.03.08 2.2.05 2.53.05.35 0 .48-.1.48-.4v-.83h-7.48v3.75h-2.75v-12.41h13.04v9.54zm-10.28-7.36v1.18h7.48v-1.18h-7.48zm7.48 4.43v-1.15h-7.48v1.15h7.48zm14.17-11.19h4.18v2.5h-2.08l.98.25c-.43.93-.8 1.9-1.15 2.65h1.88v2.5h-3.8v1.93h3.53v2.5h-3.53v4.56h-2.75v-4.56h-3.73v-2.5h3.73v-1.93h-3.93v-2.5h1.88c-.15-.8-.48-1.85-.83-2.68l.9-.23h-2.48v-2.5h4.45v-1.73h-3.58v-2.45h3.58v-2.18h2.75v2.18h3.25v2.45h-3.25v1.74zm-.37 5.18c.3-.75.68-1.83.9-2.68h-3.8c.43.9.78 1.98.88 2.68l-.8.23h3.63l-.81-.23zm16.01-1.45c-.48 3.03-1.35 5.83-2.63 8.18 1.03 1.13 2.18 2.08 3.48 2.73-.65.55-1.5 1.6-1.93 2.35-1.18-.7-2.2-1.6-3.13-2.65-.8 1.03-1.7 1.93-2.73 2.68-.33-.5-.85-1.08-1.38-1.55v1.48h-2.7v-22.3h10.44v4.7c0 1.28-.28 2-1.25 2.4-.95.4-2.3.43-4.13.43-.13-.8-.5-1.83-.85-2.55 1.23.05 2.6.05 2.98.05.38-.02.5-.1.5-.38V239h-4.98v5.98h6.03l.5-.12 1.78.62zm-8.3 10.84c.9-.73 1.7-1.58 2.4-2.55-.98-1.6-1.78-3.43-2.4-5.41v7.96zm2.1-8.99c.45 1.38 1.05 2.68 1.78 3.88.58-1.2 1.03-2.53 1.33-3.88h-3.11zm11.77-3.02h15.41c.49 0 1.53-.05 2.14-.14v3.12c-.59-.05-1.48-.07-2.14-.07h-5.67c-.14 2.48-.66 4.5-1.51 6.18-.82 1.68-2.64 3.53-4.73 4.62l-2.75-2.04c1.67-.65 3.32-2.02 4.26-3.44.96-1.49 1.36-3.29 1.46-5.31h-6.47c-.68 0-1.6.05-2.26.1v-3.15c.7.08 1.53.13 2.26.13zm2.98-6.1h7.69c.8 0 1.74-.07 2.54-.19v3.1c-.8-.05-1.72-.07-2.54-.07h-7.69c-.8 0-1.81.02-2.52.07v-3.1c.76.11 1.72.19 2.52.19zm13.51 1.44l-1.88.84c-.49-.99-1.22-2.43-1.86-3.34l1.88-.79c.59.88 1.41 2.4 1.86 3.29zm2.82-1.11l-1.88.84c-.49-1.01-1.25-2.4-1.88-3.32l1.86-.79c.61.92 1.48 2.43 1.9 3.27zm10.62 19.52l-2.52-2.43c4.54-1.63 6.54-3.7 6.54-9.61v-.91h-5.58v3.27c0 1.08.07 2.04.09 2.52h-3.29c.07-.48.14-1.44.14-2.52v-3.27h-2c-1.18 0-2.02.07-2.54.1v-3.27c.42.07 1.36.22 2.54.22h2v-2.38c0-.7-.07-1.42-.14-2.16h3.34c-.05.46-.14 1.23-.14 2.19v2.36h5.58v-2.52c0-.96-.07-1.75-.14-2.24h3.36c-.07.5-.16 1.27-.16 2.24v2.52h1.74c1.25 0 1.95-.05 2.59-.17v3.2c-.52-.05-1.34-.07-2.56-.07h-1.76v.79c-.01 5.94-1.4 9.57-7.09 12.14zm10.35-17.31l-1.62.53c-.33-1.01-.75-2.33-1.2-3.29l1.58-.53c.44.96.98 2.36 1.24 3.29zm2.47-.79l-1.62.53c-.33-1.03-.78-2.33-1.27-3.27l1.6-.53c.44.96.98 2.36 1.29 3.27zm12.57 2.55c2.42-1.54 5.11-3.94 6.63-5.84l2.54 2.48c-1.79 1.8-4.05 3.68-6.33 5.22v9.71c0 1.06.05 2.55.21 3.15h-3.72c.09-.58.16-2.09.16-3.15v-7.69c-2.42 1.3-5.41 2.6-8.31 3.46l-1.48-3.03c4.23-1.11 7.69-2.68 10.3-4.31zm23.76 8.24c4.02-2.43 7.08-6.11 8.56-9.35l1.84 3.39c-1.79 3.24-4.92 6.56-8.71 8.89-2.38 1.47-5.41 2.81-8.73 3.39l-1.98-3.17c3.68-.53 6.74-1.75 9.02-3.15zm0-7.76l-2.4 2.5c-1.22-1.35-4.16-3.97-5.88-5.19l2.21-2.4c1.65 1.12 4.71 3.62 6.07 5.09zm18.62-3.75h11.86c.68 0 1.67-.02 2.07-.05-.02.55-.07 1.51-.07 2.21v12.45c0 .84.05 2.12.09 2.84h-3.41c.02-.38.02-.79.02-1.25h-10.73c-.92 0-2.26.07-3.04.14v-3.44c.82.07 1.88.14 2.94.14h10.85v-9.95h-10.56c-.99 0-2.26.05-2.92.1v-3.34c.87.1 2.1.15 2.9.15zm22.25 5.94h10.76c.94 0 1.82-.1 2.34-.14v3.77c-.48-.02-1.5-.12-2.34-.12h-10.76c-1.14 0-2.48.05-3.23.12v-3.77c.72.06 2.18.14 3.23.14zm33.95-3.83c-.8 1.88-2.12 4.45-3.69 6.61 2.33 2.07 5.18 5.14 6.56 6.87l-2.68 2.38c-1.53-2.16-3.72-4.62-5.93-6.8-2.49 2.69-5.62 5.19-8.85 6.75l-2.42-2.6c3.79-1.44 7.43-4.37 9.65-6.9 1.55-1.8 2.99-4.18 3.51-5.89h-7.98c-.99 0-2.28.14-2.78.17v-3.41c.64.1 2.07.17 2.78.17h8.31c1.01 0 1.95-.14 2.42-.31l1.93 1.47c-.19.27-.62 1.01-.83 1.49zM55.95 268.36c-.45 4.15-1.83 6.78-8.18 8.16-.25-.7-1-1.9-1.6-2.5 5.46-.95 6.33-2.7 6.73-5.66h-3.45v2.9h-2.93v-5.61h9.06v-2.25h3.05v2.25h9.29v5.18h-3.08v-2.48h-3.53v3.95c0 .68.15.78.93.78h2.23c.63 0 .75-.25.85-1.83.55.43 1.78.85 2.55 1.03-.3 2.63-1.1 3.33-3.1 3.33h-2.98c-2.8 0-3.4-.8-3.4-3.28v-3.98h-2.44zm12.19 15.04v2.7h-21.9v-2.7h9.34v-3.73h-6.71v-2.68h17.14v2.68h-7.38v3.73h9.51zm7.29-10.01v13.39h-2.95v-22.42h9.59v9.03h-6.64zm0-6.88v1.33h3.85v-1.33h-3.85zm3.85 4.75v-1.43h-3.85v1.43h3.85zm14.32 11.99c0 1.6-.33 2.48-1.33 2.95-.98.5-2.43.57-4.58.57-.08-.63-.35-1.55-.65-2.33h-6.21v1.28h-2.7v-10.81h1.23v-.02l8.41.02v8.86c.98.03 1.9.03 2.23 0 .45 0 .6-.15.6-.55v-9.79h-6.81v-9.09h9.81v18.91zm-8.64-6.16h-4.13v1.5h4.13v-1.5zm0 5.18v-1.55h-4.13v1.55h4.13zm1.66-15.76v1.33h3.98v-1.33h-3.98zm3.98 4.8v-1.48h-3.98v1.48h3.98zm8.58 1.06h15.41c.49 0 1.53-.05 2.14-.14v3.12c-.59-.05-1.48-.07-2.14-.07h-5.67c-.14 2.48-.66 4.5-1.51 6.18-.82 1.68-2.64 3.53-4.73 4.62l-2.75-2.04c1.67-.65 3.32-2.02 4.26-3.44.96-1.49 1.36-3.29 1.46-5.31h-6.47c-.68 0-1.6.05-2.26.1v-3.15c.71.08 1.54.13 2.26.13zm2.99-6.1h7.69c.8 0 1.74-.07 2.54-.19v3.1c-.8-.05-1.72-.07-2.54-.07h-7.69c-.8 0-1.81.02-2.52.07v-3.1c.76.11 1.72.19 2.52.19zm13.51 1.44l-1.88.84c-.49-.99-1.22-2.43-1.86-3.34l1.88-.79c.59.88 1.41 2.4 1.86 3.29zm2.82-1.11l-1.88.84c-.49-1.01-1.25-2.4-1.88-3.32l1.86-.79c.61.92 1.48 2.43 1.9 3.27zm10.62 19.52l-2.52-2.43c4.54-1.63 6.54-3.7 6.54-9.61v-.91h-5.58v3.27c0 1.08.07 2.04.09 2.52h-3.29c.07-.48.14-1.44.14-2.52v-3.27h-2c-1.18 0-2.02.07-2.54.1V270c.42.07 1.36.22 2.54.22h2v-2.38c0-.7-.07-1.42-.14-2.16h3.34c-.05.46-.14 1.23-.14 2.19v2.36h5.58v-2.52c0-.96-.07-1.75-.14-2.24h3.36c-.07.5-.16 1.27-.16 2.24v2.52h1.74c1.25 0 1.95-.05 2.59-.17v3.2c-.52-.05-1.34-.07-2.56-.07h-1.76v.79c-.01 5.94-1.4 9.57-7.09 12.14zm10.35-17.31l-1.62.53c-.33-1.01-.75-2.33-1.2-3.29l1.58-.53c.44.96.98 2.36 1.24 3.29zm2.47-.79l-1.62.53c-.33-1.03-.78-2.33-1.27-3.27l1.6-.53c.44.96.98 2.36 1.29 3.27zm12.57 2.55c2.42-1.54 5.11-3.94 6.63-5.84l2.54 2.48c-1.79 1.8-4.05 3.68-6.33 5.22v9.71c0 1.06.05 2.55.21 3.15h-3.72c.09-.58.16-2.09.16-3.15v-7.69c-2.42 1.3-5.41 2.6-8.31 3.46l-1.48-3.03c4.23-1.11 7.69-2.68 10.3-4.31zm23.76 8.24c4.02-2.43 7.08-6.11 8.56-9.35l1.84 3.39c-1.79 3.24-4.92 6.56-8.71 8.89-2.38 1.47-5.41 2.81-8.73 3.39l-1.98-3.17c3.68-.53 6.74-1.75 9.02-3.15zm0-7.76l-2.4 2.5c-1.22-1.35-4.16-3.97-5.88-5.19l2.21-2.4c1.65 1.12 4.71 3.62 6.07 5.09zm18.62-3.75h11.86c.68 0 1.67-.02 2.07-.05-.02.55-.07 1.51-.07 2.21v12.45c0 .84.05 2.12.09 2.84h-3.41c.02-.38.02-.79.02-1.25h-10.73c-.92 0-2.26.07-3.04.14v-3.44c.82.07 1.88.14 2.94.14h10.85v-9.95h-10.56c-.99 0-2.26.05-2.92.1v-3.34c.87.1 2.1.15 2.9.15zm22.25 5.94h10.76c.94 0 1.82-.1 2.34-.14v3.77c-.48-.02-1.5-.12-2.34-.12h-10.76c-1.14 0-2.48.05-3.23.12v-3.77c.72.06 2.18.14 3.23.14zm33.95-3.83c-.8 1.88-2.12 4.45-3.69 6.61 2.33 2.07 5.18 5.14 6.56 6.87l-2.68 2.38c-1.53-2.16-3.72-4.62-5.93-6.8-2.49 2.69-5.62 5.19-8.85 6.75l-2.42-2.6c3.79-1.44 7.43-4.38 9.65-6.9 1.55-1.8 2.99-4.18 3.51-5.89h-7.98c-.99 0-2.28.14-2.78.17v-3.41c.64.1 2.07.17 2.78.17h8.31c1.01 0 1.95-.14 2.42-.31l1.93 1.47c-.19.27-.62 1.01-.83 1.49zm10.49 5.68c0 1.4-1.16 2.56-2.56 2.56-1.4 0-2.56-1.16-2.56-2.56 0-1.4 1.16-2.56 2.56-2.56 1.4-.01 2.56 1.15 2.56 2.56zm20.89-6.37c-.71 1.9-1.76 4.33-3.15 6.54 2.07 1.73 4.05 3.58 5.65 5.31l-2.42 2.74c-1.65-1.97-3.34-3.65-5.22-5.31-2.07 2.55-4.78 5.22-8.75 7.43l-2.64-2.43c3.84-1.9 6.61-4.23 8.94-7.09-1.69-1.37-3.95-3.08-6.35-4.57l2-2.45c1.88 1.18 4.35 2.91 6.26 4.35 1.2-1.92 2-3.82 2.61-5.72.21-.63.47-1.59.56-2.21l3.51 1.25c-.32.55-.77 1.6-1 2.16zm8.87 3.65h15.41c.49 0 1.53-.05 2.14-.14v3.12c-.59-.05-1.48-.07-2.14-.07h-5.67c-.14 2.48-.66 4.5-1.51 6.18-.82 1.68-2.64 3.53-4.73 4.62l-2.75-2.04c1.67-.65 3.32-2.02 4.26-3.44.96-1.49 1.36-3.29 1.46-5.31h-6.47c-.68 0-1.6.05-2.26.1v-3.15c.71.08 1.53.13 2.26.13zm2.99-6.1h7.69c.8 0 1.74-.07 2.54-.19v3.1c-.8-.05-1.72-.07-2.54-.07h-7.69c-.8 0-1.81.02-2.52.07v-3.1c.76.11 1.72.19 2.52.19zm13.5 1.44l-1.88.84c-.49-.99-1.22-2.43-1.86-3.34l1.88-.79c.59.88 1.42 2.4 1.86 3.29zm2.83-1.11l-1.88.84c-.49-1.01-1.25-2.4-1.88-3.32l1.86-.79c.6.92 1.47 2.43 1.9 3.27zm11.44 7.33c2.28-1.42 4.66-3.58 5.86-5.14l2.33 2.33c-1.11 1.25-3.18 2.96-5.27 4.38v8.24c0 .84.02 2.12.16 2.6h-3.48c.05-.48.12-1.75.12-2.6v-6.35c-2.07 1.06-4.71 2.16-6.75 2.81l-1.39-2.84c3.05-.66 6.56-2.27 8.42-3.43zm34.37-4.73c-1.11 1.88-3.34 4.9-5.65 6.59l-2.45-2c1.88-1.18 3.72-3.29 4.33-4.47h-12.26c-.99 0-1.76.07-2.87.17v-3.34c.89.14 1.88.24 2.87.24h12.68c.66 0 1.95-.07 2.4-.22l1.86 1.78c-.25.31-.69.89-.91 1.25zm-15.19 16.37l-2.75-2.28c.75-.26 1.6-.67 2.47-1.32 2.99-2.12 3.55-4.66 3.55-8.6 0-.75-.05-1.39-.16-2.16h3.41c-.01 5.94-.13 10.85-6.52 14.36zm21.36-13.2h15.41c.49 0 1.53-.05 2.14-.14v3.12c-.59-.05-1.48-.07-2.14-.07h-5.67c-.14 2.48-.66 4.5-1.51 6.18-.82 1.68-2.64 3.53-4.73 4.62l-2.75-2.04c1.67-.65 3.32-2.02 4.26-3.44.96-1.49 1.36-3.29 1.46-5.31h-6.47c-.68 0-1.6.05-2.26.1v-3.15c.71.08 1.53.13 2.26.13zm2.99-6.1h7.69c.8 0 1.74-.07 2.54-.19v3.1c-.8-.05-1.72-.07-2.54-.07h-7.69c-.8 0-1.81.02-2.52.07v-3.1c.76.11 1.72.19 2.52.19zm13.51 1.44l-1.88.84c-.49-.99-1.22-2.43-1.86-3.34l1.88-.79c.58.88 1.41 2.4 1.86 3.29zm2.82-1.11l-1.88.84c-.49-1.01-1.25-2.4-1.88-3.32l1.86-.79c.6.92 1.47 2.43 1.9 3.27zm10.61 19.52l-2.52-2.43c4.54-1.63 6.54-3.7 6.54-9.61v-.91h-5.58v3.27c0 1.08.07 2.04.09 2.52h-3.29c.07-.48.14-1.44.14-2.52v-3.27h-2c-1.18 0-2.02.07-2.54.1V270c.42.07 1.36.22 2.54.22h2v-2.38c0-.7-.07-1.42-.14-2.16h3.34c-.05.46-.14 1.23-.14 2.19v2.36h5.58v-2.52c0-.96-.07-1.75-.14-2.24h3.36c-.07.5-.16 1.27-.16 2.24v2.52h1.74c1.25 0 1.95-.05 2.59-.17v3.2c-.52-.05-1.34-.07-2.56-.07h-1.76v.79c0 5.94-1.39 9.57-7.09 12.14zm10.36-17.31l-1.62.53c-.33-1.01-.75-2.33-1.2-3.29l1.58-.53c.44.96.98 2.36 1.24 3.29zm2.47-.79l-1.62.53c-.33-1.03-.78-2.33-1.27-3.27l1.6-.53c.44.96.98 2.36 1.29 3.27zm12.56 2.55c2.42-1.54 5.11-3.94 6.63-5.84l2.54 2.48c-1.79 1.8-4.05 3.68-6.33 5.22v9.71c0 1.06.05 2.55.21 3.15h-3.72c.09-.58.16-2.09.16-3.15v-7.69c-2.42 1.3-5.41 2.6-8.31 3.46l-1.48-3.03c4.23-1.11 7.69-2.68 10.3-4.31zm23.77 8.24c4.02-2.43 7.08-6.11 8.56-9.35l1.84 3.39c-1.79 3.24-4.92 6.56-8.71 8.89-2.38 1.47-5.41 2.81-8.73 3.39l-1.98-3.17c3.68-.53 6.74-1.75 9.02-3.15zm0-7.76l-2.4 2.5c-1.22-1.35-4.16-3.97-5.88-5.19l2.21-2.4c1.65 1.12 4.71 3.62 6.07 5.09zm18.61-3.75h11.86c.68 0 1.67-.02 2.07-.05-.02.55-.07 1.51-.07 2.21v12.45c0 .84.05 2.12.09 2.84h-3.41c.02-.38.02-.79.02-1.25h-10.73c-.92 0-2.26.07-3.04.14v-3.44c.82.07 1.88.14 2.94.14h10.85v-9.95h-10.56c-.99 0-2.26.05-2.92.1v-3.34c.88.1 2.11.15 2.9.15zm22.25 5.94h10.76c.94 0 1.82-.1 2.34-.14v3.77c-.48-.02-1.5-.12-2.34-.12h-10.76c-1.14 0-2.48.05-3.23.12v-3.77c.73.06 2.19.14 3.23.14zm33.96-3.83c-.8 1.88-2.12 4.45-3.69 6.61 2.33 2.07 5.18 5.14 6.56 6.87l-2.68 2.38c-1.53-2.16-3.72-4.62-5.93-6.8-2.49 2.69-5.62 5.19-8.85 6.75l-2.42-2.6c3.79-1.44 7.43-4.38 9.65-6.9 1.55-1.8 2.99-4.18 3.51-5.89h-7.98c-.99 0-2.28.14-2.78.17v-3.41c.64.1 2.07.17 2.78.17h8.31c1.01 0 1.95-.14 2.42-.31l1.93 1.47c-.19.27-.62 1.01-.83 1.49zM89.96 466.34H47.47c-.29-11.22 5.74-19.17 22.07-29.09 9.63-6.08 12.15-9.17 12.15-15.06 0-6.55-4.86-11.13-11.77-11.13-5.35 0-9.43 2.62-11.08 7.01-.58 1.78-.78 3.46-.78 8.04h-8.65v-2.34c0-6.36 1.36-10.66 4.57-14.12 3.69-4.21 9.33-6.36 16.24-6.36 12.25 0 20.52 7.58 20.52 18.8 0 5.42-1.94 10.01-5.74 13.84-2.63 2.62-3.89 3.55-13.42 9.45-6.71 4.3-12.15 9.63-13.32 13.19h31.7v7.77zm54.36-52.75c3.21 5.71 4.57 12.35 4.57 22.26 0 8.98-1.46 15.9-4.57 21.42-3.69 6.45-10.31 10.29-17.79 10.29-7.39 0-14-3.83-17.7-10.29-3.11-5.71-4.57-12.35-4.57-21.89 0-9.45 1.46-16.37 4.57-21.79 3.79-6.45 10.31-10.29 17.7-10.29 7.58 0 14.09 3.74 17.79 10.29zm-28.3 4.68c-1.85 4.21-2.72 9.45-2.72 17.12s.88 13 2.72 17.21c2.04 4.4 6.03 7.2 10.6 7.2 4.47 0 8.56-2.81 10.5-7.2 1.85-4.21 2.72-9.45 2.72-16.84 0-8.04-.78-13.37-2.72-17.49-2.04-4.49-6.13-7.2-10.6-7.2-4.47-.01-8.46 2.7-10.5 7.2zm90.33 48.07h-42.49c-.29-11.22 5.74-19.17 22.07-29.09 9.63-6.08 12.15-9.17 12.15-15.06 0-6.55-4.86-11.13-11.77-11.13-5.35 0-9.43 2.62-11.08 7.01-.58 1.78-.78 3.46-.78 8.04h-8.65v-2.34c0-6.36 1.36-10.66 4.57-14.12 3.69-4.21 9.33-6.36 16.24-6.36 12.25 0 20.52 7.58 20.52 18.8 0 5.42-1.94 10.01-5.74 13.84-2.63 2.62-3.89 3.55-13.42 9.45-6.71 4.3-12.15 9.63-13.32 13.19h31.7v7.77zm55.71 0h-42.49c-.29-11.22 5.74-19.17 22.07-29.09 9.63-6.08 12.15-9.17 12.15-15.06 0-6.55-4.86-11.13-11.77-11.13-5.35 0-9.43 2.62-11.08 7.01-.58 1.78-.78 3.46-.78 8.04h-8.65v-2.34c0-6.36 1.36-10.66 4.57-14.12 3.69-4.21 9.33-6.36 16.24-6.36 12.25 0 20.52 7.58 20.52 18.8 0 5.42-1.94 10.01-5.74 13.84-2.63 2.62-3.89 3.55-13.42 9.45-6.71 4.3-12.15 9.63-13.32 13.19h31.7v7.77zm27.42-1.25h-9.01v-8.42h9.01v8.42zm85.49.94h-59.91c-.41-15.83 8.09-27.04 31.12-41.02 13.57-8.57 17.14-12.92 17.14-21.23 0-9.23-6.85-15.69-16.59-15.69-7.54 0-13.3 3.69-15.63 9.89-.82 2.51-1.1 4.88-1.1 11.34h-12.2v-3.3c0-8.97 1.92-15.03 6.44-19.91 5.21-5.94 13.16-8.97 22.89-8.97 17.27 0 28.93 10.68 28.93 26.51 0 7.65-2.74 14.11-8.09 19.52-3.7 3.69-5.48 5.01-18.92 13.32-9.46 6.07-17.14 13.58-18.78 18.6h44.69v10.94zm26.66-.94h-9.01v-8.42h9.01v8.42zm48.2.94h-12.06v-62.51h-20.7v-8.57c11.79.4 21.25-6.07 23.44-15.96h9.32v87.04zm83.48-25.05c0 15.43-13.3 26.77-31.12 26.77-17.96 0-31.26-11.47-31.26-26.77 0-9.89 5.07-17.41 15.49-22.95-7.54-4.22-11.38-10.55-11.38-18.33 0-13.06 11.38-22.55 27.14-22.55 15.63 0 27.01 9.5 27.01 22.55 0 7.78-3.84 14.11-11.38 18.33 10.43 5.54 15.5 13.05 15.5 22.95zm-49.62-.66c0 9.76 7.54 16.49 18.51 16.49 10.69 0 18.37-6.73 18.37-16.22 0-9.89-7.4-16.62-18.51-16.62-10.83-.01-18.37 6.72-18.37 16.35zm3.7-39.7c0 7.39 6.03 12.53 14.81 12.53 8.5 0 14.67-5.14 14.67-12.4 0-7.52-5.89-12.66-14.81-12.66-8.64 0-14.67 5.14-14.67 12.53zm91.1 32.39h-21.58v12.16h18.12v4.86h-18.12v18.48h-5.78v-40.55h27.36v5.05zm11.68 6.14v4.62c1.16-1.7 1.64-2.37 2.43-3.1 1.34-1.4 3.47-2.31 5.23-2.31 1.09 0 2.13.24 3.1.73v5.05c-1.16-.24-1.76-.3-2.55-.3-4.5 0-7.96 4.01-7.96 9.24v15.44h-5.59v-29.36h5.34zm25.35-4.68h-5.59v-6.51h5.59v6.51zm0 34.05h-5.59v-29.36h5.59v29.36zm67.6-37.59h-34.4v-8.03h34.4v8.03zm95.61 35.29h-60.16c-.41-15.89 8.12-27.15 31.25-41.19 13.63-8.61 17.21-12.98 17.21-21.32 0-9.27-6.88-15.76-16.66-15.76-7.57 0-13.35 3.71-15.69 9.93-.83 2.52-1.1 4.9-1.1 11.39h-12.25v-3.31c0-9.01 1.93-15.1 6.47-20 5.23-5.96 13.21-9.01 22.99-9.01 17.34 0 29.05 10.73 29.05 26.62 0 7.68-2.75 14.17-8.12 19.6-3.72 3.71-5.51 5.03-19 13.38-9.5 6.09-17.21 13.64-18.86 18.67h44.88v11zm71.59-74.7c4.54 8.08 6.47 17.48 6.47 31.52 0 12.71-2.06 22.51-6.47 30.33-5.23 9.14-14.59 14.57-25.19 14.57-10.46 0-19.82-5.43-25.05-14.57-4.4-8.08-6.47-17.48-6.47-30.99 0-13.38 2.06-23.18 6.47-30.86 5.37-9.14 14.59-14.57 25.05-14.57 10.73.01 19.96 5.3 25.19 14.57zm-40.06 6.63c-2.62 5.96-3.85 13.38-3.85 24.24 0 10.86 1.24 18.41 3.85 24.37 2.89 6.22 8.53 10.2 15 10.2 6.33 0 12.11-3.97 14.87-10.2 2.62-5.96 3.85-13.38 3.85-23.84 0-11.39-1.1-18.94-3.85-24.76-2.89-6.36-8.67-10.2-15-10.2s-11.98 3.83-14.87 10.19zm83.51 42.34c-.61-5.59-3.95-8.33-10.09-8.33-5.41 0-8.88 2.31-8.88 5.84 0 2.98 2.13 4.74 7.29 5.9l6.57 1.46c4.8 1.09 7.23 2.13 9.18 3.89 2.13 1.88 3.28 4.62 3.28 7.78 0 7.66-6.2 12.4-16.05 12.4-10.52 0-16.84-5.35-17.69-15.08h6.02c.61 6.44 4.86 10.03 11.85 10.03 5.84 0 9.97-2.86 9.97-6.93 0-3.04-2.19-5.05-6.44-6.08l-9.12-2.19c-7.42-1.76-10.76-5.05-10.76-10.52 0-7.11 5.9-11.61 15.2-11.61s14.29 4.32 15.56 13.43h-5.89zm35.26 28.03v-3.34c-2.92 3.1-5.29 4.13-9.3 4.13-3.47 0-6.32-1.16-7.96-3.22-1.4-1.82-1.95-3.89-1.95-7.3v-19.64h5.59v19.21c0 4.01 1.82 5.96 5.65 5.96 4.8 0 7.72-2.8 7.72-7.36v-17.81h5.59v29.36h-5.34zm19.4-29.37v3.34c2.92-3.1 5.29-4.13 9.3-4.13 3.47 0 6.32 1.15 7.96 3.22 1.4 1.82 1.95 3.89 1.95 7.3v19.64h-5.59v-19.21c0-4.01-1.82-5.96-5.65-5.96-4.8 0-7.72 2.8-7.72 7.36v17.81h-5.59v-29.36h5.34zm29.37-237.32H42.67c-2.05 0-3.71-1.66-3.71-3.71s1.66-3.71 3.71-3.71H977.8c2.05 0 3.71 1.66 3.71 3.71s-1.66 3.71-3.71 3.71z"/></g></svg>