<svg width="692" height="122" fill="none" xmlns="http://www.w3.org/2000/svg"><path d="M6.98 81.302c.093-.167.203-.315.333-.407.093-.074.13-.148.13-.222 0-.11-.037-.167-.222-.26a8.765 8.765 0 00-1.13-.388 3.292 3.292 0 01-.314 1.055C4.74 83.395 2.722 85.913 0 87.543c.24.129.462.352.648.629.129.167.167.24.26.24.056 0 .128-.055.278-.166 2.59-1.87 4.294-3.926 5.794-6.944zm3.87-1.185c-.073-.148-.11-.148-.332-.036l-.52.222c-.202.093-.24.11-.185.26 1.315 2.906 3.5 5.61 6.35 7.591.13.093.205.148.26.148.074 0 .13-.074.241-.26.167-.278.388-.573.61-.74-2.832-1.667-5.127-4.26-6.423-7.185zm.297 8.999c-.112-.111-.13-.111-.315.02l-.481.295c-.222.148-.277.186-.186.296a31.339 31.339 0 012.333 3.166c-2.092.278-4.629.555-6.906.74 1-2.203 1.906-4.573 2.573-6.424.166-.482.295-.704.445-.908.093-.112.129-.148.129-.26 0-.092-.093-.185-.24-.24-.353-.129-.742-.24-1.187-.352-.074.593-.222 1.11-.5 1.963-.481 1.517-1.407 3.944-2.499 6.332-.186 0-.371.019-.555.019-.815.055-1.463.073-2.056.036.093.464.205.888.315 1.222.036.148.111.222.185.222.093 0 .148-.037.24-.093.149-.093.334-.167.742-.203 3.258-.296 6.925-.667 9.888-1.13.333.556.648 1.13.981 1.76.074.148.112.13.371 0l.574-.333c.241-.129.26-.167.186-.277-1.353-2.334-2.37-3.869-4.037-5.85zm22.94-5.018c.13 0 .148-.019.148-.167v-.888c0-.13-.019-.148-.148-.148-.093 0-.703.038-2.556.038h-4.147v-1.537c0-.796.036-1.112.112-1.279.055-.129.092-.203.092-.333 0-.074-.092-.148-.24-.167a10.94 10.94 0 00-1.277-.093c.092.444.129.944.129 1.87v1.537h-3.778c-1.832 0-2.444-.038-2.554-.038-.13 0-.148.02-.148.148v.889c0 .148.019.167.148.167.11 0 .722-.037 2.554-.037h9.11c1.85.002 2.462.038 2.555.038zm-11.092 1.37l-.61.203c-.26.093-.278.112-.222.24a31.48 31.48 0 011.778 6.426c.036.166.074.185.352.111l.648-.185c.222-.055.222-.11.203-.24a32.92 32.92 0 00-1.89-6.5c-.037-.11-.074-.11-.259-.055z" fill="#fff"/><path d="M35.012 93.69c-.112 0-.667.037-2.408.037h-3.628c.962-2.241 1.684-4.37 2.35-6.666.113-.388.205-.648.353-.814.074-.093.167-.203.167-.315 0-.093-.038-.148-.186-.203a11.73 11.73 0 00-1.296-.407c-.055.61-.148 1.091-.37 1.925a50.2 50.2 0 01-2.222 6.481H21.31c-1.722 0-2.296-.037-2.388-.037-.129 0-.148.018-.148.147v.925c0 .13.02.148.148.148.093 0 .667-.037 2.388-.037h11.294c1.741 0 2.296.037 2.408.037.129 0 .148-.019.148-.148v-.925c0-.13-.018-.149-.148-.149zm10.914-7.943h4.629c1.777 0 2.37.036 2.463.036.129 0 .148-.019.148-.167v-.852c0-.13-.02-.148-.148-.148-.093 0-.686.037-2.463.037h-4.981c.11-.964.167-1.962.186-3 .018-.853.055-1.203.147-1.389.055-.129.11-.203.11-.352 0-.093-.073-.167-.259-.203a14.21 14.21 0 00-1.315-.112c.093.555.112 1.056.093 2.092-.019 1.055-.055 2.037-.148 2.963h-4.37c-1.776 0-2.37-.038-2.462-.038-.13 0-.148.02-.148.148v.853c0 .148.019.166.148.166.093 0 .684-.036 2.463-.036h4.24c-.203 1.334-.536 2.518-1.074 3.63-1.074 2.222-3.037 4.184-6.166 5.481.241.167.482.37.685.63.129.185.185.259.278.259.074 0 .148-.036.297-.093 2.852-1.426 4.703-3.185 5.98-5.813.445-.926.779-1.982 1.018-3.13 1.203 3.98 3.89 7.203 7.091 8.888.13.074.222.112.279.112.093 0 .148-.074.26-.279.185-.296.425-.574.666-.777-3.759-1.481-6.462-5.037-7.647-8.906zm25.671 3.962c-.093 0-.667.036-2.408.036h-4.926v-.222c0-.297 0-.5.019-.63 1.167-.666 2.11-1.276 2.852-1.87.426-.351.592-.425.776-.48.112-.037.186-.112.186-.241 0-.13-.112-.315-.371-.574-.296-.296-.407-.389-.519-.389-.074 0-.13.02-.186.037-.055.018-.185.036-.48.036h-5.186c-1.741 0-2.315-.036-2.407-.036-.129 0-.148.018-.148.147v.76c0 .13.02.148.148.148.093 0 .667-.036 2.407-.036h4.98a16.075 16.075 0 01-2.407 1.703 9.906 9.906 0 00-.944-.186c.093.464.13 1.018.13 1.834h-5.056c-1.74 0-2.315-.036-2.406-.036-.13 0-.148.019-.148.148v.815c0 .129.019.147.148.147.093 0 .667-.036 2.406-.036h5.055v3.204c0 .593-.278.722-.815.722-.76 0-1.277-.036-1.926-.112.167.222.297.574.388.853.093.37.093.35.445.35 1.723.038 2.185-.055 2.574-.295.37-.26.5-.555.5-1.204 0-.443-.02-1.203-.02-1.591v-1.927h4.927c1.74 0 2.315.036 2.408.036.129 0 .147-.018.147-.147v-.815c.005-.13-.013-.15-.143-.15z" fill="#fff"/><path d="M58.821 82.692c-1.796 0-2.444-.037-2.555-.037-.13 0-.148.019-.148.129 0 .111.036.388.036 1.017v.648c0 1.63-.036 1.87-.036 1.982 0 .129.018.148.148.148h.852c.129 0 .148-.019.148-.148v-2.759h12.757v2.759c0 .129.019.148.148.148h.833c.148 0 .167-.019.167-.148 0-.093-.036-.334-.036-1.982v-.76c0-.517.036-.814.036-.907 0-.11-.019-.129-.167-.129-.093 0-.74.038-2.556.038h-.777c.463-.686.777-1.241 1.11-1.87.094-.167.241-.352.353-.426.093-.055.13-.13.13-.203 0-.093-.056-.167-.205-.241a5.009 5.009 0 00-1.092-.388 3.364 3.364 0 01-.24.85c-.334.796-.685 1.5-1.204 2.278h-7.702v.001z" fill="#fff"/><path d="M59.488 82.395c.055 0 .112-.036.24-.093l.5-.24c.222-.112.241-.112.167-.24a14.996 14.996 0 00-1.388-2.074c-.093-.11-.148-.11-.353-.019l-.462.203c-.222.093-.24.148-.167.241.482.593 1.018 1.389 1.351 2.092.038.094.057.13.112.13zm4.296-.315l.5-.185c.24-.112.26-.112.203-.24a11.739 11.739 0 00-1.148-2.185c-.074-.112-.13-.112-.315-.037l-.5.167c-.203.074-.26.112-.167.24.426.668.777 1.28 1.075 2.185.056.167.092.167.352.056zm14.3-.221a13.313 13.313 0 00-2.463-2c-.111-.073-.166-.055-.295.093l-.408.427c-.166.166-.166.204-.056.278.76.481 1.722 1.315 2.463 2.13.111.111.148.092.297-.075l.407-.5c.147-.168.147-.243.055-.353zm11.98 5.758c-.112 0-.76.036-2.63.036H84.25v-3.37h2.333c1.815 0 2.426.037 2.518.037.13 0 .148-.019.148-.148v-.777c0-.129-.018-.148-.148-.148-.092 0-.703.037-2.518.037H84.25v-1.37c0-1.11.056-1.61.112-1.778.055-.147.093-.221.093-.333 0-.074-.093-.148-.222-.167a11.208 11.208 0 00-1.203-.093c.093.648.112 1.167.112 2.407v1.334H81.55c-1.815 0-2.408-.037-2.5-.037-.129 0-.147.02-.147.148v.777c0 .13.019.148.148.148.092 0 .685-.036 2.499-.036h1.591v3.369h-2.463c-1.87 0-2.518-.036-2.63-.036-.128 0-.147.018-.147.147v.777c0 .148.019.167.148.167.111 0 .76-.036 2.63-.036h1.61c-.519 1.944-1.167 3.611-1.87 5.203l-.667.055c-.536.036-1.13.056-1.889.056.074.389.186.796.296 1.166.036.129.13.24.24.24.112 0 .186-.073.296-.129.093-.055.241-.111.76-.166 3.111-.352 5.61-.667 8.536-1.148a21.57 21.57 0 011 1.703c.055.129.093.129.333-.036l.52-.334c.185-.129.185-.166.128-.277-1.055-1.777-2.11-3.258-3.425-4.685-.074-.074-.13-.074-.26.019l-.462.278c-.205.13-.222.186-.112.296a26.356 26.356 0 011.685 2.13 86.864 86.864 0 01-5.758.721 43.37 43.37 0 001.889-5.092h3.906c1.87 0 2.518.036 2.63.036.112 0 .129-.019.129-.167v-.777c0-.129-.019-.147-.129-.147zm-13.406-.463l.445-.519c.112-.129.112-.166.019-.26-.815-.776-1.722-1.407-2.61-1.943-.112-.055-.186-.055-.297.093l-.388.462c-.13.148-.148.186-.019.26.834.519 1.777 1.24 2.537 2.036.11.112.127.093.313-.129zm.519 2.833c-.26-.186-.445-.315-.63-.555-.518 1.833-1.11 3.314-1.684 4.444-.278.555-.481.927-.833 1.37.333.26.574.426.888.61.13.074.205.093.279.093.074 0 .129-.093.148-.221.019-.167.148-.446.314-.834.557-1.296 1.186-2.833 1.685-4.35.11-.372.11-.39-.167-.557zm23.609-7.37c.018-.315.018-.63.018-.963 0-.464.074-.833.167-1.038.057-.129.112-.222.112-.37 0-.112-.112-.185-.26-.223a11.057 11.057 0 00-1.388-.147c.092.647.111 1.184.129 2.203.074 5.314-2.482 10.165-7.444 12.554.24.167.48.388.685.667.13.185.186.278.26.278.074 0 .148-.056.278-.129 3.76-2.13 6.277-5.536 7.054-10.184.686 3.723 2.685 7.518 6.887 10.203.129.093.205.129.279.129.074 0 .129-.074.24-.26.167-.295.389-.555.648-.76-4.852-2.739-6.925-6.98-7.665-11.96zm33.25 7.906c0-.147-.019-.166-.148-.166-.112 0-.76.036-2.63.036h-3.906c.278-.61.519-1.26.759-2.037h1.741c1.741 0 2.352.037 2.444.037.129 0 .148-.02.148-.148 0-.093-.037-.408-.037-1.37v-1.37c0-.945.037-1.26.037-1.353 0-.129-.019-.148-.148-.148-.092 0-.703.037-2.444.037h-4.128c-1.741 0-2.334-.037-2.444-.037-.13 0-.148.02-.148.148 0 .093.036.408.036 1.353v1.37c0 .962-.036 1.277-.036 1.37 0 .129.018.147.148.147.11 0 .703-.036 2.444-.036h1.222c-.186.63-.463 1.351-.777 2.037h-1.796c-1.889 0-2.556-.036-2.649-.036-.129 0-.148.019-.148.166 0 .093.036.482.036 1.592v1.093c0 2.259-.036 2.611-.036 2.721 0 .112.019.13.148.13h.871c.112 0 .129-.02.129-.13v-.777h10.165v.703c0 .112.019.13.148.13h.852c.13 0 .148-.02.148-.13 0-.111-.037-.462-.037-2.703V91.91c-.002-.906.036-1.295.036-1.388zm-9.795-5.572h7.091v2.518h-7.091v-2.518zm8.647 9.239h-10.165v-2.852h10.165v2.852z" fill="#fff"/><path d="M135.276 81.544c0-.13-.019-.148-.148-.148-.112 0-.741.036-2.555.036h-4.37v-.26c0-.833.019-1.11.092-1.295.037-.13.093-.203.093-.334 0-.074-.074-.148-.222-.166a18.634 18.634 0 00-1.203-.074c.112.445.129.926.129 1.889v.24h-4.054c-1.815 0-2.445-.036-2.555-.036-.129 0-.148.019-.148.148 0 .093.037.371.037 1v.63c0 1.648-.037 1.87-.037 1.962 0 .13.019.148.148.148h.851c.129 0 .148-.019.148-.148v-2.722h12.647v2.722c0 .13.019.148.148.148h.851c.129 0 .148-.019.148-.148 0-.093-.037-.333-.037-1.963v-.74c0-.52.037-.796.037-.89zm17.926.572c.055 0 .11-.036.222-.11l.352-.24c.222-.149.241-.186.167-.298-.426-.61-.87-1.148-1.389-1.61-.111-.112-.111-.13-.314 0l-.371.221c-.222.13-.241.167-.129.26a9.04 9.04 0 011.333 1.648c.054.074.073.129.129.129zm-10.037 8.499c0-.26.019-.5.074-.703-.556.315-1.13.593-1.704.834v-5.37h.129c1.167 0 1.499.037 1.611.037.129 0 .148-.02.148-.148v-.777c0-.13-.019-.148-.148-.148-.112 0-.445.038-1.611.038h-.129v-2.223c0-1.24.055-1.703.112-1.926.055-.13.093-.222.093-.315s-.093-.148-.222-.167a9.815 9.815 0 00-1.203-.11c.129.722.148 1.241.148 2.555v2.184h-.296c-1.186 0-1.518-.038-1.611-.038-.129 0-.148.02-.148.148v.777c0 .13.019.148.148.148.093 0 .426-.036 1.611-.036h.296v5.796l-.741.24c-.574.184-.963.26-1.482.334.093.37.203.722.315 1.017.056.13.129.205.204.205.093 0 .167-.074.241-.13.074-.056.24-.147.629-.295 1.093-.389 2.241-.871 3.204-1.389.332-.185.332-.148.332-.538z" fill="#fff"/><path d="M154.923 92.19c-.222-.112-.481-.26-.648-.464-.112 1.592-.26 2.575-.61 2.575-.445 0-1.296-.927-1.963-3.037.648-1.093 1.203-2.37 1.684-3.962.186-.63.26-.872.389-1.037.093-.129.148-.204.148-.296 0-.111-.074-.204-.222-.259a7.15 7.15 0 00-1-.333 10.308 10.308 0 01-.334 1.796c-.295 1.036-.629 1.962-1.055 2.777-.481-1.851-.741-3.888-.851-6.313h1.537c1.815 0 2.425.036 2.536.036.129 0 .148-.019.148-.148v-.777c0-.129-.019-.129-.148-.129-.111 0-.721.02-2.536.02h-1.575v-1.26c0-.89.057-1.204.112-1.334a.896.896 0 00.093-.353c0-.073-.055-.147-.241-.185a7.632 7.632 0 00-1.148-.13c.093.685.112 1.538.112 2.278 0 .334 0 .667.018.982h-2.629c-1.815 0-2.463-.02-2.556-.02-.129 0-.148 0-.148.13 0 .112.036.667.036 2.092 0 1.944-.019 3.647-.278 5.295-.333 2.056-1.279 3.797-2.463 5.036.241.093.5.241.722.427.129.111.186.185.259.185.056 0 .112-.074.203-.222 1.037-1.333 1.982-3.184 2.297-5.036a25.18 25.18 0 00.314-3.351h2.315c0 1.574-.166 3.13-.295 3.666-.148.481-.334.61-.722.61-.371 0-.741-.055-1.296-.148.111.26.166.5.204.777.036.353.055.353.296.389.333.036.667.036 1.074.036.593 0 1.167-.314 1.315-.926.24-.796.407-2.147.464-4.129.019-.333.019-.686.055-1.13 0-.128-.036-.166-.167-.166-.112 0-.333.036-1.222.036h-2v-2.555h4.259c.129 2.703.481 5.332 1.185 7.536-1.167 1.704-2.758 2.888-4.796 3.833.221.112.445.296.611.5.129.148.186.222.279.222.055 0 .147-.056.295-.129 1.667-.888 2.963-1.908 4-3.278.87 2.297 1.908 3.278 2.704 3.278.814 0 1.277-.629 1.5-2.888.036-.35.036-.37-.261-.517zm11.342-6.443h4.629c1.777 0 2.37.036 2.463.036.129 0 .148-.019.148-.167v-.852c0-.13-.019-.148-.148-.148-.093 0-.686.037-2.463.037h-4.981c.111-.964.166-1.962.185-3 .019-.853.055-1.203.148-1.389.055-.129.112-.203.112-.352 0-.093-.074-.167-.26-.203a14.188 14.188 0 00-1.315-.112c.093.555.112 1.056.093 2.092-.019 1.055-.055 2.037-.148 2.963h-4.369c-1.777 0-2.37-.038-2.463-.038-.129 0-.148.02-.148.148v.853c0 .148.019.166.148.166.093 0 .686-.036 2.463-.036h4.24c-.203 1.334-.536 2.518-1.074 3.63-1.074 2.222-3.037 4.184-6.167 5.481.241.167.482.37.686.63.129.185.186.259.278.259.074 0 .148-.036.296-.093 2.852-1.426 4.703-3.185 5.98-5.813.445-.926.778-1.982 1.018-3.13 1.203 3.98 3.889 7.203 7.091 8.888.129.074.222.112.279.112.092 0 .147-.074.259-.279a3.44 3.44 0 01.667-.777c-3.759-1.481-6.463-5.037-7.647-8.906zm14.145-3.352c.055 0 .112-.036.241-.093l.5-.24c.222-.112.241-.112.167-.24a15.089 15.089 0 00-1.389-2.074c-.093-.11-.148-.11-.352-.019l-.463.203c-.221.093-.24.148-.166.241.481.593 1.017 1.389 1.351 2.092.037.094.056.13.111.13z" fill="#fff"/><path d="M177.042 86.432c0 .13.018.148.147.148h.853c.129 0 .148-.019.148-.148v-2.758h12.758v2.758c0 .13.019.148.148.148h.833c.148 0 .167-.019.167-.148 0-.092-.038-.333-.038-1.981v-.76c0-.519.038-.815.038-.907 0-.11-.019-.13-.167-.13-.092 0-.74.038-2.554.038h-.778c.464-.684.778-1.24 1.11-1.87.093-.166.241-.352.352-.426.093-.055.129-.129.129-.203 0-.093-.055-.167-.203-.24a5.03 5.03 0 00-1.093-.389 3.383 3.383 0 01-.24.852c-.334.796-.686 1.5-1.203 2.278h-7.704c-1.796 0-2.444-.038-2.556-.038-.129 0-.147.019-.147.13 0 .11.037.388.037 1.018v.648c-.001 1.628-.037 1.869-.037 1.98z" fill="#fff"/><path d="M184.707 82.08l.5-.185c.241-.112.26-.112.204-.24a11.63 11.63 0 00-1.148-2.185c-.074-.112-.129-.112-.314-.037l-.5.167c-.205.074-.26.112-.167.24.426.668.777 1.28 1.074 2.185.054.167.091.167.351.056zm7.814 7.629c-.093 0-.667.036-2.408.036h-4.926v-.222c0-.297 0-.5.019-.63 1.167-.666 2.111-1.276 2.851-1.87.425-.351.593-.425.777-.48.112-.037.186-.112.186-.241 0-.13-.112-.315-.37-.574-.296-.296-.407-.389-.517-.389-.074 0-.129.02-.186.037-.055.018-.185.036-.481.036h-5.186c-1.741 0-2.313-.036-2.406-.036-.129 0-.148.018-.148.147v.76c0 .13.019.148.148.148.093 0 .667-.036 2.406-.036h4.981a16.082 16.082 0 01-2.406 1.703 9.845 9.845 0 00-.945-.186c.093.464.129 1.018.129 1.834h-5.055c-1.741 0-2.315-.036-2.406-.036-.129 0-.148.019-.148.148v.815c0 .129.019.147.148.147.092 0 .666-.036 2.406-.036h5.055v3.204c0 .593-.278.722-.815.722-.759 0-1.277-.036-1.925-.112.167.222.296.574.389.853.092.37.092.35.445.35 1.722.038 2.184-.055 2.574-.295.37-.26.499-.555.499-1.204 0-.443-.019-1.203-.019-1.591v-1.927h4.926c1.741 0 2.315.036 2.408.036.129 0 .148-.018.148-.147v-.815c0-.13-.019-.15-.148-.15zM22.545 61.364c-7.564 0-9.114-2.734-9.114-10.573V5.588h.181l18.683 58.875h3.19l19.413-59.24h.183v50.126c0 4.375-1.55 6.015-8.202 6.015v3.097h26.43v-3.097c-7.382 0-8.931-1.64-8.931-6.015V10.874c0-4.375 1.55-6.015 8.11-6.015v-3.1h-20.14l-15.22 46.662h-.183L22.09 1.76H.673v3.1c7.381 0 8.931 1.639 8.931 6.014V50.79c0 7.839-1.55 10.573-8.931 10.573v3.097h21.874v-3.097h-.002zm96.422-47.848c3.371-6.38 4.556-8.657 11.118-8.657v-3.1h-20.87v3.1c5.74 0 7.747 1.093 7.747 3.007 0 4.647-10.847 21.6-12.577 25.426-1.55-4.1-12.212-22.237-12.212-25.335 0-2.188 2.187-3.098 7.654-3.098v-3.1h-25.88v3.1c4.738 0 6.47.73 8.93 5.56l13.945 27.433v17.497c0 4.375-1.55 6.015-9.48 6.015v3.097h28.618v-3.097c-8.293 0-9.843-1.64-9.843-6.015V37.85l12.85-24.334zM173.351 1.76v3.1c8.839 0 9.751 3.826 9.751 8.748V44.41c0 10.207-5.013 18.046-18.317 18.046-10.026 0-14.856-5.286-14.856-15.038V10.874c0-4.374 1.549-6.015 8.748-6.015v-3.1h-26.794v3.1c7.201 0 8.75 1.641 8.75 6.015v36.273c0 12.758 9.023 18.41 23.057 18.41 13.124 0 22.693-7.291 22.693-20.415V13.608c0-4.922.912-8.749 8.931-8.749v-3.1h-21.963zm40.934 49.545h-5.231v-2.138h5.231V43.6h2.268v5.567h5.232v2.138h-5.232v5.567h-2.268v-5.567zm36.026-3.504c1.752 5.361 5 9.716 9.869 11.751-.593.516-1.392 1.52-1.779 2.243-4.818-2.243-7.937-6.416-9.947-11.88-1.315 4.665-4.097 9.123-9.948 11.88-.387-.644-1.16-1.495-1.829-2.01 6.133-2.681 8.632-7.32 9.663-11.984h-9.149v-2.474h9.587c.309-2.578.284-5.05.309-7.112h2.602c-.026 2.087-.052 4.56-.361 7.112h10.385V47.8h-9.402zm38.473 7.035h-10.153v4.304c0 1.315-.335 1.985-1.392 2.346-1.057.335-2.577.36-4.819.36-.179-.669-.643-1.649-1.004-2.319 1.803.077 3.608.077 4.123.053.516-.026.643-.13.643-.517v-4.225h-10.05V52.62h10.05v-1.78h1.211a20.448 20.448 0 002.912-1.932h-9.792V46.82h12.085l.516-.129 1.547 1.16c-1.547 1.65-3.814 3.298-6.03 4.433v.335h10.153v2.216zm-19.972-6.57h-2.242v-5.902h3.711c-.464-.928-1.263-2.088-2.011-2.963l2.061-.928c.928 1.03 1.959 2.474 2.397 3.453l-.928.438h4.768c-.361-1.031-1.108-2.449-1.803-3.53l2.087-.773c.876 1.16 1.753 2.783 2.087 3.814l-1.262.49h4.355c.901-1.186 1.906-2.81 2.499-4.02l2.525.799a45.55 45.55 0 01-2.396 3.221h3.737v5.902h-2.37v-3.79h-17.215v3.788zm32.857-8.17c-.722 2.164-1.624 4.845-2.449 6.855 1.753 2.036 2.139 3.815 2.139 5.361 0 1.469-.309 2.552-1.057 3.066a3.48 3.48 0 01-1.392.516c-.49.053-1.107.053-1.7.026-.026-.593-.206-1.494-.567-2.061.541.052.98.052 1.315.026.308 0 .567-.077.798-.232.361-.258.464-.875.464-1.623 0-1.29-.411-2.964-2.087-4.82.644-1.726 1.315-4.019 1.803-5.772h-2.757v20.41h-2.114V39.271h5.67l.361-.077 1.573.902zm12.37 19.3c.464 0 .567-.411.619-3.091.464.387 1.417.746 2.035.901-.206 3.427-.799 4.329-2.396 4.329h-2.011c-1.958 0-2.422-.696-2.422-2.886V52.36h-2.475c-.361 4.768-1.418 7.808-6.262 9.484-.206-.567-.825-1.468-1.315-1.855 4.149-1.34 5.024-3.738 5.282-7.629h-3.144v-2.19h14.379v2.19h-4.201v6.263c0 .696.077.773.541.773h1.37zm-6.443-18.321v-2.81h2.32v2.81h6.416v4.818h-2.035v1.83h-10.668v-1.83h-1.959v-4.818h5.926zm6.52 2.061h-10.309v2.5h10.309v-2.5zm29.867 11.494h-2.681v4.51h-2.422v-1.107h-5.489v1.34c0 1.314-.334 1.855-1.21 2.19-.876.308-2.216.334-4.381.334-.129-.54-.49-1.417-.825-1.932 1.418.052 2.963.052 3.377.026.463-.026.619-.155.619-.593v-1.365h-8.04v-1.804h8.04v-1.597h-10.309V52.75h10.309v-1.468h-7.808v-1.7h7.808V48.06h-7.138v-4.744h7.138v-1.315h-9.767V40.07h9.767v-1.882h2.422v1.882h10.05v1.932h-10.05v1.315h7.499v4.742h-7.499v1.52h7.911v3.171h2.68v1.88h-.001zm-13.014-8.17v-1.547h-4.845v1.547h4.845zm2.422-1.545v1.547h5.077v-1.547h-5.077zm0 7.834h5.489V51.28h-5.489v1.469zm5.489 1.881h-5.489v1.598h5.489V54.63zm24.069 1.237c2.267 1.598 5.592 2.913 8.735 3.505-.541.517-1.236 1.495-1.597 2.139-3.35-.902-6.804-2.629-9.226-4.845v5.18h-2.345v-5c-2.449 2.061-5.928 3.737-9.149 4.639-.361-.62-1.031-1.521-1.572-2.036 3.066-.643 6.417-1.984 8.685-3.582h-7.963v-2.01h9.999v-1.572h-7.602v-1.803h7.602v-1.547h-8.865v-1.906h5.282c-.231-.722-.669-1.65-1.082-2.346l.619-.103h-5.85v-2.01h3.814c-.387-1.005-1.159-2.423-1.881-3.48l2.087-.696c.799 1.108 1.701 2.68 2.062 3.686l-1.315.49h2.834v-4.407h2.242v4.407h2.552v-4.407h2.267v4.407h2.783l-.98-.31c.619-1.03 1.418-2.654 1.804-3.813l2.474.619c-.696 1.262-1.468 2.551-2.138 3.505h3.711v2.01h-4.972a80.868 80.868 0 01-1.443 2.45h5.464v1.905h-9.122v1.547h7.91v1.803h-7.91v1.572h10.153v2.01h-8.067zm-6.622-11.287c.463.748.927 1.675 1.107 2.294l-.748.155h5.438c.387-.696.799-1.624 1.133-2.449h-6.93zm26.67 9.096c-.335-.824-1.083-2.242-1.753-3.453V61.82h-2.216v-10.9c-.773 2.449-1.727 4.716-2.758 6.184-.232-.643-.798-1.546-1.133-2.06 1.52-2.114 2.989-5.928 3.685-9.2h-3.145v-2.217h3.351v-5.438h2.216v5.438h2.757v2.217h-2.757v1.52c.722.954 2.628 3.865 3.041 4.56l-1.288 1.753zm16.234 4.046h-1.52v1.7c0 1.084-.232 1.625-.98 1.986-.747.284-1.907.308-3.556.308-.103-.566-.387-1.391-.644-1.932 1.083.052 2.19.052 2.525.026.309 0 .412-.103.412-.412v-1.674h-8.066v3.994h-2.19v-3.994h-1.65v-1.803h1.65v-6.443h5.05v-1.262H384v-1.779h3.376v-1.444h-2.267v-1.676h2.267V41.9h-2.809v-1.727h2.809v-1.985h2.243v1.985h3.53v-1.985h2.242v1.985h3.066V41.9h-3.066v1.417h2.681v1.675h-2.681v1.444h3.582v1.778h-6.545v1.263h5.283v6.442h1.52v1.803zm-11.827-6.52v1.468h2.86v-1.468h-2.86zm0 4.716h2.86V54.32h-2.86v1.598zm2.216-12.6h3.53V41.9h-3.53v1.417zm0 3.117h3.53v-1.443h-3.53v1.444zm2.808 4.767v1.468h3.042v-1.468h-3.042zm3.042 4.716V54.32h-3.042v1.598h3.042zm12.73-2.602v-6.03c-1.005 1.855-2.243 3.53-3.506 4.612-.361-.54-1.082-1.289-1.571-1.7 1.803-1.289 3.608-3.762 4.69-6.21h-4.072v-2.036h4.457v-3.685h2.27v3.685h3.865v2.035h-3.865v1.237c.979.593 3.53 2.448 4.201 2.938l-1.288 1.959c-.619-.644-1.856-1.779-2.913-2.68v5.849l-2.268.026zm-4.793 6.081c1.005-1.365 1.856-3.505 2.346-5.282l2.113.85c-.516 1.78-1.339 4.073-2.293 5.515l-2.166-1.083zm14.689-.232c1.211 0 1.392-.36 1.547-2.938.516.387 1.495.722 2.165.875-.335 3.403-1.005 4.202-3.53 4.202h-5.025c-3.092 0-3.891-.644-3.891-2.913v-3.839h2.37v3.815c0 .695.259.798 1.727.798h4.637zm-3.582-6.571c1.16 1.083 2.732 2.602 3.53 3.53l-1.752 1.468c-.722-.953-2.268-2.551-3.427-3.71l1.649-1.288zm11.055.413H415.39V39.53h10.179v13.477zm-2.293-11.545h-5.696v1.959h5.696v-1.959zm0 3.788h-5.696v2.01h5.696v-2.01zm0 3.814h-5.696V51.1h5.696v-2.035zm.49 4.664c1.057 1.597 2.475 3.788 3.144 5.102l-2.216 1.134c-.619-1.34-1.985-3.608-3.015-5.256l2.087-.98zm29.686 1.108h-10.154v4.304c0 1.315-.335 1.985-1.391 2.346-1.057.335-2.578.36-4.819.36-.18-.669-.644-1.649-1.005-2.319 1.804.077 3.608.077 4.123.053.516-.026.644-.13.644-.517v-4.225h-10.051V52.62h10.051v-1.78h1.21a20.402 20.402 0 002.913-1.932h-9.793V46.82h12.086l.516-.129 1.547 1.16c-1.547 1.65-3.814 3.298-6.031 4.433v.335h10.154v2.216zm-19.972-6.57h-2.243v-5.902h3.711c-.464-.928-1.262-2.088-2.01-2.963l2.061-.928c.928 1.03 1.958 2.474 2.396 3.453l-.928.438h4.768c-.361-1.031-1.107-2.449-1.803-3.53l2.087-.773c.876 1.16 1.753 2.783 2.088 3.814l-1.263.49h4.355c.902-1.186 1.906-2.81 2.499-4.02l2.526.799a45.559 45.559 0 01-2.397 3.221h3.737v5.902h-2.37v-3.79H433.48v3.788zm24.481-8.763h9.123v2.164h-3.865c-.387 1.959-.876 3.865-1.495 5.67h4.974v11.339h-5.05v1.985h-2.011v-8.71c-.387.644-.773 1.237-1.21 1.779-.103-.62-.593-2.062-.954-2.707 1.7-2.293 2.809-5.695 3.479-9.354h-2.989v-2.166h-.002zm6.674 9.972h-2.989v7.087h2.989v-7.087zm16.699 1.47h-2.783v10.9h-2.294v-10.9h-3.659c-.129 3.866-.798 8.143-3.582 11.029-.412-.387-1.289-1.083-1.829-1.392 2.448-2.551 3.041-6.339 3.169-9.637h-2.655v-2.267h2.681v-6.906h-1.985v-2.243h12.421v2.243h-2.267v6.906h2.783v2.267zm-5.077-2.269V41.77h-3.633v6.906h3.633zm30.048 10.644c.643 0 .748-.438.85-3.737.517.438 1.598.851 2.268 1.03-.232 4.02-.876 5.051-2.834 5.051h-2.5c-2.216 0-2.86-.696-2.86-3.169v-4.639h-4.328c-.541 3.016-2.629 6.185-9.535 8.066-.361-.566-1.057-1.442-1.623-1.958 5.952-1.572 7.989-3.917 8.632-6.108h-6.803v-2.242h7.087V48.65h2.397v2.963h6.674v6.855c0 .748.129.851.748.851h1.827zm-10.668-16.698c-.541 4.096-2.088 6.494-8.195 7.757-.206-.567-.773-1.495-1.263-1.933 5.309-.927 6.519-2.706 6.958-5.823h-4.098v2.707h-2.396v-4.845h9.637v-2.32h2.449v2.32h9.818v4.613h-2.525v-2.476h-4.536v4.046c0 .67.129.748.978.748h2.707c.67 0 .799-.232.875-1.856.49.361 1.469.722 2.114.825-.258 2.5-.902 3.144-2.706 3.144h-3.298c-2.475 0-3.042-.643-3.042-2.834v-4.073h-3.477zm27.005 11.338c-.361-.773-1.237-2.217-2.011-3.402V61.82h-2.319V51.383c-.954 2.346-2.114 4.536-3.298 6.005-.232-.644-.799-1.624-1.16-2.217 1.521-1.752 3.17-4.819 4.123-7.551h-3.788v-2.243h4.123v-3.451c-1.108.206-2.217.36-3.248.516-.076-.516-.411-1.366-.669-1.856 2.886-.464 6.184-1.21 8.195-2.087l1.365 1.958c-.978.387-2.113.696-3.324.979v3.943h3.608v2.242h-3.608v.361c.773.8 2.963 3.427 3.453 4.097l-1.442 1.88zm12.087 1.262v6.597h-2.37v-6.184l-8.118 1.366-.361-2.294 8.477-1.418v-15.1h2.371v14.713l2.809-.464.361 2.243-3.169.54zm-5.619-3.478c-.851-1.107-2.731-2.757-4.304-3.84l1.521-1.392c1.547 1.031 3.505 2.578 4.407 3.66l-1.624 1.572zm.645-6.778c-.772-1.083-2.525-2.655-3.994-3.738l1.572-1.365c1.468 1.004 3.247 2.499 4.097 3.582l-1.675 1.52zm37.339-6.029a54.708 54.708 0 01-1.985 5.024V61.82h-2.267V48.161c-.67 1.057-1.339 2.01-2.061 2.86-.206-.593-.851-1.932-1.211-2.525 2.139-2.5 4.123-6.314 5.309-10.18l2.215.62zm14.38 3.89a14.383 14.383 0 01-3.195 4.123c1.675.902 3.685 1.598 6.031 2.011-.412.49-1.031 1.366-1.315 1.959-2.525-.567-4.665-1.521-6.442-2.655-1.803 1.237-3.917 2.164-6.21 2.86-.232-.437-.825-1.21-1.263-1.7v8.169h-2.087V41.307h2.087v3.427c1.856-1.65 3.479-4.046 4.407-6.571l2.19.54a18.865 18.865 0 01-1.004 2.19h8.814v1.933h-2.013v.002zm-12.395 6.392c2.113-.516 4.046-1.263 5.695-2.267a14.383 14.383 0 01-2.37-2.526 18.466 18.466 0 01-1.906 2.036 20.628 20.628 0 00-1.418-1.134v3.891h-.001zm14.508 6.725c-2.578 3.041-7.267 4.819-12.602 5.773-.258-.567-.773-1.392-1.237-1.882 4.974-.722 9.535-2.217 11.777-4.742l2.062.851zm-4.871-5.36c-1.598 1.598-4.175 2.887-6.571 3.66-.309-.412-.851-1.031-1.315-1.392 2.216-.62 4.742-1.727 6.081-3.015l1.805.748zm2.422 2.37c-1.984 2.191-5.385 3.738-8.838 4.666-.284-.464-.773-1.134-1.186-1.547 3.195-.722 6.545-2.061 8.245-3.84l1.779.722zm-7.576-10.126l-.026.026c.696 1.03 1.65 2.035 2.886 2.938a11.215 11.215 0 002.552-2.963h-5.412v-.001zm27.058 5.642v9.69h8.942v2.397h-20.23V58.16h8.735v-9.69h-10.153V46.1h10.153v-7.86h2.552v7.86h10.308v2.37H600.62zm23.888-2.19h5.928v2.19h-5.928v2.294h5.154v6.777c0 .98-.155 1.598-.825 1.958-.67.361-1.65.387-2.989.361-.052-.593-.335-1.468-.644-2.035.928.026 1.701.026 1.959 0 .258 0 .335-.077.335-.335v-4.587h-2.99v8.942h-2.267v-8.941h-2.809v6.88h-2.138v-9.02h4.947V48.47h-6.056v-2.19h1.778c-.49-.284-1.444-.619-2.01-.825 1.133-1.7 1.984-4.252 2.474-6.7l2.243.464c-.206.85-.438 1.726-.67 2.551h2.243v-3.427h2.267v3.427h4.921v2.165h-4.921v2.345h-.002zm-2.267 0v-2.345h-3.015c-.335.875-.722 1.7-1.134 2.345h4.149zm11.983 8.427h-2.216v-14.25h2.216v14.25zm4.639-16.158v20.23c0 1.442-.309 2.114-1.16 2.525-.825.412-2.267.464-4.201.464-.103-.644-.438-1.752-.773-2.448 1.443.052 2.835.052 3.274.026.411 0 .54-.13.54-.54V38.548h2.32zm12.394.464a40.808 40.808 0 01-2.551 5.386v17.394h-2.422V48.188a23.163 23.163 0 01-2.114 2.526c-.232-.593-.928-1.933-1.339-2.475 2.448-2.422 4.741-6.184 6.133-9.947l2.293.721zm7.782 5.696v3.273h7.009v2.19h-7.009V53.6h7.37v2.242h-7.37v5.979h-2.448V44.709h-1.444c-1.083 2.01-2.267 3.814-3.505 5.18-.388-.412-1.315-1.263-1.856-1.624 2.267-2.37 4.329-6.081 5.567-9.792l2.293.619a53.385 53.385 0 01-1.339 3.324h10.359v2.293h-7.627zm31.517 10.745c-1.134.875-2.551 1.7-3.788 2.37 1.442.954 3.195 1.674 5.232 2.087-.516.438-1.108 1.366-1.418 1.959-4.56-1.134-7.602-3.711-9.381-7.602h-2.731v4.329c1.598-.232 3.298-.517 5-.773l.077 2.087c-3.427.567-7.061 1.16-9.742 1.572l-.361-2.19c.825-.103 1.779-.233 2.81-.388v-4.639h-2.989v-2.01h4.328v-2.243h-3.582v-2.035h3.582v-2.062h-4.304v.954c0 4.407-.361 10.823-3.041 14.998-.464-.387-1.521-1.004-2.114-1.236 2.552-3.97 2.758-9.663 2.758-13.762v-7.525h19.378v6.572h-3.658v2.06h4.045v2.036h-4.045v2.243h5.102v2.01h-2.886l1.728 1.188zm-17.265-11.596h14.586V41.41h-14.586v2.448zm6.493 4.123h4.586v-2.062h-4.586v2.062zm0 4.278h4.586v-2.243h-4.586v2.243zm3.685 2.01a10.05 10.05 0 001.803 2.346c1.186-.696 2.525-1.598 3.427-2.346h-5.23zM529.29 17.86h-10.333v5.928h-2.474v-5.927h-10.077v-2.293h10.077v-1.701h1.649a11.6 11.6 0 00-1.597-1.315c2.654-1.468 4.665-3.866 5.593-6.83l2.422.465a14.728 14.728 0 01-1.16 2.68c1.856 1.237 4.123 2.886 5.283 3.994l-1.676 1.779c-1.031-1.031-3.041-2.602-4.845-3.891a14.734 14.734 0 01-3.221 3.118h.026v1.7h10.333v2.294zm-13.735-5.051c-.644-.644-1.803-1.598-2.886-2.396-1.16 1.778-2.578 3.297-4.123 4.406-.387-.411-1.392-1.236-1.932-1.597 2.628-1.624 4.638-4.355 5.617-7.55l2.422.54a19.434 19.434 0 01-.98 2.397c1.186.799 2.578 1.803 3.324 2.5l-1.442 1.7zm12.989-7.215h-21.467V3.3h9.406V.156h2.474v3.145h9.587v2.293zm17.883 12.241c2.267 1.598 5.592 2.912 8.735 3.505-.541.516-1.236 1.495-1.597 2.138-3.35-.901-6.804-2.628-9.226-4.844v5.18h-2.345v-5c-2.449 2.06-5.928 3.737-9.149 4.638-.361-.619-1.031-1.52-1.572-2.035 3.066-.644 6.417-1.985 8.685-3.582h-7.963v-2.01h9.999v-1.572h-7.602V12.45h7.602v-1.547h-8.865V8.996h5.283c-.232-.722-.67-1.65-1.083-2.345l.619-.103h-5.85v-2.01h3.814c-.387-1.005-1.159-2.423-1.881-3.48l2.087-.696c.799 1.108 1.701 2.68 2.062 3.685l-1.315.49h2.834V.13h2.241v4.407h2.551V.13h2.268v4.407h2.783l-.98-.308c.619-1.031 1.418-2.655 1.803-3.814l2.475.619c-.696 1.262-1.469 2.55-2.138 3.505h3.711v2.01h-4.974a83.16 83.16 0 01-1.442 2.449h5.463v1.905h-9.122v1.546h7.91v1.804h-7.91v1.571h10.153v2.01h-8.064zm-6.622-11.287c.463.748.927 1.674 1.107 2.293l-.748.155h5.438c.387-.695.799-1.623 1.133-2.448h-6.93zm16.725-5.077h9.122v2.165h-3.866c-.387 1.958-.876 3.864-1.495 5.67h4.974v11.338h-5.05v1.985h-2.011v-8.711c-.387.644-.773 1.236-1.212 1.779-.103-.62-.593-2.062-.954-2.707 1.701-2.293 2.81-5.696 3.479-9.354h-2.989V1.47h.002zm6.674 9.972h-2.989v7.088h2.989v-7.088zm16.698 1.47h-2.783v10.9h-2.293v-10.9h-3.659c-.129 3.865-.799 8.143-3.582 11.03-.412-.388-1.289-1.084-1.83-1.393 2.449-2.55 3.041-6.339 3.17-9.637h-2.654v-2.268h2.681V3.738h-1.985v-2.24h12.421V3.74h-2.268v6.906h2.784v2.267h-.002zm-5.076-2.268V3.738h-3.633v6.907h3.633zm27.47 10.643c.644 0 .748-.438.851-3.737.515.438 1.598.85 2.267 1.03-.232 4.02-.875 5.051-2.834 5.051h-2.499c-2.216 0-2.86-.696-2.86-3.17v-4.64h-4.33c-.541 3.016-2.628 6.185-9.534 8.067-.361-.567-1.057-1.443-1.624-1.959 5.952-1.571 7.989-3.917 8.633-6.107h-6.804V13.58h7.088v-2.96h2.396v2.963h6.674v6.855c0 .748.129.851.748.851h1.828zM591.627 4.589c-.541 4.097-2.088 6.495-8.195 7.758-.206-.567-.773-1.495-1.263-1.933 5.309-.928 6.519-2.706 6.959-5.823h-4.097v2.706h-2.396V2.45h9.637V.13h2.447v2.32h9.818v4.613h-2.525V4.589h-4.536v4.046c0 .67.129.748.979.748h2.706c.67 0 .799-.231.876-1.855.49.36 1.468.722 2.113.825-.258 2.499-.901 3.144-2.706 3.144h-3.298c-2.475 0-3.041-.644-3.041-2.834V4.589h-3.478zm21.514 7.397a2.033 2.033 0 01-4.064 0 2.033 2.033 0 014.064 0zm13.549-3.738h5.927v2.19h-5.927v2.294h5.153v6.777c0 .979-.155 1.598-.825 1.959-.669.36-1.649.387-2.989.36-.052-.592-.335-1.468-.644-2.035.928.027 1.701.027 1.959 0 .258 0 .335-.076.335-.334v-4.587h-2.989v8.941h-2.268v-8.941h-2.809v6.88h-2.138v-9.02h4.947V10.44h-6.056V8.25h1.778c-.49-.285-1.443-.62-2.01-.826 1.133-1.7 1.984-4.251 2.474-6.7l2.243.464a72.997 72.997 0 01-.67 2.551h2.243V.312h2.267v3.426h4.922v2.165h-4.922v2.345h-.001zm-2.269 0V5.903h-3.015c-.335.875-.722 1.7-1.134 2.345h4.149zm11.983 8.427h-2.217V2.425h2.217v14.25zM641.043.517v20.23c0 1.444-.309 2.114-1.16 2.526-.825.411-2.267.463-4.201.463-.103-.643-.438-1.752-.773-2.448 1.443.052 2.834.052 3.273.026.412 0 .541-.129.541-.54V.516h2.32zm10.333.464a40.932 40.932 0 01-2.551 5.386V23.76h-2.423V10.155a23.055 23.055 0 01-2.113 2.525c-.232-.593-.928-1.932-1.34-2.475 2.449-2.422 4.742-6.184 6.134-9.947l2.293.723zm7.783 5.696V9.95h7.009v2.19h-7.009v3.428h7.37v2.242h-7.37v5.979h-2.448V6.677h-1.444c-1.083 2.01-2.267 3.814-3.505 5.18-.387-.412-1.315-1.263-1.856-1.624 2.267-2.37 4.329-6.081 5.567-9.793l2.293.62a53.359 53.359 0 01-1.339 3.324h10.359v2.293h-7.627zm31.001 10.745c-1.134.875-2.552 1.7-3.788 2.37 1.442.954 3.195 1.674 5.231 2.087-.516.438-1.107 1.366-1.417 1.959-4.561-1.134-7.602-3.711-9.381-7.602h-2.731v4.328c1.597-.232 3.298-.516 5-.772l.076 2.087c-3.426.567-7.061 1.16-9.741 1.572l-.361-2.19c.825-.104 1.779-.233 2.809-.388v-4.639h-2.989v-2.01h4.33V11.98h-3.582V9.949h3.582V7.887h-4.304v.954c0 4.407-.361 10.823-3.041 14.998-.464-.387-1.521-1.005-2.114-1.236 2.552-3.97 2.757-9.664 2.757-13.762V1.316h19.379v6.571h-3.659V9.95h4.046v2.035h-4.046v2.242h5.103v2.011h-2.886l1.727 1.185zM672.894 5.826h14.587V3.377h-14.587v2.449zm6.493 4.123h4.587V7.887h-4.587V9.95zm0 4.277h4.587v-2.242h-4.587v2.242zm3.685 2.011c.49.876 1.083 1.65 1.804 2.346 1.185-.696 2.525-1.598 3.427-2.346h-5.231zm-463.311-5.684v1.161h-11.458v-1.161h5.11V7.586h-3.678V6.437h3.678v-2.58h-2.865c-.4.774-.826 1.458-1.277 2a7.66 7.66 0 00-1.096-.721c1.045-1.098 1.859-2.865 2.336-4.671l1.238.284a22.589 22.589 0 01-.672 1.935h2.336V.282h1.238v2.4h4.489v1.175h-4.489v2.58h4.013v1.149h-4.013v2.967h5.11zm4.8-4.349c-.53-.36-1.601-.98-2.375-1.38l.658-.89c.735.361 1.833.93 2.375 1.277l-.658.993zm-2.117 4.942c.684-.968 1.677-2.62 2.425-4.078l.864.8a47.64 47.64 0 01-2.283 4.078l-1.006-.8zm2.723-8.425c-.53-.374-1.601-.993-2.362-1.42l.671-.85c.748.36 1.846.942 2.401 1.303l-.71.967zm5.366 2.438v1.91h2.657v4.967h-1.135v-.477h-4.27v.543h-1.096V7.07h2.709V5.16h-3.586V4.01h3.586V2.179c-.903.142-1.832.245-2.683.31a4.245 4.245 0 00-.348-1.006c2.206-.232 4.71-.645 6.129-1.174l.942.929c-.826.31-1.832.555-2.903.748V4.01h3.419v1.148h-3.421zm1.524 2.994h-4.271v2.322h4.271V8.153zm8.515.916c-1.445.426-2.994.877-4.194 1.2l-.258-1.135a245.37 245.37 0 001.677-.413v-2.8h-1.393v-1.06h1.393v-2.63h-1.522V1.173h4.052V2.23h-1.445v2.632h1.251v1.059h-1.251v2.502c.516-.142 1.045-.284 1.561-.426l.129 1.07zm7.225.052a11.78 11.78 0 01-1.677 1.032 5.615 5.615 0 001.948 1.02c-.271.218-.593.657-.774.942-1.458-.569-2.62-1.704-3.354-3.11l-.103.09v3.02h-1.122V9.972a13.477 13.477 0 01-2.71 1.432c-.155-.245-.477-.645-.71-.84 1.342-.425 2.851-1.237 3.91-2.116h-2.22v-2.85h6.258V8.45h-2.554c.206.4.477.774.8 1.122.49-.297 1.109-.761 1.472-1.071l.836.62zm-7.614-5.11h7.871v.98h-7.871v-.98zm7.317-.58h-6.722V.683h6.722V3.43zm-4.735-1.91h-1.006v1.058h1.006V1.52zm-.723 6.039h4.089V6.475h-4.089V7.56zm2.567-6.04h-1.045v1.06h1.045V1.52zm1.872 0h-1.058v1.06h1.058V1.52zm8.102 6.724c-1.356.658-2.839 1.342-3.974 1.871l-.426-1.187c.464-.168 1.045-.413 1.664-.671v-3.78h-1.406V3.353h1.406V.426h1.109v2.928h1.264v1.122h-1.264v3.29l1.356-.592.271 1.07zm6.335 2.76c.245 0 .297-.142.335-1.2.219.18.697.348.993.426-.103 1.445-.4 1.806-1.214 1.806h-1.148c-1.045 0-1.277-.323-1.277-1.355V8.927h-1.161c-.31 1.574-1.098 2.606-3.471 3.199-.116-.284-.439-.787-.658-1.006 2.038-.4 2.684-1.109 2.955-2.193h-1.214V4.992h6.361v3.936h-1.677v1.742c0 .298.039.335.323.335h.853v-.001zm1.174-6.62h-7.857v-.98h1.961a4.824 4.824 0 00-.426-1.134l.568-.13h-1.729V1.2h2.917V.295h1.174V1.2h3.122v.942h-1.703l.555.116c-.232.413-.426.826-.606 1.148h2.025v.98h-.001zm-5.897 2.194h4.065v-.813h-4.065v.813zm0 1.575h4.065v-.827h-4.065v.827zm.671-6.012c.206.374.387.84.452 1.161l-.4.103h2.309l-.284-.064c.169-.335.387-.826.516-1.2h-2.593zM266 4.864h8.452c.271 0 .748-.013 1.084-.064v1.33a26.76 26.76 0 00-1.084-.027h-3.329c-.052 1.367-.31 2.504-.8 3.433-.464.877-1.445 1.832-2.567 2.412l-1.187-.877c.955-.387 1.883-1.135 2.387-1.922.555-.864.722-1.885.774-3.046h-3.728c-.387 0-.813.013-1.174.04V4.8c.361.037.772.064 1.172.064zm1.601-3.252h4.36c.4 0 .89-.026 1.291-.077v1.33a21.343 21.343 0 00-1.291-.053h-4.347c-.439 0-.916.026-1.264.053v-1.33c.387.05.825.077 1.251.077zm7.406.709l-.851.36c-.258-.515-.671-1.29-1.019-1.78l.826-.347a18.95 18.95 0 011.044 1.767zm1.483-.567l-.839.374a12.94 12.94 0 00-1.059-1.78l.827-.348a16.12 16.12 0 011.071 1.754zm5.535 10.244l-1.097-1.019c2.412-.89 3.549-2 3.549-5.418v-.517h-3.394V6.98c0 .516.039 1.071.052 1.25h-1.432c.026-.18.064-.721.064-1.25V5.043h-1.264c-.606 0-1.136.026-1.343.04V3.688c.168.026.748.103 1.343.103h1.264V2.294c0-.31-.026-.697-.064-1.032h1.445a7.895 7.895 0 00-.065 1.046v1.484h3.394V2.294c0-.516-.04-.942-.064-1.122h1.458c-.013.182-.065.606-.065 1.122v1.497h1.2a8.83 8.83 0 001.29-.077V5.08c-.192-.026-.658-.04-1.277-.04h-1.213v.44c0 3.33-.761 5.175-3.781 6.517zm5.677-9.058l-.748.258c-.193-.556-.452-1.29-.71-1.794l.735-.232c.233.477.556 1.265.723 1.768zm1.316-.4l-.748.246c-.193-.568-.464-1.29-.722-1.793l.735-.232c.245.488.569 1.264.735 1.78zm6.941 1.368c1.342-.826 2.709-2.025 3.587-3.07l1.084 1.032a21.696 21.696 0 01-3.471 2.825v5.355c0 .53.026 1.238.09 1.522h-1.6c.039-.284.077-.992.077-1.522V5.56a26.472 26.472 0 01-4.761 2l-.632-1.277c2.259-.608 4.194-1.485 5.626-2.375zm12.399 4.4c2.077-1.277 3.69-3.213 4.476-4.864l.787 1.406c-.929 1.678-2.516 3.433-4.529 4.671-1.303.8-2.941 1.561-4.941 1.922l-.864-1.329c2.155-.322 3.833-1.045 5.071-1.806zm-.438-4.129l-1.019 1.045c-.672-.684-2.271-2.09-3.226-2.735l.942-1.006c.902.606 2.579 1.948 3.303 2.696zm9.571-1.987h6.414c.348 0 .8-.013 1.032-.027-.013.285-.026.748-.026 1.085v6.67c0 .452.026 1.084.052 1.367h-1.471c0-.181.013-.426.013-.697h-6.116c-.53 0-1.175.026-1.549.052V9.185c.374.026.943.065 1.496.065h6.18V3.495h-6.025c-.503 0-1.161.026-1.496.052V2.115c.451.039 1.072.077 1.496.077zm11.172 3.225h5.615c.495 0 .897-.052 1.155-.077v1.6c-.228-.012-.702-.063-1.155-.063h-5.615c-.568 0-1.187.026-1.538.064v-1.6c.341.025.98.076 1.538.076zm17.407-2.335c-.452 1.058-1.213 2.517-2.116 3.678 1.329 1.135 2.89 2.8 3.691 3.78l-1.135 1.007c-.851-1.162-2.142-2.58-3.42-3.768-1.38 1.471-3.123 2.851-4.968 3.716l-1.045-1.098c2.09-.8 4.025-2.348 5.302-3.78.878-.98 1.743-2.4 2.052-3.407h-4.735c-.503 0-1.2.065-1.406.077V1.83c.258.04 1.006.09 1.406.09h4.787c.477 0 .903-.052 1.122-.129l.839.619c-.09.13-.284.452-.374.671zm10.064 3.109c0 .827-.672 1.496-1.496 1.496a1.498 1.498 0 01-1.496-1.496c0-.824.671-1.496 1.496-1.496.824 0 1.496.671 1.496 1.496zm11.637 1.329h-3.561V4.799h3.561V7.21a7.471 7.471 0 001.459-1.264c-.477-.955-.84-2.14-1.072-3.457h-4.476v.968c0 1.522-.232 3.678-1.419 5.122a4.312 4.312 0 00-.877-.735c1.071-1.303 1.2-3.097 1.2-4.4V1.52h5.432c-.052-.413-.09-.826-.103-1.25h1.135c.013.426.039.839.09 1.25h1.948a9.314 9.314 0 00-1.393-.67l.593-.685c.632.193 1.406.555 1.832.877l-.4.477h1.304v.968h-3.729c.168.917.413 1.743.71 2.439a8.97 8.97 0 00.917-1.949l1.135.258a11.02 11.02 0 01-1.485 2.826c.451.71.942 1.122 1.393 1.122.297 0 .426-.44.49-1.575.245.206.632.427.929.53-.181 1.69-.581 2.13-1.484 2.13-.761 0-1.471-.49-2.064-1.317a8.803 8.803 0 01-1.406 1.2c-.116-.168-.414-.464-.659-.671v.04zm-6.297 3.665c.826-.581 1.367-1.535 1.664-2.49l1.059.374c-.324 1.032-.827 2.116-1.717 2.787l-1.006-.67zm6.453-7.148h-3.858v-.8h3.858v.8zm.89 6.838c.529 0 .619-.155.671-1.264.245.181.761.36 1.071.44-.142 1.521-.49 1.895-1.625 1.895h-2.309c-1.472 0-1.833-.323-1.833-1.445V8.656h1.188v1.832c0 .335.103.387.761.387h2.076zm-2.04-5.264h-1.587V6.71h1.587v-1.1zm-.142 1.988c.761.387 1.677 1.006 2.103 1.496l-.839.735c-.4-.49-1.29-1.148-2.051-1.561l.787-.67zm4.53.94c.89.736 1.806 1.794 2.193 2.607l-1.097.568c-.323-.787-1.213-1.883-2.077-2.657l.981-.517zm4.217-2.501c.323-.864.555-2.284.645-3.329l.877.13c-.064 1.058-.297 2.554-.606 3.509l-.916-.31zm11.897 4.502v1.135h-7.909V10.54h3.586V7.612h-2.619V6.49h2.619V4.063h-1.677c-.245.722-.529 1.38-.826 1.91a6.882 6.882 0 00-1.072-.556 5.65 5.65 0 00.477-.89l-.722.348c-.116-.516-.452-1.342-.774-2.025v9.252h-1.2V.27h1.2v2.387l.761-.31c.324.606.685 1.393.84 1.935.4-1.006.684-2.22.851-3.431l1.174.193a17.23 17.23 0 01-.387 1.883h1.355V.322h1.201v2.606h2.787v1.135h-2.787V6.49h2.503v1.12h-2.503v2.928h3.122v.001zm2.179-4.452c.272-.877.477-2.309.556-3.315l.864.103c-.039 1.02-.245 2.528-.516 3.497l-.904-.285zm3.355-1.793c-.129-.452-.4-1.213-.658-1.806v9.613h-1.098V.282h1.098v2.104l.748-.297c.258.58.593 1.342.722 1.82l-.812.386zm8.607.077v.89h-8.361v-.89h3.536v-.748h-2.838v-.84h2.838v-.67h-3.149v-.89h3.149V.267h1.187v.955h3.264v.89h-3.265v.672h2.928v.839h-2.928v.748h3.639zm-.943 6.503c0 .542-.116.851-.503 1.02-.4.167-1.006.18-1.896.18a4.437 4.437 0 00-.348-1.032c.593.04 1.214.026 1.38.026.181-.013.232-.063.232-.219v-.697h-4.27v1.949h-1.109V5.896h6.516v4.98h-.002zM395.072 6.8v.8h4.27v-.8h-4.27zm4.27 2.489v-.8h-4.27v.8h4.27zm7.831-5.652h2.259v1.019h-1.201l.555.142a22.75 22.75 0 01-.658 1.522h1.148v1.032h-2.103v1.214h1.935v1.019h-1.935v2.49h-1.122v-2.49h-2.025v-1.02h2.025V7.353h-2.141V6.32h1.122c-.064-.44-.258-1.045-.49-1.522l.529-.142h-1.38v-1.02h2.361v-1.12h-1.896V1.509h1.896V.295h1.122V1.51h1.781v1.006h-1.781v1.122h-.001zm.026 2.567c.181-.44.413-1.084.542-1.548h-2.232c.232.503.452 1.135.503 1.548l-.426.116h2.051l-.438-.116zm8.012-.787c-.258 1.535-.748 2.98-1.458 4.207.555.645 1.2 1.174 1.922 1.535a4.755 4.755 0 00-.8.955 7.077 7.077 0 01-1.78-1.522 7.395 7.395 0 01-1.575 1.535 3.732 3.732 0 00-.658-.697v.684h-1.084V.838h5.135v2.438c0 .555-.116.864-.569 1.032-.426.168-1.084.168-2.051.168a3.785 3.785 0 00-.361-1.032 23.49 23.49 0 001.614.013c.192-.013.245-.052.245-.193V1.897h-2.929v3.304h3.42l.193-.052.736.268zm-4.347 5.794c.593-.413 1.097-.942 1.535-1.548-.658-1.02-1.161-2.206-1.535-3.483v5.031zm1.006-5.033c.284.877.671 1.716 1.148 2.478.413-.775.71-1.614.916-2.478h-2.064zm7.534-1.314h8.452c.271 0 .748-.013 1.084-.064v1.33a26.76 26.76 0 00-1.084-.027h-3.329c-.052 1.367-.31 2.504-.8 3.433-.464.877-1.445 1.832-2.567 2.412l-1.188-.877c.956-.387 1.884-1.135 2.388-1.922.555-.864.722-1.885.774-3.046h-3.728c-.387 0-.814.013-1.175.04V4.8c.361.037.773.064 1.173.064zm1.601-3.252h4.36a11 11 0 001.29-.077v1.33a21.31 21.31 0 00-1.29-.053h-4.347c-.44 0-.917.026-1.264.053v-1.33c.387.05.824.077 1.251.077zm7.406.709l-.851.36c-.258-.515-.671-1.29-1.019-1.78l.826-.347a18.95 18.95 0 011.044 1.767zm1.483-.567l-.839.374a13.04 13.04 0 00-1.059-1.78l.827-.348a16.12 16.12 0 011.071 1.754zm5.018 10.244l-1.097-1.019c2.412-.89 3.548-2 3.548-5.418v-.517h-3.393V6.98c0 .516.039 1.071.052 1.25h-1.432c.026-.18.063-.721.063-1.25V5.043h-1.264c-.606 0-1.135.026-1.342.04V3.688c.168.026.748.103 1.342.103h1.264V2.294c0-.31-.026-.697-.063-1.032h1.445a7.895 7.895 0 00-.065 1.046v1.484h3.393V2.294c0-.516-.039-.942-.064-1.122h1.459c-.013.182-.065.606-.065 1.122v1.497h1.2a8.83 8.83 0 001.29-.077V5.08c-.193-.026-.658-.04-1.277-.04h-1.213v.44c0 3.33-.761 5.175-3.781 6.517zm5.677-9.058l-.748.258c-.193-.556-.453-1.29-.711-1.794l.735-.232c.234.477.557 1.265.724 1.768zm1.316-.4l-.748.246c-.193-.568-.464-1.29-.722-1.793l.735-.232c.245.488.568 1.264.735 1.78zm6.425 1.368c1.343-.826 2.71-2.025 3.587-3.07l1.084 1.032a21.696 21.696 0 01-3.471 2.825v5.355c0 .53.027 1.238.09 1.522h-1.6c.039-.284.077-.992.077-1.522V5.56a26.472 26.472 0 01-4.761 2l-.632-1.277c2.259-.608 4.194-1.485 5.626-2.375zm12.399 4.4c2.077-1.277 3.691-3.213 4.477-4.864l.787 1.406c-.929 1.678-2.517 3.433-4.529 4.671-1.303.8-2.941 1.561-4.942 1.922l-.864-1.329c2.156-.322 3.833-1.045 5.071-1.806zm-.438-4.129l-1.019 1.045c-.671-.684-2.27-2.09-3.225-2.735l.942-1.006c.902.606 2.579 1.948 3.302 2.696zm9.572-1.987h6.413c.348 0 .801-.013 1.032-.027-.013.285-.026.748-.026 1.085v6.67c0 .452.026 1.084.053 1.367h-1.472c0-.181.013-.426.013-.697h-6.116c-.529 0-1.174.026-1.548.052V9.185c.374.026.942.065 1.496.065h6.18V3.495h-6.025c-.503 0-1.161.026-1.496.052V2.115a19.89 19.89 0 001.496.077zm11.171 3.225h5.614c.496 0 .898-.052 1.156-.077v1.6c-.228-.012-.702-.063-1.156-.063h-5.614a16.6 16.6 0 00-1.538.064v-1.6c.34.025.98.076 1.538.076zm17.407-2.335c-.452 1.058-1.213 2.517-2.116 3.678 1.329 1.135 2.89 2.8 3.691 3.78l-1.135 1.007c-.851-1.162-2.142-2.58-3.42-3.768-1.38 1.471-3.123 2.851-4.968 3.716l-1.045-1.098c2.09-.8 4.025-2.348 5.303-3.78.877-.98 1.742-2.4 2.051-3.407h-4.735c-.503 0-1.2.065-1.406.077V1.83c.258.04 1.006.09 1.406.09h4.787c.477 0 .903-.052 1.122-.129l.839.619c-.09.13-.284.452-.374.671zM219.619 25.843v1.084h-11.225v-1.084h4.968v-2.31h-3.626v-1.07h8.787v1.07h-3.936v2.31h5.032zm-6.425-8.052c-.258 2.22-.98 3.562-4.116 4.258-.103-.31-.413-.774-.645-1.019 2.775-.516 3.316-1.51 3.51-3.239h-2.167v1.625h-1.175v-2.709h4.761v-1.25h1.226v1.25h4.864v2.438h-1.226V17.79h-2.246v2.335c0 .324.077.374.503.374h1.432c.348 0 .427-.142.464-.98.245.155.722.335 1.032.414-.116 1.264-.439 1.587-1.367 1.587h-1.716c-1.251 0-1.535-.31-1.535-1.38v-2.35h-1.599zm11.03 2.671V27.3h-1.187V15.97h4.761v4.49h-3.574v.002zm0-3.587v.89h2.439v-.89h-2.439zm2.439 2.697v-.956h-2.439v.956h2.439zm7.032 6.232c0 .684-.142 1.071-.606 1.277-.451.194-1.161.206-2.246.206a5.312 5.312 0 00-.374-1.175h-3.483v.646h-1.097v-5.406h4.838v4.723c.633.026 1.252.013 1.459.013.232-.013.297-.077.297-.297v-5.303h-3.665v-4.516h4.877v9.832zm-6.709-3.55v1.007h2.619v-1.006h-2.619zm2.619 2.957V24.14h-2.619v1.07h2.619zm.361-8.336v.89h2.517v-.89h-2.517zm2.516 2.723v-.98h-2.517v.98h2.517zm5.909.451h8.451c.271 0 .748-.013 1.084-.064v1.33a26.76 26.76 0 00-1.084-.027h-3.328c-.053 1.367-.311 2.504-.801 3.433-.463.877-1.445 1.832-2.567 2.412l-1.187-.877c.955-.387 1.883-1.135 2.387-1.922.556-.864.722-1.885.774-3.046h-3.728c-.387 0-.813.013-1.174.04v-1.343c.361.039.772.064 1.173.064zm1.6-3.252h4.36c.401 0 .891-.026 1.291-.077v1.33a21.31 21.31 0 00-1.291-.053h-4.347c-.439 0-.916.026-1.264.053v-1.33a9.65 9.65 0 001.251.077zm7.406.71l-.851.361c-.258-.516-.671-1.29-1.019-1.78l.826-.348c.321.464.786 1.264 1.044 1.767zm1.483-.568l-.839.374a12.935 12.935 0 00-1.058-1.78l.826-.348c.349.49.839 1.29 1.071 1.754zm5.793 10.245l-1.097-1.02c2.412-.89 3.548-2 3.548-5.418v-.516h-3.393v1.935c0 .516.039 1.072.052 1.251h-1.432c.026-.18.064-.722.064-1.25V20.23h-1.265c-.605 0-1.135.026-1.342.04v-1.394c.168.026.748.103 1.342.103h1.265v-1.496c0-.31-.027-.697-.064-1.032h1.445a7.894 7.894 0 00-.065 1.045v1.484h3.393v-1.496c0-.516-.039-.942-.063-1.122h1.458c-.013.182-.065.606-.065 1.122v1.496h1.2c.632 0 1.045-.039 1.29-.076v1.367c-.192-.027-.658-.04-1.277-.04h-1.213v.44c0 3.327-.761 5.172-3.781 6.513zm5.677-9.057l-.748.258c-.193-.556-.452-1.29-.71-1.794l.735-.232c.233.477.556 1.264.723 1.768zm1.316-.4l-.748.244c-.193-.568-.464-1.29-.722-1.793l.735-.232c.245.49.569 1.264.735 1.78zm7.198 1.368c1.343-.826 2.71-2.025 3.587-3.07l1.084 1.032a21.732 21.732 0 01-3.47 2.825v5.355c0 .53.026 1.238.09 1.522h-1.601c.039-.284.077-.993.077-1.522v-4.491a26.404 26.404 0 01-4.761 2l-.632-1.277c2.259-.607 4.194-1.484 5.626-2.374zm13.174 4.399c2.077-1.277 3.69-3.212 4.476-4.863l.787 1.406c-.929 1.677-2.516 3.433-4.528 4.67-1.304.8-2.942 1.562-4.942 1.923l-.864-1.33c2.155-.323 3.833-1.045 5.071-1.806zm-.438-4.128l-1.019 1.045c-.671-.684-2.27-2.09-3.226-2.736l.943-1.006c.901.606 2.579 1.947 3.302 2.697zm10.346-1.988h6.413c.348 0 .801-.013 1.032-.026a27.49 27.49 0 00-.026 1.084v6.672c0 .452.026 1.084.053 1.367h-1.472c0-.182.013-.427.013-.698h-6.116c-.529 0-1.174.026-1.548.053v-1.46c.374.026.942.065 1.496.065h6.18V18.68h-6.025c-.503 0-1.161.026-1.496.052V17.3c.451.038 1.071.077 1.496.077zm11.946 3.226h5.614c.496 0 .897-.052 1.155-.077v1.6c-.227-.012-.701-.063-1.155-.063h-5.614a16.6 16.6 0 00-1.538.064v-1.6c.34.024.979.076 1.538.076zm18.026-2.336c-.452 1.058-1.213 2.517-2.117 3.678 1.33 1.135 2.891 2.8 3.691 3.78l-1.135 1.007c-.851-1.162-2.141-2.58-3.42-3.768-1.38 1.471-3.122 2.852-4.967 3.715l-1.046-1.097c2.091-.8 4.026-2.348 5.303-3.78.877-.98 1.743-2.4 2.051-3.407h-4.734c-.503 0-1.2.065-1.406.077v-1.459c.258.04 1.006.09 1.406.09h4.787c.476 0 .903-.052 1.122-.129l.839.62c-.09.131-.284.454-.374.673zm10.837 3.11a1.497 1.497 0 11-2.993-.002 1.497 1.497 0 012.993.002zm14.993-3.484c-.413 1.072-1.032 2.452-1.859 3.665 1.148.942 2.259 1.948 3.149 2.917l-1.032 1.135c-.929-1.072-1.896-1.988-2.968-2.916-1.174 1.433-2.722 2.904-4.941 4.09l-1.136-1.02c2.194-1.044 3.755-2.387 5.019-3.948a36.705 36.705 0 00-3.56-2.541l.851-1.032a54.541 54.541 0 013.548 2.464c.762-1.122 1.238-2.27 1.614-3.328.103-.285.219-.748.284-1.059l1.496.53a9.12 9.12 0 00-.465 1.043zm4.798 2.155h8.451c.271 0 .748-.013 1.085-.064v1.33a28.608 28.608 0 00-1.085-.027h-3.328c-.052 1.367-.31 2.504-.8 3.433-.464.877-1.446 1.832-2.568 2.412l-1.187-.877c.955-.387 1.883-1.135 2.388-1.922.555-.864.722-1.885.774-3.046h-3.729c-.387 0-.813.013-1.174.04v-1.343c.361.039.774.064 1.173.064zm1.6-3.252h4.361c.4 0 .89-.026 1.29-.077v1.33a21.31 21.31 0 00-1.29-.053h-4.348c-.439 0-.916.026-1.264.053v-1.33a9.65 9.65 0 001.251.077zm7.406.71l-.85.361c-.259-.516-.672-1.29-1.02-1.78l.827-.348a18.73 18.73 0 011.043 1.767zm1.485-.568l-.839.374a13.042 13.042 0 00-1.059-1.78l.827-.348c.348.49.838 1.29 1.071 1.754zm6.218 3.962c1.226-.761 2.464-1.858 3.136-2.683l1.006.98c-.645.684-1.754 1.613-2.904 2.374v4.529c0 .413.013 1.02.064 1.238h-1.496c.026-.219.052-.826.052-1.238v-3.717a26.097 26.097 0 01-3.884 1.625l-.619-1.213c1.691-.386 3.6-1.263 4.645-1.895zm18.372-2.801c-.555.943-1.78 2.58-3.162 3.56l-1.071-.863c1.135-.659 2.259-1.936 2.633-2.67h-7.07c-.516 0-.969.039-1.522.076v-1.432a11.64 11.64 0 001.522.116h7.212c.284 0 .864-.04 1.071-.09l.813.761c-.116.142-.323.389-.426.542zm-8.373 8.762l-1.187-.968a4.867 4.867 0 001.238-.632c1.845-1.188 2.141-2.813 2.141-4.955a5.78 5.78 0 00-.077-1.032h1.471c0 3.367-.194 5.845-3.586 7.587zm11.611-6.813h8.451c.271 0 .748-.013 1.084-.064v1.33a26.76 26.76 0 00-1.084-.027h-3.328c-.052 1.367-.31 2.504-.8 3.433-.464.877-1.446 1.832-2.568 2.412l-1.187-.877c.955-.387 1.883-1.135 2.387-1.922.556-.864.722-1.885.775-3.046h-3.729c-.387 0-.813.013-1.174.04v-1.343c.361.039.774.064 1.173.064zm1.6-3.252h4.361c.4 0 .89-.026 1.29-.077v1.33a21.31 21.31 0 00-1.29-.053h-4.348c-.439 0-.916.026-1.264.053v-1.33a9.65 9.65 0 001.251.077zm7.406.71l-.851.361c-.258-.516-.671-1.29-1.019-1.78l.827-.348c.321.464.785 1.264 1.043 1.767zm1.485-.568l-.84.374a12.935 12.935 0 00-1.058-1.78l.826-.348c.348.49.838 1.29 1.072 1.754zm5.533 10.245l-1.097-1.02c2.412-.89 3.548-2 3.548-5.418v-.516h-3.393v1.935c0 .516.039 1.072.052 1.251h-1.432a11.5 11.5 0 00.063-1.25V20.23h-1.264c-.606 0-1.135.026-1.342.04v-1.394c.168.026.748.103 1.342.103h1.264v-1.496c0-.31-.026-.697-.063-1.032h1.445a7.894 7.894 0 00-.065 1.045v1.484h3.393v-1.496c0-.516-.039-.942-.063-1.122h1.458c-.013.182-.065.606-.065 1.122v1.496h1.2c.632 0 1.045-.039 1.29-.076v1.367c-.193-.027-.658-.04-1.277-.04h-1.213v.44c0 3.327-.761 5.172-3.781 6.513zm5.678-9.057l-.748.258c-.193-.556-.452-1.29-.71-1.794l.735-.232c.232.477.555 1.264.723 1.768zm1.315-.4l-.748.244c-.193-.568-.464-1.29-.722-1.793l.735-.232c.245.49.568 1.264.735 1.78zm6.941 1.368c1.343-.826 2.71-2.025 3.587-3.07l1.084 1.032a21.732 21.732 0 01-3.47 2.825v5.355c0 .53.026 1.238.09 1.522h-1.601c.039-.284.077-.993.077-1.522v-4.491a26.404 26.404 0 01-4.761 2l-.632-1.277c2.259-.607 4.196-1.484 5.626-2.374zm12.915 4.399c2.077-1.277 3.691-3.212 4.476-4.863l.788 1.406c-.93 1.677-2.517 3.433-4.529 4.67-1.303.8-2.942 1.562-4.942 1.923l-.864-1.33c2.156-.323 3.833-1.045 5.071-1.806zm-.438-4.128l-1.019 1.045c-.671-.684-2.27-2.09-3.226-2.736l.943-1.006c.901.606 2.579 1.947 3.302 2.697zm10.088-1.988h6.413c.348 0 .8-.013 1.032-.026a27.49 27.49 0 00-.026 1.084v6.672c0 .452.026 1.084.052 1.367h-1.471c0-.182.013-.427.013-.698h-6.116c-.529 0-1.174.026-1.548.053v-1.46c.374.026.942.065 1.496.065h6.18V18.68h-6.025c-.503 0-1.161.026-1.496.052V17.3c.451.038 1.071.077 1.496.077zm11.687 3.226h5.615c.495 0 .897-.052 1.155-.077v1.6c-.228-.012-.702-.063-1.155-.063h-5.615c-.568 0-1.187.026-1.538.064v-1.6c.341.024.98.076 1.538.076zm17.821-2.336c-.452 1.058-1.213 2.517-2.117 3.678 1.33 1.135 2.891 2.8 3.691 3.78l-1.135 1.007c-.851-1.162-2.141-2.58-3.42-3.768-1.38 1.471-3.122 2.852-4.967 3.715l-1.046-1.097c2.091-.8 4.026-2.348 5.303-3.78.877-.98 1.743-2.4 2.051-3.407h-4.734c-.503 0-1.2.065-1.406.077v-1.459c.258.04 1.006.09 1.406.09h4.787c.477 0 .903-.052 1.122-.129l.839.62c-.09.131-.284.454-.374.673zM226.683 119.46h-21.68c-.149-5.726 2.927-9.782 11.261-14.841 4.911-3.103 6.202-4.677 6.202-7.683 0-3.34-2.481-5.679-6.003-5.679-2.729 0-4.812 1.337-5.655 3.58-.298.906-.398 1.765-.398 4.103h-4.415v-1.193c0-3.245.694-5.44 2.331-7.206 1.884-2.147 4.762-3.244 8.285-3.244 6.25 0 10.467 3.865 10.467 9.592 0 2.768-.991 5.106-2.926 7.063-1.34 1.336-1.985 1.813-6.847 4.82-3.423 2.195-6.202 4.916-6.796 6.729h16.172v3.959h.002zm27.731-26.914c1.637 2.911 2.331 6.299 2.331 11.358 0 4.581-.743 8.112-2.331 10.929-1.884 3.292-5.258 5.249-9.077 5.249-3.771 0-7.144-1.957-9.029-5.249-1.587-2.911-2.331-6.299-2.331-11.167 0-4.82.744-8.351 2.331-11.118 1.935-3.293 5.258-5.25 9.029-5.25 3.869-.001 7.191 1.907 9.077 5.248zm-14.435 2.386c-.943 2.147-1.389 4.82-1.389 8.733 0 3.912.446 6.633 1.389 8.78 1.042 2.243 3.076 3.675 5.407 3.675 2.282 0 4.365-1.432 5.358-3.675.942-2.147 1.388-4.82 1.388-8.589 0-4.104-.397-6.823-1.388-8.924-1.043-2.29-3.126-3.675-5.407-3.675-2.282 0-4.318 1.385-5.358 3.675zm45.093 24.528h-21.68c-.149-5.726 2.927-9.782 11.261-14.841 4.912-3.103 6.202-4.677 6.202-7.683 0-3.34-2.481-5.679-6.003-5.679-2.728 0-4.812 1.337-5.655 3.58-.297.906-.397 1.765-.397 4.103h-4.416v-1.193c0-3.245.694-5.44 2.331-7.206 1.885-2.147 4.762-3.244 8.285-3.244 6.251 0 10.468 3.865 10.468 9.592 0 2.768-.992 5.106-2.927 7.063-1.34 1.336-1.985 1.813-6.847 4.82-3.423 2.195-6.201 4.916-6.796 6.729h16.172v3.959h.002zm29.417 0h-21.68c-.149-5.726 2.927-9.782 11.261-14.841 4.912-3.103 6.202-4.677 6.202-7.683 0-3.34-2.481-5.679-6.003-5.679-2.728 0-4.812 1.337-5.655 3.58-.297.906-.397 1.765-.397 4.103h-4.416v-1.193c0-3.245.694-5.44 2.331-7.206 1.885-2.147 4.762-3.244 8.285-3.244 6.251 0 10.468 3.865 10.468 9.592 0 2.768-.992 5.106-2.927 7.063-1.34 1.336-1.985 1.813-6.847 4.82-3.423 2.195-6.202 4.916-6.796 6.729h16.172v3.959h.002zm13.99-.636h-4.599v-4.296h4.599v4.296zm42.723.481h-30.567c-.21-8.075 4.127-13.793 15.878-20.926 6.925-4.373 8.743-6.594 8.743-10.833 0-4.71-3.498-8.006-8.463-8.006-3.847 0-6.784 1.884-7.975 5.046-.42 1.278-.559 2.489-.559 5.787h-6.225V88.69c0-4.575.98-7.67 3.288-10.16 2.659-3.029 6.715-4.575 11.681-4.575 8.814 0 14.759 5.45 14.759 13.525 0 3.902-1.399 7.2-4.127 9.959-1.889 1.884-2.798 2.557-9.653 6.796-4.826 3.095-8.743 6.931-9.582 9.488h22.802v5.581zm13.605-.481h-4.598v-4.296h4.598v4.296zm23.697.481h-6.156V87.411h-10.56v-4.373c6.014.201 10.84-3.095 11.959-8.141h4.757v44.408zm43.992-12.785c0 7.874-6.785 13.659-15.877 13.659-9.162 0-15.946-5.854-15.946-13.659 0-5.046 2.587-8.882 7.903-11.707-3.847-2.153-5.804-5.382-5.804-9.353 0-6.661 5.804-11.506 13.848-11.506 7.974 0 13.779 4.845 13.779 11.506 0 3.97-1.958 7.2-5.804 9.353 5.313 2.825 7.901 6.661 7.901 11.707zm-25.32-.336c0 4.98 3.847 8.411 9.442 8.411 5.455 0 9.372-3.431 9.372-8.276 0-5.046-3.777-8.478-9.442-8.478-5.525-.001-9.372 3.43-9.372 8.343zm1.889-20.254c0 3.767 3.077 6.393 7.554 6.393 4.336 0 7.483-2.624 7.483-6.325 0-3.836-3.008-6.46-7.554-6.46-4.406 0-7.483 2.624-7.483 6.392zm47.882 16.525h-11.011v6.203h9.243v2.482h-9.243v9.43h-2.947V99.88h13.958v2.575zm6.576 3.135v2.357c.59-.868.838-1.21 1.241-1.581.683-.714 1.769-1.179 2.667-1.179.558 0 1.086.125 1.582.373v2.574c-.59-.125-.9-.155-1.303-.155-2.295 0-4.064 2.047-4.064 4.714v7.879h-2.854V105.59h2.731zm13.555-2.389h-2.854v-3.32h2.854v3.32zm0 17.369h-2.854v-14.98h2.854v14.98zm38.573-19.133h-19.62v-4.13h19.62v4.13zm53.033 17.962H557.99c-.21-8.108 4.143-13.851 15.943-21.014 6.953-4.392 8.779-6.622 8.779-10.878 0-4.73-3.511-8.041-8.497-8.041-3.864 0-6.814 1.891-8.007 5.068-.422 1.284-.562 2.5-.562 5.811h-6.251v-1.689c0-4.595.983-7.703 3.301-10.202 2.669-3.042 6.742-4.596 11.729-4.596 8.85 0 14.82 5.473 14.82 13.582 0 3.919-1.405 7.23-4.145 10-1.896 1.892-2.809 2.567-9.692 6.825-4.846 3.108-8.779 6.96-9.623 9.527h22.897v5.607h.002zm37.925-38.109c2.318 4.12 3.301 8.919 3.301 16.08 0 6.487-1.054 11.487-3.301 15.474-2.668 4.662-7.445 7.432-12.852 7.432-5.338 0-10.114-2.77-12.783-7.432-2.247-4.122-3.301-8.92-3.301-15.811 0-6.826 1.054-11.825 3.301-15.744 2.74-4.662 7.445-7.432 12.783-7.432 5.478 0 10.184 2.702 12.852 7.432zm-20.438 3.378c-1.335 3.042-1.967 6.825-1.967 12.366 0 5.54.632 9.392 1.967 12.432 1.474 3.176 4.354 5.203 7.655 5.203 3.232 0 6.182-2.027 7.586-5.203 1.335-3.041 1.967-6.825 1.967-12.162 0-5.812-.562-9.662-1.967-12.636-1.474-3.242-4.424-5.202-7.655-5.202-3.232 0-6.111 1.958-7.586 5.202zm46.823 21.603c-.31-2.854-2.016-4.249-5.149-4.249-2.76 0-4.529 1.179-4.529 2.978 0 1.519 1.086 2.419 3.723 3.009l3.35.745c2.45.558 3.691 1.086 4.684 1.985 1.086.961 1.674 2.357 1.674 3.97 0 3.909-3.164 6.328-8.189 6.328-5.366 0-8.592-2.73-9.027-7.693h3.071c.31 3.288 2.481 5.118 6.048 5.118 2.977 0 5.086-1.458 5.086-3.535 0-1.551-1.116-2.575-3.287-3.102l-4.654-1.117c-3.785-.9-5.49-2.574-5.49-5.366 0-3.63 3.01-5.925 7.755-5.925 4.744 0 7.288 2.202 7.941 6.855h-3.007v-.001zm17.99 14.299v-1.706c-1.489 1.581-2.699 2.109-4.746 2.109-1.769 0-3.225-.59-4.063-1.644-.714-.931-.993-1.984-.993-3.723v-10.018h2.854v9.802c0 2.047.931 3.04 2.885 3.04 2.45 0 3.939-1.426 3.939-3.753v-9.088h2.854v14.982h-2.73v-.001zm9.275-14.98v1.706c1.489-1.581 2.699-2.109 4.746-2.109 1.769 0 3.226.59 4.064 1.644.713.931.993 1.984.993 3.723v10.018h-2.855v-9.802c0-2.047-.931-3.04-2.885-3.04-2.45 0-3.938 1.426-3.938 3.753v9.088h-2.855V105.59h2.73z" fill="#fff"/></svg>